<svg width="854" height="697" viewBox="0 0 854 697" fill="none" xmlns="http://www.w3.org/2000/svg">
<path d="M470.021 411.377C446.975 371.121 367.643 349.417 327.085 365.585C282.298 383.447 289.101 495.14 300.022 507.956C310.943 520.772 345.889 415.996 387.099 430.293C432.841 446.172 432.903 525.906 452.435 523.734C471.653 521.601 496.658 457.909 470.021 411.377Z" stroke="url(#paint0_linear_817_3948)" stroke-width="2" stroke-miterlimit="10"/>
<path d="M475.652 398.783C455.568 351.598 359.541 331.124 314.302 351.924C263.063 375.498 282.055 496.843 290.164 514.856C297.143 530.384 344.139 429.587 393.935 441.637C448.037 454.717 456.824 526.63 469.376 521.258C482.833 515.484 499.163 454.152 475.652 398.783Z" stroke="url(#paint1_linear_817_3948)" stroke-width="2" stroke-miterlimit="10"/>
<path d="M481.28 386.186C464.221 332.147 351.462 312.866 301.54 338.26C243.799 367.595 275.18 497.577 280.301 521.753C284.067 539.327 342.336 443.262 400.806 452.965C463.167 463.321 481.456 528.971 486.238 518.778C494.711 511.171 501.628 450.593 481.28 386.186Z" stroke="url(#paint2_linear_817_3948)" stroke-width="2" stroke-miterlimit="10"/>
<path d="M486.955 373.579C472.796 312.724 343.429 294.636 288.8 324.624C224.682 359.771 259.239 500.021 270.474 528.678C277.516 546.628 340.554 457.016 407.66 464.321C478.281 472.016 505.746 530.523 503.148 516.327C506.248 505.946 504.014 447.011 486.955 373.579Z" stroke="url(#paint3_linear_817_3948)" stroke-width="2" stroke-miterlimit="10"/>
<path d="M492.545 360.971C481.248 293.326 335.337 276.43 275.976 310.912C205.431 351.883 251.649 499.2 260.574 535.527C265.595 555.912 338.676 470.731 414.456 475.614C493.336 480.635 526.813 533.355 519.997 513.799C515.642 501.271 506.328 443.454 492.545 360.971Z" stroke="url(#paint4_linear_817_3948)" stroke-width="2" stroke-miterlimit="10"/>
<path d="M498.187 348.387C489.689 273.938 327.284 258.248 263.216 297.248C186.256 344.082 257.517 498.616 250.663 542.437C247.136 565.145 336.799 484.545 421.265 486.955C508.38 489.465 551.698 535.282 536.836 511.319C527.648 496.407 508.618 439.92 498.187 348.387Z" stroke="url(#paint5_linear_817_3948)" stroke-width="2" stroke-miterlimit="10"/>
<path d="M503.801 335.78C498.102 254.54 319.278 240.067 250.428 283.562C167.079 336.282 252.336 499.152 240.85 549.312C235.226 573.852 334.994 498.336 428.146 498.26C523.546 498.185 576.518 536.797 553.772 508.817C539.5 491.269 510.868 436.376 503.801 335.78Z" stroke="url(#paint6_linear_817_3948)" stroke-width="2" stroke-miterlimit="10"/>
<path d="M509.449 323.176C506.512 235.145 311.219 221.927 237.661 269.89C147.923 328.46 247.364 499.828 230.996 556.201C223.326 582.637 333.199 512.167 435 509.594C538.634 506.97 601.158 538.213 570.668 506.33C551.287 486.045 513.102 432.81 509.449 323.176Z" stroke="url(#paint7_linear_817_3948)" stroke-width="2" stroke-miterlimit="10"/>
<path d="M515.071 310.579C514.883 215.757 303.172 203.731 224.869 256.226C128.742 320.671 242.442 500.624 221.103 563.098C211.4 591.492 331.34 526.018 441.815 520.922C553.708 515.763 625.659 539.612 587.537 503.85C562.972 480.779 515.297 429.288 515.071 310.579Z" stroke="url(#paint8_linear_817_3948)" stroke-width="2" stroke-miterlimit="10"/>
<path d="M520.706 297.97C523.216 196.294 295.162 185.562 212.114 242.55C109.61 312.845 237.684 501.509 211.273 569.983C199.549 600.386 329.543 539.857 448.679 532.238C568.832 524.556 650.16 541.025 604.456 501.346C574.644 475.488 517.492 425.73 520.706 297.97Z" stroke="url(#paint9_linear_817_3948)" stroke-width="2" stroke-miterlimit="10"/>
<path d="M526.341 285.371C531.626 176.942 287.14 167.377 199.335 228.885C90.4539 305.104 232.925 502.53 201.406 576.879C187.673 609.327 327.722 553.732 455.52 543.577C583.945 533.372 674.587 542.397 621.339 498.865C586.279 470.195 519.663 422.169 526.341 285.371Z" stroke="url(#paint10_linear_817_3948)" stroke-width="2" stroke-miterlimit="10"/>
<path d="M531.98 272.761C539.988 157.529 279.121 149.257 186.559 215.208C71.314 297.326 228.208 503.489 191.58 583.763C175.814 618.27 325.892 567.583 462.401 554.892C599.086 542.176 699.029 543.783 638.262 496.372C597.906 464.903 521.837 418.597 531.98 272.761Z" stroke="url(#paint11_linear_817_3948)" stroke-width="2" stroke-miterlimit="10"/>
<path d="M537.599 260.159C548.332 138.11 271.046 131.106 173.789 201.538C52.1671 289.557 223.497 504.557 181.684 590.667C163.91 627.27 324.093 581.466 469.213 566.227C614.333 550.989 723.389 545.177 655.154 493.887C609.513 459.606 523.98 415.032 537.599 260.159Z" stroke="url(#paint12_linear_817_3948)" stroke-width="2" stroke-miterlimit="10"/>
<path d="M543.231 247.567C556.675 118.702 263.084 112.966 161.006 187.867C32.9705 281.798 218.748 505.685 171.814 597.557C152.019 636.281 322.281 595.348 476.05 577.561C629.279 559.824 747.75 546.594 672.008 491.4C621.107 454.32 526.135 411.478 543.231 247.567Z" stroke="url(#paint13_linear_817_3948)" stroke-width="2" stroke-miterlimit="10"/>
<path d="M548.878 234.957C565.034 99.2764 255.224 95.0085 148.239 174.228C14.0773 274.309 214.14 506.87 161.971 604.479C140.142 645.325 320.485 609.261 482.902 588.913C644.403 568.679 772.138 548.03 688.915 488.945C632.717 449.015 528.28 407.881 548.878 234.957Z" stroke="url(#paint14_linear_817_3948)" stroke-width="2" stroke-miterlimit="10"/>
<path d="M554.495 222.354C573.362 79.8572 247.196 76.8446 135.479 160.52C-5.10975 266.476 209.539 507.987 152.123 611.332C128.274 654.324 318.696 623.106 489.787 600.198C659.573 577.478 796.533 549.398 705.854 486.422C644.309 443.718 530.419 404.303 554.495 222.354Z" stroke="url(#paint15_linear_817_3948)" stroke-width="2" stroke-miterlimit="10"/>
<path d="M560.138 209.755C581.703 60.3796 239.169 58.6724 122.694 146.854C-24.1704 258.685 204.801 509.171 142.251 618.227C116.355 663.416 316.907 637.295 496.597 611.524C674.693 586.607 820.854 550.808 722.694 483.94C655.901 438.425 532.56 400.717 560.138 209.755Z" stroke="url(#paint16_linear_817_3948)" stroke-width="2" stroke-miterlimit="10"/>
<path d="M565.768 197.153C589.756 40.9613 231.13 40.4969 109.91 133.185C-43.407 250.89 200.125 510.376 132.379 625.132C104.462 672.417 315.094 651.115 503.432 622.86C689.8 595.382 845.188 552.214 739.583 481.443C667.481 433.128 534.336 397.077 565.768 197.153Z" stroke="url(#paint17_linear_817_3948)" stroke-width="2" stroke-miterlimit="10"/>
<path d="M571.39 184.547C598.152 21.54 223.107 22.3434 97.1293 119.513C-62.5642 243.08 195.466 511.591 122.511 632.02C92.5601 681.465 313.309 664.946 510.271 634.179C704.911 604.154 869.538 553.63 756.464 478.955C679.002 427.791 536.544 393.497 571.39 184.547Z" stroke="url(#paint18_linear_817_3948)" stroke-width="2" stroke-miterlimit="10"/>
<path d="M577.016 171.941C606.54 2.11742 215.064 4.15091 84.3543 105.839C-81.6908 235.281 190.787 512.83 112.648 638.908C80.6512 690.524 311.455 678.838 517.066 645.498C719.977 612.862 893.968 554.831 773.313 476.466C690.73 422.377 538.756 389.916 577.016 171.941Z" stroke="url(#paint19_linear_817_3948)" stroke-width="2" stroke-miterlimit="10"/>
<path d="M582.658 159.342C614.981 -17.297 207.023 -14.0585 71.581 92.1737C-100.878 227.49 186.123 514.077 102.837 645.804C68.7944 699.604 309.703 692.612 524 656.837C735.146 621.703 918.275 556.354 790.252 473.984C702.259 417.159 540.921 386.368 582.658 159.342Z" stroke="url(#paint20_linear_817_3948)" stroke-width="2" stroke-miterlimit="10"/>
<path d="M807.138 471.487C713.798 411.938 543.196 382.753 588.285 146.74C623.344 -36.7281 199.018 -32.1966 58.8057 78.4917C-120.043 219.695 181.457 515.32 92.9361 652.695C21.3363 763.785 1080.12 645.628 807.138 471.487Z" stroke="url(#paint21_linear_817_3948)" stroke-width="2" stroke-miterlimit="10"/>
<defs>
<linearGradient id="paint0_linear_817_3948" x1="481.616" y1="441.991" x2="291.932" y2="441.991" gradientUnits="userSpaceOnUse">
<stop offset="0.520833" stop-color="#4A3AFF"/>
<stop offset="1" stop-color="#FF5D3A"/>
</linearGradient>
<linearGradient id="paint1_linear_817_3948" x1="487.551" y1="432.678" x2="279.934" y2="432.678" gradientUnits="userSpaceOnUse">
<stop offset="0.520833" stop-color="#4A3AFF"/>
<stop offset="1" stop-color="#FF5D3A"/>
</linearGradient>
<linearGradient id="paint2_linear_817_3948" x1="494.579" y1="425.551" x2="267.201" y2="425.551" gradientUnits="userSpaceOnUse">
<stop offset="0.520833" stop-color="#4A3AFF"/>
<stop offset="1" stop-color="#FF5D3A"/>
</linearGradient>
<linearGradient id="paint3_linear_817_3948" x1="504.327" y1="420.745" x2="251.069" y2="420.745" gradientUnits="userSpaceOnUse">
<stop offset="0.520833" stop-color="#4A3AFF"/>
<stop offset="1" stop-color="#FF5D3A"/>
</linearGradient>
<linearGradient id="paint4_linear_817_3948" x1="520.859" y1="416.108" x2="237.464" y2="416.108" gradientUnits="userSpaceOnUse">
<stop offset="0.520833" stop-color="#4A3AFF"/>
<stop offset="1" stop-color="#FF5D3A"/>
</linearGradient>
<linearGradient id="paint5_linear_817_3948" x1="539.714" y1="411.522" x2="227.166" y2="411.522" gradientUnits="userSpaceOnUse">
<stop offset="0.520833" stop-color="#4A3AFF"/>
<stop offset="1" stop-color="#FF5D3A"/>
</linearGradient>
<linearGradient id="paint6_linear_817_3948" x1="559.016" y1="406.874" x2="213.451" y2="406.874" gradientUnits="userSpaceOnUse">
<stop offset="0.520833" stop-color="#4A3AFF"/>
<stop offset="1" stop-color="#FF5D3A"/>
</linearGradient>
<linearGradient id="paint7_linear_817_3948" x1="578.41" y1="402.293" x2="199.635" y2="402.293" gradientUnits="userSpaceOnUse">
<stop offset="0.520833" stop-color="#4A3AFF"/>
<stop offset="1" stop-color="#FF5D3A"/>
</linearGradient>
<linearGradient id="paint8_linear_817_3948" x1="597.837" y1="397.768" x2="185.685" y2="397.768" gradientUnits="userSpaceOnUse">
<stop offset="0.520833" stop-color="#4A3AFF"/>
<stop offset="1" stop-color="#FF5D3A"/>
</linearGradient>
<linearGradient id="paint9_linear_817_3948" x1="617.358" y1="393.306" x2="171.711" y2="393.306" gradientUnits="userSpaceOnUse">
<stop offset="0.520833" stop-color="#4A3AFF"/>
<stop offset="1" stop-color="#FF5D3A"/>
</linearGradient>
<linearGradient id="paint10_linear_817_3948" x1="636.869" y1="388.951" x2="157.643" y2="388.951" gradientUnits="userSpaceOnUse">
<stop offset="0.520833" stop-color="#4A3AFF"/>
<stop offset="1" stop-color="#FF5D3A"/>
</linearGradient>
<linearGradient id="paint11_linear_817_3948" x1="656.44" y1="384.685" x2="143.536" y2="384.685" gradientUnits="userSpaceOnUse">
<stop offset="0.520833" stop-color="#4A3AFF"/>
<stop offset="1" stop-color="#FF5D3A"/>
</linearGradient>
<linearGradient id="paint12_linear_817_3948" x1="675.994" y1="380.533" x2="129.382" y2="380.533" gradientUnits="userSpaceOnUse">
<stop offset="0.520833" stop-color="#4A3AFF"/>
<stop offset="1" stop-color="#FF5D3A"/>
</linearGradient>
<linearGradient id="paint13_linear_817_3948" x1="695.515" y1="376.495" x2="115.16" y2="376.495" gradientUnits="userSpaceOnUse">
<stop offset="0.520833" stop-color="#4A3AFF"/>
<stop offset="1" stop-color="#FF5D3A"/>
</linearGradient>
<linearGradient id="paint14_linear_817_3948" x1="715.102" y1="372.63" x2="101.066" y2="372.63" gradientUnits="userSpaceOnUse">
<stop offset="0.520833" stop-color="#4A3AFF"/>
<stop offset="1" stop-color="#FF5D3A"/>
</linearGradient>
<linearGradient id="paint15_linear_817_3948" x1="734.723" y1="368.811" x2="86.8248" y2="368.811" gradientUnits="userSpaceOnUse">
<stop offset="0.520833" stop-color="#4A3AFF"/>
<stop offset="1" stop-color="#FF5D3A"/>
</linearGradient>
<linearGradient id="paint16_linear_817_3948" x1="754.269" y1="365.184" x2="72.586" y2="365.184" gradientUnits="userSpaceOnUse">
<stop offset="0.520833" stop-color="#4A3AFF"/>
<stop offset="1" stop-color="#FF5D3A"/>
</linearGradient>
<linearGradient id="paint17_linear_817_3948" x1="773.848" y1="361.622" x2="58.2645" y2="361.622" gradientUnits="userSpaceOnUse">
<stop offset="0.520833" stop-color="#4A3AFF"/>
<stop offset="1" stop-color="#FF5D3A"/>
</linearGradient>
<linearGradient id="paint18_linear_817_3948" x1="793.436" y1="358.188" x2="43.9656" y2="358.188" gradientUnits="userSpaceOnUse">
<stop offset="0.520833" stop-color="#4A3AFF"/>
<stop offset="1" stop-color="#FF5D3A"/>
</linearGradient>
<linearGradient id="paint19_linear_817_3948" x1="813.04" y1="354.865" x2="29.6664" y2="354.865" gradientUnits="userSpaceOnUse">
<stop offset="0.520833" stop-color="#4A3AFF"/>
<stop offset="1" stop-color="#FF5D3A"/>
</linearGradient>
<linearGradient id="paint20_linear_817_3948" x1="832.653" y1="351.62" x2="15.3345" y2="351.62" gradientUnits="userSpaceOnUse">
<stop offset="0.520833" stop-color="#4A3AFF"/>
<stop offset="1" stop-color="#FF5D3A"/>
</linearGradient>
<linearGradient id="paint21_linear_817_3948" x1="852.224" y1="348.476" x2="0.999985" y2="348.476" gradientUnits="userSpaceOnUse">
<stop offset="0.520833" stop-color="#4A3AFF"/>
<stop offset="1" stop-color="#FF5D3A"/>
</linearGradient>
</defs>
</svg>
