<svg width="797" height="645" viewBox="0 0 797 645" fill="none" xmlns="http://www.w3.org/2000/svg">
<path d="M1 648.089C41.0887 621.667 86.1866 603.794 133.482 595.583C203.772 583.819 231.718 602.815 280.693 580.806C328.272 559.403 364.589 513.279 378.166 466.679C396.679 403.086 361.034 379.131 343.481 273.76C333.188 211.809 313.811 95.5959 373.684 6.32455C403.936 -38.774 451.914 -73.2662 496.498 -105.336C551.146 -144.642 567.867 -145.159 590.094 -170.57C616.506 -200.745 642.102 -256.204 625.469 -366.839M7.22412 653.073C42.9271 629.021 82.7477 611.75 124.697 602.122C128.744 601.222 132.864 600.364 137.068 599.53C206.094 586.5 233.052 604.17 281.078 582.246C302.057 572.715 320.934 559.105 336.61 542.208C347.826 530.098 357.401 516.563 365.089 501.954C370.833 491.025 375.328 479.484 378.491 467.548C382.173 454.339 383.647 440.612 382.854 426.922C381.346 401.702 372.462 379.524 363.407 348.069C356.601 324.382 351.857 300.15 349.23 275.645C347.746 262.613 345.76 247.245 344.533 230.1C341.188 184.193 341.23 127.946 362.051 72.4561C369.035 53.5801 378.129 35.5545 389.159 18.7228C390.843 16.1409 392.59 13.6195 394.352 11.1556C411.77 -13.2588 432.607 -34.0669 455.921 -54.15C473.28 -69.2246 491.654 -82.3487 509.452 -95.6114C516.967 -101.131 523.737 -106.034 529.956 -110.403C567.571 -136.759 581.99 -140.919 600.145 -163.277C613.936 -180.267 627.378 -204.788 634.453 -241.68C640.269 -271.921 641.773 -310.839 635.943 -360.787M13.5261 658.003C48.4102 633.941 87.3721 616.422 128.514 606.298C132.474 605.339 136.494 604.416 140.575 603.527C208.407 589.15 234.363 605.437 281.473 583.666C302.626 574.184 321.696 560.608 337.585 543.72C348.869 531.539 358.45 517.883 366.066 503.125C371.695 492.109 375.97 480.451 378.797 468.406C382.095 455.051 383.341 441.272 382.495 427.541C381.043 401.38 373.089 378.814 365.258 348.358C359.386 325.119 355.869 301.346 354.76 277.401C354.042 264.812 352.722 250.146 352.498 233.751C351.89 190.059 354.442 138.696 376.739 84.7394C384.346 66.0429 393.662 48.0889 404.567 31.106C406.273 28.4876 407.993 25.9268 409.748 23.4342C427.218 -1.53449 446.748 -22.2699 469.39 -43.4231C486.46 -59.3464 504.593 -72.3905 522.366 -85.8626C529.735 -91.4663 536.419 -96.516 542.595 -101.105C579.178 -128.204 593.057 -133.114 610.137 -155.971C623.152 -173.385 635.794 -198.124 642.836 -235.255C648.565 -265.596 650.582 -304.728 646.453 -354.716M19.615 663.057C53.7462 638.922 91.931 621.116 132.351 610.489C136.234 609.494 140.164 608.502 144.139 607.56C210.78 591.789 235.717 606.806 281.849 585.126C303.687 574.856 322.038 562.911 338.548 545.301C349.913 533.041 359.507 519.25 367.052 504.33C372.564 493.219 376.612 481.439 379.095 469.285C382.014 455.78 383.042 441.934 382.148 428.146C380.732 401.079 373.733 378.165 367.155 348.7C362.217 325.89 359.963 302.581 360.437 279.246C360.538 267.009 359.842 253.117 360.61 237.49C362.652 195.742 367.748 149.501 391.483 97.0581C399.722 78.5444 409.276 60.6455 420.072 43.4988C421.769 40.8515 423.524 38.1889 425.218 35.7587C442.216 11.177 461.539 -11.7099 482.92 -32.585C499.683 -49.3676 517.659 -62.3078 535.357 -76.115C542.617 -81.7819 549.187 -86.9707 555.33 -91.7978C590.852 -119.631 604.165 -125.332 620.214 -148.638C632.499 -166.473 644.32 -191.517 651.297 -228.831C657.057 -259.226 659.374 -298.624 656.855 -348.705M25.81 668.048C59.1686 643.89 96.5288 625.818 136.169 614.666C139.979 613.629 143.81 612.556 147.682 611.579C213.153 594.547 236.981 608.071 282.253 586.576C304.44 575.996 322.701 564.754 339.531 546.842C350.974 534.52 360.57 520.601 368.018 505.52C373.452 494.299 377.294 482.373 379.433 470.089C381.989 456.476 382.828 442.596 381.93 428.774C380.531 400.792 374.595 377.469 369.064 348.975C365.181 328.883 364.169 307.188 366.126 281.023C367 269.134 366.962 255.915 368.708 241.122C373.432 201.094 381.076 160.221 406.197 109.382C415.037 91.0669 424.82 73.2232 435.506 55.9222C437.207 53.2279 438.923 50.5913 440.612 48.0853C457.218 23.2146 475.904 -0.200962 496.468 -21.9092C512.944 -39.5876 530.718 -52.3038 548.266 -66.4412C555.364 -72.0801 561.948 -77.5042 568.011 -82.5723C602.554 -111.069 615.209 -117.612 630.231 -141.415C641.768 -159.682 652.782 -184.973 659.723 -222.478C665.356 -252.947 668.156 -292.552 667.274 -342.685M32.0172 673.023C64.6088 648.856 101.14 630.525 139.988 618.846C143.707 617.756 147.429 616.619 151.192 615.58C215.359 597.138 238.327 609.41 282.6 588.044C305.154 577.164 323.326 566.626 340.467 548.43C351.992 536.029 361.596 521.97 368.958 506.722C374.28 495.432 377.893 483.413 379.678 471.059C381.86 457.32 382.484 443.378 381.539 429.499C380.204 400.604 375.396 376.886 370.89 349.398C367.604 329.115 368.106 307.832 371.714 282.938C373.381 271.361 374.038 258.836 376.641 244.878C384.084 206.251 394.27 171.01 420.793 121.663C430.006 104.512 440.125 85.4974 450.852 68.2957C452.555 65.5543 454.231 62.9436 455.916 60.3617C472.107 35.2418 490.121 11.347 509.813 -11.1297C525.982 -29.6674 543.628 -42.2873 561.146 -56.71C568.187 -62.5034 574.549 -68.007 580.615 -73.2922C614.269 -102.4 626.7 -109.608 640.277 -134.026C650.774 -152.895 661.266 -178.293 668.106 -216.002C673.585 -246.584 676.917 -286.394 677.69 -336.569M38.1936 678.003C70.0356 653.829 105.747 635.238 143.806 623.023C147.433 621.881 151.074 620.673 154.717 619.588C217.719 599.791 239.628 610.696 282.974 589.502C305.828 578.357 323.95 568.495 341.439 549.99C353.01 537.526 362.603 523.36 369.882 507.985C375.099 496.589 378.494 484.442 379.942 471.991C381.717 458.138 382.129 444.146 381.174 430.213C379.856 400.403 376.146 376.174 372.686 349.826C369.933 329.292 372.07 308.466 377.29 284.869C379.771 273.567 384.014 262.164 384.725 248.744C402.737 214.276 404.821 180.173 435.516 134.138C446.375 117.889 455.749 98.0549 466.27 80.8313C467.994 78.0535 469.666 75.3669 471.311 72.811C488.889 45.4208 502.872 24.7679 523.219 -0.292577C539.062 -19.7 556.566 -32.1584 573.981 -46.9085C580.86 -52.6739 587.179 -58.3974 593.212 -63.9208C625.764 -93.6899 637.102 -102.041 650.128 -126.728C660.179 -145.879 669.583 -171.71 676.396 -209.581C681.896 -240.201 685.545 -280.265 687.993 -330.519M44.3885 682.994C75.4781 658.816 110.356 639.959 147.605 627.19C151.17 625.987 154.701 624.716 158.224 623.586C220.078 602.322 240.952 611.899 283.391 590.886C306.636 579.358 324.626 570.273 342.443 551.495C354.128 538.93 363.741 524.587 370.925 509.001C376.864 496.387 378.951 484.419 380.315 472.692C381.697 458.724 381.905 444.664 380.939 430.661C379.657 399.946 377.177 375.187 374.66 349.944C372.56 329.251 376.281 308.756 382.974 286.569C386.32 275.5 391.648 265.04 392.855 252.321C414.864 220.162 421.105 192.601 450.267 146.312C460.741 129.719 471.391 110.33 481.826 93.1299C483.469 90.281 485.198 87.579 486.796 85.0203C504.393 57.0077 517.014 36.3958 536.897 10.41C552.423 -9.83848 569.777 -22.1642 587.107 -37.2311C593.876 -43.0598 600.081 -48.9223 606.081 -54.6838C637.7 -85.1136 648.399 -94.2963 660.333 -119.494C669.654 -139.066 678.252 -165.144 685.01 -203.217C690.52 -233.855 694.526 -274.2 698.64 -324.515M50.5761 687.957C80.9245 663.8 114.956 644.683 151.368 631.336C154.86 630.091 158.311 628.749 161.759 627.454C222.369 604.887 242.222 613.071 283.703 592.284C307.297 580.446 325.216 572.075 343.335 552.984C355.097 540.371 364.717 525.918 371.816 510.197C377.74 497.355 379.44 485.384 380.536 473.574C381.892 458.993 381.156 445.931 380.567 431.346C379.349 399.719 382.677 373.665 376.499 350.299C379.03 329.336 374.416 305.705 388.625 288.373C396.019 279.35 399.233 267.961 400.933 255.989C426.93 226.11 434.556 203.318 464.995 158.571C476.094 142.242 487.034 122.606 497.274 105.488C498.949 102.585 500.551 99.8089 502.232 97.2741C519.826 68.6756 531.042 48.0549 550.413 21.1408C565.627 -0.0427507 582.819 -12.1704 600.053 -27.5359C606.713 -33.4278 612.832 -39.4373 618.771 -45.4293C649.422 -76.4178 659.418 -86.6158 670.386 -112.249C678.952 -132.283 686.753 -158.625 693.437 -196.864C698.858 -227.601 703.278 -268.072 709.099 -318.521M56.754 692.939C86.3976 668.801 119.619 649.434 155.223 635.537C158.624 634.239 161.892 632.791 165.314 631.457C224.797 607.386 243.513 614.377 284.108 593.736C308.043 581.559 325.881 573.92 344.327 554.556C356.157 541.861 365.782 527.274 372.801 511.401C378.712 498.331 379.97 486.323 380.862 474.445C381.909 459.978 380.818 446.856 380.228 431.979C379.009 399.426 384.009 372.877 378.372 350.554C382.026 329.461 378.856 305.349 394.279 290.13C402.708 281.803 406.847 270.876 409.001 259.678C438.987 232.078 448.045 214.058 479.713 170.849C491.42 154.774 502.59 135.076 512.724 117.849L517.538 109.503C535.133 80.2714 545.018 59.6369 563.821 31.8102C578.72 9.73851 595.778 -2.19878 612.909 -17.8917C619.459 -23.8469 625.464 -29.9955 631.351 -36.2361C661.072 -67.7624 670.372 -78.9469 680.339 -105.037C688.138 -125.513 695.143 -152.121 701.78 -190.532C707.121 -221.341 712.031 -262.113 719.456 -312.56M62.9133 697.911C91.85 673.84 124.226 654.242 158.963 639.768C162.21 638.357 165.479 636.909 168.736 635.48C226.978 610.06 244.684 615.639 284.436 595.192C308.694 582.667 326.521 575.679 345.236 556.104C357.156 543.352 366.789 528.638 373.711 512.609C379.617 499.293 380.533 487.331 381.101 475.339C381.73 460.922 380.422 447.797 379.849 432.637C378.676 399.161 385.302 372.114 380.161 350.955C384.929 329.702 392.551 311.851 399.83 292.023C407.764 282.826 414.34 273.915 417.008 263.428C451.045 238.17 461.459 224.926 494.323 183.187C506.748 167.429 518.338 147.634 528.083 130.279C529.79 127.32 531.423 124.49 532.93 121.878C549.867 91.6343 558.99 71.4358 577.304 42.6444C591.899 19.6664 608.793 7.9272 625.85 -8.1008C632.272 -14.1298 638.22 -20.433 643.967 -26.8521C672.758 -58.9161 681.283 -71.0353 690.28 -97.6371C697.341 -118.564 703.54 -145.419 710.134 -184.05C715.412 -214.918 720.709 -255.857 729.813 -306.429M69.1008 702.873C97.356 678.811 128.916 658.932 162.816 643.844C166.052 642.451 169.203 640.911 172.351 639.419C229.398 612.529 246.048 616.816 284.825 596.585C309.46 583.742 327.135 577.567 346.23 557.628C358.263 544.773 367.918 529.88 374.744 513.643C380.677 500.027 381.235 488.053 381.45 476.124C381.768 461.699 380.157 448.593 379.488 433.135C378.34 398.772 386.612 371.191 381.989 351.159C387.879 329.775 397.017 312.459 405.402 293.708C414.359 284.931 421.854 276.747 425.008 266.979C462.968 243.987 474.913 235.597 508.962 195.346C522.049 179.873 533.868 159.893 543.472 142.53C545.2 139.535 546.833 136.704 548.35 134.075C565.249 103.224 572.958 82.9875 590.797 53.2889C605.067 29.4412 621.837 17.874 638.791 1.51855C645.122 -4.56319 650.87 -10.9823 656.72 -17.707C684.616 -50.2876 692.432 -63.4979 700.386 -90.4837C706.68 -111.853 712.102 -138.963 718.631 -177.777C723.847 -208.706 729.616 -249.956 740.343 -300.517M75.2589 707.843C102.846 683.828 133.582 663.698 166.615 648.01C169.862 646.599 172.812 644.944 175.869 643.399C231.712 615.009 247.307 618.006 285.191 598.013C310.15 584.822 327.742 579.379 347.176 559.148C359.263 546.251 368.908 531.263 375.639 514.915C381.445 501.225 381.76 489.038 381.689 477.016C381.601 462.746 379.728 449.586 379.2 433.844C378.079 398.547 387.995 370.48 383.882 351.546C390.885 330.001 401.388 313.23 411.111 295.618C421.062 287.269 429.505 279.803 433.134 270.772C475.101 250.071 488.493 246.511 523.738 207.73C537.506 192.553 549.28 172.23 558.995 155.053C560.744 152.021 562.388 149.172 563.905 146.543C580.785 115.048 587.909 95.2778 604.453 64.1977C617.795 39.1322 635.026 28.0745 651.932 11.4233C658.176 5.19451 664.075 -1.37061 669.604 -8.2428C696.624 -41.3295 703.671 -55.5685 710.623 -83.0112C716.162 -104.842 720.795 -132.188 727.259 -171.185C732.466 -202.266 738.594 -243.674 750.986 -294.295M77.5144 710.56C104.477 686.614 134.414 666.248 166.584 649.967C169.648 648.451 172.609 646.777 175.567 645.15C230.196 615.28 244.757 616.948 281.71 597.222C307.028 583.702 324.539 578.991 344.282 558.476C356.456 545.509 366.112 530.388 372.757 513.885C378.583 499.865 378.527 487.732 378.168 475.617C377.557 461.41 375.399 448.281 374.938 432.211C373.907 396.042 385.396 367.398 381.819 349.602C389.927 327.916 401.859 311.703 412.811 295.166C423.773 287.256 433.137 280.515 437.269 272.214C483.225 253.793 498.221 255.128 534.403 217.717C548.863 202.818 560.828 182.289 570.394 165.074L575.161 156.433C592.735 124.706 597.055 104.144 613.819 72.5572C627.414 46.8834 643.942 35.7363 660.69 18.7261C666.879 12.3567 672.697 5.63734 678.116 -1.39886C704.208 -34.9003 710.502 -50.2804 716.46 -78.1512C721.243 -100.443 725.098 -128.043 731.498 -167.225C736.632 -198.347 743.2 -240.012 757.257 -290.694M78.032 712.32C104.302 688.416 133.364 667.778 164.586 650.858C167.588 649.281 170.439 647.544 173.288 645.854C226.792 614.433 240.328 614.925 276.347 595.34C301.999 581.453 319.436 577.503 339.518 556.697C351.752 543.636 361.39 528.364 367.914 511.695C373.696 497.455 373.394 485.325 372.633 473.149C371.826 459.072 369.381 445.85 368.865 429.579C367.826 392.454 380.995 363.345 377.946 346.657C387.168 324.811 398.052 306.873 412.729 293.706C423.254 284.276 435.088 280.254 439.481 272.639C489.415 256.516 506.004 262.765 543.327 226.793C558.494 212.229 570.653 191.447 580.058 174.261C581.849 171.156 583.368 168.186 584.801 165.533C602.357 133.163 605.279 112.62 621.524 80.0766C634.776 53.5225 651.199 42.5579 667.789 25.1886C673.939 18.7022 679.673 11.8334 684.958 4.6232C710.2 -29.345 715.681 -45.8037 720.655 -74.1209C724.653 -96.8662 727.731 -124.721 734.085 -164.075C739.145 -195.24 746.154 -237.162 761.766 -287.967M78.5641 713.964C104.206 690.124 132.435 669.232 162.722 651.678C165.644 650.03 168.396 648.212 171.143 646.487C223.342 613.533 235.776 612.731 270.983 593.457C296.947 579.239 314.321 576.031 334.775 554.832C347.161 541.753 356.862 526.371 363.33 509.555C369.089 495.06 368.386 482.868 367.397 470.707C366.255 456.703 363.491 443.443 363.045 426.799C362.031 388.788 376.854 359.173 374.325 343.565C384.585 321.564 397.304 304.199 412.867 292.153C424.559 283.105 437.041 279.774 442.17 272.949C496.1 259.135 514.265 270.288 552.666 235.693C568.55 221.446 580.844 200.474 590.201 183.285L594.903 174.46C612.449 141.475 613.965 120.924 629.728 87.4444C642.639 59.9628 659.045 49.2807 675.487 31.5342C681.615 24.9389 687.284 17.931 692.454 10.5598C716.854 -23.8463 721.514 -41.4125 725.505 -70.1761C728.737 -93.3641 731.026 -121.455 737.326 -161.011C743.477 -203.181 753.371 -244.718 766.89 -285.13M78.3194 715.237C103.38 691.48 130.801 670.347 160.155 652.169C162.996 650.45 165.657 648.579 168.294 646.791C219.274 612.281 230.723 610.276 264.983 591.209C291.292 576.606 308.581 574.177 329.321 552.778C341.777 539.613 351.456 524.071 357.778 507.08C363.494 492.364 362.472 480.135 361.175 467.917C359.687 454.006 356.623 440.719 356.173 423.828C355.204 384.894 371.639 354.847 369.653 340.283C381.099 318.164 395.502 301.382 411.957 290.362C424.841 281.736 438.108 279.151 443.695 273.053C501.614 261.519 521.361 277.604 560.83 244.405C577.431 230.475 589.872 209.248 599.042 192.047C600.755 188.824 602.305 185.8 603.702 183.125C621.262 149.442 621.366 128.976 636.608 94.5866C649.175 66.2247 665.402 55.683 681.815 37.6513C687.884 30.9198 693.45 23.7517 698.47 16.2048C722.057 -18.647 725.849 -37.3234 728.875 -66.5228C731.322 -90.1642 732.852 -118.499 739.069 -158.249C745.321 -200.764 755.991 -242.51 770.906 -282.808M76.6674 715.694C101.143 692.01 127.741 670.626 156.126 651.812C158.875 650.041 161.456 648.098 164.002 646.258C213.719 610.141 224.115 606.798 257.522 588.115C284.163 573.144 301.397 571.487 322.439 549.774C334.986 536.549 344.674 520.877 350.897 503.737C356.562 488.772 355.239 476.515 353.624 464.259C351.856 450.455 348.437 437.108 348.004 419.935C347.071 380.096 365.144 349.486 363.683 336.078C376.233 313.818 392.389 297.707 409.767 287.66C423.849 279.53 437.861 277.595 443.933 272.215C505.848 262.991 527.149 284.015 567.69 252.166C585.005 238.6 597.641 217.12 606.651 199.9C608.356 196.649 609.899 193.595 611.278 190.91C628.806 156.649 627.486 136.163 642.235 100.856C654.45 71.585 670.591 61.2365 686.88 42.9139C692.9 36.0419 698.386 28.7188 703.289 21.0085C726.08 -14.2783 728.975 -34.0572 731.036 -63.6925C732.753 -87.7557 733.461 -116.395 739.632 -156.318C745.89 -199.164 757.255 -241.106 773.484 -281.247M75.0276 716.135C98.949 692.546 124.728 670.92 152.116 651.469C154.785 649.626 157.238 647.61 159.692 645.717C208.212 608.008 217.445 603.602 250.061 585.023C277.008 569.693 294.196 568.788 315.566 546.803C328.219 533.519 337.916 517.702 344.018 500.396C349.614 485.173 348.027 472.909 346.085 460.587C343.928 446.824 340.252 433.5 339.836 416.045C339.004 375.315 358.651 344.128 357.696 331.865C369.567 311.844 386.849 295.587 407.551 284.968C422.838 277.364 437.597 276.031 444.162 271.399C510.066 264.455 532.929 290.448 574.55 259.929C592.599 246.738 605.356 224.963 614.251 207.774C615.97 204.457 617.494 201.393 618.847 198.669C636.299 163.779 633.751 143.314 647.916 107.037C659.778 76.904 675.834 66.7015 692.019 48.0515C697.639 41.5585 702.304 33.9785 708.143 25.7133C732.364 -8.55241 732.166 -30.8978 733.244 -60.9795C734.121 -85.5276 734.125 -114.38 740.231 -154.485C746.517 -197.698 758.572 -239.87 776.074 -279.872M73.3756 716.592C96.7608 693.089 121.723 671.211 148.087 651.112C150.657 649.188 153.036 647.13 155.392 645.155C202.445 605.77 210.909 600.166 242.6 581.928C269.89 566.212 286.952 566.16 308.702 543.81C321.471 530.438 331.19 514.455 337.19 496.962C342.706 481.497 340.837 469.217 338.587 456.838C336.063 443.205 332.108 429.817 331.709 412.079C330.85 370.384 352.161 338.673 351.769 327.587C364.795 307.515 383.477 291.761 405.453 282.318C421.895 275.285 437.441 274.527 444.481 270.633C514.374 265.969 538.787 296.949 581.509 267.771C600.282 254.926 613.168 232.885 621.961 215.661C623.673 212.316 625.181 209.194 626.524 206.488C643.94 170.945 639.92 150.457 653.676 113.287C665.197 82.2259 681.15 72.3291 697.249 53.2392C702.941 45.9272 708.241 38.3175 713.126 30.4422C736.393 -4.44757 735.457 -27.7064 735.58 -58.2423C735.663 -83.2255 734.917 -112.34 740.917 -152.556C747.246 -196.093 760.019 -238.444 778.815 -278.215M71.7241 717.05C94.5987 693.632 118.744 671.491 144.05 650.728C146.529 648.751 148.836 646.651 151.064 644.602C196.89 603.632 204.296 596.784 235.253 578.803C262.726 562.73 279.75 563.46 301.81 540.826C314.671 527.42 324.391 511.321 330.268 493.693C335.715 477.969 333.574 465.653 330.995 453.254C328.186 439.652 323.881 426.28 323.509 408.242C322.674 365.66 345.708 333.411 345.685 323.414C359.859 303.209 379.934 287.888 403.154 279.553C420.767 273.148 437.074 272.927 444.6 269.752C518.489 267.397 544.563 303.426 588.277 275.48C607.783 263.01 620.799 240.702 629.459 223.499C631.173 220.106 632.674 216.956 633.98 214.229C651.37 178.013 645.96 157.575 659.234 119.468C670.385 87.4875 686.277 77.8231 702.233 58.4319C707.907 51.0113 713.124 43.251 717.854 35.1943C740.167 -0.319641 738.493 -24.492 737.632 -55.4742C736.959 -80.9185 735.446 -110.306 741.454 -150.663C747.822 -194.557 761.306 -237.117 781.374 -276.664M70.0944 717.473C96.0801 690.777 120.358 667.379 140.051 650.366C142.459 648.3 144.638 646.126 146.801 644.064C191.266 601.406 197.731 593.405 227.615 575.681C255.518 559.2 272.529 560.627 294.885 537.776C307.842 524.311 317.567 508.073 323.327 490.291C328.685 474.298 326.309 461.968 323.393 449.521C320.239 436.011 315.633 422.612 315.279 404.291C314.49 360.786 339.17 328.002 339.726 319.193C355.061 298.88 376.495 284.017 400.885 276.782C419.658 271.023 436.489 270.106 444.777 268.856C521.801 257.356 550.321 309.895 595.075 283.183C615.322 271.116 628.48 248.477 637.006 231.294C638.723 227.854 640.188 224.683 641.486 221.927C658.808 185.112 652.018 164.704 664.839 125.653C675.62 92.7534 691.433 83.311 707.26 63.553C713.119 56.165 718.269 48.2407 722.642 39.8854C742.357 2.84557 741.571 -21.349 739.774 -52.7748C738.288 -78.6648 736.005 -108.278 741.936 -148.923C748.361 -193.191 762.558 -235.973 783.87 -275.294M68.4322 717.948C94.3809 690.768 117.768 667.099 136.011 650.028C138.321 647.88 140.409 645.653 142.48 643.539C185.604 599.156 191.125 590.05 220.198 572.637C248.427 555.759 265.408 557.998 288.074 534.862C301.138 521.329 310.876 504.94 316.519 486.991C321.762 470.735 319.14 458.409 315.887 445.914C312.408 432.459 307.45 419.124 307.154 400.448C306.382 356.028 332.664 322.83 333.794 315.01C351.919 292.027 376.364 279.853 398.741 274.13C418.689 269.074 436.423 268.826 445.049 268.087C526.648 261.056 556.185 316.472 601.987 291.023C622.955 279.348 636.256 256.378 644.649 239.215C646.351 235.718 647.836 232.51 649.106 229.762C666.374 192.282 658.177 171.865 670.542 131.918C680.962 98.1275 696.713 88.9176 712.401 68.8111C718.215 61.2873 723.275 53.2088 727.508 44.6924C746.521 7.22313 744.773 -18.0873 742.004 -49.9778C739.722 -76.3028 736.69 -106.178 742.578 -147.043C747.149 -178.71 757.577 -222.552 786.508 -273.795M66.7807 718.406C92.7366 690.792 115.143 666.8 132.001 649.683C134.193 647.443 136.19 645.164 138.261 643.049C179.853 596.978 184.512 586.667 212.736 569.543C240.961 552.42 258.206 555.297 281.192 531.86C294.371 518.282 304.124 501.754 309.639 483.649C314.747 467.12 311.937 454.783 308.366 442.25C304.57 428.88 299.324 415.452 299.003 396.567C298.369 351.276 326.195 317.51 327.843 310.817C347.082 287.674 373.07 276.367 396.552 271.429C417.538 267.021 436.225 267.567 445.204 267.227C531.152 264.803 561.929 323.005 608.774 298.742C630.49 287.5 643.905 264.206 652.186 247.027C653.879 243.501 655.339 240.254 656.633 237.422C673.781 199.264 664.306 178.912 676.16 138.037C686.228 103.337 701.929 94.3417 717.477 73.8867C723.253 66.23 728.229 58.0005 732.327 49.3275C750.621 11.4182 747.89 -14.9716 744.177 -47.3345C741.1 -74.0946 737.319 -104.232 743.163 -145.317C747.682 -177.062 758.511 -221.136 789.144 -272.418M65.141 718.848C91.0569 690.796 112.518 666.502 128.01 649.35C130.103 647.029 132.027 644.707 133.897 642.476C174.106 594.754 177.9 583.286 205.295 566.462C234.102 548.75 250.995 552.617 274.32 528.888C287.621 515.261 297.385 498.582 302.76 480.308C307.715 463.497 304.717 451.148 300.845 438.587C296.697 425.282 291.158 411.855 290.847 392.658C290.146 346.428 317.203 310.368 321.874 306.614C345.941 287.209 369.731 272.88 394.364 268.729C416.431 265.019 436.062 266.207 445.535 266.446C535.602 268.69 567.846 329.663 615.744 306.569C638.191 295.749 651.712 272.102 659.877 254.954C661.584 251.363 663.026 248.105 664.269 245.317C681.436 206.537 670.497 186.192 681.869 144.381C691.557 108.779 707.215 100.027 722.634 79.2048C728.37 71.4123 733.262 63.032 737.228 54.205C754.821 15.8663 751.099 -11.6317 746.42 -44.4304C742.631 -71.6017 738.011 -102.054 743.801 -143.341C748.258 -175.147 759.545 -219.466 791.814 -270.802M63.4892 719.304C89.4671 690.85 109.827 666.188 123.944 648.972C125.92 646.559 127.771 644.195 129.561 641.893C168.321 592.506 171.297 579.884 197.815 563.357C227.037 545.178 243.743 549.96 267.383 525.853C280.79 512.164 290.564 495.337 295.818 476.904C300.58 459.836 297.441 447.479 293.276 434.919C288.767 421.649 282.954 408.234 282.678 388.765C282.023 341.612 312.766 306.585 315.887 302.399C334.957 276.893 366.361 269.398 392.114 266.089C409.913 264.07 427.876 263.936 445.703 265.689C539.751 272.547 573.61 336.328 622.603 314.329C645.77 303.949 659.462 279.963 667.486 262.807C669.186 259.186 670.612 255.871 671.805 253.127C688.842 213.688 676.551 193.365 687.507 150.632C696.786 114.137 712.477 105.622 727.72 84.4308C733.415 76.501 738.217 67.9656 742.038 58.98C758.941 20.1935 754.142 -8.38949 748.584 -41.6472C743.88 -69.2986 738.62 -99.9499 744.396 -141.464C748.801 -173.349 760.478 -217.881 794.423 -269.296M61.8376 719.762C87.6633 690.855 107.089 665.872 119.915 648.617C162.348 591.515 163.525 577.244 190.353 560.263C219.732 541.687 236.591 547.216 260.564 522.912C274.092 509.172 283.884 492.199 289.011 473.604C298.295 438.111 275.021 423.544 274.509 384.873C273.871 336.805 306.696 301.544 309.917 298.195C352.739 253.492 423.886 262.215 445.973 264.798C543.817 276.21 579.438 342.885 629.453 322.109C658.478 310.05 672.654 276.749 679.384 260.866C696.41 220.812 682.732 200.491 693.177 156.829C704.928 107.615 728.225 108.731 746.909 63.6936C776.636 -8.2008 732.51 -47.9883 744.941 -139.542C749.283 -171.487 761.39 -216.259 797 -267.734M64.6885 720.096C90.1771 691.773 109.668 667.436 122.603 650.244C164.5 594.999 166.248 580.499 193.01 563.674C221.976 545.518 238.587 550.464 262.204 526.904C275.515 513.489 285.314 496.997 290.734 478.887C301.046 444.523 278.545 429.964 278.437 392.111C278.16 345.274 309.439 310.752 312.821 306.618C344.38 267.9 400.033 268.644 429.169 270.016C435.119 270.289 440.051 270.849 443.698 271.106C537.858 279.246 572.351 342.857 620.462 321.713C649.145 309.066 663.213 275.362 670.392 258.911C677.007 243.856 680.649 227.662 681.117 211.222C682.087 194.738 681.761 178.602 688.309 156.161C690.326 149.291 692.621 143.458 694.709 138.236C707.351 106.582 724.234 101.313 738.288 62.4879C743.757 47.4865 746.641 31.6647 746.816 15.6973C747.437 -27.5531 726.391 -66.9843 731.629 -131.478C731.931 -135.264 732.348 -139.163 732.878 -143.175C737.084 -175.515 749.035 -221.156 784.827 -273.621M67.5381 720.427C92.6474 692.762 112.081 668.903 125.283 651.84C166.604 598.479 168.927 583.824 195.684 567.094C224.084 549.243 240.747 553.806 263.783 530.957C276.895 517.861 286.72 501.842 292.453 484.214C303.67 450.981 282.159 436.435 282.335 399.355C282.557 353.804 311.009 319.036 315.702 315.076C352.644 283.729 399.371 276.54 427.41 276.816C433.118 276.875 437.865 277.378 441.319 277.547C531.855 282.522 565.166 342.869 611.407 321.423C639.666 308.288 653.697 274.1 661.308 257.07C668.076 241.956 672.179 225.783 673.436 209.268C675.142 192.941 675.89 177.181 683.395 155.61C685.715 148.891 688.395 143.232 690.483 138.01C703.073 106.447 717.482 100.406 729.574 61.3971C734.241 46.1417 736.482 30.2467 736.213 14.2946C736.129 -27.7322 714.523 -68.8503 719.548 -134.831C719.863 -138.667 720.251 -142.63 720.751 -146.7C724.809 -179.418 736.605 -225.927 772.571 -279.412M70.3877 720.758C95.0994 693.74 114.557 670.431 128.022 653.544C168.723 602.016 171.698 587.202 198.391 570.581C226.288 553.097 242.866 557.173 265.487 534.96C278.37 522.177 288.175 506.624 294.157 489.483C306.178 457.47 285.711 442.845 286.244 406.58C286.891 362.273 313.123 327.854 318.568 323.477C349.239 299.358 386.662 285.411 425.626 283.577C431.092 283.423 435.664 283.849 438.933 283.96C525.678 285.722 558.028 342.884 602.367 321.192C630.263 307.506 644.188 272.868 652.267 255.28C659.163 240.086 663.716 223.932 665.771 207.371C668.234 191.166 670.083 175.774 678.478 155.106C681.158 148.522 684.196 143.046 686.284 137.824C698.834 106.286 710.771 99.5967 720.854 60.4006C724.688 44.9068 726.294 28.9447 725.623 12.9969C724.705 -27.8801 702.775 -70.671 707.45 -138.071C707.739 -141.946 708.119 -145.963 708.589 -150.123C712.518 -183.208 724.169 -230.605 760.318 -285.08M73.2191 721.079C97.5697 694.728 117.043 671.94 130.73 655.133C170.811 605.438 174.448 590.446 201.055 574.019C228.456 556.93 244.956 560.425 267.094 539.005C279.815 526.552 289.675 511.477 295.988 494.827C308.954 463.919 289.391 449.329 290.273 413.85C291.199 370.703 318.845 339.317 321.489 331.908C351.564 297.786 397.93 292.191 423.907 290.351C429.113 289.973 433.481 290.33 436.657 290.266C519.686 288.81 550.948 342.713 593.339 320.772C620.892 306.499 634.699 271.475 643.219 253.291C650.257 238.008 655.265 221.869 658.116 205.286C661.348 189.183 664.284 174.225 673.583 154.396C676.594 147.954 680.007 142.67 682.116 137.412C694.645 105.911 704.038 98.5304 712.248 59.0802C715.715 42.3588 715.72 26.9978 715.111 11.3542C713.471 -28.357 690.952 -72.8271 695.459 -141.664C695.719 -145.572 696.083 -149.647 696.551 -153.889C700.326 -187.38 711.821 -235.645 748.152 -291.111M76.0585 721.429C99.9801 695.78 119.501 673.457 133.35 656.622C172.772 608.787 177.11 593.761 203.643 577.292C230.585 560.62 246.914 563.651 268.648 542.849C281.167 530.74 291.026 516.152 297.593 500.015C311.192 470.203 292.844 455.658 294.083 420.995C295.589 379.205 321.848 348.746 324.376 340.273C353.076 306.89 397.187 300.016 422.145 297.075C427.108 296.485 431.301 296.765 434.334 296.569C513.601 291.892 543.824 342.493 584.3 320.371C611.511 305.51 625.192 270.073 634.169 251.349C643.318 232.286 646.969 217.228 650.471 203.23C654.47 187.23 656.152 171.157 668.667 153.723C672.412 148.594 675.505 143.021 677.876 137.129C690.394 105.647 697.311 97.6634 703.529 57.914C706.141 41.283 705.465 25.796 704.527 9.79258C702.221 -28.721 679.169 -74.8386 683.387 -145.157C683.631 -149.123 683.974 -153.259 684.415 -157.566C688.06 -191.423 699.4 -240.558 735.905 -297.043M78.9277 721.773C102.512 696.709 122.007 674.979 136.014 658.333C174.776 612.234 179.83 597.063 206.337 580.724C232.843 564.385 248.994 566.923 270.314 546.881C288.883 529.413 297.681 511 299.414 505.256C308.588 474.593 296.483 462.047 298.09 428.181C300.011 387.654 324.959 358.117 327.359 348.644C354.691 316.03 396.463 307.854 420.469 303.778C425.18 302.993 429.198 303.197 432.096 302.899C507.601 295.001 536.762 342.213 575.396 319.951C602.286 304.466 615.808 268.67 625.246 249.36C634.683 230.049 638.765 215.046 642.922 201.134C647.679 185.256 650.362 169.177 663.886 153.031C668.017 148.187 671.348 142.713 673.752 136.817C686.249 105.371 690.702 96.7673 694.934 56.7476C696.701 40.1886 695.294 24.6199 694.038 8.40846C691.204 -28.852 667.482 -76.7197 671.401 -148.501C671.623 -152.513 671.95 -156.706 672.383 -161.083C675.891 -195.336 687.076 -245.34 723.744 -302.826M81.7224 722.072C104.982 697.697 124.501 676.517 138.646 659.926C176.678 615.597 182.494 600.33 208.937 584.101C234.909 568.183 251.026 570.19 271.916 550.85C290.148 533.966 299.246 516.383 301.075 510.598C310.455 480.76 299.971 468.567 301.956 435.479C304.275 396.203 327.906 367.684 330.146 357.096C356.102 325.221 395.377 315.723 418.606 310.59C422.264 309.965 425.952 309.527 429.654 309.279C501.376 298.197 529.489 341.954 566.236 319.674C592.797 303.536 606.143 267.371 616.067 247.513C625.587 228.397 630.295 213.025 635.137 199.192C640.662 183.416 644.473 167.405 658.849 152.482C663.388 147.913 666.99 142.501 669.453 136.548C681.921 105.11 683.936 95.9254 686.157 55.5959C687.09 39.0908 684.967 23.498 683.363 6.96328C679.865 -29.1467 655.627 -78.6514 659.247 -151.896C659.446 -155.953 659.758 -160.205 660.182 -164.651C663.522 -199.245 674.572 -250.154 711.434 -308.649M84.5359 722.383C107.38 698.644 126.849 677.971 141.308 661.513C178.637 618.994 185.195 603.62 211.628 587.409C237.114 571.868 253.092 573.357 273.525 554.726C291.483 538.317 300.827 521.656 302.795 515.756C312.446 486.756 303.571 474.811 305.863 442.582C308.597 404.569 330.956 376.947 333.083 365.416C357.654 334.299 394.592 323.622 416.849 317.221C420.313 316.459 423.817 315.89 427.345 315.518C495.286 301.204 522.314 341.486 557.211 319.208C583.461 302.428 596.657 265.932 607.03 245.506C616.755 226.289 621.97 210.797 627.486 197.061C634.116 180.777 643.026 165.519 653.947 151.744C658.476 145.79 663.201 141.313 665.349 136.198C677.778 104.786 677.39 95.0415 677.582 54.3917C677.657 38.024 674.816 22.2842 672.91 5.42906C668.915 -29.4826 643.967 -80.6644 647.329 -155.446C647.517 -159.525 647.806 -163.863 648.21 -168.402C651.388 -203.431 662.329 -255.206 699.341 -314.637M88.2953 723.117C110.742 700.025 130.264 679.894 144.886 663.53C181.425 622.843 188.726 607.363 215.088 591.403C240.099 576.221 255.946 577.22 275.95 559.29C293.528 543.539 303.186 527.643 305.311 521.639C315.308 493.473 307.896 481.861 310.587 450.374C313.725 413.642 334.792 386.953 336.79 374.423C360.006 344.008 394.378 332.213 415.942 324.609C419.21 323.707 422.528 322.998 425.878 322.485C489.955 305.086 515.985 341.699 549.028 319.47C574.988 302.012 588.014 265.222 598.847 244.21C608.773 224.938 614.506 209.307 620.696 195.668C627.746 180.116 636.881 167.108 649.937 151.69C654.884 145.856 659.908 141.575 661.954 136.427C674.362 105.051 671.583 94.7282 669.709 53.7371C668.948 37.4703 665.393 21.6592 663.139 4.48084C658.694 -29.2296 633.034 -82.0886 636.037 -158.271C636.192 -162.419 636.473 -166.785 636.854 -171.411C639.939 -206.785 650.656 -259.396 687.875 -319.9M96.7139 726.789C118.781 704.354 138.254 684.73 153.142 668.497C188.968 629.467 197.103 613.933 223.31 598.03C247.837 583.225 263.581 583.726 283.137 566.488C300.379 551.321 310.307 536.263 312.6 530.138C322.98 502.825 317.004 491.507 320.063 460.817C323.514 425.314 343.398 399.621 345.241 386.052C367.16 356.494 400.802 346.932 419.772 334.59C423.592 333.705 426.758 332.856 429.109 332.071C489.334 311.522 514.403 344.487 545.572 322.344C571.216 304.167 584.07 267.084 595.371 245.514C605.499 226.189 611.75 210.419 618.577 196.856C626.395 181.407 636.882 168.839 650.535 154.326C655.9 148.611 661.224 144.528 663.241 139.387C675.638 108.03 670.548 97.1998 666.525 55.8434C664.974 39.6803 660.688 23.7876 658.066 6.27539C653.201 -26.2417 626.783 -80.7805 629.487 -158.426C629.643 -162.605 629.9 -167.043 630.257 -171.739C633.296 -207.456 643.89 -260.991 681.332 -322.389M104.368 729.97C126.088 708.138 145.529 689.031 160.647 672.906C195.7 635.597 204.729 619.946 230.893 604.286C254.916 589.847 270.558 589.852 289.675 573.333C306.561 558.74 316.687 544.478 319.231 538.254C330.042 511.799 325.472 500.783 328.941 470.817C332.883 436.571 351.37 411.824 353.095 397.237C373.536 368.384 405.136 357.934 422.957 344.125C425.939 343.321 428.87 342.339 431.734 341.185C488.112 317.561 512.069 346.718 541.499 324.763C566.839 305.851 579.501 268.51 591.287 246.393C601.609 226.985 608.378 211.076 615.905 197.65C624.491 182.303 636.377 170.178 650.622 156.494C656.412 150.928 662.028 147.014 663.954 141.82C676.302 110.507 668.849 99.0912 662.749 57.4117C660.366 41.4254 655.409 25.3885 652.389 7.59723C647.139 -23.7053 619.916 -79.927 622.302 -159.047C622.332 -163.315 622.665 -167.773 623.026 -172.532C625.809 -208.69 636.288 -262.997 673.808 -325.542M112.074 733.058C133.404 711.901 152.825 693.295 168.188 677.335C202.412 641.714 212.212 626.12 238.384 610.488C261.922 596.427 277.462 595.934 296.13 580.106C312.701 566.061 321.616 551.831 325.788 546.328C342.709 524.085 333.849 510.005 337.661 480.919C342.042 448.022 359.202 424.14 360.79 408.524C379.856 380.411 409.32 369.068 426.045 353.7C428.852 352.771 431.593 351.654 434.251 350.357C486.754 323.666 509.638 348.99 537.353 327.14C562.359 307.499 574.875 269.904 587.122 247.2C597.655 227.719 604.951 211.7 613.133 198.361C622.487 183.117 635.787 171.493 650.653 158.63C656.88 153.194 662.748 149.475 664.783 144.344C677.102 113.039 667.342 101.069 659.09 59.071C655.959 43.1154 650.239 27.0515 646.873 8.88992C641.236 -21.151 613.221 -79.1208 615.216 -159.757C615.34 -164.019 615.541 -168.586 615.821 -173.457C618.456 -209.992 628.718 -265.228 666.475 -328.733M119.778 736.195C140.802 715.738 160.09 697.615 175.711 681.755C209.108 647.823 219.767 632.214 245.894 616.703C268.929 603.008 284.293 601.975 302.687 586.963C318.93 573.484 327.981 559.989 332.446 554.485C349.603 533.182 342.325 519.31 346.516 491.003C351.192 459.323 367.179 436.42 368.62 419.794C386.318 392.449 413.673 380.081 429.193 363.384C431.83 362.332 434.382 361.08 436.829 359.639C485.454 329.928 507.328 351.308 533.191 329.8C557.879 309.318 570.209 271.542 582.931 248.31C593.658 228.746 601.49 212.599 610.346 199.356C620.468 184.215 635.219 173.113 650.56 160.987C657.248 155.721 663.39 152.159 665.397 147.037C677.694 115.768 665.665 103.217 655.274 60.836C651.354 44.9841 644.921 28.849 641.159 10.3614C635.248 -18.5718 606.327 -78.1358 608.151 -160.161C608.228 -164.484 608.451 -169.087 608.819 -173.971C611.336 -210.891 621.432 -266.978 659.381 -331.492M127.465 739.322C147.986 719.525 167.348 701.906 183.236 686.177C215.799 653.857 227.342 638.32 253.387 622.908C275.947 609.572 291.29 608.113 309.144 593.739C325.051 580.844 334.237 568.084 339.005 562.561C356.479 542.269 350.686 528.524 355.262 501.024C360.324 470.615 375.037 448.655 376.342 431.001C392.664 404.395 417.85 391.188 432.275 372.933C434.737 371.749 437.095 370.358 439.322 368.775C484.078 336.196 504.795 353.425 528.987 332.242C553.179 311.059 565.58 273.032 578.725 249.192C589.636 229.564 597.985 213.278 607.537 200.096C618.416 185.076 634.508 174.432 650.517 163.131C657.667 158.034 664.047 154.609 666.061 149.515C678.319 118.272 664.069 105.145 651.418 62.5048C646.747 46.7306 639.601 30.5244 635.425 11.7001C629.252 -16.0206 599.432 -77.2731 600.856 -160.796C600.927 -165.138 601.178 -169.79 601.422 -174.811C603.698 -212.114 613.648 -269.088 651.853 -334.55M135.132 742.438C155.306 723.243 174.597 706.168 190.733 690.557C222.399 659.96 234.86 644.393 260.86 629.101C282.935 616.142 298.178 614.138 315.499 600.478C331.089 588.132 340.411 576.108 345.472 570.583C363.182 551.231 358.961 537.713 363.926 510.973C369.345 481.842 382.821 460.847 383.967 442.2C398.886 416.342 421.946 402.223 435.233 382.483C437.529 381.152 439.706 379.623 441.737 377.914C482.767 342.305 502.216 355.49 524.744 334.661C548.703 312.491 560.767 274.415 574.482 250.052C585.557 230.349 594.443 213.934 604.648 200.886C616.295 185.969 633.908 175.936 650.377 165.314C658.062 160.429 664.613 157.128 666.609 152.024C678.875 120.81 662.384 107.094 647.506 64.1405C642.074 48.4624 634.319 32.1723 629.614 13.0423C623.201 -13.5025 592.461 -76.4068 593.566 -161.404C593.622 -165.803 593.79 -170.536 594.069 -175.602C596.327 -213.255 606.104 -271.109 644.41 -337.633M142.854 745.584C162.649 727.046 181.872 710.468 198.292 694.997C229.068 666.028 242.461 650.489 268.424 635.345C289.977 622.743 305.116 620.289 322.01 607.283C332.839 598.636 342.901 589.069 352.084 578.688C370.012 560.265 367.364 546.975 372.725 521.024C378.502 493.17 390.712 472.978 391.763 453.4C405.332 428.32 426.24 413.25 438.407 392.035C440.528 390.56 442.509 388.892 444.323 387.053C481.461 348.659 499.714 357.55 520.575 337.121C544.135 314.039 556.549 276.117 570.283 250.961C581.205 230.975 590.982 214.661 601.853 201.681C614.236 186.922 633.347 177.413 650.33 167.502C658.412 162.773 665.284 159.633 667.269 154.547C679.496 123.359 660.823 109.04 643.688 65.7809C637.513 50.2093 628.998 33.8452 623.907 14.3709C617.262 -10.9692 585.583 -75.5359 586.371 -162.007C586.474 -166.404 586.556 -171.226 586.816 -176.359C588.902 -214.43 598.541 -273.142 637.029 -340.656M150.558 748.72C170.026 730.749 189.122 714.73 205.778 699.396C235.627 672.034 249.961 656.551 275.89 641.509C296.918 629.31 311.983 626.35 328.42 614.055C339.202 605.76 349.336 596.654 358.734 586.815C376.864 569.265 375.785 556.247 381.579 531.107C387.678 504.51 398.69 485.379 399.593 464.668C411.768 440.317 430.55 424.336 441.568 401.653C443.511 400.025 445.3 398.223 446.914 396.268C480.314 355.034 497.258 359.613 516.479 339.624C539.596 315.58 551.918 277.605 566.167 251.895C577.302 231.836 587.586 215.402 599.13 202.519C612.303 187.826 632.838 178.97 650.367 169.715C658.897 165.221 666.027 162.182 668.002 157.114C680.2 125.933 659.345 111.01 639.932 67.4825C633.018 51.9704 623.836 35.538 618.282 15.7713C611.464 -8.42658 578.807 -74.6297 579.27 -162.604C579.292 -167.071 579.423 -171.938 579.661 -177.157C581.628 -215.613 591.133 -275.231 629.764 -343.709M158.25 751.873C177.279 734.622 196.37 718.99 213.355 703.846C242.264 678.156 257.58 662.657 283.453 647.753C304.018 635.895 319.014 632.506 334.949 620.87C345.6 612.879 355.714 604.196 365.225 594.875C383.551 578.168 384.078 565.445 390.237 541.148C396.703 515.812 406.478 497.646 407.226 475.896C418.033 452.312 434.671 435.409 444.543 411.212C446.312 409.436 447.911 407.499 449.318 405.424C479.017 361.369 494.493 361.618 512.167 342.075C534.824 317.059 547.073 279.042 561.873 252.798C573.191 232.675 583.994 216.101 596.212 203.316C610.152 188.725 632.133 180.485 650.197 171.905C659.204 167.637 666.527 164.686 668.539 159.639C680.716 128.495 657.692 112.903 635.99 69.1247C628.344 53.7009 618.557 37.1376 612.459 17.1304C605.519 -5.96947 571.915 -73.6938 571.979 -163.213C571.976 -167.719 572.092 -172.644 572.325 -177.939C574.163 -216.761 583.473 -277.223 622.372 -346.714M165.955 755.01C184.622 738.427 203.623 723.206 220.916 708.288C248.913 684.093 265.173 668.773 290.983 653.979C311.054 642.468 325.919 638.59 341.432 627.684C352.025 620.034 362.171 611.783 371.821 602.972C390.341 587.107 392.435 574.706 399.05 551.135C405.838 527.056 414.404 509.847 415.033 487.079C424.466 464.235 438.959 446.409 447.73 420.748C449.252 418.769 450.65 416.698 451.915 414.547C480.738 369.353 491.924 363.544 508.067 344.504C530.153 318.452 542.085 280.226 557.744 253.675C569.534 233.703 580.594 216.767 593.486 204.079C608.195 189.591 631.617 182.014 650.22 174.061C659.704 170.021 667.286 167.17 669.268 162.13C681.435 131.005 656.278 114.765 632.267 70.7726C623.881 55.4082 613.446 38.7872 606.822 18.4272C599.696 -3.46518 565.054 -72.9335 564.822 -163.793C564.8 -168.367 564.9 -173.333 565.121 -178.692C566.775 -217.913 575.958 -279.251 614.985 -349.765M173.641 758.135C191.91 742.199 210.817 727.435 228.42 712.696C255.457 690.04 272.691 674.845 298.474 660.182C318.042 649.037 332.812 644.691 347.889 634.458C361.861 624.999 371.622 616.516 378.415 611.067C397.104 596.006 400.783 583.936 407.85 561.186C414.175 540.569 419.166 519.564 422.79 498.304C427.121 475.192 431.974 451.26 450.836 430.334C452.387 428.341 453.608 426.111 454.451 423.73C476.935 374.046 489.257 365.508 503.916 346.974C525.369 319.826 537.4 281.683 553.573 254.577C565.57 234.456 577.143 217.475 590.691 204.874C606.248 190.56 631.051 183.585 650.191 176.26C660.142 172.465 667.975 169.685 669.939 164.636C682.056 133.554 654.77 116.62 628.418 72.4679C619.291 57.1631 608.276 40.4505 601.092 19.8396C593.908 -0.771422 558.315 -72.0068 557.576 -164.352C557.568 -168.934 557.667 -174.039 557.829 -179.424C559.365 -219.029 568.382 -281.218 607.594 -352.769M181.345 761.273C199.235 745.994 217.932 731.595 236.009 717.13C262.074 696.031 280.311 680.953 306.039 666.428C325.156 655.559 339.79 650.817 354.408 641.293C368.072 632.412 377.969 624.494 385.01 619.163C403.878 604.888 409.103 593.175 416.631 571.228C424.032 549.67 426.632 534.03 430.565 509.542C434.097 487.478 443.87 467.46 453.953 439.903C454.879 437.37 456.191 435.182 457.016 432.907C475.932 380.382 486.554 367.454 499.765 349.447C520.484 321.168 532.744 283.133 549.393 255.498C561.584 235.295 573.693 218.186 587.878 205.66C604.13 191.407 630.419 185.145 650.127 178.44C660.545 174.89 668.67 172.109 670.581 167.151C682.677 136.106 653.254 118.448 624.548 74.0316C614.692 58.768 603.144 41.9667 595.334 21.0914C587.989 1.43436 551.406 -71.2492 550.34 -165.05C550.316 -169.69 550.357 -174.779 550.528 -180.305C551.935 -220.277 560.807 -283.353 600.172 -355.888M189.084 764.308C206.595 749.686 225.237 735.718 243.53 721.427C268.627 701.839 287.791 686.882 313.547 672.52C332.119 662.09 346.71 656.788 360.9 647.966C374.209 639.658 384.181 632.369 391.585 627.126C410.643 613.618 417.413 602.263 425.421 581.128C433.097 560.824 434.962 546.245 438.393 520.688C441.158 499.617 448.76 478.807 457.131 449.409C457.883 446.8 458.952 444.398 459.634 441.992C475.022 386.601 487.275 371.182 495.667 351.828C510.114 318.944 526.698 287.044 545.312 256.33C557.679 236.034 570.314 218.814 585.241 206.352C602.261 192.202 629.971 186.639 650.207 180.58C661.081 177.294 669.406 174.629 671.368 169.626C683.435 138.589 651.882 120.237 620.947 75.6768C610.381 60.465 598.321 43.5385 589.845 22.4249C582.414 3.88692 544.728 -70.384 543.362 -165.648C543.313 -170.327 543.307 -175.42 543.504 -181.076C544.756 -221.455 553.462 -285.381 593.038 -358.914M194.726 766.373C211.858 752.409 230.355 738.82 249.052 724.714C273.155 706.596 293.389 691.892 319.08 677.517C337.085 667.393 351.674 661.675 365.397 653.534C378.387 645.821 388.446 639.141 396.137 633.991C415.398 621.185 423.683 610.242 432.171 589.92C440.131 570.852 441.385 557.333 444.045 530.624C446.045 510.499 451.591 488.867 458.144 457.687C458.712 454.972 459.526 452.423 460.058 449.857C471.974 391.583 481.62 371.322 489.411 353.009C503.611 319.506 520.19 287.064 539.019 255.931C551.569 235.57 564.74 218.222 580.299 205.931C598.134 191.886 627.2 187.009 647.964 181.426C659.284 178.421 667.857 175.875 669.832 170.807C681.86 139.796 648.209 120.694 614.904 75.9824C603.59 60.8012 591.087 43.7159 581.914 22.4187C574.4 4.95273 535.617 -70.8767 533.934 -167.615C533.859 -172.333 533.879 -177.556 534.03 -183.216C535.134 -223.971 543.695 -288.785 583.435 -363.319M198.021 767.036C214.773 753.73 233.091 740.451 252.124 726.733C275.232 710.086 296.48 695.482 322.078 681.393C339.645 671.65 354.092 665.46 367.35 658C380.032 650.863 390.139 644.772 398.238 639.76C417.703 627.656 427.483 617.114 436.458 597.634C444.685 579.791 445.498 567.332 447.308 539.523C448.627 520.368 452.094 497.827 456.757 464.947C457.172 462.119 457.74 459.404 458.1 456.714C466.551 395.464 473.45 370.475 480.749 353.143C494.978 319.411 512.173 283.788 530.345 254.525C543.052 234.06 556.767 216.612 573.01 204.399C591.566 190.455 622.062 186.306 643.515 181.341C655.309 178.61 664.139 176.042 666.072 171.047C678.107 140.064 642.311 120.21 606.684 75.3495C594.64 60.2096 581.733 42.9394 571.795 21.4922C564.226 5.09057 524.337 -72.2791 522.337 -170.491C522.264 -175.257 522.24 -180.53 522.368 -186.275C523.354 -227.416 531.749 -293.081 571.627 -368.655M201.238 767.531C217.603 754.853 235.752 741.866 255.189 728.504C277.725 712.774 301.071 698.239 325.129 684.957C342.222 675.573 356.54 669.017 369.367 662.135C381.755 655.633 391.905 650.101 400.356 645.196C420.053 633.785 431.3 623.653 440.782 605.026C449.266 588.379 449.78 576.988 450.606 548.1C451.14 529.757 452.666 506.363 455.416 471.866C455.648 468.932 455.972 466.051 456.188 463.23C461.163 399.023 464.254 368.911 472.121 352.954C488.61 319.651 502.993 282.574 521.716 252.777C534.581 232.208 548.877 214.683 565.775 202.556C585.099 188.714 617.068 185.344 639.084 180.922C651.313 178.492 660.414 175.958 662.366 170.974C674.343 140.007 636.399 119.448 598.47 74.4017C584.048 57.9001 571.685 39.7029 561.657 20.2115C554.007 4.8348 513.02 -74.0463 510.691 -173.714C510.592 -178.519 510.553 -183.85 510.676 -189.671C511.515 -231.189 519.765 -297.741 559.861 -374.285M204.325 768C243.563 738.509 284.913 711.942 328.041 688.515C397.44 650.841 425.945 646.053 444.947 612.399C458.775 587.883 451.728 576.142 453.906 478.785C455.542 405.563 456.424 368.989 463.354 352.759C488.445 294.549 514.951 230.387 558.383 200.695C589.687 179.288 652.951 184.722 658.355 170.8C674.341 129.511 597.683 105.162 551.352 18.8844C543.633 4.51436 501.555 -75.8493 498.909 -176.991C497.884 -216.249 501.947 -291.527 547.904 -380" stroke="url(#paint0_linear_220_551)" stroke-width="2" stroke-miterlimit="10"/>
<defs>
<linearGradient id="paint0_linear_220_551" x1="399" y1="-2.49999" x2="384" y2="645.5" gradientUnits="userSpaceOnUse">
<stop stop-color="#68DBFF"/>
<stop offset="1" stop-color="#DA1135"/>
</linearGradient>
</defs>
</svg>
