<svg width="790" height="532" viewBox="0 0 790 532" fill="none" xmlns="http://www.w3.org/2000/svg">
<g clip-path="url(#clip0_817_3584)">
<path d="M967.603 224.829C953.605 125.03 813.148 61.6716 707.624 62.946C586.02 64.4271 540.188 151.396 447.645 124.944C363.195 100.833 358.22 16.0345 296.135 2.67062C239.077 -9.60835 148.79 41.6602 0 295.437" stroke="url(#paint0_linear_817_3584)" stroke-width="2" stroke-miterlimit="10"/>
<path d="M7.09314 306.683C154.076 56.5745 244.414 3.32546 302.281 13.3312C345.169 20.8053 361.697 61.9821 395.253 94.1691C412.002 110.738 432.602 122.887 455.203 129.525C529.237 151.327 573.364 103.073 652.477 82.3724C672.642 77.035 693.365 74.0871 714.218 73.5894C820.172 70.7134 959.063 125.633 975.229 221.798" stroke="url(#paint1_linear_817_3584)" stroke-width="2" stroke-miterlimit="10"/>
<path d="M14.2046 317.894C159.379 71.4709 249.718 16.2586 308.273 24.0083C351.316 29.7087 368.826 68.9221 402.451 99.4732C419.6 115.446 440.17 127.291 462.59 134.106C535.557 156.27 579.667 112.803 659.055 93.0667C679.23 88.0087 699.874 85.0538 720.658 84.2493C827.06 80.0989 964.366 126.235 982.703 218.767" stroke="url(#paint2_linear_817_3584)" stroke-width="2" stroke-miterlimit="10"/>
<path d="M21.2976 329.07C164.63 86.3839 255.02 29.2256 314.333 34.6676C357.565 38.6285 375.988 75.8443 409.733 104.777C427.247 120.144 447.77 131.692 469.993 138.686C541.961 161.212 585.899 122.515 665.649 103.76C685.843 98.9363 706.433 95.9562 727.165 94.8569C833.998 89.2427 969.72 126.786 990.226 215.683" stroke="url(#paint3_linear_817_3584)" stroke-width="2" stroke-miterlimit="10"/>
<path d="M28.3907 340.333C169.916 101.281 260.288 42.2109 320.41 45.3453C363.78 47.5841 383.201 82.8021 417.05 110.064C434.941 124.834 455.454 136.098 477.517 143.267C548.486 166.154 592.303 132.245 672.449 114.455C692.621 109.913 713.113 106.931 733.742 105.535C841.022 98.4565 975.161 127.423 997.853 212.687" stroke="url(#paint4_linear_817_3584)" stroke-width="2" stroke-miterlimit="10"/>
<path d="M35.4153 351.562C175.184 116.178 265.608 53.5257 326.488 56.0056C369.944 57.7278 390.415 89.6393 424.333 115.368C442.592 129.514 463.095 140.494 484.989 147.848C554.959 171.097 598.622 141.976 679.043 125.167C699.208 120.861 719.63 117.858 740.181 116.178C847.909 107.567 980.464 128.009 1005.33 209.656" stroke="url(#paint5_linear_817_3584)" stroke-width="2" stroke-miterlimit="10"/>
<path d="M42.5955 362.791C180.47 131.092 270.826 68.3023 332.549 66.5802C376.143 65.5813 397.664 96.5801 431.634 120.69C450.24 134.208 470.736 144.908 492.462 152.447C561.434 176.058 604.993 151.706 685.707 135.88C705.867 131.83 726.221 128.818 746.69 126.856C854.865 116.781 985.836 128.578 1012.87 206.643" stroke="url(#paint6_linear_817_3584)" stroke-width="2" stroke-miterlimit="10"/>
<path d="M49.6885 374.018C185.704 145.988 276.077 81.2517 338.626 77.3424C382.323 74.5525 404.947 103.364 438.933 125.976C457.872 138.852 478.37 149.268 499.934 156.975C567.89 180.964 611.346 161.418 692.369 146.521C711.222 143.077 731.349 139.771 753.198 137.446C861.838 125.856 991.207 129.196 1020.41 203.594" stroke="url(#paint7_linear_817_3584)" stroke-width="2" stroke-miterlimit="10"/>
<path d="M56.7815 385.248C191.023 160.903 281.327 94.3934 344.686 87.9697C388.504 83.5438 412.246 110.168 446.267 131.247C465.539 143.475 486.05 153.629 507.457 161.54C574.415 185.891 617.733 171.098 699.084 157.218C718.023 153.98 738.098 150.708 759.774 148.09C868.724 135.002 996.579 129.801 1027.95 200.547" stroke="url(#paint8_linear_817_3584)" stroke-width="2" stroke-miterlimit="10"/>
<path d="M63.8931 396.459C196.31 175.799 286.579 107.499 350.765 98.6812C394.686 92.6364 419.633 117.005 453.517 136.569C473.096 148.14 493.617 158.037 514.861 166.155C580.837 190.868 624.035 180.862 705.696 167.877C724.635 164.846 744.727 161.574 766.231 158.681C875.75 144.008 1001.95 130.3 1035.49 197.43" stroke="url(#paint9_linear_817_3584)" stroke-width="2" stroke-miterlimit="10"/>
<path d="M70.9861 407.687C201.578 190.696 291.83 120.639 356.79 109.341C400.815 101.695 426.899 123.773 460.782 141.89C480.666 152.78 501.211 162.414 522.299 170.736C587.259 195.811 630.336 190.575 712.324 178.658C731.349 175.868 751.39 172.579 772.705 169.427C882.67 153.17 1007.27 130.989 1043.01 194.485" stroke="url(#paint10_linear_817_3584)" stroke-width="2" stroke-miterlimit="10"/>
<path d="M78.0791 418.916C206.863 205.61 297.115 133.779 362.902 120.002C407.047 110.771 434.284 130.524 468.099 147.195C487.537 156.77 507.44 166.431 529.805 175.317C593.767 200.736 636.723 200.306 719.021 189.353C738.098 186.787 758.104 183.48 779.281 180.071C889.695 162.229 1012.71 131.575 1050.61 191.454" stroke="url(#paint11_linear_817_3584)" stroke-width="2" stroke-miterlimit="10"/>
<path d="M85.1733 430.143C212.15 220.574 302.281 146.952 368.963 130.677C413.228 119.845 441.671 137.239 475.4 152.497C495.303 161.504 515.257 170.89 537.278 179.897C600.241 205.729 643.06 210.017 725.685 200.046C744.813 197.721 764.802 194.397 785.755 190.712C896.599 171.251 1018.05 132.158 1058.11 188.421" stroke="url(#paint12_linear_817_3584)" stroke-width="2" stroke-miterlimit="10"/>
<path d="M92.2317 441.373C217.417 235.42 307.635 160.145 375.023 141.356C419.409 128.974 449.057 143.939 482.699 157.82C503.084 166.224 523.073 175.352 544.681 184.496C606.662 210.638 649.326 219.766 732.347 210.776C751.545 208.658 771.482 205.317 792.263 201.391C903.555 180.277 1023.42 132.745 1065.65 185.392" stroke="url(#paint13_linear_817_3584)" stroke-width="2" stroke-miterlimit="10"/>
<path d="M99.3776 452.583C222.704 250.316 312.87 173.37 381.101 152.016C425.625 138.066 456.461 150.586 489.983 163.106C510.85 170.89 530.908 179.794 552.223 189.059C613.171 215.563 655.749 229.461 739.011 221.453C759.086 219.312 779.038 216.145 798.789 211.964C910.494 189.283 1028.84 133.365 1073.2 182.343" stroke="url(#paint14_linear_817_3584)" stroke-width="2" stroke-miterlimit="10"/>
<path d="M106.471 463.811C227.989 265.23 318.242 186.544 387.11 162.675C431.771 147.176 463.812 157.216 497.3 168.41C518.649 175.557 538.741 184.237 559.695 193.64C619.662 220.505 662.102 239.191 745.64 232.147C765.697 230.267 785.613 227.097 805.263 222.658C917.432 198.186 1034.16 133.95 1080.75 179.242" stroke="url(#paint15_linear_817_3584)" stroke-width="2" stroke-miterlimit="10"/>
<path d="M113.564 475.041C233.258 280.127 323.613 199.84 393.239 173.336C438.004 156.321 471.267 163.813 504.582 173.698C526.414 180.191 546.541 188.698 567.15 198.222C626.101 225.449 668.438 248.905 752.337 242.843C772.376 241.201 792.258 238.011 811.805 233.302C924.353 207.211 1039.54 134.553 1088.29 176.281" stroke="url(#paint16_linear_817_3584)" stroke-width="2" stroke-miterlimit="10"/>
<path d="M120.675 486.268C238.544 295.109 328.848 213.082 399.3 184.012C444.254 165.448 478.671 170.373 511.866 179.001C534.248 184.805 554.358 193.14 574.622 202.801C632.575 230.356 674.774 258.633 759 253.553C779.019 252.139 798.869 248.928 818.313 243.961C931.275 216.165 1044.91 135.138 1095.84 173.249" stroke="url(#paint17_linear_817_3584)" stroke-width="2" stroke-miterlimit="10"/>
<path d="M127.769 497.497C243.743 309.937 334.185 226.361 405.378 194.742C450.486 174.662 486.057 176.987 519.166 184.409C541.978 189.576 562.208 197.704 582.094 207.486C639.049 235.437 681.127 268.468 765.663 264.317C785.66 263.131 805.483 259.899 824.821 254.673C938.196 225.156 1050.37 135.845 1103.38 170.288" stroke="url(#paint18_linear_817_3584)" stroke-width="2" stroke-miterlimit="10"/>
<path d="M134.862 508.726C249.097 324.851 339.539 239.639 411.438 205.351C456.736 183.738 493.443 183.428 526.465 189.611C549.76 193.985 570.008 202.062 589.566 211.999C645.505 240.311 687.463 278.112 772.326 274.978C792.301 274.028 812.1 270.775 831.329 265.282C945.1 233.991 1055.65 136.327 1110.92 167.188" stroke="url(#paint19_linear_817_3584)" stroke-width="2" stroke-miterlimit="10"/>
<path d="M141.973 519.937C254.384 339.748 344.894 253.003 417.447 216.011C462.917 192.9 500.743 189.921 533.68 194.915C557.457 198.514 577.756 206.505 596.953 216.528C651.91 245.219 693.748 287.808 778.921 285.638C798.877 284.907 818.659 281.632 837.786 275.891C951.867 242.688 1060.95 136.93 1118.43 164.14" stroke="url(#paint20_linear_817_3584)" stroke-width="2" stroke-miterlimit="10"/>
<path d="M149.048 531.164C328.52 244.684 455.376 190.229 541.048 200.218C634.571 211.119 670.263 297.933 785.652 296.348C921.013 294.471 1056.29 133.519 1126 161.108" stroke="url(#paint21_linear_817_3584)" stroke-width="2" stroke-miterlimit="10"/>
</g>
<defs>
<linearGradient id="paint0_linear_817_3584" x1="483.801" y1="1" x2="483.801" y2="295.437" gradientUnits="userSpaceOnUse">
<stop stop-color="#DA2911"/>
<stop offset="1" stop-color="#68FFE4"/>
</linearGradient>
<linearGradient id="paint1_linear_817_3584" x1="491.161" y1="12.2031" x2="491.161" y2="306.683" gradientUnits="userSpaceOnUse">
<stop stop-color="#DA2911"/>
<stop offset="1" stop-color="#68FFE4"/>
</linearGradient>
<linearGradient id="paint2_linear_817_3584" x1="498.454" y1="23.3203" x2="498.454" y2="317.894" gradientUnits="userSpaceOnUse">
<stop stop-color="#DA2911"/>
<stop offset="1" stop-color="#68FFE4"/>
</linearGradient>
<linearGradient id="paint3_linear_817_3584" x1="505.762" y1="34.3223" x2="505.762" y2="329.07" gradientUnits="userSpaceOnUse">
<stop stop-color="#DA2911"/>
<stop offset="1" stop-color="#68FFE4"/>
</linearGradient>
<linearGradient id="paint4_linear_817_3584" x1="513.122" y1="45.2286" x2="513.122" y2="340.333" gradientUnits="userSpaceOnUse">
<stop stop-color="#DA2911"/>
<stop offset="1" stop-color="#68FFE4"/>
</linearGradient>
<linearGradient id="paint5_linear_817_3584" x1="520.37" y1="55.9355" x2="520.37" y2="351.562" gradientUnits="userSpaceOnUse">
<stop stop-color="#DA2911"/>
<stop offset="1" stop-color="#68FFE4"/>
</linearGradient>
<linearGradient id="paint6_linear_817_3584" x1="527.731" y1="66.5566" x2="527.731" y2="362.791" gradientUnits="userSpaceOnUse">
<stop stop-color="#DA2911"/>
<stop offset="1" stop-color="#68FFE4"/>
</linearGradient>
<linearGradient id="paint7_linear_817_3584" x1="535.048" y1="77.1543" x2="535.048" y2="374.018" gradientUnits="userSpaceOnUse">
<stop stop-color="#DA2911"/>
<stop offset="1" stop-color="#68FFE4"/>
</linearGradient>
<linearGradient id="paint8_linear_817_3584" x1="542.365" y1="87.4824" x2="542.365" y2="385.248" gradientUnits="userSpaceOnUse">
<stop stop-color="#DA2911"/>
<stop offset="1" stop-color="#68FFE4"/>
</linearGradient>
<linearGradient id="paint9_linear_817_3584" x1="549.692" y1="97.7422" x2="549.692" y2="396.459" gradientUnits="userSpaceOnUse">
<stop stop-color="#DA2911"/>
<stop offset="1" stop-color="#68FFE4"/>
</linearGradient>
<linearGradient id="paint10_linear_817_3584" x1="557" y1="107.785" x2="557" y2="407.687" gradientUnits="userSpaceOnUse">
<stop stop-color="#DA2911"/>
<stop offset="1" stop-color="#68FFE4"/>
</linearGradient>
<linearGradient id="paint11_linear_817_3584" x1="564.342" y1="117.646" x2="564.342" y2="418.916" gradientUnits="userSpaceOnUse">
<stop stop-color="#DA2911"/>
<stop offset="1" stop-color="#68FFE4"/>
</linearGradient>
<linearGradient id="paint12_linear_817_3584" x1="571.643" y1="127.303" x2="571.643" y2="430.143" gradientUnits="userSpaceOnUse">
<stop stop-color="#DA2911"/>
<stop offset="1" stop-color="#68FFE4"/>
</linearGradient>
<linearGradient id="paint13_linear_817_3584" x1="578.943" y1="136.744" x2="578.943" y2="441.373" gradientUnits="userSpaceOnUse">
<stop stop-color="#DA2911"/>
<stop offset="1" stop-color="#68FFE4"/>
</linearGradient>
<linearGradient id="paint14_linear_817_3584" x1="586.287" y1="145.885" x2="586.287" y2="452.583" gradientUnits="userSpaceOnUse">
<stop stop-color="#DA2911"/>
<stop offset="1" stop-color="#68FFE4"/>
</linearGradient>
<linearGradient id="paint15_linear_817_3584" x1="593.612" y1="154.725" x2="593.612" y2="463.811" gradientUnits="userSpaceOnUse">
<stop stop-color="#DA2911"/>
<stop offset="1" stop-color="#68FFE4"/>
</linearGradient>
<linearGradient id="paint16_linear_817_3584" x1="600.93" y1="163.223" x2="600.93" y2="475.041" gradientUnits="userSpaceOnUse">
<stop stop-color="#DA2911"/>
<stop offset="1" stop-color="#68FFE4"/>
</linearGradient>
<linearGradient id="paint17_linear_817_3584" x1="608.256" y1="163.238" x2="608.256" y2="486.268" gradientUnits="userSpaceOnUse">
<stop stop-color="#DA2911"/>
<stop offset="1" stop-color="#68FFE4"/>
</linearGradient>
<linearGradient id="paint18_linear_817_3584" x1="615.573" y1="162.506" x2="615.573" y2="497.497" gradientUnits="userSpaceOnUse">
<stop stop-color="#DA2911"/>
<stop offset="1" stop-color="#68FFE4"/>
</linearGradient>
<linearGradient id="paint19_linear_817_3584" x1="622.89" y1="161.236" x2="622.89" y2="508.726" gradientUnits="userSpaceOnUse">
<stop stop-color="#DA2911"/>
<stop offset="1" stop-color="#68FFE4"/>
</linearGradient>
<linearGradient id="paint20_linear_817_3584" x1="630.199" y1="159.713" x2="630.199" y2="519.937" gradientUnits="userSpaceOnUse">
<stop stop-color="#DA2911"/>
<stop offset="1" stop-color="#68FFE4"/>
</linearGradient>
<linearGradient id="paint21_linear_817_3584" x1="637.524" y1="157.928" x2="637.524" y2="531.164" gradientUnits="userSpaceOnUse">
<stop stop-color="#DA2911"/>
<stop offset="1" stop-color="#68FFE4"/>
</linearGradient>
<clipPath id="clip0_817_3584">
<rect width="790" height="532" fill="white"/>
</clipPath>
</defs>
</svg>
