<svg width="446" height="296" viewBox="0 0 446 296" fill="none" xmlns="http://www.w3.org/2000/svg">
<path d="M193.909 103.508C192.141 87.4941 193.731 73.9759 198.641 63.3091C200.781 58.4112 203.886 53.9945 207.772 50.3227C211.657 46.6509 216.243 43.7993 221.255 41.9379C231.542 38.0395 243.943 37.6375 258.159 40.7413C272.879 44.004 288.89 50.8192 305.752 61.1121C323.707 72.2331 340.375 85.3075 355.45 100.096C371.117 115.304 385.346 131.925 397.956 149.747C410.072 166.667 420.435 184.775 428.884 203.792C437.011 222.396 441.977 239.943 443.792 255.958C445.606 271.972 443.96 285.49 439.059 296.157C434.318 306.44 426.714 313.639 416.436 317.528C406.158 321.417 393.748 321.828 379.532 318.725C364.821 315.518 348.801 308.665 331.939 298.382C314.003 287.25 297.352 274.173 282.287 259.389C266.621 244.181 252.392 227.56 239.781 209.738C227.663 192.819 217.301 174.711 208.853 155.693C200.736 137.098 195.76 119.541 193.955 103.527L193.909 103.508ZM193.357 103.172C200.614 168.996 262.685 256.649 332.004 298.943C401.323 341.236 451.591 322.146 444.297 256.322C437.002 190.498 375.015 102.845 305.696 60.5418C236.377 18.239 186.062 37.3197 193.31 103.153L193.357 103.172Z" stroke="currentColor" stroke-width="2"/>
<path d="M191.103 99.0495C190.42 82.951 193.086 69.573 199.015 59.2988C201.711 54.4916 205.338 50.2696 209.685 46.8796C214.032 43.4895 219.011 40.9993 224.332 39.5544C235.405 36.3852 248.479 36.8526 263.181 40.938C278.397 45.1636 294.707 53.0913 311.663 64.5528C329.588 76.826 346.11 91.0309 360.931 106.912C376.203 123.092 389.927 140.666 401.922 159.405C413.36 177.054 422.915 195.854 430.427 215.497C437.591 234.615 441.566 252.48 442.239 268.579C442.913 284.677 440.257 298.046 434.327 308.329C431.63 313.138 428.002 317.361 423.653 320.751C419.305 324.141 414.324 326.63 409.001 328.074C397.938 331.243 384.863 330.775 370.161 326.69C354.945 322.464 338.635 314.537 321.679 303.075C303.754 290.802 287.232 276.597 272.411 260.716C257.139 244.536 243.415 226.962 231.421 208.223C219.982 190.574 210.428 171.774 202.915 152.131C195.751 133.013 191.776 115.148 191.103 99.0495V99.0495ZM190.504 98.6475C193.31 164.817 252.024 256.584 321.707 303.618C391.391 350.651 445.625 335.123 442.838 268.953C440.051 202.783 381.319 111.006 311.635 63.9825C241.951 16.9586 187.717 32.4774 190.504 98.6475V98.6475Z" stroke="currentColor" stroke-width="2"/>
<path d="M188.475 94.4032C188.952 78.3047 192.73 65.1418 199.697 55.2976C206.44 45.79 215.867 39.7601 227.754 37.3668C239.641 34.9735 253.305 36.3572 268.446 41.4615C284.111 46.7342 300.655 55.8024 317.62 68.3951C335.455 81.8023 351.763 97.1262 366.252 114.092C381.033 131.2 394.148 149.679 405.419 169.277C416.095 187.604 424.74 207.039 431.203 227.239C437.329 246.815 440.191 264.905 439.714 281.012C439.237 297.12 435.468 310.274 428.491 320.118C421.748 329.626 412.312 335.656 400.434 338.049C388.557 340.442 374.884 339.058 359.752 333.963C344.078 328.681 327.533 319.613 310.578 307.02C292.748 293.611 276.44 278.291 261.946 261.333C247.161 244.207 234.04 225.713 222.76 206.101C212.082 187.788 203.427 168.369 196.948 148.186C190.831 128.61 187.97 110.52 188.437 94.4125L188.475 94.4032ZM187.839 93.9731C185.903 160.181 240.838 255.818 310.559 307.591C380.28 359.364 438.404 347.65 440.34 281.461C442.276 215.272 387.341 119.598 317.629 67.8249C247.918 16.0518 189.821 27.7564 187.876 94.0012L187.839 93.9731Z" stroke="currentColor" stroke-width="2"/>
<path d="M186.062 89.5877C187.745 73.5547 192.683 60.6909 200.736 51.3609C208.517 42.3488 218.86 36.9827 231.495 35.4682C244.13 33.9537 258.392 36.2348 273.917 42.3862C289.984 48.7433 306.65 58.9427 323.578 72.6853C341.22 87.2157 357.214 103.637 371.274 121.654C385.486 139.679 397.908 159.044 408.365 179.475C418.718 199.697 426.406 219.759 431.203 239.017C436.188 258.967 437.872 277.216 436.188 293.24C434.505 309.263 429.576 322.136 421.514 331.466C413.743 340.488 403.39 345.845 390.764 347.359C378.139 348.874 363.858 346.593 348.342 340.451C332.275 334.084 315.563 323.894 298.682 310.142C281.035 295.617 265.04 279.195 250.985 261.174C236.771 243.151 224.348 223.785 213.894 203.352C203.551 183.093 195.863 163.05 191.047 143.773C186.053 123.823 184.379 105.574 186.053 89.5504L186.062 89.5877ZM185.463 89.0642C178.561 154.972 229.223 254.209 298.626 310.722C368.029 367.235 429.903 359.643 436.815 293.735C443.726 227.827 393.037 128.59 323.652 72.0496C254.268 15.5087 192.375 23.1933 185.473 89.1016L185.463 89.0642Z" stroke="currentColor" stroke-width="2"/>
<path d="M183.883 84.615C186.829 68.7222 192.955 56.251 202.101 47.5006C210.93 39.0868 222.19 34.4125 235.563 33.7581C248.937 33.1037 263.798 36.4038 279.603 43.6116C296.007 51.0905 312.804 62.4118 329.526 77.2669C346.904 92.9038 362.499 110.414 376.025 129.479C389.571 148.363 401.195 168.554 410.722 189.75C420.074 210.682 426.696 231.212 430.362 250.779C434.103 271.028 434.551 289.342 431.615 305.225C428.678 321.109 422.543 333.589 413.397 342.34C404.568 350.754 393.308 355.428 379.934 356.082C366.561 356.737 351.709 353.446 335.876 346.229C319.472 338.75 302.675 327.429 285.953 312.573C268.587 296.932 253.003 279.422 239.482 260.361C225.928 241.49 214.295 221.312 204.757 200.127C195.405 179.196 188.783 158.666 185.117 139.108C181.376 118.85 180.928 100.536 183.864 84.6524L183.883 84.615ZM183.275 84.1288C171.192 149.392 217.102 251.929 285.832 313.172C354.562 374.415 420.074 371.134 432.167 305.824C444.259 240.514 398.358 137.959 329.628 76.7247C260.899 15.4907 195.386 18.8282 183.294 84.0914L183.275 84.1288Z" stroke="currentColor" stroke-width="2"/>
<path d="M181.966 79.5293C186.222 63.8983 193.572 51.8665 203.813 43.7799C213.708 35.9644 225.875 32.1408 239.969 32.4025C254.063 32.6643 269.382 37.0021 285.486 45.3037C302.143 53.8671 318.977 66.3476 335.437 82.3339C352.449 99.0306 367.538 117.579 380.421 137.631C393.222 157.319 403.95 178.278 412.434 200.174C420.739 221.676 426.163 242.645 428.557 262.418C431.026 282.882 430.119 301.187 425.873 316.818C421.627 332.449 414.258 344.481 404.017 352.567C394.122 360.383 381.955 364.216 367.861 363.954C353.767 363.692 338.458 359.345 322.344 351.053C305.669 342.461 288.863 329.981 272.403 313.957C255.39 297.262 240.298 278.717 227.409 258.669C214.615 238.977 203.887 218.019 195.396 196.126C187.091 174.624 181.667 153.646 179.282 133.883C176.823 113.446 177.758 95.1416 181.966 79.5293ZM181.386 78.9684C163.898 143.231 204.58 248.713 272.253 314.555C339.926 380.398 408.964 381.698 426.453 317.425C443.942 253.153 403.26 147.681 335.587 81.8384C267.914 15.9956 198.875 14.6774 181.386 78.9403V78.9684Z" stroke="currentColor" stroke-width="2"/>
<path d="M180.319 74.2749C185.931 58.9711 194.544 47.4816 205.888 40.1242C216.859 33.0285 229.914 30.0556 244.691 31.299C259.467 32.5424 275.235 37.9366 291.546 47.3413C308.427 57.0733 325.148 70.7131 341.262 87.8212C357.816 105.558 372.301 125.116 384.442 146.12C396.381 166.565 406.1 188.227 413.434 210.738C420.579 232.801 424.731 254.069 425.788 273.954C426.882 294.521 424.591 312.741 418.97 328.045C413.35 343.349 404.755 354.829 393.401 362.187C382.44 369.292 369.385 372.255 354.608 371.012C339.831 369.768 324.063 364.374 307.753 354.969C290.919 345.237 274.141 331.598 258.037 314.49C241.489 296.763 227.009 277.214 214.876 256.219C202.941 235.772 193.222 214.11 185.884 191.601C178.748 169.538 174.596 148.27 173.539 128.385C172.445 107.818 174.736 89.5974 180.347 74.303L180.319 74.2749ZM179.786 73.6953C156.667 136.556 191.635 244.617 257.859 315.022C324.082 385.427 396.487 391.532 419.569 328.643C442.65 265.755 407.682 157.693 341.421 87.2883C275.161 16.8833 202.839 10.7786 179.758 73.6673L179.786 73.6953Z" stroke="currentColor" stroke-width="2"/>
<path d="M178.984 68.9367C186.008 54.0629 195.884 43.2091 208.341 36.6557C220.378 30.336 234.303 28.2419 249.734 30.551C265.166 32.8601 281.317 39.3294 297.749 49.828C314.761 60.7099 331.323 75.4715 347.035 93.6827C363.043 112.413 376.824 132.937 388.101 154.842C399.108 175.985 407.733 198.284 413.82 221.33C419.702 243.832 422.499 265.343 422.153 285.256C421.788 305.87 418.038 323.857 411.023 338.731C404.009 353.604 394.077 364.458 381.639 371.002C369.612 377.331 355.677 379.416 340.255 377.107C324.833 374.798 308.635 368.403 292.203 357.839C275.191 346.948 258.628 332.196 242.973 313.985C226.961 295.256 213.18 274.732 201.907 252.825C190.897 231.682 182.268 209.383 176.179 186.338C170.306 163.826 167.5 142.324 167.855 122.411C168.22 101.797 171.961 83.8011 178.984 68.9367V68.9367ZM178.433 68.2917C149.572 129.413 178.358 239.653 242.72 314.508C307.082 389.363 382.667 400.497 411.566 339.422C440.464 278.347 411.641 168.061 347.269 93.1966C282.897 18.3322 207.294 7.16991 178.433 68.3104V68.2917Z" stroke="currentColor" stroke-width="2"/>
<path d="M177.963 63.5151C186.426 49.1742 197.602 39.0309 211.163 33.3656C224.256 27.8966 239.042 26.8215 255.119 30.1683C271.195 33.5151 287.637 41.1063 304.115 52.736C321.183 64.7865 337.494 80.6606 352.597 99.9189C367.966 119.603 380.932 141.047 391.222 163.798C401.2 185.572 408.616 208.43 413.322 231.913C417.839 254.771 419.195 276.422 417.371 296.26C415.501 316.827 410.217 334.487 401.753 348.837C393.289 363.187 382.113 373.321 368.552 378.987C355.459 384.446 340.673 385.531 324.644 382.184C308.614 378.837 292.116 371.246 275.638 359.616C258.57 347.566 242.259 331.692 227.156 312.433C211.791 292.747 198.825 271.303 188.531 248.554C178.547 226.78 171.122 203.922 166.403 180.439C161.886 157.582 160.521 135.93 162.354 116.092C164.224 95.525 169.499 77.8653 177.963 63.5151V63.5151ZM177.43 62.842C142.639 121.804 164.767 233.783 226.856 312.938C288.946 392.094 367.486 408.472 402.286 349.51C437.086 290.548 414.949 178.626 352.859 99.4141C290.77 20.2026 212.229 3.87979 177.43 62.842V62.842Z" stroke="currentColor" stroke-width="2"/>
<path d="M177.3 58.0268C187.242 44.3029 199.746 34.9636 214.372 30.2612C228.532 25.7271 244.131 25.6803 260.722 30.1303C277.313 34.5803 294.063 43.3307 310.56 56.0823C327.591 69.292 343.555 86.2599 358.005 106.565C372.621 127.147 384.666 149.437 393.87 172.941C402.735 195.285 408.856 218.621 412.098 242.439C415.166 265.558 415.007 287.247 411.63 306.945C408.123 327.297 401.343 344.574 391.373 358.297C381.404 372.021 368.928 381.361 354.292 386.054C340.132 390.597 324.542 390.644 307.951 386.194C291.36 381.744 274.601 373.012 258.15 360.251C241.073 347.023 225.109 330.074 210.669 309.787C196.045 289.192 183.997 266.885 174.794 243.365C165.932 221.023 159.812 197.69 156.566 173.876C153.499 150.756 153.658 129.058 157.043 109.37C160.541 89.0177 167.331 71.732 177.3 58.0175V58.0268ZM176.786 57.2976C135.916 113.698 150.927 226.939 210.314 310.236C269.7 393.533 350.972 415.353 391.841 358.952C432.71 302.551 417.7 189.32 358.313 106.014C298.926 22.7075 217.655 0.934351 176.823 57.3257L176.786 57.2976Z" stroke="currentColor" stroke-width="2"/>
<path d="M177.002 52.5396C188.449 39.5449 202.253 31.0937 217.974 27.429C233.171 23.8859 249.547 24.9329 266.606 30.5234C283.664 36.1139 300.695 45.9955 317.033 59.897C333.942 74.2379 349.467 92.2809 363.149 113.502C376.933 134.946 387.95 158.046 395.938 182.253C403.582 205.099 408.296 228.822 409.967 252.854C411.482 276.132 409.723 297.728 404.729 317.136C399.558 337.198 391.131 353.96 379.684 366.955C368.237 379.949 354.433 388.391 338.712 392.065C323.514 395.609 307.138 394.561 290.08 388.962C273.021 383.362 256.028 373.49 239.69 359.616C222.772 345.256 207.256 327.213 193.574 305.992C179.788 284.546 168.771 261.442 160.785 237.232C153.141 214.389 148.427 190.669 146.757 166.64C145.241 143.362 147 121.767 151.994 102.349C157.128 82.3339 165.601 65.5062 177.002 52.5396ZM176.515 51.7917C129.455 105.191 136.899 219.208 193.144 306.45C249.388 393.692 333.119 421.112 380.189 367.703C427.259 314.294 419.805 200.277 363.561 113.044C307.316 25.8117 223.585 -1.61737 176.515 51.7917V51.7917Z" stroke="currentColor" stroke-width="2"/>
<path d="M177.083 47.0231C190.064 34.8698 205.139 27.3909 221.974 24.8293C238.2 22.3613 255.314 24.5395 272.859 31.3173C290.404 38.0951 307.463 49.0799 323.614 64.1032C340.317 79.6127 355.29 98.6934 368.093 120.822C380.949 143.062 390.819 166.897 397.45 191.713C403.809 214.982 407.024 238.997 407.008 263.118C406.896 286.443 403.454 307.889 396.795 326.876C389.893 346.508 379.812 362.663 366.868 374.826C353.925 386.988 338.811 394.458 321.977 397.019C305.751 399.487 288.627 397.309 271.092 390.531C253.556 383.754 236.488 372.769 220.337 357.746C203.624 342.236 188.661 323.155 175.848 301.027C162.997 278.789 153.121 254.962 146.473 230.155C140.123 206.884 136.909 182.87 136.915 158.749C137.036 135.424 140.469 113.969 147.137 94.9913C154.039 75.359 164.12 59.2045 177.064 47.0418L177.083 47.0231ZM176.615 46.2565C123.307 96.2533 122.718 210.513 175.362 301.476C228.006 392.439 313.934 425.617 367.27 375.62C420.606 325.623 421.186 211.345 368.542 120.392C315.898 29.4383 229.97 -3.75895 176.634 46.2378L176.615 46.2565Z" stroke="currentColor" stroke-width="2"/>
<path d="M177.589 41.5266C191.59 30.4921 208.557 23.8698 226.333 22.502C243.551 21.1652 261.367 24.5307 279.286 32.5145C297.205 40.4983 314.301 52.717 330.199 68.7874C346.613 85.4187 360.922 105.5 372.743 128.46C384.571 151.428 393.199 175.905 398.387 201.212C403.344 224.833 404.956 249.033 403.175 273.103C401.305 296.372 396.161 317.528 387.763 336.001C379.074 355.128 367.3 370.516 352.785 381.744C338.775 392.777 321.797 399.393 304.013 400.75C286.796 402.087 268.979 398.721 251.061 390.738C233.142 382.754 216.018 370.554 200.203 354.483C183.799 337.852 169.49 317.771 157.659 294.811C145.835 271.843 137.21 247.365 132.025 222.059C127.064 198.438 125.449 174.238 127.227 150.168C129.098 126.899 134.251 105.743 142.64 87.2698C151.337 68.1423 163.103 52.7544 177.627 41.5266H177.589ZM177.206 40.7133C117.492 86.8678 108.551 200.81 157.108 295.203C205.665 389.597 293.492 428.712 353.178 382.558C412.864 336.403 421.852 222.461 373.22 128.067C324.588 33.6737 236.845 -5.44121 177.168 40.7133H177.206Z" stroke="currentColor" stroke-width="2"/>
<path d="M178.516 36.0762C194.197 26.0029 212.426 20.6067 231.066 20.52C249.247 20.3797 267.708 24.9886 285.936 34.2064C304.163 43.4242 321.278 56.7742 336.747 73.9197C352.758 91.6822 366.309 112.689 377.036 136.416C387.74 160.047 395.008 185.087 398.621 210.775C402.095 234.676 402.01 258.959 398.369 282.835C394.74 305.907 387.735 326.662 377.569 344.536C367.029 363.009 353.543 377.537 337.476 387.727C321.782 397.803 303.541 403.202 284.888 403.293C266.717 403.424 248.256 398.824 230.019 389.606C211.782 380.388 194.705 367.029 179.245 349.902C163.244 332.14 149.683 311.133 138.956 287.397C128.257 263.765 120.991 238.725 117.38 213.038C113.908 189.14 113.99 164.861 117.623 140.987C121.261 117.905 128.257 97.1605 138.432 79.2858C148.963 60.8222 162.449 46.2849 178.525 36.0949L178.516 36.0762ZM178.142 35.2628C112.087 77.145 94.2894 190.18 138.395 287.734C182.5 385.287 271.786 430.404 337.841 388.522C403.896 346.64 421.703 233.605 377.597 136.051C333.492 38.4975 244.159 -6.63799 178.132 35.2441L178.142 35.2628Z" stroke="currentColor" stroke-width="2"/>
<path d="M179.891 30.7099C197.254 21.7225 216.735 17.6248 236.248 18.8558C255.345 19.987 274.396 25.8673 292.857 36.3285C311.319 46.7897 328.331 61.3082 343.294 79.5288C359.246 99.1069 371.978 121.099 381.012 144.68C390.492 168.922 396.29 194.446 398.211 220.404C400.098 244.502 398.224 268.746 392.655 292.268C387.147 315.032 378.272 335.272 366.282 352.333C353.862 370.03 338.627 383.586 321.008 392.626C303.645 401.613 284.164 405.711 264.651 404.48C245.554 403.349 226.503 397.468 208.042 387.007C189.58 376.546 172.615 362.028 157.642 343.854C141.671 324.265 128.926 302.256 119.887 278.656C110.401 254.416 104.603 228.89 102.689 202.932C100.797 178.834 102.671 154.589 108.244 131.068C113.752 108.295 122.628 88.0641 134.617 71.0028C147.037 53.3057 162.262 39.7501 179.891 30.7099V30.7099ZM179.555 29.8498C107.112 67.0202 80.1215 178.541 119.261 278.936C158.4 379.332 248.836 430.572 321.307 393.402C393.778 356.231 420.74 244.711 381.638 144.315C342.537 43.9196 251.997 -7.32056 179.555 29.8498V29.8498Z" stroke="currentColor" stroke-width="2"/>
<path d="M181.723 25.4466C200.723 17.6784 221.41 14.9569 241.774 17.547C261.75 20.0151 281.315 27.2135 299.936 38.9368C318.556 50.6601 335.306 66.3285 349.69 85.4933C364.92 105.98 376.682 128.826 384.508 153.122C392.667 177.862 396.887 203.731 397.012 229.781C397.218 253.998 393.465 278.085 385.902 301.093C378.42 323.417 367.637 342.966 353.786 359.176C339.449 375.957 322.465 388.419 303.284 396.206C284.285 403.99 263.593 406.722 243.224 404.134C223.256 401.675 203.682 394.477 185.062 382.754C166.441 371.03 149.692 355.362 135.308 336.197C120.078 315.711 108.315 292.864 100.489 268.569C92.3319 243.828 88.1125 217.959 87.9854 191.909C87.7816 167.699 91.5345 143.618 99.0958 120.616C106.578 98.2823 117.361 78.7435 131.212 62.5329C145.549 45.752 162.532 33.2902 181.714 25.4934L181.723 25.4466ZM181.424 24.6146C102.64 56.5965 66.1011 165.967 99.8253 268.84C133.55 371.713 224.781 429.17 303.583 397.123C382.385 365.075 418.915 255.724 385.191 152.851C351.467 49.9776 260.235 -7.41401 181.433 24.5679L181.424 24.6146Z" stroke="currentColor" stroke-width="2"/>
<path d="M184.041 20.3326C204.615 13.9037 226.456 12.6355 247.636 16.6398C268.473 20.4915 288.487 29.0455 307.182 42.0215C326.379 55.5302 342.927 72.4523 356.001 91.9435C370.415 113.272 381.101 136.892 387.602 161.797C394.341 187.002 396.869 213.147 395.084 239.176C393.503 263.418 387.785 287.211 378.175 309.525C368.701 331.279 355.926 350.024 340.196 365.225C324.509 380.606 305.407 392.061 284.447 398.655C263.875 405.09 242.036 406.375 220.851 402.395C200.061 398.543 180.038 389.999 161.343 377.004C142.144 363.499 125.592 346.58 112.515 327.091C98.0867 305.738 87.3945 282.089 80.8948 257.154C74.152 231.946 71.624 205.797 73.413 179.765C74.9958 155.533 80.7114 131.751 90.3125 109.444C99.777 87.6899 112.562 68.9551 128.292 53.7448C143.976 38.3624 163.08 26.9097 184.041 20.3232V20.3326ZM183.798 19.3883C98.7015 45.8732 52.3049 152.448 80.1653 257.415C108.026 362.383 199.594 426.047 284.699 399.59C369.805 373.134 416.239 266.586 388.332 161.601C360.424 56.6148 268.894 -7.03106 183.798 19.4257V19.3883Z" stroke="currentColor" stroke-width="2"/>
<path d="M186.849 15.3878C208.966 10.4042 231.942 10.6603 253.942 16.1357C275.972 21.6612 296.615 31.6985 314.564 45.6121C333.579 60.2595 349.718 78.2976 362.167 98.8155C375.682 120.951 385.18 145.298 390.223 170.735C395.456 196.317 396.197 222.615 392.412 248.451C388.931 272.631 381.165 295.997 369.48 317.453C358.49 337.835 343.547 355.823 325.524 370.367C307.715 384.722 286.848 394.8 264.529 399.825C242.412 404.803 219.437 404.547 197.436 399.077C175.406 393.551 154.763 383.514 136.815 369.6C117.8 354.953 101.66 336.915 89.2115 316.397C75.6964 294.262 66.1983 269.915 61.1547 244.478C55.9281 218.894 55.1939 192.597 58.985 166.762C62.4543 142.584 70.207 119.218 81.8793 97.7591C92.8697 77.3778 107.812 59.3897 125.835 44.8455C143.644 30.4905 164.512 20.4126 186.83 15.3878H186.849ZM186.643 14.4529C95.3653 34.9266 38.8122 137.987 60.3598 244.655C81.9074 351.324 173.382 421.205 264.735 400.741C356.088 380.277 412.5 277.226 390.99 170.557C369.48 63.8888 277.968 -5.99266 186.662 14.4716L186.643 14.4529Z" stroke="currentColor" stroke-width="2"/>
<path d="M190.159 10.6479C213.74 7.22015 237.788 9.07544 260.563 16.0795C283.117 23.0397 304.03 34.4876 322.045 49.7348C340.792 65.4914 356.421 84.6182 368.123 106.126C393.215 152.389 400.593 206.204 388.876 257.51C383.39 281.525 373.51 304.32 359.734 324.745C346.521 344.481 329.502 361.383 309.672 374.462C289.755 387.586 267.187 396.155 243.576 399.556C219.966 402.958 195.895 401.109 173.082 394.141C150.526 387.178 129.61 375.731 111.591 360.485C92.8554 344.734 77.2334 325.617 65.531 304.122C40.4347 257.857 33.0477 204.041 44.7503 152.729C50.2372 128.719 60.1136 105.927 73.8826 85.5029C87.1013 65.7659 104.124 48.8612 123.955 35.7772C143.902 22.6288 166.509 14.0478 190.159 10.6479V10.6479ZM190.038 9.71307C92.6526 23.7642 25.7091 122.627 40.495 230.539C55.2809 338.45 146.176 414.539 243.589 400.488C341.002 386.437 407.917 287.584 393.122 179.682C378.327 71.779 287.413 -4.31932 190.038 9.72242V9.71307Z" stroke="currentColor" stroke-width="2"/>
<path d="M193.982 6.15083C218.943 4.35632 244 7.86091 267.51 16.4344C290.502 24.8397 311.606 37.7037 329.609 54.2872C347.993 71.1223 363.006 91.3003 373.845 113.745C396.768 161.336 400.587 215.895 384.516 266.213C376.905 289.95 364.844 312.022 348.977 331.252C333.472 350.181 314.377 365.86 292.789 377.387C270.687 389.139 246.359 396.113 221.386 397.857C196.412 399.602 171.351 396.077 147.829 387.512C124.851 379.117 103.757 366.27 85.7578 349.706C67.3737 332.867 52.3615 312.686 41.5217 290.239C18.5935 242.643 14.7749 188.076 30.8507 137.752C38.4653 114.017 50.5257 91.9451 66.3893 72.7135C81.8974 53.7943 100.993 38.1249 122.578 26.6058C144.669 14.8274 169.003 7.85628 193.982 6.15083V6.15083ZM193.917 5.21596C90.6397 12.4425 13.0721 106.388 20.6381 215.085C28.204 323.782 118.163 405.994 221.45 398.777C324.736 391.56 402.294 297.606 394.729 188.908C387.163 80.2112 297.203 -2.00123 193.917 5.21596Z" stroke="currentColor" stroke-width="2"/>
<path d="M198.333 1.93487C237.19 1.90447 275.182 13.4006 307.499 34.9676C339.816 56.5346 365.004 87.2025 379.874 123.088C394.744 158.974 398.626 198.463 391.031 236.556C383.435 274.649 364.702 309.632 337.204 337.076C316.704 357.537 291.928 373.21 264.655 382.974C237.381 392.737 208.284 396.348 179.45 393.548C150.616 390.748 122.759 381.606 97.8753 366.778C72.9916 351.95 51.6976 331.802 35.5197 307.78C19.3419 283.757 8.68084 256.454 4.30072 227.829C-0.0793925 199.203 1.92992 169.963 10.1846 142.205C18.4394 114.446 32.7351 88.8574 52.047 67.2718C71.359 45.6862 95.2089 28.6386 121.887 17.3509C146.072 7.12349 172.073 1.88016 198.333 1.93487V1.93487ZM198.333 1C89.3508 1 1 89.3171 1 198.257C1 307.198 89.3508 395.515 198.333 395.515C307.315 395.515 395.665 307.198 395.665 198.257C395.665 89.3171 307.315 1 198.333 1Z" stroke="currentColor" stroke-width="2"/>
</svg>
