<svg width="60" height="60" viewBox="0 0 60 60" fill="none" xmlns="http://www.w3.org/2000/svg">
<path d="M45.8801 11.5625C45.9131 9.99929 45.8538 9.01154 45.8538 9.01154L30.5775 9H30.5H30.4225L15.1446 9.01154C15.1446 9.01154 15.0869 9.99929 15.1199 11.5625H5V13.2313C5 13.6122 5.06431 22.5976 10.6099 27.5198C12.9234 29.5728 15.8091 30.6051 19.211 30.6067C19.7255 30.6067 20.2548 30.5721 20.7907 30.5259C22.7234 33.1726 24.9561 35.026 27.4675 35.9495V43.2792H20.0949V47.87H17.6593V50.4441H30.4225H30.5775H43.3407V47.8717H40.9035V43.2809H33.5308V35.9511C36.0406 35.0277 38.275 33.1742 40.2076 30.5276C40.7468 30.5737 41.2762 30.6067 41.7906 30.6067C45.1909 30.6034 48.0766 29.5728 50.3901 27.5182C55.9357 22.5959 56 13.6106 56 13.2297V11.5625H45.8801ZM12.836 25.0315C9.66829 22.2282 8.73167 17.4296 8.45464 14.9001H15.3111C15.6014 18.0513 16.284 21.9776 17.8588 25.4289C18.1474 26.0621 18.4508 26.6623 18.7608 27.2494C16.3978 27.1587 14.4091 26.4216 12.836 25.0315ZM48.164 25.0315C46.5925 26.4232 44.6022 27.1587 42.2408 27.2494C42.5508 26.664 42.8542 26.0621 43.1428 25.4289C44.7176 21.9776 45.4003 18.0513 45.6889 14.9001H52.5454C52.2683 17.428 51.3334 22.2266 48.164 25.0315Z" fill="#FF9900"/>
</svg>
