<svg width="291" height="196" viewBox="0 0 291 196" fill="none" xmlns="http://www.w3.org/2000/svg">
<g clip-path="url(#clip0_479_2453)">
<path d="M412.547 124.309C340.15 115.456 295.617 90.1281 267.686 67.1308C244.401 47.9572 242.103 38.1777 219.384 25.3054C170.084 -2.6266 88.2527 -9.07144 60.8695 33.6218C47.3805 54.6528 59.4986 73.477 61.4096 114.747C63.128 151.873 56.1999 205.423 14.8215 272.691" stroke="#861429" stroke-miterlimit="10"/>
<path d="M410.138 115.829C340.52 110.203 296.891 86.8404 269.459 65.6641C246.376 47.8396 242.587 39.2538 218.832 26.985C168.999 1.24763 92.0067 -5.33698 63.9812 35.1619C49.5447 56.0211 59.2183 75.1228 59.6333 116.671C59.9982 153.25 52.4438 206.085 11.8948 272.627" stroke="#861429" stroke-miterlimit="10"/>
<path d="M407.731 107.379C340.892 104.979 298.139 83.5807 271.23 64.2277C248.307 47.7406 243.102 40.3499 218.277 28.695C167.989 5.08605 95.6345 -1.6021 67.0881 36.7317C51.6673 57.4418 58.9613 76.7706 57.8534 118.625C56.8979 154.64 48.6836 206.773 8.95987 272.588" stroke="#861429" stroke-miterlimit="10"/>
<path d="M405.319 98.9099C341.26 99.735 299.345 80.3028 272.995 62.7651C250.205 47.6059 243.645 41.4094 217.713 30.3882C167.039 8.83766 99.1336 2.076 70.1882 38.2841C53.7414 58.8549 58.7243 78.3749 56.0654 120.562C53.8333 155.992 44.915 207.444 6.02565 272.532" stroke="#861429" stroke-miterlimit="10"/>
<path d="M402.908 90.4317C341.624 94.4862 300.512 77.0258 274.764 61.3056C252.069 47.4509 244.206 42.4432 217.162 32.0673C166.162 12.5085 102.531 5.6964 73.3005 39.8239C55.7875 60.27 58.5313 79.948 54.2897 122.486C50.8157 157.319 41.1578 208.103 3.09858 272.458" stroke="#861429" stroke-miterlimit="10"/>
<path d="M400.503 81.9729C342.002 89.2517 301.641 73.7788 276.537 59.8598C253.895 47.3055 244.81 43.4686 216.609 33.769C165.333 16.1303 105.82 9.28935 76.4112 41.3837C57.7906 61.706 58.3799 81.5231 52.5127 124.431C47.8372 158.658 37.4002 208.781 0.172258 272.418" stroke="#861429" stroke-miterlimit="10"/>
<path d="M398.091 73.5057C342.372 84.0158 302.714 70.549 278.303 58.4054C255.67 47.1457 245.423 44.4613 216.05 35.4606C164.538 19.6772 109.006 12.8192 79.5163 42.936C59.7469 63.1267 58.2472 83.083 50.7294 126.366C44.8905 159.983 33.6318 209.453 -2.76081 272.362" stroke="#861429" stroke-miterlimit="10"/>
<path d="M395.679 65.036C342.738 78.7681 303.735 67.346 280.07 56.9498C257.395 46.9879 246.048 45.4241 215.492 37.1511C163.777 23.1569 112.1 16.2925 82.6211 44.4872C61.6603 64.5336 58.1608 84.6318 48.9462 128.301C41.9875 161.301 29.8764 210.116 -5.69026 272.305" stroke="#861429" stroke-miterlimit="10"/>
<path d="M393.271 56.5519C343.11 73.5095 304.705 64.1698 281.84 55.4775C259.068 46.8247 246.698 46.3304 214.937 38.8274C163.04 26.56 115.116 19.6915 85.7295 46.0215C63.5332 65.9052 58.1205 86.1663 47.1669 130.221C39.1136 162.609 26.1131 210.775 -8.63105 272.236" stroke="#861429" stroke-miterlimit="10"/>
<path d="M390.867 48.0991C343.484 68.2824 305.626 61.0769 283.614 54.0375C260.701 46.7106 247.362 47.2489 214.386 40.5334C162.333 29.9345 118.072 23.062 88.8421 47.5883C65.3755 67.2783 58.1254 87.7361 45.3914 132.172C36.2836 163.951 22.3558 211.46 -11.5504 272.194" stroke="#861429" stroke-miterlimit="10"/>
<path d="M388.455 39.6243C343.846 63.0358 306.488 58.025 285.38 52.5771C262.269 46.6112 248.023 48.1063 213.827 42.2202C161.626 33.2345 120.956 26.3517 91.9472 49.1331C67.1668 68.5942 58.1674 89.2948 43.6088 134.102C33.4797 165.278 18.5926 212.124 -14.4845 272.131" stroke="#861429" stroke-miterlimit="10"/>
<path d="M386.043 31.1466C344.22 57.7832 307.304 55.0418 287.146 51.1123C263.79 46.5583 248.682 48.9244 213.268 43.9014C160.923 36.4798 123.788 29.5794 95.0517 50.675C68.917 69.86 58.2501 90.8634 41.8249 136.027C30.7028 166.612 14.8287 212.785 -17.4176 272.066" stroke="#861429" stroke-miterlimit="10"/>
<path d="M383.635 22.685C344.592 52.5482 308.09 52.1556 288.916 49.6636C265.275 46.5914 249.357 49.7226 212.713 45.6002C160.225 39.6956 126.582 32.7647 98.1592 52.2345C70.6366 71.0881 58.3785 92.4673 40.0456 137.97C27.9573 167.974 11.0687 213.462 -20.3478 272.018" stroke="#861429" stroke-miterlimit="10"/>
<path d="M381.228 14.212C344.963 47.301 308.853 49.3416 290.687 48.2035C266.734 46.7026 250.027 50.4734 212.162 47.2866C159.527 42.8571 129.349 35.8858 101.271 53.7793C72.3137 72.2406 58.552 94.0821 38.2696 139.9C25.2358 169.339 7.31067 214.13 -23.2768 271.954" stroke="#861429" stroke-miterlimit="10"/>
<path d="M378.818 5.75208C345.333 42.0677 309.607 46.6272 292.46 46.7552C268.187 46.9376 250.694 51.2018 211.606 48.9853C158.818 45.9925 132.087 38.9523 104.38 55.3384C73.9565 73.3314 58.7602 95.7366 36.4918 141.847C22.5389 170.735 3.55268 214.808 -26.2024 271.913" stroke="#861429" stroke-miterlimit="10"/>
<path d="M376.407 -2.71279C345.696 36.8311 310.369 43.9923 294.223 45.3056C269.646 47.3045 251.345 51.8938 211.045 50.683C158.094 49.0861 134.803 41.9676 107.481 56.8944C75.5591 74.3368 58.9975 97.4146 34.7038 143.783C19.8462 172.141 -0.215638 215.479 -29.1401 271.858" stroke="#861429" stroke-miterlimit="10"/>
<path d="M373.992 -11.1922C346.067 31.5756 309.853 37.2001 295.986 43.838C273.305 54.6964 251.988 52.5347 210.482 52.3628C157.357 52.14 137.52 44.9105 110.589 58.4331C77.1371 75.2259 59.2769 99.1165 32.9238 145.706C17.1765 173.547 -3.97623 216.136 -32.0723 271.785" stroke="#861429" stroke-miterlimit="10"/>
<path d="M371.59 -19.6521C346.443 26.3414 310.727 35.4987 297.762 42.3909C275.039 54.4703 252.634 53.1633 209.934 54.0618C156.606 55.18 140.245 47.8198 113.698 59.9944C78.6931 76.039 59.5865 100.871 31.1451 147.654C14.5188 175 -7.73528 216.819 -34.9995 271.746" stroke="#861429" stroke-miterlimit="10"/>
<path d="M369.18 -28.1291C346.814 21.0923 311.797 33.8717 299.531 40.928C276.633 54.0986 253.262 53.7436 209.375 55.7405C155.838 58.1824 142.98 50.6666 116.803 61.5311C80.2249 76.713 59.9206 102.64 29.3619 149.573C11.8667 176.442 -11.4997 217.475 -37.9336 271.674" stroke="#861429" stroke-miterlimit="10"/>
<path d="M366.77 -36.5878C347.184 15.859 313.966 34.0083 301.298 39.4825C276.344 50.2566 253.876 54.3134 208.818 57.4433C155.05 61.1836 145.738 53.4879 119.91 63.0946C81.7485 77.2927 60.2842 104.479 27.5802 151.525C9.22153 177.937 -15.2626 218.158 -40.8638 271.634" stroke="#861429" stroke-miterlimit="10"/>
<path d="M364.36 -45.0683C347.552 10.6039 315.07 31.5553 303.067 38.0133C278.387 51.2901 254.477 54.8315 208.262 59.1225C154.245 64.1419 148.528 56.2394 123.017 64.6334C83.2639 77.7122 60.6628 106.319 25.7993 153.444C6.58158 179.421 -19.0238 218.811 -43.7969 271.562" stroke="#861429" stroke-miterlimit="10"/>
<path d="M361.951 -53.5247C347.922 5.3745 316.288 29.0953 304.836 36.571C280.605 52.3934 255.064 55.3488 207.707 60.8289C153.419 67.1115 151.357 58.9784 126.124 66.1993C84.7887 78.0327 61.0651 108.232 24.0185 155.394C3.9437 180.948 -22.7835 219.497 -46.7271 271.522" stroke="#861429" stroke-miterlimit="10"/>
</g>
<defs>
<clipPath id="clip0_479_2453">
<rect width="291" height="196" fill="white" transform="matrix(1 -8.74228e-08 -8.74228e-08 -1 0 196)"/>
</clipPath>
</defs>
</svg>
