<svg width="50" height="50" viewBox="0 0 50 50" fill="none" xmlns="http://www.w3.org/2000/svg">
<path fill-rule="evenodd" clip-rule="evenodd" d="M41.2887 8.71131C42.2371 9.65973 42.2371 11.1974 41.2887 12.1458L12.1458 41.2887C11.1974 42.2371 9.65973 42.2371 8.71131 41.2887C7.7629 40.3403 7.7629 38.8026 8.71131 37.8542L37.8542 8.71131C38.8026 7.7629 40.3403 7.7629 41.2887 8.71131Z" fill="currentColor"/>
<path fill-rule="evenodd" clip-rule="evenodd" d="M8.71131 8.71131C9.65973 7.7629 11.1974 7.7629 12.1458 8.71131L41.2887 37.8542C42.2371 38.8026 42.2371 40.3403 41.2887 41.2887C40.3403 42.2371 38.8026 42.2371 37.8542 41.2887L8.71131 12.1458C7.7629 11.1974 7.7629 9.65973 8.71131 8.71131Z" fill="currentColor"/>
</svg>
