<svg width="887" height="678" viewBox="0 0 887 678" fill="none" xmlns="http://www.w3.org/2000/svg">
<path d="M174.878 676.532C288.141 508.081 292.815 391.739 275.015 315.806C255.148 231.062 198.383 158.68 219.077 140.2C232.326 128.366 267.859 147.116 339.676 191.725C557.457 326.995 589.84 377.614 642.268 365.331C715.719 348.138 702.898 236.888 800.125 183.302C871.537 143.948 957.266 160.508 1021.19 182.318M166.603 670.952C276.38 506.732 285.525 390.987 271.618 318.22C256.074 236.901 201.777 168.527 223.011 151.549C236.661 140.632 271.554 159.079 340.918 202.155C551.7 333.034 585.231 383.853 636.93 371.103C710.191 352.742 691.973 236.025 788.362 178.633C790.464 177.382 792.549 176.178 794.669 175.029C864.697 137.149 951.254 153.263 1015.85 174.326M158.339 665.365C264.624 505.389 278.277 390.409 268.232 320.633C257.035 242.858 205.193 178.373 226.957 162.896C241.014 152.895 275.272 171.041 342.171 212.587C545.927 339.078 580.685 390.279 631.609 376.865C704.755 357.598 681.058 235.095 776.615 173.953C778.711 172.611 780.8 171.272 782.953 170.045C853.236 129.975 943.396 145.373 1010.52 166.325M150.066 659.783C252.868 504.018 271.046 390.05 264.841 323.049C257.978 248.963 208.615 188.224 230.896 174.25C245.371 165.17 278.966 183.014 343.417 223.021C540.171 345.139 576.107 396.597 626.282 382.63C699.27 362.312 670.124 234.122 764.862 169.276C766.964 167.836 769.068 166.404 771.218 165.069C841.101 121.684 935.519 137.492 1005.16 158.33M141.795 654.2C241.116 502.673 263.815 389.932 261.448 325.466C258.871 255.232 212.054 198.078 234.839 185.602C249.736 177.443 282.672 194.983 344.668 233.455C534.411 351.189 571.529 402.906 620.955 388.392C693.799 367.003 659.179 233.102 753.105 164.589C755.216 163.056 757.33 161.521 759.502 160.072C829.324 113.974 927.657 129.595 999.835 150.325M133.524 648.617C229.366 501.325 256.56 390.089 258.064 327.882C259.662 261.685 215.498 207.94 238.785 196.949C254.114 189.717 286.379 206.949 345.921 243.887C528.658 357.235 566.954 409.2 615.634 394.154C688.321 371.685 648.218 232.04 741.361 159.916C743.477 158.276 745.591 156.632 747.789 155.093C817.559 106.3 919.809 121.706 994.505 142.331M125.256 643.032C217.609 499.97 249.239 390.542 254.67 330.3C260.256 268.322 218.962 217.805 242.724 208.304C258.49 201.999 290.084 218.928 347.164 254.323C522.892 363.285 562.371 415.49 610.303 399.919C682.844 376.354 637.232 230.95 729.605 155.241C731.735 153.496 733.846 151.75 736.06 150.117C805.781 98.6472 911.94 113.829 989.157 134.338M116.985 637.449C205.853 498.618 230.84 388.434 251.28 332.716C249.486 274.418 222.43 227.683 246.665 219.654C262.875 214.286 293.785 230.888 348.422 264.769C517.139 369.347 557.794 421.78 604.984 405.696C677.368 381.023 626.236 229.837 717.857 150.576C719.988 148.734 722.114 146.879 724.347 145.144C794.036 91.0153 904.094 105.939 983.833 126.348M108.714 631.866C194.1 497.265 221.987 387.957 247.889 335.132C248.679 280.612 225.905 237.573 250.608 231.007C267.266 226.578 297.484 242.851 349.663 275.192C511.36 375.392 553.204 428.036 599.654 411.448C671.877 385.653 615.206 228.672 706.098 145.887C708.233 143.942 710.365 141.983 712.619 140.148C782.286 83.3777 896.215 98.0457 978.488 118.338M100.443 626.283C182.344 495.913 213.134 387.487 244.497 337.549C247.867 286.804 229.386 247.473 254.549 242.357C271.658 238.876 301.19 254.82 350.91 285.625C505.615 381.443 548.616 434.291 594.325 417.208C666.389 390.278 604.159 227.494 694.343 141.205C696.483 139.16 698.624 137.098 700.896 135.162C770.547 75.7613 888.349 90.1542 973.148 110.337M92.1727 620.699C170.592 494.558 204.281 387.013 241.107 339.968C247.059 293.001 232.871 257.388 258.488 253.711C276.052 251.188 304.896 266.793 352.156 296.053C499.846 387.48 544.023 440.534 588.996 422.968C660.891 394.887 593.09 226.291 682.588 136.523C684.731 134.372 686.883 132.213 689.168 130.175C758.819 68.1546 880.483 82.2634 967.805 102.335M83.9005 615.114C158.833 493.211 195.434 386.536 237.724 342.392C246.26 299.203 236.364 267.319 262.434 265.074C280.453 263.519 308.604 278.77 353.412 306.506C494.093 393.548 539.435 446.789 583.681 428.746C655.406 399.501 582.019 225.097 670.845 131.862C672.995 129.607 675.145 127.352 677.461 125.218C747.117 60.5858 872.632 74.3976 962.481 94.3602M75.6293 609.531C147.079 491.858 186.572 386.067 234.326 344.8C245.444 305.388 239.84 277.249 266.373 276.413C284.845 275.833 312.305 290.73 354.657 316.93C488.339 399.582 534.835 453.007 578.347 434.502C649.892 404.075 570.9 223.854 659.088 127.175C661.237 124.817 663.409 122.458 665.737 120.213C735.415 52.9892 864.762 66.4809 957.141 86.3438M67.3658 603.944C135.324 490.506 177.72 385.596 230.939 347.22C244.637 311.588 243.32 287.195 270.316 287.765C289.241 288.166 316.01 302.697 355.907 327.361C482.572 405.636 530.238 459.233 573.022 440.267C644.384 408.643 559.767 222.6 647.334 122.499C649.488 120.034 651.67 117.575 654.009 115.233C723.709 45.4108 856.897 58.6049 951.81 78.3413M59.0898 598.364C123.568 489.154 168.868 385.122 227.548 349.634C243.827 317.779 246.797 297.148 274.261 299.123C293.634 300.51 319.717 314.669 357.148 337.807C476.805 411.696 525.621 465.448 567.688 446.04C638.857 413.206 548.622 221.373 635.574 117.829C637.731 115.262 639.926 112.705 642.278 110.261C712.017 37.849 849.027 50.7284 946.453 70.3602M50.8186 592.781C111.812 487.802 160.013 384.649 224.155 352.051C243.019 323.973 250.266 307.11 278.2 310.468C298.018 312.85 323.417 326.635 358.406 348.231C471.05 417.734 521.016 471.641 562.371 451.793C633.337 417.733 537.461 220.094 623.835 113.153C625.995 110.481 628.202 107.826 630.582 105.275C700.347 30.2748 841.169 42.8291 941.115 62.3425M42.5477 587.198C100.06 486.451 151.164 384.185 220.765 354.466C242.194 330.167 253.732 317.081 282.143 321.82C302.4 325.202 327.122 338.601 359.649 358.657C465.284 423.775 516.395 477.827 557.039 457.546C627.793 422.243 526.272 218.817 612.071 108.455C614.232 105.675 616.453 102.924 618.837 100.276C688.679 22.7149 833.314 34.9381 935.783 54.3536M34.2712 581.605C88.299 485.089 142.301 383.696 217.368 356.877C241.394 336.353 257.184 327.044 286.074 333.163C306.764 337.534 330.819 350.56 360.894 369.091C459.519 429.821 511.771 484.015 551.711 463.312C622.251 426.759 515.078 217.551 600.327 103.791C602.486 100.906 604.723 98.0579 607.121 95.3083C677.023 15.1606 825.445 27.0578 930.451 46.3673M26.0027 576.024C76.5529 483.756 149.618 413.3 213.985 359.301C238.071 339.094 260.644 337.031 290.024 344.524C311.147 349.901 334.531 362.538 362.151 379.533C453.768 435.885 507.15 490.204 546.391 469.085C616.691 431.25 503.861 216.271 588.57 99.107C590.73 96.1209 592.987 93.1703 595.395 90.3202C665.368 7.60285 817.572 19.1707 925.107 38.3564M17.733 570.443C64.7961 482.386 126.802 390.32 210.592 361.712C240.819 351.394 264.086 347.006 293.964 355.872C315.515 362.256 338.231 374.502 363.397 389.964C448.008 441.929 502.512 496.372 541.062 474.843C611.114 435.722 492.627 214.985 576.812 94.4263C578.976 91.3316 581.251 88.2923 583.672 85.3343C653.891 0.190111 809.715 11.2777 919.776 30.3543M9.46314 564.863C53.0369 481.039 116.605 386.179 207.203 364.13C239.34 356.312 267.528 356.99 297.906 367.224C319.881 374.619 341.938 386.473 364.645 400.399C442.248 447.982 497.969 502.705 535.737 480.61C605.355 439.882 481.204 213.585 565.062 89.7511C567.218 86.5476 569.514 83.4154 571.949 80.3542C642.175 -7.43014 801.851 3.38848 914.429 22.3578M1.19336 559.282C41.2838 479.692 106.894 381.819 203.813 366.552C349.924 343.545 467.85 523.945 530.414 486.374C601.734 443.545 463.247 200.236 560.229 75.3728C630.458 -15.0467 793.997 -4.50381 909.093 14.3643" stroke="#861429" stroke-width="2" stroke-miterlimit="10"/>
</svg>
