<svg width="297" height="382" viewBox="0 0 297 382" fill="none" xmlns="http://www.w3.org/2000/svg">
<path d="M305.974 25.996C269.884 -4.13318 205.245 22.94 172.183 60.4419C134.086 103.663 147.132 150.296 109.394 173.503C74.9647 194.692 46.4931 166.662 22.5649 183.77C0.575139 199.494 -11.7991 249.201 21.4971 390.562M27.3132 392.02C-5.39302 252.582 6.36953 202.161 27.8949 185.355C43.867 172.919 62.1679 181.575 83.0181 181.094C93.5844 181.031 103.97 178.063 113.244 172.458C143.638 154.117 142.329 121.677 160.854 86.6279C165.556 77.6728 171.193 69.361 177.649 61.8637C210.34 23.6482 271.806 -5.83799 307.431 22.2534M33.124 393.46C1.01328 255.95 12.1532 204.841 33.1815 187C48.6401 173.888 66.6297 181.509 86.9828 180.429C97.4874 180.016 107.767 176.953 117.039 171.473C147.209 153.634 147.413 122.881 166.332 88.0737C171.126 79.2132 176.736 70.9263 183.072 63.3457C215.501 24.5255 273.679 -7.48859 308.84 18.5651M38.9183 394.894C7.40849 259.344 17.9476 207.532 38.4843 188.616C53.4514 174.826 71.0967 181.425 90.9747 179.735C101.403 178.981 111.574 175.83 120.84 170.482C150.808 153.12 152.47 124.103 171.815 89.5137C176.689 80.7287 182.274 72.452 188.501 64.7857C220.601 25.3003 275.552 -9.1752 310.248 14.8407M44.7399 396.358C13.8092 262.719 23.7366 210.242 43.798 190.231C58.2626 175.788 75.5911 181.335 94.972 179.022C105.33 177.926 115.408 174.678 124.679 169.448C154.445 152.565 157.587 125.271 177.363 90.8811C182.32 82.2028 187.873 73.9599 193.973 66.2257C225.751 26.0691 277.479 -10.8618 311.717 11.1103M50.5288 397.834C20.2044 266.1 29.0122 212.347 49.1063 191.84C63.4344 177.185 80.0473 181.202 98.964 178.327C109.241 176.883 119.226 173.539 128.502 168.433C158.066 152.027 162.677 126.469 182.852 92.327C187.881 83.7339 193.405 75.5084 199.39 67.7018C230.824 26.8498 279.347 -12.5183 313.125 7.42207M56.3668 399.256C26.6107 269.48 35.3529 215.704 54.3819 193.425C67.8907 177.766 84.5472 181.094 102.967 177.632C113.155 175.845 123.049 172.406 132.33 167.424C161.692 151.495 167.783 127.649 188.362 93.7487C193.471 85.2476 198.971 77.0425 204.84 69.1658C235.953 27.6426 281.23 -14.2051 314.561 3.71569M62.1775 400.708C32.995 272.874 41.1255 218.407 59.723 195.07C72.6964 178.747 89.0088 180.92 106.959 176.925C117.048 174.796 126.853 171.257 136.136 166.391C165.296 150.952 172.879 128.829 193.85 95.1463C198.737 87.3168 204.072 79.0882 210.263 70.5997C241.042 28.3811 283.131 -15.8736 315.986 -0.00265304M67.9881 402.16C39.412 276.242 46.9581 221.178 65.0148 196.673C77.5077 179.733 93.4813 180.745 110.956 176.2C120.946 173.727 130.671 170.09 139.969 165.351C168.927 150.39 177.974 129.984 199.372 96.5439C204.351 88.7567 209.68 80.5583 215.725 72.0275C246.127 29.1739 285.025 -17.5482 317.411 -3.72109M73.7989 403.6C45.8129 279.617 52.78 223.936 70.3396 198.301C82.3518 180.755 97.9922 180.552 114.943 175.524C124.822 172.712 134.469 168.981 143.781 164.372C172.543 149.883 183.069 131.2 204.849 97.9656C209.894 90.2509 215.229 82.0465 221.131 73.4794C251.211 29.87 286.887 -19.2592 318.814 -7.46375M79.6096 405.052C52.2081 282.998 58.6127 226.706 75.6315 199.928C87.1685 181.784 102.443 180.377 118.935 174.841C128.694 171.683 138.266 167.852 147.593 163.369C176.147 149.363 188.148 132.398 210.371 99.4237C215.519 91.7635 220.832 83.5712 226.592 74.9798C256.312 30.6569 288.793 -20.8853 320.266 -11.1397M85.4203 406.504C58.6142 286.379 64.4562 229.464 80.9507 201.525C92.0235 182.782 106.926 180.154 122.937 174.134C132.139 170.671 141.515 167.075 151.426 162.342C179.773 148.808 193.26 133.572 215.886 100.827C221.123 93.2276 226.419 85.0413 232.054 76.4077C261.412 31.3711 290.704 -22.5901 321.713 -14.8702M91.2312 407.956C65.037 289.778 70.2727 232.276 86.2592 203.146C96.8622 183.799 111.399 179.919 126.935 173.433C136.104 169.607 145.409 165.896 155.249 161.326C183.41 148.288 198.35 134.758 221.391 102.243C226.72 94.7095 232.006 86.5233 237.482 77.8714C266.464 32.1153 292.583 -24.2589 323.132 -18.5708M97.0308 409.42C71.4157 293.141 76.1545 235.028 91.5674 204.768C101.717 184.834 115.866 179.678 130.938 172.739C140.068 168.532 149.302 164.718 159.055 160.341C187.003 147.756 203.428 135.98 226.907 103.671C232.324 96.1858 237.587 88.0117 242.932 79.3356C271.532 32.8418 294.472 -25.9395 324.563 -22.283M102.853 410.848C77.8166 296.516 82.0092 237.835 96.8759 206.377C106.572 185.844 120.322 179.412 134.924 172.038C144.011 167.444 153.196 163.527 162.894 159.296C190.629 147.2 208.54 137.129 232.407 105.08C238.094 97.2792 243.418 89.161 248.355 80.7572C276.589 33.5679 296.389 -27.6264 325.988 -26.0016M108.663 412.3C84.2228 299.897 87.891 240.575 102.162 208.01C111.411 186.885 124.757 179.159 138.927 171.331C147.964 166.344 157.089 162.336 166.717 158.28C194.255 146.657 213.641 138.315 237.901 106.508C243.665 98.8048 248.976 90.6985 253.8 82.2394C281.613 34.258 298.262 -29.2888 327.402 -29.7441M114.474 413.752C90.618 303.278 93.811 243.357 107.487 209.601C116.288 187.907 129.213 178.857 142.913 170.63C151.896 165.244 160.977 161.164 170.534 157.271C197.865 146.131 218.731 139.501 243.416 107.912C249.251 100.299 254.545 92.197 259.25 83.6794C286.67 34.9965 300.156 -30.9634 328.854 -33.4323M120.29 415.198C97.0461 306.683 99.6712 246.169 112.795 211.222C121.165 188.918 133.642 178.562 146.906 169.935C155.845 164.114 164.866 159.979 174.357 156.256C201.475 145.582 223.826 140.693 248.927 109.333C254.827 101.807 260.104 93.7094 264.695 85.1372C291.705 35.7106 302.046 -32.6442 330.284 -37.1448M126.101 416.65C103.398 310.064 105.575 248.958 118.125 212.856C126.063 189.964 138.081 178.29 150.936 169.271C159.809 163.074 168.803 158.825 178.212 155.277C205.139 145.092 228.96 141.915 254.453 110.773C260.419 103.335 265.681 95.2394 270.157 86.6135C296.751 36.437 304.001 -34.3126 331.736 -40.8328M131.912 418.102C109.826 313.421 111.484 251.74 123.412 214.453C130.923 190.957 142.467 177.958 154.9 168.534C163.675 161.89 172.658 157.616 182.013 154.237C208.732 144.537 234.028 143.077 259.947 112.177C265.981 104.829 271.228 96.7344 275.585 88.0534C301.743 37.115 305.83 -35.9994 333.145 -44.5694M137.722 419.542C116.226 316.795 117.421 254.552 128.698 216.086C135.789 192.003 146.841 177.675 158.87 167.863C167.553 160.778 176.525 156.456 185.792 153.234C212.32 144.011 239.096 144.275 265.42 113.604C271.517 106.34 276.752 98.2436 280.997 89.5112C306.647 37.7927 307.703 -37.65 334.559 -48.276M143.527 421C109.59 257.381 132.551 193.715 162.889 167.138C196.007 138.126 234.859 156.077 270.952 115.002C313.285 66.8115 305.141 -37.2086 336 -52" stroke="#861429" stroke-width="2" stroke-miterlimit="10"/>
</svg>
