<svg width="160" height="20" viewBox="0 0 160 20" fill="none" xmlns="http://www.w3.org/2000/svg">
<path d="M50.3375 15.5663L46.8089 10.4407L43.3905 15.5663H39.917L44.9343 8.28685L40.1651 1.19824H43.804L46.9743 6.26932L50.0618 1.19824H53.6456L48.8488 8.34138L53.9488 15.5663H50.3375Z" fill="currentColor"/>
<path d="M22.8409 9.43121C22.8777 9.95831 22.988 10.4491 23.1717 10.9035C23.3555 11.3579 23.6036 11.7577 23.9161 12.1031C24.2285 12.4302 24.6144 12.6938 25.0739 12.8937C25.5517 13.0937 26.1031 13.1936 26.7279 13.1936C27.3896 13.1936 27.996 13.0755 28.5474 12.8392C29.1171 12.6029 29.5306 12.194 29.7879 11.6123H33.0133C32.8295 12.3394 32.5263 12.9664 32.1036 13.4935C31.6993 14.0206 31.2123 14.4569 30.6425 14.8022C30.0912 15.1294 29.4755 15.3747 28.7955 15.5383C28.1339 15.6837 27.4263 15.7564 26.6728 15.7564C25.515 15.7564 24.495 15.5838 23.6128 15.2384C22.749 14.8931 22.0231 14.3932 21.435 13.7389C20.8469 13.0846 20.4058 12.3121 20.1118 11.4215C19.8361 10.5127 19.6982 9.49483 19.6982 8.36792C19.6982 7.27737 19.8545 6.28678 20.1669 5.39616C20.4793 4.48736 20.9296 3.7058 21.5177 3.05147C22.1242 2.39713 22.8501 1.88821 23.6955 1.52469C24.5409 1.143 25.5058 0.952148 26.5901 0.952148C27.7296 0.952148 28.7128 1.143 29.5398 1.52469C30.3668 1.88821 31.056 2.38805 31.6074 3.0242C32.1771 3.66036 32.5998 4.40557 32.8755 5.25984C33.1512 6.11411 33.289 7.04108 33.289 8.04075C33.289 8.51333 33.2614 8.97682 33.2063 9.43121H22.8409ZM30.229 7.08652C30.1739 5.95961 29.8155 5.10534 29.1539 4.52371C28.5106 3.94209 27.6652 3.65127 26.6177 3.65127C26.0296 3.65127 25.515 3.74215 25.0739 3.92391C24.6328 4.10567 24.2561 4.35104 23.9436 4.66004C23.6496 4.96903 23.4107 5.33254 23.2269 5.75059C23.0431 6.16864 22.9236 6.61395 22.8685 7.08652H30.229Z" fill="currentColor"/>
<path d="M12.9291 1.19824V3.89736H8.02213V15.5663H4.90701V3.89736H0V1.19824H12.9291Z" fill="currentColor"/>
<path d="M148.14 8.72307C148.232 7.48711 148.287 6.26023 148.305 5.04245C148.342 3.80649 148.379 2.52508 148.416 1.19824H159.277V15.5663H156.107V3.89736H151.338C151.301 4.78798 151.264 5.67861 151.227 6.56923C151.209 7.44167 151.172 8.31411 151.117 9.18656C151.099 9.51372 151.062 9.90451 151.007 10.3589C150.97 10.7951 150.915 11.2404 150.841 11.6948C150.768 12.1311 150.658 12.5491 150.511 12.949C150.364 13.3307 150.18 13.6851 149.959 14.0123C149.573 14.5575 149.059 14.9574 148.416 15.2119C147.791 15.4482 147.065 15.5663 146.238 15.5663H145.466V12.8944C146.017 12.8944 146.458 12.7672 146.789 12.5127C147.138 12.2401 147.396 11.9039 147.561 11.504C147.745 11.0859 147.873 10.6406 147.947 10.1681C148.039 9.67731 148.103 9.19564 148.14 8.72307Z" fill="currentColor"/>
<path d="M128.118 9.43121C128.155 9.95831 128.265 10.4491 128.449 10.9035C128.633 11.3579 128.881 11.7577 129.193 12.1031C129.506 12.4302 129.892 12.6938 130.351 12.8937C130.829 13.0937 131.38 13.1936 132.005 13.1936C132.667 13.1936 133.273 13.0755 133.825 12.8392C134.394 12.6029 134.808 12.194 135.065 11.6123H138.291C138.107 12.3394 137.804 12.9664 137.381 13.4935C136.977 14.0206 136.49 14.4569 135.92 14.8022C135.369 15.1294 134.753 15.3747 134.073 15.5383C133.411 15.6837 132.704 15.7564 131.95 15.7564C130.792 15.7564 129.772 15.5838 128.89 15.2384C128.026 14.8931 127.3 14.3932 126.712 13.7389C126.124 13.0846 125.683 12.3121 125.389 11.4215C125.113 10.5127 124.976 9.49483 124.976 8.36792C124.976 7.27737 125.132 6.28678 125.444 5.39616C125.757 4.48736 126.207 3.7058 126.795 3.05147C127.402 2.39713 128.127 1.88821 128.973 1.52469C129.818 1.143 130.783 0.952148 131.867 0.952148C133.007 0.952148 133.99 1.143 134.817 1.52469C135.644 1.88821 136.333 2.38805 136.885 3.0242C137.454 3.66036 137.877 4.40557 138.153 5.25984C138.429 6.11411 138.566 7.04108 138.566 8.04075C138.566 8.51333 138.539 8.97682 138.484 9.43121H128.118ZM135.506 7.08652C135.451 5.95961 135.093 5.10534 134.431 4.52371C133.788 3.94209 132.943 3.65127 131.895 3.65127C131.307 3.65127 130.792 3.74215 130.351 3.92391C129.91 4.10567 129.533 4.35104 129.221 4.66004C128.927 4.96903 128.688 5.33254 128.504 5.75059C128.32 6.16864 128.201 6.61395 128.146 7.08652H135.506Z" fill="currentColor"/>
<path d="M104.597 6.32385C104.652 5.45141 104.689 4.60623 104.707 3.78831C104.726 2.95222 104.735 2.08886 104.735 1.19824H115.927V12.9217H117.829V19.7649H114.769V15.5663H104.845V19.7649H101.785V12.9217C102.318 12.9217 102.759 12.7581 103.108 12.431C103.476 12.0856 103.724 11.7039 103.853 11.2859C103.981 10.9951 104.092 10.6043 104.184 10.1135C104.275 9.6046 104.349 9.10476 104.404 8.61401C104.459 8.12326 104.505 7.66887 104.542 7.25082C104.579 6.83278 104.597 6.52378 104.597 6.32385ZM112.785 3.89736H107.602C107.565 4.5517 107.538 5.26056 107.519 6.02395C107.501 6.78733 107.473 7.52346 107.436 8.23232C107.4 8.57766 107.363 8.95027 107.326 9.35014C107.308 9.75001 107.262 10.159 107.188 10.577C107.115 10.9769 107.014 11.3768 106.885 11.7766C106.756 12.1765 106.582 12.5582 106.361 12.9217H112.785V3.89736Z" fill="currentColor"/>
<path d="M96.2436 1.19824V3.89736H91.3366V15.5663H88.2215V3.89736H83.3145V1.19824H96.2436Z" fill="currentColor"/>
<path fill-rule="evenodd" clip-rule="evenodd" d="M63.6397 8.29506L66.224 12.7196L71.3926 12.7196L73.9769 8.29506L71.3926 3.87049L66.224 3.87049L63.6397 8.29506ZM60.7309 7.58362C60.4738 8.02386 60.4738 8.56627 60.7309 9.00651L64.1463 14.854C64.4035 15.2942 64.8787 15.5654 65.3929 15.5654L72.2237 15.5654C72.738 15.5654 73.2132 15.2942 73.4703 14.854L76.8857 9.00651C77.1428 8.56627 77.1428 8.02386 76.8857 7.58361L73.4703 1.73615C73.2132 1.2959 72.738 1.0247 72.2237 1.0247L65.3929 1.0247C64.8787 1.0247 64.4035 1.2959 64.1463 1.73615L60.7309 7.58362Z" fill="#DA1135"/>
</svg>
