<svg width="834" height="726" viewBox="0 0 834 726" fill="none" xmlns="http://www.w3.org/2000/svg">
<path d="M0.250488 330.48C161.034 350.146 259.932 406.428 321.962 457.532C373.672 500.139 378.776 521.872 429.229 550.476C538.717 612.544 720.452 626.858 781.271 531.978C811.231 485.24 784.32 443.408 780.08 351.693C776.267 269.189 791.659 150.183 883.562 0.688477M5.60063 349.301C160.213 361.796 257.104 413.711 318.025 460.768C369.288 500.377 377.703 519.457 430.458 546.719C541.128 603.911 712.117 618.536 774.362 528.533C806.426 482.176 784.944 439.727 784.026 347.393C783.22 266.104 800.002 148.689 890.063 0.80846M10.9502 368.119C159.39 373.447 254.338 420.997 314.096 464.002C365.004 500.639 376.563 517.063 431.695 542.961C543.375 595.422 704.065 610.278 767.467 525.086C801.716 479.061 785.519 436.107 787.984 343.093C790.11 263.058 808.358 147.2 896.586 0.936699M16.3002 386.941C158.567 385.1 251.653 428.281 310.171 467.252C360.782 500.938 375.351 514.708 432.942 539.198C545.48 587.084 696.288 602.104 760.576 521.636C797.104 475.92 786.039 432.541 791.949 338.789C796.909 260.053 816.721 145.71 903.096 1.05995M21.6506 405.759C157.757 396.742 249.058 435.54 306.239 470.473C356.641 501.26 374.103 512.388 434.164 535.443C547.427 578.904 688.742 594.036 753.662 518.191C792.558 472.752 786.467 429.022 795.891 334.491C803.61 257.08 825.064 144.222 909.595 1.20013M27.0001 424.577C156.923 408.396 246.559 442.777 302.31 473.707C352.594 501.604 372.769 510.13 435.4 531.683C549.276 570.876 681.445 586.073 746.761 514.747C788.117 469.582 786.811 425.543 799.845 330.189C810.232 254.126 833.417 142.734 916.101 1.31032M32.3496 443.396C156.096 420.034 244.169 449.957 298.381 476.941C348.646 501.961 371.402 507.926 436.634 527.925C551.036 562.996 674.365 578.231 739.86 511.299C783.767 466.427 787.1 422.078 803.8 325.89C816.771 251.182 841.78 141.243 922.61 1.43686M37.7099 462.214C155.286 431.692 241.906 457.072 294.462 480.173C344.818 502.309 370.018 505.783 437.879 524.165C552.73 555.259 667.497 570.509 732.969 507.849C779.522 463.297 787.296 418.633 807.765 321.586C823.222 248.248 850.124 139.766 929.12 1.56014M43.0491 481.035C154.452 443.346 239.744 464.097 290.523 483.412C341.096 502.639 368.567 503.736 439.105 520.407C554.358 547.663 660.791 562.923 726.058 504.406C775.355 460.216 787.378 415.19 811.709 317.287C829.597 245.31 858.475 138.268 935.643 1.67966M48.3964 499.846C153.629 454.988 237.707 470.997 286.592 486.639C337.478 502.919 367.102 501.721 440.337 516.642C555.938 540.191 654.236 555.459 719.154 500.951C771.272 457.192 787.376 411.727 815.661 312.977C835.891 242.353 866.828 136.772 942.136 1.79938M53.7498 518.675C152.822 466.643 235.791 477.775 282.668 489.88C333.993 503.135 365.632 499.811 441.576 512.889C557.507 532.852 647.829 548.144 712.256 497.514C767.292 454.263 787.281 408.259 819.618 308.683C842.117 239.399 875.184 135.291 948.65 1.93544M59.0992 537.493C151.985 478.295 233.971 484.383 278.739 493.114C330.609 503.232 364.161 497.972 442.81 509.131C559.061 525.619 641.534 540.95 705.355 494.066C763.399 451.429 787.091 404.752 823.573 304.384C848.277 236.414 883.536 133.801 955.157 2.05655M64.4494 556.315C151.162 489.945 232.227 490.814 274.811 496.35C327.313 503.175 362.664 496.215 444.047 505.373C560.616 518.489 635.33 533.889 698.456 490.618C759.582 448.717 786.808 401.205 827.528 300.082C854.377 233.403 891.889 132.313 961.667 2.17983M69.7988 575.133C150.341 501.596 230.536 497.057 270.881 499.585C324.078 502.918 361.183 494.536 445.276 501.614C562.169 511.453 629.191 526.942 691.55 487.174C755.862 446.145 786.427 397.605 831.477 295.782C860.426 230.358 900.24 130.817 968.177 2.31157M75.1482 593.951C149.517 513.244 228.861 503.108 266.942 502.822C320.85 502.414 359.7 492.936 446.507 497.857C563.743 504.503 623.109 520.146 684.644 483.728C752.212 443.739 785.964 393.947 835.424 291.474C866.414 227.273 908.585 129.329 974.672 2.42187M80.4983 612.772C148.707 524.891 227.164 508.973 263.023 506.053C317.605 501.608 358.25 491.408 447.751 494.094C565.348 497.638 617.073 513.455 677.753 480.28C748.65 441.515 785.433 390.227 839.391 287.18C872.391 224.158 916.95 127.846 981.193 2.55338M85.8611 631.587C147.884 536.542 228.31 524.039 259.108 509.286C309.482 485.153 356.824 489.955 449.002 490.333C566.987 490.823 611.041 506.887 670.852 476.833C745.147 439.511 784.814 386.417 843.346 282.878C878.321 221.004 925.303 126.358 987.706 2.68694M91.1982 650.409C147.05 548.195 226.373 527.842 255.166 512.524C305.633 485.677 355.391 488.58 450.223 486.579C568.659 484.088 604.992 500.443 663.951 473.385C741.694 437.726 784.13 382.54 847.299 278.571C884.227 217.799 933.655 124.862 994.21 2.79506M96.5483 669.231C146.226 559.844 223.994 531.44 251.237 515.758C302.092 486.487 353.995 487.273 451.463 482.831C570.361 477.399 598.917 494.1 657.054 469.953C738.291 436.211 783.387 378.591 851.259 274.288C890.116 214.575 942.014 123.387 1000.73 2.93667M101.898 688.049C145.403 571.494 219.176 531.158 247.31 518.991C302.731 495.045 352.632 486.028 452.699 479.068C572.111 470.75 592.791 487.852 650.154 466.5C734.906 434.944 782.578 374.526 855.215 269.972C895.99 211.274 950.37 121.89 1007.23 3.04681M107.247 706.868C144.58 583.145 216.72 536.582 243.379 522.229C298.192 492.721 351.293 484.849 453.929 475.308C573.896 464.148 586.592 481.709 643.25 463.053C731.537 433.984 781.734 370.408 859.166 265.679C901.848 207.949 958.719 120.408 1013.74 3.17851M112.597 725.688C143.759 594.795 214.016 542.077 239.45 525.463C293.267 490.298 349.989 483.728 455.165 471.545C575.732 457.577 580.31 475.651 636.35 459.602C728.151 433.3 780.841 366.185 863.122 261.374C907.708 204.584 967.069 118.913 1020.25 3.2964" stroke="currentColor" stroke-width="2" stroke-miterlimit="10"/>
</svg>
