<svg width="200" height="200" viewBox="0 0 200 200" fill="none" xmlns="http://www.w3.org/2000/svg">
<rect x="66" y="63" width="74" height="74" fill="white"/>
<path d="M79.1641 77.7087V122.292C79.1641 125.486 80.6224 127.917 83.5391 129.584C86.4557 131.25 89.303 131.111 92.0807 129.167L126.664 107.084C129.303 105.417 130.622 103.056 130.622 100C130.622 96.9448 129.303 94.5837 126.664 92.917L92.0807 70.8337C89.303 68.8892 86.4557 68.7503 83.5391 70.417C80.6224 72.0837 79.1641 74.5142 79.1641 77.7087ZM99.9974 183.334C88.4696 183.334 77.6363 181.145 67.4974 176.767C57.3585 172.395 48.5391 166.459 41.0391 158.959C33.5391 151.459 27.603 142.639 23.2307 132.5C18.853 122.361 16.6641 111.528 16.6641 100C16.6641 88.4726 18.853 77.6392 23.2307 67.5003C27.603 57.3614 33.5391 48.542 41.0391 41.042C48.5391 33.542 57.3585 27.6031 67.4974 23.2253C77.6363 18.8531 88.4696 16.667 99.9974 16.667C111.525 16.667 122.359 18.8531 132.497 23.2253C142.636 27.6031 151.456 33.542 158.956 41.042C166.456 48.542 172.392 57.3614 176.764 67.5003C181.142 77.6392 183.331 88.4726 183.331 100C183.331 111.528 181.142 122.361 176.764 132.5C172.392 142.639 166.456 151.459 158.956 158.959C151.456 166.459 142.636 172.395 132.497 176.767C122.359 181.145 111.525 183.334 99.9974 183.334Z" fill="#DA1135"/>
</svg>
