<svg width="143" height="35" viewBox="0 0 143 35" fill="none" xmlns="http://www.w3.org/2000/svg">
<path d="M122.763 3.63861H118.858C118.812 3.63861 118.775 3.67585 118.775 3.72178V25.0406C118.775 25.0865 118.812 25.1238 118.858 25.1238H122.763C122.809 25.1238 122.847 25.0865 122.847 25.0406V3.72178C122.847 3.67585 122.809 3.63861 122.763 3.63861Z" fill="currentColor"/>
<path d="M138.484 24.5139C135.79 25.9433 132.731 25.9225 130.117 24.3839C126.809 22.4347 125.277 18.1359 126.707 14.5493C128.583 9.84331 134.097 7.90619 138.494 10.3978C138.502 10.4024 138.511 10.4049 138.52 10.405C138.529 10.4051 138.537 10.4029 138.545 10.3985C138.553 10.394 138.559 10.3876 138.564 10.3799C138.568 10.3722 138.571 10.3634 138.571 10.3545V3.68193C138.571 3.65305 138.585 3.63861 138.614 3.63861H142.556C142.613 3.63861 142.642 3.66749 142.642 3.72524V25.0371C142.642 25.0949 142.613 25.1238 142.556 25.1238H138.655C138.598 25.1238 138.569 25.0943 138.569 25.0354L138.571 24.5658C138.571 24.5012 138.542 24.4838 138.484 24.5139ZM138.558 17.4359C138.558 16.3473 138.121 15.3032 137.341 14.5334C136.562 13.7636 135.505 13.3312 134.403 13.3312C133.302 13.3312 132.245 13.7636 131.465 14.5334C130.686 15.3032 130.249 16.3473 130.249 17.4359C130.249 18.5245 130.686 19.5686 131.465 20.3384C132.245 21.1081 133.302 21.5406 134.403 21.5406C135.505 21.5406 136.562 21.1081 137.341 20.3384C138.121 19.5686 138.558 18.5245 138.558 17.4359Z" fill="currentColor"/>
<path d="M4.20173 24.5208V31.1448C4.20173 31.2026 4.17285 31.2314 4.11509 31.2314H0.216578C0.158822 31.2314 0.129944 31.2026 0.129944 31.1448V9.7896C0.129944 9.77811 0.134508 9.76709 0.142631 9.75897C0.150755 9.75085 0.161772 9.74628 0.173261 9.74628H4.11509C4.174 9.74628 4.20346 9.77574 4.20346 9.83465L4.19826 10.2782C4.19711 10.366 4.2358 10.3891 4.31435 10.3475C8.60098 8.04653 13.9653 9.72029 15.9319 14.2148C16.7497 16.0838 16.8485 17.9609 16.2282 19.846C14.5891 24.8361 8.87994 27.0695 4.29009 24.4705C4.23118 24.437 4.20173 24.4538 4.20173 24.5208ZM12.5219 17.3979C12.5124 16.3093 12.0655 15.2691 11.2796 14.5062C10.4937 13.7432 9.43318 13.32 8.33126 13.3296C7.78564 13.3344 7.24629 13.4452 6.74401 13.6559C6.24173 13.8666 5.78634 14.1729 5.40386 14.5574C5.02138 14.9419 4.71929 15.3971 4.51483 15.8969C4.31038 16.3967 4.20757 16.9314 4.21228 17.4704C4.22178 18.559 4.66863 19.5992 5.45452 20.3621C6.24041 21.1251 7.30097 21.5483 8.40289 21.5387C8.9485 21.5339 9.48785 21.4231 9.99013 21.2124C10.4924 21.0017 10.9478 20.6954 11.3303 20.3109C11.7128 19.9264 12.0149 19.4712 12.2193 18.9714C12.4238 18.4716 12.5266 17.9369 12.5219 17.3979Z" fill="currentColor"/>
<path d="M23.9975 24.5537V31.1448C23.9975 31.2026 23.9686 31.2314 23.9109 31.2314H20.0557C19.9979 31.2314 19.9691 31.2026 19.9691 31.1448V9.78961C19.9691 9.76073 19.9835 9.74629 20.0124 9.74629H23.9126C23.9727 9.74629 24.0021 9.77633 24.001 9.83639L23.9889 10.3094C23.9886 10.321 23.9913 10.3324 23.9967 10.3427C24.0022 10.3529 24.0101 10.3616 24.0199 10.3678C24.0296 10.3741 24.0408 10.3777 24.0524 10.3784C24.0639 10.3791 24.0755 10.3768 24.0859 10.3718C24.6969 10.0611 25.1457 9.85776 25.4322 9.76189C31.8847 7.60124 38.046 13.4525 35.9963 19.9725C35.4384 21.7451 34.1198 23.3287 32.5344 24.3181C29.9648 25.9208 26.8391 25.9745 24.1171 24.4827C24.0374 24.4388 23.9975 24.4625 23.9975 24.5537ZM32.3247 17.4559C32.3275 16.9169 32.2229 16.3826 32.0168 15.8835C31.8107 15.3844 31.5071 14.9303 31.1235 14.5471C30.7398 14.1639 30.2835 13.8592 29.7807 13.6503C29.2779 13.4414 28.7384 13.3324 28.193 13.3295C27.6476 13.3267 27.107 13.43 26.602 13.6336C26.0971 13.8373 25.6376 14.1372 25.25 14.5164C24.8623 14.8955 24.5541 15.3464 24.3427 15.8433C24.1314 16.3402 24.0212 16.8734 24.0184 17.4124C24.0155 17.9514 24.1202 18.4858 24.3263 18.9849C24.5324 19.4839 24.8359 19.938 25.2196 20.3212C25.6033 20.7044 26.0595 21.0091 26.5623 21.218C27.0651 21.427 27.6046 21.536 28.15 21.5388C28.6954 21.5417 29.2361 21.4383 29.741 21.2347C30.246 21.031 30.7054 20.7311 31.0931 20.352C31.4807 19.9728 31.789 19.5219 32.0003 19.025C32.2117 18.5281 32.3219 17.9949 32.3247 17.4559Z" fill="currentColor"/>
<path d="M103.794 17.4629C103.786 19.619 102.913 21.6838 101.365 23.203C99.8179 24.7222 97.7233 25.5714 95.5424 25.5638C93.3615 25.5562 91.2729 24.6924 89.736 23.1624C88.1992 21.6324 87.3401 19.5616 87.3476 17.4054C87.3551 15.2493 88.2287 13.1845 89.7762 11.6653C91.3237 10.1461 93.4182 9.2969 95.5992 9.30451C97.7801 9.31212 99.8687 10.1759 101.406 11.7059C102.942 13.2359 103.802 15.3068 103.794 17.4629ZM99.7243 17.5429C99.7384 17.0041 99.645 16.4677 99.4493 15.9644C99.2536 15.4611 98.9595 15.0007 98.5838 14.6096C98.208 14.2185 97.7581 13.9042 97.2596 13.6848C96.761 13.4654 96.2237 13.3451 95.6782 13.3309C95.1328 13.3166 94.5899 13.4086 94.0806 13.6016C93.5713 13.7946 93.1055 14.0849 92.7098 14.4558C92.3141 14.8267 91.9963 15.271 91.7746 15.7634C91.5528 16.2558 91.4314 16.7865 91.4173 17.3254C91.4032 17.8643 91.4966 18.4006 91.6923 18.9039C91.888 19.4072 92.1821 19.8676 92.5578 20.2587C92.9336 20.6499 93.3835 20.9641 93.882 21.1835C94.3806 21.4029 94.9179 21.5232 95.4634 21.5375C96.0088 21.5517 96.5517 21.4598 97.061 21.2667C97.5704 21.0737 98.0361 20.7835 98.4318 20.4125C98.8275 20.0416 99.1453 19.5973 99.367 19.1049C99.5888 18.6125 99.7102 18.0818 99.7243 17.5429Z" fill="currentColor"/>
<path d="M111.321 10.3943C112.548 9.67468 113.876 9.31313 115.306 9.30966C115.366 9.30966 115.396 9.33969 115.396 9.39976V13.2515C115.396 13.3058 115.369 13.3335 115.315 13.3347C113.596 13.3624 112.064 14.4159 111.475 16.0168C111.314 16.4535 111.235 17.1338 111.238 18.0579C111.241 20.3693 111.24 22.6813 111.234 24.9938C111.234 25.0516 111.205 25.0805 111.148 25.0805H107.252C107.195 25.0805 107.166 25.0516 107.166 24.9938V9.83293C107.166 9.77517 107.195 9.7463 107.252 9.7463H111.149C111.206 9.7463 111.234 9.7746 111.234 9.8312L111.243 10.351C111.243 10.36 111.246 10.3687 111.25 10.3764C111.255 10.3841 111.262 10.3904 111.27 10.3948C111.277 10.3991 111.286 10.4014 111.295 10.4013C111.304 10.4012 111.313 10.3988 111.321 10.3943Z" fill="currentColor"/>
<path d="M55.9654 14.6584C57.4266 14.6584 58.6112 13.4739 58.6112 12.0126C58.6112 10.5514 57.4266 9.36684 55.9654 9.36684C54.5041 9.36684 53.3196 10.5514 53.3196 12.0126C53.3196 13.4739 54.5041 14.6584 55.9654 14.6584Z" fill="currentColor"/>
<path d="M39.4963 14.1143C41.203 10.526 45.1379 8.85915 48.9567 9.78266C48.9672 9.78503 48.9771 9.78954 48.9858 9.79593C48.9945 9.80233 49.0019 9.81046 49.0074 9.81986C49.0129 9.82925 49.0165 9.8397 49.0179 9.85058C49.0193 9.86146 49.0185 9.87254 49.0156 9.88316L48.0072 13.6049C48.0008 13.63 47.9846 13.6514 47.9619 13.6647C47.9392 13.678 47.9119 13.682 47.8859 13.676C44.7013 12.9257 41.9307 15.8124 42.9374 18.9173C43.4208 20.4074 44.8537 21.5735 46.4443 21.7329C48.4906 21.9374 50.225 20.7072 50.8973 18.7683C50.9123 18.7244 50.9418 18.7082 50.9857 18.7198L54.7802 19.7247C54.823 19.7351 54.8386 19.7611 54.827 19.8027C53.4547 24.6594 48.1181 27.0488 43.5334 25.0562C39.2815 23.2074 37.5072 18.2988 39.4963 14.1143Z" fill="currentColor"/>
<path d="M71.7621 9.78961H75.9517C75.9628 9.78973 75.9736 9.7933 75.9826 9.79981C75.9916 9.80633 75.9984 9.81548 76.002 9.82599L78.7517 18.1428C78.7552 18.1536 78.7621 18.1631 78.7712 18.1697C78.7804 18.1764 78.7915 18.18 78.8028 18.18C78.8142 18.18 78.8253 18.1764 78.8345 18.1697C78.8436 18.1631 78.8505 18.1536 78.854 18.1428L81.55 9.82599C81.5537 9.8152 81.5607 9.80585 81.57 9.79931C81.5794 9.79276 81.5906 9.78937 81.602 9.78961H85.7812C85.7898 9.78942 85.7984 9.79133 85.8061 9.79515C85.8139 9.79898 85.8206 9.80462 85.8257 9.81159C85.8308 9.81856 85.8341 9.82666 85.8354 9.8352C85.8367 9.84374 85.836 9.85247 85.8332 9.86065L80.8431 25.0874C80.8395 25.0979 80.8327 25.107 80.8237 25.1136C80.8147 25.1201 80.8039 25.1236 80.7928 25.1238H76.8181C76.807 25.1236 76.7962 25.1201 76.7872 25.1136C76.7782 25.107 76.7714 25.0979 76.7678 25.0874L73.9037 16.4951C73.9002 16.4842 73.8934 16.4748 73.8842 16.4681C73.875 16.4614 73.864 16.4578 73.8526 16.4578C73.8412 16.4578 73.8302 16.4614 73.821 16.4681C73.8118 16.4748 73.805 16.4842 73.8015 16.4951L71.0049 25.0874C71.0013 25.0982 70.9943 25.1075 70.9849 25.1141C70.9756 25.1206 70.9644 25.124 70.953 25.1238H66.98C66.9688 25.1236 66.958 25.1201 66.949 25.1136C66.94 25.107 66.9333 25.0979 66.9297 25.0874L61.9067 9.86065C61.9039 9.85247 61.9031 9.84374 61.9044 9.8352C61.9057 9.82666 61.9091 9.81856 61.9142 9.81159C61.9193 9.80462 61.926 9.79898 61.9337 9.79515C61.9415 9.79133 61.95 9.78942 61.9587 9.78961H66.1119C66.123 9.78973 66.1338 9.7933 66.1428 9.79981C66.1518 9.80633 66.1585 9.81548 66.1621 9.82599L68.9153 18.1394C68.9188 18.1502 68.9257 18.1596 68.9349 18.1663C68.944 18.173 68.9551 18.1766 68.9665 18.1766C68.9778 18.1766 68.9889 18.173 68.9981 18.1663C69.0073 18.1596 69.0141 18.1502 69.0176 18.1394L71.7101 9.82599C71.7138 9.8152 71.7208 9.80585 71.7302 9.79931C71.7395 9.79276 71.7507 9.78937 71.7621 9.78961Z" fill="currentColor"/>
</svg>
