<svg width="60" height="60" viewBox="0 0 60 60" fill="none" xmlns="http://www.w3.org/2000/svg">
<rect width="60" height="60" rx="10" fill="currentColor"/>
<path d="M19.5 43.5C18.675 43.5 17.9685 43.2065 17.3805 42.6195C16.7935 42.0315 16.5 41.325 16.5 40.5V30C16.5 28.125 16.856 26.3685 17.568 24.7305C18.281 23.0935 19.244 21.6685 20.457 20.4555C21.669 19.2435 23.094 18.281 24.732 17.568C26.369 16.856 28.125 16.5 30 16.5C31.875 16.5 33.6315 16.856 35.2695 17.568C36.9065 18.281 38.3315 19.2435 39.5445 20.4555C40.7565 21.6685 41.719 23.0935 42.432 24.7305C43.144 26.3685 43.5 28.125 43.5 30V40.5C43.5 41.325 43.2065 42.0315 42.6195 42.6195C42.0315 43.2065 41.325 43.5 40.5 43.5H37.5C36.675 43.5 35.969 43.2065 35.382 42.6195C34.794 42.0315 34.5 41.325 34.5 40.5V34.5C34.5 33.675 34.794 32.9685 35.382 32.3805C35.969 31.7935 36.675 31.5 37.5 31.5H40.5V30C40.5 27.075 39.481 24.5935 37.443 22.5555C35.406 20.5185 32.925 19.5 30 19.5C27.075 19.5 24.594 20.5185 22.557 22.5555C20.519 24.5935 19.5 27.075 19.5 30V31.5H22.5C23.325 31.5 24.031 31.7935 24.618 32.3805C25.206 32.9685 25.5 33.675 25.5 34.5V40.5C25.5 41.325 25.206 42.0315 24.618 42.6195C24.031 43.2065 23.325 43.5 22.5 43.5H19.5Z" fill="#1A1833"/>
</svg>
