<svg width="755" height="274" viewBox="0 0 755 274" fill="none" xmlns="http://www.w3.org/2000/svg">
<path d="M99.9502 481.72C298.433 384.598 366.164 277.49 390.711 196.236C418.104 105.552 403.977 6.43933 433.547 0.284325C452.482 -3.65831 475.78 33.3516 519.216 114.482C650.937 360.498 653.92 425.831 710.039 442.788C788.655 466.559 837.119 354.728 957.961 357.138C1046.72 358.913 1118.54 421.179 1166.94 476.526" stroke="currentColor" stroke-width="2" stroke-miterlimit="10"/>
<path d="M95.1838 471.956C288.078 376.925 359.7 272.814 386.193 196.661C415.799 111.559 401.817 17.5658 431.08 13.1203C449.893 10.2602 472.753 46.6371 514.71 124.987C642.222 363.056 646.177 429.203 701.865 445.322C780.936 467.89 827.287 347.969 949.411 346.336C952.074 346.301 954.695 346.301 957.319 346.372C1043.97 348.782 1116.81 411.078 1166.25 466.085" stroke="currentColor" stroke-width="2" stroke-miterlimit="10"/>
<path d="M90.4332 462.193C277.724 369.262 353.18 268.324 381.688 197.094C413.462 117.697 399.679 28.7051 428.625 25.9633C447.322 24.1887 469.748 59.9356 510.214 135.502C633.489 365.612 638.394 432.785 693.712 447.857C773.168 469.508 817.501 341.152 940.882 335.532C943.589 335.408 946.287 335.284 948.986 335.299C1037.07 335.784 1113.7 399.366 1165.58 455.642" stroke="currentColor" stroke-width="2" stroke-miterlimit="10"/>
<path d="M85.6715 452.43C267.385 361.572 346.558 264.05 377.175 197.525C411.029 123.964 397.544 39.8526 426.159 38.8085C444.75 38.1283 466.714 73.2304 505.71 146.014C624.763 368.191 630.638 436.248 685.551 450.392C765.43 470.966 807.722 334.284 932.346 324.728C935.112 324.515 937.875 324.311 940.629 324.222C1030.14 321.365 1110.56 387.65 1164.88 445.192" stroke="currentColor" stroke-width="2" stroke-miterlimit="10"/>
<path d="M80.9115 442.667C257.037 353.909 339.804 260.004 372.661 197.958C408.458 130.359 395.423 51.0124 423.698 51.6543C442.185 52.0713 463.694 86.5287 501.21 156.529C616.038 370.759 622.887 439.703 677.392 452.924C757.718 472.41 797.956 327.366 923.811 313.912C926.636 313.616 929.464 313.32 932.302 313.137C1023.23 307.689 1107.44 375.929 1164.22 434.749" stroke="currentColor" stroke-width="2" stroke-miterlimit="10"/>
<path d="M76.1514 432.903C246.691 346.242 332.878 256.203 368.155 198.392C405.692 136.871 393.302 62.18 421.242 64.4959C439.632 66.0221 460.676 99.8228 496.713 167.043C607.323 373.326 615.148 443.145 669.238 455.458C750.005 473.84 788.199 320.4 915.281 303.115C918.169 302.722 921.057 302.323 923.968 302.068C1016.31 294.053 1104.34 364.222 1163.54 424.314" stroke="currentColor" stroke-width="2" stroke-miterlimit="10"/>
<path d="M71.3946 423.139C236.343 338.566 325.728 252.645 363.638 198.823C402.64 143.449 391.199 73.3628 418.775 77.341C437.074 79.9793 457.65 113.129 492.205 177.554C598.593 375.89 607.403 446.579 661.073 457.99C742.299 475.26 778.434 313.393 906.741 292.311C909.699 291.825 912.64 291.329 915.616 290.994C1009.37 280.429 1101.21 352.515 1162.85 413.87" stroke="currentColor" stroke-width="2" stroke-miterlimit="10"/>
<path d="M66.6345 413.377C225.994 330.895 309.527 240.646 359.126 199.256C389.167 143.335 389.093 84.5619 416.314 90.1845C434.52 93.9468 454.629 126.417 487.705 188.085C589.868 378.473 599.664 450.017 652.914 460.541C734.595 476.681 768.671 306.361 898.203 281.522C901.214 280.945 904.229 280.354 907.279 279.934C1002.45 266.846 1098.1 340.809 1162.18 403.442" stroke="currentColor" stroke-width="2" stroke-miterlimit="10"/>
<path d="M61.8744 403.613C215.648 323.222 301.439 235.378 354.615 199.687C385.034 148.732 386.986 95.774 413.853 103.029C431.97 107.921 451.606 139.705 483.203 198.584C581.129 381.025 591.93 453.415 644.757 463.06C726.897 478.056 758.905 299.259 889.667 270.702C892.738 270.031 895.815 269.345 898.939 268.842C995.528 253.252 1094.97 329.081 1161.5 392.983" stroke="currentColor" stroke-width="2" stroke-miterlimit="10"/>
<path d="M57.1144 393.85C205.3 315.55 293.347 230.116 350.1 200.119C380.898 154.127 384.88 106.999 411.391 115.872C429.417 121.903 448.585 153.003 478.7 209.096C572.419 383.601 584.2 456.813 636.598 465.589C719.205 479.428 749.13 292.137 881.132 259.892C884.262 259.129 887.404 258.351 890.6 257.762C988.606 239.685 1091.85 317.363 1160.82 382.536" stroke="currentColor" stroke-width="2" stroke-miterlimit="10"/>
<path d="M52.3559 384.086C194.955 307.878 285.258 224.852 345.587 200.554C376.764 159.528 382.77 118.241 408.926 128.717C426.86 135.898 445.564 166.304 474.199 219.602C563.693 386.15 576.471 460.197 628.437 468.118C711.512 480.78 739.348 284.979 872.596 249.081C875.788 248.22 878.992 247.357 882.255 246.68C981.687 226.132 1088.73 305.645 1160.14 372.087" stroke="currentColor" stroke-width="2" stroke-miterlimit="10"/>
<path d="M47.5958 374.32C184.601 300.209 277.175 219.587 341.079 200.998C372.634 164.938 380.657 129.501 406.461 141.575C424.298 149.915 442.54 179.611 469.693 230.137C554.966 388.739 568.741 463.596 620.281 470.671C703.829 482.143 729.559 277.828 864.061 238.298C867.315 237.342 870.57 236.387 873.916 235.636C974.774 212.631 1085.6 293.959 1159.46 361.673" stroke="currentColor" stroke-width="2" stroke-miterlimit="10"/>
<path d="M42.8358 364.556C174.255 292.535 269.075 214.322 336.564 201.417C368.498 170.323 378.53 140.751 404.003 154.404C421.736 163.91 439.52 192.896 465.194 240.639C546.256 391.293 561.019 466.952 612.118 473.192C696.14 483.453 719.751 270.604 855.526 227.48C858.836 226.428 862.168 225.386 865.585 224.538C967.875 199.101 1082.49 282.213 1158.79 351.21" stroke="currentColor" stroke-width="2" stroke-miterlimit="10"/>
<path d="M38.0852 354.794C163.907 284.864 260.984 209.061 332.053 201.856C364.363 175.728 376.398 152.022 401.542 167.251C419.169 177.928 436.5 206.192 460.694 251.152C537.524 393.862 553.295 470.319 603.96 475.729C688.46 484.761 709.936 263.365 846.988 216.677C850.361 215.527 853.757 214.397 857.236 213.462C960.961 185.589 1079.36 270.511 1158.12 340.768" stroke="currentColor" stroke-width="2" stroke-miterlimit="10"/>
<path d="M33.3188 345.029C153.558 277.191 252.895 203.795 327.541 202.283C360.23 181.121 374.259 163.292 399.081 180.101C416.592 191.952 433.479 219.491 456.18 261.671C528.787 396.434 545.559 473.663 595.788 478.265C680.765 486.052 700.096 256.14 838.441 205.874C841.873 204.629 845.334 203.413 848.882 202.39C954.053 172.097 1076.23 258.802 1157.41 330.329" stroke="currentColor" stroke-width="2" stroke-miterlimit="10"/>
<path d="M28.5588 335.265C143.209 269.518 244.804 198.53 323.027 202.715C356.097 186.519 372.108 174.57 396.619 192.937C414.009 205.969 430.456 232.783 451.692 272.18C520.074 398.992 537.846 476.993 587.644 480.794C673.097 487.315 690.268 248.862 829.918 195.079C833.409 193.736 836.935 192.434 840.568 191.325C947.172 158.607 1073.12 247.081 1156.74 319.867" stroke="currentColor" stroke-width="2" stroke-miterlimit="10"/>
<path d="M23.7987 325.503C132.864 261.85 236.713 193.278 318.515 203.148C351.946 191.909 369.949 185.854 394.158 205.783C411.418 219.995 427.435 246.079 447.189 282.684C511.35 401.548 530.122 480.309 579.484 483.314C665.414 488.55 680.413 241.569 821.383 184.248C824.933 182.805 828.524 181.421 832.214 180.223C940.284 145.132 1070.01 235.369 1156.06 309.436" stroke="currentColor" stroke-width="2" stroke-miterlimit="10"/>
<path d="M19.0386 315.728C122.515 254.166 228.621 187.993 314.001 203.572C347.825 197.304 367.78 197.124 391.691 218.615C408.82 233.995 424.412 259.363 442.683 293.196C502.622 404.111 522.394 483.626 571.322 485.85C657.731 489.79 670.547 234.285 812.847 173.462C816.454 171.918 820.113 170.451 823.871 169.165C933.406 131.67 1066.88 223.66 1155.38 299.008" stroke="currentColor" stroke-width="2" stroke-miterlimit="10"/>
<path d="M14.2802 305.967C112.165 246.517 219.407 219.877 309.491 204.015C343.2 198.078 365.607 208.419 389.231 231.471C406.222 248.034 421.393 272.672 438.185 303.722C493.9 406.695 514.668 486.943 563.164 488.396C650.043 490.996 660.667 226.972 804.311 162.648C807.974 161.009 811.707 159.457 815.53 158.081C926.529 118.202 1063.75 211.941 1154.7 288.549" stroke="currentColor" stroke-width="2" stroke-miterlimit="10"/>
<path d="M9.52008 296.207C101.825 238.828 210.402 185.802 304.979 204.441C339.096 211.167 363.424 219.694 386.77 244.311C403.615 262.058 418.369 285.962 433.683 314.232C485.178 409.257 506.938 490.233 555.005 490.922C642.351 492.177 650.774 219.647 795.773 151.838C799.498 150.099 803.296 148.473 807.19 147.003C919.743 104.97 1060.64 200.227 1154.03 278.106" stroke="currentColor" stroke-width="2" stroke-miterlimit="10"/>
<path d="M4.76007 286.446C91.4706 231.157 203.041 176.348 300.468 204.875C335.026 214.996 361.235 230.977 384.308 257.155C401.003 276.085 415.349 299.261 429.18 324.745C476.454 411.826 499.207 493.728 546.845 493.459C634.656 492.962 640.766 212.109 787.238 141.036C791.015 139.19 794.884 137.487 798.847 135.928C912.844 91.411 1057.51 188.51 1153.34 267.658" stroke="currentColor" stroke-width="2" stroke-miterlimit="10"/>
<path d="M0 276.684C81.122 223.49 196.258 166.953 295.953 205.312C446.245 263.147 459.247 497.354 538.689 495.993C629.248 494.443 631.1 189.754 790.507 124.853C905.942 77.8552 1054.41 176.797 1152.66 257.22" stroke="currentColor" stroke-width="2" stroke-miterlimit="10"/>
</svg>
