<svg width="60" height="60" viewBox="0 0 60 60" fill="none" xmlns="http://www.w3.org/2000/svg">
<rect width="60" height="60" rx="10" fill="currentColor"/>
<path d="M25.5807 17.9219C23.0975 18.1845 21.142 19.0917 19.4789 20.7747C17.6093 22.6666 16.6 25.0359 16.5082 27.7394C16.4509 29.3807 16.6917 30.7116 17.3053 32.1917L17.5347 32.7407L17.1849 34.1432C16.9842 34.9489 16.8351 35.6651 16.8351 35.8382C16.8351 35.9993 16.8867 36.3216 16.9555 36.5424C17.0588 36.8945 17.1276 37.002 17.4602 37.3421C17.9304 37.8315 18.2975 37.9986 18.9168 37.9986C19.238 37.9986 19.605 37.921 20.5914 37.6465L21.8531 37.2944L22.2316 37.4615C22.7936 37.7181 23.5563 37.9748 24.2044 38.118C25.0875 38.3209 26.9399 38.3508 27.8747 38.1896C29.9449 37.8196 31.631 36.9423 33.1163 35.4622C34.9744 33.6061 36.0067 31.183 36.087 28.4676C36.1214 27.3873 36.0583 26.6592 35.8461 25.7222C34.9342 21.7057 31.6998 18.6261 27.7485 18.0114C27.2897 17.9398 25.942 17.8861 25.5807 17.9219Z" fill="#1A1833"/>
<path d="M37.9125 24.073C38.3827 25.3502 38.6351 27.7971 38.463 29.4085C38.096 32.7566 36.496 35.8003 33.9841 37.9369C32.9518 38.8142 31.4722 39.6557 30.136 40.1093C29.2414 40.4196 28.0084 40.6822 27.4751 40.6822C27.2686 40.6822 27.1023 40.7061 27.1023 40.73C27.1023 40.8076 27.8421 41.4163 28.364 41.7744C30.4629 43.1888 32.8658 43.6961 35.3719 43.2545C36.0888 43.1232 37.0178 42.8248 37.6659 42.5204L38.0845 42.3175L39.2028 42.6338C40.625 43.0337 40.8888 43.0814 41.3304 43.0038C42.1448 42.8666 42.7871 42.2817 43.0107 41.4641C43.1541 40.9568 43.1254 40.7061 42.7756 39.1842L42.4487 37.7698L42.6552 37.2983C43.3778 35.6511 43.653 33.6637 43.4179 31.8315C43.005 28.5849 41.1584 25.7799 38.3885 24.1923C37.9641 23.9477 37.8494 23.9178 37.9125 24.073Z" fill="#1A1833"/>
</svg>
