<svg width="60" height="60" viewBox="0 0 60 60" fill="none" xmlns="http://www.w3.org/2000/svg">
<rect width="60" height="60" rx="10" fill="currentColor"/>
<path d="M20.587 15.6994C19.3304 15.9738 18.3572 16.9655 18.0924 18.2503C18.0123 18.6245 18 20.3335 18 30.5684C18 38.2523 18.0246 42.5933 18.0616 42.8552C18.2587 44.1213 19.3366 45.2752 20.5746 45.5309C20.8025 45.5808 23.8761 45.5995 30.7685 45.5995C41.6214 45.5995 41.0362 45.6182 41.7815 45.2128C42.5946 44.7762 43.2967 43.7783 43.4384 42.8552C43.4754 42.5933 43.5 39.0195 43.5 32.9259V23.4021L40.3772 23.3834L37.2482 23.3646L36.8971 23.19C36.4721 22.978 36.1025 22.6162 35.9116 22.2233C35.7699 21.9301 35.7699 21.9301 35.7514 18.7618L35.733 15.5996L28.3601 15.6058C22.2685 15.6058 20.9196 15.6246 20.587 15.6994ZM37.1743 29.7139C37.7225 30.0756 37.704 30.8615 37.1435 31.1733C36.9525 31.2794 36.5891 31.2856 30.6576 31.2856C24.7261 31.2856 24.3627 31.2794 24.1717 31.1733C23.525 30.8178 23.6236 29.8511 24.3196 29.6328C24.4181 29.6016 27.313 29.5829 30.75 29.5892C36.6692 29.6016 37.0141 29.6079 37.1743 29.7139ZM35.0986 33.3875C35.4866 33.8178 35.3634 34.429 34.846 34.6848C34.5996 34.8033 34.4457 34.8095 29.512 34.8095C24.8 34.8095 24.4181 34.8033 24.221 34.6972C23.6236 34.3979 23.5681 33.5871 24.1163 33.2503C24.3072 33.1255 24.4428 33.1255 29.5982 33.138L34.8891 33.1567L35.0986 33.3875ZM36.2011 36.8053C36.6754 37.2544 36.6261 37.8469 36.0964 38.1775C35.8993 38.3022 35.7699 38.3022 30.1464 38.3022C25.3297 38.3022 24.375 38.2897 24.2333 38.2149C23.6112 37.8843 23.5681 37.0548 24.1656 36.7305C24.3627 36.6245 24.646 36.6182 30.208 36.6307L36.0348 36.6494L36.2011 36.8053Z" fill="#1A1833"/>
<path d="M37.4019 18.8364V21.587L37.562 21.6493C37.7591 21.7304 42.9453 21.7304 42.9453 21.6556C42.9453 21.6244 41.7011 20.3583 40.1736 18.8427L37.4019 16.0859V18.8364Z" fill="#1A1833"/>
</svg>
