<svg width="60" height="60" viewBox="0 0 60 60" fill="none" xmlns="http://www.w3.org/2000/svg">
<rect width="60" height="60" rx="10" fill="currentColor"/>
<path d="M29.0248 12.1239C25.6477 12.8437 23.1516 15.3302 22.4101 18.7038C22.2413 19.4891 22.2339 21.2486 22.4101 22.0193C22.5863 22.8409 22.7919 23.4298 23.159 24.1423C23.6068 25.0293 24.062 25.6474 24.8475 26.4108L25.5156 27.0724L24.6052 28.6283C23.5848 30.3878 23.7243 30.2715 22.858 30.017C18.2696 28.6356 13.4683 31.3185 12.1909 35.9645C12.0147 36.6043 12 36.7788 12 38.0802C12 39.3962 12.0147 39.5489 12.1982 40.2106C13.4169 44.5584 17.741 47.2268 22.1238 46.3252C25.2072 45.6927 27.7107 43.4169 28.5769 40.4723C28.6724 40.1306 28.7752 39.7016 28.8045 39.5126L28.8559 39.1709H30.75H32.6441L32.6955 39.5126C32.7248 39.7016 32.8276 40.1306 32.9231 40.4723C33.7894 43.4169 36.2928 45.6927 39.3762 46.3252C42.1512 46.8923 45.0438 46.0344 47.0553 44.035C48.1272 42.9807 48.8907 41.672 49.3018 40.2106C49.4853 39.5489 49.5 39.3962 49.5 38.0802C49.5 36.7788 49.4853 36.6043 49.3091 35.9645C48.4061 32.6781 45.6971 30.2497 42.3715 29.7553C41.1234 29.5663 39.824 29.6608 38.642 30.017C37.7757 30.2715 37.9152 30.3878 36.8948 28.6283L35.9844 27.0724L36.6525 26.4108C37.9519 25.1384 38.7008 23.7933 39.0899 22.0193C39.2661 21.2486 39.2587 19.4891 39.0899 18.7038C38.5025 16.0428 36.8948 13.9924 34.4648 12.8146C33.2314 12.2111 32.4606 12.0366 30.9335 12.0075C29.9057 11.9857 29.568 12.0075 29.0248 12.1239ZM32.6588 14.5159C35.1328 15.3448 36.792 17.4751 36.9682 20.0489C37.0416 21.205 36.6672 22.63 36.0285 23.6188C35.8596 23.8733 35.7128 24.0987 35.7055 24.106C35.6908 24.1205 35.4412 23.8806 35.1475 23.5752C34.8539 23.2698 34.4134 22.8918 34.1638 22.7245L33.7086 22.4337L33.9509 21.9611C34.34 21.1904 34.4354 20.3688 34.2298 19.5472C34.0683 18.8929 33.8407 18.4712 33.3929 17.9913C32.6808 17.2206 31.8072 16.8353 30.75 16.8353C29.6928 16.8353 28.8192 17.2206 28.1071 17.9913C27.6593 18.4712 27.4317 18.8929 27.2702 19.5472C27.0646 20.3688 27.16 21.1904 27.5491 21.9611L27.7914 22.4337L27.3362 22.7245C27.0866 22.8918 26.6461 23.2698 26.3525 23.5752C26.0588 23.8806 25.8092 24.1205 25.7945 24.106C25.611 23.9024 25.1265 23.0299 24.9503 22.5937C23.8637 19.7872 24.9576 16.6535 27.5858 15.0758C28.6136 14.4577 29.546 14.2251 30.9335 14.2614C31.8586 14.276 32.0274 14.3051 32.6588 14.5159ZM28.0043 28.3375C29.6928 28.9192 31.8072 28.9119 33.4957 28.3375C33.738 28.2575 33.9655 28.2212 33.9949 28.2503C34.083 28.3375 35.8156 31.3185 35.8156 31.3839C35.8156 31.413 35.588 31.6384 35.309 31.8856C34.0683 32.9835 33.0038 34.8593 32.7248 36.4443L32.6441 36.9169H30.75H28.8559L28.7752 36.4443C28.4962 34.8593 27.4317 32.9835 26.191 31.8856C25.912 31.6384 25.6844 31.413 25.6844 31.3839C25.6844 31.2967 27.4977 28.1921 27.5491 28.1921C27.5565 28.1921 27.762 28.2575 28.0043 28.3375ZM22.1238 32.1546C23.7903 32.6345 25.1044 33.7033 25.934 35.2592C26.3892 36.0953 26.5654 36.7788 26.6168 37.7967C26.6829 39.1345 26.3672 40.3051 25.6404 41.4175L25.3614 41.8465L24.8915 41.3375C24.5098 40.9376 24.062 40.5741 23.4233 40.1451C23.4086 40.1379 23.4893 39.9561 23.5995 39.738C24.1427 38.6764 24.1354 37.4695 23.5774 36.3716C23.3352 35.9063 22.5863 35.172 22.1165 34.932C20.0682 33.9069 17.6162 34.932 16.9848 37.0914C16.7352 37.9494 16.882 39.1636 17.3299 39.8834C17.4106 40.0143 17.4694 40.1306 17.4547 40.1451C17.44 40.1597 17.2785 40.2615 17.0949 40.3705C16.9114 40.4796 16.4783 40.8577 16.1259 41.1994L15.4945 41.8247L15.2743 41.4975C14.5989 40.5014 14.3052 39.5853 14.2538 38.3638C14.1804 36.6188 14.687 35.2083 15.8469 33.9141C16.6985 32.9689 18.0934 32.2201 19.4956 31.9729C20.1343 31.8565 21.397 31.9438 22.1238 32.1546ZM42.7532 32.1546C45.0144 32.809 46.7029 34.6121 47.1654 36.8588C47.3343 37.6731 47.2756 39.0763 47.048 39.7889C46.8571 40.3705 46.5487 41.0249 46.2257 41.5048L45.9981 41.8319L45.3668 41.2067C45.0217 40.8577 44.5886 40.4796 44.4051 40.3705C44.2215 40.2615 44.06 40.1597 44.0453 40.1451C44.0306 40.1306 44.0894 40.0143 44.1701 39.8834C44.618 39.1636 44.7648 37.9494 44.5152 37.0842C43.9866 35.2665 42.0338 34.1613 40.1984 34.6339C39.5303 34.8012 39.0605 35.0702 38.5613 35.5646C37.8492 36.2698 37.5041 37.0914 37.5041 38.073C37.5041 38.7128 37.6216 39.1927 37.9005 39.738C38.0107 39.9561 38.0914 40.1379 38.0767 40.1451C37.438 40.5741 36.9902 40.9376 36.6085 41.3375L36.1386 41.8465L35.8596 41.4175C35.1328 40.3051 34.8172 39.1345 34.8832 37.7967C34.9346 36.7788 35.1108 36.0953 35.566 35.2592C36.513 33.4852 38.1135 32.3364 40.125 31.9729C40.7637 31.8565 42.0264 31.9438 42.7532 32.1546Z" fill="#1A1833"/>
</svg>
