<svg width="60" height="60" viewBox="0 0 60 60" fill="none" xmlns="http://www.w3.org/2000/svg">
<path d="M40.6425 24.0851L28.0517 22.2602L22.4233 10.8803C22.2696 10.5688 22.0167 10.3165 21.7043 10.1632C20.9208 9.77747 19.9686 10.0989 19.5769 10.8803L13.9485 22.2602L1.35768 24.0851C1.01056 24.1346 0.693184 24.2978 0.450196 24.5451C0.156436 24.8462 -0.00543952 25.2513 0.000139574 25.6714C0.00571867 26.0915 0.178295 26.4922 0.479949 26.7854L9.58955 35.643L7.43736 48.1505C7.38689 48.4415 7.41918 48.7407 7.53055 49.0143C7.64193 49.2879 7.82794 49.5249 8.06749 49.6984C8.30704 49.8719 8.59055 49.975 8.88587 49.996C9.18119 50.017 9.4765 49.9551 9.73832 49.8172L21.0001 43.9121L32.2619 49.8172C32.5693 49.9804 32.9264 50.0348 33.2686 49.9754C34.1314 49.8271 34.7116 49.0111 34.5628 48.1505L32.4107 35.643L41.5203 26.7854C41.7682 26.5431 41.9318 26.2266 41.9814 25.8804C42.1153 25.0149 41.5103 24.2137 40.6425 24.0851Z" fill="#DA1135"/>
</svg>
