<svg width="168" height="40" viewBox="0 0 168 40" fill="none" xmlns="http://www.w3.org/2000/svg">
<path d="M97.203 3.95451C97.4829 4.38432 97.6709 4.65673 97.767 4.77177C99.4788 6.81621 100.443 9.1749 100.661 11.8478C100.663 11.8656 100.672 11.874 100.689 11.8729H100.69C100.708 11.8729 100.717 11.8641 100.717 11.8463C100.725 11.5974 100.736 11.3475 100.748 11.0965C100.749 11.0818 100.753 11.0709 100.759 11.0635C100.773 11.0489 100.792 11.0405 100.816 11.0384C100.862 11.0332 100.883 11.0536 100.88 11.0996L100.631 14.7231C100.631 14.7248 100.63 14.7263 100.629 14.7277C100.629 14.7291 100.627 14.7303 100.626 14.7311C100.625 14.7319 100.623 14.7323 100.621 14.7322C100.62 14.7322 100.618 14.7318 100.617 14.731L100.543 14.6918C100.539 14.6898 100.535 14.6885 100.531 14.688C100.527 14.6876 100.523 14.688 100.519 14.6891C100.515 14.6903 100.511 14.6923 100.508 14.6949C100.505 14.6975 100.502 14.7007 100.501 14.7043C100.494 14.7169 100.489 14.7289 100.484 14.7404C100.479 14.7498 100.473 14.7561 100.463 14.7592C100.343 14.799 100.265 14.7739 100.23 14.6839C100.22 14.6616 100.205 14.6426 100.185 14.6292C100.165 14.6158 100.141 14.6086 100.117 14.6086H100.029C99.9843 14.6086 99.9514 14.5882 99.9305 14.5475C99.8856 14.4607 99.8156 14.4293 99.7206 14.4533C99.6704 14.4659 99.6365 14.4476 99.6187 14.3984C99.6031 14.3524 99.5759 14.3205 99.5373 14.3027C99.4997 14.285 99.4736 14.2567 99.4589 14.218C99.4255 14.1271 99.3817 14.1093 99.3274 14.1647" stroke="currentColor" stroke-width="2"/>
<path d="M99.3274 14.1647C99.4423 11.0641 98.6005 8.3655 96.802 6.06903C92.7523 0.897261 85.4032 0.396869 79.8245 3.09334" stroke="currentColor" stroke-width="2"/>
<path d="M79.8245 3.09335C79.6428 2.61178 79.3169 2.74511 78.9519 2.53178C78.9321 2.52009 78.9096 2.51341 78.8864 2.51232C78.8632 2.51123 78.84 2.51575 78.8187 2.5255C78.6354 2.6055 78.4975 2.59452 78.3237 2.69648C78.0025 2.88472 77.6547 3.03688 77.3617 3.23923C75.9225 4.22746 74.6107 5.36263 73.4264 6.64472C73.2211 6.86746 73.019 7.17178 72.7888 7.41335C72.5726 7.64027 72.4138 7.82903 72.3125 7.97962C71.7986 8.74093 71.3767 9.40132 71.0467 9.9608C71.031 9.98694 71.0237 10.0204 71.0247 10.0612C71.0268 10.1135 71.0159 10.1626 70.9918 10.2086C70.8467 10.491 70.7062 10.7775 70.5704 11.0682C70.4869 11.245 70.4978 11.3919 70.6033 11.509C70.7271 11.6455 70.854 11.6157 71.0247 11.691C71.0675 11.7109 71.1015 11.7412 71.1266 11.782C71.1704 11.852 71.2498 11.8928 71.3647 11.9043" stroke="currentColor" stroke-width="2"/>
<path d="M71.3647 11.9043C70.008 15.2314 69.8294 18.9145 71.2159 22.2212" stroke="currentColor" stroke-width="2"/>
<path d="M71.2158 22.2212C71.0675 22.2829 70.8879 22.2405 70.6769 22.0941C70.6508 22.0763 70.6278 22.056 70.608 22.0329C70.5599 21.9765 70.4936 21.9577 70.409 21.9765C70.385 21.9828 70.3656 21.9828 70.351 21.9765C70.3218 21.966 70.2988 21.9472 70.2821 21.92C70.2591 21.8813 70.2252 21.8625 70.1803 21.8635C70.0633 21.8667 69.9667 21.8275 69.8904 21.7459C69.8748 21.7298 69.854 21.7195 69.8316 21.7167C69.8092 21.7138 69.7863 21.7186 69.7667 21.7302L69.5082 21.8902" stroke="currentColor" stroke-width="2"/>
<path d="M69.5082 21.8902C68.2283 17.7177 68.9724 13.2831 71.1438 9.54668" stroke="currentColor" stroke-width="2"/>
<path d="M99.1724 6.41727C99.7207 7.46511 100.155 8.52707 100.474 9.60315C100.523 9.77099 100.47 9.92942 100.604 10.1035C100.638 10.1464 100.647 10.194 100.632 10.2463C100.607 10.3331 100.589 10.4204 100.578 10.5082C100.561 10.6296 100.586 10.7158 100.654 10.7671C100.721 10.8173 100.757 10.8005 100.761 10.7169L100.77 10.5098C100.779 10.3153 100.829 10.3038 100.921 10.4753L101.154 10.9114C101.182 10.9626 101.219 11.0076 101.264 11.0463C101.403 11.1624 101.377 11.2879 101.48 11.4118C101.521 11.462 101.564 11.5106 101.61 11.5577" stroke="currentColor" stroke-width="2"/>
<path d="M101.61 11.5576C101.892 12.5647 102.015 13.6246 101.978 14.7373" stroke="currentColor" stroke-width="2"/>
<path d="M101.978 14.7373C101.721 14.4716 101.512 14.1825 101.351 13.8698C101.232 13.6392 100.988 13.451 101.005 13.0886C101.006 13.0625 100.994 13.0484 100.968 13.0463L100.928 13.0447C100.923 13.0447 100.921 13.0468 100.921 13.051L100.845 14.2588" stroke="currentColor" stroke-width="2"/>
<path d="M100.845 14.2588C100.749 14.673 100.727 14.9997 100.78 15.2392" stroke="currentColor" stroke-width="2"/>
<path d="M100.78 15.2392L100.574 16.2886" stroke="currentColor" stroke-width="2"/>
<path d="M100.574 16.2886L99.8193 18.7875" stroke="currentColor" stroke-width="2"/>
<path d="M99.8193 18.7875L99.1832 20.1898" stroke="currentColor" stroke-width="2"/>
<path d="M99.1833 20.1898C98.6517 21.246 98.06 22.2102 97.4083 23.0824" stroke="currentColor" stroke-width="2"/>
<path d="M97.4083 23.0824L95.8949 24.9004" stroke="currentColor" stroke-width="2"/>
<path d="M95.8949 24.9004C94.9319 25.8918 93.8661 26.7801 92.6974 27.5655" stroke="currentColor" stroke-width="2"/>
<path d="M92.6975 27.5655L90.6029 28.7906" stroke="currentColor" stroke-width="2"/>
<path d="M90.6028 28.7906L89.514 29.2769" stroke="currentColor" stroke-width="2"/>
<path d="M89.5141 29.2769L89.0519 29.4886C89.0039 29.5106 88.9538 29.5221 88.9015 29.5231C88.8201 29.5263 88.747 29.5582 88.6822 29.6188C88.6478 29.6512 88.607 29.6675 88.56 29.6675C88.5203 29.6664 88.488 29.6774 88.4629 29.7004C88.4243 29.736 88.4175 29.7767 88.4425 29.8228C88.5271 29.9733 88.6284 30.1119 88.7465 30.2384C88.7872 30.2813 88.8081 30.3587 88.8091 30.4706C88.8102 30.525 88.829 30.572 88.8655 30.6118C88.97 30.7226 89.0238 30.8591 89.0269 31.0212" stroke="currentColor" stroke-width="2"/>
<path d="M89.0269 31.0212L88.5569 31.1592" stroke="currentColor" stroke-width="2"/>
<path d="M88.5568 31.1592C87.175 31.5655 85.7478 31.7208 84.6011 31.9184" stroke="currentColor" stroke-width="2"/>
<path d="M84.601 31.9184L84.3253 31.9122" stroke="currentColor" stroke-width="2"/>
<path d="M84.3254 31.9122L84.0387 31.8902C84.0138 31.8879 83.99 31.8787 83.9701 31.8638C83.9501 31.8488 83.9349 31.8286 83.9259 31.8055C83.7896 31.451 83.5076 31.1326 83.4794 30.7451C83.4752 30.6834 83.5039 30.652 83.5656 30.651L83.8037 30.6463" stroke="currentColor" stroke-width="2"/>
<path d="M83.8037 30.6463C84.2591 30.7655 84.6878 30.7362 85.0899 30.5584C85.1369 30.5375 85.1865 30.5307 85.2387 30.5381C85.4685 30.5684 85.6889 30.5417 85.8999 30.4581C86.0675 30.3906 86.196 30.4188 86.3698 30.3859C86.4231 30.3754 86.4257 30.3571 86.3777 30.331L86.3229 30.3028C86.3153 30.2987 86.3089 30.2926 86.3044 30.2853C86.3 30.2779 86.2975 30.2695 86.2974 30.2609C86.2972 30.2522 86.2993 30.2437 86.3035 30.2362C86.3077 30.2287 86.3139 30.2224 86.3213 30.2181C86.3902 30.1752 86.4706 30.1496 86.5625 30.1412" stroke="currentColor" stroke-width="2"/>
<path d="M86.5625 30.1412L87.0341 30.2353C87.0988 30.2478 87.1093 30.2295 87.0654 30.1804L87.0309 30.1412C86.9954 30.1014 87.0012 30.068 87.0482 30.0408C87.1369 29.9875 87.2398 29.9958 87.3568 30.0659C87.4226 30.1056 87.4983 30.1051 87.5839 30.0643C87.6403 30.0371 87.6372 30.023 87.5745 30.022C87.539 30.0209 87.5035 30.0131 87.468 29.9984C87.4574 29.9943 87.4482 29.9872 87.4415 29.9779C87.4347 29.9687 87.4308 29.9577 87.4302 29.9463C87.4295 29.9349 87.4321 29.9236 87.4377 29.9136C87.4433 29.9037 87.4517 29.8955 87.4618 29.8902C87.5735 29.8295 87.692 29.7935 87.8174 29.782C87.8591 29.7788 87.8952 29.7631 87.9255 29.7349C87.961 29.7014 88.0142 29.679 88.0853 29.6675C88.3088 29.6288 88.5814 29.5451 88.903 29.4165C92.0614 28.1501 94.7048 26.1914 96.8333 23.5404C96.8688 23.4975 96.8631 23.4609 96.8161 23.4306L96.4088 23.1718C96.3858 23.1571 96.3696 23.1373 96.3602 23.1122C96.3518 23.0912 96.3351 23.0782 96.3101 23.0729C96.1231 23.0395 95.9879 23.0071 95.9043 22.9757" stroke="currentColor" stroke-width="2"/>
<path d="M85.7416 29.1953C85.7552 29.3616 85.8183 29.4269 85.9311 29.3914C85.9437 29.3872 85.9499 29.3783 85.9499 29.3647C85.9499 29.349 85.9499 29.3333 85.9499 29.3176C85.9499 29.2894 85.964 29.2753 85.9922 29.2753H86.1458C86.163 29.2753 86.1797 29.2813 86.1929 29.2922C86.2061 29.3031 86.2149 29.3182 86.2178 29.3349C86.2325 29.4092 86.2784 29.4588 86.3557 29.4839C86.3954 29.4965 86.4064 29.5216 86.3886 29.5592C86.3698 29.5979 86.3703 29.6335 86.3902 29.6659C86.4194 29.714 86.4393 29.7103 86.4497 29.6549L86.4842 29.4745C86.4875 29.4576 86.4961 29.4422 86.5086 29.4304C86.5211 29.4186 86.5369 29.411 86.5539 29.4086C86.571 29.4061 86.5883 29.4091 86.6036 29.417C86.6189 29.4248 86.6313 29.4373 86.6393 29.4526C86.681 29.5362 86.7427 29.599 86.8241 29.6408C86.8457 29.6518 86.8624 29.6706 86.8711 29.6934C86.8797 29.7163 86.8797 29.7416 86.8711 29.7647C86.8116 29.9268 86.7087 30.0523 86.5625 30.1412" stroke="currentColor" stroke-width="2"/>
<path d="M83.8037 30.6463L81.2767 30.5992C81.2485 30.5982 81.2365 30.6118 81.2407 30.64L81.2469 30.6855C81.2489 30.6999 81.256 30.7131 81.2669 30.7227C81.2779 30.7322 81.292 30.7374 81.3065 30.7373L82.4532 30.7498C82.4634 30.7498 82.4731 30.7537 82.4804 30.7607C82.4877 30.7678 82.492 30.7773 82.4924 30.7875L82.494 30.8267C82.494 30.835 82.4898 30.8392 82.4814 30.8392L81.6621 30.8439C81.651 30.8441 81.6401 30.847 81.6304 30.8524C81.6207 30.8577 81.6125 30.8653 81.6064 30.8744C81.6004 30.8836 81.5967 30.894 81.5958 30.9049C81.5948 30.9157 81.5966 30.9265 81.601 30.9365C81.7483 31.2816 81.9676 31.6 82.259 31.8918" stroke="currentColor" stroke-width="2"/>
<path d="M82.259 31.8918C81.7963 31.7265 81.3932 31.6978 81.0496 31.8055" stroke="currentColor" stroke-width="2"/>
<path d="M80.979 31.8055C80.93 31.6696 80.8527 31.5937 80.7472 31.5781C80.3211 31.5153 80.0516 31.3082 79.8793 30.9098C79.8182 30.7718 79.7351 30.7028 79.6192 30.6243C79.5649 30.5888 79.5701 30.5689 79.6349 30.5647C79.662 30.5637 79.6887 30.571 79.7148 30.5867C79.7409 30.6024 79.7607 30.6113 79.7743 30.6133C79.8015 30.6186 79.825 30.617 79.8448 30.6086C79.9169 30.5804 79.9096 30.559 79.8229 30.5443C76.8849 30.0424 74.371 28.7273 72.2811 26.5992" stroke="currentColor" stroke-width="2"/>
<path d="M99.3274 14.1647C99.1096 17.5231 97.9221 20.2949 95.9043 22.9757" stroke="currentColor" stroke-width="2"/>
<path d="M95.9043 22.9757C93.1987 26.2071 89.8634 28.3357 85.7416 29.1953" stroke="currentColor" stroke-width="2"/>
<path d="M85.7416 29.1953C79.8025 30.3028 73.7616 28.0094 71.2158 22.2212" stroke="currentColor" stroke-width="2"/>
<path d="M71.3646 11.9043C73.089 7.95661 75.9089 5.01961 79.8244 3.09334" stroke="currentColor" stroke-width="2"/>
<path d="M69.5082 21.8902L69.8168 22.7388" stroke="currentColor" stroke-width="2"/>
<path d="M99.6564 7.04785C100.545 8.48994 101.196 9.99321 101.61 11.5577" stroke="currentColor" stroke-width="2"/>
<path d="M99.0564 27.3286C98.8642 27.2753 98.6402 27.3103 98.3843 27.4337" stroke="currentColor" stroke-width="2"/>
<path d="M98.3843 27.4337C97.8642 26.9741 96.9947 25.9216 96.2459 26.4847C95.7738 26.8382 95.7226 27.2779 96.0923 27.8039" stroke="currentColor" stroke-width="2"/>
<path d="M96.0923 27.8039C96.0714 27.9702 96.0203 28.1088 95.9388 28.2196C95.9116 28.2573 95.8986 28.2996 95.8996 28.3467C95.9038 28.4387 95.8693 28.514 95.7962 28.5726C95.7639 28.5976 95.7487 28.6311 95.7508 28.6729L95.8323 30.0706" stroke="currentColor" stroke-width="2"/>
<path d="M94.4772 28.3655C94.1435 27.1231 94.8986 25.8557 96.2114 25.7208C96.2636 25.7156 96.2898 25.6868 96.2898 25.6345C96.2898 25.5362 96.2495 25.4651 96.1691 25.4212C96.1326 25.4013 96.1127 25.3699 96.1096 25.3271C96.1002 25.2068 96.0286 25.0646 95.895 24.9004" stroke="currentColor" stroke-width="2"/>
<path d="M101.79 16.7122L100.78 15.2392" stroke="currentColor" stroke-width="2"/>
<path d="M100.119 21.76C100.073 21.7046 100.049 21.6403 100.046 21.5671C100.044 21.5169 100.023 21.4776 99.9822 21.4494C99.907 21.3971 99.8652 21.3239 99.8569 21.2298C99.8527 21.1848 99.8376 21.1441 99.8114 21.1075L99.1832 20.1898" stroke="currentColor" stroke-width="2"/>
<path d="M88.3547 31.3679C88.3202 31.3281 88.3876 31.2586 88.5568 31.1592" stroke="currentColor" stroke-width="2"/>
<path d="M89.0269 31.0212L89.8728 30.731" stroke="currentColor" stroke-width="2"/>
<path d="M89.8728 30.731L91.2076 30.1443C91.2535 30.1245 91.2765 30.0889 91.2765 30.0377V29.9184C91.2765 29.8745 91.2567 29.8432 91.217 29.8243C91.1386 29.7888 91.1063 29.7323 91.1198 29.6549C91.1272 29.6068 91.1089 29.5723 91.065 29.5514C90.9115 29.4771 90.8128 29.3621 90.7689 29.2063C90.7386 29.0965 90.7157 29.0254 90.7 28.993C90.6634 28.9135 90.6311 28.846 90.6029 28.7906" stroke="currentColor" stroke-width="2"/>
<path d="M99.6658 22.5945L100.119 21.76" stroke="currentColor" stroke-width="2"/>
<path d="M100.119 21.76L100.767 20.3106C100.788 20.2646 100.788 20.2186 100.766 20.1726L100.319 19.2816C100.29 19.223 100.244 19.1843 100.181 19.1655C100.104 19.1414 100.049 19.096 100.015 19.029C100.001 19.0018 100.007 18.9799 100.034 18.9632C100.056 18.9496 100.071 18.9349 100.079 18.9192C100.11 18.8617 100.093 18.8371 100.029 18.8455C99.9217 18.8591 99.8517 18.8397 99.8193 18.7875" stroke="currentColor" stroke-width="2"/>
<path d="M100.574 16.2886C100.758 16.343 100.856 16.4701 100.869 16.6698C100.87 16.693 100.877 16.7156 100.888 16.7361C100.898 16.7567 100.913 16.7747 100.932 16.789C101.037 16.8706 101.121 16.9867 101.184 17.1373C101.253 17.3035 101.379 17.4447 101.563 17.5608C101.608 17.589 101.635 17.577 101.644 17.5247L101.79 16.7122" stroke="currentColor" stroke-width="2"/>
<path d="M101.79 16.7122L101.917 15.6596" stroke="currentColor" stroke-width="2"/>
<path d="M101.917 15.6596L101.978 14.7373" stroke="currentColor" stroke-width="2"/>
<path d="M89.8727 30.731C90.0837 30.6379 90.0555 30.4068 89.7881 30.0377C89.5918 29.7647 89.4743 29.565 89.4357 29.4384C89.4333 29.4314 89.4331 29.4238 89.4349 29.4165C89.4368 29.4093 89.4406 29.4028 89.4461 29.3977C89.4515 29.3926 89.4583 29.3891 89.4656 29.3877C89.4729 29.3863 89.4804 29.3871 89.4874 29.3898C89.5093 29.3992 89.5244 29.3919 89.5328 29.3678C89.538 29.3532 89.5364 29.3391 89.5281 29.3255C89.5208 29.3129 89.5161 29.2967 89.514 29.2769" stroke="currentColor" stroke-width="2"/>
<path d="M85.1118 31.9671C84.9917 31.8907 84.8214 31.8745 84.6011 31.9184" stroke="currentColor" stroke-width="2"/>
<path d="M98.5708 24.2824C98.3869 24.2991 98.211 24.1971 98.0428 23.9765C98.0136 23.9388 97.9927 23.897 97.9801 23.851C97.9572 23.7684 97.9107 23.702 97.8407 23.6518C97.801 23.6246 97.7801 23.5869 97.778 23.5388C97.7728 23.4541 97.7347 23.3888 97.6637 23.3428C97.6344 23.325 97.6083 23.303 97.5854 23.2769L97.4083 23.0824" stroke="currentColor" stroke-width="2"/>
<path d="M93.0515 29.3035C93.0619 29.1718 93.1491 29.0771 93.3131 29.0196C93.3293 29.0141 93.3429 29.0028 93.351 28.9879C93.3592 28.9731 93.3613 28.9558 93.357 28.9396L93.2927 28.6933C93.2792 28.6421 93.2572 28.5945 93.2269 28.5506C93.0651 28.3216 92.9428 28.0732 92.8603 27.8055C92.8462 27.7631 92.8173 27.7274 92.7789 27.7051C92.7026 27.6643 92.6755 27.6178 92.6974 27.5655" stroke="currentColor" stroke-width="2"/>
<path d="M101.917 15.6596L101.267 14.8345C101.241 14.8021 101.227 14.765 101.225 14.7231C101.222 14.6531 101.191 14.6013 101.129 14.5678C101.089 14.5459 101.067 14.5119 101.063 14.4659C101.051 14.3226 100.978 14.2536 100.845 14.2588" stroke="currentColor" stroke-width="2"/>
<path d="M84.3254 31.9122L82.259 31.8918" stroke="currentColor" stroke-width="2"/>
<path d="M109.318 36.9726C109.075 37.6262 108.759 38.1307 108.37 38.4863C108.249 38.5961 108.121 38.5992 107.997 38.6949C107.132 39.3537 106.153 39.291 105.403 38.5318C105.367 38.4962 105.345 38.4539 105.337 38.4047C105.325 38.3367 105.3 38.2745 105.262 38.2181C105.234 38.1773 105.215 38.1323 105.205 38.0831C105.153 37.8353 105.087 37.5906 105.008 37.349C104.929 37.1064 104.79 36.8889 104.591 36.6965C104.072 36.1956 103.526 35.7239 102.954 35.2816C102.761 35.1326 102.639 34.9365 102.453 34.7733C102.229 34.5741 102.025 34.32 101.781 34.1443C101.405 33.8714 101.101 33.462 100.755 33.1451C100.717 33.1106 100.674 33.0865 100.625 33.0729C100.561 33.0552 100.515 33.0139 100.488 32.949C100.467 32.8957 100.433 32.8523 100.386 32.8188C100.156 32.6546 99.9571 32.458 99.7911 32.229C99.7894 32.2269 99.7874 32.2252 99.7852 32.2239C99.7829 32.2226 99.7805 32.2218 99.7779 32.2215C99.7754 32.2212 99.7729 32.2214 99.7706 32.2222C99.7683 32.2229 99.7662 32.2242 99.7644 32.2259C99.7529 32.2363 99.7404 32.2442 99.7268 32.2494C99.7185 32.2515 99.7117 32.2494 99.7065 32.2431C99.483 31.9901 99.2412 31.7553 98.9811 31.5388C98.9623 31.5231 98.9414 31.5137 98.9185 31.5106C98.8965 31.5085 98.8767 31.4996 98.8589 31.4839C98.4861 31.1441 98.1325 30.7848 97.7983 30.4063C97.7628 30.3655 97.7424 30.3184 97.7372 30.2651C97.7247 30.1511 97.685 30.0502 97.6182 29.9624C97.5847 29.9195 97.5774 29.8729 97.5962 29.8228C97.6918 29.5655 97.521 29.4102 97.5257 29.1702" stroke="currentColor" stroke-width="2"/>
<path d="M98.3843 27.4337C98.8031 27.8615 99.2877 28.2113 99.8381 28.4831C100.346 28.7357 100.867 29.062 101.162 29.3977C101.46 29.7381 101.618 29.9875 101.904 30.1161C101.959 30.1401 101.997 30.1804 102.02 30.2369C102.039 30.2818 102.072 30.3122 102.119 30.3279C102.158 30.3414 102.189 30.3624 102.212 30.3906C102.404 30.6228 102.708 30.7404 102.87 30.9663C102.912 31.0248 102.96 31.0777 103.014 31.1247C103.352 31.4207 103.684 31.7229 104.01 32.0314C104.191 32.2039 104.376 32.3723 104.566 32.5365C104.641 32.6024 104.691 32.6672 104.715 32.731C104.734 32.7822 104.751 32.8147 104.765 32.8282C104.798 32.8586 104.841 32.8784 104.895 32.8879C104.939 32.8952 104.976 32.9156 105.006 32.949C105.177 33.1373 105.553 33.578 105.776 33.6706C106.156 33.8275 106.532 34.3231 106.857 34.5977C106.898 34.6332 106.929 34.6761 106.947 34.7263C106.965 34.7744 106.991 34.8173 107.026 34.8549C107.227 35.0808 107.438 35.2988 107.659 35.509C107.831 35.6743 107.935 35.8269 107.972 35.9671C108.086 36.411 107.93 36.9741 107.707 37.349C107.681 37.393 107.645 37.4259 107.598 37.4479C107.308 37.5843 107.02 37.7381 106.716 37.76C106.358 37.7851 106.031 37.6889 105.733 37.4714C105.199 37.0824 105.725 36.342 105.284 36.1616C105.238 36.1428 105.198 36.1156 105.163 36.08L104.876 35.7867C104.843 35.7532 104.803 35.7339 104.756 35.7286C104.679 35.7203 104.625 35.6811 104.591 35.611C104.569 35.5639 104.537 35.5263 104.496 35.498C104.195 35.291 103.949 35.0322 103.62 34.8753C103.573 34.8533 103.534 34.8214 103.504 34.7796C103.334 34.5475 103.126 34.3561 102.88 34.2055C102.602 34.0345 102.426 33.6706 102.163 33.4698C101.803 33.1984 101.585 32.8533 101.178 32.6118C101.135 32.5867 101.103 32.5511 101.084 32.5051C101.069 32.4716 101.048 32.4486 101.021 32.4361C100.986 32.4189 100.954 32.4026 100.929 32.3896C100.905 32.3766 100.89 32.3676 100.886 32.3639L97.5258 29.1702" stroke="currentColor" stroke-width="2"/>
<path d="M97.5258 29.1702L96.0923 27.8039" stroke="currentColor" stroke-width="2"/>
<path d="M81.2689 5.26588C76.0975 7.28 73.3716 12.7969 75.0479 18.1176C76.2291 21.8729 79.5879 24.9098 83.5797 25.3726C87.2002 25.7945 90.9037 24.4282 93.7001 22.1067C93.743 22.0711 93.7487 22.0303 93.7174 21.9843L92.8463 20.6698" stroke="currentColor" stroke-width="2"/>
<path d="M92.8462 20.6698C92.9674 20.4868 93.124 20.3571 93.3162 20.2808C93.359 20.2641 93.3951 20.2384 93.4243 20.2039L93.5888 20.0141C93.6149 19.9838 93.6483 19.9713 93.6891 19.9765C93.8457 19.9974 93.9528 19.953 94.0102 19.8432C94.0343 19.795 94.0666 19.7532 94.1074 19.7177L95.5377 18.4565C95.5763 18.423 95.6014 18.3812 95.6129 18.331C95.6333 18.2447 95.6442 18.1914 95.7132 18.1224C96.2646 17.5765 96.6114 17.1305 96.7534 16.7843C96.931 16.3493 97.1304 15.9242 97.3518 15.509C97.3759 15.463 97.3863 15.4139 97.3832 15.3616C97.3675 15.1326 97.5492 15.0322 97.5414 14.7671C97.5404 14.7232 97.5566 14.6871 97.59 14.6588C97.6808 14.5815 97.7169 14.4852 97.6981 14.3702C97.6887 14.3158 97.697 14.2641 97.7231 14.2149C97.8495 13.9817 97.8908 13.7318 97.8469 13.4651C97.8417 13.4316 97.8537 13.4071 97.8829 13.3914C97.9059 13.3778 97.9258 13.3611 97.9425 13.3412C97.9623 13.3171 97.9722 13.2821 97.9722 13.2361C97.9722 12.2113 97.9722 11.1869 97.9722 10.1631C97.9722 10.1286 97.9649 10.1004 97.9503 10.0784C97.9325 10.0513 97.9106 10.0288 97.8845 10.011C97.8385 9.97962 97.8156 9.93622 97.8156 9.8808V9.41021C97.8156 9.34224 97.7889 9.28681 97.7357 9.24393C97.6448 9.17073 97.6224 9.0672 97.6683 8.93335C97.6766 8.90777 97.6757 8.88008 97.6657 8.85513C97.6556 8.83018 97.6372 8.80955 97.6135 8.79688C97.4934 8.73204 97.4594 8.62119 97.5116 8.46433C97.5204 8.43853 97.5197 8.41041 97.5097 8.38489C97.4997 8.35937 97.481 8.33807 97.4568 8.32472C97.3346 8.25988 97.3017 8.14746 97.3581 7.98746C97.3689 7.95682 97.3674 7.9232 97.354 7.89386C97.3405 7.86452 97.3161 7.8418 97.286 7.8306C97.1983 7.79714 97.1555 7.77099 97.1576 7.75217C97.1667 7.6605 97.1528 7.56826 97.1172 7.48405C97.0816 7.39983 97.0254 7.3264 96.9539 7.2706C96.8349 7.17753 96.7586 7.05727 96.7252 6.90982C96.7137 6.86067 96.6913 6.81779 96.6578 6.78119C93.3616 3.23766 88.2999 2.18668 83.6736 3.31295C83.635 3.32236 83.6057 3.34119 83.5859 3.36942C83.5587 3.40812 83.5222 3.42851 83.4762 3.4306C83.3593 3.43478 83.2679 3.47818 83.2021 3.5608C83.1728 3.5974 83.1357 3.62197 83.0908 3.63452C82.8057 3.71714 82.5639 3.86041 82.3655 4.06433C82.3446 4.08629 82.319 4.09779 82.2887 4.09884C82.2751 4.09884 82.2616 4.09936 82.248 4.1004C82.1983 4.10548 82.1519 4.12703 82.1164 4.16158L81.2375 5.04315C81.203 5.07661 81.1963 5.11531 81.2171 5.15923L81.2688 5.2659" stroke="currentColor" stroke-width="2"/>
<path d="M92.8462 20.6698L91.0289 17.9608" stroke="currentColor" stroke-width="2"/>
<path d="M91.029 17.9608C91.3496 17.7401 91.6786 17.5336 92.0159 17.3412C92.0797 17.3035 92.1653 17.235 92.2729 17.1357C92.4248 16.9945 92.6426 16.9098 92.7679 16.7357C93.0029 16.4094 93.3789 16.1929 93.6311 15.8384C93.7424 15.6816 93.7204 15.498 93.9163 15.3459C93.957 15.3135 93.9763 15.2711 93.9742 15.2188C93.9721 15.1739 93.9873 15.1336 94.0197 15.098C94.0635 15.0489 94.0938 15.0212 94.1105 15.0149C94.1993 14.9825 94.2662 14.9056 94.3111 14.7843C94.5314 14.1966 94.6871 13.7673 94.7779 13.4965C94.8531 13.2722 94.8562 12.9725 94.9361 12.6651C95.004 12.4047 95.0228 11.817 94.9925 10.902C94.9884 10.7796 94.9555 10.6834 94.8938 10.6133C94.8573 10.5715 94.839 10.5229 94.839 10.4675V10.0518C94.839 10.0037 94.8223 9.9634 94.7889 9.93098L94.7231 9.86353C94.6865 9.82798 94.6724 9.7851 94.6808 9.7349C94.6996 9.60418 94.6787 9.49229 94.6181 9.39922C94.591 9.35634 94.5706 9.31085 94.557 9.26275C94.4944 9.03686 94.4009 8.82405 94.2766 8.62431C94.2474 8.57726 94.227 8.52601 94.2155 8.47059C94.1936 8.35869 94.1184 8.29229 93.9899 8.27137C93.9816 8.26928 93.9774 8.26405 93.9774 8.25569V8.16941C93.9774 8.11503 93.956 8.07059 93.9131 8.03608C93.8108 7.95451 93.7554 7.84784 93.7471 7.71608C93.7429 7.66275 93.7231 7.61621 93.6875 7.57647C93.1956 7.03477 92.6802 6.5166 92.1413 6.02196C92.0222 5.91216 91.8906 5.88549 91.7543 5.78039C91.6102 5.66745 91.5193 5.60053 91.4817 5.57961C90.8248 5.20628 90.1276 4.94013 89.3903 4.78118C89.3537 4.77386 89.2932 4.77281 89.2086 4.77804C89.1334 4.78432 89.0681 4.76706 89.0127 4.72628C88.972 4.69595 88.926 4.67765 88.8749 4.67137C88.1177 4.57203 87.3662 4.60967 86.6205 4.78432" stroke="currentColor" stroke-width="2"/>
<path d="M86.6205 4.78432C84.7928 4.48837 83.0089 4.64889 81.2689 5.26589" stroke="currentColor" stroke-width="2"/>
<path d="M86.6205 4.78432C90.0075 5.47765 92.5157 7.33177 94.145 10.3467C94.1563 10.3678 94.1595 10.3924 94.154 10.4155C94.1486 10.4387 94.1347 10.4589 94.1152 10.4722L86.5265 15.5984" stroke="currentColor" stroke-width="2"/>
<path d="M86.5265 15.5984L81.9457 18.6761C81.9347 18.6834 81.9254 18.6931 81.9186 18.7044C81.9117 18.7157 81.9073 18.7283 81.9059 18.7415C81.9044 18.7546 81.9058 18.7679 81.9099 18.7805C81.9141 18.793 81.9209 18.8045 81.93 18.8141C83.3979 20.3937 85.8497 20.2667 87.6842 19.5043C88.7736 19.0515 89.7866 18.4073 90.7235 17.5718" stroke="currentColor" stroke-width="2"/>
<path d="M90.7235 17.5718L91.029 17.9608" stroke="currentColor" stroke-width="2"/>
<path d="M90.7235 17.5718C90.5981 17.5927 90.4833 17.6565 90.3788 17.7631C90.3423 17.8018 90.2973 17.8243 90.2441 17.8306C89.9798 17.863 89.6963 17.9519 89.3934 18.0973C89.2232 18.1778 89.0237 18.2034 88.7949 18.1741C88.7365 18.1668 88.6889 18.1862 88.6524 18.2322C88.6419 18.2447 88.6331 18.2583 88.6258 18.2729C88.6017 18.3158 88.5652 18.3367 88.5161 18.3357L87.3709 18.32C87.3548 18.32 87.3391 18.315 87.3259 18.3058C87.3127 18.2965 87.3027 18.2834 87.2972 18.2682L87.2785 18.2165C87.2691 18.1893 87.2503 18.1757 87.2221 18.1757H86.633C86.6069 18.1757 86.5811 18.1692 86.5579 18.1569C86.5347 18.1446 86.5148 18.1268 86.4998 18.1051C86.4434 18.0214 86.3703 17.989 86.2805 18.0079C86.0789 18.0507 85.9296 18.0178 85.8325 17.909C85.7969 17.8693 85.7536 17.8552 85.7024 17.8667C85.5698 17.8949 85.4627 17.8562 85.3813 17.7506C85.3541 17.7161 85.3191 17.702 85.2763 17.7082C85.2053 17.7177 85.1458 17.6947 85.0977 17.6392C85.0632 17.6005 85.0209 17.5749 84.9708 17.5624C84.8246 17.5247 84.7154 17.4353 84.6434 17.2941C84.6173 17.2439 84.6277 17.2026 84.6747 17.1702L86.1802 16.1239" stroke="currentColor" stroke-width="2"/>
<path d="M86.1803 16.1239L86.1897 16.3765C86.1918 16.4476 86.2273 16.4743 86.2962 16.4565C86.4487 16.4199 86.5761 16.4643 86.6785 16.5898C86.7077 16.6275 86.7464 16.6463 86.7944 16.6463H87.4524C87.4628 16.6463 87.4702 16.651 87.4743 16.6604C87.4816 16.6761 87.489 16.6912 87.4963 16.7059C87.5007 16.7143 87.5069 16.7216 87.5145 16.7273C87.5221 16.733 87.5309 16.7369 87.5401 16.7388C87.8472 16.8078 88.1459 16.7838 88.4362 16.6667C88.5637 16.6154 88.8279 16.6071 89.229 16.6416C89.2519 16.6437 89.2707 16.6405 89.2854 16.6322C89.3073 16.6217 89.324 16.6071 89.3355 16.5882C89.3606 16.5506 89.3955 16.5318 89.4404 16.5318C89.5804 16.5318 89.6958 16.5046 89.7867 16.4502C90.0739 16.2787 90.3695 16.1218 90.6734 15.9796C90.7235 15.9556 90.7648 15.9205 90.7972 15.8745C90.864 15.7793 90.9549 15.7234 91.0697 15.7067C91.123 15.6993 91.1669 15.6742 91.2013 15.6314C91.3909 15.3961 91.6666 15.2675 91.828 15.0573C91.9674 14.8753 92.0395 14.6651 92.1899 14.4847C92.3638 14.2745 92.4343 13.9875 92.5925 13.7569C92.6228 13.714 92.6437 13.6669 92.6552 13.6157L92.9967 12.1867C93.0092 12.1323 93.0286 12.0805 93.0547 12.0314C93.1246 11.9027 93.1356 11.7699 93.0876 11.6329C93.0646 11.5681 93.0244 11.555 92.9669 11.5937L86.691 15.7678" stroke="currentColor" stroke-width="2"/>
<path d="M86.691 15.7678L86.5265 15.5984" stroke="currentColor" stroke-width="2"/>
<path d="M86.1803 16.1239L86.691 15.7679" stroke="currentColor" stroke-width="2"/>
<path d="M80.9336 14.6761L83.3885 13.0228" stroke="currentColor" stroke-width="2"/>
<path d="M83.3885 13.0228L87.1563 10.4643" stroke="currentColor" stroke-width="2"/>
<path d="M87.1562 10.4643C87.2304 10.4507 87.2878 10.4188 87.3286 10.3686C87.3609 10.3299 87.3552 10.2986 87.3113 10.2745C83.7786 8.37491 79.555 11.0353 80.0672 15.1482C80.0756 15.211 80.1059 15.2251 80.1581 15.1906L80.9336 14.6761" stroke="currentColor" stroke-width="2"/>
<path d="M87.1563 10.4643C86.9234 10.3556 86.7103 10.2688 86.5171 10.2039C85.481 9.85674 84.4445 9.83687 83.4073 10.1443" stroke="currentColor" stroke-width="2"/>
<path d="M83.4074 10.1443C82.081 10.5595 81.1467 11.4013 80.6047 12.6698C80.5828 12.7221 80.576 12.7759 80.5843 12.8314C80.5979 12.9203 80.5718 12.9888 80.506 13.0369C80.4838 13.054 80.4692 13.0787 80.4653 13.1059C80.459 13.1435 80.4694 13.1718 80.4966 13.1906C80.5415 13.222 80.5593 13.2648 80.5499 13.3192C80.5164 13.5054 80.5504 13.6743 80.6517 13.8259C80.6778 13.8646 80.6877 13.9075 80.6815 13.9545C80.6595 14.102 80.6976 14.216 80.7958 14.2965C80.8224 14.3189 80.842 14.3495 80.8522 14.3843L80.9337 14.6761" stroke="currentColor" stroke-width="2"/>
<path d="M83.3885 13.0227C83.1744 12.3524 83.107 11.6549 83.1864 10.9302C83.1916 10.88 83.213 10.8387 83.2506 10.8063C83.3133 10.7509 83.3373 10.6792 83.3227 10.5914C83.2945 10.4178 83.3227 10.2688 83.4073 10.1443" stroke="currentColor" stroke-width="2"/>
<path d="M97.2031 3.95452C97.483 4.38432 97.671 4.65674 97.767 4.77177C99.4788 6.81622 100.443 9.17491 100.661 11.8478C100.663 11.8656 100.672 11.874 100.689 11.8729H100.69C100.708 11.8729 100.717 11.8641 100.717 11.8463C100.725 11.5974 100.736 11.3475 100.748 11.0965C100.749 11.0818 100.753 11.0709 100.759 11.0635C100.773 11.0489 100.792 11.0405 100.816 11.0384C100.862 11.0332 100.883 11.0536 100.88 11.0996L100.631 14.7231C100.631 14.7248 100.63 14.7264 100.629 14.7277C100.629 14.7291 100.627 14.7303 100.626 14.7311C100.625 14.7319 100.623 14.7323 100.621 14.7323C100.62 14.7322 100.618 14.7318 100.617 14.731L100.543 14.6918C100.539 14.6898 100.535 14.6885 100.531 14.688C100.527 14.6876 100.523 14.688 100.519 14.6891C100.515 14.6903 100.511 14.6923 100.508 14.6949C100.505 14.6975 100.503 14.7007 100.501 14.7043C100.495 14.7169 100.489 14.7289 100.484 14.7404C100.479 14.7498 100.473 14.7561 100.463 14.7592C100.343 14.799 100.265 14.7739 100.23 14.6839C100.221 14.6616 100.205 14.6426 100.185 14.6292C100.165 14.6158 100.141 14.6086 100.117 14.6086H100.029C99.9843 14.6086 99.9514 14.5882 99.9306 14.5475C99.8856 14.4607 99.8157 14.4293 99.7206 14.4533C99.6705 14.4659 99.6366 14.4476 99.6188 14.3984C99.6031 14.3524 99.576 14.3205 99.5373 14.3027C99.4997 14.285 99.4736 14.2567 99.459 14.218C99.4256 14.1271 99.3817 14.1093 99.3274 14.1647C99.4423 11.0641 98.6005 8.3655 96.802 6.06903C92.7523 0.897262 85.4032 0.39687 79.8245 3.09334C79.6427 2.61177 79.3169 2.74511 78.9518 2.53177C78.932 2.52008 78.9096 2.51341 78.8864 2.51231C78.8632 2.51122 78.84 2.51575 78.8187 2.5255C78.6354 2.6055 78.4975 2.59452 78.3236 2.69648C78.0025 2.88471 77.6547 3.03687 77.3617 3.23922C75.9225 4.22746 74.6107 5.36262 73.4263 6.64471C73.2211 6.86746 73.019 7.17177 72.7887 7.41334C72.5725 7.64027 72.4138 7.82903 72.3125 7.97961C71.7986 8.74092 71.3767 9.40131 71.0466 9.96079C71.031 9.98693 71.0237 10.0204 71.0247 10.0612C71.0268 10.1135 71.0158 10.1626 70.9918 10.2086C70.8466 10.491 70.7062 10.7775 70.5704 11.0682C70.4868 11.245 70.4978 11.3919 70.6033 11.509C70.727 11.6455 70.8539 11.6157 71.0247 11.691C71.0675 11.7109 71.1015 11.7412 71.1265 11.782C71.1704 11.852 71.2498 11.8928 71.3647 11.9043C70.008 15.2314 69.8294 18.9145 71.2158 22.2212C71.0675 22.2829 70.8879 22.2405 70.6769 22.0941C70.6508 22.0763 70.6278 22.056 70.608 22.0329C70.5599 21.9765 70.4936 21.9577 70.409 21.9765C70.385 21.9828 70.3657 21.9828 70.3511 21.9765C70.3218 21.966 70.2988 21.9472 70.2821 21.92C70.2591 21.8813 70.2252 21.8625 70.1803 21.8635C70.0633 21.8667 69.9667 21.8275 69.8905 21.7459C69.8748 21.7298 69.8541 21.7195 69.8316 21.7167C69.8092 21.7138 69.7863 21.7186 69.7667 21.7302L69.5082 21.8902C68.2283 17.7177 68.9724 13.2831 71.1438 9.54667C74.5167 3.96079 80.3884 0.211772 86.9871 0.0611835C90.7721 -0.025091 94.5053 1.2706 97.2031 3.95452Z" fill="currentColor"/>
<path d="M99.3273 14.1647C99.1095 17.5231 97.922 20.2949 95.9042 22.9757C93.1987 26.2071 89.8633 28.3357 85.7415 29.1953C79.8024 30.3028 73.7615 28.0094 71.2157 22.2212C69.8293 18.9145 70.0079 15.2314 71.3646 11.9043C73.0889 7.95661 75.9088 5.01961 79.8244 3.09334C85.4031 0.396869 92.7522 0.897261 96.8019 6.06903C98.6004 8.3655 99.4422 11.0641 99.3273 14.1647ZM81.2688 5.26589C76.0973 7.28001 73.3714 12.7969 75.0477 18.1177C76.2289 21.8729 79.5878 24.9098 83.5796 25.3726C87.2 25.7945 90.9035 24.4282 93.7 22.1067C93.7428 22.0711 93.7485 22.0303 93.7172 21.9843L92.8462 20.6698C92.9673 20.4868 93.124 20.3571 93.3162 20.2808C93.359 20.2641 93.395 20.2384 93.4243 20.2039L93.5888 20.0141C93.6149 19.9838 93.6483 19.9712 93.689 19.9765C93.8457 19.9974 93.9527 19.9529 94.0102 19.8431C94.0342 19.795 94.0666 19.7532 94.1073 19.7177L95.5376 18.4565C95.5763 18.423 95.6013 18.3812 95.6128 18.331C95.6332 18.2447 95.6442 18.1914 95.7131 18.1224C96.2645 17.5765 96.6113 17.1305 96.7533 16.7843C96.9309 16.3493 97.1304 15.9242 97.3518 15.509C97.3758 15.463 97.3863 15.4139 97.3831 15.3616C97.3675 15.1326 97.5492 15.0322 97.5413 14.7671C97.5403 14.7231 97.5565 14.6871 97.5899 14.6588C97.6808 14.5814 97.7168 14.4852 97.698 14.3702C97.6886 14.3158 97.697 14.2641 97.7231 14.2149C97.8495 13.9817 97.8907 13.7318 97.8468 13.4651C97.8416 13.4316 97.8536 13.4071 97.8829 13.3914C97.9058 13.3778 97.9257 13.361 97.9424 13.3412C97.9622 13.3171 97.9722 13.2821 97.9722 13.2361C97.9722 12.2112 97.9722 11.1869 97.9722 10.1631C97.9722 10.1286 97.9649 10.1004 97.9502 10.0784C97.9325 10.0512 97.9106 10.0288 97.8844 10.011C97.8385 9.97962 97.8155 9.93622 97.8155 9.88079V9.4102C97.8155 9.34223 97.7889 9.2868 97.7356 9.24393C97.6447 9.17072 97.6223 9.0672 97.6682 8.93334C97.6766 8.90777 97.6756 8.88008 97.6656 8.85512C97.6556 8.83017 97.6371 8.80955 97.6134 8.79687C97.4933 8.73203 97.4594 8.62118 97.5116 8.46432C97.5203 8.43853 97.5197 8.41041 97.5096 8.38488C97.4996 8.35936 97.4809 8.33806 97.4568 8.32471C97.3346 8.25988 97.3017 8.14746 97.3581 7.98746C97.3689 7.95681 97.3674 7.92319 97.3539 7.89385C97.3404 7.86451 97.316 7.84179 97.286 7.83059C97.1983 7.79713 97.1554 7.77099 97.1575 7.75216C97.1667 7.6605 97.1528 7.56825 97.1172 7.48404C97.0816 7.39983 97.0254 7.32639 96.9539 7.2706C96.8348 7.17752 96.7586 7.05726 96.7251 6.90981C96.7136 6.86066 96.6912 6.81778 96.6578 6.78118C93.3616 3.23765 88.2998 2.18667 83.6736 3.31295C83.6349 3.32236 83.6057 3.34118 83.5858 3.36942C83.5587 3.40811 83.5221 3.4285 83.4762 3.43059C83.3592 3.43478 83.2678 3.47818 83.202 3.56079C83.1728 3.59739 83.1357 3.62197 83.0908 3.63452C82.8056 3.71713 82.5639 3.8604 82.3654 4.06432C82.3445 4.08628 82.3189 4.09778 82.2887 4.09883C82.2751 4.09883 82.2615 4.09935 82.2479 4.1004C82.1982 4.10547 82.1519 4.12703 82.1163 4.16157L81.2375 5.04314C81.203 5.07661 81.1962 5.1153 81.2171 5.15922L81.2688 5.26589Z" fill="currentColor"/>
<path d="M79.8244 3.09333C75.9088 5.01961 73.0889 7.9566 71.3646 11.9043C71.2497 11.8928 71.1703 11.852 71.1264 11.782C71.1014 11.7412 71.0674 11.7108 71.0246 11.691C70.8538 11.6157 70.7269 11.6455 70.6032 11.509C70.4977 11.3919 70.4867 11.245 70.5703 11.0682C70.7061 10.7775 70.8465 10.491 70.9917 10.2086C71.0157 10.1626 71.0267 10.1135 71.0246 10.0612C71.0236 10.0204 71.0309 9.98693 71.0465 9.96078C71.3766 9.4013 71.7985 8.74091 72.3124 7.9796C72.4137 7.82902 72.5724 7.64026 72.7886 7.41333C73.0189 7.17176 73.221 6.86745 73.4262 6.6447C74.6106 5.36261 75.9224 4.22745 77.3616 3.23921C77.6546 3.03686 78.0024 2.8847 78.3235 2.69647C78.4974 2.59451 78.6353 2.60549 78.8186 2.52549C78.8399 2.51574 78.8631 2.51121 78.8863 2.51231C78.9095 2.5134 78.9319 2.52007 78.9517 2.53176C79.3168 2.7451 79.6426 2.61176 79.8244 3.09333Z" fill="currentColor"/>
<path d="M92.8462 20.6698L91.0289 17.9608C91.3496 17.7401 91.6786 17.5336 92.0159 17.3412C92.0796 17.3035 92.1653 17.235 92.2728 17.1357C92.4248 16.9945 92.6426 16.9098 92.7679 16.7357C93.0029 16.4094 93.3789 16.1929 93.6311 15.8384C93.7423 15.6816 93.7204 15.498 93.9162 15.3459C93.957 15.3135 93.9763 15.2711 93.9742 15.2188C93.9721 15.1739 93.9873 15.1336 94.0196 15.098C94.0635 15.0489 94.0938 15.0212 94.1105 15.0149C94.1993 14.9825 94.2661 14.9056 94.311 14.7843C94.5314 14.1966 94.687 13.7673 94.7779 13.4965C94.8531 13.2722 94.8562 12.9725 94.9361 12.6651C95.004 12.4047 95.0228 11.817 94.9925 10.902C94.9883 10.7796 94.9554 10.6834 94.8938 10.6133C94.8573 10.5715 94.839 10.5229 94.839 10.4674V10.0518C94.839 10.0037 94.8223 9.9634 94.7888 9.93098L94.723 9.86353C94.6865 9.82797 94.6724 9.78509 94.6807 9.7349C94.6995 9.60418 94.6787 9.49228 94.6181 9.39921C94.5909 9.35634 94.5706 9.31085 94.557 9.26274C94.4943 9.03686 94.4008 8.82405 94.2766 8.62431C94.2473 8.57725 94.227 8.52601 94.2155 8.47059C94.1935 8.35869 94.1183 8.29228 93.9899 8.27137C93.9815 8.26928 93.9773 8.26405 93.9773 8.25568V8.16941C93.9773 8.11503 93.9559 8.07058 93.9131 8.03608C93.8108 7.95451 93.7554 7.84784 93.747 7.71608C93.7429 7.66274 93.723 7.61621 93.6875 7.57647C93.1956 7.03477 92.6802 6.5166 92.1412 6.02196C92.0222 5.91215 91.8906 5.88549 91.7543 5.78039C91.6102 5.66745 91.5193 5.60052 91.4817 5.57961C90.8248 5.20627 90.1276 4.94013 89.3903 4.78117C89.3537 4.77385 89.2931 4.77281 89.2085 4.77804C89.1333 4.78431 89.068 4.76706 89.0127 4.72627C88.972 4.69595 88.926 4.67764 88.8748 4.67137C88.1176 4.57202 87.3662 4.60967 86.6204 4.78431C84.7927 4.48836 83.0088 4.64889 81.2688 5.26588L81.2171 5.15921C81.1963 5.11529 81.203 5.0766 81.2375 5.04313L82.1164 4.16157C82.1519 4.12702 82.1983 4.10546 82.248 4.10039C82.2616 4.09934 82.2751 4.09882 82.2887 4.09882C82.319 4.09778 82.3446 4.08627 82.3655 4.06431C82.5639 3.86039 82.8057 3.71712 83.0908 3.63451C83.1357 3.62196 83.1728 3.59738 83.2021 3.56078C83.2679 3.47817 83.3593 3.43477 83.4762 3.43058C83.5222 3.42849 83.5587 3.4081 83.5859 3.36941C83.6057 3.34117 83.635 3.32235 83.6736 3.31294C88.2999 2.18666 93.3616 3.23764 96.6578 6.78117C96.6913 6.81777 96.7137 6.86065 96.7252 6.9098C96.7586 7.05725 96.8349 7.17751 96.9539 7.27059C97.0254 7.32639 97.0816 7.39982 97.1172 7.48403C97.1528 7.56824 97.1667 7.66049 97.1576 7.75215C97.1555 7.77098 97.1983 7.79712 97.286 7.83059C97.3161 7.84178 97.3405 7.8645 97.354 7.89384C97.3674 7.92318 97.3689 7.9568 97.3581 7.98745C97.3017 8.14745 97.3346 8.25987 97.4568 8.3247C97.481 8.33805 97.4997 8.35935 97.5097 8.38488C97.5197 8.4104 97.5204 8.43852 97.5116 8.46431C97.4594 8.62117 97.4934 8.73202 97.6135 8.79686C97.6372 8.80954 97.6556 8.83016 97.6657 8.85511C97.6757 8.88007 97.6766 8.90776 97.6683 8.93333C97.6224 9.06719 97.6448 9.17071 97.7357 9.24392C97.7889 9.28679 97.8156 9.34222 97.8156 9.41019V9.88078C97.8156 9.93621 97.8385 9.97961 97.8845 10.011C97.9106 10.0288 97.9325 10.0512 97.9503 10.0784C97.9649 10.1004 97.9722 10.1286 97.9722 10.1631C97.9722 11.1869 97.9722 12.2112 97.9722 13.2361C97.9722 13.2821 97.9623 13.3171 97.9425 13.3412C97.9258 13.361 97.9059 13.3778 97.8829 13.3914C97.8537 13.4071 97.8417 13.4316 97.8469 13.4651C97.8908 13.7318 97.8495 13.9817 97.7231 14.2149C97.697 14.264 97.6887 14.3158 97.6981 14.3702C97.7169 14.4852 97.6808 14.5814 97.59 14.6588C97.5566 14.6871 97.5404 14.7231 97.5414 14.7671C97.5492 15.0322 97.3675 15.1325 97.3832 15.3616C97.3863 15.4139 97.3759 15.463 97.3518 15.509C97.1304 15.9242 96.931 16.3493 96.7534 16.7843C96.6114 17.1305 96.2646 17.5765 95.7132 18.1224C95.6442 18.1914 95.6333 18.2447 95.6129 18.331C95.6014 18.3812 95.5763 18.423 95.5377 18.4565L94.1074 19.7176C94.0666 19.7532 94.0343 19.795 94.0102 19.8431C93.9528 19.9529 93.8457 19.9974 93.6891 19.9765C93.6483 19.9712 93.6149 19.9838 93.5888 20.0141L93.4243 20.2039C93.3951 20.2384 93.359 20.2641 93.3162 20.2808C93.124 20.3571 92.9674 20.4868 92.8462 20.6698Z" fill="currentColor"/>
<path d="M97.2029 3.95451C97.9831 4.73987 98.6395 5.56079 99.1722 6.41726C99.7205 7.4651 100.154 8.52706 100.474 9.60314C100.523 9.77098 100.469 9.92942 100.604 10.1035C100.638 10.1464 100.647 10.194 100.632 10.2463C100.607 10.3331 100.589 10.4204 100.577 10.5082C100.561 10.6295 100.586 10.7158 100.654 10.7671C100.721 10.8173 100.757 10.8005 100.761 10.7169L100.77 10.5098C100.779 10.3153 100.829 10.3038 100.921 10.4753L101.154 10.9114C101.182 10.9626 101.219 11.0076 101.264 11.0463C101.403 11.1624 101.376 11.2878 101.48 11.4118C101.521 11.462 101.564 11.5106 101.61 11.5576C101.892 12.5647 102.015 13.6246 101.978 14.7373C101.721 14.4716 101.512 14.1825 101.351 13.8698C101.232 13.6392 100.988 13.451 101.005 13.0886C101.006 13.0625 100.994 13.0484 100.968 13.0463L100.928 13.0447C100.923 13.0447 100.921 13.0468 100.921 13.051L100.845 14.2588C100.749 14.6729 100.727 14.9997 100.78 15.2392L100.574 16.2886L99.8192 18.7875L99.1832 20.1898C98.6515 21.246 98.0599 22.2102 97.4082 23.0824L95.8948 24.9004C94.9319 25.8918 93.866 26.7801 92.6973 27.5655L90.6027 28.7906L89.5139 29.2769L89.0518 29.4886C89.0037 29.5106 88.9536 29.5221 88.9014 29.5231C88.8199 29.5263 88.7468 29.5582 88.6821 29.6188C88.6476 29.6512 88.6069 29.6675 88.5599 29.6675C88.5202 29.6664 88.4878 29.6774 88.4627 29.7004C88.4241 29.736 88.4173 29.7767 88.4424 29.8227C88.527 29.9733 88.6283 30.1119 88.7463 30.2384C88.787 30.2813 88.8079 30.3587 88.809 30.4706C88.81 30.525 88.8288 30.572 88.8653 30.6118C88.9698 30.7226 89.0236 30.8591 89.0267 31.0212L88.5567 31.1592C87.175 31.5655 85.7478 31.7208 84.601 31.9184L84.3253 31.9122L84.0386 31.8902C84.0136 31.8879 83.9899 31.8787 83.97 31.8638C83.95 31.8488 83.9347 31.8286 83.9258 31.8055C83.7895 31.451 83.5075 31.1326 83.4793 30.7451C83.4751 30.6834 83.5038 30.652 83.5654 30.651L83.8036 30.6463C84.2589 30.7655 84.6877 30.7362 85.0898 30.5584C85.1368 30.5375 85.1864 30.5307 85.2386 30.538C85.4684 30.5684 85.6887 30.5417 85.8997 30.458C86.0674 30.3906 86.1958 30.4188 86.3697 30.3859C86.423 30.3754 86.4256 30.3571 86.3775 30.331L86.3227 30.3027C86.3151 30.2987 86.3088 30.2926 86.3043 30.2853C86.2998 30.2779 86.2974 30.2695 86.2972 30.2609C86.2971 30.2522 86.2992 30.2437 86.3034 30.2362C86.3076 30.2287 86.3137 30.2224 86.3211 30.218C86.3901 30.1752 86.4705 30.1495 86.5624 30.1412L87.034 30.2353C87.0987 30.2478 87.1092 30.2295 87.0653 30.1804L87.0308 30.1412C86.9953 30.1014 87.0011 30.068 87.0481 30.0408C87.1368 29.9875 87.2397 29.9958 87.3567 30.0659C87.4225 30.1056 87.4982 30.1051 87.5838 30.0643C87.6402 30.0371 87.6371 30.023 87.5744 30.022C87.5389 30.0209 87.5034 30.0131 87.4679 29.9984C87.4573 29.9943 87.4481 29.9872 87.4414 29.9779C87.4346 29.9687 87.4307 29.9577 87.4301 29.9463C87.4294 29.9349 87.432 29.9236 87.4376 29.9136C87.4432 29.9037 87.4516 29.8955 87.4617 29.8902C87.5734 29.8295 87.6919 29.7935 87.8173 29.782C87.859 29.7788 87.8951 29.7631 87.9254 29.7349C87.9609 29.7014 88.0141 29.679 88.0852 29.6675C88.3087 29.6288 88.5813 29.5451 88.9029 29.4165C92.0613 28.1501 94.7047 26.1914 96.8332 23.5404C96.8687 23.4975 96.863 23.4609 96.816 23.4306L96.4087 23.1718C96.3857 23.1571 96.3695 23.1373 96.3601 23.1122C96.3517 23.0912 96.335 23.0782 96.31 23.0729C96.123 23.0395 95.9878 23.0071 95.9042 22.9757C97.922 20.2949 99.1095 17.5231 99.3273 14.1647C99.3816 14.1093 99.4255 14.1271 99.4589 14.218C99.4735 14.2567 99.4996 14.285 99.5372 14.3027C99.5759 14.3205 99.603 14.3524 99.6187 14.3984C99.6364 14.4476 99.6704 14.4659 99.7205 14.4533C99.8156 14.4293 99.8855 14.4607 99.9304 14.5475C99.9513 14.5882 99.9842 14.6086 100.029 14.6086H100.117C100.141 14.6086 100.165 14.6158 100.185 14.6292C100.205 14.6426 100.22 14.6616 100.23 14.6839C100.265 14.7739 100.343 14.799 100.463 14.7592C100.472 14.7561 100.479 14.7498 100.483 14.7404C100.489 14.7289 100.494 14.7169 100.501 14.7043C100.502 14.7007 100.505 14.6975 100.508 14.6949C100.511 14.6923 100.515 14.6903 100.519 14.6891C100.523 14.688 100.527 14.6876 100.531 14.688C100.535 14.6885 100.539 14.6898 100.543 14.6918L100.617 14.731C100.618 14.7318 100.62 14.7322 100.621 14.7322C100.623 14.7323 100.624 14.7319 100.626 14.7311C100.627 14.7303 100.629 14.7291 100.629 14.7277C100.63 14.7263 100.631 14.7248 100.631 14.7231L100.88 11.0996C100.883 11.0536 100.862 11.0332 100.816 11.0384C100.792 11.0405 100.773 11.0489 100.759 11.0635C100.753 11.0709 100.749 11.0818 100.748 11.0965C100.736 11.3475 100.725 11.5974 100.717 11.8463C100.717 11.8641 100.708 11.8729 100.69 11.8729H100.689C100.672 11.874 100.663 11.8656 100.66 11.8478C100.443 9.1749 99.4787 6.81621 97.7669 4.77177C97.6708 4.65673 97.4828 4.38432 97.2029 3.95451Z" fill="currentColor"/>
<path d="M91.029 17.9608L90.7235 17.5718C90.5981 17.5927 90.4833 17.6565 90.3788 17.7631C90.3423 17.8018 90.2973 17.8243 90.2441 17.8306C89.9798 17.863 89.6963 17.9519 89.3934 18.0973C89.2232 18.1778 89.0237 18.2034 88.7949 18.1741C88.7365 18.1668 88.6889 18.1861 88.6524 18.2322C88.6419 18.2447 88.6331 18.2583 88.6258 18.2729C88.6017 18.3158 88.5652 18.3367 88.5161 18.3357L87.3709 18.32C87.3548 18.32 87.3391 18.315 87.3259 18.3058C87.3127 18.2965 87.3027 18.2834 87.2972 18.2682L87.2785 18.2165C87.2691 18.1893 87.2503 18.1757 87.2221 18.1757H86.633C86.6069 18.1756 86.5811 18.1692 86.5579 18.1569C86.5347 18.1446 86.5148 18.1268 86.4998 18.1051C86.4434 18.0214 86.3703 17.989 86.2805 18.0078C86.0789 18.0507 85.9296 18.0178 85.8325 17.909C85.7969 17.8693 85.7536 17.8552 85.7024 17.8667C85.5698 17.8949 85.4627 17.8562 85.3813 17.7506C85.3541 17.7161 85.3191 17.702 85.2763 17.7082C85.2053 17.7177 85.1458 17.6946 85.0977 17.6392C85.0632 17.6005 85.0209 17.5749 84.9708 17.5624C84.8246 17.5247 84.7154 17.4353 84.6434 17.2941C84.6173 17.2439 84.6277 17.2026 84.6747 17.1702L86.1802 16.1239L86.1896 16.3765C86.1917 16.4476 86.2272 16.4743 86.2962 16.4565C86.4487 16.4199 86.5761 16.4643 86.6784 16.5898C86.7077 16.6275 86.7463 16.6463 86.7944 16.6463H87.4523C87.4628 16.6463 87.4701 16.651 87.4743 16.6604C87.4816 16.6761 87.4889 16.6912 87.4962 16.7059C87.5006 16.7143 87.5069 16.7216 87.5145 16.7273C87.522 16.733 87.5308 16.7369 87.5401 16.7388C87.8471 16.8078 88.1458 16.7838 88.4362 16.6667C88.5636 16.6154 88.8278 16.6071 89.2289 16.6416C89.2519 16.6437 89.2707 16.6405 89.2853 16.6322C89.3072 16.6217 89.3239 16.6071 89.3354 16.5882C89.3605 16.5506 89.3955 16.5318 89.4404 16.5318C89.5803 16.5318 89.6958 16.5046 89.7866 16.4502C90.0738 16.2787 90.3694 16.1218 90.6733 15.9796C90.7235 15.9556 90.7647 15.9205 90.7971 15.8745C90.8639 15.7794 90.9548 15.7234 91.0697 15.7067C91.123 15.6994 91.1668 15.6743 91.2013 15.6314C91.3909 15.3961 91.6666 15.2675 91.8279 15.0573C91.9674 14.8753 92.0394 14.6651 92.1898 14.4847C92.3637 14.2745 92.4342 13.9875 92.5925 13.7569C92.6227 13.714 92.6436 13.6669 92.6551 13.6157L92.9966 12.1867C93.0092 12.1323 93.0285 12.0805 93.0546 12.0314C93.1246 11.9027 93.1356 11.7699 93.0875 11.6329C93.0645 11.5681 93.0243 11.555 92.9669 11.5937L86.691 15.7678L86.5265 15.5984L94.1152 10.4722C94.1347 10.4589 94.1485 10.4387 94.154 10.4155C94.1595 10.3924 94.1563 10.3678 94.145 10.3467C92.5157 7.33177 90.0075 5.47765 86.6205 4.78432C87.3662 4.60967 88.1176 4.57203 88.8748 4.67137C88.926 4.67765 88.972 4.69595 89.0127 4.72628C89.0681 4.76706 89.1333 4.78432 89.2085 4.77804C89.2931 4.77281 89.3537 4.77386 89.3903 4.78118C90.1276 4.94013 90.8248 5.20628 91.4817 5.57961C91.5193 5.60053 91.6102 5.66745 91.7543 5.78039C91.8906 5.88549 92.0222 5.91216 92.1413 6.02196C92.6802 6.5166 93.1956 7.03477 93.6875 7.57647C93.723 7.61621 93.7429 7.66275 93.7471 7.71608C93.7554 7.84785 93.8108 7.95451 93.9131 8.03608C93.9559 8.07059 93.9774 8.11503 93.9774 8.16941V8.25569C93.9774 8.26406 93.9815 8.26928 93.9899 8.27137C94.1184 8.29229 94.1936 8.35869 94.2155 8.47059C94.227 8.52602 94.2473 8.57726 94.2766 8.62432C94.4009 8.82405 94.4943 9.03687 94.557 9.26275C94.5706 9.31085 94.591 9.35634 94.6181 9.39922C94.6787 9.49229 94.6996 9.60419 94.6808 9.7349C94.6724 9.7851 94.6865 9.82798 94.7231 9.86353L94.7889 9.93098C94.8223 9.9634 94.839 10.0037 94.839 10.0518V10.4675C94.839 10.5229 94.8573 10.5715 94.8938 10.6133C94.9554 10.6834 94.9883 10.7796 94.9925 10.902C95.0228 11.817 95.004 12.4047 94.9361 12.6651C94.8562 12.9726 94.8531 13.2722 94.7779 13.4965C94.687 13.7673 94.5314 14.1966 94.311 14.7843C94.2661 14.9056 94.1993 14.9825 94.1105 15.0149C94.0938 15.0212 94.0635 15.0489 94.0197 15.098C93.9873 15.1336 93.9721 15.1739 93.9742 15.2188C93.9763 15.2711 93.957 15.3135 93.9163 15.3459C93.7204 15.498 93.7424 15.6816 93.6311 15.8384C93.3789 16.1929 93.0029 16.4094 92.7679 16.7357C92.6426 16.9098 92.4248 16.9945 92.2729 17.1357C92.1653 17.235 92.0796 17.3035 92.0159 17.3412C91.6786 17.5336 91.3496 17.7401 91.029 17.9608Z" fill="currentColor"/>
<path d="M99.1722 6.41725L99.6563 7.04784C100.545 8.48993 101.196 9.9932 101.61 11.5576C101.564 11.5106 101.521 11.462 101.48 11.4118C101.376 11.2878 101.403 11.1624 101.264 11.0463C101.219 11.0076 101.182 10.9626 101.154 10.9114L100.921 10.4753C100.829 10.3038 100.779 10.3153 100.77 10.5098L100.761 10.7169C100.757 10.8005 100.721 10.8173 100.654 10.7671C100.586 10.7158 100.561 10.6295 100.578 10.5082C100.589 10.4204 100.607 10.3331 100.632 10.2463C100.647 10.194 100.638 10.1464 100.604 10.1035C100.469 9.92941 100.523 9.77098 100.474 9.60313C100.155 8.52706 99.7206 7.46509 99.1722 6.41725Z" fill="currentColor"/>
<path d="M6.48589 9.59843C6.00337 8.94589 4.63414 9.00079 4.30515 9.86353C4.22682 10.0695 4.18191 10.331 4.17042 10.6478C4.12499 11.8808 5.26862 12.4439 6.2321 12.8722C7.01646 13.2225 7.9956 13.7265 9.16953 14.3843C10.3309 15.0348 10.9899 16.0267 11.1466 17.36C11.4599 20.0282 10.3163 22.171 7.5982 22.7012C5.73705 23.0651 2.88735 23.0416 1.40532 21.7961C0.175518 20.7624 -0.0375442 19.0526 0.0439205 17.5216C0.0460093 17.4745 0.0710753 17.451 0.119119 17.451L4.03256 17.4337C4.08582 17.4327 4.11193 17.4588 4.11089 17.5122C4.08582 18.4282 3.86649 20.1051 5.20283 20.4141C6.54229 20.7247 7.22064 19.8024 7.21438 18.5694C7.20811 17.3726 6.33706 16.7341 5.29212 16.2494C3.88999 15.6 2.87952 15.1859 1.82361 14.4439C0.451244 13.4792 0.0705532 12.4063 0.150451 10.7388C0.247582 8.7451 1.42569 7.35373 3.40904 6.93177C5.18403 6.5553 8.02589 6.53177 9.52202 7.67059C10.7644 8.61334 11.0338 10.1443 10.9618 11.6455C10.9609 11.6599 10.9547 11.6735 10.9442 11.6834C10.9337 11.6933 10.9198 11.6988 10.9054 11.6988L6.89478 11.6863C6.88415 11.6863 6.87363 11.6841 6.86389 11.6799C6.85414 11.6756 6.84538 11.6694 6.83816 11.6616C6.83095 11.6538 6.82543 11.6445 6.82196 11.6345C6.81849 11.6244 6.81715 11.6137 6.81802 11.6031C6.86345 10.9506 6.86815 10.1161 6.48589 9.59843Z" fill="currentColor"/>
<path d="M16.293 15.6016C16.2543 16.6128 16.3128 17.7511 16.4684 19.0165C16.6251 20.2933 17.7437 20.8157 18.8043 20.2525C19.7631 19.7427 19.6315 18.171 19.6174 17.3537C19.6163 17.2983 19.6435 17.2706 19.6988 17.2706L23.6076 17.2863C23.6504 17.2873 23.6723 17.3088 23.6734 17.3506C23.8833 21.8902 20.7234 23.1216 16.8413 22.8549C13.7801 22.6431 12.4406 20.8627 12.3028 17.92C12.237 16.5082 12.2098 15.096 12.2213 13.6831C12.2401 11.6063 12.4688 8.78588 14.4099 7.51843C16.0611 6.43765 19.0847 6.55529 20.9145 7.10275C22.0519 7.44314 22.7506 8.1851 23.1548 9.33333C23.8144 11.2063 23.7282 13.5043 23.6734 15.4682C23.673 15.4829 23.6668 15.4969 23.6563 15.5072C23.6458 15.5174 23.6317 15.5231 23.617 15.5231L16.376 15.5216C16.3227 15.5216 16.2951 15.5482 16.293 15.6016ZM16.3541 13.1216L19.5688 13.1498C19.5796 13.1498 19.59 13.1455 19.5976 13.1379C19.6052 13.1302 19.6095 13.1198 19.6095 13.109L19.6268 11.1843C19.6291 10.9208 19.5946 10.6595 19.5254 10.4155C19.4562 10.1714 19.3536 9.94926 19.2234 9.76179C19.0932 9.57431 18.9379 9.42516 18.7666 9.32285C18.5952 9.22053 18.4111 9.16706 18.2246 9.16549L17.7672 9.16235C17.3908 9.15914 17.028 9.36737 16.7586 9.74126C16.4892 10.1151 16.3352 10.6241 16.3306 11.1561L16.3133 13.0808C16.3133 13.0916 16.3176 13.102 16.3253 13.1096C16.3329 13.1173 16.3433 13.1216 16.3541 13.1216Z" fill="currentColor"/>
<path d="M32.3901 21.4149C32.3901 21.3522 32.3692 21.3438 32.3274 21.3898C31.7613 22.0214 31.1404 22.4382 30.4647 22.64C28.4766 23.2314 26.1455 22.8863 25.2917 20.7263C25.1162 20.2839 25.0087 19.6727 24.969 18.8925C24.8781 17.0996 24.9815 14.6902 26.7189 13.6565C28.1915 12.7796 30.46 12.7482 32.1535 12.8267C32.1683 12.8273 32.1831 12.8249 32.1969 12.8197C32.2108 12.8145 32.2234 12.8065 32.2341 12.7962C32.2448 12.786 32.2533 12.7736 32.2591 12.76C32.2649 12.7464 32.2679 12.7317 32.2679 12.7169C32.2689 12.081 32.2663 11.4369 32.2601 10.7843C32.2538 10.0502 32.0047 9.25176 31.1368 9.18431C29.509 9.06196 29.4809 10.1788 29.4511 11.4133C29.45 11.4656 29.4234 11.4918 29.3712 11.4918L25.4624 11.5027C25.4071 11.5027 25.3773 11.475 25.3732 11.4196C25.1711 8.80941 26.3774 7.2549 28.9404 6.84235C32.2303 6.31215 36.2769 6.87843 36.3051 11.1765C36.3301 14.937 36.3437 18.7095 36.3458 22.4941C36.3458 22.5133 36.3382 22.5316 36.3247 22.5451C36.3112 22.5587 36.2929 22.5663 36.2738 22.5663H32.448C32.4327 22.5663 32.4179 22.5603 32.4071 22.5497C32.3962 22.5391 32.3901 22.5248 32.3901 22.5098V21.4149ZM32.1755 15.2314C29.4119 15.0525 28.8746 16.4769 29.0704 18.9239C29.1409 19.7882 29.4339 20.4078 30.355 20.4753C32.7003 20.6431 32.2898 16.6776 32.2585 15.3161C32.2564 15.2627 32.2287 15.2345 32.1755 15.2314Z" fill="currentColor"/>
<path d="M42.028 8.95999C42.8191 7.40705 44.3607 6.78274 46.0746 6.71999C46.1236 6.7179 46.1482 6.74143 46.1482 6.79058V10.0816C46.1482 10.1454 46.1163 10.1731 46.0526 10.1647C45.1753 10.0486 44.4207 10.0972 43.7889 10.3106C42.3303 10.8031 42.147 12.2729 42.1455 13.6016C42.1413 16.5736 42.1402 19.5435 42.1423 22.5114C42.1423 22.5226 42.1379 22.5334 42.1299 22.5413C42.122 22.5493 42.1112 22.5537 42.1 22.5537H38.1506C38.0962 22.5537 38.0691 22.5265 38.0691 22.4721V7.0996C38.0691 7.0494 38.0947 7.02431 38.1459 7.02431H41.8713C41.9225 7.02431 41.9481 7.04993 41.9481 7.10117V8.94117C41.9481 9.06038 41.9747 9.06666 42.028 8.95999Z" fill="currentColor"/>
<path d="M99.6658 22.5945L100.119 21.76L100.767 20.3106C100.788 20.2646 100.787 20.2186 100.766 20.1725L100.319 19.2816C100.29 19.223 100.244 19.1843 100.181 19.1655C100.104 19.1414 100.049 19.0959 100.015 19.029C100.001 19.0018 100.007 18.9799 100.034 18.9631C100.056 18.9495 100.071 18.9349 100.079 18.9192C100.11 18.8617 100.093 18.8371 100.029 18.8455C99.9217 18.8591 99.8517 18.8397 99.8193 18.7874L100.574 16.2886C100.758 16.343 100.856 16.4701 100.869 16.6698C100.87 16.693 100.877 16.7156 100.888 16.7361C100.898 16.7567 100.913 16.7747 100.932 16.789C101.037 16.8706 101.121 16.9867 101.184 17.1372C101.253 17.3035 101.379 17.4447 101.563 17.5608C101.608 17.589 101.635 17.577 101.644 17.5247L101.79 16.7122L101.917 15.6596L101.978 14.7373C102.015 13.6246 101.892 12.5647 101.61 11.5576C101.196 9.9932 100.545 8.48993 99.6564 7.04784L103.532 7.04156C103.598 7.04156 103.631 7.0745 103.631 7.14039L103.628 8.35607C103.628 8.43973 103.654 8.44914 103.706 8.38431C104.607 7.2779 105.797 6.72313 107.275 6.71999C109.666 6.71372 110.864 7.98588 110.881 10.3529C110.912 14.3906 110.927 18.4429 110.928 22.5098C110.928 22.5248 110.922 22.5391 110.912 22.5497C110.901 22.5603 110.887 22.5663 110.872 22.5663H106.896C106.883 22.5663 106.871 22.5611 106.863 22.552C106.854 22.5429 106.849 22.5305 106.849 22.5176C106.852 18.9203 106.851 15.3229 106.847 11.7255C106.846 10.5741 106.799 9.43529 105.389 9.48235C103.894 9.53254 103.647 10.8063 103.645 12C103.637 15.4918 103.63 18.9945 103.626 22.5082C103.626 22.5167 103.625 22.525 103.621 22.5328C103.618 22.5406 103.613 22.5477 103.607 22.5537C103.601 22.5597 103.594 22.5644 103.587 22.5676C103.579 22.5709 103.57 22.5725 103.562 22.5725L99.6658 22.5945Z" fill="currentColor"/>
<path d="M135.065 8.38588C135.816 7.48549 136.749 6.94954 137.865 6.77804C140.884 6.31686 142.283 7.90902 142.289 10.7874C142.296 14.686 142.297 18.5846 142.29 22.4831C142.29 22.5386 142.263 22.5663 142.207 22.5663H138.3C138.246 22.5663 138.219 22.5391 138.219 22.4847C138.221 18.7545 138.22 15.028 138.216 11.3051C138.216 10.6196 138.119 9.76157 137.312 9.57804C135.145 9.08706 134.968 11.0557 134.974 12.5882C134.986 15.9022 134.992 19.2063 134.993 22.5004C134.993 22.5179 134.986 22.5346 134.974 22.547C134.962 22.5593 134.945 22.5663 134.927 22.5663H130.973C130.966 22.5663 130.958 22.5648 130.952 22.562C130.945 22.5591 130.939 22.555 130.933 22.5497C130.928 22.5445 130.924 22.5383 130.921 22.5314C130.918 22.5246 130.917 22.5172 130.917 22.5098V7.09647C130.917 7.08066 130.923 7.0655 130.934 7.05432C130.945 7.04314 130.96 7.03686 130.976 7.03686H134.89C134.959 7.03686 134.993 7.07137 134.993 7.14039L134.988 8.35765C134.988 8.43817 135.014 8.44758 135.065 8.38588Z" fill="currentColor"/>
<path d="M147.702 15.5969C147.652 16.8298 147.658 18.3718 147.985 19.5075C148.146 20.0669 148.531 20.3733 149.14 20.4267C151.22 20.6102 150.987 18.709 151.021 17.3475C151.022 17.2962 151.049 17.2706 151.1 17.2706L155.019 17.2863C155.036 17.2863 155.052 17.2926 155.064 17.304C155.076 17.3154 155.083 17.3309 155.084 17.3475C155.162 19.0651 154.805 20.6918 153.462 21.7255C151.972 22.8722 149.467 23.0871 147.565 22.7702C144.822 22.3122 143.793 20.4502 143.691 17.8024C143.641 16.4962 143.618 15.1895 143.621 13.8824C143.627 11.2126 143.931 7.74902 147.11 6.99295C148.98 6.5485 150.77 6.60184 152.478 7.15295C154.333 7.75216 154.882 9.76158 155.002 11.4918C155.094 12.8115 155.12 14.1339 155.079 15.4588C155.078 15.5017 155.056 15.5231 155.013 15.5231L147.778 15.5216C147.729 15.5216 147.704 15.5467 147.702 15.5969ZM147.764 13.1263L150.97 13.1482C150.982 13.1482 150.994 13.1433 151.003 13.1345C151.012 13.1256 151.017 13.1137 151.017 13.1012L151.031 11.1922C151.034 10.6576 150.891 10.144 150.633 9.76422C150.374 9.38445 150.021 9.16965 149.652 9.16706L149.138 9.16393C148.955 9.16263 148.774 9.2135 148.604 9.31363C148.434 9.41377 148.28 9.5612 148.149 9.7475C148.019 9.93381 147.914 10.1553 147.843 10.3995C147.771 10.6436 147.733 10.9055 147.731 11.1702L147.717 13.0792C147.717 13.0854 147.719 13.0915 147.721 13.0972C147.723 13.1029 147.727 13.1081 147.731 13.1125C147.735 13.1169 147.741 13.1203 147.746 13.1227C147.752 13.1251 147.758 13.1263 147.764 13.1263Z" fill="currentColor"/>
<path d="M160.592 11.4024C160.882 12.1129 161.818 12.5804 162.509 12.8706C163.774 13.4029 164.903 14.0042 165.895 14.6745C167.466 15.7365 167.714 17.8008 167.27 19.5953C166.875 21.2026 165.91 22.1987 164.377 22.5835C162.05 23.1686 157.963 23.2424 156.743 20.5506C156.369 19.7255 156.237 18.7143 156.346 17.5169C156.349 17.4729 156.373 17.4505 156.418 17.4494L160.343 17.4337C160.35 17.4337 160.357 17.4352 160.364 17.4381C160.371 17.4409 160.377 17.4452 160.382 17.4504C160.387 17.4557 160.39 17.462 160.393 17.4688C160.395 17.4757 160.396 17.4829 160.396 17.4902C160.319 18.7059 160.192 20.5255 161.989 20.4455C162.839 20.4089 163.33 19.9728 163.46 19.1373C163.634 18.0235 163.244 17.1916 162.292 16.6416C160.669 15.7051 157.999 14.9678 156.962 13.3239C155.909 11.6565 156.354 8.80784 157.979 7.65177C159.464 6.59608 162.068 6.54118 163.819 6.89098C166.421 7.4102 167.407 9.0353 167.23 11.6282C167.226 11.6753 167.201 11.6988 167.154 11.6988L163.167 11.6863C163.104 11.6863 163.076 11.6549 163.084 11.5922C163.217 10.4957 163.058 8.90196 161.48 9.1953C160.438 9.3898 160.257 10.582 160.592 11.4024Z" fill="currentColor"/>
<path d="M120.021 16.7655C120.021 16.7518 120.015 16.7386 120.005 16.7289C119.995 16.7192 119.982 16.7137 119.968 16.7137L118.337 16.72C118.329 16.7202 118.322 16.719 118.315 16.7163C118.308 16.7136 118.302 16.7096 118.297 16.7045C118.292 16.6994 118.288 16.6932 118.285 16.6865C118.282 16.6797 118.28 16.6724 118.28 16.6651V14.4377C118.28 14.4185 118.288 14.4002 118.301 14.3866C118.315 14.3731 118.333 14.3655 118.352 14.3655H123.72C123.736 14.3655 123.751 14.3719 123.763 14.3834C123.774 14.3949 123.781 14.4105 123.781 14.4267V22.2306C123.781 22.2808 123.756 22.3111 123.707 22.3216C122.061 22.6594 120.318 22.8586 118.478 22.9192C116.288 22.9914 113.772 22.6761 112.88 20.3875C112.513 19.4421 112.322 18.32 112.308 17.0212C112.286 14.778 112.294 13.0913 112.332 11.9608C112.415 9.49648 113.587 7.46197 116.125 6.9553C117.357 6.70955 118.598 6.66824 119.849 6.83138C122.694 7.20472 123.994 8.95373 123.764 11.7741C123.759 11.8233 123.733 11.8479 123.684 11.8479L120.08 11.84C120.057 11.84 120.034 11.8306 120.017 11.8138C120.001 11.7971 119.991 11.7743 119.991 11.7506C119.986 10.582 119.95 9.42746 118.555 9.12471C118.097 9.02537 117.677 9.06249 117.295 9.23609C116.327 9.67687 116.198 11.3569 116.197 12.3137C116.193 13.9346 116.199 15.5556 116.216 17.1765C116.223 17.8238 116.287 18.4648 116.407 19.0996C116.759 20.9726 118.623 20.6557 119.963 20.3326C119.979 20.3287 119.994 20.3192 120.005 20.3058C120.015 20.2924 120.021 20.2759 120.021 20.2588V16.7655Z" fill="currentColor"/>
<path d="M52.6387 9.4996C51.4199 9.41332 51.2899 10.9082 51.282 11.8823C51.2685 13.5294 51.2611 15.1765 51.2601 16.8235C51.2601 17.5535 51.2977 18.2808 51.3729 19.0055C51.4638 19.8787 51.9364 20.2766 52.7907 20.1992C54.1646 20.0737 53.8356 17.749 53.8576 16.8706C53.8586 16.8214 53.8837 16.7974 53.9328 16.7984L57.8384 16.8141C57.876 16.8141 57.8963 16.8329 57.8995 16.8706C58.1047 19.7459 57.3747 22.2933 54.1223 22.8125C51.8398 23.178 48.8976 22.9521 47.8214 20.5114C47.483 19.7448 47.3018 18.8303 47.2777 17.7678C47.238 15.9765 47.2239 14.1846 47.2354 12.3921C47.2495 9.85254 48.0062 7.47136 50.7995 6.9396C51.9828 6.71372 53.1442 6.70012 54.2837 6.89881C57.2854 7.4243 58.0749 9.89175 57.9167 12.6008C57.9136 12.6687 57.8781 12.7027 57.8102 12.7027L53.9375 12.6871C53.8852 12.6871 53.8586 12.6604 53.8576 12.607C53.8497 11.6612 54.0706 9.60156 52.6387 9.4996Z" fill="currentColor"/>
<path d="M129.363 7.00862H125.431C125.399 7.00862 125.374 7.0339 125.374 7.06509V22.6133C125.374 22.6445 125.399 22.6698 125.431 22.6698H129.363C129.394 22.6698 129.419 22.6445 129.419 22.6133V7.06509C129.419 7.0339 129.394 7.00862 129.363 7.00862Z" fill="currentColor"/>
<path d="M71.1437 9.54666C68.9724 13.2831 68.2282 17.7176 69.5081 21.8902L69.8168 22.7388L66.9749 22.7404C66.9248 22.7404 66.8997 22.7153 66.8997 22.6651L66.9013 15.9671C66.9013 15.9284 66.8814 15.909 66.8417 15.909L63.9294 15.9106C63.8761 15.9106 63.85 15.9367 63.851 15.989L63.8526 22.6902C63.8526 22.7048 63.8468 22.7187 63.8366 22.729C63.8263 22.7393 63.8123 22.7451 63.7978 22.7451H59.687C59.6757 22.7451 59.665 22.7408 59.657 22.7332C59.6491 22.7255 59.6447 22.7151 59.6447 22.7043V7.13882C59.6447 7.12343 59.6509 7.10866 59.6621 7.09778C59.6733 7.08689 59.6884 7.08078 59.7042 7.08078H63.7993C63.8349 7.08078 63.8531 7.09856 63.8542 7.13411L63.8918 13.2988C63.8928 13.3448 63.9163 13.3678 63.9623 13.3678H66.8543C66.9159 13.3678 66.9467 13.337 66.9467 13.2753L66.9028 7.14509C66.9028 7.12804 66.9094 7.11168 66.9212 7.09962C66.9329 7.08756 66.9489 7.08078 66.9655 7.08078H71.0105C71.0868 7.08078 71.1254 7.11895 71.1265 7.19529L71.1437 9.54666Z" fill="currentColor"/>
<path d="M87.1562 10.4643C86.9233 10.3556 86.7103 10.2688 86.517 10.2039C85.481 9.85674 84.4444 9.83687 83.4073 10.1443C82.0809 10.5595 81.1466 11.4013 80.6046 12.6698C80.5827 12.7221 80.5759 12.776 80.5842 12.8314C80.5978 12.9203 80.5717 12.9888 80.5059 13.0369C80.4837 13.054 80.4691 13.0787 80.4652 13.1059C80.4589 13.1435 80.4693 13.1718 80.4965 13.1906C80.5414 13.222 80.5592 13.2648 80.5498 13.3192C80.5163 13.5054 80.5503 13.6743 80.6516 13.8259C80.6777 13.8646 80.6876 13.9075 80.6814 13.9545C80.6594 14.102 80.6975 14.216 80.7957 14.2965C80.8223 14.3189 80.8419 14.3495 80.8521 14.3843L80.9336 14.6761L80.1581 15.1906C80.1059 15.2251 80.0756 15.211 80.0672 15.1482C79.555 11.0353 83.7786 8.37491 87.3113 10.2745C87.3552 10.2986 87.3609 10.3299 87.3286 10.3686C87.2878 10.4188 87.2304 10.4507 87.1562 10.4643Z" fill="currentColor"/>
<path d="M87.1562 10.4643L83.3885 13.0227C83.1744 12.3524 83.107 11.6549 83.1864 10.9302C83.1916 10.88 83.213 10.8387 83.2506 10.8063C83.3133 10.7508 83.3373 10.6792 83.3227 10.5914C83.2945 10.4178 83.3227 10.2688 83.4073 10.1443C84.4444 9.83686 85.481 9.85673 86.517 10.2039C86.7102 10.2688 86.9233 10.3556 87.1562 10.4643Z" fill="currentColor"/>
<path d="M83.4073 10.1443C83.3227 10.2688 83.2945 10.4178 83.3227 10.5914C83.3373 10.6792 83.3133 10.7509 83.2506 10.8063C83.213 10.8387 83.1916 10.88 83.1864 10.9302C83.107 11.6549 83.1744 12.3524 83.3885 13.0227L80.9336 14.6761L80.8521 14.3843C80.8419 14.3495 80.8222 14.3189 80.7957 14.2965C80.6975 14.216 80.6594 14.102 80.6813 13.9545C80.6876 13.9075 80.6777 13.8646 80.6516 13.8259C80.5503 13.6743 80.5163 13.5054 80.5497 13.3192C80.5591 13.2648 80.5414 13.222 80.4965 13.1906C80.4693 13.1718 80.4589 13.1435 80.4651 13.1059C80.4691 13.0787 80.4837 13.054 80.5059 13.0369C80.5717 12.9888 80.5978 12.9203 80.5842 12.8314C80.5759 12.7759 80.5826 12.7221 80.6046 12.6698C81.1466 11.4013 82.0809 10.5595 83.4073 10.1443Z" fill="currentColor"/>
<path d="M86.1802 16.1239L86.6909 15.7678L92.9668 11.5937C93.0243 11.555 93.0645 11.5681 93.0874 11.6329C93.1355 11.7699 93.1245 11.9027 93.0545 12.0314C93.0284 12.0805 93.0091 12.1323 92.9966 12.1867L92.6551 13.6157C92.6436 13.6669 92.6227 13.714 92.5924 13.7569C92.4342 13.9875 92.3637 14.2745 92.1898 14.4847C92.0394 14.6651 91.9673 14.8753 91.8279 15.0573C91.6665 15.2675 91.3908 15.3961 91.2012 15.6314C91.1668 15.6742 91.1229 15.6993 91.0696 15.7067C90.9547 15.7234 90.8639 15.7793 90.797 15.8745C90.7647 15.9205 90.7234 15.9556 90.6733 15.9796C90.3693 16.1218 90.0738 16.2787 89.7866 16.4502C89.6957 16.5046 89.5803 16.5318 89.4403 16.5318C89.3954 16.5318 89.3604 16.5506 89.3354 16.5882C89.3239 16.6071 89.3072 16.6217 89.2852 16.6322C89.2706 16.6405 89.2518 16.6437 89.2288 16.6416C88.8278 16.6071 88.5635 16.6154 88.4361 16.6667C88.1458 16.7838 87.8471 16.8078 87.54 16.7388C87.5307 16.7369 87.522 16.733 87.5144 16.7273C87.5068 16.7216 87.5006 16.7143 87.4961 16.7059C87.4888 16.6912 87.4815 16.6761 87.4742 16.6604C87.47 16.651 87.4627 16.6463 87.4523 16.6463H86.7943C86.7463 16.6463 86.7076 16.6275 86.6784 16.5898C86.576 16.4643 86.4486 16.4199 86.2961 16.4565C86.2272 16.4743 86.1917 16.4476 86.1896 16.3765L86.1802 16.1239Z" fill="currentColor"/>
<path d="M101.978 14.7373L101.917 15.6596L101.267 14.8345C101.241 14.8021 101.227 14.765 101.225 14.7231C101.222 14.6531 101.191 14.6013 101.129 14.5678C101.089 14.5459 101.067 14.5119 101.063 14.4659C101.051 14.3226 100.978 14.2536 100.845 14.2588L100.921 13.051C100.921 13.0468 100.923 13.0447 100.928 13.0447L100.968 13.0463C100.994 13.0484 101.006 13.0625 101.005 13.0886C100.988 13.451 101.232 13.6392 101.351 13.8698C101.512 14.1825 101.721 14.4716 101.978 14.7373Z" fill="currentColor"/>
<path d="M100.845 14.2588C100.978 14.2536 101.051 14.3226 101.063 14.4659C101.067 14.5119 101.089 14.5459 101.129 14.5678C101.191 14.6013 101.222 14.6531 101.225 14.7231C101.227 14.765 101.241 14.8021 101.267 14.8345L101.917 15.6596L101.79 16.7122L100.78 15.2392C100.727 14.9997 100.749 14.6729 100.845 14.2588Z" fill="currentColor"/>
<path d="M100.78 15.2392L101.79 16.7122L101.644 17.5247C101.635 17.577 101.608 17.589 101.563 17.5608C101.379 17.4447 101.253 17.3035 101.184 17.1373C101.121 16.9867 101.037 16.8706 100.932 16.789C100.913 16.7747 100.898 16.7567 100.887 16.7361C100.877 16.7156 100.87 16.693 100.869 16.6698C100.856 16.4701 100.758 16.343 100.574 16.2886L100.78 15.2392Z" fill="currentColor"/>
<path d="M86.5264 15.5984L86.6909 15.7678L86.1801 16.1239L84.6746 17.1702C84.6276 17.2026 84.6172 17.2439 84.6433 17.2941C84.7153 17.4353 84.8245 17.5247 84.9707 17.5624C85.0208 17.5749 85.0631 17.6005 85.0976 17.6392C85.1456 17.6946 85.2052 17.7177 85.2762 17.7082C85.319 17.702 85.354 17.7161 85.3812 17.7506C85.4626 17.8562 85.5697 17.8949 85.7023 17.8667C85.7535 17.8552 85.7968 17.8693 85.8324 17.909C85.9295 18.0178 86.0788 18.0507 86.2804 18.0078C86.3702 17.989 86.4433 18.0214 86.4997 18.1051C86.5147 18.1268 86.5346 18.1446 86.5578 18.1569C86.581 18.1692 86.6068 18.1756 86.6329 18.1757H87.2219C87.2501 18.1757 87.2689 18.1893 87.2783 18.2165L87.2971 18.2682C87.3026 18.2834 87.3126 18.2965 87.3258 18.3058C87.339 18.315 87.3547 18.32 87.3708 18.32L88.516 18.3357C88.5651 18.3367 88.6016 18.3158 88.6257 18.2729C88.633 18.2583 88.6418 18.2447 88.6523 18.2322C88.6888 18.1861 88.7364 18.1668 88.7948 18.1741C89.0236 18.2034 89.2231 18.1778 89.3933 18.0973C89.6962 17.9519 89.9797 17.863 90.244 17.8306C90.2972 17.8243 90.3422 17.8018 90.3787 17.7631C90.4831 17.6565 90.598 17.5927 90.7234 17.5718C89.7865 18.4073 88.7734 19.0515 87.6841 19.5043C85.8496 20.2667 83.3978 20.3937 81.9299 18.8141C81.9208 18.8045 81.914 18.793 81.9098 18.7805C81.9056 18.7679 81.9042 18.7546 81.9057 18.7415C81.9072 18.7283 81.9116 18.7157 81.9184 18.7044C81.9253 18.6931 81.9346 18.6834 81.9455 18.6761L86.5264 15.5984Z" fill="currentColor"/>
<path d="M99.8193 18.7875C99.8517 18.8397 99.9216 18.8591 100.029 18.8455C100.093 18.8371 100.11 18.8617 100.079 18.9192C100.071 18.9349 100.056 18.9496 100.034 18.9632C100.007 18.9799 100 19.0018 100.015 19.029C100.049 19.096 100.104 19.1414 100.181 19.1655C100.244 19.1843 100.29 19.223 100.319 19.2816L100.766 20.1726C100.787 20.2186 100.788 20.2646 100.767 20.3106L100.119 21.76C100.073 21.7046 100.049 21.6403 100.046 21.5671C100.044 21.5169 100.023 21.4777 99.9822 21.4494C99.907 21.3971 99.8652 21.3239 99.8569 21.2298C99.8527 21.1848 99.8376 21.1441 99.8114 21.1075L99.1832 20.1898L99.8193 18.7875Z" fill="currentColor"/>
<path d="M99.1832 20.1898L99.8114 21.1074C99.8375 21.144 99.8527 21.1848 99.8568 21.2298C99.8652 21.3239 99.907 21.3971 99.9822 21.4494C100.023 21.4776 100.044 21.5169 100.046 21.5671C100.048 21.6403 100.073 21.7046 100.118 21.76L99.6657 22.5945L98.5706 24.2823C98.3868 24.2991 98.2108 24.1971 98.0427 23.9765C98.0134 23.9388 97.9925 23.897 97.98 23.851C97.957 23.7684 97.9106 23.702 97.8406 23.6518C97.8009 23.6246 97.78 23.5869 97.7779 23.5388C97.7727 23.4541 97.7346 23.3888 97.6636 23.3427C97.6343 23.325 97.6082 23.303 97.5852 23.2769L97.4082 23.0823C98.0599 22.2102 98.6516 21.246 99.1832 20.1898Z" fill="currentColor"/>
<path d="M71.2158 22.2212C73.7616 28.0094 79.8025 30.3028 85.7416 29.1953C85.7552 29.3616 85.8183 29.4269 85.9311 29.3914C85.9437 29.3872 85.9499 29.3783 85.9499 29.3647C85.9499 29.349 85.9499 29.3333 85.9499 29.3177C85.9499 29.2894 85.964 29.2753 85.9922 29.2753H86.1458C86.163 29.2753 86.1797 29.2813 86.1929 29.2922C86.2061 29.3031 86.2149 29.3182 86.2178 29.3349C86.2325 29.4092 86.2784 29.4588 86.3557 29.4839C86.3954 29.4965 86.4063 29.5216 86.3886 29.5592C86.3698 29.5979 86.3703 29.6335 86.3902 29.6659C86.4194 29.714 86.4393 29.7103 86.4497 29.6549L86.4842 29.4745C86.4875 29.4576 86.4961 29.4422 86.5086 29.4304C86.5211 29.4186 86.5369 29.411 86.5539 29.4086C86.571 29.4061 86.5883 29.4091 86.6036 29.417C86.6189 29.4248 86.6313 29.4373 86.6393 29.4526C86.681 29.5362 86.7427 29.599 86.8241 29.6408C86.8457 29.6518 86.8624 29.6706 86.8711 29.6934C86.8797 29.7163 86.8797 29.7416 86.8711 29.7647C86.8116 29.9268 86.7087 30.0523 86.5625 30.1412C86.4706 30.1495 86.3902 30.1752 86.3212 30.218C86.3138 30.2224 86.3077 30.2287 86.3035 30.2362C86.2993 30.2437 86.2971 30.2522 86.2973 30.2609C86.2975 30.2695 86.2999 30.2779 86.3044 30.2853C86.3089 30.2926 86.3152 30.2987 86.3228 30.3027L86.3776 30.331C86.4257 30.3571 86.4231 30.3754 86.3698 30.3859C86.1959 30.4188 86.0674 30.3906 85.8998 30.458C85.6888 30.5417 85.4685 30.5684 85.2387 30.538C85.1865 30.5307 85.1369 30.5375 85.0899 30.5584C84.6878 30.7362 84.259 30.7655 83.8037 30.6463L81.2767 30.5992C81.2485 30.5982 81.2365 30.6118 81.2407 30.64L81.2469 30.6855C81.2488 30.6999 81.2559 30.7131 81.2669 30.7227C81.2779 30.7322 81.2919 30.7374 81.3065 30.7373L82.4532 30.7498C82.4633 30.7498 82.4731 30.7537 82.4804 30.7607C82.4877 30.7678 82.492 30.7773 82.4924 30.7875L82.494 30.8267C82.494 30.835 82.4898 30.8392 82.4814 30.8392L81.6621 30.8439C81.651 30.8441 81.6401 30.847 81.6304 30.8524C81.6207 30.8577 81.6125 30.8653 81.6064 30.8744C81.6004 30.8836 81.5967 30.894 81.5958 30.9049C81.5948 30.9157 81.5966 30.9265 81.601 30.9365C81.7482 31.2816 81.9676 31.6 82.259 31.8918C81.7963 31.7265 81.3931 31.6978 81.0495 31.8055H80.979C80.9299 31.6696 80.8527 31.5937 80.7472 31.578C80.321 31.5153 80.0516 31.3082 79.8793 30.9098C79.8182 30.7718 79.7351 30.7028 79.6192 30.6243C79.5649 30.5888 79.5701 30.5689 79.6349 30.5647C79.662 30.5637 79.6887 30.571 79.7148 30.5867C79.7409 30.6024 79.7607 30.6112 79.7743 30.6133C79.8015 30.6186 79.8249 30.617 79.8448 30.6086C79.9169 30.5804 79.9095 30.559 79.8229 30.5443C76.8849 30.0424 74.371 28.7273 72.2811 26.5992C71.2356 25.4667 70.4142 24.1799 69.8168 22.7388L69.5082 21.8902L69.7667 21.7302C69.7863 21.7186 69.8092 21.7138 69.8316 21.7167C69.854 21.7195 69.8748 21.7298 69.8904 21.7459C69.9667 21.8275 70.0633 21.8667 70.1803 21.8635C70.2252 21.8625 70.2591 21.8813 70.2821 21.92C70.2988 21.9472 70.3218 21.966 70.351 21.9765C70.3656 21.9828 70.385 21.9828 70.409 21.9765C70.4936 21.9577 70.5599 21.9765 70.608 22.0329C70.6278 22.056 70.6508 22.0763 70.6769 22.0941C70.8879 22.2405 71.0675 22.2829 71.2158 22.2212Z" fill="currentColor"/>
<path d="M95.9043 22.9757C95.9878 23.0071 96.1231 23.0395 96.3101 23.0729C96.3351 23.0782 96.3518 23.0912 96.3602 23.1121C96.3696 23.1372 96.3858 23.1571 96.4087 23.1718L96.8161 23.4306C96.8631 23.4609 96.8688 23.4975 96.8333 23.5404C94.7048 26.1914 92.0614 28.1501 88.903 29.4165C88.5813 29.5451 88.3088 29.6288 88.0853 29.6674C88.0142 29.6789 87.961 29.7014 87.9255 29.7349C87.8952 29.7631 87.8591 29.7788 87.8174 29.7819C87.692 29.7935 87.5735 29.8295 87.4617 29.8902C87.4517 29.8955 87.4433 29.9037 87.4377 29.9136C87.4321 29.9236 87.4295 29.9349 87.4302 29.9463C87.4308 29.9577 87.4347 29.9687 87.4414 29.9779C87.4482 29.9872 87.4574 29.9943 87.468 29.9984C87.5035 30.0131 87.539 30.0209 87.5745 30.022C87.6372 30.023 87.6403 30.0371 87.5839 30.0643C87.4983 30.1051 87.4226 30.1056 87.3568 30.0659C87.2398 29.9958 87.1369 29.9874 87.0481 30.0408C87.0012 30.068 86.9954 30.1014 87.0309 30.1412L87.0654 30.1804C87.1092 30.2295 87.0988 30.2478 87.034 30.2353L86.5625 30.1412C86.7087 30.0523 86.8116 29.9268 86.8711 29.7647C86.8797 29.7416 86.8797 29.7162 86.8711 29.6934C86.8624 29.6705 86.8457 29.6518 86.8241 29.6408C86.7427 29.5989 86.681 29.5362 86.6393 29.4525C86.6313 29.4373 86.6189 29.4248 86.6036 29.4169C86.5883 29.4091 86.571 29.4061 86.5539 29.4085C86.5369 29.4109 86.5211 29.4186 86.5086 29.4304C86.4961 29.4422 86.4875 29.4576 86.4842 29.4745L86.4497 29.6549C86.4393 29.7103 86.4194 29.714 86.3902 29.6659C86.3703 29.6335 86.3698 29.5979 86.3886 29.5592C86.4064 29.5216 86.3954 29.4965 86.3557 29.4839C86.2784 29.4588 86.2325 29.4091 86.2178 29.3349C86.2149 29.3182 86.2061 29.3031 86.1929 29.2922C86.1797 29.2813 86.163 29.2753 86.1458 29.2753H85.9922C85.964 29.2753 85.9499 29.2894 85.9499 29.3176C85.9499 29.3333 85.9499 29.349 85.9499 29.3647C85.9499 29.3783 85.9437 29.3872 85.9311 29.3914C85.8183 29.4269 85.7552 29.3616 85.7416 29.1953C89.8634 28.3357 93.1987 26.2071 95.9043 22.9757Z" fill="currentColor"/>
<path d="M97.4082 23.0824L97.5852 23.2769C97.6082 23.303 97.6343 23.325 97.6636 23.3427C97.7346 23.3888 97.7727 23.4541 97.7779 23.5388C97.78 23.5869 97.8009 23.6246 97.8406 23.6518C97.9106 23.702 97.957 23.7684 97.98 23.851C97.9926 23.897 98.0134 23.9388 98.0427 23.9765C98.2108 24.1971 98.3868 24.2991 98.5706 24.2824L97.3346 25.8039C97.3032 25.8416 97.3064 25.8761 97.344 25.9075L99.0563 27.3286C98.8641 27.2753 98.6401 27.3103 98.3842 27.4337C97.8641 26.9741 96.9946 25.9216 96.2458 26.4847C95.7737 26.8382 95.7225 27.2779 96.0922 27.8039C96.0713 27.9702 96.0202 28.1088 95.9387 28.2196C95.9116 28.2573 95.8985 28.2996 95.8995 28.3467C95.9037 28.4387 95.8693 28.514 95.7961 28.5725C95.7638 28.5976 95.7486 28.6311 95.7507 28.6729L95.8322 30.0706C95.3324 29.5624 94.7214 29.0776 94.477 28.3655C94.1434 27.1231 94.8985 25.8557 96.2113 25.7208C96.2635 25.7156 96.2896 25.6868 96.2896 25.6345C96.2896 25.5362 96.2494 25.4651 96.169 25.4212C96.1324 25.4013 96.1126 25.3699 96.1095 25.3271C96.1001 25.2068 96.0285 25.0646 95.8948 24.9004L97.4082 23.0824Z" fill="currentColor"/>
<path d="M95.8949 24.9004C96.0286 25.0646 96.1001 25.2068 96.1095 25.3271C96.1127 25.3699 96.1325 25.4013 96.1691 25.4212C96.2495 25.4651 96.2897 25.5362 96.2897 25.6345C96.2897 25.6868 96.2636 25.7156 96.2114 25.7208C94.8985 25.8557 94.1434 27.1231 94.4771 28.3655L93.0515 29.3035C93.0619 29.1718 93.1491 29.0771 93.3131 29.0196C93.3293 29.0141 93.3429 29.0028 93.351 28.9879C93.3592 28.9731 93.3613 28.9558 93.357 28.9396L93.2927 28.6933C93.2792 28.6421 93.2572 28.5945 93.2269 28.5506C93.0651 28.3216 92.9428 28.0732 92.8603 27.8055C92.8462 27.7631 92.8173 27.7274 92.7789 27.7051C92.7026 27.6643 92.6755 27.6178 92.6974 27.5655C93.8661 26.7801 94.9319 25.8918 95.8949 24.9004Z" fill="currentColor"/>
<path d="M98.3842 27.4337C98.803 27.8614 99.2876 28.2112 99.838 28.4831C100.346 28.7357 100.867 29.062 101.162 29.3976C101.459 29.738 101.618 29.9874 101.904 30.1161C101.959 30.1401 101.997 30.1804 102.02 30.2369C102.039 30.2818 102.072 30.3122 102.119 30.3278C102.158 30.3414 102.188 30.3623 102.211 30.3906C102.404 30.6227 102.708 30.7404 102.869 30.9663C102.912 31.0248 102.96 31.0776 103.014 31.1247C103.352 31.4206 103.684 31.7229 104.01 32.0314C104.191 32.2039 104.376 32.3723 104.566 32.5365C104.641 32.6023 104.691 32.6672 104.715 32.731C104.734 32.7822 104.75 32.8146 104.765 32.8282C104.797 32.8586 104.841 32.8784 104.895 32.8878C104.939 32.8952 104.976 32.9155 105.006 32.949C105.177 33.1372 105.553 33.578 105.776 33.6706C106.156 33.8274 106.532 34.3231 106.857 34.5976C106.898 34.6332 106.929 34.6761 106.947 34.7263C106.965 34.7744 106.991 34.8173 107.026 34.8549C107.227 35.0808 107.438 35.2988 107.659 35.509C107.831 35.6742 107.935 35.8269 107.972 35.9671C108.086 36.411 107.93 36.9741 107.707 37.349C107.681 37.3929 107.645 37.4259 107.598 37.4478C107.308 37.5843 107.019 37.738 106.716 37.76C106.358 37.7851 106.031 37.6889 105.733 37.4714C105.199 37.0823 105.725 36.342 105.284 36.1616C105.238 36.1427 105.197 36.1156 105.163 36.08L104.876 35.7867C104.843 35.7532 104.803 35.7338 104.756 35.7286C104.679 35.7203 104.625 35.681 104.591 35.611C104.569 35.5639 104.537 35.5263 104.496 35.498C104.195 35.291 103.949 35.0321 103.62 34.8753C103.573 34.8533 103.534 34.8214 103.504 34.7796C103.334 34.5474 103.126 34.3561 102.88 34.2055C102.602 34.0345 102.426 33.6706 102.163 33.4698C101.803 33.1984 101.585 32.8533 101.177 32.6118C101.135 32.5867 101.103 32.5511 101.083 32.5051C101.069 32.4716 101.048 32.4486 101.021 32.4361C100.986 32.4189 100.954 32.4026 100.929 32.3896C100.905 32.3766 100.89 32.3676 100.886 32.3639L97.5257 29.1702L96.0922 27.8039C95.7225 27.2779 95.7737 26.8382 96.2457 26.4847C96.9946 25.9216 97.8641 26.9741 98.3842 27.4337Z" fill="currentColor"/>
<path d="M72.2811 26.5992C74.371 28.7273 76.8849 30.0423 79.8228 30.5443C79.9095 30.559 79.9168 30.5804 79.8448 30.6086C79.8249 30.617 79.8014 30.6186 79.7743 30.6133C79.7607 30.6112 79.7409 30.6023 79.7147 30.5867C79.6886 30.571 79.662 30.5637 79.6348 30.5647C79.5701 30.5689 79.5649 30.5888 79.6192 30.6243C79.7351 30.7027 79.8181 30.7718 79.8792 30.9098C80.0516 31.3082 80.321 31.5153 80.7471 31.578C80.8526 31.5937 80.9299 31.6695 80.979 31.8055C77.4457 31.1655 74.5579 29.4871 72.3156 26.7702C72.2738 26.719 72.2623 26.662 72.2811 26.5992Z" fill="currentColor"/>
<path d="M99.0563 27.3286C102.11 29.9388 105.156 32.5553 108.194 35.178C108.534 35.4719 108.775 35.7328 108.917 35.9608C109.116 36.2818 109.25 36.6191 109.318 36.9726C109.075 37.6261 108.759 38.1307 108.37 38.4863C108.249 38.5961 108.121 38.5992 107.997 38.6949C107.132 39.3537 106.153 39.291 105.403 38.5318C105.367 38.4962 105.345 38.4539 105.337 38.4047C105.325 38.3367 105.3 38.2745 105.262 38.218C105.234 38.1773 105.215 38.1323 105.205 38.0831C105.153 37.8353 105.087 37.5906 105.008 37.349C104.929 37.1064 104.79 36.8889 104.591 36.6965C104.072 36.1956 103.526 35.7239 102.954 35.2816C102.761 35.1326 102.639 34.9365 102.453 34.7733C102.229 34.5741 102.025 34.32 101.781 34.1443C101.405 33.8714 101.101 33.462 100.755 33.1451C100.717 33.1106 100.674 33.0865 100.625 33.0729C100.561 33.0552 100.515 33.0139 100.488 32.949C100.467 32.8957 100.433 32.8523 100.386 32.8188C100.156 32.6546 99.9571 32.458 99.7911 32.229C99.7894 32.2269 99.7874 32.2252 99.7852 32.2239C99.7829 32.2226 99.7805 32.2218 99.7779 32.2215C99.7754 32.2212 99.7729 32.2214 99.7706 32.2222C99.7683 32.2229 99.7662 32.2242 99.7644 32.2259C99.7529 32.2363 99.7404 32.2442 99.7268 32.2494C99.7185 32.2515 99.7117 32.2494 99.7065 32.2431C99.483 31.9901 99.2412 31.7553 98.9811 31.5388C98.9623 31.5231 98.9414 31.5137 98.9185 31.5106C98.8965 31.5085 98.8767 31.4996 98.8589 31.4839C98.4861 31.1441 98.1325 30.7848 97.7983 30.4063C97.7628 30.3655 97.7424 30.3184 97.7372 30.2651C97.7247 30.1511 97.685 30.0502 97.6182 29.9624C97.5847 29.9195 97.5774 29.8729 97.5962 29.8227C97.6918 29.5655 97.521 29.4102 97.5257 29.1702L100.886 32.3639C100.89 32.3676 100.905 32.3766 100.929 32.3896C100.954 32.4026 100.986 32.4189 101.021 32.4361C101.048 32.4486 101.069 32.4716 101.084 32.5051C101.103 32.5511 101.135 32.5867 101.178 32.6118C101.585 32.8533 101.803 33.1984 102.163 33.4698C102.426 33.6706 102.602 34.0345 102.88 34.2055C103.126 34.3561 103.334 34.5475 103.504 34.7796C103.534 34.8214 103.573 34.8533 103.62 34.8753C103.949 35.0322 104.195 35.291 104.496 35.498C104.537 35.5263 104.569 35.5639 104.591 35.611C104.625 35.681 104.679 35.7203 104.756 35.7286C104.803 35.7339 104.843 35.7532 104.876 35.7867L105.163 36.08C105.198 36.1156 105.238 36.1427 105.284 36.1616C105.725 36.342 105.199 37.0824 105.733 37.4714C106.031 37.6889 106.358 37.7851 106.716 37.76C107.019 37.738 107.308 37.5843 107.598 37.4478C107.645 37.4259 107.681 37.3929 107.707 37.349C107.93 36.9741 108.086 36.411 107.972 35.9671C107.935 35.8269 107.831 35.6743 107.659 35.509C107.438 35.2988 107.227 35.0808 107.026 34.8549C106.991 34.8173 106.965 34.7744 106.947 34.7263C106.929 34.6761 106.898 34.6332 106.857 34.5977C106.532 34.3231 106.156 33.8275 105.776 33.6706C105.553 33.578 105.177 33.1373 105.006 32.949C104.976 32.9156 104.939 32.8952 104.895 32.8878C104.841 32.8784 104.797 32.8586 104.765 32.8282C104.75 32.8146 104.734 32.7822 104.715 32.731C104.691 32.6672 104.641 32.6024 104.566 32.5365C104.376 32.3723 104.191 32.2039 104.01 32.0314C103.684 31.7229 103.352 31.4207 103.014 31.1247C102.96 31.0777 102.912 31.0248 102.869 30.9663C102.708 30.7404 102.404 30.6227 102.212 30.3906C102.189 30.3624 102.158 30.3414 102.119 30.3278C102.072 30.3122 102.039 30.2818 102.02 30.2369C101.997 30.1804 101.959 30.1401 101.904 30.1161C101.618 29.9875 101.46 29.738 101.162 29.3977C100.867 29.062 100.346 28.7357 99.8381 28.4831C99.2877 28.2112 98.8031 27.8614 98.3842 27.4337C98.6401 27.3103 98.8641 27.2753 99.0563 27.3286Z" fill="currentColor"/>
<path d="M92.6974 27.5655C92.6755 27.6178 92.7026 27.6643 92.7789 27.7051C92.8172 27.7274 92.8462 27.7631 92.8603 27.8055C92.9428 28.0732 93.065 28.3216 93.2269 28.5506C93.2572 28.5945 93.2791 28.6421 93.2927 28.6933L93.3569 28.9396C93.3613 28.9558 93.3592 28.9731 93.351 28.9879C93.3429 29.0028 93.3293 29.0141 93.3131 29.0196C93.1491 29.0771 93.0619 29.1718 93.0515 29.3035C91.5861 30.2112 90.0205 30.8993 88.3547 31.3678C88.3202 31.3281 88.3876 31.2586 88.5568 31.1592L89.0268 31.0212L89.8728 30.731L91.2075 30.1443C91.2535 30.1244 91.2765 30.0889 91.2765 30.0376V29.9184C91.2765 29.8745 91.2566 29.8431 91.2169 29.8243C91.1386 29.7888 91.1062 29.7323 91.1198 29.6549C91.1271 29.6068 91.1088 29.5723 91.065 29.5514C90.9114 29.4771 90.8127 29.3621 90.7689 29.2063C90.7386 29.0965 90.7156 29.0254 90.6999 28.9929C90.6634 28.9135 90.631 28.846 90.6028 28.7906L92.6974 27.5655Z" fill="currentColor"/>
<path d="M96.0922 27.8039L97.5257 29.1702C97.521 29.4102 97.6917 29.5655 97.5962 29.8227C97.5774 29.8729 97.5847 29.9195 97.6181 29.9624C97.6849 30.0502 97.7246 30.1511 97.7372 30.2651C97.7424 30.3184 97.7628 30.3655 97.7983 30.4063C98.1325 30.7848 98.486 31.1441 98.8589 31.4839C98.8766 31.4996 98.8965 31.5085 98.9184 31.5106C98.9414 31.5137 98.9623 31.5231 98.9811 31.5388C99.2411 31.7553 99.4829 31.9901 99.7064 32.2431C99.7116 32.2494 99.7184 32.2515 99.7268 32.2494C99.7404 32.2442 99.7529 32.2363 99.7644 32.2259C99.7661 32.2242 99.7682 32.2229 99.7705 32.2222C99.7729 32.2214 99.7754 32.2212 99.7779 32.2215C99.7804 32.2218 99.7829 32.2226 99.7851 32.2239C99.7874 32.2252 99.7894 32.2269 99.791 32.229C99.9571 32.458 100.156 32.6546 100.386 32.8188C100.433 32.8523 100.467 32.8957 100.488 32.949C100.515 33.0139 100.561 33.0552 100.624 33.0729C100.674 33.0865 100.717 33.1106 100.754 33.1451C101.101 33.462 101.405 33.8714 101.781 34.1443C102.025 34.32 102.229 34.5741 102.453 34.7733C102.639 34.9365 102.761 35.1326 102.954 35.2816C103.526 35.7239 104.072 36.1956 104.591 36.6965C104.79 36.8889 104.929 37.1064 105.008 37.349C105.087 37.5906 105.153 37.8353 105.205 38.0831C105.215 38.1323 105.233 38.1773 105.262 38.218C105.3 38.2745 105.325 38.3367 105.337 38.4047C105.345 38.4539 105.367 38.4962 105.403 38.5318C106.153 39.291 107.132 39.3537 107.997 38.6949C108.121 38.5992 108.249 38.5961 108.37 38.4863C108.759 38.1307 109.075 37.6261 109.318 36.9726C109.405 38.263 108.954 39.1723 107.964 39.7004C106.961 40.2353 105.628 40.1412 104.825 39.3161C101.831 36.2416 98.8338 33.1597 95.8321 30.0706L95.7507 28.6729C95.7486 28.6311 95.7637 28.5976 95.7961 28.5726C95.8692 28.514 95.9037 28.4387 95.8995 28.3467C95.8985 28.2996 95.9115 28.2573 95.9387 28.2196C96.0201 28.1088 96.0713 27.9702 96.0922 27.8039Z" fill="currentColor"/>
<path d="M90.6028 28.7906C90.631 28.846 90.6634 28.9135 90.6999 28.9929C90.7156 29.0254 90.7386 29.0965 90.7689 29.2063C90.8127 29.3621 90.9114 29.4771 91.065 29.5514C91.1088 29.5723 91.1271 29.6068 91.1198 29.6549C91.1062 29.7323 91.1386 29.7888 91.2169 29.8243C91.2566 29.8431 91.2764 29.8745 91.2764 29.9184V30.0376C91.2764 30.0889 91.2535 30.1244 91.2075 30.1443L89.8727 30.731C90.0837 30.6379 90.0555 30.4068 89.7881 30.0376C89.5918 29.7647 89.4743 29.565 89.4357 29.4384C89.4333 29.4313 89.4331 29.4237 89.4349 29.4165C89.4368 29.4093 89.4406 29.4028 89.4461 29.3977C89.4515 29.3926 89.4583 29.3891 89.4656 29.3877C89.4729 29.3863 89.4804 29.387 89.4874 29.3898C89.5093 29.3992 89.5244 29.3919 89.5328 29.3678C89.538 29.3532 89.5364 29.3391 89.5281 29.3255C89.5208 29.3129 89.5161 29.2967 89.514 29.2769L90.6028 28.7906Z" fill="currentColor"/>
<path d="M89.514 29.2769C89.5161 29.2967 89.5208 29.3129 89.5281 29.3255C89.5364 29.3391 89.538 29.3532 89.5328 29.3678C89.5244 29.3919 89.5093 29.3992 89.4874 29.3898C89.4804 29.387 89.4729 29.3863 89.4656 29.3877C89.4582 29.3891 89.4515 29.3926 89.4461 29.3977C89.4406 29.4028 89.4368 29.4093 89.4349 29.4165C89.4331 29.4237 89.4333 29.4313 89.4357 29.4384C89.4743 29.565 89.5918 29.7647 89.7881 30.0376C90.0555 30.4068 90.0837 30.6379 89.8727 30.731L89.0268 31.0212C89.0236 30.8591 88.9698 30.7226 88.8654 30.6118C88.8288 30.572 88.81 30.525 88.809 30.4706C88.808 30.3587 88.7871 30.2813 88.7463 30.2384C88.6283 30.1119 88.527 29.9733 88.4424 29.8227C88.4173 29.7767 88.4241 29.7359 88.4628 29.7004C88.4878 29.6774 88.5202 29.6664 88.5599 29.6674C88.6069 29.6674 88.6476 29.6512 88.6821 29.6188C88.7469 29.5582 88.82 29.5263 88.9014 29.5231C88.9536 29.5221 89.0038 29.5106 89.0518 29.4886L89.514 29.2769Z" fill="currentColor"/>
<path d="M83.8036 30.6463L83.5654 30.651C83.5038 30.652 83.4751 30.6834 83.4793 30.7451C83.5075 31.1325 83.7895 31.451 83.9258 31.8055C83.9347 31.8286 83.95 31.8488 83.9699 31.8638C83.9899 31.8787 84.0136 31.8879 84.0385 31.8902L84.3252 31.9122L82.2589 31.8918C81.9675 31.6 81.7481 31.2816 81.6009 30.9365C81.5965 30.9265 81.5947 30.9157 81.5957 30.9048C81.5966 30.894 81.6003 30.8836 81.6063 30.8744C81.6124 30.8652 81.6206 30.8577 81.6303 30.8524C81.64 30.847 81.6509 30.8441 81.662 30.8439L82.4813 30.8392C82.4897 30.8392 82.4939 30.835 82.4939 30.8267L82.4923 30.7874C82.4919 30.7773 82.4876 30.7677 82.4803 30.7607C82.473 30.7537 82.4632 30.7498 82.4531 30.7498L81.3064 30.7373C81.2918 30.7374 81.2778 30.7322 81.2668 30.7227C81.2558 30.7131 81.2487 30.6999 81.2468 30.6855L81.2406 30.64C81.2364 30.6118 81.2484 30.5982 81.2766 30.5992L83.8036 30.6463Z" fill="currentColor"/>
<path d="M88.5568 31.1592C88.3876 31.2586 88.3202 31.3281 88.3547 31.3678C87.2852 31.6763 86.2043 31.8761 85.1118 31.9671C84.9917 31.8907 84.8214 31.8745 84.6011 31.9184C85.7478 31.7208 87.175 31.5655 88.5568 31.1592Z" fill="currentColor"/>
<path d="M82.2589 31.8918L84.3253 31.9122L84.601 31.9184C84.8214 31.8745 84.9916 31.8907 85.1117 31.9671C83.7613 32.1156 82.4072 32.0617 81.0494 31.8055C81.3931 31.6978 81.7962 31.7265 82.2589 31.8918Z" fill="currentColor"/>
</svg>
