<svg width="60" height="60" viewBox="0 0 60 60" fill="none" xmlns="http://www.w3.org/2000/svg">
<path d="M0 8.33393C2.76873e-06 16.1665 6.49909 22.5161 14.5161 22.5161C14.5161 4.54172 0 8.33393 0 8.33393Z" fill="currentColor"/>
<path d="M30.4839 8C38.5009 8 45 14.4991 45 22.5161H15.9677C15.9677 14.4991 22.4668 8 30.4839 8Z" fill="currentColor"/>
<path d="M14.5161 53C6.49909 53 0 46.5009 0 38.4839C2.76873e-06 30.4668 6.49909 23.9677 14.5161 23.9677V53Z" fill="currentColor"/>
<path d="M30.4839 38.4839C38.5009 38.4839 45 31.9848 45 23.9677H15.9677C15.9677 31.9848 22.4668 38.4839 30.4839 38.4839Z" fill="currentColor"/>
</svg>
