<svg width="131" height="26" viewBox="0 0 131 26" fill="none" xmlns="http://www.w3.org/2000/svg">
<path d="M25.8118 11.0053H4.11123C4.49506 9.26321 5.38277 7.67299 6.66351 6.43321C7.94425 5.19344 9.56127 4.35904 11.3126 4.03423C13.064 3.70942 14.8721 3.90859 16.5111 4.60686C18.1501 5.30513 19.5474 6.47156 20.5286 7.9605L23.8066 5.78695C22.169 3.32459 19.7416 1.49561 16.9256 0.60234C14.1095 -0.290931 11.0735 -0.195017 8.31927 0.874228C5.56505 1.94347 3.25754 3.92203 1.77816 6.48287C0.298789 9.0437 -0.263882 12.0335 0.183158 14.958H21.8837C21.5074 16.7078 20.6236 18.3072 19.3433 19.5558C18.063 20.8045 16.443 21.6466 14.6867 21.9767C12.9303 22.3068 11.1158 22.1101 9.47063 21.4113C7.82546 20.7125 6.42291 19.5427 5.43891 18.0487L2.19756 20.2222C3.6517 22.401 5.72955 24.0885 8.15838 25.0632C10.5872 26.0379 13.2535 26.2543 15.8074 25.684C18.3612 25.1137 20.6832 23.7834 22.4686 21.8675C24.254 19.9517 25.4194 17.54 25.8118 14.9489C25.9098 14.3054 25.9587 13.6555 25.9583 13.0046C25.9616 12.3354 25.9126 11.6669 25.8118 11.0053Z" fill="currentColor"/>
<path d="M77.1515 6.70407V8.66668C77.611 7.98478 78.2341 7.4293 78.9635 7.05116C79.693 6.67301 80.5056 6.4843 81.3268 6.50231C83.918 6.50231 86.3536 8.39155 86.3536 12.005V19.3418H84.4674V12.0141C84.5057 11.5308 84.4428 11.0447 84.2828 10.5871C84.1229 10.1294 83.8693 9.71026 83.5384 9.35636C83.2075 9.00246 82.8065 8.72163 82.361 8.53181C81.9155 8.34199 81.4354 8.24736 80.9514 8.25398C80.4477 8.24261 79.947 8.33389 79.4796 8.52229C79.0122 8.71069 78.588 8.99228 78.2326 9.34995C77.8772 9.70762 77.5981 10.1339 77.4123 10.6029C77.2264 11.0719 77.1377 11.5739 77.1515 12.0783V19.2593H75.2653V6.70407H77.1515Z" fill="currentColor"/>
<path d="M98.4674 15.6642H100.528C100.115 16.8385 99.3335 17.8471 98.2999 18.5383C97.2663 19.2296 96.0367 19.5663 94.7957 19.4977C93.9434 19.5187 93.0959 19.3638 92.3058 19.0428C91.5158 18.7218 90.8001 18.2414 90.2033 17.6316C89.6064 17.0217 89.1412 16.2955 88.8365 15.4979C88.5318 14.7004 88.3941 13.8485 88.4321 12.9954C88.4321 9.39119 90.8219 6.49313 94.6675 6.49313C98.5132 6.49313 100.903 9.39119 100.903 12.9954V13.7566H90.364C90.4547 14.869 90.9656 15.9048 91.7925 16.6529C92.6194 17.4011 93.7 17.8051 94.814 17.7827C95.5612 17.8145 96.3018 17.6321 96.949 17.2568C97.5962 16.8815 98.123 16.329 98.4674 15.6642ZM90.3915 11.9958H98.9436C98.8074 10.9564 98.2986 10.002 97.5118 9.31059C96.7251 8.6192 95.7142 8.23796 94.6675 8.23796C93.6209 8.23796 92.61 8.6192 91.8232 9.31059C91.0365 10.002 90.5276 10.9564 90.3915 11.9958Z" fill="currentColor"/>
<path d="M110.526 9.24444L107.386 19.3326H105.225L101.269 6.70406H103.284L106.296 16.9573L109.492 6.70406H111.552L114.747 16.9573L117.76 6.70406H119.774L115.837 19.2593H113.676L110.526 9.24444Z" fill="currentColor"/>
<path d="M130.597 10.0882H128.683C128.528 9.00601 127.768 8.12558 125.616 8.12558C123.657 8.12558 122.622 8.70336 122.622 9.9598C122.622 12.9771 130.991 11.0145 130.991 15.7467C130.991 18.1954 128.976 19.5252 125.863 19.5252C122.366 19.5252 120.534 17.581 120.37 15.3707H122.329C122.457 16.6547 123.409 17.9111 125.854 17.9111C126.889 17.9111 129.068 17.636 129.068 15.921C129.068 12.7753 120.699 14.7379 120.699 10.134C120.699 7.86879 122.384 6.52982 125.625 6.52982C128.867 6.52982 130.377 8.25398 130.597 10.0882Z" fill="currentColor"/>
<path d="M49.3162 12.9954C49.3433 9.70307 48.1218 6.52314 45.8983 4.09811C43.6749 1.67309 40.6154 0.18377 37.3379 -0.0689282C34.0604 -0.321627 30.8093 0.681134 28.2415 2.73675C25.6738 4.79236 23.9807 7.74758 23.5044 11.0053C23.3091 12.2972 23.3091 13.6111 23.5044 14.903C23.8954 17.4948 25.0597 19.9076 26.8445 21.8246C28.6293 23.7417 30.9512 25.0733 33.5053 25.6446C36.0594 26.216 38.7263 26.0004 41.1558 25.0261C43.5853 24.0518 45.6639 22.3645 47.1187 20.1855C46.1023 19.3877 44.9486 18.7273 43.8682 18.012C42.8838 19.495 41.4858 20.6553 39.8481 21.3485C38.2104 22.0417 36.4054 22.2373 34.6576 21.9108C32.9098 21.5843 31.2964 20.7503 30.0183 19.5124C28.7401 18.2745 27.8536 16.6875 27.4691 14.9489H49.1697C49.2677 14.3024 49.3167 13.6493 49.3162 12.9954ZM27.4691 11.0053C27.9165 8.98351 29.0391 7.17508 30.6515 5.87884C32.2639 4.58259 34.2695 3.8761 36.3371 3.8761C38.4046 3.8761 40.4102 4.58259 42.0226 5.87884C43.635 7.17508 44.7576 8.98351 45.205 11.0053H27.4691Z" fill="currentColor"/>
<path d="M59.6994 0C57.1333 0 54.6248 0.762168 52.4911 2.19012C50.3575 3.61808 48.6945 5.64768 47.7125 8.02228C46.7305 10.3969 46.4735 13.0098 46.9742 15.5307C47.4748 18.0516 48.7105 20.3671 50.525 22.1846C52.3395 24.002 54.6514 25.2397 57.1682 25.7411C59.685 26.2426 62.2938 25.9852 64.6646 25.0016C67.0354 24.018 69.0617 22.3524 70.4874 20.2153C71.913 18.0782 72.674 15.5657 72.674 12.9954C72.674 9.54882 71.307 6.24338 68.8738 3.80627C66.4406 1.36916 63.1405 0 59.6994 0ZM59.6994 22.1023C57.9029 22.1023 56.1468 21.5687 54.6531 20.5691C53.1594 19.5694 51.9952 18.1485 51.3077 16.4861C50.6202 14.8237 50.4404 12.9945 50.7908 11.2297C51.1413 9.46493 52.0064 7.84387 53.2767 6.57154C54.547 5.2992 56.1654 4.43273 57.9274 4.08169C59.6893 3.73065 61.5157 3.91082 63.1754 4.5994C64.8351 5.28798 66.2537 6.45406 67.2517 7.95017C68.2498 9.44628 68.7825 11.2052 68.7825 13.0046C68.7801 15.4167 67.8224 17.7293 66.1195 19.435C64.4166 21.1406 62.1077 22.0999 59.6994 22.1023Z" fill="currentColor"/>
</svg>
