<svg width="60" height="60" viewBox="0 0 60 60" fill="none" xmlns="http://www.w3.org/2000/svg">
<path d="M30 5L32.2791 17.0744L38.5505 6.50768L36.5625 18.6334L46.0697 10.8489L40.0543 21.5634L51.6506 17.5L42.3335 25.511L54.6202 25.6588L43.125 30L54.6202 34.3412L42.3335 34.489L51.6506 42.5L40.0543 38.4366L46.0697 49.1511L36.5625 41.3666L38.5505 53.4923L32.2791 42.9256L30 55L27.7209 42.9256L21.4495 53.4923L23.4375 41.3666L13.9303 49.1511L19.9457 38.4366L8.34937 42.5L17.6665 34.489L5.37981 34.3412L16.875 30L5.37981 25.6588L17.6665 25.511L8.34937 17.5L19.9457 21.5634L13.9303 10.8489L23.4375 18.6334L21.4495 6.50768L27.7209 17.0744L30 5Z" fill="#DA1135"/>
</svg>
