<svg width="60" height="60" viewBox="0 0 60 60" fill="none" xmlns="http://www.w3.org/2000/svg">
<path d="M30 5L31.0638 23.2837L37.7254 6.22359L33.0871 23.9412L44.6946 9.77457L34.8083 25.1917L50.2254 15.3054L36.0588 26.9129L53.7764 22.2746L36.7163 28.9362L55 30L36.7163 31.0638L53.7764 37.7254L36.0588 33.0871L50.2254 44.6946L34.8083 34.8083L44.6946 50.2254L33.0871 36.0588L37.7254 53.7764L31.0638 36.7163L30 55L28.9362 36.7163L22.2746 53.7764L26.9129 36.0588L15.3054 50.2254L25.1917 34.8083L9.77457 44.6946L23.9412 33.0871L6.22359 37.7254L23.2837 31.0638L5 30L23.2837 28.9362L6.22359 22.2746L23.9412 26.9129L9.77457 15.3054L25.1917 25.1917L15.3054 9.77457L26.9129 23.9412L22.2746 6.22359L28.9362 23.2837L30 5Z" fill="#DA1135"/>
</svg>
