<svg width="60" height="60" viewBox="0 0 60 60" fill="none" xmlns="http://www.w3.org/2000/svg">
<path d="M30 5L33.1326 10.2215L37.7254 6.22359L39.0912 12.1576L44.6946 9.77457L44.1598 15.8402L50.2254 15.3054L47.8424 20.9088L53.7764 22.2746L49.7785 26.8674L55 30L49.7785 33.1326L53.7764 37.7254L47.8424 39.0912L50.2254 44.6946L44.1598 44.1598L44.6946 50.2254L39.0912 47.8424L37.7254 53.7764L33.1326 49.7785L30 55L26.8674 49.7785L22.2746 53.7764L20.9088 47.8424L15.3054 50.2254L15.8402 44.1598L9.77457 44.6946L12.1576 39.0912L6.22359 37.7254L10.2215 33.1326L5 30L10.2215 26.8674L6.22359 22.2746L12.1576 20.9088L9.77457 15.3054L15.8402 15.8402L15.3054 9.77457L20.9088 12.1576L22.2746 6.22359L26.8674 10.2215L30 5Z" fill="#DA1135"/>
</svg>
