<svg width="196" height="282" viewBox="0 0 196 282" fill="none" xmlns="http://www.w3.org/2000/svg">
<path d="M94.5141 361.841C155.145 271.893 157.717 209.816 148.254 169.313C137.691 124.111 107.404 85.5282 118.474 75.6552C125.561 69.3327 144.537 79.314 182.886 103.069C299.176 175.103 316.448 202.09 344.472 195.504C383.733 186.283 376.953 126.934 428.942 98.2819C467.128 77.2393 512.928 86.0207 547.076 97.6165M90.0951 358.869C148.862 271.18 153.822 209.419 146.437 170.603C138.182 127.226 109.211 90.7796 120.568 81.7075C127.87 75.8741 146.504 85.6944 183.543 108.633C296.095 178.329 313.981 205.423 341.616 198.587C380.776 188.744 371.115 126.481 422.659 95.7988C423.783 95.1298 424.898 94.4861 426.032 93.8718C463.477 73.6164 509.72 82.1589 544.225 93.3561M85.6834 355.894C142.581 270.472 149.95 209.116 144.627 171.893C138.693 130.404 111.03 96.0308 122.671 87.7593C130.189 82.4147 148.484 92.0745 184.206 114.199C293.008 181.558 311.549 208.854 338.77 201.664C377.869 191.338 365.284 125.992 416.386 93.3091C417.507 92.5916 418.624 91.8763 419.775 91.22C457.358 69.7959 505.527 77.9544 541.381 89.0906M81.2662 352.92C136.3 269.748 146.086 208.929 142.813 173.184C139.193 133.66 112.853 101.285 124.768 93.8148C132.509 88.9607 150.45 98.4603 184.865 119.765C289.928 184.795 309.098 212.228 335.919 204.744C374.935 193.857 359.441 125.48 410.108 90.8211C411.232 90.0515 412.358 89.2863 413.507 88.5723C450.878 65.38 501.323 73.7541 538.524 84.828M76.8499 349.947C130.021 269.038 142.222 208.871 140.998 174.476C139.665 137.005 114.684 106.54 126.868 99.8693C134.833 95.5063 152.422 104.844 185.527 125.331C286.846 188.027 306.647 215.597 333.069 207.822C372.008 196.363 353.593 124.943 403.828 88.328C404.957 87.5087 406.088 86.6886 407.25 85.9141C444.59 61.2738 497.126 69.546 535.683 80.5604M72.434 346.973C123.743 268.325 138.345 208.959 139.189 175.767C140.085 140.447 116.518 111.8 128.97 105.921C137.166 102.052 154.396 111.226 186.19 130.896C283.768 191.256 304.199 218.958 330.222 210.899C369.078 198.864 347.737 124.383 397.556 85.8419C398.688 84.9659 399.818 84.0874 400.994 83.2646C438.308 57.1871 492.938 65.3417 532.84 76.2986M68.0188 343.999C117.461 267.61 134.432 209.205 137.373 177.06C140.397 143.988 118.363 117.061 131.067 111.977C139.496 108.603 156.368 117.615 186.847 136.464C280.682 194.488 301.746 222.317 327.369 213.979C366.148 201.359 341.867 123.809 391.276 83.3552C392.416 82.4229 393.545 81.4899 394.729 80.6173C432.018 53.1114 488.737 61.1442 529.987 72.0375M63.6027 341.026C111.18 266.896 124.602 208.092 135.56 178.351C134.639 147.248 120.21 122.329 133.166 118.03C141.831 115.156 158.338 123.994 187.513 142.036C277.604 197.726 299.296 225.676 324.523 217.064C363.219 203.854 335.992 123.222 385.002 80.8742C386.142 79.8899 387.279 78.8986 388.474 77.9714C425.748 49.0471 484.55 56.9395 527.147 67.7778M59.1856 338.052C104.899 266.181 119.871 207.843 133.746 179.642C134.202 150.552 122.06 127.604 135.265 124.084C144.169 121.711 160.307 130.374 188.169 147.596C274.512 200.955 296.839 229.016 321.671 220.136C360.281 206.327 330.097 122.607 378.72 78.3793C379.862 77.3403 381.003 76.2936 382.208 75.3131C419.473 44.9791 480.344 52.7327 524.295 63.5071M54.7695 335.078C98.6181 265.468 115.141 207.598 131.932 180.934C133.765 153.857 123.914 132.883 137.364 130.138C146.508 128.27 162.28 136.758 188.829 153.162C271.438 204.187 294.383 232.357 318.82 223.213C357.346 208.799 324.195 121.985 372.442 75.8887C373.587 74.7963 374.732 73.6947 375.947 72.6603C413.205 40.923 476.146 48.5273 521.447 59.2419M50.3553 332.105C92.3404 264.753 110.411 207.351 130.12 182.227C133.331 157.164 125.772 138.172 139.463 136.194C148.851 134.836 164.254 143.144 189.49 158.725C268.353 207.412 291.926 235.691 315.969 226.29C354.406 211.262 318.283 121.351 366.165 73.3987C367.312 72.2496 368.463 71.0964 369.685 70.0077C406.944 36.8723 471.949 44.3226 518.599 54.9761M45.9373 329.13C86.0566 264.042 105.683 207.102 128.31 183.522C132.898 160.474 127.631 143.468 141.564 142.254C151.193 141.413 166.227 149.532 190.153 164.302C265.274 210.653 289.47 239.031 313.125 229.376C351.471 213.727 312.366 120.721 359.892 70.9195C361.042 69.715 362.192 68.5104 363.431 67.37C400.695 32.8417 467.758 40.131 515.758 50.7248M41.5218 326.157C79.7775 263.327 100.949 206.858 126.494 184.809C132.459 163.774 129.483 148.764 143.662 148.301C153.533 147.98 168.197 155.911 190.813 169.863C262.196 213.876 287.008 242.351 310.272 232.451C348.522 216.171 306.426 120.065 353.613 68.4261C354.763 67.1664 355.925 65.9066 357.17 64.7073C394.447 28.7958 463.558 35.9119 512.91 46.4509M37.1089 323.181C73.4961 262.613 96.218 206.612 124.681 186.102C132.024 167.082 131.336 154.069 145.761 154.355C155.874 154.557 170.169 162.293 191.473 175.427C259.11 217.11 284.547 245.676 307.422 235.529C345.576 218.611 300.477 119.403 347.334 65.9381C348.487 64.6217 349.655 63.3083 350.905 62.0574C388.196 24.7594 459.359 31.7144 510.066 42.1842M32.6906 320.209C67.2154 261.899 91.4885 206.364 122.868 187.392C131.588 170.386 133.187 159.377 147.863 160.413C158.214 161.141 172.143 168.678 192.131 181C256.025 220.347 282.076 248.995 304.568 238.613C342.62 221.05 294.523 118.755 341.053 63.4544C342.208 62.0833 343.382 60.7175 344.64 59.4122C381.954 20.7325 455.159 27.5171 507.209 37.9296M28.274 317.235C60.9339 261.185 86.7569 206.118 121.053 188.684C131.152 173.691 135.035 164.69 149.96 166.463C160.549 167.722 174.112 175.06 192.796 186.561C252.945 223.572 279.611 252.302 301.723 241.686C339.667 223.468 288.559 118.08 334.783 60.967C335.939 59.54 337.12 58.1218 338.394 56.759C375.722 16.6987 450.965 23.3074 504.361 33.6551M23.8572 314.261C54.6544 260.471 82.0282 205.875 119.24 189.975C130.706 176.997 136.88 170.007 152.059 172.517C162.882 174.309 176.084 181.442 193.453 192.122C249.86 226.798 277.138 255.606 298.869 244.759C336.701 225.878 282.581 117.405 328.499 58.467C329.656 56.9828 330.844 55.5135 332.12 54.0993C369.491 12.6722 446.772 19.1018 501.516 29.3957M19.4378 311.283C48.3702 259.753 77.2917 205.62 117.423 191.263C130.274 180.298 138.718 175.321 154.152 178.567C165.206 180.886 178.052 187.821 194.111 197.689C246.775 230.028 274.663 258.91 296.018 247.839C333.736 228.291 276.599 116.737 322.226 55.9865C323.382 54.4458 324.579 52.9246 325.862 51.4561C363.267 8.64907 442.572 14.9023 498.672 25.1381M15.0228 308.311C42.0941 259.049 81.1828 221.411 115.613 192.559C128.497 181.763 140.561 180.647 156.255 184.627C167.54 187.482 180.028 194.21 194.776 203.26C243.698 233.268 272.189 262.216 293.172 250.923C330.762 230.691 270.606 116.061 315.946 53.4952C317.103 51.9006 318.31 50.3249 319.599 48.8027C357.043 4.62457 438.37 10.6997 495.821 20.8678M10.6084 305.339C35.8136 258.326 69.0063 209.165 113.8 193.848C129.959 188.324 142.395 185.967 158.355 190.679C169.867 194.072 181.998 200.591 195.436 208.825C240.617 236.496 269.708 265.51 290.322 253.998C327.781 233.081 264.604 115.383 309.668 51.0055C310.826 49.3529 312.043 47.7299 313.339 46.1501C350.916 0.677029 434.177 6.49361 492.979 16.6019M6.19127 302.365C29.5292 257.614 63.5585 206.961 111.986 195.139C129.164 190.947 144.226 191.291 160.453 196.732C172.191 200.664 183.97 206.974 196.095 214.39C237.534 239.728 267.275 268.89 287.471 257.078C324.699 235.303 258.5 114.642 303.39 48.5173C304.544 46.8067 305.773 45.1341 307.076 43.4993C344.659 -3.38248 429.978 2.28815 490.125 12.3376M1.77539 299.393C23.2492 256.902 58.3717 204.641 110.172 196.433C188.265 184.065 251.166 280.241 284.623 260.156C322.761 237.259 248.913 107.53 300.816 40.8485C338.403 -7.43917 425.786 -1.91814 487.278 8.07566" stroke="currentColor" stroke-width="2" stroke-miterlimit="10"/>
</svg>
