<svg width="120" height="32" viewBox="0 0 120 32" fill="none" xmlns="http://www.w3.org/2000/svg">
<path d="M17.4362 24.2114L7.12386 31.7383L11.0956 19.6047L0.750458 12.1229L13.5175 12.1508L17.4362 0L21.355 12.1508L34.122 12.1229L23.7768 19.6047L27.7486 31.7383L17.4362 24.2114Z" fill="currentColor"/>
<path d="M53.2188 21.3542C53.2188 20.7639 53.0104 20.3108 52.5938 19.9948C52.1771 19.6788 51.4271 19.3455 50.3438 18.9948C49.2604 18.6441 48.4028 18.2986 47.7708 17.9583C46.0486 17.0278 45.1875 15.7743 45.1875 14.1979C45.1875 13.3785 45.4184 12.6476 45.8802 12.0052C46.342 11.3628 47.0052 10.8611 47.8698 10.5C48.7344 10.1389 49.7049 9.95833 50.7812 9.95833C51.8646 9.95833 52.8299 10.1545 53.6771 10.5469C54.5243 10.9392 55.1823 11.493 55.651 12.2083C56.1198 12.9236 56.3542 13.7361 56.3542 14.6458H53.2292C53.2292 13.9514 53.0104 13.4115 52.5729 13.026C52.1354 12.6406 51.5208 12.4479 50.7292 12.4479C49.9653 12.4479 49.3715 12.6094 48.9479 12.9323C48.5243 13.2552 48.3125 13.6805 48.3125 14.2083C48.3125 14.7014 48.5608 15.1146 49.0573 15.4479C49.5538 15.7812 50.2847 16.0937 51.25 16.3854C53.0278 16.9201 54.3229 17.5833 55.1354 18.375C55.9479 19.1667 56.3542 20.1528 56.3542 21.3333C56.3542 22.6458 55.8576 23.6753 54.8646 24.4219C53.8715 25.1684 52.5347 25.5417 50.8542 25.5417C49.6875 25.5417 48.625 25.3281 47.6667 24.901C46.7083 24.474 45.9774 23.8889 45.474 23.1458C44.9705 22.4028 44.7188 21.5417 44.7188 20.5625H47.8542C47.8542 22.2361 48.8542 23.0729 50.8542 23.0729C51.5972 23.0729 52.1771 22.9219 52.5938 22.6198C53.0104 22.3177 53.2188 21.8958 53.2188 21.3542ZM63.7145 19.9896V25.3333H60.5895V10.1667H66.5062C67.6451 10.1667 68.6468 10.375 69.5114 10.7917C70.376 11.2083 71.0409 11.8003 71.5062 12.5677C71.9715 13.3351 72.2041 14.2083 72.2041 15.1875C72.2041 16.6736 71.6954 17.8455 70.6781 18.7031C69.6607 19.5608 68.2527 19.9896 66.4541 19.9896H63.7145ZM63.7145 17.4583H66.5062C67.3326 17.4583 67.9628 17.2639 68.3968 16.875C68.8309 16.4861 69.0479 15.9306 69.0479 15.2083C69.0479 14.4653 68.8291 13.8646 68.3916 13.4062C67.9541 12.9479 67.35 12.7118 66.5791 12.6979H63.7145V17.4583ZM83.1791 22.2083H77.6999L76.6582 25.3333H73.3353L78.9812 10.1667H81.877L87.5541 25.3333H84.2312L83.1791 22.2083ZM78.5437 19.6771H82.3353L80.4291 14L78.5437 19.6771ZM96.7061 19.7812H94.2165V25.3333H91.0915V10.1667H96.7269C98.5186 10.1667 99.9005 10.566 100.873 11.3646C101.845 12.1632 102.331 13.2917 102.331 14.75C102.331 15.7847 102.107 16.6476 101.659 17.3385C101.211 18.0295 100.533 18.5799 99.6228 18.9896L102.904 25.1875V25.3333H99.5499L96.7061 19.7812ZM94.2165 17.25H96.7374C97.5221 17.25 98.1297 17.0503 98.5603 16.651C98.9908 16.2517 99.2061 15.7014 99.2061 15C99.2061 14.2847 99.003 13.7222 98.5967 13.3125C98.1905 12.9028 97.5672 12.6979 96.7269 12.6979H94.2165V17.25ZM111.577 19.25L109.952 21V25.3333H106.827V10.1667H109.952V17.0417L111.327 15.1562L115.191 10.1667H119.035L113.65 16.9062L119.191 25.3333H115.473L111.577 19.25Z" fill="currentColor"/>
</svg>
