<svg width="185" height="22" viewBox="0 0 185 22" fill="none" xmlns="http://www.w3.org/2000/svg">
<path fill-rule="evenodd" clip-rule="evenodd" d="M26.9143 11.6377C26.7008 11.1063 26.5727 10.5324 26.5301 9.91594H38.5693C38.6334 9.38454 38.6654 8.84251 38.6654 8.28986C38.6654 7.12077 38.5053 6.03672 38.1851 5.03768C37.8649 4.03865 37.3739 3.16715 36.7122 2.42319C36.0718 1.67923 35.2713 1.09469 34.3108 0.669565C33.3502 0.223189 32.2081 0 30.8847 0C29.6253 0 28.5046 0.223189 27.5227 0.669565C26.5407 1.09469 25.6975 1.68986 24.9931 2.45507C24.31 3.22029 23.7871 4.1343 23.4242 5.1971C23.0613 6.23865 22.8798 7.3971 22.8798 8.67247C22.8798 9.99034 23.0399 11.1807 23.3601 12.2435C23.7017 13.285 24.214 14.1884 24.8971 14.9536C25.5801 15.7188 26.4233 16.3034 27.4266 16.7072C28.4512 17.1111 29.6359 17.313 30.9807 17.313C31.8559 17.313 32.6778 17.228 33.4462 17.058C34.236 16.8667 34.9511 16.5797 35.5915 16.1971C36.2533 15.7932 36.8189 15.2831 37.2886 14.6667C37.7795 14.0502 38.1317 13.3169 38.3452 12.4667H34.5989C34.3001 13.1469 33.8198 13.6251 33.1581 13.9015C32.5177 14.1778 31.8132 14.3159 31.0448 14.3159C30.319 14.3159 29.6786 14.199 29.1236 13.9652C28.59 13.7314 28.1417 13.4232 27.7788 13.0406C27.4159 12.6367 27.1277 12.1691 26.9143 11.6377ZM33.8625 4.17681C34.6309 4.857 35.0472 5.85604 35.1112 7.17391H26.5621C26.6261 6.62126 26.7649 6.10048 26.9783 5.6116C27.1918 5.12271 27.4693 4.69759 27.8108 4.33623C28.1737 3.97488 28.6113 3.68792 29.1236 3.47536C29.6359 3.2628 30.2336 3.15652 30.9167 3.15652C32.1334 3.15652 33.1154 3.49662 33.8625 4.17681ZM54.3679 11.0957L58.4664 17.0899H62.6609L56.7373 8.64058L62.3087 0.286957H58.1462L54.56 6.21739L50.8778 0.286957H46.6512L52.1906 8.57681L46.363 17.0899H50.3975L54.3679 11.0957ZM15.0171 0.28696V3.44348H9.31763V17.0899H5.69945V3.44348H0V0.28696H15.0171ZM172.256 4.78261C172.235 6.20676 172.171 7.64155 172.064 9.08696C172.021 9.63961 171.947 10.2029 171.84 10.7768C171.755 11.3295 171.605 11.8502 171.392 12.3391C171.2 12.8068 170.901 13.2 170.495 13.5188C170.111 13.8164 169.599 13.9652 168.958 13.9652V17.0899H169.855C170.815 17.0899 171.659 16.9517 172.384 16.6754C173.131 16.3778 173.729 15.9101 174.177 15.2725C174.434 14.8899 174.647 14.4754 174.818 14.029C174.989 13.5614 175.117 13.0725 175.202 12.5623C175.287 12.0309 175.351 11.5101 175.394 11C175.458 10.4686 175.501 10.0116 175.522 9.62899C175.586 8.6087 175.629 7.58841 175.65 6.56812L175.778 3.44348H181.318V17.0899H185V0.286957H172.384C172.342 1.83865 172.299 3.3372 172.256 4.78261ZM148.809 9.91594C148.852 10.5324 148.98 11.1063 149.193 11.6377C149.407 12.1691 149.695 12.6367 150.058 13.0406C150.421 13.4232 150.869 13.7314 151.402 13.9652C151.957 14.199 152.598 14.3159 153.324 14.3159C154.092 14.3159 154.797 14.1778 155.437 13.9015C156.099 13.6251 156.579 13.1469 156.878 12.4667H160.624C160.411 13.3169 160.058 14.0502 159.567 14.6667C159.098 15.2831 158.532 15.7932 157.87 16.1971C157.23 16.5797 156.515 16.8667 155.725 17.058C154.957 17.228 154.135 17.313 153.26 17.313C151.915 17.313 150.73 17.1111 149.705 16.7072C148.702 16.3034 147.859 15.7188 147.176 14.9536C146.493 14.1884 145.981 13.285 145.639 12.2435C145.319 11.1807 145.159 9.99034 145.159 8.67247C145.159 7.3971 145.34 6.23865 145.703 5.1971C146.066 4.1343 146.589 3.22029 147.272 2.45507C147.976 1.68986 148.82 1.09469 149.801 0.669565C150.783 0.223189 151.904 0 153.164 0C154.487 0 155.629 0.223189 156.59 0.669565C157.55 1.09469 158.351 1.67923 158.991 2.42319C159.653 3.16715 160.144 4.03865 160.464 5.03768C160.784 6.03672 160.944 7.12077 160.944 8.28986C160.944 8.84251 160.912 9.38454 160.848 9.91594H148.809ZM157.39 7.17391C157.326 5.85604 156.91 4.857 156.141 4.17681C155.394 3.49662 154.412 3.15652 153.196 3.15652C152.512 3.15652 151.915 3.2628 151.402 3.47536C150.89 3.68792 150.453 3.97488 150.09 4.33623C149.748 4.69759 149.471 5.12271 149.257 5.6116C149.044 6.10048 148.905 6.62126 148.841 7.17391H157.39ZM121.618 3.31594C121.596 4.27246 121.554 5.26087 121.49 6.28116C121.49 6.51498 121.468 6.87633 121.426 7.36522C121.383 7.85411 121.33 8.38551 121.266 8.95942C121.202 9.53333 121.116 10.1179 121.009 10.713C120.903 11.287 120.775 11.744 120.625 12.0841C120.476 12.5729 120.188 13.0193 119.761 13.4232C119.355 13.8058 118.843 13.9971 118.224 13.9971V22H121.778V17.0899H133.305V22H136.859V13.9971H134.65V0.286957H121.65C121.65 1.3285 121.639 2.33816 121.618 3.31594ZM124.98 3.44348H130.999V13.9971H123.539C123.795 13.572 123.998 13.1256 124.147 12.658C124.297 12.1903 124.414 11.7227 124.5 11.2551C124.585 10.7662 124.638 10.2879 124.66 9.82029C124.702 9.35266 124.745 8.91691 124.788 8.51304C124.83 7.68406 124.862 6.82319 124.884 5.93043C124.905 5.03768 124.937 4.20869 124.98 3.44348ZM111.787 0.28696V3.44348H106.087V17.0899H102.469V3.44348H96.7696V0.28696H111.787ZM76.9187 13.7618L73.9171 8.58744L76.9187 3.41308L82.922 3.41308L85.9236 8.58744L82.922 13.7618H76.9187ZM70.5385 9.41946C70.2399 8.9046 70.2399 8.27028 70.5385 7.75543L74.5055 0.917038C74.8041 0.402188 75.3561 0.0850269 75.9534 0.0850269L83.8873 0.0850265C84.4846 0.0850265 85.0366 0.402187 85.3352 0.917038L89.3022 7.75543C89.6008 8.27028 89.6008 8.9046 89.3022 9.41945L85.3352 16.2578C85.0366 16.7727 84.4846 17.0899 83.8873 17.0899H75.9534C75.3561 17.0899 74.8041 16.7727 74.5055 16.2578L70.5385 9.41946Z" fill="currentColor"/>
</svg>
