<svg width="50" height="50" viewBox="0 0 50 50" fill="none" xmlns="http://www.w3.org/2000/svg">
<path d="M18.1133 32.8355L10.6572 25.3794C10.2554 24.9776 9.71052 24.7519 9.14233 24.7519C8.57415 24.7519 8.02924 24.9776 7.62747 25.3794C7.22571 25.7811 7 26.3261 7 26.8942C7 27.1756 7.05541 27.4542 7.16308 27.7141C7.27074 27.974 7.42854 28.2102 7.62747 28.4091L16.6092 37.3908C17.4472 38.2288 18.8009 38.2288 19.6389 37.3908L42.3725 14.6572C42.7743 14.2554 43 13.7105 43 13.1423C43 12.5742 42.7743 12.0292 42.3725 11.6275C41.9708 11.2257 41.4258 11 40.8577 11C40.2895 11 39.7446 11.2257 39.3428 11.6275L18.1133 32.8355Z" fill="currentColor"/>
</svg>
