<svg width="50" height="50" viewBox="0 0 50 50" fill="none" xmlns="http://www.w3.org/2000/svg">
<path fill-rule="evenodd" clip-rule="evenodd" d="M37.4112 3.16259C35.3004 3.65379 33.5388 4.66865 32.0557 6.24803C30.2564 8.16419 29.4313 10.1289 29.3086 12.7898C29.2131 14.864 29.4721 16.1791 30.3249 17.949C30.8397 19.0175 31.1856 19.4801 32.3107 20.6051C33.4196 21.714 33.9092 22.0822 34.9439 22.5861C37.9491 24.0494 41.3879 24.0529 44.3341 22.5958C44.9774 22.2776 45.7629 21.6853 46.5813 20.901L47.8396 19.6952L46.5317 18.6859L45.2235 17.6766L44.3993 18.4334C42.9882 19.729 41.3865 20.3706 39.5554 20.3739C36.9984 20.3786 34.7593 18.9478 33.6023 16.57C32.0213 13.3204 33.179 8.95943 36.1175 7.096C38.0647 5.86107 40.9936 5.76238 43.2421 6.8558L43.9159 7.18343V8.89754V10.6117H45.5607H47.2056V8.14V5.66834L46.5021 5.12862C45.5901 4.42906 44.2721 3.80311 42.8692 3.40323C41.4151 2.98879 38.6769 2.86801 37.4112 3.16259ZM6.38318 5.05366V6.70604H8.0868C9.56972 6.70604 9.80404 6.74014 9.89525 6.96892C9.95297 7.11357 11.2669 10.7807 12.8152 15.1181C14.3634 19.4556 15.6765 23.1227 15.733 23.2674C15.8215 23.4941 16.0479 23.5303 17.3774 23.5303H18.9193L19.1905 22.8167C19.3397 22.4242 20.7447 18.6557 22.3129 14.4422L25.1637 6.78115L26.7642 6.73849L28.3645 6.69582V5.0454V3.39482L25.5008 3.43553L22.6371 3.47639L20.1708 10.6868C18.8144 14.6525 17.6807 17.9254 17.6514 17.9598C17.6221 17.9942 17.5618 17.9859 17.5175 17.9413C17.4731 17.8968 16.5643 15.2999 15.4978 12.1705C14.4313 9.04115 13.3164 5.78792 13.0202 4.941L12.4814 3.40128H9.4323H6.38318V5.05366ZM7.8785 29.2385V30.7406H9.4486H11.0187V37.5004V44.2601H9.4486H7.8785V45.8374V47.4146H15.4299H22.9813V45.9149V44.415L18.757 44.3752L14.5327 44.3352L14.4926 40.3545C14.469 38.0149 14.5166 36.0641 14.6078 35.6227C15.1241 33.125 17.1424 31.1126 19.4495 30.7949L20.1402 30.6998V32.2224V33.745H21.785H23.4299V30.7406V27.7363L21.6729 27.7386C19.8135 27.7408 18.4322 27.9833 17.4709 28.476C16.5514 28.9472 15.3821 29.9512 14.7923 30.7759C14.2671 31.5103 14.2374 31.5287 14.1406 31.1805C14.0849 30.9799 14.0325 30.3342 14.0243 29.7455C14.0161 29.1568 13.9673 28.464 13.9159 28.2057L13.8224 27.7363H10.8505H7.8785V29.2385ZM27.1682 29.3833V31.0303L28.6262 31.0732L30.0841 31.1162L30.1693 36.6742C30.2627 42.7575 30.2891 42.9606 31.2132 44.7023C32.06 46.2985 33.6277 47.44 35.5612 47.8686C36.7322 48.1282 38.6926 47.9898 39.7764 47.5713C40.7546 47.1934 42.3265 45.8285 42.7995 44.946C43.0507 44.4773 43.3178 44.2446 43.3178 44.4941C43.3178 44.6466 43.6264 46.7321 43.7 47.0767C43.7714 47.4115 43.7963 47.4146 46.386 47.4146H49V45.8374V44.2601H47.7523H46.5046L46.4065 41.983C46.3525 40.7306 46.3084 37.0128 46.3084 33.7211V27.7363H42.8692H39.4299V29.3887V31.0411H41.159H42.8881L42.8412 35.8188L42.7944 40.5965L42.2293 41.7444C41.2304 43.7738 39.5799 44.8644 37.5177 44.8577C36.2689 44.8536 35.4855 44.5173 34.7712 43.6791C33.703 42.4254 33.6872 42.3004 33.6315 34.6087L33.5815 27.7363H30.375H27.1682V29.3833ZM1 45.9125V47.5649H2.64486H4.28972V45.9125V44.2601H2.64486H1V45.9125Z" fill="currentColor"/>
</svg>
