<svg width="790" height="524" viewBox="0 0 790 524" fill="none" xmlns="http://www.w3.org/2000/svg">
<g clip-path="url(#clip0_817_3776)">
<path d="M864.407 -47C679.046 -18.4828 422.002 305.641 445.723 418.349C461.278 492.234 643.516 490.575 693.304 503.901C761.201 522.048 632.64 454.112 606.456 375.573C575.347 282.244 622.568 36.8924 472.762 80.0312C342.024 117.7 313.714 239.702 219.996 236.876C135.235 234.283 69.205 131.881 26.857 46.329" stroke="url(#paint0_linear_817_3776)" stroke-width="2" stroke-miterlimit="10"/>
<path d="M864.42 -39.5206C686.836 -7.72394 439.553 306.173 459.32 414.162C472.283 484.911 644.877 482.552 690.945 494.529C754.811 511.108 631.733 445.816 605.769 370.466C574.66 280.118 617.591 45.3181 472.97 86.9143C343.955 123.922 317.914 248.762 223.353 248.944C138.437 248.788 69.8012 148.602 25.5866 64.8783" stroke="url(#paint1_linear_817_3776)" stroke-width="2" stroke-miterlimit="10"/>
<path d="M864.436 -32.0806C694.629 2.9956 457.106 306.639 472.907 409.936C483.277 477.548 646.24 474.489 688.588 485.118C748.435 500.076 630.828 437.481 605.085 365.307C573.975 277.94 612.603 53.7173 473.18 93.7581C345.889 130.118 322.116 258.121 226.7 260.973C141.641 263.565 70.4 165.297 24.3058 83.3882" stroke="url(#paint2_linear_817_3776)" stroke-width="2" stroke-miterlimit="10"/>
<path d="M864.436 -24.5881C702.406 13.7805 474.644 307.119 486.492 405.762C494.269 470.198 647.601 466.478 686.229 475.759C742.084 489.007 629.908 429.147 604.398 360.161C573.197 275.763 607.612 62.1172 473.374 100.589C347.821 136.314 326.342 267.35 230.07 272.989C144.869 278.031 71.0092 182.006 23.0355 101.886" stroke="url(#paint3_linear_817_3776)" stroke-width="2" stroke-miterlimit="10"/>
<path d="M864.448 -17.1218C710.118 24.5263 492.194 307.534 500.076 401.563C505.261 462.81 648.948 458.429 683.856 466.297C735.706 477.963 628.973 420.825 603.71 355.015C572.457 273.598 602.621 70.5297 473.581 107.434C349.751 142.51 330.554 276.437 233.401 285.018C148.083 292.549 71.5786 198.702 21.7512 120.396" stroke="url(#paint4_linear_817_3776)" stroke-width="2" stroke-miterlimit="10"/>
<path d="M864.461 -9.6554C717.882 35.2851 509.746 307.923 513.673 397.363C516.266 455.382 650.296 450.379 681.497 456.899C729.302 466.88 628.014 412.49 603.023 349.869C571.706 271.421 597.63 78.9553 473.775 114.291C351.695 148.732 334.779 285.588 236.758 297.06C151.297 307.067 72.136 215.397 20.468 138.919" stroke="url(#paint5_linear_817_3776)" stroke-width="2" stroke-miterlimit="10"/>
<path d="M864.461 -2.17603C725.647 46.044 527.31 308.117 527.258 393.176C527.258 447.916 651.696 442.304 679.138 447.488C722.925 455.745 627.055 404.168 602.336 344.736C570.941 269.243 592.653 87.3421 474.008 121.148C353.653 154.928 339.044 294.714 240.128 309.102C154.577 321.546 72.7972 232.145 19.2108 157.443" stroke="url(#paint6_linear_817_3776)" stroke-width="2" stroke-miterlimit="10"/>
<path d="M864.474 5.2901C733.424 56.7896 544.899 308.311 540.842 388.976C538.25 440.411 652.967 434.215 676.766 438.091C716.547 444.572 626.057 395.846 601.584 339.577C570.085 266.987 587.662 95.9878 474.125 127.979C355.571 161.383 343.205 303.801 243.395 321.118C157.675 335.999 73.3027 248.84 17.8497 175.94" stroke="url(#paint7_linear_817_3776)" stroke-width="2" stroke-miterlimit="10"/>
<path d="M864.486 12.7568C741.188 67.5487 562.54 308.428 554.439 384.777C549.332 432.854 654.249 426.114 674.406 428.68C710.143 433.243 625.058 387.525 600.948 334.457C569.359 264.875 582.801 104.44 474.383 134.836C357.566 167.618 347.469 312.874 246.803 333.161C160.966 350.452 73.9499 265.562 16.6303 194.463" stroke="url(#paint8_linear_817_3776)" stroke-width="2" stroke-miterlimit="10"/>
<path d="M864.486 20.2228C748.952 78.2942 580.234 308.441 568.023 380.577C560.453 425.258 655.519 417.973 672.046 419.282C703.726 421.784 624.086 379.203 600.261 329.31C568.529 262.697 577.758 112.839 474.526 141.706C359.446 173.866 351.63 321.948 250.095 345.215C164.129 364.905 74.4813 282.283 15.2821 212.999" stroke="url(#paint9_linear_817_3776)" stroke-width="2" stroke-miterlimit="10"/>
<path d="M864.499 27.6891C756.717 89.0529 598.031 308.376 581.608 376.377C571.653 417.623 656.686 409.807 669.752 409.884C697.284 410.04 623.088 370.894 599.639 324.164C567.751 260.506 572.845 121.277 474.85 148.55C361.52 180.101 355.985 330.983 253.569 357.244C167.473 379.28 75.2071 298.991 14.1414 231.509" stroke="url(#paint10_linear_817_3776)" stroke-width="2" stroke-miterlimit="10"/>
<path d="M864.511 35.1686C764.481 99.7989 615.945 308.234 595.192 372.19C582.943 409.949 658.138 403.728 667.315 400.474C690.492 403.066 621.947 362.585 598.887 319.031C566.818 258.329 567.777 129.69 474.992 155.407C363.386 186.323 360.133 340.005 256.862 369.287C170.623 393.721 75.7384 315.713 12.7932 250.033" stroke="url(#paint11_linear_817_3776)" stroke-width="2" stroke-miterlimit="10"/>
<path d="M864.511 42.6344C772.258 110.557 634.041 308.039 608.79 367.99C594.35 402.262 659.46 395.833 664.956 391.076C684.062 392.268 620.793 354.289 598.2 313.885C565.91 256.151 562.799 138.102 475.2 162.225C365.331 192.518 364.346 348.987 260.206 381.289C173.825 408.082 76.3347 332.395 11.5099 268.517" stroke="url(#paint12_linear_817_3776)" stroke-width="2" stroke-miterlimit="10"/>
<path d="M864.524 50.1013C780.022 121.304 652.33 307.858 622.374 363.79C605.886 394.589 660.794 387.939 662.557 381.666C677.606 381.445 619.613 345.993 597.473 308.752C564.925 253.973 557.769 146.502 475.355 169.109C367.223 198.767 368.506 358.009 263.511 393.358C176.987 422.484 76.8525 349.143 10.2 287.066" stroke="url(#paint13_linear_817_3776)" stroke-width="2" stroke-miterlimit="10"/>
<path d="M864.539 57.5671C787.789 132.062 670.842 307.741 635.961 359.59C617.554 386.954 662.119 380.045 660.239 372.267C671.218 370.621 618.474 337.723 596.827 303.567C563.968 251.717 552.82 154.863 475.603 175.914C369.195 204.936 372.747 366.94 266.909 405.347C180.23 436.82 77.5158 365.812 8.95789 305.537" stroke="url(#paint14_linear_817_3776)" stroke-width="2" stroke-miterlimit="10"/>
<path d="M864.539 65.0338C795.553 142.808 689.547 307.806 649.558 355.391C629.35 379.41 663.454 372.151 657.867 362.87C664.789 359.811 617.256 329.466 596.14 298.473C562.918 249.709 547.829 163.289 475.81 182.81C371.126 211.172 376.934 375.949 270.253 417.429C183.405 451.209 78.1121 382.56 7.67463 324.1" stroke="url(#paint15_linear_817_3776)" stroke-width="2" stroke-miterlimit="10"/>
<path d="M864.552 72.4999C803.318 153.567 708.537 308.13 663.143 351.191C641.223 371.995 664.776 364.257 655.508 353.459C658.36 348.987 615.998 321.248 595.453 293.327C561.816 247.622 542.839 171.675 476.005 189.628C373.058 217.328 381.107 384.841 273.61 429.432C186.594 465.519 78.7084 399.242 6.4043 342.584" stroke="url(#paint16_linear_817_3776)" stroke-width="2" stroke-miterlimit="10"/>
<path d="M864.565 79.979C811.095 164.312 727.591 308.804 676.727 347.004C653.123 364.723 666.111 356.363 653.149 344.061C651.93 338.176 614.689 313.055 594.818 288.181C560.675 245.599 537.887 180.061 476.264 196.511C375.041 223.537 385.32 393.824 277.007 441.499C189.822 479.881 79.3434 415.99 5.17275 361.133" stroke="url(#paint17_linear_817_3776)" stroke-width="2" stroke-miterlimit="10"/>
<path d="M864.565 87.4457C818.86 175.071 746.672 309.828 690.312 342.804C665.009 357.607 665.567 350.452 650.789 334.664C644.632 328.079 613.341 304.85 594.066 283.048C559.353 243.668 532.832 188.423 476.407 203.368C376.908 229.708 389.429 402.742 280.312 453.542C192.933 494.218 79.8879 432.698 3.83774 379.656" stroke="url(#paint18_linear_817_3776)" stroke-width="2" stroke-miterlimit="10"/>
<path d="M864.577 94.9504C826.623 185.856 765.648 311.241 703.844 338.643C676.739 350.672 667.86 341.663 648.352 325.292C638.565 317.074 611.889 296.865 593.313 277.94C557.913 241.892 527.776 196.835 476.548 210.251C378.76 235.877 393.512 411.699 283.591 465.609C196.017 508.567 80.4186 449.458 2.50177 398.205" stroke="url(#paint19_linear_817_3776)" stroke-width="2" stroke-miterlimit="10"/>
<path d="M864.59 102.379C834.388 196.576 784.444 312.836 717.493 334.405C688.496 343.751 669.778 333.109 646.057 315.856C632.473 305.966 610.54 288.816 592.691 272.769C556.5 240.221 522.811 205.08 476.821 217.031C380.692 241.789 397.633 420.385 287.013 477.574C199.18 522.696 81.0795 466.09 1.28319 416.651" stroke="url(#paint20_linear_817_3776)" stroke-width="2" stroke-miterlimit="10"/>
<path d="M864.59 109.845C842.152 207.322 803.006 314.65 731.077 330.205C638.176 350.361 566.546 201.048 477.015 223.913C382.623 248.036 401.833 429.458 290.357 489.642C202.381 537.162 81.6628 482.85 -7.08103e-05 435.2" stroke="url(#paint21_linear_817_3776)" stroke-width="2" stroke-miterlimit="10"/>
</g>
<defs>
<linearGradient id="paint0_linear_817_3776" x1="445.632" y1="-47" x2="445.632" y2="506.865" gradientUnits="userSpaceOnUse">
<stop stop-color="#FF10E7"/>
<stop offset="1" stop-color="#11DAB6"/>
</linearGradient>
<linearGradient id="paint1_linear_817_3776" x1="445.003" y1="-39.5206" x2="445.003" y2="497.127" gradientUnits="userSpaceOnUse">
<stop stop-color="#FF10E7"/>
<stop offset="1" stop-color="#11DAB6"/>
</linearGradient>
<linearGradient id="paint2_linear_817_3776" x1="444.371" y1="-32.0806" x2="444.371" y2="487.347" gradientUnits="userSpaceOnUse">
<stop stop-color="#FF10E7"/>
<stop offset="1" stop-color="#11DAB6"/>
</linearGradient>
<linearGradient id="paint3_linear_817_3776" x1="443.736" y1="-24.5881" x2="443.736" y2="477.61" gradientUnits="userSpaceOnUse">
<stop stop-color="#FF10E7"/>
<stop offset="1" stop-color="#11DAB6"/>
</linearGradient>
<linearGradient id="paint4_linear_817_3776" x1="443.099" y1="-17.1218" x2="443.099" y2="467.819" gradientUnits="userSpaceOnUse">
<stop stop-color="#FF10E7"/>
<stop offset="1" stop-color="#11DAB6"/>
</linearGradient>
<linearGradient id="paint5_linear_817_3776" x1="442.464" y1="-9.6554" x2="442.464" y2="458.087" gradientUnits="userSpaceOnUse">
<stop stop-color="#FF10E7"/>
<stop offset="1" stop-color="#11DAB6"/>
</linearGradient>
<linearGradient id="paint6_linear_817_3776" x1="441.836" y1="-2.17603" x2="441.836" y2="448.361" gradientUnits="userSpaceOnUse">
<stop stop-color="#FF10E7"/>
<stop offset="1" stop-color="#11DAB6"/>
</linearGradient>
<linearGradient id="paint7_linear_817_3776" x1="441.162" y1="5.2901" x2="441.162" y2="438.671" gradientUnits="userSpaceOnUse">
<stop stop-color="#FF10E7"/>
<stop offset="1" stop-color="#11DAB6"/>
</linearGradient>
<linearGradient id="paint8_linear_817_3776" x1="440.558" y1="12.7568" x2="440.558" y2="428.995" gradientUnits="userSpaceOnUse">
<stop stop-color="#FF10E7"/>
<stop offset="1" stop-color="#11DAB6"/>
</linearGradient>
<linearGradient id="paint9_linear_817_3776" x1="439.884" y1="20.2228" x2="439.884" y2="419.387" gradientUnits="userSpaceOnUse">
<stop stop-color="#FF10E7"/>
<stop offset="1" stop-color="#11DAB6"/>
</linearGradient>
<linearGradient id="paint10_linear_817_3776" x1="439.32" y1="27.6891" x2="439.32" y2="410.427" gradientUnits="userSpaceOnUse">
<stop stop-color="#FF10E7"/>
<stop offset="1" stop-color="#11DAB6"/>
</linearGradient>
<linearGradient id="paint11_linear_817_3776" x1="438.652" y1="35.1686" x2="438.652" y2="402.978" gradientUnits="userSpaceOnUse">
<stop stop-color="#FF10E7"/>
<stop offset="1" stop-color="#11DAB6"/>
</linearGradient>
<linearGradient id="paint12_linear_817_3776" x1="438.011" y1="42.6344" x2="438.011" y2="394.899" gradientUnits="userSpaceOnUse">
<stop stop-color="#FF10E7"/>
<stop offset="1" stop-color="#11DAB6"/>
</linearGradient>
<linearGradient id="paint13_linear_817_3776" x1="437.362" y1="50.1013" x2="437.362" y2="399.94" gradientUnits="userSpaceOnUse">
<stop stop-color="#FF10E7"/>
<stop offset="1" stop-color="#11DAB6"/>
</linearGradient>
<linearGradient id="paint14_linear_817_3776" x1="436.748" y1="57.5671" x2="436.748" y2="413.07" gradientUnits="userSpaceOnUse">
<stop stop-color="#FF10E7"/>
<stop offset="1" stop-color="#11DAB6"/>
</linearGradient>
<linearGradient id="paint15_linear_817_3776" x1="436.107" y1="65.0338" x2="436.107" y2="426.373" gradientUnits="userSpaceOnUse">
<stop stop-color="#FF10E7"/>
<stop offset="1" stop-color="#11DAB6"/>
</linearGradient>
<linearGradient id="paint16_linear_817_3776" x1="435.478" y1="72.4999" x2="435.478" y2="439.698" gradientUnits="userSpaceOnUse">
<stop stop-color="#FF10E7"/>
<stop offset="1" stop-color="#11DAB6"/>
</linearGradient>
<linearGradient id="paint17_linear_817_3776" x1="434.869" y1="79.979" x2="434.869" y2="453.181" gradientUnits="userSpaceOnUse">
<stop stop-color="#FF10E7"/>
<stop offset="1" stop-color="#11DAB6"/>
</linearGradient>
<linearGradient id="paint18_linear_817_3776" x1="434.201" y1="87.4457" x2="434.201" y2="466.739" gradientUnits="userSpaceOnUse">
<stop stop-color="#FF10E7"/>
<stop offset="1" stop-color="#11DAB6"/>
</linearGradient>
<linearGradient id="paint19_linear_817_3776" x1="433.539" y1="94.9504" x2="433.539" y2="480.422" gradientUnits="userSpaceOnUse">
<stop stop-color="#FF10E7"/>
<stop offset="1" stop-color="#11DAB6"/>
</linearGradient>
<linearGradient id="paint20_linear_817_3776" x1="432.937" y1="102.379" x2="432.937" y2="494.055" gradientUnits="userSpaceOnUse">
<stop stop-color="#FF10E7"/>
<stop offset="1" stop-color="#11DAB6"/>
</linearGradient>
<linearGradient id="paint21_linear_817_3776" x1="432.295" y1="109.845" x2="432.295" y2="508" gradientUnits="userSpaceOnUse">
<stop stop-color="#FF10E7"/>
<stop offset="1" stop-color="#11DAB6"/>
</linearGradient>
<clipPath id="clip0_817_3776">
<rect width="790" height="524" fill="white"/>
</clipPath>
</defs>
</svg>
