<svg width="790" height="532" viewBox="0 0 790 532" fill="none" xmlns="http://www.w3.org/2000/svg">
<g clip-path="url(#clip0_817_3525)">
<path d="M15.524 179.153C104.628 171.697 167.514 147.982 208.726 127.451C250.401 106.689 280.415 83.9126 335.26 71.6674C395.752 58.0616 435.276 64.157 450.909 67.5856C472.583 72.3477 471.237 75.5858 506.693 86.6338C574.804 107.859 587.743 98.4164 618.261 112.485C668.861 135.805 653.772 171.194 706.698 210.447C745.026 238.883 808.483 261.509 865.886 245.822C919.942 231.046 926.024 193.943 982.896 188.677C1006.26 186.514 1025.69 191.317 1064.53 200.923C1114.31 213.168 1147.74 228.27 1161.13 233.576C1200.79 249.318 1264.81 259.223 1369.3 228.134" stroke="url(#paint0_linear_817_3525)" stroke-width="2" stroke-miterlimit="10"/>
<path d="M14.9254 191.155C101.118 184.719 165.555 163.249 210.509 141.97C247.027 124.445 274.878 105.234 313.26 91.5058C321.654 88.5125 330.498 85.6145 340.022 83.111C400.037 67.3555 439.413 69.9542 455.848 71.5461C477.89 73.6686 477.89 76.0904 512.639 86.8254C537.129 94.3766 554.572 98.6897 568.083 101.52C591.049 106.323 602.546 106.649 620.669 115.887C627.431 119.306 633.777 123.493 639.581 128.364C666.425 150.882 665.282 179.427 709.814 209.686C748.577 236.027 811.613 255.946 868.036 240.367C872.506 239.13 876.911 237.668 881.234 235.986C924.854 218.992 934.65 189.1 984.638 184.406C989.905 183.904 995.201 183.754 1000.49 183.957C1018.26 184.583 1036.63 189.019 1065.71 196.203C1113.91 208.176 1146.82 222.992 1161.58 228.856C1172.39 233.112 1183.54 236.452 1194.92 238.843C1234.26 247.224 1289.88 248.095 1368.13 226.707" stroke="url(#paint1_linear_817_3525)" stroke-width="2" stroke-miterlimit="10"/>
<path d="M14.3268 204.215C97.5942 198.773 163.65 179.724 212.291 157.438C250.918 139.751 280.062 119.546 317.736 105.124C326.335 101.818 335.247 98.4706 344.812 95.5997C404.351 77.6809 443.522 75.5176 460.828 76.5516C483.128 77.9122 484.611 77.6537 518.598 88.0621C542.395 95.3684 559.77 100.307 573.022 103.777C595.349 109.587 606.084 110.757 623.036 120.349C629.496 124.043 635.568 128.378 641.159 133.288C667.092 155.656 668.371 182.486 712.957 210.025C752.155 234.257 814.769 251.468 870.213 235.998C874.907 234.637 879.247 233.277 883.315 231.644C928.31 214.338 938.269 185.833 986.42 181.303C991.646 180.788 996.9 180.62 1002.15 180.799C1020.22 181.33 1038.56 185.643 1066.94 192.759C1113.55 204.405 1145.92 218.977 1162.07 225.263C1172.8 229.48 1183.84 232.828 1195.11 235.277C1234.1 243.849 1289.46 245.658 1366.93 226.392" stroke="url(#paint2_linear_817_3525)" stroke-width="2" stroke-miterlimit="10"/>
<path d="M13.7417 218.161C94.0839 213.766 161.718 196.963 214.087 173.86C254.768 155.901 285.245 134.771 322.185 119.641C331.002 116.022 339.995 112.24 349.574 108.988C408.636 88.9329 447.535 84.7288 465.781 82.443C488.353 79.6266 491.305 80.1028 524.544 90.1847C547.674 97.2189 564.98 102.797 578.042 106.906C599.716 113.709 609.716 115.75 625.499 125.682C631.607 129.658 637.369 134.141 642.724 139.084C667.745 161.289 671.527 186.391 716.059 211.195C755.747 233.318 817.885 247.835 872.349 232.461C877.002 231.1 881.315 229.739 885.356 228.148C931.697 210.46 941.861 183.398 988.148 178.895C993.337 178.367 998.554 178.181 1003.77 178.337C1022.14 178.759 1040.5 182.976 1068.14 189.956C1113.14 201.263 1145 215.576 1162.52 222.392C1173.18 226.545 1184.14 229.897 1195.3 232.42C1233.94 241.182 1289.04 243.944 1365.72 226.787" stroke="url(#paint3_linear_817_3525)" stroke-width="2" stroke-miterlimit="10"/>
<path d="M13.1431 232.134C90.5736 228.76 159.759 214.229 215.869 190.296C258.619 172.051 290.416 149.982 326.648 134.172C335.668 130.24 344.73 126.009 354.349 122.39C412.936 100.239 451.481 92.7017 470.747 88.375C493.509 83.2593 497.958 82.5926 530.503 92.3479C553.021 99.1508 570.178 105.328 583.022 110.035C604.043 117.818 613.295 120.757 627.921 131.016C633.666 135.263 639.121 139.89 644.248 144.866C668.371 166.881 674.657 190.269 719.148 212.419C759.326 232.42 820.974 244.257 874.472 228.991C879.07 227.631 883.356 226.27 887.383 224.705C935.085 206.65 945.426 181.167 989.862 176.609C995.015 176.089 1000.2 175.884 1005.37 175.996C1024.01 176.323 1042.33 180.432 1069.32 187.276C1112.75 198.269 1144.07 212.338 1162.97 219.644C1173.55 223.756 1184.42 227.116 1195.47 229.699C1233.77 238.665 1288.62 242.352 1364.53 227.331" stroke="url(#paint4_linear_817_3525)" stroke-width="2" stroke-miterlimit="10"/>
<path d="M12.5717 241.141C87.0906 238.787 157.841 226.542 217.679 201.779C262.483 183.234 295.613 160.186 331.138 143.75C340.349 139.492 349.506 134.866 359.152 130.838C417.235 106.593 455.468 95.7898 475.699 89.327C498.666 82.0071 504.693 80.0887 536.449 89.5311C553.986 94.7645 571.2 101.025 588.002 108.28C608.41 117.028 616.887 120.892 630.316 131.41C636.18 136.022 640.833 140.934 645.867 145.709C669.092 167.479 677.895 189.248 722.304 208.677C763.013 226.542 824.144 235.712 876.662 220.555C881.22 219.194 885.479 217.834 889.479 216.296C938.555 197.915 949.072 173.778 991.658 169.356C996.77 168.835 1001.91 168.616 1007.05 168.703C1025.99 168.962 1044.27 172.921 1070.53 179.588C1112.37 190.228 1143.17 204.078 1163.43 211.875C1173.95 215.943 1184.73 219.307 1195.69 221.943C1233.64 231.113 1288.21 235.753 1363.34 222.841" stroke="url(#paint5_linear_817_3525)" stroke-width="2" stroke-miterlimit="10"/>
<path d="M11.9457 247.563C83.5394 246.203 155.854 236.23 219.434 210.665C266.292 191.82 300.729 167.765 335.573 150.799C344.988 146.2 354.213 141.166 363.9 136.758C421.548 110.458 459.481 96.4029 480.665 87.7769C503.795 78.3208 511.387 75.0826 542.408 84.1985C559.79 89.3071 576.704 95.889 592.968 103.873C612.71 113.56 620.465 118.376 632.724 129.261C638.166 134.064 642.452 139.18 647.445 144.01C669.786 165.643 681.12 185.535 725.42 202.392C766.686 218.093 827.287 224.624 878.825 209.562C883.329 208.202 887.547 206.841 891.547 205.331C941.997 186.664 952.732 163.915 993.413 159.656C998.488 159.121 1003.59 158.885 1008.69 158.949C1027.9 159.112 1046.19 162.949 1071.73 169.534C1111.97 179.861 1142.25 193.453 1163.89 201.766C1174.34 205.783 1185.02 209.15 1195.88 211.848C1233.49 221.223 1287.8 226.815 1362.16 215.998" stroke="url(#paint6_linear_817_3525)" stroke-width="2" stroke-miterlimit="10"/>
<path d="M11.3607 254.081C80.0292 253.768 153.881 246.013 221.23 219.645C270.129 200.488 305.858 175.399 340.022 157.82C349.642 152.854 358.962 147.411 368.676 142.649C425.861 114.322 463.522 97.0699 485.618 86.1852C509.061 74.6475 518.081 70.0488 548.354 78.8381C565.61 83.8932 582.245 90.8666 597.947 99.6278C616.995 110.227 624.043 116.05 635.146 127.207C640.125 132.214 644.071 137.493 649.01 142.418C670.48 163.82 684.385 181.943 728.549 196.202C770.387 209.712 830.416 213.617 880.934 198.678C885.397 197.317 889.588 195.957 893.56 194.46C945.385 175.412 956.242 154.092 995.128 149.86C1000.16 149.325 1005.22 149.07 1010.28 149.098C1029.8 149.098 1048.05 152.881 1072.87 159.357C1111.54 169.33 1141.27 182.705 1164.3 191.494C1174.67 195.477 1185.27 198.857 1196.03 201.617C1233.28 211.141 1287.34 217.685 1360.91 209.018" stroke="url(#paint7_linear_817_3525)" stroke-width="2" stroke-miterlimit="10"/>
<path d="M10.762 260.624C76.5188 261.332 151.922 255.821 223.012 228.651C273.966 209.181 310.987 183.044 344.485 164.935C354.281 159.642 363.71 153.832 373.438 148.608C430.174 118.253 467.59 97.8036 490.584 84.6604C514.312 71.0545 524.775 65.068 554.313 73.5308C571.438 78.5275 587.795 85.8524 602.927 95.3001C621.39 106.824 627.608 113.654 637.554 125.083C642.084 130.308 645.717 135.723 650.588 140.743C671.187 161.928 687.637 178.241 731.665 189.942C774.102 201.221 833.545 202.555 883.125 187.711C887.547 186.35 891.71 184.99 895.656 183.534C948.868 164.2 959.875 144.24 996.924 140.09C1001.92 139.553 1006.94 139.281 1011.97 139.274C1031.77 139.152 1050.07 142.852 1074.14 149.193C1111.2 158.839 1140.41 171.982 1164.82 181.262C1175.12 185.217 1185.62 188.619 1196.28 191.452C1233.19 201.221 1286.99 208.664 1359.78 202.119" stroke="url(#paint8_linear_817_3525)" stroke-width="2" stroke-miterlimit="10"/>
<path d="M10.1633 267.141C73.0085 268.828 149.99 265.549 224.822 237.589C277.885 217.793 316.117 190.595 348.975 171.982C358.961 166.322 368.486 160.145 378.241 154.54C434.514 122.199 471.699 98.5652 495.577 83.0954C519.646 67.4896 531.51 60.0608 560.3 68.1971C577.306 73.1765 593.389 80.8872 607.92 91.0276C625.744 103.436 631.186 111.327 639.976 123.015C644.057 128.457 647.336 133.995 652.221 139.124C671.976 160.077 690.997 174.499 734.862 183.724C777.898 192.745 836.743 191.534 885.356 176.799C889.724 175.438 893.86 174.077 897.792 172.717C952.378 153.084 963.549 134.485 998.733 130.444C1003.7 129.878 1008.7 129.587 1013.7 129.573C1033.78 129.437 1052.01 132.934 1075.43 139.097C1110.9 148.417 1139.58 161.329 1165.38 171.098C1174.7 174.635 1185.02 178.132 1196.58 181.261C1233.13 191.221 1286.67 199.616 1358.67 195.18" stroke="url(#paint9_linear_817_3525)" stroke-width="2" stroke-miterlimit="10"/>
<path d="M9.5647 273.469C69.4302 276.19 147.976 275.156 226.577 246.421C281.626 226.298 321.178 198.011 353.41 178.909C363.574 172.881 373.207 166.351 382.989 160.337C438.855 126.009 475.835 99.2059 500.503 81.4231C524.911 63.7355 538.163 54.9462 566.219 62.7559C583.125 67.7226 598.953 75.8074 612.886 86.5933C630.098 99.8998 634.656 108.866 642.37 120.785C646.003 126.445 648.955 132.118 653.731 137.343C672.643 158.037 694.222 170.65 737.91 177.344C781.598 184.038 839.804 180.337 887.438 165.711C891.764 164.35 895.873 162.99 899.778 161.629C955.753 141.697 967.086 124.458 1000.46 120.513C1005.38 119.938 1010.33 119.634 1015.28 119.601C1035.69 119.342 1053.86 122.744 1076.5 128.826C1110.4 137.806 1138.53 150.5 1165.72 160.745C1175 164.255 1185.24 167.738 1196.66 170.936C1232.86 181.086 1286.14 190.419 1357.37 188.12" stroke="url(#paint10_linear_817_3525)" stroke-width="2" stroke-miterlimit="10"/>
<path d="M8.97974 279.714C65.9744 283.483 146.004 284.639 228.373 255.142C285.518 234.733 326.253 205.29 357.86 185.752C368.214 179.344 377.955 172.473 387.792 166.051C443.222 129.723 480.012 99.7907 505.455 79.6133C530.259 59.9937 544.912 49.6805 572.124 57.1773C590.192 62.157 606.601 72.4566 617.826 82.0215C634.438 96.1987 638.234 106.267 644.751 118.417C647.908 124.295 650.547 130.104 655.255 135.438C673.337 155.847 697.433 166.582 740.972 170.813C785.231 175.153 842.879 169.003 889.533 154.486C893.805 153.125 897.887 151.765 901.778 150.404C959.127 130.159 970.61 114.281 1002.11 110.444C1006.99 109.861 1011.9 109.538 1016.82 109.478C1037.48 109.083 1055.66 112.403 1077.66 118.363C1109.96 127.016 1137.53 139.479 1166.1 150.214C1175.34 153.683 1185.5 157.18 1196.77 160.418C1232.63 170.772 1285.65 181.045 1356.09 180.827" stroke="url(#paint11_linear_817_3525)" stroke-width="2" stroke-miterlimit="10"/>
<path d="M8.38098 285.877C62.464 290.68 143.976 293.877 230.155 263.768C289.245 242.869 331.314 212.474 362.322 192.46C372.839 185.657 382.731 178.459 392.541 171.629C447.59 133.383 484.203 100.212 510.421 77.7491C535.633 56.143 551.538 44.3876 578.124 51.5443C595.553 56.2791 611.88 67.1229 622.846 77.3953C638.86 92.4433 641.744 103.6 647.2 115.995C649.921 122.09 652.221 128.009 656.874 133.451C674.126 153.642 700.78 162.404 744.155 164.296C789.054 166.241 846.076 157.683 891.751 143.261C895.987 141.91 900.037 140.549 903.901 139.179C962.651 118.662 974.284 104.117 1003.93 100.389C1008.77 99.7902 1013.64 99.4496 1018.52 99.3687C1039.47 98.8653 1057.65 102.09 1078.94 107.913C1109.63 116.226 1136.7 128.526 1166.67 139.696C1175.87 143.152 1185.94 146.622 1197.08 149.914C1232.59 160.472 1285.35 171.684 1355.01 173.616" stroke="url(#paint12_linear_817_3525)" stroke-width="2" stroke-miterlimit="10"/>
<path d="M7.78235 291.946C58.9401 297.755 142.017 303.198 231.938 272.299C293.082 251.087 336.389 219.522 366.785 199.113C377.465 191.943 387.466 184.392 397.316 177.154C451.971 136.962 488.475 100.607 515.374 75.7766C541.021 52.1706 558.232 38.9185 584.015 45.7622C600.818 50.2385 617.077 61.6402 627.758 72.6473C643.2 88.5661 645.173 100.839 649.527 113.465C651.731 119.791 653.785 125.832 658.357 131.37C674.888 151.289 704.086 159.452 747.285 157.616C792.701 155.684 849.219 146.2 893.928 131.887C898.118 130.535 902.137 129.175 905.983 127.805C966.147 107.097 977.903 93.7907 1005.7 90.1716C1010.5 89.5678 1015.34 89.2136 1020.18 89.1103C1041.41 88.5117 1059.63 91.6138 1080.15 97.2738C1109.2 105.328 1135.78 117.478 1167.13 129.057C1176.29 132.486 1186.28 135.955 1197.27 139.302C1232.44 150.064 1284.94 162.214 1353.82 166.269" stroke="url(#paint13_linear_817_3525)" stroke-width="2" stroke-miterlimit="10"/>
<path d="M7.12927 297.947C55.3754 304.75 140.003 312.465 233.666 280.763C296.865 259.239 341.328 226.517 371.18 205.645C382.064 198.081 392.173 190.217 402.024 182.516C456.311 140.338 492.611 100.881 520.285 73.6692C546.422 48.0902 564.967 33.4232 590.029 39.9268C606.192 44.1446 622.383 56.0905 632.792 67.8323C647.663 84.5946 648.683 97.9827 652.017 110.827C653.731 117.385 655.513 123.534 660.017 129.194C675.664 148.841 707.283 153.685 750.4 150.855C796.415 147.875 852.335 134.637 896.064 120.432C900.146 119.072 904.227 117.711 908.023 116.351C969.562 95.3296 981.495 83.3701 1007.44 79.8734C1012.2 79.2532 1016.99 78.8808 1021.8 78.7577C1043.32 78.0502 1061.47 81.0571 1081.33 86.6083C1108.86 94.2684 1134.86 106.119 1167.58 118.255C1176.71 121.657 1186.63 125.058 1197.51 128.528C1232.33 139.412 1284.59 152.569 1352.62 158.746" stroke="url(#paint14_linear_817_3525)" stroke-width="2" stroke-miterlimit="10"/>
<path d="M6.59863 303.879C51.9195 311.73 138.085 321.662 235.516 289.171C300.824 267.334 346.403 233.387 375.656 212.149C386.649 204.176 396.963 196.012 406.813 187.93C460.815 143.956 496.883 101.125 525.184 71.5734C551.742 43.94 571.511 27.858 595.934 34.0622C611.458 38.0215 627.608 50.5117 637.731 62.9746C652.044 80.6621 652.085 95.0843 654.398 108.173C655.581 114.976 657.119 121.221 661.541 126.99C676.398 146.365 710.522 149.14 753.475 144.065C800.048 138.623 855.437 123.044 898.173 108.935C902.255 107.574 906.241 106.214 910.037 104.962C972.964 83.6282 985.032 72.9748 1009.14 69.587C1013.9 68.9756 1018.69 68.6123 1023.48 68.4985C1043.44 67.7469 1063.39 70.2748 1082.53 75.9817C1108.46 83.3153 1133.93 94.9346 1168.04 107.561C1177.13 110.921 1186.96 114.364 1197.66 117.847C1247.72 133.866 1299.2 145.078 1351.38 151.331" stroke="url(#paint15_linear_817_3525)" stroke-width="2" stroke-miterlimit="10"/>
<path d="M6 309.769C48.4093 318.64 136.126 330.817 237.299 297.524C304.606 275.373 351.397 240.284 380.159 218.61C507.823 122.322 548.232 14.7813 601.934 28.1286C616.819 31.8293 632.928 44.8637 642.751 58.0613C663.731 86.2254 650.507 107.586 663.16 124.73C694.181 166.772 833.722 119.818 912.146 93.4364C988.611 67.7079 991.441 59.4219 1025.07 58.0613C1083.78 55.6531 1114.3 79.232 1197.87 107.042C1247.55 123.498 1298.53 135.786 1350.25 143.778" stroke="url(#paint16_linear_817_3525)" stroke-width="2" stroke-miterlimit="10"/>
<path d="M6 313.66C49.5385 323.361 134.534 334.477 231.258 302.612C298.021 280.557 342.825 245.127 373.697 222.337C497.02 131.41 535.483 32.9309 590.192 41.7203C611.567 45.149 633.268 52.0199 647.595 62.5508C675.745 83.2588 665.282 101.776 681.609 118.335C717.352 154.608 847.505 113.886 922.173 89.6808C994.91 66.0203 997.849 59.3262 1033.4 60.6868C1092.48 62.9454 1121.61 83.8167 1200.33 110.511C1249.45 127.157 1300.02 139.142 1351.38 146.308" stroke="url(#paint17_linear_817_3525)" stroke-width="2" stroke-miterlimit="10"/>
<path d="M6 317.715C78.609 334.43 154.402 331.019 225.217 307.851C291.436 285.905 334.172 250.108 367.234 226.216C486.053 140.418 523.251 49.5311 578.464 55.4632C606.478 58.4837 632.819 59.2456 652.438 67.205C686.099 80.8108 679.541 95.9133 700.059 112.104C739.257 143.003 861.287 108.104 932.214 86.0763C1001.1 64.4839 1004.16 59.2456 1041.74 63.4634C1101.04 70.1031 1128.91 88.6886 1202.79 114.145C1251.32 130.97 1301.49 142.653 1352.46 149.003" stroke="url(#paint18_linear_817_3525)" stroke-width="2" stroke-miterlimit="10"/>
<path d="M6 324.925C76.4947 341.84 150.303 338.835 219.189 316.244C284.851 294.393 325.532 258.229 360.771 233.249C474.842 152.403 511.414 78.7141 566.722 72.3602C601.322 68.3873 631.921 70.02 657.296 74.9997C695.637 82.5101 693.406 93.2179 718.522 109.014C760.101 135.165 875.097 105.613 942.242 85.6258C1007.39 66.2375 1010.42 62.1966 1050.07 69.3805C1109.55 80.1563 1136.21 96.6873 1205.27 120.919C1253.22 137.943 1302.99 149.33 1353.57 154.852" stroke="url(#paint19_linear_817_3525)" stroke-width="2" stroke-miterlimit="10"/>
<path d="M6 335.904C74.375 353.011 146.197 350.397 213.148 328.367C278.266 306.598 316.879 270.066 354.308 244.011C463.549 167.968 499.741 101.313 554.994 92.9863C596.042 86.8093 632.288 77.3669 662.139 86.5236C703.215 99.1225 704.753 99.9933 736.971 109.653C775.734 139.056 888.894 106.81 952.283 88.9046C1013.65 71.6252 1016.67 68.768 1058.41 79.0404C1118.04 93.721 1143.49 108.47 1207.73 131.423C1255.11 148.639 1304.49 159.727 1354.67 164.417" stroke="url(#paint20_linear_817_3525)" stroke-width="2" stroke-miterlimit="10"/>
<path d="M6 347.144C72.2522 364.453 142.092 362.27 207.134 340.858C271.708 319.198 308.239 282.258 347.873 255.141C452.175 183.765 487.958 123.532 543.198 113.981C590.818 105.763 630.438 92.7289 667.01 98.4297C714.168 105.777 718.345 102.892 755.448 110.675C796.116 136.839 902.676 108.267 962.256 92.552C1019.84 77.3815 1022.86 75.5719 1066.68 89.0689C1126.55 107.464 1150.7 120.648 1210.14 142.295C1256.94 159.706 1305.94 170.495 1355.72 174.35" stroke="url(#paint21_linear_817_3525)" stroke-width="2" stroke-miterlimit="10"/>
<path d="M6 358.599C70.1141 376.076 137.953 374.302 201.066 353.497C265.095 331.932 299.518 294.584 341.383 266.42C440.705 199.602 476.08 145.464 531.524 135.124C585.58 125.042 629.295 116.77 671.827 110.47C724.345 102.688 731.883 105.912 773.87 111.831C816.511 134.838 916.459 109.926 972.351 96.3474C1026.15 83.2858 1029.17 82.4423 1075.08 99.2454C1135.05 121.205 1158 133.029 1212.6 153.329C1258.83 170.927 1307.45 181.418 1356.82 184.445" stroke="url(#paint22_linear_817_3525)" stroke-width="2" stroke-miterlimit="10"/>
<path d="M6 370.205C56.6544 384.859 125.051 389.798 195.039 366.301C258.564 344.967 290.824 307.047 334.92 277.863C429.167 215.494 464.175 167.248 519.782 156.431C580.409 144.648 628.628 133.124 676.684 122.675C734.236 110.144 746.754 101.395 792.333 113.151C839.559 125.328 930.242 111.79 982.379 100.307C1032.39 89.3407 1035.44 89.4223 1083.4 109.573C1143.68 134.975 1165.25 145.601 1215.13 164.513C1246.14 176.268 1292.92 191.643 1357.99 194.69" stroke="url(#paint23_linear_817_3525)" stroke-width="2" stroke-miterlimit="10"/>
<path d="M6 382.015C57.8381 397.471 123.459 401.376 188.998 379.293C251.979 358.068 282.102 319.659 328.457 289.495C417.562 231.494 452.066 189.003 508.054 177.927C575.266 164.621 628.084 149.75 681.528 135.069C744.264 117.831 759.924 104.715 810.783 114.66C859.26 124.185 944.011 113.735 992.42 104.456C1038.68 95.5851 1041.84 96.4015 1091.74 120.103C1152.32 148.852 1172.48 158.417 1217.6 175.887C1248.15 187.724 1294.24 203.098 1359.1 205.139" stroke="url(#paint24_linear_817_3525)" stroke-width="2" stroke-miterlimit="10"/>
<path d="M6 393.962C59.0626 410.289 121.867 413.092 182.957 392.439C245.394 371.322 273.354 332.41 321.995 301.28C405.915 247.564 439.957 210.774 496.312 199.576C570.178 184.896 627.608 166.569 686.371 147.616C754.4 125.683 773.108 108.499 829.232 116.322C879.029 123.261 957.78 115.901 1002.45 108.757C1044.87 101.955 1048.23 103.519 1100.07 130.785C1161.02 162.827 1179.69 171.426 1220.06 187.413C1250.18 199.345 1295.54 214.774 1360.2 215.726" stroke="url(#paint25_linear_817_3525)" stroke-width="2" stroke-miterlimit="10"/>
<path d="M6 406.085C60.1919 423.187 120.289 424.97 176.916 405.745C238.809 384.724 264.578 345.267 315.532 313.225C394.214 263.727 426.868 225.998 484.584 221.386C566.409 214.841 627.173 183.562 691.215 160.323C764.591 133.71 789.177 99.0969 847.682 118.145C896.554 134.105 971.494 118.145 1012.49 113.22C1051.1 108.526 1054.67 110.743 1108.41 141.615C1169.79 176.895 1186.87 184.65 1222.52 199.1C1252.2 211.141 1296.86 226.583 1361.3 226.488" stroke="url(#paint26_linear_817_3525)" stroke-width="2" stroke-miterlimit="10"/>
<path d="M6 418.603C61.3756 436.535 118.697 437.216 170.889 419.528C232.224 398.602 255.775 358.547 309.069 325.648C382.54 280.3 414.745 249.224 472.842 243.673C561.28 235.197 626.792 201.046 696.072 173.508C774.85 142.215 801.34 105.329 866.145 120.445C917.547 132.446 985.304 120.962 1022.52 118.16C1057.33 115.534 1061.21 118.391 1116.74 152.936C1178.6 191.413 1194.06 198.393 1225 211.264C1254.21 223.428 1298.18 238.857 1362.42 237.714" stroke="url(#paint27_linear_817_3525)" stroke-width="2" stroke-miterlimit="10"/>
<path d="M6 431.908C62.5457 450.67 117.091 450.303 164.848 433.949C225.638 413.118 246.931 372.41 302.606 338.708C370.717 297.469 402.609 273.087 461.114 266.597C556.191 256.053 626.438 219.181 700.916 187.343C785.163 151.329 813.844 112.947 884.594 123.396C938.392 131.342 999.046 124.348 1032.56 123.736C1063.55 123.165 1067.78 126.648 1125.08 164.894C1187.46 206.541 1201.27 212.827 1227.46 224.079C1256.21 236.406 1299.57 251.78 1363.52 249.59" stroke="url(#paint28_linear_817_3525)" stroke-width="2" stroke-miterlimit="10"/>
<path d="M6 445.448C63.7294 465.04 115.499 463.598 158.807 448.686C219.053 427.937 238.047 386.494 296.144 352.084C358.934 314.886 390.432 297.239 449.372 289.838C551.035 277.076 626.111 237.619 705.76 201.482C795.558 160.76 826.661 121.439 903.044 126.65C959.1 130.473 1012.8 128.01 1042.58 129.63C1069.74 131.085 1074.4 135.167 1133.4 177.168C1196.38 221.972 1208.34 227.687 1229.92 237.211C1258.18 249.742 1300.81 265.035 1364.62 261.783" stroke="url(#paint29_linear_817_3525)" stroke-width="2" stroke-miterlimit="10"/>
<path d="M6 460.182C64.9131 480.59 113.867 478.005 152.766 464.604C212.427 443.814 229.094 401.649 289.681 366.642C347.124 333.444 378.241 322.559 437.644 314.259C545.837 299.143 625.812 257.251 710.549 216.801C805.789 171.371 840.062 137.289 921.439 131.084C979.427 126.676 1026.49 132.853 1052.57 136.704C1075.93 140.159 1081.01 144.867 1141.69 190.61C1205.28 238.584 1215.41 243.672 1232.33 251.496C1260.06 264.326 1302.07 279.442 1365.67 275.143" stroke="url(#paint30_linear_817_3525)" stroke-width="2" stroke-miterlimit="10"/>
<path d="M6 474.768C66.0832 496.006 112.275 492.36 146.738 480.387C205.842 459.692 220.06 416.521 283.218 381.064C335.301 351.826 366.023 347.73 425.902 338.546C540.612 320.954 625.526 276.735 715.461 231.999C816.266 181.835 853.763 144.922 939.956 135.398C999.822 128.813 1040.33 137.48 1062.65 143.643C1082.23 149.085 1087.77 154.392 1150.07 203.93C1214.34 255.034 1222.53 259.619 1234.86 265.674C1261.96 278.98 1303.45 293.715 1366.84 288.368" stroke="url(#paint31_linear_817_3525)" stroke-width="2" stroke-miterlimit="10"/>
<path d="M6 489.366C67.2261 511.421 110.765 506.727 140.697 496.169C199.202 475.569 210.93 431.174 276.755 395.486C323.478 370.152 353.791 372.9 414.174 362.832C535.333 342.627 625.254 296.163 720.304 247.182C826.674 192.297 867.505 152.5 958.406 139.696C1020.38 130.975 1054.15 142.037 1072.69 150.581C1088.52 157.874 1094.46 163.901 1158.41 217.25C1223.38 271.496 1229.57 275.618 1237.32 279.836C1263.54 294.109 1304.75 308 1367.94 301.606" stroke="url(#paint32_linear_817_3525)" stroke-width="2" stroke-miterlimit="10"/>
</g>
<defs>
<linearGradient id="paint0_linear_817_3525" x1="692.412" y1="63.2168" x2="692.412" y2="250.962" gradientUnits="userSpaceOnUse">
<stop stop-color="#DA2911"/>
<stop offset="1" stop-color="#FFDE68"/>
</linearGradient>
<linearGradient id="paint1_linear_817_3525" x1="691.528" y1="70.334" x2="691.528" y2="245.853" gradientUnits="userSpaceOnUse">
<stop stop-color="#DA2911"/>
<stop offset="1" stop-color="#FFDE68"/>
</linearGradient>
<linearGradient id="paint2_linear_817_3525" x1="690.63" y1="76.338" x2="690.63" y2="241.889" gradientUnits="userSpaceOnUse">
<stop stop-color="#DA2911"/>
<stop offset="1" stop-color="#FFDE68"/>
</linearGradient>
<linearGradient id="paint3_linear_817_3525" x1="689.732" y1="80.957" x2="689.732" y2="239.353" gradientUnits="userSpaceOnUse">
<stop stop-color="#DA2911"/>
<stop offset="1" stop-color="#FFDE68"/>
</linearGradient>
<linearGradient id="paint4_linear_817_3525" x1="688.834" y1="84.7148" x2="688.834" y2="237.517" gradientUnits="userSpaceOnUse">
<stop stop-color="#DA2911"/>
<stop offset="1" stop-color="#FFDE68"/>
</linearGradient>
<linearGradient id="paint5_linear_817_3525" x1="687.957" y1="83.1268" x2="687.957" y2="241.141" gradientUnits="userSpaceOnUse">
<stop stop-color="#DA2911"/>
<stop offset="1" stop-color="#FFDE68"/>
</linearGradient>
<linearGradient id="paint6_linear_817_3525" x1="687.052" y1="78.7932" x2="687.052" y2="247.563" gradientUnits="userSpaceOnUse">
<stop stop-color="#DA2911"/>
<stop offset="1" stop-color="#FFDE68"/>
</linearGradient>
<linearGradient id="paint7_linear_817_3525" x1="686.133" y1="74.25" x2="686.133" y2="254.081" gradientUnits="userSpaceOnUse">
<stop stop-color="#DA2911"/>
<stop offset="1" stop-color="#FFDE68"/>
</linearGradient>
<linearGradient id="paint8_linear_817_3525" x1="685.269" y1="69.6211" x2="685.269" y2="260.682" gradientUnits="userSpaceOnUse">
<stop stop-color="#DA2911"/>
<stop offset="1" stop-color="#FFDE68"/>
</linearGradient>
<linearGradient id="paint9_linear_817_3525" x1="684.419" y1="64.8613" x2="684.419" y2="267.504" gradientUnits="userSpaceOnUse">
<stop stop-color="#DA2911"/>
<stop offset="1" stop-color="#FFDE68"/>
</linearGradient>
<linearGradient id="paint10_linear_817_3525" x1="683.467" y1="59.8906" x2="683.467" y2="274.465" gradientUnits="userSpaceOnUse">
<stop stop-color="#DA2911"/>
<stop offset="1" stop-color="#FFDE68"/>
</linearGradient>
<linearGradient id="paint11_linear_817_3525" x1="682.535" y1="54.7246" x2="682.535" y2="281.651" gradientUnits="userSpaceOnUse">
<stop stop-color="#DA2911"/>
<stop offset="1" stop-color="#FFDE68"/>
</linearGradient>
<linearGradient id="paint12_linear_817_3525" x1="681.698" y1="49.4471" x2="681.698" y2="288.973" gradientUnits="userSpaceOnUse">
<stop stop-color="#DA2911"/>
<stop offset="1" stop-color="#FFDE68"/>
</linearGradient>
<linearGradient id="paint13_linear_817_3525" x1="680.8" y1="43.9629" x2="680.8" y2="296.442" gradientUnits="userSpaceOnUse">
<stop stop-color="#DA2911"/>
<stop offset="1" stop-color="#FFDE68"/>
</linearGradient>
<linearGradient id="paint14_linear_817_3525" x1="679.875" y1="38.3889" x2="679.875" y2="304.023" gradientUnits="userSpaceOnUse">
<stop stop-color="#DA2911"/>
<stop offset="1" stop-color="#FFDE68"/>
</linearGradient>
<linearGradient id="paint15_linear_817_3525" x1="678.99" y1="32.7363" x2="678.99" y2="311.707" gradientUnits="userSpaceOnUse">
<stop stop-color="#DA2911"/>
<stop offset="1" stop-color="#FFDE68"/>
</linearGradient>
<linearGradient id="paint16_linear_817_3525" x1="678.126" y1="27" x2="678.126" y2="319.458" gradientUnits="userSpaceOnUse">
<stop stop-color="#DA2911"/>
<stop offset="1" stop-color="#FFDE68"/>
</linearGradient>
<linearGradient id="paint17_linear_817_3525" x1="678.691" y1="41.172" x2="678.691" y2="323.723" gradientUnits="userSpaceOnUse">
<stop stop-color="#DA2911"/>
<stop offset="1" stop-color="#FFDE68"/>
</linearGradient>
<linearGradient id="paint18_linear_817_3525" x1="679.228" y1="55.1876" x2="679.228" y2="328.153" gradientUnits="userSpaceOnUse">
<stop stop-color="#DA2911"/>
<stop offset="1" stop-color="#FFDE68"/>
</linearGradient>
<linearGradient id="paint19_linear_817_3525" x1="679.786" y1="66.0566" x2="679.786" y2="335.723" gradientUnits="userSpaceOnUse">
<stop stop-color="#DA2911"/>
<stop offset="1" stop-color="#FFDE68"/>
</linearGradient>
<linearGradient id="paint20_linear_817_3525" x1="680.337" y1="73.0879" x2="680.337" y2="347.059" gradientUnits="userSpaceOnUse">
<stop stop-color="#DA2911"/>
<stop offset="1" stop-color="#FFDE68"/>
</linearGradient>
<linearGradient id="paint21_linear_817_3525" x1="680.861" y1="79.9688" x2="680.861" y2="358.695" gradientUnits="userSpaceOnUse">
<stop stop-color="#DA2911"/>
<stop offset="1" stop-color="#FFDE68"/>
</linearGradient>
<linearGradient id="paint22_linear_817_3525" x1="681.412" y1="86.5839" x2="681.412" y2="370.52" gradientUnits="userSpaceOnUse">
<stop stop-color="#DA2911"/>
<stop offset="1" stop-color="#FFDE68"/>
</linearGradient>
<linearGradient id="paint23_linear_817_3525" x1="681.997" y1="93.0039" x2="681.997" y2="382.562" gradientUnits="userSpaceOnUse">
<stop stop-color="#DA2911"/>
<stop offset="1" stop-color="#FFDE68"/>
</linearGradient>
<linearGradient id="paint24_linear_817_3525" x1="682.548" y1="99.2559" x2="682.548" y2="394.734" gradientUnits="userSpaceOnUse">
<stop stop-color="#DA2911"/>
<stop offset="1" stop-color="#FFDE68"/>
</linearGradient>
<linearGradient id="paint25_linear_817_3525" x1="683.099" y1="105.359" x2="683.099" y2="407.072" gradientUnits="userSpaceOnUse">
<stop stop-color="#DA2911"/>
<stop offset="1" stop-color="#FFDE68"/>
</linearGradient>
<linearGradient id="paint26_linear_817_3525" x1="683.65" y1="111.334" x2="683.65" y2="419.543" gradientUnits="userSpaceOnUse">
<stop stop-color="#DA2911"/>
<stop offset="1" stop-color="#FFDE68"/>
</linearGradient>
<linearGradient id="paint27_linear_817_3525" x1="684.208" y1="116.947" x2="684.208" y2="432.43" gradientUnits="userSpaceOnUse">
<stop stop-color="#DA2911"/>
<stop offset="1" stop-color="#FFDE68"/>
</linearGradient>
<linearGradient id="paint28_linear_817_3525" x1="684.759" y1="121.65" x2="684.759" y2="446.104" gradientUnits="userSpaceOnUse">
<stop stop-color="#DA2911"/>
<stop offset="1" stop-color="#FFDE68"/>
</linearGradient>
<linearGradient id="paint29_linear_817_3525" x1="685.31" y1="126.183" x2="685.31" y2="460.015" gradientUnits="userSpaceOnUse">
<stop stop-color="#DA2911"/>
<stop offset="1" stop-color="#FFDE68"/>
</linearGradient>
<linearGradient id="paint30_linear_817_3525" x1="685.834" y1="129.561" x2="685.834" y2="475.081" gradientUnits="userSpaceOnUse">
<stop stop-color="#DA2911"/>
<stop offset="1" stop-color="#FFDE68"/>
</linearGradient>
<linearGradient id="paint31_linear_817_3525" x1="686.419" y1="133.041" x2="686.419" y2="490.043" gradientUnits="userSpaceOnUse">
<stop stop-color="#DA2911"/>
<stop offset="1" stop-color="#FFDE68"/>
</linearGradient>
<linearGradient id="paint32_linear_817_3525" x1="686.97" y1="136.514" x2="686.97" y2="505.01" gradientUnits="userSpaceOnUse">
<stop stop-color="#DA2911"/>
<stop offset="1" stop-color="#FFDE68"/>
</linearGradient>
<clipPath id="clip0_817_3525">
<rect width="790" height="532" fill="white"/>
</clipPath>
</defs>
</svg>
