<svg width="1127" height="619" viewBox="0 0 1127 619" fill="none" xmlns="http://www.w3.org/2000/svg">
<path d="M0 685.298C72.731 635.123 114.843 583.951 139.948 546.154C165.334 507.931 179.71 473.721 220.652 436.299C265.759 394.938 302.718 380.713 317.845 375.956C338.822 369.368 339.283 372.796 375.226 364.802C444.272 349.446 450.657 335.02 483.871 332.033C538.938 327.076 543.671 364.721 608.694 372.229C655.787 377.675 721.54 365.804 762.957 324.184C801.958 284.988 788.641 250.306 834.809 217.849C853.773 204.516 872.844 199.067 910.973 188.175C959.807 174.159 996.036 170.624 1010.17 168.574C1052.07 162.522 1111.95 139.511 1186.07 61.585M5.46461 695.859C76.2088 647.985 120.774 597.965 148.716 557.686C171.296 524.763 185.597 494.66 211.673 464.063C217.381 457.378 223.521 450.555 230.443 443.734C274.069 400.769 309.154 383.63 324.052 376.909C344.025 367.885 345.235 369.954 380.416 362.039C405.202 356.449 422.324 351.557 435.331 347.332C457.437 340.143 467.466 334.77 487.632 333.751C495.142 333.346 502.679 333.802 510.093 335.11C544.376 341.146 557.656 366.091 610.985 370.045C657.406 373.487 721.446 359.51 762.078 318.462C765.296 315.208 768.345 311.793 771.214 308.231C800.153 272.269 793.625 241.92 834.173 213.333C838.442 210.314 842.911 207.583 847.55 205.157C863.109 196.955 881.086 191.713 909.636 183.548C956.969 170.082 992.612 166.557 1008.21 164.308C1019.61 162.627 1030.85 159.998 1041.8 156.45C1079.75 144.263 1127.91 117.661 1184.37 60.9211M11.462 707.325C80.1937 661.735 127.359 612.985 157.963 570.032C182.271 535.931 197.185 504.342 222.308 473.499C228.034 466.446 234.009 459.206 240.783 452.05C282.92 407.47 315.451 386.362 330.818 378.736C350.633 368.934 351.777 367.984 386.141 360.165C410.211 354.706 427.587 350.382 440.692 346.83C462.753 340.815 472.549 336.537 491.888 336.396C499.277 336.375 506.652 337.093 513.903 338.538C547.331 344.895 561.833 367.186 613.849 368.788C659.591 370.215 721.918 354.132 761.765 313.657C765.113 310.187 768.157 306.891 770.833 303.496C800.795 266.589 795.101 237.343 834.155 209.798C838.382 206.789 842.807 204.062 847.4 201.635C863.169 193.204 881.062 187.871 908.971 179.995C954.787 167.025 989.842 163.558 1006.84 160.987C1018.15 159.316 1029.3 156.745 1040.19 153.299C1077.93 141.449 1126.34 115.775 1183.19 61.2262M17.9164 719.535C84.6624 676.277 134.304 628.667 167.7 583.182C193.636 547.837 209.231 514.801 233.37 483.714C239.128 476.287 244.955 468.634 251.55 461.146C292.212 414.973 323.491 392.255 338.005 381.331C355.967 367.827 358.739 366.782 392.298 359.051C415.66 353.688 433.298 349.944 446.559 347.032C468.556 342.186 478.157 339.013 496.662 339.737C503.889 340.13 511.073 341.127 518.138 342.716C550.702 349.382 566.489 368.967 617.094 368.26C662.203 367.644 722.776 349.494 761.83 309.58C765.144 306.13 768.165 302.847 770.837 299.5C801.766 261.604 796.967 233.489 834.436 206.883C838.625 203.881 843.009 201.157 847.56 198.726C863.532 190.055 881.401 184.627 908.6 177.003C952.87 164.531 987.352 161.098 1005.8 158.304C1017.02 156.61 1028.09 154.086 1038.93 150.755C1076.47 139.24 1125.13 114.506 1182.36 62.1454M24.3747 731.773C89.1327 690.818 141.242 644.385 177.433 596.35C205.001 559.743 221.261 525.255 244.453 493.933C250.229 486.139 255.891 478.068 262.337 470.247C301.544 422.517 330.855 397.124 345.225 383.955C362.202 368.392 365.687 365.635 398.488 357.966C421.209 352.706 439.018 349.547 452.391 347.253C474.317 343.566 483.725 341.527 501.401 343.099C508.453 343.903 515.446 345.174 522.331 346.904C554.03 353.849 571.109 370.738 620.354 367.785C664.823 365.115 723.638 344.915 761.918 305.568C765.184 302.145 768.182 298.875 770.856 295.558C802.769 256.679 798.911 229.824 834.765 204.08C838.927 201.102 843.27 198.38 847.769 195.93C863.927 187.044 881.695 181.549 908.278 174.123C951.038 162.16 984.943 158.778 1004.81 155.727C1015.95 154.036 1026.95 151.565 1037.73 148.334C1075.07 137.162 1123.98 113.344 1181.61 63.188M28.3874 739.735C91.1561 701.084 145.749 655.836 184.725 605.26C213.906 567.388 230.82 531.409 253.092 499.901C258.869 491.734 264.415 483.28 270.68 475.096C308.408 425.825 335.818 397.798 349.95 382.329C366.001 364.783 370.214 360.181 402.182 352.633C419.845 348.481 437.744 345.365 455.786 343.302C477.669 340.74 486.873 339.873 503.651 342.255C510.987 343.312 517.434 345.22 524.14 346.824C554.945 354.002 573.375 368.27 621.19 363.032C665.047 358.277 722.085 336.053 759.578 297.282C762.81 293.879 765.784 290.623 768.448 287.342C801.377 247.509 798.343 221.719 832.677 197.002C836.803 194.043 841.103 191.33 845.555 188.878C861.936 179.786 879.606 174.178 905.47 166.961C946.686 155.479 980.039 152.166 1001.32 148.864C1012.38 147.168 1023.3 144.743 1034.03 141.604C1071.17 130.779 1120.32 107.91 1178.34 59.9381M31.0678 745.504C91.8211 709.141 148.891 665.067 190.675 611.969C221.469 572.833 239 535.353 260.423 503.728C266.205 495.171 271.605 486.335 277.715 477.807C314.042 426.997 339.57 396.341 353.438 378.556C368.562 359.107 373.458 352.608 404.631 345.143C422.098 340.961 439.9 338.267 457.844 337.09C479.624 335.659 488.685 335.96 504.642 339.231C511.711 340.658 517.945 342.921 524.642 344.592C554.62 352.087 574.283 363.507 620.718 356.126C663.972 349.249 719.235 325.032 755.935 286.826C759.119 283.45 762.059 280.214 764.737 276.957C798.701 236.206 796.547 211.496 829.328 187.856C833.415 184.904 837.675 182.193 842.085 179.739C858.652 170.433 876.259 164.72 901.463 157.789C941.156 146.823 973.924 143.55 996.651 140.008C1007.62 138.304 1018.47 135.928 1029.14 132.893C1066.09 122.411 1115.49 100.483 1173.89 54.6851M33.8311 751.334C92.5964 717.306 152.092 674.373 196.708 618.739C229.096 578.334 247.219 539.338 267.752 507.526C273.525 498.555 278.804 489.324 284.76 480.48C319.677 428.169 343.373 394.917 356.895 374.756C371.246 353.376 376.689 345.013 407.056 337.637C424.388 333.471 442.146 331.249 459.996 331.013C481.635 330.701 490.592 332.211 505.692 336.282C512.467 338.111 518.489 340.68 525.188 342.459C554.302 350.185 575.288 358.828 620.307 349.295C662.956 340.266 716.415 314.089 752.299 276.492C755.449 273.135 758.365 269.913 761.026 266.681C795.979 224.932 794.644 201.382 825.896 178.65C829.948 175.718 834.163 173.013 838.521 170.548C855.262 160.955 872.819 155.209 897.349 148.54C935.511 138.049 967.701 134.857 991.857 131.04C1002.75 129.342 1013.53 127.021 1024.14 124.087C1060.86 113.908 1110.52 92.9216 1169.31 49.3502M36.5961 757.194C93.3716 725.471 155.318 683.695 202.743 625.538C236.736 583.859 255.445 543.334 275.14 511.398C280.902 502.062 286.09 492.464 291.827 483.219C325.344 429.4 347.233 393.539 360.397 371.009C373.96 347.723 379.946 337.465 409.519 330.172C426.709 326.022 444.403 324.236 462.107 324.867C483.706 325.634 492.453 328.411 506.697 333.283C513.194 335.518 519.016 338.357 525.704 340.251C553.962 348.218 576.226 354.065 619.849 342.414C661.896 331.186 713.568 303.101 748.693 266.049C751.808 262.713 754.7 259.504 757.359 256.321C793.358 213.647 792.832 191.187 822.548 169.429C826.568 166.513 830.742 163.811 835.052 161.334C851.977 151.497 869.527 145.662 893.347 139.245C929.967 129.264 961.597 126.129 987.177 122.055C997.987 120.372 1008.7 118.115 1019.26 115.295C1055.81 105.492 1105.69 85.401 1164.88 44.026M39.3477 763.029C94.113 733.576 158.527 692.932 208.766 632.265C244.406 589.272 263.623 547.248 282.518 515.199C288.259 505.455 293.345 495.497 298.915 485.914C331.042 430.628 351.141 392.164 363.901 367.213C376.757 342.052 383.225 329.875 411.992 322.672C429.071 318.565 446.723 317.244 464.257 318.761C485.748 320.597 494.36 324.662 507.74 330.323C513.961 332.965 519.541 336.082 526.294 338.062C553.712 346.246 577.237 349.214 619.483 335.529C660.914 322.078 710.799 292.116 745.15 255.633C748.217 252.324 751.087 249.128 753.781 246.033C790.809 202.431 791.102 181.054 819.273 160.306C823.254 157.381 827.395 154.676 831.679 152.205C848.842 142.217 866.232 136.241 889.402 129.994C924.492 120.517 955.551 117.446 982.566 113.108C992.329 111.548 1002.94 109.458 1014.41 106.452C1050.75 96.9865 1100.89 77.8372 1160.45 38.6535M42.0044 768.701C94.7284 741.598 161.605 702.104 214.689 638.926C251.869 594.679 271.674 551.079 289.787 518.921C295.496 508.777 300.499 498.464 305.888 488.52C336.672 431.741 355.012 390.671 367.293 363.359C379.4 336.254 386.38 322.233 414.353 315.112C431.339 311.044 448.958 310.168 466.301 312.53C487.716 315.434 496.106 320.851 508.679 327.238C514.623 330.286 519.99 333.68 526.698 335.795C553.262 344.172 578.077 344.337 618.906 328.578C659.734 312.82 707.826 281.047 741.39 245.141C744.422 241.852 747.268 238.67 749.939 235.589C788.007 191.051 789.12 170.757 815.785 150.981C819.718 148.073 823.81 145.381 828.042 142.919C845.424 132.666 862.719 126.636 885.182 120.701C918.748 111.71 949.23 108.721 977.672 104.107C987.387 102.544 997.918 100.483 1009.31 97.602C1045.44 88.4734 1095.82 70.2541 1155.78 33.278M44.632 774.296C95.4149 749.5 164.656 711.15 220.592 645.472C259.426 599.954 279.669 554.787 297.026 522.566C302.709 512.004 307.635 501.348 312.867 491.028C342.278 432.759 358.89 389.112 370.64 359.375C382.121 330.428 389.541 314.418 416.633 307.444C434.623 302.816 453.846 303.546 468.255 306.197C489.59 310.139 497.876 316.871 509.537 324.044C515.182 327.512 520.348 331.176 527.052 333.417C552.761 341.958 578.797 339.281 618.266 321.494C658.408 303.445 704.796 269.857 737.573 234.527C740.558 231.265 743.381 228.097 746.04 225.022C785.13 179.544 787.051 160.34 812.159 141.581C816.056 138.683 820.107 135.995 824.295 133.527C841.83 123.031 859.084 116.931 880.937 111.206C912.973 102.719 942.849 99.8133 972.725 94.9367C982.385 93.3586 992.852 91.3491 1004.13 88.577C1040.08 79.7904 1090.7 62.5008 1151.03 27.6924M47.2074 779.828C96.0074 757.347 167.539 720.013 226.436 651.943C266.694 605.053 287.604 558.42 304.21 526.088C309.835 515.109 314.726 504.101 319.731 493.447C347.856 433.73 362.699 387.407 373.972 355.338C384.81 324.496 392.584 306.64 418.968 299.684C436.287 295.161 455.711 296.396 470.251 299.778C491.507 304.757 499.555 312.867 510.427 320.77C515.807 324.638 520.736 328.562 527.447 330.922C552.334 339.685 579.579 334.066 617.738 314.362C657.231 293.955 701.879 258.62 733.861 223.855C736.821 220.618 739.616 217.466 742.247 214.397C782.403 168 785.118 149.862 808.691 132.106C812.545 129.216 816.552 126.532 820.695 124.066C838.421 113.338 855.627 107.157 876.804 101.664C907.292 93.6762 936.653 90.8783 967.949 85.6849C977.567 84.1154 987.938 82.1294 999.143 79.4642C1034.88 71.0262 1085.75 54.6663 1146.48 22.0767M49.7352 785.278C96.5272 765.096 170.52 728.912 232.232 658.333C274.095 610.169 295.483 561.93 311.366 529.564C316.947 518.192 321.755 506.829 326.591 495.806C353.405 434.625 366.563 385.64 377.238 351.217C387.45 318.454 395.596 298.679 421.135 291.851C437.787 287.415 457.431 289.16 472.093 293.309C493.293 299.313 501.116 308.823 511.158 317.464C516.209 321.784 520.989 325.932 527.678 328.414C551.81 337.298 580.937 329.918 617.081 307.119C655.081 283.148 698.833 247.272 730.04 213.076C732.96 209.862 735.728 206.725 738.344 203.666C779.617 156.413 783.056 139.273 805.096 122.521C808.916 119.644 812.884 116.967 816.986 114.5C834.908 103.55 852.088 97.2448 872.518 91.9939C901.463 84.595 930.341 81.9034 963.018 76.3835C972.587 74.8109 982.888 72.8652 993.991 70.3201C1029.54 62.224 1080.66 46.7937 1141.77 16.4061M52.1824 790.696C96.9714 772.794 173.428 737.79 237.948 664.69C281.416 615.252 303.217 565.459 318.402 532.968C323.961 521.159 328.706 509.476 333.31 498.059C358.816 435.365 370.25 383.834 380.4 346.999C390.047 312.313 398.63 290.675 423.38 283.911C439.354 279.569 459.211 281.812 474.005 286.723C495.136 293.727 502.699 304.657 511.974 313.985C516.721 318.743 521.322 323.118 528.012 325.737C551.249 334.823 580.796 323.419 616.373 299.813C654.361 274.654 695.723 235.868 726.144 202.248C728.966 199.081 731.788 195.913 734.365 192.885C776.66 144.693 780.924 128.617 801.437 112.879C805.212 110.009 809.137 107.337 813.194 104.872C831.307 93.6898 848.38 87.3372 868.194 82.3146C895.634 75.328 923.86 72.6686 957.995 66.9499C967.526 65.3675 977.734 63.3973 988.805 61.0104C1024.11 53.1932 1075.52 38.7437 1136.97 10.5846M54.7003 795.996C97.502 780.427 176.384 746.563 243.74 670.941C288.86 620.201 311.007 568.818 325.494 536.308C330.943 524.098 335.713 512.06 340.127 500.319C364.49 436.235 374.04 381.939 383.557 342.8C392.539 306.154 401.467 282.708 425.517 276.003C440.813 271.755 460.907 274.482 475.816 280.149C496.93 288.217 504.168 300.511 512.69 310.549C517.104 315.776 521.542 320.353 528.217 323.105C550.64 332.346 581.301 317.947 615.615 292.505C652.851 264.971 692.588 224.449 722.203 191.401C725.025 188.233 727.766 185.112 730.397 182.178C773.726 133.039 778.758 118.012 797.749 103.271C801.526 100.411 805.45 97.7482 809.508 95.2942C826.256 84.8435 844.632 77.1988 863.903 72.6648C889.814 66.1821 917.468 63.5861 953.037 57.6039C962.513 56.0068 972.66 54.1183 983.585 51.8301C1034.53 40.9063 1084.29 25.1842 1132.18 4.87696M57.1392 801.295C97.9517 788.028 179.283 755.32 249.447 677.178C296.125 625.191 318.739 572.24 332.588 539.601C394.013 394.658 374.966 282.985 427.702 267.991C442.32 263.837 462.65 267.049 477.669 273.489C509.734 287.225 509.058 311.961 528.476 320.38C576.086 341.03 672.343 232.371 726.443 171.309C779.189 111.767 777.478 103.302 805.652 85.6127C854.814 54.7066 892.771 59.8409 978.351 42.5192C1029.19 32.1523 1079.06 17.5956 1127.43 -1M59.051 804.602C101.248 791.489 179.716 759.211 246.778 684.472C293.038 632.832 313.778 580.564 328.879 545.935C389.26 407.696 373.069 304.712 424.393 285.331C444.443 277.755 466.492 272.957 484.043 274.907C518.536 278.754 518.809 299.706 541.086 305.82C589.867 319.226 681.183 220.496 733.151 163.136C783.732 107.19 782.91 100.03 814.089 83.7205C865.898 56.6172 901.313 60.122 982.182 44.2274C1032.63 34.303 1082 19.6828 1129.65 0.560189M61.0443 808.048C131.684 786.636 195.004 746.476 244.184 691.893C290.032 640.611 308.815 589.044 325.245 552.396C384.325 420.745 370.841 324.862 421.17 302.793C446.713 291.605 469.691 279.31 490.498 276.464C526.172 271.539 528.089 287.657 553.778 291.398C602.84 298.517 690.099 208.747 739.945 155.083C788.257 102.792 788.267 96.8153 822.613 81.9485C876.798 58.4779 909.998 60.6463 986.095 46.0743C1036.13 36.5895 1085 21.913 1131.9 2.2859M64.6203 814.179C133.547 793.977 195.367 755.138 243.181 701.995C288.598 651.068 305.436 600.196 323.19 561.548C380.671 436.458 375.239 355.565 419.514 322.959C447.213 302.562 474.28 288.918 498.537 280.7C535.181 268.27 538.615 278.509 568.053 279.653C616.786 281.548 700.681 199.8 748.302 149.735C794.506 101.165 795.09 96.2239 832.692 82.8731C889.107 62.8402 920.23 63.8562 991.584 50.6055C1041.22 41.575 1089.61 26.8392 1135.76 6.69522M70.0863 823.515C137.29 804.518 197.601 766.99 244.034 715.277C289.025 664.688 303.904 614.52 323.001 573.879C378.736 455.265 376.492 380.566 419.734 346.303C451.865 320.855 478.244 294.98 508.426 288.128C549.959 278.699 551.713 278.687 584.178 271.102C632.119 277.157 713.092 194.013 758.53 147.572C802.542 102.662 803.706 98.7383 844.648 86.9951C903.141 70.2231 932.336 70.3123 998.918 58.3368C1048.16 49.7549 1096.06 34.9541 1141.46 14.2942M75.6817 833.07C141.165 815.29 199.99 779.105 245.094 728.859C289.672 678.631 302.561 629.138 323.019 586.508C376.847 474.308 377.46 405.295 420.079 369.993C456.828 339.574 484.307 308.974 518.53 295.869C562.656 278.967 564.798 274.452 600.516 262.863C648.473 265.217 725.62 188.453 768.883 145.756C810.703 104.507 812.391 101.477 856.729 91.4643C917.275 77.7504 944.579 77.1388 1006.39 66.4086C1055.23 58.2761 1102.66 43.4075 1147.29 22.2339M81.3865 842.811C145.118 826.225 202.43 791.372 246.183 742.594C290.341 692.716 301.217 643.912 323.065 599.292C374.898 493.433 378.205 429.826 420.604 393.75C461.942 358.578 495.313 330.032 528.654 303.752C569.822 271.299 577.899 270.348 616.876 254.767C664.948 253.456 738.249 183.069 779.416 144.009C819.044 106.419 821.214 104.215 868.989 96.0019C931.408 85.2783 957.005 84.0935 1013.99 74.5937C1062.43 66.903 1109.39 51.9644 1153.25 30.287M87.1661 852.679C137.94 840.297 199.083 810.903 247.388 756.448C291.229 707.016 299.964 658.788 323.216 612.201C372.917 512.637 378.852 454.241 421.153 417.68C467.279 377.827 502.889 344.292 538.895 311.755C582.01 272.774 588.378 259.154 633.351 246.792C679.947 233.981 750.98 177.86 789.972 142.435C827.401 108.494 830.057 107.066 881.265 100.701C945.66 92.7695 969.48 91.2378 1021.72 82.8734C1054.19 77.6724 1102 67.8122 1159.35 38.4346M93.0481 862.72C145.238 850.443 203.483 821.53 248.677 770.471C292.105 721.4 298.763 673.805 323.463 625.273C370.933 531.966 379.31 478.733 421.809 441.765C472.822 397.375 510.705 358.724 549.22 319.928C594.43 274.381 601.313 255.487 649.911 238.987C696.255 223.296 763.74 172.728 800.635 141.017C835.889 110.711 839.004 109.857 893.655 105.568C959.978 100.347 982.053 98.6047 1029.48 91.3492C1061.61 86.4387 1108.82 76.9196 1165.48 46.7901M98.9981 872.878C152.673 860.742 207.95 832.273 250.041 784.621C293.056 735.912 297.607 688.951 323.785 638.472C368.948 551.374 379.776 503.236 422.528 465.984C478.562 417.153 518.675 373.285 559.619 328.228C607.024 276.074 614.49 252.21 666.544 231.31C712.729 212.764 776.609 167.783 811.36 139.735C844.355 113.08 848.019 112.765 906.107 110.57C974.401 107.973 994.71 106.142 1037.32 99.9536C1069.13 95.3384 1115.75 86.2204 1171.69 55.2625M105.037 883.186C160.067 871.158 212.511 843.149 251.487 798.91C294.083 750.55 296.482 704.202 324.189 651.809C366.964 570.888 376.132 522.632 423.34 490.334C490.265 444.539 526.768 387.977 570.1 336.668C619.754 277.892 623.557 236.26 683.259 223.774C733.155 213.384 789.471 162.934 822.178 138.586C852.958 115.604 857.124 115.746 918.646 115.694C988.918 115.654 1007.45 113.878 1045.25 108.697C1076.72 104.396 1122.75 95.6304 1177.98 63.8858M111.273 893.829C167.733 881.928 217.245 854.343 253.183 813.597C295.347 765.594 295.545 719.826 324.831 665.553C365.208 590.737 377.314 548.383 424.379 515.097C496.01 464.405 535.152 403.059 580.83 345.507C632.779 280.083 637.081 235.577 700.222 216.638C750.311 201.625 802.7 158.528 833.222 137.851C861.778 118.501 866.531 119.035 931.417 121.243C1003.7 123.692 1020.45 122.056 1053.42 117.841C1084.55 113.872 1129.98 105.436 1184.51 72.8981M117.905 905.143C175.782 893.376 222.389 866.261 255.188 828.835C296.932 781.182 294.866 735.968 325.793 679.841C363.624 611.169 378.804 574.685 425.75 540.398C502.043 484.679 543.887 418.686 591.875 354.912C646.157 282.771 651.59 235.913 717.5 210.069C767.618 190.419 816.156 154.646 844.597 137.657C870.899 121.94 876.268 122.835 944.518 127.333C1018.83 132.235 1033.82 130.815 1061.9 127.552C1092.72 123.949 1137.6 115.768 1191.36 82.4769M124.653 916.654C183.959 905.015 227.648 878.347 257.349 844.339C298.667 797.025 294.261 752.314 326.912 694.395C362.197 631.789 380.402 601.249 427.265 565.971C508.098 505.125 552.794 434.554 603.069 364.571C659.76 285.687 666.803 236.839 734.927 203.757C784.922 179.478 829.758 150.99 856.115 137.739C880.138 125.638 886.168 126.836 957.763 133.697C1034.17 140.999 1047.28 140.001 1070.55 137.529C1101.04 134.341 1145.25 126.452 1198.36 92.3229M132.001 929.184C192.729 917.66 233.43 891.401 260.104 860.85C300.898 813.79 294.137 769.609 328.624 709.958C361.319 653.396 382.574 628.816 429.384 592.546C514.642 526.485 562.322 451.431 614.807 375.269C673.815 289.695 686.192 243.763 752.898 198.485C800.438 166.231 843.892 148.381 868.189 138.853C889.954 130.325 896.658 131.85 971.555 141.083C1050.06 150.79 1061.29 150.16 1079.72 148.523C1109.91 145.851 1153.5 138.112 1205.9 103.197M139.273 941.586C201.418 930.196 239.219 904.39 262.802 877.238C303.164 830.535 293.8 786.699 330.267 725.404C360.341 674.857 384.648 656.268 431.424 619.01C521.034 547.636 571.787 468.173 626.589 385.801C688.004 293.455 701.734 243.525 770.912 193.048C818.974 158.015 858.046 145.513 880.276 139.805C899.788 134.831 907.188 136.64 985.368 148.317C1066.02 160.361 1075.34 160.25 1088.94 159.362C1118.83 157.405 1161.77 149.601 1213.48 113.894M146.553 954C210.084 942.746 245.085 917.349 265.488 893.632C305.383 847.307 293.272 803.65 331.911 740.85C359.336 696.272 386.71 683.725 433.475 645.466C527.311 568.696 581.237 484.86 638.306 396.355C702.135 297.249 717.284 243.22 788.86 187.634C837.664 149.743 872.154 142.594 892.328 140.777C909.543 139.227 917.653 141.451 999.147 155.571C1081.96 169.956 1089.33 170.433 1098.09 170.223C1127.71 169.525 1170 161.135 1221 124.635" stroke="url(#paint0_linear_817_3382)" stroke-width="2" stroke-miterlimit="10"/>
<defs>
<linearGradient id="paint0_linear_817_3382" x1="471" y1="680" x2="1072" y2="-26" gradientUnits="userSpaceOnUse">
<stop stop-color="#E40029"/>
<stop offset="1" stop-color="#861429"/>
</linearGradient>
</defs>
</svg>
