<svg width="790" height="524" viewBox="0 0 790 524" fill="none" xmlns="http://www.w3.org/2000/svg">
<g clip-path="url(#clip0_817_3637)">
<path d="M15.5729 0C58.2084 29.8613 95.1071 67.1716 124.496 110.138C193.636 212.193 177.223 287.549 220.277 302.91C286.807 326.64 344.541 153.234 489.634 136.479C596.054 124.176 697.253 202.214 720.675 220.294C812.058 290.75 819.371 361.457 888.279 368.718C938.682 374.082 956.472 338.568 1036.68 329.215C1092.52 322.706 1140.11 333.346 1171.96 343.521" stroke="url(#paint0_linear_817_3637)" stroke-width="2" stroke-miterlimit="10"/>
<path d="M14.9653 8.33203C57.6043 38.2024 94.5084 75.5181 123.906 118.488C193.047 220.561 176.633 295.899 219.67 311.26C286.218 334.99 343.951 161.584 489.027 144.829C595.464 132.543 696.663 210.582 720.085 228.643C811.468 299.1 818.763 369.807 887.689 377.068C938.092 382.432 955.864 346.918 1036.09 337.565C1091.95 331.056 1139.52 341.696 1171.37 351.871" stroke="url(#paint1_linear_817_3637)" stroke-width="2" stroke-miterlimit="10"/>
<path d="M14.3579 16.668C57.0015 46.5329 93.9064 83.8495 123.299 126.824C192.439 228.897 176.026 304.235 219.08 319.596C285.557 343.326 343.361 169.92 488.437 153.164C594.857 140.879 696.056 218.918 719.478 236.979C810.861 307.454 818.174 378.143 887.082 385.403C937.485 390.768 955.275 355.236 1035.48 345.883C1091.34 339.374 1138.92 350.014 1170.76 360.189" stroke="url(#paint2_linear_817_3637)" stroke-width="2" stroke-miterlimit="10"/>
<path d="M13.7854 25.0002C56.4196 54.8776 93.3176 92.1993 122.708 135.174C191.849 237.247 175.435 312.585 218.472 327.946C285.02 351.676 342.753 178.27 487.829 161.515C594.266 149.229 695.465 227.268 718.887 245.33C810.27 315.804 817.565 386.493 886.491 393.754C936.894 399.118 954.666 363.586 1034.89 354.233C1090.75 347.724 1138.33 358.364 1170.17 368.539" stroke="url(#paint3_linear_817_3637)" stroke-width="2" stroke-miterlimit="10"/>
<path d="M13.1593 33.332C55.7983 63.2024 92.7023 100.518 122.1 143.488C191.259 245.561 174.827 320.917 217.881 336.26C284.412 359.99 342.163 186.584 487.238 169.829C593.676 157.543 694.857 235.582 718.297 253.643C809.662 324.118 816.975 394.807 885.883 402.068C936.286 407.432 954.076 371.9 1034.28 362.547C1090.14 356.038 1137.72 366.696 1169.56 376.853" stroke="url(#paint4_linear_817_3637)" stroke-width="2" stroke-miterlimit="10"/>
<path d="M12.5706 41.668C55.2055 71.5431 92.1088 108.858 121.511 151.824C190.652 253.897 174.238 329.253 217.275 344.596C283.769 368.326 341.556 194.92 486.65 178.093C593.069 165.808 694.268 243.847 717.691 261.908C809.074 332.382 816.368 403.072 885.295 410.332C935.697 415.697 953.47 380.164 1033.7 370.812C1089.55 364.303 1137.13 374.961 1168.99 385.118" stroke="url(#paint5_linear_817_3637)" stroke-width="2" stroke-miterlimit="10"/>
<path d="M11.9966 50.0195C54.6305 79.8985 91.5233 117.227 120.902 160.211C190.06 262.284 173.629 337.64 216.683 352.984C283.213 376.731 340.964 203.326 486.04 186.57C592.478 174.267 693.658 252.306 717.099 270.367C808.464 340.841 815.777 411.531 884.685 418.791C935.087 424.156 952.878 388.623 1033.09 379.271C1088.94 372.779 1136.52 383.419 1168.36 393.577" stroke="url(#paint6_linear_817_3637)" stroke-width="2" stroke-miterlimit="10"/>
<path d="M11.3721 58.2773C54.0156 88.1423 90.9206 125.459 120.313 168.433C189.453 270.488 173.04 345.845 216.076 361.206C282.624 384.936 340.358 211.53 485.451 194.774C591.871 182.471 693.07 260.51 716.492 278.589C807.875 349.046 815.17 419.735 884.096 427.013C934.499 432.378 952.289 396.845 1032.5 387.511C1088.34 381.001 1135.91 391.641 1167.77 401.817" stroke="url(#paint7_linear_817_3637)" stroke-width="2" stroke-miterlimit="10"/>
<path d="M10.7632 66.6836C53.4083 96.5526 90.3185 133.868 119.722 176.839C188.862 278.894 172.431 354.251 215.485 369.612C281.98 393.342 339.767 219.936 484.842 203.126C591.28 190.823 692.461 268.862 715.901 286.941C807.266 357.398 814.579 428.105 883.487 435.365C933.89 440.73 951.68 405.216 1031.89 395.863C1087.74 389.354 1135.32 399.994 1167.17 410.169" stroke="url(#paint8_linear_817_3637)" stroke-width="2" stroke-miterlimit="10"/>
<path d="M10.2091 75.0156C52.8416 104.911 89.7338 142.251 119.114 185.243C188.255 287.316 171.841 362.654 214.895 378.015C281.426 401.745 339.159 228.339 484.252 211.584C590.672 199.281 691.871 277.319 715.293 295.399C806.676 365.855 813.971 436.562 882.897 443.823C933.3 449.187 951.09 413.673 1031.3 404.32C1087.14 397.811 1134.71 408.451 1166.58 418.626" stroke="url(#paint9_linear_817_3637)" stroke-width="2" stroke-miterlimit="10"/>
<path d="M9.58398 83.3125C52.2189 113.188 89.1222 150.503 118.525 193.468C187.665 295.541 171.252 370.88 214.288 386.241C280.818 409.971 338.57 236.565 483.645 219.809C590.083 207.524 691.264 285.563 714.704 303.624C806.069 374.081 813.382 444.788 882.308 452.048C932.693 457.413 950.483 421.898 1030.71 412.546C1086.56 406.037 1134.14 416.677 1165.99 426.852" stroke="url(#paint10_linear_817_3637)" stroke-width="2" stroke-miterlimit="10"/>
<path d="M8.9751 91.6836C51.6141 121.554 88.5181 158.87 117.916 201.839C187.056 303.912 170.643 379.251 213.697 394.612C280.227 418.342 337.961 244.936 483.054 228.18C589.474 215.895 690.673 293.934 714.095 311.995C805.478 382.47 812.773 453.159 881.699 460.419C932.102 465.784 949.892 430.251 1030.1 420.899C1085.94 414.39 1133.52 425.03 1165.38 435.205" stroke="url(#paint11_linear_817_3637)" stroke-width="2" stroke-miterlimit="10"/>
<path d="M8.42139 100.016C51.0523 129.896 87.9548 167.21 117.362 210.171C186.503 312.244 170.089 387.583 213.126 402.944C279.62 426.656 337.407 253.197 482.447 236.512C588.884 224.227 690.065 302.266 713.506 320.327C804.871 390.802 812.183 461.491 881.11 468.751C931.494 474.116 949.285 438.584 1029.51 429.231C1085.37 422.722 1132.94 433.38 1164.79 443.537" stroke="url(#paint12_linear_817_3637)" stroke-width="2" stroke-miterlimit="10"/>
<path d="M7.77686 108.348C50.4159 138.218 87.3199 175.534 116.718 218.503C185.858 320.576 169.445 395.933 212.499 411.276C279.029 435.006 336.763 261.6 481.856 244.844C588.276 232.559 689.474 310.598 712.879 328.659C804.262 399.134 811.557 469.823 880.483 477.083C930.886 482.448 948.676 446.916 1028.88 437.563C1084.72 431.054 1132.3 441.712 1164.16 451.869" stroke="url(#paint13_linear_817_3637)" stroke-width="2" stroke-miterlimit="10"/>
<path d="M7.18677 116.684C49.8217 146.559 86.725 183.874 116.128 226.839C185.268 328.912 168.855 404.269 211.891 419.612C278.403 443.342 336.172 269.936 481.248 253.198C587.686 240.913 688.867 318.952 712.307 337.013C803.672 407.488 810.985 478.177 879.911 485.437C930.296 490.802 948.086 455.269 1028.31 445.917C1084.17 439.426 1131.75 450.066 1163.59 460.223" stroke="url(#paint14_linear_817_3637)" stroke-width="2" stroke-miterlimit="10"/>
<path d="M6.6333 125.035C49.2807 154.896 86.1864 192.213 115.574 235.191C184.715 337.246 168.301 412.602 211.355 427.945C277.832 451.693 335.619 278.234 480.659 261.532C587.079 249.229 688.277 327.267 711.7 345.329C803.083 415.803 810.378 486.493 879.304 493.753C929.706 499.117 947.497 463.585 1027.7 454.233C1083.54 447.741 1131.12 458.381 1162.98 468.539" stroke="url(#paint15_linear_817_3637)" stroke-width="2" stroke-miterlimit="10"/>
<path d="M5.98975 133.387C48.6333 163.252 85.5382 200.568 114.93 243.542C184.071 345.597 167.658 420.954 210.694 436.315C277.224 460.045 334.975 286.639 480.051 269.883C586.488 257.58 687.669 335.619 711.11 353.698C802.475 424.155 809.787 494.862 878.714 502.122C929.116 507.487 946.889 471.972 1027.11 462.62C1082.97 456.111 1130.55 466.751 1162.39 476.926" stroke="url(#paint16_linear_817_3637)" stroke-width="2" stroke-miterlimit="10"/>
<path d="M5.38074 141.699C48.0243 171.564 84.9293 208.881 114.321 251.855C183.462 353.91 167.049 429.266 210.103 444.627C276.615 468.357 334.366 294.952 479.46 278.232C585.88 265.928 687.078 343.967 710.501 362.046C801.884 432.503 809.179 503.21 878.105 510.471C928.507 515.835 946.298 480.321 1026.51 470.968C1082.34 464.459 1129.92 475.099 1161.78 485.274" stroke="url(#paint17_linear_817_3637)" stroke-width="2" stroke-miterlimit="10"/>
<path d="M4.8446 150.035C47.4836 179.906 84.3877 217.221 113.785 260.191C182.926 362.264 166.512 437.602 209.549 452.963C276.025 476.729 333.83 303.27 478.852 286.532C585.29 274.246 686.489 352.285 709.911 370.347C801.276 440.803 808.589 511.51 877.515 518.771C927.918 524.135 945.69 488.621 1025.92 479.268C1081.77 472.759 1129.35 483.399 1161.19 493.574" stroke="url(#paint18_linear_817_3637)" stroke-width="2" stroke-miterlimit="10"/>
<path d="M4.18408 158.418C46.8276 188.283 83.7326 225.599 113.125 268.574C182.265 370.647 165.852 445.985 208.906 461.346C275.436 485.076 333.17 311.67 478.263 294.915C584.683 282.576 685.882 360.615 709.304 378.676C800.687 449.15 807.982 519.84 876.908 527.1C927.311 532.465 945.101 496.932 1025.31 487.58C1081.15 481.071 1128.73 491.711 1160.59 501.886" stroke="url(#paint19_linear_817_3637)" stroke-width="2" stroke-miterlimit="10"/>
<path d="M3.59302 166.703C46.232 196.574 83.1361 233.889 112.534 276.859C181.674 378.932 165.261 454.27 208.297 469.631C274.827 493.361 332.579 319.955 477.654 303.271C584.092 290.986 685.291 369.025 708.713 387.086C800.078 457.561 807.391 528.25 876.317 535.51C926.72 540.875 944.492 505.342 1024.72 495.99C1080.57 489.481 1128.15 500.121 1160 510.296" stroke="url(#paint20_linear_817_3637)" stroke-width="2" stroke-miterlimit="10"/>
<path d="M3.05688 175.035C45.6959 204.906 82.6 242.221 111.998 285.191C181.138 387.264 164.725 462.62 207.779 477.963C274.238 501.765 332.043 328.305 477.064 311.532C583.484 299.246 684.683 377.285 708.105 395.347C799.488 465.821 806.783 536.51 875.709 543.771C926.112 549.135 943.902 513.603 1024.11 504.251C1079.95 497.741 1127.54 508.399 1159.39 518.556" stroke="url(#paint21_linear_817_3637)" stroke-width="2" stroke-miterlimit="10"/>
<path d="M2.39612 183.457C45.0311 213.332 81.9343 250.647 111.337 293.613C180.477 395.686 164.064 471.042 207.1 486.385C273.631 510.115 331.382 336.709 476.457 319.954C582.895 307.579 684.094 385.618 707.516 403.679C798.899 474.154 806.194 544.843 875.12 552.103C925.523 557.468 943.295 521.935 1023.52 512.583C1079.38 506.074 1126.96 516.732 1158.8 526.889" stroke="url(#paint22_linear_817_3637)" stroke-width="2" stroke-miterlimit="10"/>
<path d="M1.78821 191.719C44.4302 221.579 81.335 258.889 110.729 301.857C179.87 403.93 163.456 479.286 206.51 494.629C273.04 518.377 330.774 344.971 475.867 328.197C582.287 315.912 683.486 393.951 706.908 412.012C798.291 482.487 805.604 553.176 874.512 560.436C924.915 565.801 942.705 530.269 1022.91 520.916C1078.75 514.425 1126.35 525.065 1158.19 535.222" stroke="url(#paint23_linear_817_3637)" stroke-width="2" stroke-miterlimit="10"/>
<path d="M1.2688 200.051C43.9124 229.916 80.8173 267.232 110.21 310.207C179.35 412.261 162.937 487.618 205.973 502.979C272.45 526.798 330.255 353.339 475.259 336.547C581.696 324.244 682.895 402.283 706.317 420.362C797.7 490.819 804.995 561.508 873.921 568.786C924.324 574.151 942.096 538.619 1022.32 529.284C1078.18 522.775 1125.76 533.415 1157.6 543.59" stroke="url(#paint24_linear_817_3637)" stroke-width="2" stroke-miterlimit="10"/>
<path d="M0.589966 208.383C43.2335 238.248 80.1385 275.564 109.531 318.539C178.671 420.593 162.258 495.95 205.312 511.311C271.842 535.041 329.594 361.635 474.669 344.879C581.089 332.576 682.288 410.561 705.728 428.694C797.093 499.151 804.406 569.858 873.314 577.118C923.717 582.483 941.507 546.969 1021.72 537.616C1077.57 531.107 1125.15 541.747 1156.99 551.922" stroke="url(#paint25_linear_817_3637)" stroke-width="2" stroke-miterlimit="10"/>
<path d="M0 216.715C42.639 246.585 79.5431 283.901 108.941 326.871C178.081 428.943 161.668 504.282 204.704 519.643C271.252 543.373 328.986 369.967 474.061 353.211C580.499 340.908 681.698 418.947 705.12 437.026C796.503 507.483 803.798 578.19 872.724 585.45C923.127 590.815 940.899 555.301 1021.13 545.948C1076.98 539.439 1124.56 550.079 1156.4 560.254" stroke="url(#paint26_linear_817_3637)" stroke-width="2" stroke-miterlimit="10"/>
</g>
<defs>
<linearGradient id="paint0_linear_817_3637" x1="593.765" y1="0" x2="593.765" y2="369.266" gradientUnits="userSpaceOnUse">
<stop stop-color="#DA1135"/>
<stop offset="1" stop-color="#7D72FF"/>
</linearGradient>
<linearGradient id="paint1_linear_817_3637" x1="593.167" y1="8.33203" x2="593.167" y2="377.616" gradientUnits="userSpaceOnUse">
<stop stop-color="#DA1135"/>
<stop offset="1" stop-color="#7D72FF"/>
</linearGradient>
<linearGradient id="paint2_linear_817_3637" x1="592.559" y1="16.668" x2="592.559" y2="385.952" gradientUnits="userSpaceOnUse">
<stop stop-color="#DA1135"/>
<stop offset="1" stop-color="#7D72FF"/>
</linearGradient>
<linearGradient id="paint3_linear_817_3637" x1="591.978" y1="25.0002" x2="591.978" y2="394.302" gradientUnits="userSpaceOnUse">
<stop stop-color="#DA1135"/>
<stop offset="1" stop-color="#7D72FF"/>
</linearGradient>
<linearGradient id="paint4_linear_817_3637" x1="591.36" y1="33.332" x2="591.36" y2="402.616" gradientUnits="userSpaceOnUse">
<stop stop-color="#DA1135"/>
<stop offset="1" stop-color="#7D72FF"/>
</linearGradient>
<linearGradient id="paint5_linear_817_3637" x1="590.781" y1="41.668" x2="590.781" y2="410.88" gradientUnits="userSpaceOnUse">
<stop stop-color="#DA1135"/>
<stop offset="1" stop-color="#7D72FF"/>
</linearGradient>
<linearGradient id="paint6_linear_817_3637" x1="590.18" y1="50.0195" x2="590.18" y2="419.339" gradientUnits="userSpaceOnUse">
<stop stop-color="#DA1135"/>
<stop offset="1" stop-color="#7D72FF"/>
</linearGradient>
<linearGradient id="paint7_linear_817_3637" x1="589.573" y1="58.2773" x2="589.573" y2="427.561" gradientUnits="userSpaceOnUse">
<stop stop-color="#DA1135"/>
<stop offset="1" stop-color="#7D72FF"/>
</linearGradient>
<linearGradient id="paint8_linear_817_3637" x1="588.964" y1="66.6836" x2="588.964" y2="435.914" gradientUnits="userSpaceOnUse">
<stop stop-color="#DA1135"/>
<stop offset="1" stop-color="#7D72FF"/>
</linearGradient>
<linearGradient id="paint9_linear_817_3637" x1="588.393" y1="75.0156" x2="588.393" y2="444.371" gradientUnits="userSpaceOnUse">
<stop stop-color="#DA1135"/>
<stop offset="1" stop-color="#7D72FF"/>
</linearGradient>
<linearGradient id="paint10_linear_817_3637" x1="587.785" y1="83.3125" x2="587.785" y2="452.597" gradientUnits="userSpaceOnUse">
<stop stop-color="#DA1135"/>
<stop offset="1" stop-color="#7D72FF"/>
</linearGradient>
<linearGradient id="paint11_linear_817_3637" x1="587.176" y1="91.6836" x2="587.176" y2="460.968" gradientUnits="userSpaceOnUse">
<stop stop-color="#DA1135"/>
<stop offset="1" stop-color="#7D72FF"/>
</linearGradient>
<linearGradient id="paint12_linear_817_3637" x1="586.605" y1="100.016" x2="586.605" y2="469.3" gradientUnits="userSpaceOnUse">
<stop stop-color="#DA1135"/>
<stop offset="1" stop-color="#7D72FF"/>
</linearGradient>
<linearGradient id="paint13_linear_817_3637" x1="585.969" y1="108.348" x2="585.969" y2="477.632" gradientUnits="userSpaceOnUse">
<stop stop-color="#DA1135"/>
<stop offset="1" stop-color="#7D72FF"/>
</linearGradient>
<linearGradient id="paint14_linear_817_3637" x1="585.388" y1="116.684" x2="585.388" y2="485.985" gradientUnits="userSpaceOnUse">
<stop stop-color="#DA1135"/>
<stop offset="1" stop-color="#7D72FF"/>
</linearGradient>
<linearGradient id="paint15_linear_817_3637" x1="584.808" y1="125.035" x2="584.808" y2="494.301" gradientUnits="userSpaceOnUse">
<stop stop-color="#DA1135"/>
<stop offset="1" stop-color="#7D72FF"/>
</linearGradient>
<linearGradient id="paint16_linear_817_3637" x1="584.191" y1="133.387" x2="584.191" y2="502.671" gradientUnits="userSpaceOnUse">
<stop stop-color="#DA1135"/>
<stop offset="1" stop-color="#7D72FF"/>
</linearGradient>
<linearGradient id="paint17_linear_817_3637" x1="583.582" y1="141.699" x2="583.582" y2="511.019" gradientUnits="userSpaceOnUse">
<stop stop-color="#DA1135"/>
<stop offset="1" stop-color="#7D72FF"/>
</linearGradient>
<linearGradient id="paint18_linear_817_3637" x1="583.019" y1="150.035" x2="583.019" y2="519.319" gradientUnits="userSpaceOnUse">
<stop stop-color="#DA1135"/>
<stop offset="1" stop-color="#7D72FF"/>
</linearGradient>
<linearGradient id="paint19_linear_817_3637" x1="582.385" y1="158.418" x2="582.385" y2="527.648" gradientUnits="userSpaceOnUse">
<stop stop-color="#DA1135"/>
<stop offset="1" stop-color="#7D72FF"/>
</linearGradient>
<linearGradient id="paint20_linear_817_3637" x1="581.794" y1="166.703" x2="581.794" y2="536.059" gradientUnits="userSpaceOnUse">
<stop stop-color="#DA1135"/>
<stop offset="1" stop-color="#7D72FF"/>
</linearGradient>
<linearGradient id="paint21_linear_817_3637" x1="581.222" y1="175.035" x2="581.222" y2="544.319" gradientUnits="userSpaceOnUse">
<stop stop-color="#DA1135"/>
<stop offset="1" stop-color="#7D72FF"/>
</linearGradient>
<linearGradient id="paint22_linear_817_3637" x1="580.597" y1="183.457" x2="580.597" y2="552.652" gradientUnits="userSpaceOnUse">
<stop stop-color="#DA1135"/>
<stop offset="1" stop-color="#7D72FF"/>
</linearGradient>
<linearGradient id="paint23_linear_817_3637" x1="579.99" y1="191.719" x2="579.99" y2="560.985" gradientUnits="userSpaceOnUse">
<stop stop-color="#DA1135"/>
<stop offset="1" stop-color="#7D72FF"/>
</linearGradient>
<linearGradient id="paint24_linear_817_3637" x1="579.434" y1="200.051" x2="579.434" y2="569.335" gradientUnits="userSpaceOnUse">
<stop stop-color="#DA1135"/>
<stop offset="1" stop-color="#7D72FF"/>
</linearGradient>
<linearGradient id="paint25_linear_817_3637" x1="578.791" y1="208.383" x2="578.791" y2="577.667" gradientUnits="userSpaceOnUse">
<stop stop-color="#DA1135"/>
<stop offset="1" stop-color="#7D72FF"/>
</linearGradient>
<linearGradient id="paint26_linear_817_3637" x1="578.201" y1="216.715" x2="578.201" y2="585.999" gradientUnits="userSpaceOnUse">
<stop stop-color="#DA1135"/>
<stop offset="1" stop-color="#7D72FF"/>
</linearGradient>
<clipPath id="clip0_817_3637">
<rect width="790" height="524" fill="white"/>
</clipPath>
</defs>
</svg>
