<svg width="583" height="237" viewBox="0 0 583 237" fill="none" xmlns="http://www.w3.org/2000/svg">
<g clip-path="url(#clip0_252_8852)">
<path d="M73.7607 355.463C220.236 283.796 270.22 204.761 288.335 144.803C308.55 77.8874 298.125 4.7516 319.947 0.209805C333.92 -2.69948 351.113 24.6102 383.169 84.4764C480.375 266.013 482.576 314.222 523.991 326.735C582.008 344.275 617.772 261.755 706.951 263.534C772.45 264.843 825.452 310.789 861.175 351.63" stroke="url(#paint0_linear_252_8852)" stroke-width="2" stroke-miterlimit="10"/>
<path d="M70.2432 348.258C212.594 278.134 265.449 201.31 285.001 145.117C306.849 82.3197 296.531 12.9619 318.126 9.68157C332.009 7.57108 348.88 34.4137 379.843 92.2283C473.943 267.9 476.862 316.71 517.958 328.605C576.311 345.257 610.517 256.767 700.641 255.563C702.606 255.537 704.541 255.537 706.477 255.589C770.422 257.368 824.179 303.336 860.666 343.926" stroke="url(#paint1_linear_252_8852)" stroke-width="2" stroke-miterlimit="10"/>
<path d="M66.7373 341.053C204.953 272.479 260.638 197.997 281.676 145.435C305.125 86.8482 294.953 21.1809 316.314 19.1578C330.113 17.8483 346.662 44.226 376.525 99.9869C467.499 269.786 471.119 319.353 511.942 330.475C570.579 346.451 603.295 251.737 694.347 247.59C696.345 247.498 698.336 247.406 700.327 247.417C765.328 247.775 821.88 294.693 860.169 336.219" stroke="url(#paint2_linear_252_8852)" stroke-width="2" stroke-miterlimit="10"/>
<path d="M63.2236 333.849C197.324 266.804 255.751 194.843 278.346 145.754C303.329 91.4726 293.378 29.4065 314.495 28.6361C328.215 28.1341 344.423 54.0361 373.201 107.743C461.059 271.689 465.395 321.908 505.919 332.345C564.868 347.526 596.079 246.668 688.048 239.617C690.089 239.46 692.128 239.309 694.161 239.244C760.214 237.135 819.565 286.047 859.655 328.508" stroke="url(#paint3_linear_252_8852)" stroke-width="2" stroke-miterlimit="10"/>
<path d="M59.7109 326.646C189.687 261.151 250.767 191.858 275.014 146.074C301.432 96.1926 291.813 37.6425 312.678 38.1161C326.322 38.4239 342.194 63.8501 369.881 115.503C454.621 273.584 459.675 324.459 499.898 334.215C559.177 348.593 588.872 241.565 681.749 231.637C683.834 231.418 685.921 231.2 688.015 231.065C755.117 227.045 817.266 277.4 859.164 320.803" stroke="url(#paint4_linear_252_8852)" stroke-width="2" stroke-miterlimit="10"/>
<path d="M56.1982 319.44C182.052 255.493 245.656 189.053 271.689 146.394C299.391 100.998 290.247 45.8829 310.866 47.5918C324.438 48.7179 339.968 73.6596 366.562 123.261C448.189 275.478 453.964 326.998 493.881 336.084C553.485 349.648 581.672 236.424 675.455 223.67C677.586 223.38 679.717 223.085 681.865 222.897C750.012 216.983 814.974 268.76 858.666 313.102" stroke="url(#paint5_linear_252_8852)" stroke-width="2" stroke-miterlimit="10"/>
<path d="M52.6875 312.236C174.415 249.83 240.379 186.428 268.356 146.713C297.138 105.852 288.695 54.1353 309.046 57.0707C322.549 59.0175 337.734 83.4791 363.235 131.018C441.746 277.371 448.248 329.533 487.855 337.953C547.798 350.696 574.464 231.254 669.152 215.697C671.335 215.34 673.505 214.973 675.702 214.726C744.89 206.93 812.662 260.122 858.155 305.396" stroke="url(#paint6_linear_252_8852)" stroke-width="2" stroke-miterlimit="10"/>
<path d="M49.1748 305.032C166.778 244.169 228.423 177.574 265.026 147.032C287.195 105.767 287.141 62.3985 307.229 66.5475C320.665 69.3236 335.505 93.2832 359.914 138.788C435.308 279.276 442.537 332.069 481.834 339.834C542.113 351.744 567.26 226.065 662.851 207.736C665.074 207.31 667.298 206.874 669.549 206.564C739.784 196.906 810.372 251.484 857.66 297.701" stroke="url(#paint7_linear_252_8852)" stroke-width="2" stroke-miterlimit="10"/>
<path d="M45.6621 297.827C159.143 238.507 222.454 173.686 261.697 147.35C284.146 109.75 285.587 70.672 305.413 76.0257C318.784 79.6356 333.274 103.089 356.592 146.536C428.859 281.16 436.83 334.576 475.815 341.693C536.432 352.759 560.053 220.824 656.552 199.752C658.819 199.257 661.089 198.75 663.395 198.379C734.675 186.875 808.06 242.83 857.158 289.983" stroke="url(#paint8_linear_252_8852)" stroke-width="2" stroke-miterlimit="10"/>
<path d="M42.1484 290.622C151.505 232.845 216.482 169.803 258.364 147.668C281.093 113.73 284.031 78.9541 303.596 85.5016C316.899 89.9517 331.044 112.901 353.268 154.292C422.43 283.06 431.124 337.083 469.793 343.559C530.755 353.771 552.839 215.568 650.253 191.774C652.563 191.211 654.881 190.637 657.239 190.203C729.565 176.863 805.756 234.183 856.655 282.274" stroke="url(#paint9_linear_252_8852)" stroke-width="2" stroke-miterlimit="10"/>
<path d="M38.6377 283.418C143.872 227.183 210.513 165.918 255.035 147.989C278.043 117.715 282.475 87.2498 301.777 94.9803C315.012 100.279 328.815 122.716 349.947 162.044C415.992 284.941 425.421 339.58 463.771 345.425C525.078 354.768 545.621 210.286 643.954 183.797C646.31 183.162 648.674 182.525 651.082 182.025C724.461 166.863 803.452 225.536 856.153 274.563" stroke="url(#paint10_linear_252_8852)" stroke-width="2" stroke-miterlimit="10"/>
<path d="M35.125 276.212C136.231 221.525 204.549 162.034 251.708 148.317C274.995 121.708 280.916 95.559 299.959 104.468C313.122 110.623 326.584 132.535 346.622 169.819C409.551 286.851 419.717 342.088 457.752 347.309C519.408 355.775 538.396 205.01 637.655 175.84C640.057 175.135 642.459 174.43 644.928 173.876C719.359 156.901 801.149 216.913 855.651 266.879" stroke="url(#paint11_linear_252_8852)" stroke-width="2" stroke-miterlimit="10"/>
<path d="M31.6113 269.008C128.595 215.864 198.57 158.15 248.375 148.627C271.942 125.683 279.345 103.862 298.144 113.936C311.23 120.951 324.354 142.339 343.301 177.57C403.123 288.738 414.018 344.566 451.728 349.171C513.733 356.742 531.158 199.68 631.356 167.86C633.799 167.083 636.257 166.314 638.779 165.688C714.267 146.918 798.852 208.247 855.155 259.16" stroke="url(#paint12_linear_252_8852)" stroke-width="2" stroke-miterlimit="10"/>
<path d="M28.1055 261.804C120.959 210.203 192.599 154.267 245.046 148.951C268.89 129.67 277.772 112.178 296.328 123.415C309.336 131.294 322.125 152.15 339.98 185.326C396.678 290.632 408.318 347.05 445.706 351.042C508.066 357.707 523.914 194.338 625.055 159.887C627.544 159.038 630.051 158.204 632.618 157.515C709.165 136.947 796.542 199.611 854.66 251.454" stroke="url(#paint13_linear_252_8852)" stroke-width="2" stroke-miterlimit="10"/>
<path d="M24.5889 254.598C113.322 204.54 186.631 150.381 241.718 149.266C265.841 133.65 276.194 120.494 294.512 132.897C307.435 141.642 319.897 161.964 336.649 193.088C390.232 292.53 402.609 349.517 439.677 352.913C502.388 358.66 516.653 189.007 618.749 151.915C621.281 150.996 623.836 150.099 626.454 149.344C704.068 126.991 794.231 190.971 854.138 243.751" stroke="url(#paint14_linear_252_8852)" stroke-width="2" stroke-miterlimit="10"/>
<path d="M21.0752 247.393C105.684 198.878 180.659 146.496 238.385 149.584C262.79 137.633 274.606 128.816 292.695 142.369C305.528 151.985 317.665 171.772 333.337 200.843C383.801 294.418 396.916 351.975 433.666 354.779C496.728 359.592 509.4 183.636 612.458 143.949C615.034 142.958 617.637 141.998 620.318 141.18C698.988 117.037 791.936 182.322 853.644 236.031" stroke="url(#paint15_linear_252_8852)" stroke-width="2" stroke-miterlimit="10"/>
<path d="M17.5625 240.19C98.0497 193.22 174.688 142.621 235.056 149.904C259.727 141.61 273.012 137.142 290.878 151.848C303.616 162.335 315.436 181.583 330.014 208.593C377.363 296.304 391.216 354.422 427.644 356.639C491.058 360.502 502.127 178.254 606.159 135.957C608.779 134.892 611.43 133.871 614.152 132.987C693.906 107.094 789.639 173.68 853.142 228.334" stroke="url(#paint16_linear_252_8852)" stroke-width="2" stroke-miterlimit="10"/>
<path d="M14.0498 232.977C90.4127 187.551 168.717 138.721 231.724 150.217C256.686 145.592 271.412 145.459 289.058 161.317C301.699 172.666 313.205 191.385 326.689 216.351C370.922 298.195 385.513 356.87 421.621 358.511C485.388 361.418 494.846 172.88 599.861 127.999C602.522 126.86 605.223 125.777 607.996 124.828C688.83 97.16 787.329 165.04 852.64 220.64" stroke="url(#paint17_linear_252_8852)" stroke-width="2" stroke-miterlimit="10"/>
<path d="M10.5381 225.773C82.7746 181.905 161.917 162.247 228.396 150.542C253.272 146.162 269.809 153.792 287.242 170.802C299.781 183.024 310.977 201.205 323.369 224.117C364.485 300.101 379.812 359.316 415.6 360.388C479.715 362.306 487.555 167.483 593.561 120.018C596.264 118.809 599.019 117.663 601.84 116.648C683.755 87.2211 785.018 156.391 852.139 212.92" stroke="url(#paint18_linear_252_8852)" stroke-width="2" stroke-miterlimit="10"/>
<path d="M7.02539 218.573C75.1442 176.233 155.271 137.105 225.067 150.859C250.244 155.822 268.198 162.114 285.426 180.279C297.858 193.374 308.746 211.013 320.047 231.873C358.049 301.993 374.107 361.746 409.579 362.254C474.039 363.18 480.255 162.079 587.26 112.043C590.009 110.76 592.812 109.559 595.685 108.475C678.747 77.459 782.722 147.749 851.644 205.216" stroke="url(#paint19_linear_252_8852)" stroke-width="2" stroke-miterlimit="10"/>
<path d="M3.5127 211.369C67.5029 170.571 149.839 130.127 221.737 151.178C247.24 158.646 266.582 170.438 283.61 189.756C295.93 203.724 306.517 220.826 316.724 239.63C351.611 303.888 368.402 364.323 403.558 364.125C468.36 363.758 472.869 156.516 580.961 104.07C583.749 102.709 586.604 101.452 589.529 100.301C673.655 67.4524 780.418 139.102 851.135 197.506" stroke="url(#paint20_linear_252_8852)" stroke-width="2" stroke-miterlimit="10"/>
<path d="M0 204.167C59.866 164.914 144.833 123.196 218.406 151.501C329.317 194.177 338.913 366.999 397.539 365.995C464.369 364.851 465.736 140.021 583.374 92.1299C668.562 57.4499 778.124 130.459 850.634 189.804" stroke="url(#paint21_linear_252_8852)" stroke-width="2" stroke-miterlimit="10"/>
</g>
<defs>
<linearGradient id="paint0_linear_252_8852" x1="467.468" y1="0" x2="467.468" y2="355.463" gradientUnits="userSpaceOnUse">
<stop stop-color="#FFDE68"/>
<stop offset="1" stop-color="#DA2911"/>
</linearGradient>
<linearGradient id="paint1_linear_252_8852" x1="465.455" y1="9.56628" x2="465.455" y2="348.258" gradientUnits="userSpaceOnUse">
<stop stop-color="#FFDE68"/>
<stop offset="1" stop-color="#DA2911"/>
</linearGradient>
<linearGradient id="paint2_linear_252_8852" x1="463.453" y1="19.1113" x2="463.453" y2="341.053" gradientUnits="userSpaceOnUse">
<stop stop-color="#FFDE68"/>
<stop offset="1" stop-color="#DA2911"/>
</linearGradient>
<linearGradient id="paint3_linear_252_8852" x1="461.439" y1="28.6289" x2="461.439" y2="333.899" gradientUnits="userSpaceOnUse">
<stop stop-color="#FFDE68"/>
<stop offset="1" stop-color="#DA2911"/>
</linearGradient>
<linearGradient id="paint4_linear_252_8852" x1="459.437" y1="38.1133" x2="459.437" y2="335.541" gradientUnits="userSpaceOnUse">
<stop stop-color="#FFDE68"/>
<stop offset="1" stop-color="#DA2911"/>
</linearGradient>
<linearGradient id="paint5_linear_252_8852" x1="457.432" y1="47.553" x2="457.432" y2="337.21" gradientUnits="userSpaceOnUse">
<stop stop-color="#FFDE68"/>
<stop offset="1" stop-color="#DA2911"/>
</linearGradient>
<linearGradient id="paint6_linear_252_8852" x1="455.421" y1="56.9512" x2="455.421" y2="338.902" gradientUnits="userSpaceOnUse">
<stop stop-color="#FFDE68"/>
<stop offset="1" stop-color="#DA2911"/>
</linearGradient>
<linearGradient id="paint7_linear_252_8852" x1="453.417" y1="66.2715" x2="453.417" y2="340.629" gradientUnits="userSpaceOnUse">
<stop stop-color="#FFDE68"/>
<stop offset="1" stop-color="#DA2911"/>
</linearGradient>
<linearGradient id="paint8_linear_252_8852" x1="451.41" y1="75.5314" x2="451.41" y2="342.351" gradientUnits="userSpaceOnUse">
<stop stop-color="#FFDE68"/>
<stop offset="1" stop-color="#DA2911"/>
</linearGradient>
<linearGradient id="paint9_linear_252_8852" x1="449.402" y1="84.7012" x2="449.402" y2="344.097" gradientUnits="userSpaceOnUse">
<stop stop-color="#FFDE68"/>
<stop offset="1" stop-color="#DA2911"/>
</linearGradient>
<linearGradient id="paint10_linear_252_8852" x1="447.395" y1="93.7637" x2="447.395" y2="345.859" gradientUnits="userSpaceOnUse">
<stop stop-color="#FFDE68"/>
<stop offset="1" stop-color="#DA2911"/>
</linearGradient>
<linearGradient id="paint11_linear_252_8852" x1="445.388" y1="102.691" x2="445.388" y2="347.652" gradientUnits="userSpaceOnUse">
<stop stop-color="#FFDE68"/>
<stop offset="1" stop-color="#DA2911"/>
</linearGradient>
<linearGradient id="paint12_linear_252_8852" x1="443.383" y1="111.412" x2="443.383" y2="349.436" gradientUnits="userSpaceOnUse">
<stop stop-color="#FFDE68"/>
<stop offset="1" stop-color="#DA2911"/>
</linearGradient>
<linearGradient id="paint13_linear_252_8852" x1="441.382" y1="119.883" x2="441.382" y2="351.24" gradientUnits="userSpaceOnUse">
<stop stop-color="#FFDE68"/>
<stop offset="1" stop-color="#DA2911"/>
</linearGradient>
<linearGradient id="paint14_linear_252_8852" x1="439.364" y1="127.982" x2="439.364" y2="353.056" gradientUnits="userSpaceOnUse">
<stop stop-color="#FFDE68"/>
<stop offset="1" stop-color="#DA2911"/>
</linearGradient>
<linearGradient id="paint15_linear_252_8852" x1="437.36" y1="135.531" x2="437.36" y2="354.876" gradientUnits="userSpaceOnUse">
<stop stop-color="#FFDE68"/>
<stop offset="1" stop-color="#DA2911"/>
</linearGradient>
<linearGradient id="paint16_linear_252_8852" x1="435.352" y1="127.223" x2="435.352" y2="356.7" gradientUnits="userSpaceOnUse">
<stop stop-color="#FFDE68"/>
<stop offset="1" stop-color="#DA2911"/>
</linearGradient>
<linearGradient id="paint17_linear_252_8852" x1="433.345" y1="118.443" x2="433.345" y2="358.544" gradientUnits="userSpaceOnUse">
<stop stop-color="#FFDE68"/>
<stop offset="1" stop-color="#DA2911"/>
</linearGradient>
<linearGradient id="paint18_linear_252_8852" x1="431.339" y1="109.635" x2="431.339" y2="360.402" gradientUnits="userSpaceOnUse">
<stop stop-color="#FFDE68"/>
<stop offset="1" stop-color="#DA2911"/>
</linearGradient>
<linearGradient id="paint19_linear_252_8852" x1="429.335" y1="100.879" x2="429.335" y2="362.257" gradientUnits="userSpaceOnUse">
<stop stop-color="#FFDE68"/>
<stop offset="1" stop-color="#DA2911"/>
</linearGradient>
<linearGradient id="paint20_linear_252_8852" x1="427.324" y1="92.0253" x2="427.324" y2="364.125" gradientUnits="userSpaceOnUse">
<stop stop-color="#FFDE68"/>
<stop offset="1" stop-color="#DA2911"/>
</linearGradient>
<linearGradient id="paint21_linear_252_8852" x1="425.317" y1="83.1621" x2="425.317" y2="365.999" gradientUnits="userSpaceOnUse">
<stop stop-color="#FFDE68"/>
<stop offset="1" stop-color="#DA2911"/>
</linearGradient>
<clipPath id="clip0_252_8852">
<rect width="583" height="366" fill="white"/>
</clipPath>
</defs>
</svg>
