<svg width="583" height="237" viewBox="0 0 583 237" fill="none" xmlns="http://www.w3.org/2000/svg">
<g clip-path="url(#clip0_298_3113)">
<path d="M73.7607 355.463C220.236 283.796 270.22 204.761 288.335 144.803C308.55 77.8874 298.125 4.7516 319.947 0.209805C333.92 -2.69948 351.113 24.6102 383.169 84.4764C480.375 266.013 482.576 314.222 523.991 326.735C582.008 344.275 617.772 261.755 706.951 263.534C772.45 264.843 825.452 310.789 861.175 351.63" stroke="url(#paint0_linear_298_3113)" stroke-width="2" stroke-miterlimit="10"/>
<path d="M70.2432 348.258C212.594 278.134 265.449 201.31 285.001 145.117C306.849 82.3196 296.531 12.9618 318.126 9.68144C332.009 7.57096 348.88 34.4136 379.843 92.2282C473.943 267.9 476.862 316.71 517.958 328.605C576.311 345.257 610.517 256.767 700.641 255.563C702.606 255.536 704.541 255.536 706.477 255.589C770.422 257.368 824.179 303.335 860.666 343.926" stroke="url(#paint1_linear_298_3113)" stroke-width="2" stroke-miterlimit="10"/>
<path d="M66.7373 341.051C204.953 272.477 260.638 197.995 281.676 145.433C305.125 86.8462 294.953 21.179 316.314 19.1558C330.113 17.8463 346.662 44.2241 376.525 99.9849C467.499 269.784 471.119 319.351 511.942 330.473C570.579 346.449 603.295 251.735 694.347 247.588C696.345 247.496 698.336 247.405 700.327 247.415C765.328 247.773 821.88 294.691 860.169 336.217" stroke="url(#paint2_linear_298_3113)" stroke-width="2" stroke-miterlimit="10"/>
<path d="M63.2236 333.849C197.324 266.804 255.751 194.843 278.346 145.754C303.329 91.4726 293.378 29.4065 314.495 28.6361C328.215 28.1341 344.423 54.0361 373.201 107.743C461.059 271.689 465.395 321.908 505.919 332.345C564.868 347.526 596.079 246.668 688.048 239.617C690.089 239.46 692.128 239.309 694.161 239.244C760.214 237.135 819.565 286.047 859.655 328.508" stroke="url(#paint3_linear_298_3113)" stroke-width="2" stroke-miterlimit="10"/>
<path d="M59.7109 326.646C189.687 261.151 250.767 191.858 275.014 146.074C301.432 96.1926 291.813 37.6425 312.678 38.1161C326.322 38.4239 342.194 63.8501 369.881 115.503C454.621 273.584 459.675 324.459 499.898 334.215C559.177 348.593 588.872 241.565 681.749 231.637C683.834 231.418 685.921 231.2 688.015 231.065C755.117 227.045 817.266 277.4 859.164 320.803" stroke="url(#paint4_linear_298_3113)" stroke-width="2" stroke-miterlimit="10"/>
<path d="M56.1982 319.442C182.052 255.495 245.656 189.055 271.689 146.396C299.391 100.999 290.247 45.8846 310.866 47.5935C324.438 48.7196 339.968 73.6613 366.562 123.263C448.189 275.48 453.964 327 493.881 336.086C553.485 349.65 581.672 236.426 675.455 223.671C677.586 223.381 679.717 223.087 681.865 222.899C750.012 216.984 814.974 268.762 858.666 313.104" stroke="url(#paint5_linear_298_3113)" stroke-width="2" stroke-miterlimit="10"/>
<path d="M52.6875 312.238C174.415 249.832 240.379 186.43 268.356 146.715C297.138 105.854 288.695 54.1372 309.046 57.0727C322.549 59.0195 337.734 83.481 363.235 131.02C441.746 277.373 448.248 329.535 487.855 337.955C547.798 350.698 574.464 231.256 669.152 215.699C671.335 215.341 673.505 214.975 675.702 214.728C744.89 206.932 812.662 260.124 858.155 305.398" stroke="url(#paint6_linear_298_3113)" stroke-width="2" stroke-miterlimit="10"/>
<path d="M49.1748 305.034C166.778 244.17 228.423 177.576 265.026 147.034C287.195 105.769 287.141 62.4005 307.229 66.5494C320.665 69.3256 335.505 93.2851 359.914 138.79C435.308 279.278 442.537 332.071 481.834 339.836C542.113 351.746 567.26 226.067 662.851 207.738C665.074 207.312 667.298 206.876 669.549 206.566C739.784 196.908 810.372 251.486 857.66 297.703" stroke="url(#paint7_linear_298_3113)" stroke-width="2" stroke-miterlimit="10"/>
<path d="M45.6621 297.827C159.143 238.507 222.454 173.686 261.697 147.35C284.146 109.75 285.587 70.6719 305.413 76.0256C318.784 79.6355 333.274 103.089 356.592 146.536C428.859 281.159 436.83 334.576 475.815 341.693C536.432 352.759 560.053 220.824 656.552 199.752C658.819 199.256 661.089 198.75 663.395 198.379C734.675 186.875 808.06 242.83 857.158 289.983" stroke="url(#paint8_linear_298_3113)" stroke-width="2" stroke-miterlimit="10"/>
<path d="M42.1484 290.624C151.505 232.847 216.482 169.805 258.364 147.67C281.093 113.732 284.031 78.956 303.596 85.5035C316.899 89.9537 331.044 112.903 353.268 154.294C422.43 283.062 431.124 337.085 469.793 343.561C530.755 353.773 552.839 215.57 650.253 191.776C652.563 191.213 654.881 190.639 657.239 190.205C729.565 176.865 805.756 234.185 856.655 282.276" stroke="url(#paint9_linear_298_3113)" stroke-width="2" stroke-miterlimit="10"/>
<path d="M38.6377 283.42C143.872 227.185 210.513 165.92 255.035 147.991C278.043 117.717 282.475 87.2518 301.777 94.9822C315.012 100.281 328.815 122.717 349.947 162.046C415.992 284.943 425.421 339.582 463.771 345.427C525.078 354.77 545.621 210.288 643.954 183.799C646.31 183.164 648.674 182.527 651.082 182.027C724.461 166.865 803.452 225.538 856.153 274.565" stroke="url(#paint10_linear_298_3113)" stroke-width="2" stroke-miterlimit="10"/>
<path d="M35.125 276.212C136.231 221.525 204.549 162.034 251.708 148.317C274.995 121.708 280.916 95.559 299.959 104.468C313.122 110.623 326.584 132.535 346.622 169.819C409.551 286.851 419.717 342.088 457.752 347.309C519.408 355.775 538.396 205.01 637.655 175.84C640.057 175.135 642.459 174.43 644.928 173.876C719.359 156.901 801.149 216.913 855.651 266.879" stroke="url(#paint11_linear_298_3113)" stroke-width="2" stroke-miterlimit="10"/>
<path d="M31.6113 269.01C128.595 215.866 198.57 158.152 248.375 148.629C271.942 125.685 279.345 103.864 298.144 113.938C311.23 120.953 324.354 142.341 343.301 177.571C403.123 288.74 414.018 344.568 451.728 349.173C513.733 356.744 531.158 199.682 631.356 167.861C633.799 167.085 636.257 166.316 638.779 165.69C714.267 146.92 798.852 208.249 855.155 259.162" stroke="url(#paint12_linear_298_3113)" stroke-width="2" stroke-miterlimit="10"/>
<path d="M28.1055 261.804C120.959 210.203 192.599 154.267 245.046 148.951C268.89 129.67 277.772 112.178 296.328 123.415C309.336 131.294 322.125 152.15 339.98 185.326C396.678 290.632 408.318 347.05 445.706 351.042C508.066 357.707 523.914 194.338 625.055 159.887C627.544 159.038 630.051 158.204 632.618 157.515C709.165 136.947 796.542 199.611 854.66 251.454" stroke="url(#paint13_linear_298_3113)" stroke-width="2" stroke-miterlimit="10"/>
<path d="M24.5889 254.596C113.322 204.538 186.631 150.379 241.718 149.264C265.841 133.648 276.194 120.492 294.512 132.895C307.435 141.64 319.897 161.962 336.649 193.086C390.232 292.528 402.609 349.515 439.677 352.911C502.388 358.658 516.653 189.005 618.749 151.913C621.281 150.995 623.836 150.098 626.454 149.342C704.068 126.989 794.231 190.969 854.138 243.749" stroke="url(#paint14_linear_298_3113)" stroke-width="2" stroke-miterlimit="10"/>
<path d="M21.0752 247.393C105.684 198.878 180.659 146.496 238.385 149.584C262.79 137.633 274.606 128.815 292.695 142.369C305.528 151.985 317.665 171.772 333.337 200.843C383.801 294.417 396.916 351.975 433.666 354.779C496.728 359.591 509.4 183.636 612.458 143.949C615.034 142.958 617.637 141.998 620.318 141.179C698.988 117.037 791.936 182.322 853.644 236.031" stroke="url(#paint15_linear_298_3113)" stroke-width="2" stroke-miterlimit="10"/>
<path d="M17.5625 240.19C98.0497 193.22 174.688 142.621 235.056 149.904C259.727 141.61 273.012 137.143 290.878 151.848C303.616 162.335 315.436 181.583 330.014 208.593C377.363 296.304 391.216 354.422 427.644 356.639C491.058 360.502 502.127 178.254 606.159 135.957C608.779 134.892 611.43 133.871 614.152 132.987C693.906 107.094 789.639 173.68 853.142 228.334" stroke="url(#paint16_linear_298_3113)" stroke-width="2" stroke-miterlimit="10"/>
<path d="M14.0498 232.979C90.4127 187.553 168.717 138.723 231.724 150.219C256.686 145.594 271.412 145.461 289.058 161.319C301.699 172.668 313.205 191.387 326.689 216.353C370.922 298.197 385.513 356.871 421.621 358.513C485.388 361.42 494.846 172.882 599.861 128.001C602.522 126.861 605.223 125.779 607.996 124.83C688.83 97.1619 787.329 165.042 852.64 220.642" stroke="url(#paint17_linear_298_3113)" stroke-width="2" stroke-miterlimit="10"/>
<path d="M10.5381 225.771C82.7746 181.903 161.917 162.245 228.396 150.54C253.272 146.16 269.809 153.79 287.242 170.8C299.781 183.022 310.977 201.203 323.369 224.115C364.485 300.099 379.812 359.314 415.6 360.386C479.715 362.304 487.555 167.481 593.561 120.016C596.264 118.807 599.019 117.661 601.84 116.646C683.755 87.2192 785.018 156.389 852.139 212.918" stroke="url(#paint18_linear_298_3113)" stroke-width="2" stroke-miterlimit="10"/>
<path d="M7.02539 218.573C75.1442 176.233 155.271 137.105 225.067 150.859C250.244 155.822 268.198 162.114 285.426 180.279C297.858 193.374 308.746 211.013 320.047 231.873C358.049 301.993 374.107 361.746 409.579 362.254C474.039 363.18 480.255 162.079 587.26 112.043C590.009 110.76 592.812 109.559 595.685 108.475C678.747 77.459 782.722 147.749 851.644 205.216" stroke="url(#paint19_linear_298_3113)" stroke-width="2" stroke-miterlimit="10"/>
<path d="M3.5127 211.367C67.5029 170.57 149.839 130.126 221.737 151.176C247.24 158.644 266.582 170.436 283.61 189.754C295.93 203.722 306.517 220.824 316.724 239.628C351.611 303.886 368.402 364.322 403.558 364.123C468.36 363.756 472.869 156.514 580.961 104.069C583.749 102.707 586.604 101.45 589.529 100.299C673.655 67.4506 780.418 139.1 851.135 197.504" stroke="url(#paint20_linear_298_3113)" stroke-width="2" stroke-miterlimit="10"/>
<path d="M0 204.169C59.866 164.916 144.833 123.198 218.406 151.503C329.317 194.179 338.913 367.001 397.539 365.997C464.369 364.853 465.736 140.023 583.374 92.1318C668.562 57.4518 778.124 130.461 850.634 189.806" stroke="url(#paint21_linear_298_3113)" stroke-width="2" stroke-miterlimit="10"/>
</g>
<defs>
<linearGradient id="paint0_linear_298_3113" x1="467.468" y1="0" x2="467.468" y2="355.463" gradientUnits="userSpaceOnUse">
<stop stop-color="#68FFE4"/>
<stop offset="0.739583" stop-color="#DA2911"/>
</linearGradient>
<linearGradient id="paint1_linear_298_3113" x1="465.455" y1="9.56616" x2="465.455" y2="348.258" gradientUnits="userSpaceOnUse">
<stop stop-color="#68FFE4"/>
<stop offset="0.739583" stop-color="#DA2911"/>
</linearGradient>
<linearGradient id="paint2_linear_298_3113" x1="463.453" y1="19.1094" x2="463.453" y2="341.051" gradientUnits="userSpaceOnUse">
<stop stop-color="#68FFE4"/>
<stop offset="0.739583" stop-color="#DA2911"/>
</linearGradient>
<linearGradient id="paint3_linear_298_3113" x1="461.439" y1="28.6289" x2="461.439" y2="333.899" gradientUnits="userSpaceOnUse">
<stop stop-color="#68FFE4"/>
<stop offset="0.739583" stop-color="#DA2911"/>
</linearGradient>
<linearGradient id="paint4_linear_298_3113" x1="459.437" y1="38.1133" x2="459.437" y2="335.541" gradientUnits="userSpaceOnUse">
<stop stop-color="#68FFE4"/>
<stop offset="0.739583" stop-color="#DA2911"/>
</linearGradient>
<linearGradient id="paint5_linear_298_3113" x1="457.432" y1="47.5547" x2="457.432" y2="337.212" gradientUnits="userSpaceOnUse">
<stop stop-color="#68FFE4"/>
<stop offset="0.739583" stop-color="#DA2911"/>
</linearGradient>
<linearGradient id="paint6_linear_298_3113" x1="455.421" y1="56.9531" x2="455.421" y2="338.904" gradientUnits="userSpaceOnUse">
<stop stop-color="#68FFE4"/>
<stop offset="0.739583" stop-color="#DA2911"/>
</linearGradient>
<linearGradient id="paint7_linear_298_3113" x1="453.417" y1="66.2734" x2="453.417" y2="340.631" gradientUnits="userSpaceOnUse">
<stop stop-color="#68FFE4"/>
<stop offset="0.739583" stop-color="#DA2911"/>
</linearGradient>
<linearGradient id="paint8_linear_298_3113" x1="451.41" y1="75.5312" x2="451.41" y2="342.351" gradientUnits="userSpaceOnUse">
<stop stop-color="#68FFE4"/>
<stop offset="0.739583" stop-color="#DA2911"/>
</linearGradient>
<linearGradient id="paint9_linear_298_3113" x1="449.402" y1="84.7031" x2="449.402" y2="344.099" gradientUnits="userSpaceOnUse">
<stop stop-color="#68FFE4"/>
<stop offset="0.739583" stop-color="#DA2911"/>
</linearGradient>
<linearGradient id="paint10_linear_298_3113" x1="447.395" y1="93.7656" x2="447.395" y2="345.861" gradientUnits="userSpaceOnUse">
<stop stop-color="#68FFE4"/>
<stop offset="0.739583" stop-color="#DA2911"/>
</linearGradient>
<linearGradient id="paint11_linear_298_3113" x1="445.388" y1="102.691" x2="445.388" y2="347.652" gradientUnits="userSpaceOnUse">
<stop stop-color="#68FFE4"/>
<stop offset="0.739583" stop-color="#DA2911"/>
</linearGradient>
<linearGradient id="paint12_linear_298_3113" x1="443.383" y1="111.414" x2="443.383" y2="349.438" gradientUnits="userSpaceOnUse">
<stop stop-color="#68FFE4"/>
<stop offset="0.739583" stop-color="#DA2911"/>
</linearGradient>
<linearGradient id="paint13_linear_298_3113" x1="441.382" y1="119.883" x2="441.382" y2="351.24" gradientUnits="userSpaceOnUse">
<stop stop-color="#68FFE4"/>
<stop offset="0.739583" stop-color="#DA2911"/>
</linearGradient>
<linearGradient id="paint14_linear_298_3113" x1="439.364" y1="127.98" x2="439.364" y2="353.054" gradientUnits="userSpaceOnUse">
<stop stop-color="#68FFE4"/>
<stop offset="0.739583" stop-color="#DA2911"/>
</linearGradient>
<linearGradient id="paint15_linear_298_3113" x1="437.36" y1="135.531" x2="437.36" y2="354.876" gradientUnits="userSpaceOnUse">
<stop stop-color="#68FFE4"/>
<stop offset="0.739583" stop-color="#DA2911"/>
</linearGradient>
<linearGradient id="paint16_linear_298_3113" x1="435.352" y1="127.223" x2="435.352" y2="356.7" gradientUnits="userSpaceOnUse">
<stop stop-color="#68FFE4"/>
<stop offset="0.739583" stop-color="#DA2911"/>
</linearGradient>
<linearGradient id="paint17_linear_298_3113" x1="433.345" y1="118.445" x2="433.345" y2="358.546" gradientUnits="userSpaceOnUse">
<stop stop-color="#68FFE4"/>
<stop offset="0.739583" stop-color="#DA2911"/>
</linearGradient>
<linearGradient id="paint18_linear_298_3113" x1="431.339" y1="109.633" x2="431.339" y2="360.4" gradientUnits="userSpaceOnUse">
<stop stop-color="#68FFE4"/>
<stop offset="0.739583" stop-color="#DA2911"/>
</linearGradient>
<linearGradient id="paint19_linear_298_3113" x1="429.335" y1="100.879" x2="429.335" y2="362.257" gradientUnits="userSpaceOnUse">
<stop stop-color="#68FFE4"/>
<stop offset="0.739583" stop-color="#DA2911"/>
</linearGradient>
<linearGradient id="paint20_linear_298_3113" x1="427.324" y1="92.0234" x2="427.324" y2="364.123" gradientUnits="userSpaceOnUse">
<stop stop-color="#68FFE4"/>
<stop offset="0.739583" stop-color="#DA2911"/>
</linearGradient>
<linearGradient id="paint21_linear_298_3113" x1="425.317" y1="83.1641" x2="425.317" y2="366.001" gradientUnits="userSpaceOnUse">
<stop stop-color="#68FFE4"/>
<stop offset="0.739583" stop-color="#DA2911"/>
</linearGradient>
<clipPath id="clip0_298_3113">
<rect width="583" height="366" fill="white"/>
</clipPath>
</defs>
</svg>
