<svg width="352" height="308" viewBox="0 0 352 308" fill="none" xmlns="http://www.w3.org/2000/svg">
<path d="M317.727 95.7486C329.127 107.805 337.731 122.676 343.292 139.941C348.664 156.623 350.985 174.815 350.198 194.032C349.338 213.595 345.465 232.908 338.715 251.29C331.705 270.617 321.721 288.732 309.123 304.98C296.566 321.162 282.139 334.506 266.268 344.619C250.93 354.396 234.887 360.777 218.582 363.582C202.276 366.387 186.529 365.477 171.782 360.876C156.413 356.054 142.563 347.317 131.592 335.524C120.192 323.467 111.596 308.572 106.035 291.348C100.663 274.673 98.3335 256.473 99.1291 237.215C99.9851 217.652 103.858 198.338 110.612 179.958C117.617 160.632 127.599 142.52 140.196 126.276C152.737 110.086 167.172 96.7738 183.084 86.6527C198.422 76.876 214.465 70.4949 230.77 67.6898C247.075 64.8848 262.815 65.7952 277.521 70.3965C292.888 75.2214 306.737 83.9578 317.71 95.7486H317.727ZM318.194 95.1171C271.312 45.5201 191.409 59.2337 139.745 125.833C88.0811 192.433 84.218 286.591 131.108 336.155C177.999 385.719 257.91 372.006 309.574 305.447C361.238 238.889 365.109 144.689 318.211 95.1171H318.194Z" stroke="url(#paint0_linear_1017_4269)" stroke-width="2"/>
<path d="M302.489 75.9245C315.612 86.7265 326.151 100.612 333.787 117.205C341.169 133.223 345.557 151.079 346.837 170.279C348.074 189.836 346.163 209.464 341.177 228.415C335.986 248.45 327.612 267.521 316.375 284.901C305.646 301.741 292.085 316.598 276.292 328.814C261.463 340.133 245.543 348.163 228.95 352.657C212.358 357.152 195.962 357.89 180.182 354.855C163.846 351.713 148.572 344.484 135.785 333.842C122.662 323.04 112.122 309.154 104.486 292.562C97.1045 276.535 92.7165 258.68 91.437 239.487C90.2004 219.928 92.1112 200.297 97.0963 181.344C102.281 161.304 110.655 142.229 121.899 124.849C132.628 108.009 146.188 93.1527 161.982 80.9359C176.811 69.6255 192.731 61.604 209.331 57.1093C225.932 52.6147 242.328 51.8765 258.108 54.9112C274.445 58.051 289.72 65.2805 302.505 75.9245H302.489ZM302.94 75.2438C248.955 30.8222 167.682 52.8443 121.407 124.455C75.1316 196.066 81.3814 290.134 135.35 334.523C189.319 378.912 270.616 356.922 316.891 285.311C363.167 213.7 356.917 119.633 302.948 75.2356L302.94 75.2438Z" stroke="url(#paint1_linear_1017_4269)" stroke-width="2"/>
<path d="M284.552 57.7986C299.57 67.4183 312.193 80.3392 321.461 95.5767C330.852 110.742 337.348 128.048 340.752 147.003C344.169 166.311 344.33 186.055 341.227 205.417C338.014 225.951 331.415 245.81 321.699 264.184C312.332 282.155 299.897 298.351 284.954 312.042C271.447 324.477 255.679 334.205 238.506 340.699C222.486 346.803 205.315 349.293 188.22 347.991C171.039 346.597 154.461 341.016 139.936 331.735C124.922 322.107 112.299 309.185 103.027 293.948C93.6359 278.783 87.1482 261.485 83.7362 242.531C80.323 223.222 80.1623 203.478 83.2605 184.116C86.4819 163.582 93.0866 143.723 102.806 125.35C112.171 107.375 124.61 91.1782 139.558 77.4914C153.064 65.056 168.828 55.3251 185.998 48.8257C202.018 42.7203 219.19 40.2332 236.284 41.5424C253.467 42.927 270.047 48.5091 284.568 57.7986H284.552ZM284.946 57.0769C224.186 18.5278 142.38 48.9406 102.24 124.981C62.0995 201.021 78.8068 293.94 139.567 332.489C200.326 371.038 282.116 340.56 322.264 264.544C362.413 188.529 345.689 95.5849 284.929 57.0769H284.946Z" stroke="url(#paint2_linear_1017_4269)" stroke-width="2"/>
<path d="M263.986 41.6482C280.472 49.5454 294.955 61.073 306.349 75.3663C317.975 89.9317 326.665 106.613 331.939 124.488C337.571 143.292 339.889 162.934 338.788 182.533C337.688 203.339 333.016 223.8 324.976 243.022C317.162 261.98 306.037 279.397 292.119 294.456C279.345 308.326 264.054 319.646 247.058 327.813C231.04 335.582 213.55 339.846 195.755 340.321C177.855 340.745 160.108 336.934 143.96 329.199C127.487 321.286 113.018 309.748 101.638 295.448C90.0123 280.883 81.3218 264.201 76.0477 246.327C70.4169 227.522 68.0995 207.881 69.1991 188.282C70.3005 167.486 74.9756 147.035 83.0193 127.826C90.8358 108.861 101.974 91.4434 115.909 76.3916C128.674 62.5244 143.953 51.2052 160.938 43.0343C176.943 35.2715 194.418 31.0076 212.2 30.5264C230.097 30.1014 247.842 33.9123 263.986 41.6482V41.6482ZM264.306 40.8936C197.157 8.90615 115.729 47.7012 82.4206 127.522C49.1126 207.343 76.5398 297.975 143.714 329.954C210.887 361.933 292.291 323.138 325.599 243.317C358.907 163.496 331.447 72.8729 264.282 40.8936H264.306Z" stroke="url(#paint3_linear_1017_4269)" stroke-width="2"/>
<path d="M240.926 27.7383C258.746 33.789 274.996 43.7294 288.497 56.8387C302.045 69.9899 312.87 85.6808 320.354 103.016C328.223 121.056 332.769 140.37 333.772 160.027C334.88 180.862 332.243 201.727 325.988 221.632C319.908 241.407 310.271 259.907 297.552 276.224C285.739 291.443 271.158 304.294 254.574 314.1C238.717 323.544 221.076 329.604 202.763 331.898C184.284 334.193 165.525 332.264 147.9 326.255C130.082 320.198 113.833 310.255 100.329 297.147C86.7846 283.995 75.9627 268.304 68.481 250.97C60.6339 232.925 56.1104 213.611 55.1282 193.958C54.0169 173.125 56.6447 152.261 62.8873 132.354C68.9708 112.579 78.6099 94.0785 91.3315 77.7618C103.139 62.5493 117.708 49.6993 134.277 39.8854C150.131 30.4525 167.761 24.3934 186.064 22.0872C204.543 19.7907 223.303 21.7231 240.926 27.7383V27.7383ZM241.172 26.9181C168.175 2.14015 87.9933 49.2192 62.1737 132.091C36.354 214.964 74.6488 302.248 147.687 327.035C220.725 351.821 300.866 304.734 326.677 221.87C352.489 139.006 314.21 51.7372 241.172 26.951V26.9181Z" stroke="url(#paint4_linear_1017_4269)" stroke-width="2"/>
<path d="M215.532 16.3046C234.536 20.4181 252.424 28.5968 267.967 40.2788C283.332 51.8301 296.258 66.3086 306 82.8796C316.08 99.9021 322.897 118.655 326.102 138.177C332.927 179.662 324.068 222.203 301.251 257.515C290.567 273.993 276.861 288.3 260.856 299.681C245.353 310.767 227.782 318.627 209.184 322.794C190.269 327.011 170.662 327.05 151.73 322.909C132.725 318.799 114.836 310.62 99.2948 298.935C83.9331 287.386 71.01 272.91 61.2707 256.342C51.1774 239.322 44.346 220.569 41.1268 201.045C34.311 159.56 43.1692 117.022 65.9786 81.7067C76.6631 65.2315 90.3691 50.9271 106.373 39.5488C121.888 28.4572 139.474 20.5972 158.086 16.4358C176.988 12.2254 196.58 12.1834 215.5 16.3128L215.532 16.3046ZM215.672 15.4926C137.335 -1.50998 59.4416 53.6971 41.7255 138.792C24.0093 223.887 73.1799 306.702 151.533 323.713C229.886 340.723 307.755 285.524 325.512 200.413C343.269 115.302 294.066 32.5198 215.705 15.509L215.672 15.4926Z" stroke="url(#paint5_linear_1017_4269)" stroke-width="2"/>
<path d="M188 7.60266C208.053 9.67831 227.449 15.9312 244.938 25.9586C261.992 35.7414 276.953 48.7874 288.966 64.3517C301.201 80.1106 310.315 98.0606 315.819 117.238C327.383 157.802 322.801 201.267 303.032 238.528C293.667 256.144 281.023 271.809 265.779 284.68C250.789 297.405 233.44 307.054 214.722 313.075C195.521 319.221 175.252 321.307 155.202 319.201C135.152 317.094 115.759 310.841 98.2546 300.838C81.2007 291.058 66.2401 278.014 54.2267 262.453C42.0013 246.689 32.8982 228.736 27.4065 209.559C15.8232 169 20.391 125.533 40.1522 88.2685C49.5246 70.6549 62.1711 54.9908 77.4136 42.1163C92.4022 29.394 109.748 19.7457 128.462 13.7213C147.663 7.54475 167.945 5.46042 188 7.60266V7.60266ZM188.09 6.78247C105.021 -1.94437 30.3345 61.1038 21.2468 147.593C12.1591 234.082 72.0987 311.287 155.135 320.055C238.171 328.823 312.85 265.742 321.946 179.244C331.042 92.7468 271.094 15.5093 188.057 6.78247H188.09Z" stroke="url(#paint6_linear_1017_4269)" stroke-width="2"/>
<path d="M158.477 1.82019C194.647 1.79094 229.713 14.2788 257.722 37.1641C285.732 60.0494 304.959 91.922 312.141 127.372C319.323 162.822 314.016 199.665 297.122 231.647C280.228 263.629 252.788 288.78 219.458 302.831C181.173 319.004 138.031 319.306 99.5236 303.671C61.0158 288.035 30.2963 257.743 14.1231 219.458C-2.05017 181.173 -2.35233 138.031 13.283 99.5236C28.9184 61.0158 59.2106 30.2963 97.4956 14.1231C116.788 5.96117 137.529 1.77667 158.477 1.82019V1.82019ZM158.477 1C71.5365 1 1 71.5365 1 158.477C1 245.417 71.5365 315.954 158.477 315.954C245.417 315.954 315.954 245.417 315.954 158.477C315.954 71.5365 245.417 1 158.477 1Z" stroke="url(#paint7_linear_1017_4269)" stroke-width="2"/>
<defs>
<linearGradient id="paint0_linear_1017_4269" x1="224.661" y1="65.3177" x2="224.661" y2="365.931" gradientUnits="userSpaceOnUse">
<stop stop-color="#4A3AFF"/>
<stop offset="1" stop-color="#FF3AC8"/>
</linearGradient>
<linearGradient id="paint1_linear_1017_4269" x1="219.149" y1="52.2965" x2="219.149" y2="357.456" gradientUnits="userSpaceOnUse">
<stop stop-color="#4A3AFF"/>
<stop offset="1" stop-color="#FF3AC8"/>
</linearGradient>
<linearGradient id="paint2_linear_1017_4269" x1="212.253" y1="40.366" x2="212.253" y2="349.187" gradientUnits="userSpaceOnUse">
<stop stop-color="#4A3AFF"/>
<stop offset="1" stop-color="#FF3AC8"/>
</linearGradient>
<linearGradient id="paint3_linear_1017_4269" x1="204.007" y1="29.6816" x2="204.007" y2="341.161" gradientUnits="userSpaceOnUse">
<stop stop-color="#4A3AFF"/>
<stop offset="1" stop-color="#FF3AC8"/>
</linearGradient>
<linearGradient id="paint4_linear_1017_4269" x1="194.424" y1="20.3121" x2="194.424" y2="333.644" gradientUnits="userSpaceOnUse">
<stop stop-color="#4A3AFF"/>
<stop offset="1" stop-color="#FF3AC8"/>
</linearGradient>
<linearGradient id="paint5_linear_1017_4269" x1="183.625" y1="12.4171" x2="183.625" y2="326.791" gradientUnits="userSpaceOnUse">
<stop stop-color="#4A3AFF"/>
<stop offset="1" stop-color="#FF3AC8"/>
</linearGradient>
<linearGradient id="paint6_linear_1017_4269" x1="171.597" y1="5.97546" x2="171.597" y2="320.869" gradientUnits="userSpaceOnUse">
<stop stop-color="#4A3AFF"/>
<stop offset="1" stop-color="#FF3AC8"/>
</linearGradient>
<linearGradient id="paint7_linear_1017_4269" x1="158.477" y1="1" x2="158.477" y2="315.954" gradientUnits="userSpaceOnUse">
<stop stop-color="#4A3AFF"/>
<stop offset="1" stop-color="#FF3AC8"/>
</linearGradient>
</defs>
</svg>
