<svg width="554" height="578" viewBox="0 0 554 578" fill="none" xmlns="http://www.w3.org/2000/svg">
<path d="M500.086 150.302C518.051 169.301 531.608 192.732 540.371 219.938C548.837 246.226 552.494 274.893 551.253 305.174C549.898 336.001 543.795 366.434 533.159 395.399C522.113 425.855 506.38 454.399 486.528 480.002C466.741 505.502 444.007 526.53 418.999 542.465C394.83 557.871 369.55 567.926 343.856 572.347C318.163 576.767 293.348 575.332 270.11 568.081C245.893 560.483 224.068 546.716 206.781 528.132C188.816 509.133 175.271 485.663 166.508 458.522C158.043 432.247 154.372 403.567 155.626 373.221C156.975 342.394 163.078 311.96 173.72 282.996C184.759 252.544 200.488 224.003 220.338 198.406C240.1 172.893 262.846 151.917 287.92 135.969C312.088 120.563 337.368 110.508 363.062 106.087C388.756 101.667 413.557 103.102 436.731 110.353C460.946 117.956 482.769 131.722 500.06 150.302H500.086ZM500.823 149.307C426.947 71.153 301.038 92.7625 219.627 197.708C138.217 302.654 132.13 451.026 206.018 529.127C279.907 607.229 405.829 585.62 487.239 480.739C568.65 375.858 574.75 227.421 500.848 149.307H500.823Z" stroke="url(#paint0_linear_1044_3074)" stroke-width="2"/>
<path d="M476.073 119.064C496.752 136.086 513.359 157.967 525.392 184.113C537.024 209.354 543.938 237.49 545.955 267.746C547.904 298.563 544.893 329.492 537.037 359.354C528.857 390.924 515.661 420.977 497.954 448.364C481.048 474.899 459.679 498.31 434.792 517.561C411.425 535.397 386.339 548.05 360.193 555.132C334.047 562.215 308.211 563.378 283.345 558.596C257.603 553.644 233.534 542.252 213.385 525.484C192.706 508.462 176.098 486.581 164.066 460.435C152.434 435.181 145.519 407.045 143.503 376.802C141.555 345.981 144.565 315.048 152.421 285.181C160.591 253.603 173.787 223.545 191.504 196.158C208.41 169.623 229.779 146.212 254.665 126.961C278.033 109.138 303.119 96.4985 329.278 89.4159C355.437 82.3334 381.272 81.1702 406.139 85.9522C431.882 90.8997 455.952 102.292 476.098 119.064H476.073ZM476.783 117.992C391.715 47.9934 263.648 82.6953 190.729 195.538C117.809 308.38 127.658 456.61 212.7 526.556C297.742 596.503 425.849 561.853 498.768 449.01C571.687 336.168 561.839 187.938 476.796 117.979L476.783 117.992Z" stroke="url(#paint1_linear_1044_3074)" stroke-width="2"/>
<path d="M447.81 90.5021C471.474 105.661 491.366 126.021 505.97 150.032C520.768 173.929 531.004 201.199 536.368 231.067C541.753 261.493 542.006 292.605 537.117 323.115C532.054 355.472 521.655 386.765 506.345 415.718C491.585 444.037 471.99 469.558 448.443 491.131C427.159 510.726 402.313 526.056 375.253 536.289C350.008 545.908 322.95 549.831 296.014 547.779C268.94 545.583 242.817 536.788 219.928 522.163C196.269 506.992 176.379 486.629 161.768 462.62C146.97 438.723 136.747 411.466 131.37 381.597C125.992 351.171 125.738 320.06 130.621 289.55C135.697 257.192 146.104 225.9 161.419 196.947C176.177 168.624 195.777 143.101 219.333 121.534C240.615 101.938 265.456 86.6044 292.511 76.3629C317.755 66.7422 344.814 62.823 371.75 64.886C398.827 67.0678 424.953 75.864 447.836 90.5021H447.81ZM448.43 89.3648C352.687 28.6203 223.779 76.5438 160.528 196.366C97.2757 316.187 123.603 462.607 219.346 523.352C315.09 584.096 443.972 536.069 507.236 416.286C570.501 296.503 544.148 150.045 448.405 89.3648H448.43Z" stroke="url(#paint2_linear_1044_3074)" stroke-width="2"/>
<path d="M415.406 65.0519C441.384 77.4961 464.206 95.661 482.161 118.184C500.48 141.136 514.174 167.422 522.485 195.588C531.359 225.22 535.011 256.17 533.277 287.054C531.543 319.839 524.181 352.082 511.512 382.371C499.2 412.245 481.668 439.689 459.737 463.419C439.608 485.276 415.512 503.113 388.731 515.983C363.491 528.224 335.931 534.943 307.889 535.692C279.682 536.361 251.717 530.356 226.271 518.167C200.314 505.697 177.515 487.515 159.582 464.983C141.263 442.031 127.569 415.745 119.258 387.579C110.385 357.947 106.733 326.997 108.466 296.114C110.201 263.344 117.568 231.117 130.243 200.848C142.56 170.964 160.111 143.518 182.07 119.799C202.184 97.9481 226.261 80.1115 253.025 67.2361C278.245 55.0037 305.782 48.2847 333.802 47.5265C362.004 46.8568 389.966 52.8619 415.406 65.0519V65.0519ZM415.911 63.8629C310.099 13.4579 181.786 74.5901 129.3 200.37C76.8142 326.15 120.033 468.964 225.884 519.356C331.734 569.748 460.008 508.616 512.494 382.836C564.98 257.056 521.709 114.255 415.872 63.8629H415.911Z" stroke="url(#paint3_linear_1044_3074)" stroke-width="2"/>
<path d="M379.072 43.1336C407.151 52.668 432.757 68.3319 454.033 88.9893C475.381 109.712 492.439 134.438 504.231 161.753C516.632 190.181 523.795 220.616 525.375 251.591C527.12 284.422 522.966 317.3 513.11 348.665C503.528 379.826 488.344 408.978 468.301 434.69C449.687 458.672 426.709 478.922 400.578 494.375C375.59 509.256 347.793 518.805 318.935 522.42C289.816 526.037 260.256 522.997 232.484 513.528C204.406 503.983 178.802 488.315 157.522 467.66C136.179 446.935 119.127 422.21 107.337 394.896C94.972 366.461 87.8439 336.027 86.2963 305.059C84.5452 272.23 88.686 239.353 98.5227 207.984C108.109 176.822 123.298 147.671 143.344 121.959C161.95 97.9878 184.908 77.7392 211.016 62.2746C235.998 47.4105 263.779 37.8627 292.621 34.2288C321.74 30.61 351.301 33.6549 379.072 43.1336V43.1336ZM379.459 41.8412C264.433 2.79673 138.084 76.9825 97.3983 207.57C56.7125 338.158 117.056 475.699 232.148 514.756C347.239 553.814 473.523 479.615 514.196 349.04C554.869 218.465 494.551 80.9503 379.459 41.8929V41.8412Z" stroke="url(#paint4_linear_1044_3074)" stroke-width="2"/>
<path d="M339.049 25.116C368.994 31.598 397.181 44.4858 421.674 62.8939C445.885 81.0961 466.253 103.911 481.604 130.023C497.488 156.847 508.231 186.397 513.282 217.159C524.036 282.53 510.076 349.564 474.121 405.208C457.286 431.174 435.688 453.719 410.469 471.652C386.04 489.122 358.351 501.507 329.045 508.073C299.239 514.718 268.342 514.78 238.51 508.254C208.563 501.778 180.374 488.89 155.885 470.476C131.678 452.278 111.314 429.468 95.9673 403.36C80.0627 376.54 69.298 346.99 64.2251 316.224C53.485 250.853 67.4436 183.824 103.386 128.175C120.222 102.214 141.82 79.6732 167.038 61.7436C191.486 44.2657 219.198 31.8801 248.526 25.3228C278.311 18.6881 309.184 18.622 338.997 25.1289L339.049 25.116ZM339.268 23.8365C215.828 -2.95568 93.0852 84.0381 65.1686 218.128C37.252 352.219 114.733 482.716 238.2 509.521C361.666 536.326 484.37 449.345 512.351 315.229C540.332 181.113 462.799 50.6675 339.32 23.8624L339.268 23.8365Z" stroke="url(#paint5_linear_1044_3074)" stroke-width="2"/>
<path d="M295.669 11.4039C327.268 14.6747 357.831 24.5278 385.39 40.3286C412.264 55.7442 435.838 76.3017 454.768 100.828C474.048 125.66 488.41 153.945 497.082 184.164C515.305 248.083 508.085 316.575 476.933 375.289C462.177 403.049 442.252 427.733 418.231 448.014C394.611 468.067 367.272 483.271 337.777 492.759C307.521 502.444 275.581 505.731 243.986 502.411C212.392 499.092 181.833 489.238 154.251 473.475C127.378 458.064 103.803 437.511 84.8729 412.989C65.6083 388.15 51.2639 359.86 42.6103 329.64C24.3578 265.73 31.5556 197.235 62.6947 138.515C77.4635 110.76 97.3915 86.0769 121.41 65.7896C145.029 45.7421 172.362 30.5386 201.851 21.0455C232.107 11.3127 264.066 8.02825 295.669 11.4039V11.4039ZM295.811 10.1115C164.913 -3.64001 47.2243 95.7095 32.9041 231.997C18.5839 368.284 113.035 489.941 243.881 503.757C374.727 517.573 492.404 418.172 506.737 281.872C521.07 145.572 426.606 23.863 295.76 10.1115H295.811Z" stroke="url(#paint6_linear_1044_3074)" stroke-width="2"/>
<path d="M249.148 2.29244C306.143 2.24634 361.399 21.9243 405.536 57.9863C449.673 94.0483 479.971 144.272 491.288 200.133C502.604 255.994 494.242 314.05 467.621 364.447C441 414.844 397.76 454.476 345.24 476.616C284.912 502.102 216.93 502.578 156.251 477.94C95.5712 453.302 47.1643 405.569 21.679 345.24C-3.80637 284.912 -4.28251 216.93 20.3553 156.251C44.9931 95.5712 92.7266 47.1643 153.055 21.679C183.455 8.81767 216.139 2.22386 249.148 2.29244V2.29244ZM249.148 1C112.149 1 1 112.149 1 249.148C1 386.146 112.149 497.295 249.148 497.295C386.146 497.295 497.295 386.146 497.295 249.148C497.295 112.149 386.146 1 249.148 1Z" stroke="url(#paint7_linear_1044_3074)" stroke-width="2"/>
<defs>
<linearGradient id="paint0_linear_1044_3074" x1="353.436" y1="102.35" x2="353.436" y2="576.048" gradientUnits="userSpaceOnUse">
<stop stop-color="#FF3AC8"/>
<stop offset="1" stop-color="#2411FF"/>
</linearGradient>
<linearGradient id="paint1_linear_1044_3074" x1="344.748" y1="81.832" x2="344.748" y2="562.693" gradientUnits="userSpaceOnUse">
<stop stop-color="#FF3AC8"/>
<stop offset="1" stop-color="#2411FF"/>
</linearGradient>
<linearGradient id="paint2_linear_1044_3074" x1="333.883" y1="63.0322" x2="333.883" y2="549.664" gradientUnits="userSpaceOnUse">
<stop stop-color="#FF3AC8"/>
<stop offset="1" stop-color="#2411FF"/>
</linearGradient>
<linearGradient id="paint3_linear_1044_3074" x1="320.892" y1="46.1953" x2="320.892" y2="537.016" gradientUnits="userSpaceOnUse">
<stop stop-color="#FF3AC8"/>
<stop offset="1" stop-color="#2411FF"/>
</linearGradient>
<linearGradient id="paint4_linear_1044_3074" x1="305.795" y1="31.4316" x2="305.795" y2="525.171" gradientUnits="userSpaceOnUse">
<stop stop-color="#FF3AC8"/>
<stop offset="1" stop-color="#2411FF"/>
</linearGradient>
<linearGradient id="paint5_linear_1044_3074" x1="288.77" y1="18.9902" x2="288.77" y2="514.372" gradientUnits="userSpaceOnUse">
<stop stop-color="#FF3AC8"/>
<stop offset="1" stop-color="#2411FF"/>
</linearGradient>
<linearGradient id="paint6_linear_1044_3074" x1="269.822" y1="8.83984" x2="269.822" y2="505.04" gradientUnits="userSpaceOnUse">
<stop stop-color="#FF3AC8"/>
<stop offset="1" stop-color="#2411FF"/>
</linearGradient>
<linearGradient id="paint7_linear_1044_3074" x1="249.148" y1="1" x2="249.148" y2="497.295" gradientUnits="userSpaceOnUse">
<stop stop-color="#FF3AC8"/>
<stop offset="1" stop-color="#2411FF"/>
</linearGradient>
</defs>
</svg>
