<svg width="790" height="524" viewBox="0 0 790 524" fill="none" xmlns="http://www.w3.org/2000/svg">
<g clip-path="url(#clip0_817_3721)">
<path d="M37.984 48.1133C89.5501 73.9709 135.236 110.174 172.194 154.466C226.663 220.557 223.7 261.047 276.017 298.802C326.865 335.468 396.654 345.572 453.275 331.72C530.534 312.805 534.029 261.325 633.066 179.788C691.308 131.879 800.524 41.9347 929.34 50.6455C994.42 55.0515 1059.12 84.2732 1119.26 111.418C1192.97 144.692 1203.56 161.784 1243.34 169.659C1290.59 179.028 1363.65 172.369 1468.71 88.6286" stroke="url(#paint0_linear_817_3721)" stroke-width="2" stroke-miterlimit="10"/>
<path d="M36.5409 57.582C83.0069 80.2982 124.896 111.371 160.115 149.248C163.483 152.92 166.851 156.693 170.244 160.567C225.27 224.581 223.093 263.248 274.751 300.066C297.268 316.177 322.765 327.651 349.756 333.821C369.09 338.222 388.919 340.061 408.733 339.29C423.55 338.706 438.253 336.455 452.566 332.58C468.515 328.48 483.677 321.772 497.438 312.727C522.761 296.015 540.486 273.453 567.759 245.143C588.302 223.836 610.653 204.35 634.56 186.902C647.221 177.533 662.01 166.239 679.102 154.667C724.835 123.622 783.356 89.893 853.575 78.2448C877.402 74.1793 901.612 72.8201 925.745 74.1933C929.442 74.3959 933.114 74.6997 936.735 75.0543C972.592 78.5234 1006.75 87.7153 1041.65 99.9205C1067.75 108.935 1092.44 120.178 1116.93 130.737C1127.19 135.245 1136.35 139.347 1144.63 143.196C1194.65 166.518 1207.64 179.027 1241.8 184.496C1267.75 188.649 1301.33 187.915 1343.95 173.127C1378.89 161.023 1420.27 139.22 1468.71 103.162" stroke="url(#paint1_linear_817_3721)" stroke-width="2" stroke-miterlimit="10"/>
<path d="M35.1989 67.1016C81.1836 88.9593 122.815 118.989 158.064 155.729C161.441 159.274 164.817 162.903 168.193 166.617C223.903 228.58 222.561 265.373 273.51 301.331C296.081 317.652 321.659 329.348 348.769 335.743C368.217 340.173 388.176 341.945 408.1 341.01C422.939 340.254 437.632 337.703 451.857 333.414C467.727 328.827 482.807 321.851 496.577 312.726C522.913 295.507 541.601 273.679 568.569 247.243C589.209 227.178 611.818 209.244 636.054 193.712C648.715 185.406 663.175 175.227 680.09 165.149C725.165 138.282 780.115 110.098 849.625 100.907C873.64 97.5978 897.909 96.5128 922.124 97.6653C925.872 97.8679 929.569 98.1211 933.215 98.4503C969.68 101.641 1002.98 109.516 1038.58 120.379C1065.4 128.584 1089.86 139.624 1114.55 150.031C1124.81 154.336 1134.07 158.261 1142.56 161.933C1192.72 183.735 1206.17 195.231 1240.2 199.283C1266.13 202.372 1299.46 200.675 1342.3 185.71C1377.3 173.454 1419.21 152.057 1468.71 117.746" stroke="url(#paint2_linear_817_3721)" stroke-width="2" stroke-miterlimit="10"/>
<path d="M33.6028 76.4727C79.2115 97.5028 120.673 126.552 156.012 162.239C159.38 165.682 162.773 169.177 166.141 172.747C222.586 232.634 221.952 267.604 272.218 302.599C296.021 319.159 319.47 331.086 347.705 337.695C367.283 342.162 387.39 343.866 407.441 342.76C422.308 341.825 436.991 338.965 451.122 334.251C466.921 329.181 481.938 321.937 495.741 312.728C523.038 295.002 542.664 273.96 569.354 249.422C590.109 230.588 612.995 214.245 637.547 200.728C650.335 193.486 664.364 184.421 681.077 175.836C725.721 152.895 776.872 130.434 845.674 123.648C869.878 121.106 894.233 120.302 918.553 121.242C922.326 121.419 926.149 121.647 929.695 121.951C965.472 124.881 1000.88 131.25 1035.44 140.968C1062.97 148.337 1087.23 159.276 1112.22 169.405C1122.48 173.558 1131.82 177.28 1140.53 180.774C1190.82 201.032 1204.75 211.465 1238.63 214.174C1264.56 216.251 1297.71 213.516 1340.71 198.373C1375.78 186.117 1418.14 164.872 1468.71 132.181" stroke="url(#paint3_linear_817_3721)" stroke-width="2" stroke-miterlimit="10"/>
<path d="M32.1345 85.9178C77.3025 106.13 118.545 134.162 153.962 168.721C157.33 172.063 160.748 175.406 164.091 178.85C221.143 236.761 221.396 269.68 270.952 303.89C295.287 320.628 317.951 332.884 346.692 339.645C366.383 344.155 386.624 345.784 406.783 344.481C421.718 343.398 436.429 340.236 450.49 335.087C466.183 329.574 481.121 322.113 494.956 312.88C523.216 294.622 543.905 274.441 570.215 251.575C588.776 235.47 610.731 221.391 639.118 207.717C652.007 201.488 665.732 193.511 682.166 186.446C726.633 167.328 773.733 150.742 841.699 146.362C866.057 144.565 890.493 144.033 914.907 144.766C918.73 144.918 922.503 145.121 926.124 145.374C961.968 147.724 997.547 153.112 1032.48 161.479C1060.76 168.012 1084.67 178.875 1109.92 188.649C1120.05 192.65 1129.64 196.246 1138.56 199.513C1188.95 218.352 1203.36 227.595 1237.14 228.937C1263.07 229.975 1295.99 226.253 1339.16 210.958C1374.23 198.525 1417.1 177.66 1468.71 146.64" stroke="url(#paint4_linear_817_3721)" stroke-width="2" stroke-miterlimit="10"/>
<path d="M30.691 95.3631C75.4079 114.772 116.422 141.785 151.91 175.204C155.278 178.419 158.697 181.61 162.04 184.902C219.775 240.61 220.813 271.883 269.635 305.131C294.502 322.072 316.381 334.657 345.603 341.57C365.425 346.119 385.817 347.672 406.099 346.178C421.037 344.938 435.708 341.482 449.629 335.923C465.228 329.944 480.102 322.222 493.969 312.905C523.216 294.167 544.994 274.922 570.873 253.727C589.992 238.129 612.428 225.873 640.485 214.681C653.526 209.464 666.947 202.627 683.027 196.955C727.671 181.509 770.441 170.949 837.698 168.924C861.071 168.215 886.925 167.328 911.26 168.164C915.135 168.291 918.857 168.468 922.554 168.67C958.407 170.438 994.081 174.84 1029.29 181.838C1058.28 187.535 1082.01 198.323 1107.54 207.894C1117.79 211.743 1127.34 215.061 1136.48 218.2C1186.97 235.749 1201.94 244.358 1235.49 243.826C1261.42 243.421 1294.14 239.091 1337.47 223.569C1372.56 210.908 1415.97 190.473 1468.61 161.15" stroke="url(#paint5_linear_817_3721)" stroke-width="2" stroke-miterlimit="10"/>
<path d="M29.2224 104.781C73.4964 123.405 114.288 149.409 149.859 181.684C153.227 184.774 156.671 187.838 159.988 190.978C218.433 244.66 220.256 274.009 268.344 306.396C293.667 323.488 314.811 336.428 344.565 343.518C364.48 348.077 384.976 349.555 405.339 347.898C420.327 346.486 434.999 342.726 448.818 336.757C464.29 330.286 479.091 322.314 493.006 312.954C523.216 293.684 546.184 275.275 571.506 255.853C591.207 240.659 614.15 230.379 641.827 221.643C655.071 217.439 669.48 215.008 683.863 207.69C730.533 205.74 767.25 187.432 833.57 191.737C856.994 193.282 883.253 191.13 907.487 191.737C911.412 191.864 915.21 191.99 918.857 192.168C957.904 194.016 987.785 196.169 1026.07 202.297C1055.78 207.133 1079.25 217.87 1105.05 227.137C1115.18 230.835 1124.93 233.974 1134.3 236.937C1184.82 252.941 1200.32 259.727 1233.82 258.461C1259.78 257.423 1292.29 251.7 1335.77 236.051C1370.92 223.39 1414.78 203.132 1468.51 175.506" stroke="url(#paint6_linear_817_3721)" stroke-width="2" stroke-miterlimit="10"/>
<path d="M27.7533 114.227C71.5793 132.065 112.147 157.042 147.808 188.142C151.201 191.13 154.645 194.042 157.937 197.03C217.217 248.636 219.8 276.111 267.153 307.662C293.109 324.932 313.367 338.2 343.602 345.468C363.69 350.084 384.384 351.478 404.908 349.595C421.596 348.203 435.296 343.189 448.311 337.567C463.668 330.618 478.416 322.393 492.398 312.98C523.57 293.203 547.829 275.756 572.57 257.98C592.828 243.369 616.378 234.937 643.473 228.581C656.995 225.416 671.075 224.681 685.027 218.3C731.697 221.896 764.11 211.843 829.771 214.401C853.322 215.338 879.885 214.781 904.043 215.312C907.993 215.312 911.842 215.49 915.463 215.616C955.169 217.11 984.189 217.87 1023.16 222.96C1053.55 226.96 1076.79 237.621 1102.88 246.61C1113.01 250.155 1122.83 253.093 1132.43 255.878C1183.07 270.514 1199.05 276.136 1232.43 273.426C1258.38 271.375 1290.67 264.665 1334.32 248.839C1369.5 236.178 1413.86 216.123 1468.66 190.193" stroke="url(#paint7_linear_817_3721)" stroke-width="2" stroke-miterlimit="10"/>
<path d="M26.3103 123.648C69.6682 140.729 109.998 164.668 145.757 194.55C149.15 197.437 152.62 200.222 156.038 203.033C215.926 252.563 219.345 278.138 265.888 308.829C292.375 326.276 311.848 339.899 342.59 347.293C362.774 351.961 383.585 353.295 404.2 351.243C421.115 349.699 434.587 344.28 447.527 338.329C463.506 330.986 476.648 322.376 491.462 313.007C523.621 292.749 552.717 280.569 573.304 260.109C596.627 250.158 618.429 231.166 644.993 235.547C658.819 237.826 672.594 234.331 686.066 228.912C732.761 238.028 761.046 232.28 825.872 237.091C849.524 238.839 876.518 238.433 900.473 238.813C904.499 238.813 908.348 238.813 911.995 239.041C952.308 240.181 980.492 239.472 1020.12 243.472C1051.29 246.587 1074.24 257.197 1100.57 265.908C1110.7 269.301 1120.63 272.061 1130.43 274.644C1181.07 287.938 1197.68 292.217 1230.93 288.242C1256.91 285.127 1289 277.429 1332.78 261.426C1368 248.613 1412.75 228.912 1468.71 204.679" stroke="url(#paint8_linear_817_3721)" stroke-width="2" stroke-miterlimit="10"/>
<path d="M24.8418 133.066C67.7566 149.424 107.859 172.372 143.706 201.082C147.099 203.842 150.569 206.374 154.013 209.134C214.787 256.587 218.762 280.264 264.622 310.118C291.666 327.717 310.329 341.695 341.552 349.266C361.863 353.956 382.815 355.214 403.542 352.989C420.685 351.292 433.929 345.392 446.818 339.188C462.493 331.591 475.483 322.577 490.601 313.03C523.723 292.216 554.338 281.479 574.166 262.209C598.298 253.346 621.468 235.57 646.563 242.483C660.288 246.256 674.139 244.002 687.079 239.52C733.799 254.157 757.983 252.764 821.947 259.778C845.7 262.31 872.897 262.108 896.902 262.31H908.475C949.447 263.07 976.846 260.968 1017.08 263.83C1048.99 266.083 1071.65 276.668 1098.27 285.075C1108.4 288.316 1118.4 290.874 1128.43 293.254C1179.07 305.257 1196.29 308.219 1229.41 302.927C1255.39 298.749 1287.28 290.063 1331.21 273.908C1366.46 260.968 1411.81 241.597 1468.74 219.035" stroke="url(#paint9_linear_817_3721)" stroke-width="2" stroke-miterlimit="10"/>
<path d="M23.3726 142.461C65.7929 158.124 105.628 180.051 141.553 207.513C144.972 210.046 148.441 212.578 151.885 215.11C213.318 260.462 218.154 282.239 263.304 311.334C290.906 329.059 308.885 343.417 340.488 351.14C360.912 355.89 382.003 357.081 402.832 354.66C420.229 352.811 433.219 346.582 446.033 339.973C461.403 331.971 474.267 322.729 489.689 313.03C523.798 291.709 555.907 282.365 574.823 264.311C599.792 256.512 622.936 253.726 647.93 249.396C662.262 252.131 675.481 253.625 687.99 250.105C734.711 270.363 754.741 273.249 817.895 282.391C841.749 285.86 869.3 286.037 893.205 285.759C897.307 285.759 901.232 285.759 904.853 285.759C946.484 285.227 972.971 282.593 1013.92 284.366C1046.58 285.759 1068.94 296.293 1095.86 304.421C1105.99 307.485 1116.12 309.891 1126.25 312.018C1176.89 322.729 1194.62 324.324 1227.69 317.715C1253.7 312.499 1285.35 302.826 1329.49 286.493C1364.76 273.452 1410.52 254.385 1468.59 233.494" stroke="url(#paint10_linear_817_3721)" stroke-width="2" stroke-miterlimit="10"/>
<path d="M21.9296 151.883C63.9315 166.841 103.569 187.751 139.629 213.973C143.022 216.505 146.517 218.86 149.961 221.24C212.204 264.465 217.749 284.368 262.089 312.577C290.248 330.505 307.29 345.191 339.501 353.092C360.1 357.898 381.39 359.004 402.377 356.359C420.103 354.358 432.891 347.749 445.425 340.811C460.619 332.48 473.28 322.933 488.955 312.956C524.001 291.129 557.655 283.178 575.71 266.339C601.489 259.628 624.988 258.742 649.526 256.21C664.035 260.261 677.051 263.148 689.105 260.565C735.825 286.267 751.728 293.661 814.047 304.929C838.002 309.259 865.882 309.563 889.711 309.133C893.864 309.133 897.789 309.133 901.435 309.133C943.673 308.196 969.35 304.068 1010.96 304.803C1044.33 305.335 1066.44 315.843 1093.63 323.668C1103.76 326.605 1113.89 328.732 1124.4 330.783C1175.05 340.254 1193.48 340.456 1226.32 332.53C1252.33 326.251 1283.78 315.615 1328.07 299.105C1363.37 285.963 1409.74 267.2 1468.76 248.005" stroke="url(#paint11_linear_817_3721)" stroke-width="2" stroke-miterlimit="10"/>
<path d="M20.4607 161.277C62.0115 175.569 101.415 195.471 137.578 220.43C140.996 222.962 144.491 225.038 147.935 227.292C211.013 268.364 217.268 286.394 260.823 313.817C289.539 331.872 305.771 346.913 338.488 354.991C359.163 359.827 380.545 360.865 401.592 358.055C419.317 355.877 432.181 348.889 444.64 341.596C459.428 332.936 471.988 323.085 488.043 313.083C524.077 290.724 559.225 284.191 576.444 268.542C603.058 262.895 626.811 263.756 650.969 263.3C665.631 268.643 678.469 272.948 690.042 271.302C736.787 302.549 748.537 314.349 810.045 327.745C834.102 332.961 862.311 333.012 886.013 332.809C890.217 332.809 894.167 332.809 897.814 332.809C940.71 331.467 965.552 327.01 1007.82 325.567C1041.9 324.402 1063.75 335.696 1091.23 343.292C1101.46 346.051 1111.83 348.248 1122.3 349.876C1172.94 358.131 1191.99 356.916 1224.7 347.673C1250.74 340.33 1281.96 328.732 1326.4 312.045C1361.85 298.802 1408.6 280.316 1468.69 262.819" stroke="url(#paint12_linear_817_3721)" stroke-width="2" stroke-miterlimit="10"/>
<path d="M18.9919 165.25C60.097 178.933 99.2652 197.861 135.527 221.566C138.945 223.845 142.465 225.922 145.934 228.023C209.823 266.943 216.838 283.099 259.557 309.712C288.83 327.944 304.251 343.34 337.449 351.57C358.25 356.454 379.778 357.424 400.933 354.431C419.013 352.076 431.599 344.733 443.982 337.086C458.39 327.919 470.748 317.79 487.182 307.661C524.178 284.871 560.871 279.63 577.229 265.222C604.654 260.638 628.685 263.322 652.463 264.791C667.277 271.451 679.912 277.148 691.029 276.465C737.8 313.232 745.422 329.641 806.07 344.834C830.253 350.937 858.792 351.063 882.443 350.684L894.294 350.456C937.849 349.696 961.829 341.846 1004.75 340.327C1039.62 339.061 1061.14 349.569 1088.9 356.786C1099.24 359.402 1109.72 361.423 1120.3 362.838C1170.82 369.878 1190.59 367.194 1223.16 356.66C1249.22 348.253 1280.24 335.693 1324.83 318.828C1360.28 305.484 1407.56 287.302 1468.71 271.501" stroke="url(#paint13_linear_817_3721)" stroke-width="2" stroke-miterlimit="10"/>
<path d="M17.4728 166.848C58.1175 179.835 97.0424 197.69 133.4 220.024C136.844 222.202 140.363 224.126 143.833 226.076C208.659 262.894 216.281 277.277 258.291 303.004C288.146 321.363 302.732 337.139 336.437 345.546C357.371 350.437 379.045 351.296 400.3 348.078C418.583 345.546 431.017 337.949 443.222 329.846C457.377 320.553 469.659 310.069 486.271 299.763C524.254 276.391 562.441 272.618 577.964 259.425C606.224 255.905 631.42 256.462 653.932 263.831C670.062 269.124 681.356 279.024 691.916 279.024C738.686 321.312 742.156 342.33 801.993 359.574C826.252 366.613 855.171 366.791 878.695 366.259C883 366.259 887.001 366.056 890.622 365.955C934.836 364.79 957.955 355.497 1001.56 352.864C1037.14 350.711 1058.41 361.22 1086.44 368.057C1096.88 370.563 1107.47 372.407 1118.15 373.577C1168.64 379.452 1189.05 375.274 1221.49 363.448C1247.54 353.952 1278.36 340.43 1323.11 323.414C1358.56 309.968 1406.37 292.091 1468.59 277.834" stroke="url(#paint14_linear_817_3721)" stroke-width="2" stroke-miterlimit="10"/>
<path d="M16.0797 168.391C56.2806 180.763 94.9698 197.597 131.424 218.579C134.893 220.63 138.439 222.403 141.883 224.226C207.519 258.765 215.825 271.224 257.025 296.292C287.412 314.778 301.187 330.933 335.525 339.492C356.568 344.529 378.394 345.389 399.768 342.024C418.304 339.315 430.56 331.262 442.614 322.931C456.491 313.334 468.62 302.496 485.663 292.038C524.583 268.16 564.289 265.805 579.002 253.802C608.047 251.27 633.749 254.081 655.628 263.045C672.062 269.78 683.027 280.77 693.207 282.011C739.978 329.844 739.294 355.445 798.346 374.639C822.707 382.615 851.904 382.818 875.403 382.236L887.406 381.83C932.252 380.286 954.536 369.524 998.826 365.827C1035.16 362.763 1056.13 373.423 1084.47 379.881C1095.01 382.298 1105.7 383.99 1116.47 384.945C1166.92 389.68 1187.99 383.983 1220.3 370.866C1246.35 360.307 1276.94 345.822 1321.87 328.629C1369.42 309.71 1418.56 295.067 1468.71 284.872" stroke="url(#paint15_linear_817_3721)" stroke-width="2" stroke-miterlimit="10"/>
<path d="M14.6112 168.898C54.3767 180.715 92.8304 196.565 129.373 216.2C132.868 218.124 136.413 219.77 139.857 221.442C206.379 253.778 215.344 264.489 255.759 288.697C286.753 307.309 299.668 323.844 334.385 332.58C355.561 337.639 377.54 338.38 399.009 334.758C417.747 331.871 429.852 323.464 441.779 314.779C455.352 304.878 467.329 293.711 484.624 283.101C524.533 258.716 565.657 257.779 579.61 246.966C609.49 245.599 635.598 250.511 656.945 261.02C673.658 269.25 684.319 281.506 694.017 283.658C740.814 337.011 735.952 367.221 794.194 388.365C818.655 397.278 848.207 397.481 871.605 396.696C875.986 396.544 880.063 396.341 883.684 396.189C929.264 394.239 950.611 382.059 995.534 377.274C1032.58 373.323 1053.29 383.883 1081.91 390.137C1092.56 392.411 1103.36 393.901 1114.22 394.594C1164.64 398.215 1186.34 390.948 1218.52 376.565C1244.58 364.916 1274.97 349.495 1320.04 332.099C1368.02 313.078 1417.84 299.118 1468.71 290.444" stroke="url(#paint16_linear_817_3721)" stroke-width="2" stroke-miterlimit="10"/>
<path d="M13.1422 167.453C52.4797 178.705 90.7003 193.547 127.322 211.792C130.816 213.59 134.387 215.109 137.831 216.654C205.265 246.711 214.989 255.523 254.492 279.073C286.069 297.811 298.148 314.752 333.372 323.614C354.665 328.732 376.785 329.404 398.35 325.589C417.317 322.5 429.269 313.764 441.044 304.724C454.338 294.595 466.164 283.023 483.763 272.261C524.634 247.37 567.328 247.8 580.394 238.228C611.085 237.924 637.548 245.065 658.439 257.119C675.354 266.893 685.787 280.314 695.03 283.403C741.826 342.302 732.761 377.095 790.243 400.163C814.755 410.039 844.687 410.292 868.009 409.33C872.415 409.152 876.517 408.924 880.138 408.747C926.301 406.418 946.813 392.744 992.393 386.894C1030.17 382.032 1050.64 392.617 1079.48 398.568C1090.24 400.707 1101.15 402.019 1112.12 402.493C1162.51 405.025 1184.82 396.162 1216.88 380.513C1242.94 367.852 1273.15 351.393 1318.37 333.844C1366.69 314.631 1417.14 301.276 1468.64 294.063" stroke="url(#paint17_linear_817_3721)" stroke-width="2" stroke-miterlimit="10"/>
<path d="M11.699 166.012C50.6055 176.744 88.5854 190.589 125.271 207.413C128.791 209.085 132.361 210.427 135.805 211.845C204.176 239.699 214.305 246.663 253.226 269.452C285.361 288.292 296.629 305.638 332.334 314.678C353.752 319.87 376.027 320.465 397.692 316.425C416.886 313.108 428.687 304.093 440.335 294.673C453.351 284.165 464.999 272.339 482.902 261.425C524.761 236.103 568.999 237.825 581.18 229.469C609.134 229.801 636.425 238.026 659.908 253.196C677 264.54 687.256 279.1 696.018 283.152C742.839 347.571 729.545 386.972 786.293 411.965C810.856 422.828 841.167 423.031 864.388 421.967C868.87 421.765 872.972 421.511 876.619 421.284C923.389 418.498 943.141 403.558 989.38 396.519C1027.85 390.77 1048.1 401.355 1077.22 407.002C1087.35 408.952 1098.04 409.256 1110.14 410.37C1160.33 415.004 1183.45 401.38 1215.38 384.44C1241.44 370.614 1271.45 353.294 1316.83 335.568C1365.54 316.165 1416.65 303.389 1468.76 297.585" stroke="url(#paint18_linear_817_3721)" stroke-width="2" stroke-miterlimit="10"/>
<path d="M10.2305 164.566C48.7248 174.792 86.4759 187.635 123.22 203.005C126.765 204.525 130.336 205.765 133.805 207.032C203.037 232.354 213.951 237.798 251.96 259.828C284.702 278.794 295.009 296.52 331.321 305.737C352.9 310.996 375.362 311.515 397.16 307.256C416.557 303.711 428.206 294.393 439.727 284.618C452.389 273.806 463.936 261.651 482.143 250.585C524.989 224.656 570.772 227.796 582.066 220.731C610.767 222.236 638.377 232.22 661.402 249.421C678.596 262.31 688.725 278.035 697.005 283.023C743.852 352.963 726.304 396.972 782.317 423.915C806.956 435.741 837.622 435.918 860.817 434.728C865.325 434.5 869.478 434.196 873.099 433.968C920.528 430.752 939.419 414.267 986.342 406.266C1025.57 399.606 1045.44 410.267 1074.97 415.559C1086 417.093 1097.09 418.039 1108.22 418.395C1158.48 421.661 1182.11 406.721 1213.94 388.515C1239.97 373.6 1269.8 355.343 1315.23 337.44C1364.31 317.886 1416.03 305.75 1468.69 301.432" stroke="url(#paint19_linear_817_3721)" stroke-width="2" stroke-miterlimit="10"/>
<path d="M8.76196 163.125C46.8615 172.87 84.3958 184.705 121.194 198.576C124.74 199.969 128.31 201.108 131.779 202.197C201.923 225.291 213.495 228.886 250.796 250.309C284.019 269.25 293.49 287.406 330.283 296.775C351.952 302.11 374.537 302.559 396.401 298.092C416.026 294.319 427.548 284.696 438.892 274.567C451.351 263.476 462.67 250.967 481.206 239.75C524.989 213.313 572.368 217.922 582.75 211.895C612.28 214.515 640.276 226.209 662.896 245.371C680.141 259.855 690.169 276.695 697.993 282.62C744.84 358.105 723.037 406.875 778.367 435.591C803.057 448.403 834.077 448.555 857.171 447.239C861.729 446.985 865.908 446.656 869.529 446.378C917.642 442.731 935.646 424.829 983.253 415.763C1023.21 408.167 1042.81 418.903 1072.57 423.866C1083.69 425.316 1094.9 426.086 1106.12 426.171C1156.46 428.07 1180.59 411.813 1212.3 392.315C1238.35 376.337 1268.01 357.117 1313.59 339.139C1363.06 319.41 1415.42 307.889 1468.61 305.03" stroke="url(#paint20_linear_817_3721)" stroke-width="2" stroke-miterlimit="10"/>
<path d="M7.34351 161.68C50.7212 172.695 89.642 183.912 119.168 194.193C122.764 195.459 126.335 196.422 129.778 197.434C200.859 218.097 213.065 220.022 249.453 240.482C283.36 259.625 292.096 278.187 329.295 287.733C351.083 293.132 373.814 293.505 395.767 288.822C415.62 284.796 427.015 274.92 438.208 264.411C450.363 253.016 461.53 240.178 480.37 228.809C525.141 201.866 574.064 207.867 583.56 203.157C613.899 206.921 642.235 220.303 664.415 241.343C681.685 257.422 692.751 274.388 699.031 282.263C757.273 355.52 719.77 416.749 774.442 447.287C799.157 461.113 830.607 461.215 853.6 459.771C858.209 459.493 862.387 459.113 866.034 458.809C914.729 454.732 931.873 435.411 980.188 425.308C1020.88 416.774 1040.2 427.561 1070.26 432.17C1081.46 433.832 1092.8 434.434 1104.12 433.968C1154.48 432.246 1179.17 416.901 1210.78 396.162C1236.81 379.07 1266.23 358.913 1312.07 340.681C1361.96 320.789 1414.99 309.876 1468.69 308.446" stroke="url(#paint21_linear_817_3721)" stroke-width="2" stroke-miterlimit="10"/>
<path d="M5.84924 160.238C49.708 170.924 88.3757 181.053 117.092 189.789C120.713 190.903 124.283 191.739 127.727 192.625C199.795 210.857 212.583 211.135 248.161 230.937C282.676 250.182 290.552 269.199 328.232 278.897C350.155 284.368 373.051 284.663 395.109 279.758C415.164 275.454 426.407 265.325 437.448 254.436C449.35 242.737 460.238 229.57 479.484 218.048C525.216 190.574 575.532 197.993 584.345 194.474C619.138 199.538 646.486 217.669 665.883 237.521C683.128 255.247 694.042 273.554 699.993 282.088C756.336 362.789 716.453 426.804 770.441 459.191C795.181 474.004 827.062 474.055 849.954 472.485C854.613 472.155 858.842 471.776 862.463 471.446C911.817 466.914 928.125 446.124 977.099 435.008C1018.5 425.563 1037.54 436.426 1067.88 440.68C1079.2 442.214 1090.64 442.63 1102.04 441.921C1152.43 439.211 1177.7 422.195 1209.21 400.165C1235.21 381.984 1264.46 360.89 1310.5 342.481C1346.18 328.225 1398.04 312.753 1468.71 312.095" stroke="url(#paint22_linear_817_3721)" stroke-width="2" stroke-miterlimit="10"/>
<path d="M4.38062 158.793C48.6952 169.226 87.1096 178.139 115.04 185.406C118.687 186.343 122.257 187.052 125.701 187.939C198.605 203.562 212.127 202.22 246.895 221.313C281.663 240.406 289.032 260.081 327.219 269.932C349.258 275.495 372.306 275.721 394.45 270.59C414.708 265.981 425.85 255.65 436.739 244.407C448.362 232.43 459.175 218.908 478.623 207.234C525.343 179.38 577.178 188.065 585.13 185.761C620.759 191.889 648.132 212.147 667.378 233.62C684.572 252.814 695.233 272.59 700.981 281.732C755.146 369.726 713.11 436.703 766.49 470.888C791.231 486.739 823.517 486.714 846.358 485.017C851.043 484.663 855.297 484.232 859.019 483.878C909.006 478.813 924.478 456.732 974.111 444.527C1016.25 434.171 1035.04 445.11 1065.65 449.009C1077.09 450.423 1088.63 450.661 1100.12 449.718C1150.53 445.996 1176.34 427.308 1207.76 404.012C1233.74 384.742 1262.81 362.712 1309.05 344.125C1344.78 329.768 1397.13 314.574 1468.86 315.663" stroke="url(#paint23_linear_817_3721)" stroke-width="2" stroke-miterlimit="10"/>
<path d="M2.93713 157.352C47.6822 167.48 85.8434 175.229 112.989 181.053C116.661 181.838 120.232 182.446 123.675 183.053C197.466 196.246 211.672 193.309 245.629 211.718C281.359 231.064 287.488 250.967 326.18 260.995C348.345 266.655 371.558 266.803 393.792 261.425C414.253 256.487 425.293 245.953 436.03 234.381C447.375 222.075 458.01 208.249 477.787 196.398C525.444 167.911 579.204 174.419 585.915 177.027C620.556 190.422 649.753 206.578 668.872 229.722C685.99 250.461 696.549 271.605 701.994 281.607C753.778 376.691 709.742 446.859 762.54 482.841C787.28 499.706 819.997 499.579 842.737 497.782C847.497 497.402 851.752 496.946 855.398 496.566C906.043 491.147 920.629 467.547 970.945 454.278C1013.79 442.985 1032.3 454.025 1063.22 457.57C1074.77 458.86 1086.43 458.92 1097.99 457.747C1148.43 453.037 1174.79 432.653 1206.09 408.091C1232.07 387.833 1260.97 364.739 1307.38 345.976C1343.14 331.517 1396.01 316.653 1468.79 319.413" stroke="url(#paint24_linear_817_3721)" stroke-width="2" stroke-miterlimit="10"/>
<path d="M1.46899 155.906C46.6699 165.858 84.5525 172.239 110.939 176.594C114.636 177.202 118.206 177.709 121.676 178.19C196.327 188.876 211.242 184.394 244.364 202.068C280.828 221.566 285.893 241.824 325.168 251.953C347.461 257.686 370.833 257.756 393.159 252.155C413.772 246.863 424.737 236.177 435.296 224.301C446.388 211.64 456.846 197.536 476.927 185.558C525.571 156.565 580.471 167.529 586.7 168.263C624.684 172.796 651.349 200.98 670.265 225.795C683.059 243.107 693.992 261.721 702.881 281.326C752.26 383.324 706.274 456.859 758.59 494.64C783.305 512.517 816.478 512.365 839.142 510.415C843.928 510.01 848.232 509.504 851.803 509.099C903.056 503.148 916.806 478.155 967.831 463.899C1011.36 451.643 1029.64 462.86 1060.84 466C1072.51 467.166 1084.27 467.039 1095.91 465.621C1146.41 459.923 1173.25 437.766 1204.5 412.014C1230.43 390.515 1259.14 366.637 1305.79 347.721C1341.59 333.161 1394.92 318.575 1468.79 323.032" stroke="url(#paint25_linear_817_3721)" stroke-width="2" stroke-miterlimit="10"/>
<path d="M0 154.465C45.5807 163.986 83.2355 169.202 108.887 172.19C193.769 182.066 209.317 174.722 243.097 192.448C280.068 211.87 284.449 232.735 324.13 243.092C346.547 248.921 370.083 248.921 392.501 243.092C434.992 231.444 436.157 198.474 476.065 174.722C525.672 145.197 582.066 158.187 587.485 159.529C659.705 177.255 693.384 256.538 703.969 281.075C750.892 389.757 702.956 466.863 754.614 506.441C784.596 529.409 827.746 524.167 848.308 521.635C900.194 515.304 913.109 488.868 964.792 473.523C1023.03 456.202 1035.87 481.119 1093.94 473.523C1186.57 461.292 1201.43 391.479 1304.12 349.445C1339.95 334.783 1393.78 320.501 1468.71 326.655" stroke="url(#paint26_linear_817_3721)" stroke-width="2" stroke-miterlimit="10"/>
<path d="M1.36743 157.629C46.1378 167.15 83.1595 172.822 108.811 175.962C191.439 186.395 207.57 179.507 241.147 197.258C277.435 216.503 282.271 236.76 320.964 247.193C342.913 252.992 365.954 253.287 388.044 248.054C429.978 238.153 431.599 205.994 470.9 183.154C519.443 154.742 574.14 166.568 580.471 167.606C639.7 177.203 672.366 235.57 688.446 266.716C691.738 273.072 694.119 278.542 696.043 282.492C744.156 385.376 698.727 459.468 749.626 496.843C780.013 519.101 823.517 513.505 844.94 511.1C864.572 508.945 883.601 503.011 900.979 493.627C918.705 484.739 935.291 474.712 962.564 468.052C970.92 466.026 978.365 464.912 985.05 463.95C1025.57 458.101 1041.19 472.509 1090.01 463.823C1108.9 460.508 1127.09 454.009 1143.8 444.604C1189.15 419.282 1217.51 373.702 1287.73 340.429C1291.85 338.471 1296.16 336.563 1300.65 334.706C1336.81 319.665 1391.45 304.699 1467.52 310.448" stroke="url(#paint27_linear_817_3721)" stroke-width="2" stroke-miterlimit="10"/>
<path d="M2.73486 160.797C46.5937 170.318 83.0836 176.218 108.761 179.712C189.084 190.677 205.721 184.296 239.198 202.097C274.826 220.937 280.094 241.017 317.698 251.273C339.196 257.056 361.758 257.663 383.537 253.045C424.838 244.765 427.041 213.644 465.708 191.563C513.214 164.443 566.467 173.179 573.406 175.686C628.204 195.311 663.757 239.624 680.318 268.973C683.686 274.949 686.015 280.19 687.915 283.887C737.142 381.099 694.397 452.001 744.485 487.249C775.126 508.773 819.111 502.847 841.395 500.543C861.181 498.512 880.466 493.072 898.396 484.464C916.401 476.437 933.24 467.751 960.183 462.611C968.565 460.99 976.061 460.382 982.746 459.42C1023.14 453.571 1038.08 464.94 1085.91 454.102C1104.58 449.8 1122.46 442.588 1138.89 432.731C1182.54 407.409 1212.32 360.234 1283.96 325.846C1288.14 323.871 1292.49 321.896 1297.02 319.971C1333.49 304.55 1388.95 288.901 1466.18 294.219" stroke="url(#paint28_linear_817_3721)" stroke-width="2" stroke-miterlimit="10"/>
<path d="M4.10229 163.961C47.0495 173.457 82.9823 179.711 108.634 183.586C186.678 195.006 203.872 189.207 237.197 207.008C272.142 225.544 277.865 245.245 314.558 255.45C335.594 261.182 357.659 262.048 379.08 257.982C419.596 251.271 422.508 221.189 460.543 199.969C507.01 174.039 558.567 180.674 566.391 183.712C609.904 201.151 646.895 231.725 672.215 271.175C675.658 276.771 677.963 281.785 679.811 285.254C730.102 376.59 690.092 444.58 739.294 477.701C770.289 498.516 814.68 492.211 837.824 490.059C857.77 488.113 877.305 483.152 895.763 475.346C914.096 468.18 931.214 460.862 957.752 457.191C966.21 456.026 973.731 455.899 980.416 454.937C1020.76 449.062 1034.89 457.469 1081.71 444.428C1100.12 439.116 1117.69 431.203 1133.87 420.929C1175.83 395.43 1207.16 346.913 1280.06 311.31C1284.26 309.284 1288.67 307.267 1293.28 305.258C1330.05 289.482 1386.34 273.15 1464.71 278.062" stroke="url(#paint29_linear_817_3721)" stroke-width="2" stroke-miterlimit="10"/>
<path d="M5.46936 167.102C47.5049 176.623 82.906 183.206 108.608 187.359C184.374 199.235 202.15 194.019 235.222 211.846C269.458 230.103 275.738 249.373 311.316 259.552C331.911 265.315 353.513 266.524 374.623 263.098C414.556 258.033 417.975 228.913 455.402 208.528C500.831 183.586 550.083 193.512 559.376 191.816C612.934 202.628 646.613 247.524 664.136 273.454C667.656 278.645 669.91 283.406 671.885 286.672C723.29 372.21 686.015 437.111 734.305 468.054C765.705 488.16 810.425 481.5 834.456 479.449C854.578 477.598 874.372 473.12 893.331 466.13C912.019 459.825 929.34 453.899 955.549 451.671C964.057 450.937 971.604 451.316 978.339 450.354C1018.63 444.48 1031.95 449.822 1077.91 434.68C1097.38 428.248 1113.36 419.031 1129.26 409.003C1169.58 383.453 1202.29 333.316 1276.59 296.675C1280.81 294.598 1285.27 292.53 1289.96 290.471C1327.06 274.29 1384.16 257.273 1463.67 261.781" stroke="url(#paint30_linear_817_3721)" stroke-width="2" stroke-miterlimit="10"/>
<path d="M6.81201 170.266C47.86 179.761 82.8052 186.674 108.634 190.979C182.07 203.286 200.302 198.778 233.374 216.504C266.901 234.533 273.561 253.347 308.253 263.476C328.368 269.235 349.464 270.736 370.192 267.882C409.366 264.135 413.468 236.306 450.262 216.782C494.627 193.258 542.082 202.298 552.413 199.842C604.375 209.667 638.029 251.448 656.084 275.656C659.68 280.467 661.908 285 663.934 288.039C716.428 367.727 681.964 429.564 729.292 458.405C761.097 477.802 806.171 470.763 831.038 468.864C856.361 466.939 874.213 461.697 890.876 456.937C909.918 451.493 927.644 443.592 953.296 446.15C960.879 446.967 968.534 446.839 976.086 445.77C1016.35 439.895 1028.81 442.301 1073.88 424.904C1092.75 417.637 1108.45 407.635 1124.53 397.05C1163.19 371.525 1197.3 319.843 1272.97 282.012C1277.24 279.885 1281.75 277.758 1286.49 275.631C1323.89 259.095 1381.81 241.395 1462.48 245.472" stroke="url(#paint31_linear_817_3721)" stroke-width="2" stroke-miterlimit="10"/>
<path d="M8.17944 173.457C48.4171 182.953 82.7292 190.195 108.457 194.778C179.69 207.439 198.504 203.59 231.424 221.366C264.343 239.142 271.408 257.476 305.062 267.63C334.386 276.467 358.822 274.568 365.836 272.922C403.238 264.059 409.011 243.928 445.197 225.266C488.499 202.932 534.206 211.162 545.5 207.971C595.842 216.834 629.445 255.399 648.108 277.936C651.754 282.367 653.957 286.672 656.008 289.508C709.591 363.347 678.014 422.044 724.379 448.885C756.64 467.573 801.993 460.154 827.746 458.381C853.499 456.608 871.554 451.848 888.521 447.822C907.892 443.238 926.226 436.376 951.143 440.757C958.663 442.148 966.357 442.327 973.934 441.289C1014.15 435.414 1025.77 434.882 1069.93 415.257C1088.21 407.154 1103.56 396.342 1119.67 385.301C1156.71 359.979 1192.24 306.55 1269.25 267.529C1273.55 265.351 1278.11 263.173 1282.92 260.995C1320.65 244.08 1379.37 225.696 1461.19 229.343" stroke="url(#paint32_linear_817_3721)" stroke-width="2" stroke-miterlimit="10"/>
<path d="M9.54688 176.547C48.8729 186.119 82.628 193.715 108.381 198.476C177.335 211.441 196.706 208.326 229.474 226.102C261.634 243.574 269.23 261.553 301.897 271.682C330.41 280.519 354.163 279.43 361.278 277.86C397.945 269.707 404.327 251.475 439.93 233.673C482.168 212.504 526.027 219.974 538.385 215.948C587.131 223.823 620.607 258.996 639.903 280.089C642.751 283.52 645.422 287.096 647.905 290.8C702.526 358.79 673.911 414.321 719.163 439.187C751.905 457.141 797.536 449.316 824.151 447.721C849.752 446.151 868.566 441.821 885.862 438.554C905.588 434.832 924.529 429.185 948.687 435.187C956.166 437.167 963.959 437.666 971.629 436.655C1011.82 430.755 1022.58 427.337 1065.86 405.433C1083.58 396.494 1098.52 384.922 1114.75 373.325C1150.2 348.003 1187.13 293.054 1265.47 252.842C1269.81 250.614 1274.42 248.386 1279.3 246.157C1317.28 228.862 1376.87 209.795 1459.85 213.036" stroke="url(#paint33_linear_817_3721)" stroke-width="2" stroke-miterlimit="10"/>
<path d="M10.9138 179.66C49.3282 189.181 82.5262 197.031 108.33 202.197C174.979 215.516 194.908 213.11 227.65 230.887C259.126 248.08 267.179 265.603 298.832 275.681C326.687 284.519 349.629 284.24 356.947 282.746C392.906 275.377 399.996 258.969 434.891 242.003C476.065 222.024 518.227 228.709 531.496 223.999C578.622 230.887 611.921 262.919 631.951 282.24C634.825 285.388 637.522 288.693 640.029 292.141C695.739 354.256 670.087 406.571 714.224 429.513C747.448 446.757 793.332 438.578 820.807 437.109C846.636 435.691 865.882 431.817 883.481 429.31C904.4 426.433 925.621 426.544 946.509 429.639C955.422 430.779 962.918 433.007 969.527 432.172C1009.66 426.246 1019.56 419.992 1061.95 395.784C1079.02 386.035 1093.68 373.627 1110.07 361.523C1143.97 336.404 1182.21 279.707 1262 238.306C1266.36 236.052 1271.04 233.748 1276.01 231.444C1314.35 213.718 1374.77 194.018 1458.81 196.854" stroke="url(#paint34_linear_817_3721)" stroke-width="2" stroke-miterlimit="10"/>
<path d="M12.4082 184.014C49.911 193.51 82.5772 201.739 108.381 207.133C172.65 220.731 193.136 219.034 225.574 236.886C256.392 253.802 264.875 270.894 295.541 280.947C322.484 289.784 344.818 290.291 352.339 288.898C387.639 282.39 395.261 267.703 429.624 251.599C469.71 232.81 510.124 238.71 524.356 233.265C569.936 239.165 602.856 267.855 623.722 285.733C626.623 288.592 629.354 291.619 631.901 294.798C688.497 351.038 666.061 400.113 709.034 421.155C742.789 437.691 788.876 429.157 817.237 427.815C843.244 426.574 862.945 423.156 880.848 421.408C901.258 419.408 920.275 421.105 944.154 425.435C953.195 427.081 960.665 429.739 967.249 428.777C1007.33 422.852 1016.4 413.761 1057.9 387.198C1074.36 376.639 1088.67 363.446 1105.18 350.785C1137.57 325.919 1177.12 267.476 1258.15 224.858C1262.56 222.529 1267.27 220.199 1272.31 217.819C1310.95 199.79 1372.11 179.355 1457.39 181.76" stroke="url(#paint35_linear_817_3721)" stroke-width="2" stroke-miterlimit="10"/>
<path d="M13.6492 194.981C50.2404 204.477 82.3495 212.96 108.179 218.708C170.295 232.559 191.338 231.698 223.624 249.424C253.758 266.061 262.697 282.748 292.375 292.75C318.508 301.587 340.134 302.879 347.883 301.587C382.524 295.991 390.703 282.976 424.458 267.732C463.455 250.006 502.123 255.273 517.342 249.044C561.251 254.109 591.41 283.381 615.644 295.713C618.86 299.156 621.646 301.942 623.874 303.917C681.432 354.257 662.212 400.141 703.969 419.284C738.282 435.06 784.571 426.172 813.794 424.982C839.977 423.918 860.134 420.956 878.341 419.917C899.106 418.778 918.477 422.146 941.774 427.641C950.941 429.793 958.386 432.882 964.944 431.895C1005 425.969 1013.21 414.169 1053.8 385.15C1069.68 373.831 1083.63 359.828 1100.27 346.585C1131.16 321.997 1172.01 261.756 1254.38 217.949C1258.82 215.602 1263.59 213.205 1268.69 210.757C1307.66 192.475 1369.7 171.356 1456.05 173.458" stroke="url(#paint36_linear_817_3721)" stroke-width="2" stroke-miterlimit="10"/>
<path d="M14.9407 204.856C50.6962 214.352 82.2482 223.113 108.103 229.165C167.965 243.245 189.667 243.245 221.675 261.071C251.125 277.404 260.52 293.686 289.185 303.663C314.507 312.475 335.424 314.45 343.426 313.361C377.434 308.727 386.145 297.358 419.394 282.975C457.378 266.515 494.222 270.896 510.429 263.933C552.717 267.883 582.573 294.496 607.642 304.752C610.269 307.372 613.051 309.833 615.973 312.121C674.418 356.611 658.49 399.051 699.006 416.498C733.901 431.514 780.342 422.272 810.426 421.259C836.812 420.347 857.425 417.84 875.91 417.612C897.029 417.334 916.781 422.423 939.571 429.033C948.839 431.717 956.284 435.211 962.843 434.097C1002.83 428.146 1010.22 413.535 1049.9 382.161C1065.1 370.083 1078.79 355.295 1095.48 341.469C1124.88 317.21 1166.99 255.121 1250.71 210.098C1255.17 207.566 1260 205.236 1265.17 202.755C1304.44 183.94 1367.22 162.239 1454.81 163.733" stroke="url(#paint37_linear_817_3721)" stroke-width="2" stroke-miterlimit="10"/>
<path d="M16.3582 214.733C51.1768 224.229 82.197 233.269 108.026 239.675C165.635 253.906 187.742 254.742 219.724 272.594C248.491 288.648 258.341 304.525 286.019 314.451C310.582 323.263 330.739 323.998 338.968 325.036C372.268 329.29 381.586 311.615 414.126 298.119C450.97 282.925 486.118 286.445 503.312 278.722C544.006 281.685 573.507 305.538 599.538 313.717C602.191 316.08 605 318.263 607.945 320.25C667.251 358.866 654.666 397.888 694.042 413.613C729.494 427.844 776.113 418.297 807.082 417.411C833.671 416.677 854.714 414.651 873.504 415.157C894.977 415.74 915.058 422.602 937.367 430.35C946.762 433.566 954.156 437.441 960.715 436.478C1000.67 430.502 1007.26 413.157 1045.98 379.352C1060.69 366.514 1073.96 350.915 1090.82 336.507C1118.68 312.603 1162.13 248.639 1247.19 202.3C1251.7 199.869 1256.57 197.337 1261.8 194.703C1301.38 175.509 1364.99 153.023 1453.72 154.188" stroke="url(#paint38_linear_817_3721)" stroke-width="2" stroke-miterlimit="10"/>
<path d="M17.7261 224.633C51.6331 234.23 82.0709 243.422 107.951 250.158C163.306 264.541 185.944 266.263 217.775 284.14C245.858 299.89 256.164 315.261 282.829 325.39C306.607 334.202 326.08 335.518 334.487 336.861C366.95 341.925 377.004 326.023 408.961 313.387C444.716 299.232 478.142 302.119 496.298 293.636C535.371 295.636 564.67 316.679 591.36 322.807C594.038 324.919 596.874 326.824 599.843 328.504C659.959 361.271 650.868 396.874 688.776 410.877C724.911 424.272 771.606 414.422 803.411 413.713C830.203 413.131 851.702 411.586 870.795 412.852C892.623 414.295 913.033 422.981 934.861 431.666C944.357 435.465 951.751 439.719 958.284 438.731C998.193 432.755 1004.02 412.7 1041.85 376.439C1055.98 362.841 1068.89 346.458 1085.86 331.442C1112.4 307.917 1156.97 242.055 1243.37 194.702C1247.91 192.187 1252.83 189.655 1258.13 187.106C1298.04 167.557 1362.43 144.387 1452.33 145.147" stroke="url(#paint39_linear_817_3721)" stroke-width="2" stroke-miterlimit="10"/>
<path d="M19.0935 234.506C52.0129 243.976 81.9696 253.548 107.875 260.638C161.052 275.123 184.146 277.807 215.825 295.659C243.249 311.13 253.986 326.222 279.663 336.174C302.631 344.986 321.42 346.885 330.03 348.531C361.633 354.533 372.445 340.251 403.795 328.501C438.462 315.511 470.14 317.638 489.284 308.396C526.762 309.409 555.629 327.691 583.282 331.743C585.993 333.594 588.856 335.212 591.841 336.579C652.615 363.598 647.145 395.504 683.711 407.962C720.277 420.421 767.276 410.494 799.967 409.861C826.936 409.431 848.891 408.342 868.338 410.368C890.496 412.672 911.235 423.029 932.607 432.904C942.205 437.285 949.599 441.868 956.107 440.906C995.965 434.905 1001.05 412.191 1037.8 373.423C1051.4 359.091 1063.96 341.922 1081.02 326.273C1106.14 303.205 1151.93 235.392 1239.64 186.723C1244.2 184.191 1249.19 181.659 1254.56 178.899C1294.72 158.869 1359.95 135.015 1450.99 135.471" stroke="url(#paint40_linear_817_3721)" stroke-width="2" stroke-miterlimit="10"/>
<path d="M20.4607 244.357C52.5445 253.827 81.8934 263.652 107.824 271.072C158.672 285.657 182.348 289.278 213.875 307.156C240.616 322.349 251.859 337.01 276.472 346.835C298.68 355.647 316.786 358.129 325.573 360.079C356.34 366.89 367.862 354.381 398.654 343.493C432.207 331.642 462.138 333.06 482.219 323.058C518.076 323.058 546.614 338.58 575.128 340.556C577.892 342.146 580.79 343.494 583.788 344.582C645.474 365.903 643.448 394.061 678.646 405C716.099 416.623 762.945 406.317 796.523 405.962C823.669 405.659 846.08 405.051 865.781 407.836C888.292 411.002 909.31 423.308 930.252 434.07C939.951 439.134 947.319 443.971 953.827 442.983C993.66 437.007 998.015 411.609 1033.75 370.334C1046.79 355.268 1059.07 337.416 1076.14 321.032C1099.89 298.42 1146.84 228.657 1235.9 178.773C1240.5 176.19 1245.53 173.523 1250.96 170.771C1291.48 150.513 1357.52 125.951 1449.72 125.875" stroke="url(#paint41_linear_817_3721)" stroke-width="2" stroke-miterlimit="10"/>
<path d="M21.8281 254.283C53.0003 263.753 81.7921 273.806 107.748 281.605C156.367 296.242 180.576 300.85 211.925 318.778C237.982 333.642 249.63 347.924 273.307 357.698C288.807 363.776 304.803 368.504 321.116 371.828C351.048 379.425 363.278 368.688 393.488 358.686C425.927 347.975 454.263 348.557 475.255 337.896C509.491 336.959 537.726 349.671 567.1 349.595C569.909 350.917 572.833 351.977 575.837 352.76C638.08 368.359 639.802 392.693 673.582 402.138C711.743 412.799 758.641 402.949 793.054 402.138C820.403 401.505 843.244 401.885 863.274 405.405C886.064 409.431 907.436 423.612 927.948 435.336C937.722 440.907 945.116 446.174 951.599 445.186C991.381 439.185 995.053 411.153 1029.74 367.346C1042.23 351.57 1054.13 332.883 1071.32 315.892C1093.68 293.76 1141.8 222.023 1232.2 170.923C1236.83 168.39 1241.9 165.58 1247.39 162.769C1288.24 142.081 1355.09 116.86 1448.43 116.379" stroke="url(#paint42_linear_817_3721)" stroke-width="2" stroke-miterlimit="10"/>
<path d="M23.1954 264.184C53.5826 273.654 81.716 283.91 107.672 292.038C154.063 306.674 178.778 312.296 210 330.249C235.323 344.809 247.453 358.711 270.116 368.435C285.222 374.676 300.781 379.755 316.659 383.628C345.806 391.959 358.695 383.02 388.322 373.955C419.646 364.333 446.159 364.307 468.241 352.811C500.881 350.861 528.787 360.813 558.997 358.66C561.857 359.705 564.807 360.484 567.809 360.99C630.761 370.992 636.18 391.377 668.517 399.378C707.413 409.001 754.31 399.024 789.61 398.416C817.161 397.96 840.432 398.796 860.767 403.075C883.962 407.963 905.512 424.017 925.668 436.703C935.468 442.882 942.913 448.478 949.37 447.49C989.127 441.464 992.115 410.799 1025.72 364.459C1037.7 347.949 1049.27 328.527 1066.49 310.878C1087.56 289.253 1136.78 215.515 1228.55 163.174C1233.21 160.515 1238.35 157.73 1243.92 154.843C1285.1 133.8 1352.81 107.896 1447.24 106.984" stroke="url(#paint43_linear_817_3721)" stroke-width="2" stroke-miterlimit="10"/>
<path d="M24.5374 274.084C53.9116 283.53 81.6399 294.013 107.596 302.597C151.682 317.259 177.005 323.893 208.05 341.872C232.74 356.153 245.275 369.726 266.951 379.323C281.661 385.611 296.769 390.923 312.177 395.225C340.564 404.265 354.111 397.175 383.08 388.996C413.316 380.513 438.081 379.779 461.15 367.498C492.17 364.586 519.747 371.752 550.843 367.498C553.752 368.273 556.728 368.773 559.731 368.992C623.392 373.448 632.432 389.705 663.377 396.365C703.006 404.924 749.904 394.845 786.09 394.491C813.818 394.187 837.546 395.478 858.183 400.518C881.734 406.266 903.511 424.194 923.288 437.842C933.138 444.654 940.609 450.503 947.066 449.566C986.772 443.54 989.152 410.216 1021.64 361.344C1033.09 344.125 1044.43 323.994 1061.57 305.636C1081.43 284.542 1131.67 208.905 1224.8 155.223C1229.49 152.513 1234.68 149.677 1240.33 146.74C1281.81 125.343 1350.28 98.7291 1445.92 97.4883" stroke="url(#paint44_linear_817_3721)" stroke-width="2" stroke-miterlimit="10"/>
<path d="M25.9049 283.987C54.3675 293.458 81.6147 304.093 107.52 313.133C149.505 327.744 175.207 335.467 206.101 353.446C230.132 367.423 243.097 380.565 263.76 390.163C278.081 396.593 292.759 402.199 307.72 406.951C335.347 416.7 349.503 411.433 377.991 404.166C407.112 396.772 430.155 395.354 454.212 382.338C483.637 378.438 510.884 382.819 542.841 376.539C545.813 376.936 548.807 377.147 551.805 377.172C616.125 380.034 628.887 388.187 658.388 393.556C698.753 400.899 745.675 390.365 782.697 390.72C810.552 390.998 834.811 392.34 855.753 398.139C879.657 404.748 901.612 424.575 921.06 439.161C930.961 446.605 938.482 452.784 944.914 451.822C984.594 445.795 986.367 409.863 1017.69 358.459C1028.63 340.506 1039.65 319.666 1056.84 300.548C1075.33 279.986 1126.76 202.222 1221.11 147.425C1225.85 144.657 1231.08 141.778 1236.78 138.79C1278.56 116.963 1347.87 89.6908 1444.66 87.9689" stroke="url(#paint45_linear_817_3721)" stroke-width="2" stroke-miterlimit="10"/>
<path d="M27.2729 293.862C54.824 303.307 81.5393 314.12 107.444 323.59C147.252 338.125 173.41 346.937 204.151 364.967C227.499 378.641 240.895 391.403 260.596 400.949C278.828 409.812 293.515 414.876 303.264 418.675C330.157 429.082 344.92 425.664 372.826 419.358C398.068 413.562 422.91 406.145 447.198 397.151C473.837 387.782 501.642 378.463 534.738 385.528C537.743 385.946 540.796 385.878 543.779 385.326C608.959 378.894 625.241 386.592 653.324 390.719C694.448 396.746 741.346 386.364 779.254 386.921C807.387 387.326 832.001 389.175 853.246 395.708C877.48 403.304 899.637 424.929 918.756 440.452C928.683 448.529 936.279 455.012 942.711 454.024C982.316 447.972 983.531 409.407 1013.61 355.471C1024.05 336.783 1034.81 315.285 1051.93 295.432C1069.05 275.58 1121.74 195.765 1217.34 139.549C1222.1 136.789 1227.46 133.827 1233.16 130.763C1275.27 108.581 1345.37 80.625 1443.34 78.4727" stroke="url(#paint46_linear_817_3721)" stroke-width="2" stroke-miterlimit="10"/>
<path d="M28.6399 303.763C55.2793 313.208 81.4882 324.02 107.393 334.149C144.997 348.608 171.637 358.534 202.201 376.589C224.992 389.959 238.716 402.341 257.405 411.837C274.852 420.725 289.032 426.271 298.807 430.398C324.991 441.464 340.311 439.869 367.659 434.526C394.527 429.284 412.354 422.599 440.183 411.989C465.253 402.417 491.943 400.569 526.66 394.517C529.851 393.96 532.915 394.01 535.776 393.504C601.767 381.653 621.595 384.945 648.259 387.882C690.118 392.466 737.04 382.388 775.784 383.122C804.12 383.679 829.189 386.009 850.739 393.251C875.327 401.607 897.637 425.207 916.451 441.692C926.403 450.403 934.177 457.189 940.482 456.201C980.036 450.149 980.72 408.925 1009.66 352.381C1019.62 332.959 1030.15 310.853 1047.17 290.19C1063.2 270.743 1116.8 189.028 1213.71 131.598C1218.52 128.787 1223.84 125.774 1229.69 122.634C1272.11 100.097 1343.04 71.4579 1442.12 68.875" stroke="url(#paint47_linear_817_3721)" stroke-width="2" stroke-miterlimit="10"/>
<path d="M30.134 313.639C55.8618 323.084 81.5896 334.099 107.444 344.557C142.896 358.914 169.966 369.879 200.378 388.06C222.383 401.126 236.665 413.129 254.366 422.599C271.003 431.462 284.576 437.463 294.477 442.021C319.977 453.746 335.854 453.973 362.645 449.618C388.373 445.415 404.656 438.603 433.296 426.828C456.871 417.054 483.08 412.471 518.683 403.532C521.849 402.747 524.989 402.418 527.901 401.683C594.753 384.439 618.151 387.933 643.321 385.047C686.2 380.338 729.341 378.443 772.467 379.375C801.005 380.058 826.505 382.869 848.435 390.921C873.377 400.139 895.813 425.638 914.273 443.06C924.225 452.403 931.999 459.468 938.381 458.506C977.909 452.429 978.036 408.571 1005.79 349.621C1015.26 329.49 1025.62 306.776 1042.48 285.278C1057.3 266.413 1111.89 182.597 1210.14 123.976C1214.98 121.115 1220.27 118.051 1226.27 114.86C1269.02 91.9185 1340.73 62.5955 1440.98 59.6328" stroke="url(#paint48_linear_817_3721)" stroke-width="2" stroke-miterlimit="10"/>
<path d="M31.3748 320.753C56.1909 330.198 81.4376 341.289 107.343 352.279C140.667 366.485 168.117 378.715 198.504 396.821C219.851 409.482 234.564 421.231 251.276 430.625C267.103 439.514 280.094 445.971 290.071 450.883C314.963 463.24 331.321 465.291 357.556 461.924C382.169 458.758 396.983 451.947 426.357 438.678C448.489 428.676 474.318 421.459 510.681 409.558C513.847 408.519 516.987 407.836 519.975 406.848C587.738 384.261 614.605 382.134 638.333 379.247C681.707 373.91 725.407 371.684 769.099 372.587C797.815 373.423 823.77 376.715 845.902 385.527C871.225 395.656 893.762 422.978 912.045 441.235C921.972 451.212 929.771 458.606 936.228 457.619C975.706 451.516 975.352 405.025 1001.84 343.518C1010.83 322.627 1021.08 299.356 1037.72 277.022C1051.37 258.714 1106.93 172.821 1206.52 112.985C1211.38 110.073 1216.83 106.959 1222.8 103.718C1265.85 80.3959 1338.4 50.3893 1439.79 46.9961" stroke="url(#paint49_linear_817_3721)" stroke-width="2" stroke-miterlimit="10"/>
<path d="M32.6665 324.578C56.5711 334.023 81.3872 345.114 107.09 356.686C138.287 370.74 166.243 384.085 196.276 402.266C216.965 414.699 232.082 426.018 247.808 435.336C262.849 444.25 275.257 451.112 285.336 456.531C309.62 469.521 326.46 473.37 352.111 471.015C375.611 468.863 389.057 462.228 419.065 447.415C439.778 437.286 465.304 427.36 502.3 412.471C505.491 411.204 508.656 410.166 511.669 408.925C580.446 380.945 610.58 373.12 632.99 370.309C676.621 364.865 724 361.371 765.351 362.713C794.27 363.65 820.656 367.448 843.117 377.02C868.769 387.959 891.408 417.206 909.463 436.552C919.389 447.187 927.366 454.834 933.722 453.847C973.174 447.77 972.313 398.594 997.56 334.58C1006.07 312.955 1016.27 289.152 1032.61 265.932C1045.12 248.206 1101.61 160.237 1202.55 99.1859C1207.46 96.2485 1212.93 93.058 1218.98 89.7408C1262.36 66.0646 1335.69 35.3743 1438.25 31.5" stroke="url(#paint50_linear_817_3721)" stroke-width="2" stroke-miterlimit="10"/>
<path d="M34.0842 328.223C57.1025 337.643 81.5135 348.734 107.089 360.939C136.989 374.949 166.134 390.518 194.402 407.582C214.432 419.737 229.853 430.701 244.718 439.918C258.924 448.908 270.775 456.15 280.955 461.999C304.657 475.648 321.952 481.269 347.021 479.953C369.432 478.788 381.587 472.483 412.126 455.998C431.523 445.54 456.77 433.081 494.298 415.229C497.488 413.71 500.679 412.317 503.743 410.849C573.507 377.474 606.68 362.61 628.001 361.217C672.544 358.381 719.745 351.089 761.983 352.684C791.104 353.722 817.921 358.077 840.686 368.384C866.692 380.184 889.407 411.431 907.234 431.689C917.11 442.957 925.213 450.908 931.569 449.946C970.971 443.818 969.553 391.984 993.609 325.463C1002.1 300.544 1013.6 276.752 1027.85 254.612C1039.24 237.418 1096.65 147.398 1198.9 85.1309C1203.84 82.1429 1209.36 78.9016 1215.49 75.5338C1259.17 51.4778 1333.34 20.1038 1437.03 15.875" stroke="url(#paint51_linear_817_3721)" stroke-width="2" stroke-miterlimit="10"/>
<path d="M35.4517 331.719C89.6989 354.848 142.174 381.931 192.452 412.75C273.332 462.356 295.439 489.146 341.855 488.716C375.661 488.387 383.638 474.004 486.194 417.814C563.327 375.552 601.893 354.509 622.937 351.977C698.55 343.139 781.203 332.2 838.179 359.573C879.252 379.299 911.615 448.403 929.34 445.668C981.885 437.515 961.146 343.114 1023.03 243.092C1033.34 226.43 1091.63 134.384 1195.23 70.9018C1235.44 46.2634 1316.17 5.29231 1435.79 0" stroke="url(#paint52_linear_817_3721)" stroke-width="2" stroke-miterlimit="10"/>
</g>
<defs>
<linearGradient id="paint0_linear_817_3721" x1="753.348" y1="48.1133" x2="753.348" y2="337.666" gradientUnits="userSpaceOnUse">
<stop stop-color="#0DFEE1"/>
<stop offset="1" stop-color="#8B26C9"/>
</linearGradient>
<linearGradient id="paint1_linear_817_3721" x1="752.627" y1="57.582" x2="752.627" y2="339.461" gradientUnits="userSpaceOnUse">
<stop stop-color="#0DFEE1"/>
<stop offset="1" stop-color="#8B26C9"/>
</linearGradient>
<linearGradient id="paint2_linear_817_3721" x1="751.956" y1="67.1016" x2="751.956" y2="341.253" gradientUnits="userSpaceOnUse">
<stop stop-color="#0DFEE1"/>
<stop offset="1" stop-color="#8B26C9"/>
</linearGradient>
<linearGradient id="paint3_linear_817_3721" x1="751.157" y1="76.4727" x2="751.157" y2="343.087" gradientUnits="userSpaceOnUse">
<stop stop-color="#0DFEE1"/>
<stop offset="1" stop-color="#8B26C9"/>
</linearGradient>
<linearGradient id="paint4_linear_817_3721" x1="750.423" y1="85.9178" x2="750.423" y2="344.916" gradientUnits="userSpaceOnUse">
<stop stop-color="#0DFEE1"/>
<stop offset="1" stop-color="#8B26C9"/>
</linearGradient>
<linearGradient id="paint5_linear_817_3721" x1="749.651" y1="95.3631" x2="749.651" y2="346.728" gradientUnits="userSpaceOnUse">
<stop stop-color="#0DFEE1"/>
<stop offset="1" stop-color="#8B26C9"/>
</linearGradient>
<linearGradient id="paint6_linear_817_3721" x1="748.866" y1="104.781" x2="748.866" y2="348.556" gradientUnits="userSpaceOnUse">
<stop stop-color="#0DFEE1"/>
<stop offset="1" stop-color="#8B26C9"/>
</linearGradient>
<linearGradient id="paint7_linear_817_3721" x1="748.207" y1="114.227" x2="748.207" y2="350.408" gradientUnits="userSpaceOnUse">
<stop stop-color="#0DFEE1"/>
<stop offset="1" stop-color="#8B26C9"/>
</linearGradient>
<linearGradient id="paint8_linear_817_3721" x1="747.511" y1="123.648" x2="747.511" y2="352.177" gradientUnits="userSpaceOnUse">
<stop stop-color="#0DFEE1"/>
<stop offset="1" stop-color="#8B26C9"/>
</linearGradient>
<linearGradient id="paint9_linear_817_3721" x1="746.79" y1="133.066" x2="746.79" y2="354.056" gradientUnits="userSpaceOnUse">
<stop stop-color="#0DFEE1"/>
<stop offset="1" stop-color="#8B26C9"/>
</linearGradient>
<linearGradient id="paint10_linear_817_3721" x1="745.979" y1="142.461" x2="745.979" y2="355.879" gradientUnits="userSpaceOnUse">
<stop stop-color="#0DFEE1"/>
<stop offset="1" stop-color="#8B26C9"/>
</linearGradient>
<linearGradient id="paint11_linear_817_3721" x1="745.346" y1="151.883" x2="745.346" y2="357.76" gradientUnits="userSpaceOnUse">
<stop stop-color="#0DFEE1"/>
<stop offset="1" stop-color="#8B26C9"/>
</linearGradient>
<linearGradient id="paint12_linear_817_3721" x1="744.574" y1="161.277" x2="744.574" y2="359.597" gradientUnits="userSpaceOnUse">
<stop stop-color="#0DFEE1"/>
<stop offset="1" stop-color="#8B26C9"/>
</linearGradient>
<linearGradient id="paint13_linear_817_3721" x1="743.852" y1="165.25" x2="743.852" y2="366.754" gradientUnits="userSpaceOnUse">
<stop stop-color="#0DFEE1"/>
<stop offset="1" stop-color="#8B26C9"/>
</linearGradient>
<linearGradient id="paint14_linear_817_3721" x1="743.029" y1="166.848" x2="743.029" y2="376.215" gradientUnits="userSpaceOnUse">
<stop stop-color="#0DFEE1"/>
<stop offset="1" stop-color="#8B26C9"/>
</linearGradient>
<linearGradient id="paint15_linear_817_3721" x1="742.396" y1="168.391" x2="742.396" y2="386.594" gradientUnits="userSpaceOnUse">
<stop stop-color="#0DFEE1"/>
<stop offset="1" stop-color="#8B26C9"/>
</linearGradient>
<linearGradient id="paint16_linear_817_3721" x1="741.662" y1="168.898" x2="741.662" y2="396.988" gradientUnits="userSpaceOnUse">
<stop stop-color="#0DFEE1"/>
<stop offset="1" stop-color="#8B26C9"/>
</linearGradient>
<linearGradient id="paint17_linear_817_3721" x1="740.889" y1="167.453" x2="740.889" y2="409.699" gradientUnits="userSpaceOnUse">
<stop stop-color="#0DFEE1"/>
<stop offset="1" stop-color="#8B26C9"/>
</linearGradient>
<linearGradient id="paint18_linear_817_3721" x1="740.231" y1="166.012" x2="740.231" y2="422.386" gradientUnits="userSpaceOnUse">
<stop stop-color="#0DFEE1"/>
<stop offset="1" stop-color="#8B26C9"/>
</linearGradient>
<linearGradient id="paint19_linear_817_3721" x1="739.459" y1="164.566" x2="739.459" y2="435.207" gradientUnits="userSpaceOnUse">
<stop stop-color="#0DFEE1"/>
<stop offset="1" stop-color="#8B26C9"/>
</linearGradient>
<linearGradient id="paint20_linear_817_3721" x1="738.687" y1="163.125" x2="738.687" y2="447.778" gradientUnits="userSpaceOnUse">
<stop stop-color="#0DFEE1"/>
<stop offset="1" stop-color="#8B26C9"/>
</linearGradient>
<linearGradient id="paint21_linear_817_3721" x1="738.015" y1="161.68" x2="738.015" y2="460.375" gradientUnits="userSpaceOnUse">
<stop stop-color="#0DFEE1"/>
<stop offset="1" stop-color="#8B26C9"/>
</linearGradient>
<linearGradient id="paint22_linear_817_3721" x1="737.281" y1="160.238" x2="737.281" y2="473.153" gradientUnits="userSpaceOnUse">
<stop stop-color="#0DFEE1"/>
<stop offset="1" stop-color="#8B26C9"/>
</linearGradient>
<linearGradient id="paint23_linear_817_3721" x1="736.622" y1="158.793" x2="736.622" y2="485.754" gradientUnits="userSpaceOnUse">
<stop stop-color="#0DFEE1"/>
<stop offset="1" stop-color="#8B26C9"/>
</linearGradient>
<linearGradient id="paint24_linear_817_3721" x1="735.863" y1="157.352" x2="735.863" y2="498.577" gradientUnits="userSpaceOnUse">
<stop stop-color="#0DFEE1"/>
<stop offset="1" stop-color="#8B26C9"/>
</linearGradient>
<linearGradient id="paint25_linear_817_3721" x1="735.129" y1="155.906" x2="735.129" y2="511.287" gradientUnits="userSpaceOnUse">
<stop stop-color="#0DFEE1"/>
<stop offset="1" stop-color="#8B26C9"/>
</linearGradient>
<linearGradient id="paint26_linear_817_3721" x1="734.356" y1="154.465" x2="734.356" y2="524" gradientUnits="userSpaceOnUse">
<stop stop-color="#0DFEE1"/>
<stop offset="1" stop-color="#8B26C9"/>
</linearGradient>
<linearGradient id="paint27_linear_817_3721" x1="734.445" y1="157.629" x2="734.445" y2="513.531" gradientUnits="userSpaceOnUse">
<stop stop-color="#0DFEE1"/>
<stop offset="1" stop-color="#8B26C9"/>
</linearGradient>
<linearGradient id="paint28_linear_817_3721" x1="734.457" y1="160.797" x2="734.457" y2="503.062" gradientUnits="userSpaceOnUse">
<stop stop-color="#0DFEE1"/>
<stop offset="1" stop-color="#8B26C9"/>
</linearGradient>
<linearGradient id="paint29_linear_817_3721" x1="734.407" y1="163.961" x2="734.407" y2="492.653" gradientUnits="userSpaceOnUse">
<stop stop-color="#0DFEE1"/>
<stop offset="1" stop-color="#8B26C9"/>
</linearGradient>
<linearGradient id="paint30_linear_817_3721" x1="734.571" y1="167.102" x2="734.571" y2="482.161" gradientUnits="userSpaceOnUse">
<stop stop-color="#0DFEE1"/>
<stop offset="1" stop-color="#8B26C9"/>
</linearGradient>
<linearGradient id="paint31_linear_817_3721" x1="734.648" y1="170.266" x2="734.648" y2="471.674" gradientUnits="userSpaceOnUse">
<stop stop-color="#0DFEE1"/>
<stop offset="1" stop-color="#8B26C9"/>
</linearGradient>
<linearGradient id="paint32_linear_817_3721" x1="734.686" y1="173.457" x2="734.686" y2="461.326" gradientUnits="userSpaceOnUse">
<stop stop-color="#0DFEE1"/>
<stop offset="1" stop-color="#8B26C9"/>
</linearGradient>
<linearGradient id="paint33_linear_817_3721" x1="734.698" y1="176.547" x2="734.698" y2="450.787" gradientUnits="userSpaceOnUse">
<stop stop-color="#0DFEE1"/>
<stop offset="1" stop-color="#8B26C9"/>
</linearGradient>
<linearGradient id="paint34_linear_817_3721" x1="734.862" y1="179.66" x2="734.862" y2="440.33" gradientUnits="userSpaceOnUse">
<stop stop-color="#0DFEE1"/>
<stop offset="1" stop-color="#8B26C9"/>
</linearGradient>
<linearGradient id="paint35_linear_817_3721" x1="734.901" y1="181.566" x2="734.901" y2="431.207" gradientUnits="userSpaceOnUse">
<stop stop-color="#0DFEE1"/>
<stop offset="1" stop-color="#8B26C9"/>
</linearGradient>
<linearGradient id="paint36_linear_817_3721" x1="734.85" y1="173.312" x2="734.85" y2="432.084" gradientUnits="userSpaceOnUse">
<stop stop-color="#0DFEE1"/>
<stop offset="1" stop-color="#8B26C9"/>
</linearGradient>
<linearGradient id="paint37_linear_817_3721" x1="734.876" y1="163.66" x2="734.876" y2="434.31" gradientUnits="userSpaceOnUse">
<stop stop-color="#0DFEE1"/>
<stop offset="1" stop-color="#8B26C9"/>
</linearGradient>
<linearGradient id="paint38_linear_817_3721" x1="735.04" y1="154.145" x2="735.04" y2="436.628" gradientUnits="userSpaceOnUse">
<stop stop-color="#0DFEE1"/>
<stop offset="1" stop-color="#8B26C9"/>
</linearGradient>
<linearGradient id="paint39_linear_817_3721" x1="735.028" y1="145.129" x2="735.028" y2="438.876" gradientUnits="userSpaceOnUse">
<stop stop-color="#0DFEE1"/>
<stop offset="1" stop-color="#8B26C9"/>
</linearGradient>
<linearGradient id="paint40_linear_817_3721" x1="735.04" y1="135.465" x2="735.04" y2="441.035" gradientUnits="userSpaceOnUse">
<stop stop-color="#0DFEE1"/>
<stop offset="1" stop-color="#8B26C9"/>
</linearGradient>
<linearGradient id="paint41_linear_817_3721" x1="735.091" y1="125.875" x2="735.091" y2="443.113" gradientUnits="userSpaceOnUse">
<stop stop-color="#0DFEE1"/>
<stop offset="1" stop-color="#8B26C9"/>
</linearGradient>
<linearGradient id="paint42_linear_817_3721" x1="735.129" y1="116.379" x2="735.129" y2="445.306" gradientUnits="userSpaceOnUse">
<stop stop-color="#0DFEE1"/>
<stop offset="1" stop-color="#8B26C9"/>
</linearGradient>
<linearGradient id="paint43_linear_817_3721" x1="735.217" y1="106.984" x2="735.217" y2="447.604" gradientUnits="userSpaceOnUse">
<stop stop-color="#0DFEE1"/>
<stop offset="1" stop-color="#8B26C9"/>
</linearGradient>
<linearGradient id="paint44_linear_817_3721" x1="735.229" y1="97.4883" x2="735.229" y2="449.665" gradientUnits="userSpaceOnUse">
<stop stop-color="#0DFEE1"/>
<stop offset="1" stop-color="#8B26C9"/>
</linearGradient>
<linearGradient id="paint45_linear_817_3721" x1="735.28" y1="87.9689" x2="735.28" y2="451.921" gradientUnits="userSpaceOnUse">
<stop stop-color="#0DFEE1"/>
<stop offset="1" stop-color="#8B26C9"/>
</linearGradient>
<linearGradient id="paint46_linear_817_3721" x1="735.306" y1="78.4727" x2="735.306" y2="454.124" gradientUnits="userSpaceOnUse">
<stop stop-color="#0DFEE1"/>
<stop offset="1" stop-color="#8B26C9"/>
</linearGradient>
<linearGradient id="paint47_linear_817_3721" x1="735.382" y1="68.875" x2="735.382" y2="456.297" gradientUnits="userSpaceOnUse">
<stop stop-color="#0DFEE1"/>
<stop offset="1" stop-color="#8B26C9"/>
</linearGradient>
<linearGradient id="paint48_linear_817_3721" x1="735.559" y1="59.6328" x2="735.559" y2="458.594" gradientUnits="userSpaceOnUse">
<stop stop-color="#0DFEE1"/>
<stop offset="1" stop-color="#8B26C9"/>
</linearGradient>
<linearGradient id="paint49_linear_817_3721" x1="735.584" y1="46.9961" x2="735.584" y2="463.371" gradientUnits="userSpaceOnUse">
<stop stop-color="#0DFEE1"/>
<stop offset="1" stop-color="#8B26C9"/>
</linearGradient>
<linearGradient id="paint50_linear_817_3721" x1="735.458" y1="31.5" x2="735.458" y2="471.667" gradientUnits="userSpaceOnUse">
<stop stop-color="#0DFEE1"/>
<stop offset="1" stop-color="#8B26C9"/>
</linearGradient>
<linearGradient id="paint51_linear_817_3721" x1="735.559" y1="15.875" x2="735.559" y2="480.139" gradientUnits="userSpaceOnUse">
<stop stop-color="#0DFEE1"/>
<stop offset="1" stop-color="#8B26C9"/>
</linearGradient>
<linearGradient id="paint52_linear_817_3721" x1="735.622" y1="0" x2="735.622" y2="488.721" gradientUnits="userSpaceOnUse">
<stop stop-color="#0DFEE1"/>
<stop offset="1" stop-color="#8B26C9"/>
</linearGradient>
<clipPath id="clip0_817_3721">
<rect width="790" height="524" fill="white"/>
</clipPath>
</defs>
</svg>
