<svg width="40" height="40" viewBox="0 0 40 40" fill="none" xmlns="http://www.w3.org/2000/svg">
<path d="M36.6864 9.57952C35.8263 6.48831 33.006 3.96995 29.4982 3.17288C26.9833 2.6014 24.5763 3.52152 22.5341 4.83607C22.2802 4.99945 21.9904 5.09105 21.7138 5.21068L23.9263 6.4555C24.506 6.78157 24.6747 7.45833 24.3013 7.96693C23.9529 8.44202 23.1864 8.64095 22.5739 8.29505L14.7216 3.87767C13.1044 3.13597 11.3325 2.75657 9.50207 3.17288C5.99426 3.97064 3.17395 6.48831 2.31379 9.57952C1.52238 12.4246 2.28098 15.1036 3.99348 17.1284C5.81848 19.2866 6.5466 21.822 6.82863 24.4668C7.17238 27.6907 7.63566 30.9035 8.46457 34.059L9.07395 36.3798C9.32316 37.328 10.2841 37.9999 11.3919 37.9999C12.4833 37.9999 13.4349 37.3471 13.6997 36.4167L16.3927 26.9544C16.7489 25.7021 18.0302 24.8243 19.4989 24.8243C20.9677 24.8243 22.2489 25.7028 22.6052 26.9544L25.2982 36.4167C25.563 37.3471 26.5146 37.9999 27.606 37.9999C28.7138 37.9999 29.6747 37.328 29.9239 36.3798L30.5333 34.059C31.3622 30.9042 31.8247 27.6907 32.1693 24.4668C32.4513 21.8213 33.1794 19.2866 35.0044 17.1284C36.7193 15.1043 37.4779 12.4253 36.6864 9.57952Z" fill="#68DBFF"/>
</svg>
