<svg width="317" height="91" viewBox="0 0 317 91" fill="none" xmlns="http://www.w3.org/2000/svg">
<path d="M102.685 34.0648C96.4752 35.4611 92.3436 40.5166 91.8845 47.2333C91.5946 51.8555 93.0201 55.9 96.0161 58.8852C97.9974 60.8592 99.9061 61.8944 102.612 62.4963C105.947 63.2185 110.61 62.6648 112.736 61.2685C113.316 60.9074 113.316 60.8352 113.316 57.1277V53.3481L112.663 53.974C112.277 54.3111 111.383 54.9129 110.658 55.274C109.45 55.9 109.088 55.9722 106.913 55.9722C104.086 55.9722 103.168 55.6111 101.549 53.8777C100.293 52.4814 99.6887 50.7481 99.7129 48.3889C99.737 45.3796 100.897 42.9963 102.975 41.6C105.729 39.7463 109.667 40.1796 112.47 42.6352L113.316 43.3814V39.6259V35.8703L112.543 35.3889C110.296 33.9926 105.681 33.3907 102.685 34.0648Z" fill="#1F1F1F"/>
<path d="M306.126 34.0888C302.405 34.8833 298.854 37.5314 297.138 40.8055C295.833 43.2851 295.398 45.1629 295.398 48.2684C295.398 52.8907 296.607 56.0203 299.458 58.8851C302.14 61.5573 305.353 62.8333 309.436 62.8333C311.925 62.8333 313.568 62.4962 315.501 61.5814L316.999 60.8833V57.1277V53.3962L316.467 53.7814C313.761 55.7314 312.384 56.1888 309.799 56.0444C307.528 55.8999 306.344 55.3462 304.942 53.7814C303.71 52.3851 303.227 50.8444 303.227 48.3647C303.227 45.7888 303.879 44.0795 305.498 42.4425C306.464 41.4795 307.044 41.1184 308.156 40.8055C310.91 40.011 313.64 40.661 315.912 42.6592L316.999 43.6221V39.7462V35.8944L315.501 35.1721C312.698 33.7999 309.291 33.3907 306.126 34.0888Z" fill="#1F1F1F"/>
<path d="M75.3828 37.5555V40.6852H77.5574H79.7319V51.3981V62.1111H83.2353H86.7388V48.2685V34.4259H81.0608H75.3828V37.5555Z" fill="#1F1F1F"/>
<path d="M135.547 48.2685V62.1111H142.264C151.566 62.1111 153.644 61.7018 155.988 59.3666C157.582 57.7537 158.138 56.237 158.138 53.4444C158.138 51.687 158.041 51.2055 157.461 50.0259C155.867 46.8 153.088 45.5722 146.734 45.3315L143.037 45.187V43.0444V40.9259H149.44H155.843V37.6759V34.4259H145.695H135.547V48.2685ZM149.198 51.1333C150.213 51.5666 150.575 52.2407 150.575 53.6852C150.575 56.0685 149.633 56.6703 145.816 56.6944H143.158L143.085 53.7333L143.013 50.7963H145.695C147.459 50.7963 148.642 50.9166 149.198 51.1333Z" fill="#1F1F1F"/>
<path d="M162.605 48.2685V62.1111H166.302L169.975 62.087L175.29 53.8055C178.214 49.2555 180.678 45.524 180.799 45.5C180.896 45.5 180.968 49.2315 180.968 53.8055V62.1111H184.593H188.217V48.2685V34.4259H184.544H180.847L175.411 42.8518L169.975 51.2537L169.902 42.8518L169.854 34.4259H166.23H162.605V48.2685Z" fill="#1F1F1F"/>
<path d="M191.602 37.6759V40.9259H194.743H197.884V51.5185V62.1111H201.629H205.374V51.5185V40.9259H208.515H211.656V37.6759V34.4259H201.629H191.602V37.6759Z" fill="#1F1F1F"/>
<path d="M215.035 48.2444V62.1111H218.78H222.525V57.5611V53.0352L225.86 52.8907C229.58 52.7703 231.054 52.4092 232.818 51.2055C235.258 49.5926 236.587 46.9203 236.587 43.6944C236.587 39.4574 234.389 36.4 230.402 35.0759C229.097 34.6426 228.155 34.5703 221.994 34.474L215.035 34.3778V48.2444ZM227.261 40.8296C228.3 41.3352 228.807 42.25 228.807 43.6944C228.807 46.0778 227.648 46.9444 224.482 46.9444H222.525V43.6944V40.4444H224.482C225.787 40.4444 226.705 40.5648 227.261 40.8296Z" fill="#1F1F1F"/>
<path d="M240.164 48.2685V62.1111H243.861H247.558L252.68 54.2148C255.483 49.8815 257.947 46.1259 258.14 45.8611C258.479 45.4278 258.503 46.1981 258.527 53.7333V62.1111H262.272H266.017V48.2685V34.4018L262.224 34.474L258.43 34.5463L252.994 42.9722L247.533 51.3981L247.461 42.9L247.413 34.4259H243.788H240.164V48.2685Z" fill="#1F1F1F"/>
<path d="M270.852 48.2685V62.1111H274.597H278.342L278.39 56.0444L278.462 50.0018L282.57 56.0444L286.653 62.1111H291.341C295.061 62.1111 295.98 62.0389 295.81 61.7981C293.563 58.9092 285.349 47.9796 285.349 47.8833C285.349 47.8111 287.692 44.7778 290.543 41.1426L295.714 34.5463L291.582 34.474C289.287 34.45 287.306 34.45 287.161 34.5222C287.016 34.5703 284.986 37.2426 282.667 40.4685L278.462 46.3185L278.39 40.3722L278.342 34.4259H274.597H270.852V48.2685Z" fill="#1F1F1F"/>
<path d="M122.619 44.4647C120.179 45.7406 119.333 48.4129 120.662 50.6518C122.329 53.4684 126.316 53.4925 128.152 50.724C128.732 49.8332 128.804 49.5203 128.732 48.2444C128.659 47.0888 128.49 46.5832 127.983 45.8851C126.702 44.224 124.286 43.574 122.619 44.4647Z" fill="#1F1F1F"/>
<path d="M29.1153 15.0705C28.5837 15.1186 27.2548 15.2871 26.1676 15.4316L24.1622 15.6964V31.0316C24.1622 40.7094 24.2588 46.6797 24.4038 47.2334C25.1286 49.8094 27.9314 52.0001 30.5408 52.0001C32.4496 52.0001 33.9234 51.3983 35.2765 50.0742C38.9732 46.3668 36.992 40.0834 31.8214 39.1205L30.9274 38.952V36.2075V33.4631H31.6039C33.851 33.4631 37.3061 35.052 39.239 36.9779C41.5343 39.2649 42.7666 42.2501 42.7666 45.5001C42.7424 48.9427 41.631 51.6871 39.2631 54.0464C36.8953 56.4057 34.1409 57.5131 30.6858 57.5371C25.5152 57.5371 21.3353 54.6242 19.2574 49.5205C18.7258 48.2927 18.7258 47.9316 18.605 32.9575L18.4842 17.6223L17.5902 17.9834L16.6721 18.3446V32.8371C16.6721 48.9668 16.6962 49.0149 18.2909 52.0723C20.103 55.5149 23.993 58.476 27.7139 59.2223C29.7918 59.6557 33.6093 59.4149 35.3973 58.7409C39.4081 57.2242 42.4042 54.2871 43.9022 50.3631C44.6512 48.4131 44.917 44.7057 44.4579 42.539C43.6847 38.8316 40.737 34.9557 37.3061 33.1742C35.5664 32.2594 33.1261 31.5371 31.7247 31.5371H30.9274V28.7446V25.9279L32.812 26.0723C37.5477 26.4334 42.6699 29.1538 45.8351 32.9816C47.4539 34.9075 49.1452 38.2538 49.7976 40.8057C50.4258 43.2853 50.4741 47.2816 49.8942 49.8334C48.2029 57.2242 42.4525 62.9538 35.0349 64.639C32.4737 65.2168 28.4629 65.1686 25.9743 64.5186C19.1849 62.7853 14.0868 57.9705 11.8156 51.1575C11.2599 49.4964 11.2357 49.3038 11.1149 35.7742L10.9941 22.076L8.79539 24.3871C3.04493 30.3575 0.242188 37.3149 0.242188 45.5001C0.242188 49.0871 0.604611 51.5668 1.6194 54.7446C4.4463 63.7242 11.8156 71.2353 20.7795 74.2686C36.9678 79.7816 54.4608 71.0186 59.8005 54.7446C61.6609 49.0631 61.6609 41.9371 59.8005 36.2557C56.4904 26.1205 48.2029 18.4649 37.7893 15.889C36.1946 15.5038 30.6616 14.8297 30.2026 14.9742C30.1301 14.9983 29.6468 15.0464 29.1153 15.0705Z" fill="#EC1515"/>
<path d="M86.7874 48.1964L86.739 62.1112H83.2356H79.7322L79.6839 51.4464L79.6114 40.8056L77.5576 40.7816H75.5039L77.4852 40.8538L79.4906 40.9501L79.5389 51.5908L79.6114 62.2316L83.1873 62.3038C85.8934 62.3519 86.7874 62.3038 86.8599 62.063C86.9323 61.8945 86.9565 55.5871 86.9323 48.0279L86.8599 34.3056L86.7874 48.1964Z" fill="#969696"/>
<path d="M247.512 42.6113C247.512 47.1854 247.56 49.0391 247.584 46.752C247.633 44.4891 247.633 40.7335 247.584 38.4465C247.56 36.1835 247.512 38.0372 247.512 42.6113Z" fill="#969696"/>
<path d="M278.438 40.2038C278.438 43.4538 278.486 44.7779 278.51 43.1409C278.558 41.5279 278.558 38.8798 278.51 37.2427C278.486 35.6298 278.438 36.9538 278.438 40.2038Z" fill="#969696"/>
<path d="M180.728 53.9741L180.849 62.2315H184.546L188.218 62.2556L184.594 62.1834L180.97 62.0871V53.926C180.97 49.4241 180.897 45.7408 180.801 45.7408C180.68 45.7408 180.656 49.4482 180.728 53.9741Z" fill="#969696"/>
<path d="M278.39 56.1408L278.341 62.0871L274.548 62.1834L270.73 62.2556L274.548 62.3038C277.447 62.3278 278.39 62.2797 278.486 62.039C278.535 61.8704 278.559 59.1501 278.51 55.9723L278.462 50.1945L278.39 56.1408Z" fill="#969696"/>
<path d="M138.639 62.2798C140.379 62.328 143.278 62.328 145.042 62.2798C146.782 62.2557 145.356 62.2076 141.829 62.2076C138.301 62.2076 136.875 62.2557 138.639 62.2798Z" fill="#969696"/>
<path d="M164.248 62.2798C165.359 62.328 167.099 62.328 168.114 62.2798C169.129 62.2557 168.235 62.2076 166.108 62.2076C163.982 62.2076 163.137 62.2557 164.248 62.2798Z" fill="#969696"/>
<path d="M199.767 62.2798C200.879 62.328 202.619 62.328 203.633 62.2798C204.648 62.2557 203.754 62.2076 201.628 62.2076C199.502 62.2076 198.656 62.2557 199.767 62.2798Z" fill="#969696"/>
<path d="M216.92 62.2798C218.031 62.328 219.771 62.328 220.786 62.2798C221.8 62.2557 220.906 62.2076 218.78 62.2076C216.654 62.2076 215.808 62.2557 216.92 62.2798Z" fill="#969696"/>
<path d="M242.049 62.2798C243.16 62.328 244.9 62.328 245.915 62.2798C246.929 62.2557 246.035 62.2076 243.909 62.2076C241.783 62.2076 240.937 62.2557 242.049 62.2798Z" fill="#969696"/>
<path d="M260.412 62.2798C261.523 62.328 263.263 62.328 264.278 62.2798C265.293 62.2557 264.399 62.2076 262.272 62.2076C260.146 62.2076 259.301 62.2557 260.412 62.2798Z" fill="#969696"/>
<path d="M288.924 62.2798C290.277 62.328 292.499 62.328 293.877 62.2798C295.23 62.2557 294.118 62.2076 291.388 62.2076C288.658 62.2076 287.546 62.2557 288.924 62.2798Z" fill="#969696"/>
</svg>
