<svg width="299" height="72" viewBox="0 0 299 72" fill="none" xmlns="http://www.w3.org/2000/svg">
<path d="M279.167 34.6634H287.084C287.084 35.027 287.084 35.597 287.144 36.3833C287.203 37.1695 287.203 37.7395 287.203 38.1032C287.269 40.1448 286.902 42.1774 286.124 44.0688C285.481 45.5632 284.411 46.8376 283.047 47.7346C281.626 48.6265 280.042 49.231 278.385 49.5135C276.326 49.8633 274.239 50.0278 272.15 50.0049H266.46C262.653 50.0049 259.684 49.3497 257.553 48.0393C255.433 46.78 253.854 44.7892 253.119 42.4471C252.223 39.3873 251.812 36.2075 251.902 33.0221C251.902 32.0393 251.902 30.4668 251.842 28.4226C251.783 26.3783 251.783 24.8354 251.783 23.8132C251.696 20.9614 252.087 18.115 252.941 15.3906C253.575 13.4296 254.785 11.7013 256.414 10.4275C258.11 9.22127 260.065 8.42379 262.125 8.09825C264.994 7.64211 267.899 7.43494 270.804 7.47909H273.516C275.852 7.42721 278.184 7.7018 280.444 8.29481C282.307 8.82122 283.908 10.0153 284.937 11.6462C285.395 12.3527 285.758 13.116 286.016 13.9164C286.274 14.6173 286.463 15.3415 286.58 16.0786C286.649 16.7076 286.738 17.6806 286.797 19.027C286.857 20.3734 286.936 21.3071 286.976 21.8771H278.949C278.797 20.9467 278.701 20.0081 278.662 19.0663C278.691 17.8681 278.345 16.6904 277.673 15.6953C277.089 15.0073 275.921 14.6044 274.169 14.4963C273.344 14.4111 272.154 14.3685 270.596 14.3685H269.122C267.676 14.3539 266.233 14.4657 264.807 14.7027C263.735 14.8509 262.74 15.3367 261.967 16.0884C260.772 17.2809 260.175 19.3415 260.175 22.2702C260.175 22.8698 260.175 23.4103 260.225 23.9017C260.274 24.3931 260.225 24.9926 260.225 25.6806C260.225 29.2973 260.268 32.0032 260.353 33.7985C260.238 35.9021 260.534 38.008 261.224 40C261.49 40.6226 261.896 41.1766 262.41 41.6195C262.925 42.0624 263.535 42.3825 264.193 42.5552C266.299 43.0315 268.458 43.233 270.616 43.1548C272.212 43.1837 273.808 43.0818 275.386 42.8501C276.462 42.6514 277.439 42.0973 278.158 41.2776C279.012 40.1513 279.417 38.7513 279.296 37.3464C279.296 37.0188 279.276 36.5569 279.236 35.9607C279.197 35.3644 279.177 34.9254 279.177 34.6437" fill="#F49407"/>
<path d="M236.413 41.6413H218.094L215.501 49.7494H207.089L221.202 7.75427H233.078L247.418 49.7592H239.125L236.413 41.6413ZM234.553 35.6756L227.249 13.8968L219.955 35.6756H234.553Z" fill="#EC6833"/>
<path d="M202.724 7.75427V49.7592H194.827L195.064 14.3882L181.832 49.7592H174.548L161.069 14.5061L161.435 49.7592H153.528V7.75427H166.631L178.002 38.8304H178.25L189.493 7.75427H202.724Z" fill="#E95225"/>
<path d="M18.4475 27.4398H36.9841V28.5012L37.1128 35.2531C37.1539 37.6516 36.9315 40.0474 36.4497 42.398C36.0585 44.2789 35.0781 45.9887 33.6489 47.2826C31.8623 48.7334 29.6667 49.5986 27.3645 49.7592C25.4643 49.9263 22.6734 50.0148 18.9523 50.0148C15.3122 50.1298 11.6755 49.6991 8.16482 48.7371C5.62116 47.9765 3.48547 46.2445 2.22678 43.9214C0.907217 41.5627 0.247436 38.1065 0.247436 33.5528C0.247436 32.9533 0.247436 32.1867 0.247436 31.2334C0.247436 30.2801 0.148468 29.1401 0.108881 27.8329C0.0692944 26.5258 1.72684e-05 25.5528 1.72684e-05 24.855C-0.00915289 22.4987 0.222964 20.1475 0.692788 17.8378C1.06478 15.8559 1.83926 13.9699 2.96904 12.2948C3.97588 10.8797 5.34159 9.75401 6.92773 9.03195C8.46037 8.32236 10.0976 7.86116 11.7771 7.66585C13.716 7.4546 15.6657 7.35615 17.6162 7.37101H21.4462C24.4975 7.27831 27.5481 7.57894 30.5215 8.26536C31.532 8.52574 32.4799 8.98419 33.3093 9.61375C34.1387 10.2433 34.8329 11.0312 35.3511 11.9312C36.4497 13.7887 36.994 16.6093 37.0138 20.3833H28.948C29.0623 18.8653 28.5678 17.3639 27.5723 16.2064C26.6607 15.2745 25.4698 14.6608 24.1777 14.457C22.5416 14.1981 20.886 14.0798 19.2294 14.1032C17.0928 14.0374 14.956 14.2288 12.8658 14.6732C11.6148 14.9275 10.5137 15.6577 9.79778 16.7076C9.17144 17.7465 8.80492 18.9193 8.72893 20.1278C8.61017 21.4382 8.51121 24.1212 8.43203 28.1769L8.56069 33.7199C8.5142 35.4621 8.67364 37.2038 9.03573 38.9091C9.26522 39.9857 9.82129 40.9666 10.6291 41.7199C11.5058 42.4189 12.5614 42.8614 13.6773 42.9976C15.4206 43.2465 17.1814 43.3549 18.9424 43.3219C21.0523 43.3879 23.1624 43.1997 25.2268 42.7617C25.8665 42.6141 26.4649 42.3267 26.9785 41.9204C27.4922 41.514 27.908 40.999 28.1958 40.4128C28.9076 38.5895 29.2148 36.6351 29.0964 34.6831V33.4152H18.4475V27.4398ZM49.4837 7.75431V42.6536H68.9802V49.7592H41.2694V7.75431H49.4837ZM72.8894 29.2482C72.8475 25.901 72.9962 22.5541 73.3348 19.2236C73.5645 17.0011 74.2373 14.8462 75.3141 12.8845C76.4703 10.999 78.2354 9.55785 80.3219 8.79607C83.324 7.73886 86.5013 7.25857 89.6842 7.38084C92.2004 7.35855 94.7156 7.48984 97.2156 7.77396C99.1982 8.01153 101.128 8.57273 102.926 9.4349C104.65 10.2924 106.085 11.6314 107.053 13.2875C108.199 15.4031 108.807 17.7648 108.824 20.1671C108.914 21.4054 108.953 23.2826 108.953 25.828V28.6487C108.999 32.1788 108.854 35.7089 108.518 39.2236C108.318 41.4084 107.573 43.5093 106.35 45.3366C104.97 47.1273 103.026 48.4075 100.828 48.973C97.3955 49.8587 93.8519 50.246 90.3077 50.1229C87.5667 50.1737 84.8284 49.9232 82.1429 49.3759C80.1585 48.9816 78.3066 48.0959 76.7591 46.801C75.2894 45.4389 74.2392 43.6906 73.7307 41.7592C73.0163 39.0798 72.6832 36.3142 72.741 33.543C72.741 32.9926 72.741 32.2359 72.8004 31.2727C72.8597 30.3096 72.8894 29.6413 72.8894 29.2482ZM81.0542 29.1204C81.0542 32.3964 81.0971 34.86 81.1829 36.5111C81.1887 38.0904 81.6155 39.6401 82.42 41.0025C83.0725 41.9532 84.0682 42.6183 85.201 42.86C86.8297 43.1814 88.4892 43.3231 90.1493 43.2826C92.2279 43.346 94.3063 43.1478 96.3348 42.6929C97.0047 42.5353 97.6342 42.2407 98.1829 41.8277C98.7316 41.4148 99.1876 40.8927 99.5215 40.2949C100.34 38.5003 100.736 36.5442 100.679 34.575C100.765 32.2817 100.808 28.8747 100.808 24.3538C100.88 22.2449 100.687 20.1353 100.234 18.0737C100.078 17.4373 99.783 16.843 99.3689 16.3333C98.9549 15.8236 98.4325 15.4111 97.8391 15.1253C95.9924 14.4194 94.0149 14.1144 92.0396 14.231C89.7112 14.1458 87.3817 14.3673 85.1119 14.8894C84.4783 15.034 83.8814 15.3067 83.3587 15.6906C82.8359 16.0744 82.3985 16.5612 82.0736 17.1204C81.4113 18.7002 81.0974 20.4026 81.1532 22.113C81.107 24.4062 81.074 26.742 81.0542 29.1204ZM113.466 49.7592V7.75431H135.11C139.108 7.75431 142.044 8.51761 143.918 10.0442C145.789 11.5676 146.729 14.3292 146.729 18.3194C146.755 19.8689 146.619 21.4169 146.323 22.9386C146.07 24.131 145.471 25.224 144.601 26.0835C143.531 27.051 142.2 27.6865 140.771 27.9116V28.1573C143.41 28.5635 145.251 29.5234 146.293 31.0369C147.45 33.0295 147.99 35.3162 147.847 37.6118C147.933 39.983 147.547 42.3478 146.709 44.57C145.988 46.3033 144.639 47.7057 142.929 48.5012C140.649 49.4403 138.189 49.8697 135.724 49.7592H113.466ZM121.502 31.2138V43.1548H131.745C133.295 43.1987 134.846 43.0701 136.367 42.7715C136.867 42.6668 137.34 42.4643 137.76 42.1757C138.179 41.8871 138.537 41.5183 138.812 41.0909C139.446 39.8808 139.733 38.521 139.643 37.1597C139.643 34.742 139.168 33.1499 138.218 32.3931C137.268 31.6364 135.565 31.2531 133.101 31.2531L121.502 31.2138ZM138.663 19.4202C138.663 17.4546 138.297 16.1278 137.565 15.4202C136.832 14.7125 135.476 14.3489 133.477 14.3489H121.502V25.3661H131.745C133.137 25.4084 134.528 25.2663 135.882 24.9435C136.34 24.8306 136.767 24.62 137.135 24.3264C137.502 24.0328 137.801 23.6631 138.01 23.2433C138.508 22.0356 138.731 20.7334 138.663 19.43V19.4202Z" fill="#444850"/>
<path d="M286.015 62.2801H282.383C281.837 62.2448 281.289 62.3149 280.77 62.4865C280.454 62.6536 280.295 63.0565 280.295 63.6855C280.299 63.705 280.299 63.725 280.295 63.7445C280.291 63.7639 280.291 63.784 280.295 63.8034C280.295 64.7338 281.034 65.199 282.512 65.199H282.928H283.393H286.015V62.2801ZM287.629 61.4349V68.7961H286.015V66.1228H281.799C281.498 66.1145 281.202 66.1967 280.948 66.3587C280.711 66.516 280.592 66.6634 280.592 66.8108L280.572 68.7961H278.939L279.018 66.9386V66.8698C279.029 66.5426 279.155 66.2295 279.375 65.9853C279.474 65.8529 279.602 65.7444 279.75 65.6678C279.897 65.5913 280.06 65.5486 280.226 65.543C279.818 65.3673 279.436 65.1393 279.088 64.8649C278.97 64.76 278.878 64.6308 278.816 64.4865C278.755 64.3421 278.726 64.1861 278.732 64.0295C278.708 63.4916 278.803 62.955 279.009 62.457C279.111 62.2652 279.252 62.096 279.422 61.9592C279.592 61.8225 279.788 61.721 279.998 61.6609C280.698 61.4733 281.422 61.3905 282.146 61.4152L287.629 61.4349ZM274.575 61.4349V68.7961H273.15V67.8133C272.737 68.2328 272.217 68.5319 271.645 68.6781C270.917 68.8317 270.173 68.901 269.429 68.8845C268.444 68.9585 267.46 68.7432 266.598 68.2654C266.289 68.0426 266.044 67.7449 265.884 67.4007C265.725 67.0565 265.657 66.6774 265.688 66.2998V61.3857H267.35V66.2998C267.336 66.6383 267.404 66.9753 267.548 67.2826C267.689 67.5367 267.923 67.7269 268.201 67.8133C268.694 67.928 269.2 67.9776 269.706 67.9607C270.372 67.9852 271.038 67.9157 271.685 67.7543C271.887 67.7117 272.078 67.6299 272.248 67.5135C272.418 67.3971 272.563 67.2485 272.675 67.0762C272.876 66.6601 272.968 66.2003 272.942 65.7396V61.4349H274.575ZM259.839 64.3833V61.4349H261.422V68.7961H259.789V65.3268H253.94V68.7961H252.367V61.4349H253.98V64.3833H259.839ZM240.491 66.4865C240.459 66.724 240.494 66.9654 240.589 67.1851C240.685 67.4048 240.839 67.5947 241.035 67.7346C241.643 67.993 242.305 68.1009 242.965 68.0491C243.671 68.0491 244.268 68.0262 244.756 67.9803C245.2 67.946 245.632 67.8187 246.023 67.6069C246.202 67.5163 246.349 67.3738 246.444 67.1982C246.54 67.0226 246.579 66.8224 246.557 66.6241C246.586 66.3756 246.528 66.1247 246.393 65.9136C246.258 65.7024 246.054 65.5439 245.815 65.4644C245.084 65.2651 244.326 65.179 243.568 65.2088H243.163C242.386 65.14 241.603 65.2511 240.876 65.5332C240.599 65.7101 240.491 66.0147 240.491 66.4865ZM240.847 63.5381H239.184C239.132 63.1763 239.2 62.8074 239.379 62.4878C239.557 62.1683 239.837 61.9158 240.174 61.769C241.224 61.4646 242.317 61.335 243.41 61.3857C244.298 61.3677 245.185 61.4269 246.062 61.5627C246.633 61.6402 247.162 61.9028 247.567 62.3096C247.948 62.7805 248.136 63.3776 248.091 63.9803V68.7961H246.557L246.656 68.0197C246.237 68.3894 245.723 68.6376 245.172 68.7371C244.457 68.8665 243.731 68.9257 243.004 68.914C242.215 68.9281 241.427 68.8689 240.649 68.7371C240.126 68.6577 239.641 68.417 239.263 68.0491C238.914 67.6355 238.74 67.1035 238.778 66.5651C238.761 66.3067 238.797 66.0474 238.886 65.8037C238.974 65.5601 239.113 65.3374 239.293 65.1499C239.689 64.7983 240.182 64.5724 240.708 64.5012C241.461 64.3841 242.223 64.3315 242.985 64.344C243.689 64.3355 244.394 64.3782 245.092 64.4717C245.596 64.5308 246.067 64.7477 246.438 65.0909V64.2359C246.468 63.7715 246.387 63.3067 246.201 62.8796C246.107 62.7294 245.982 62.6015 245.833 62.5047C245.684 62.4079 245.516 62.3447 245.34 62.3194C244.686 62.211 244.023 62.1649 243.361 62.1818C242.658 62.1284 241.952 62.229 241.292 62.4767C241.139 62.5465 241.012 62.6613 240.927 62.8054C240.842 62.9495 240.804 63.1161 240.817 63.2826C240.811 63.3249 240.811 63.368 240.817 63.4103C240.833 63.4645 240.837 63.5217 240.827 63.5774L240.847 63.5381ZM227.16 67.9312H230.059H230.525H231C231.481 67.9583 231.962 67.8742 232.405 67.6855C232.755 67.5348 232.929 67.1777 232.929 66.6142C232.95 66.4138 232.907 66.212 232.808 66.0362C232.709 65.8604 232.558 65.7191 232.375 65.6314C231.814 65.4631 231.229 65.39 230.643 65.4152H227.16V67.9312ZM232.454 62.4668C231.894 62.2804 231.302 62.2036 230.713 62.2408H229.06H227.15V64.5209H231.277C231.609 64.5257 231.94 64.496 232.266 64.4324C232.362 64.416 232.454 64.3805 232.535 64.3282C232.617 64.2758 232.687 64.2077 232.741 64.1278C232.842 63.9129 232.886 63.6762 232.87 63.4398C232.892 63.2604 232.865 63.0783 232.79 62.9135C232.714 62.7488 232.595 62.6078 232.444 62.5061L232.454 62.4668ZM225.586 68.7961V61.4349H230.327C230.987 61.4283 231.648 61.4545 232.306 61.5135C232.79 61.557 233.26 61.6938 233.691 61.9165C233.964 62.0791 234.182 62.3176 234.32 62.6023C234.457 62.8871 234.507 63.2057 234.463 63.5184C234.49 63.7082 234.476 63.9013 234.423 64.0856C234.371 64.2699 234.28 64.4413 234.157 64.5891C234.035 64.7369 233.882 64.8577 233.71 64.9441C233.538 65.0305 233.35 65.0805 233.157 65.0909C233.538 65.1506 233.887 65.3378 234.147 65.6216C234.373 65.8995 234.496 66.2469 234.493 66.6044C234.518 67.0366 234.407 67.4658 234.176 67.8329C233.951 68.1429 233.632 68.3736 233.266 68.4914C232.838 68.6357 232.391 68.7216 231.94 68.7469C231.445 68.7469 230.792 68.7961 229.96 68.7961H225.586ZM213.443 65.5037C213.443 66.6437 213.66 67.371 214.096 67.6953C214.638 67.9522 215.239 68.0608 215.838 68.0098H216.62C217.17 68.0199 217.72 67.9805 218.262 67.8919C218.632 67.8495 218.979 67.6911 219.252 67.4398C219.495 67.1671 219.638 66.8207 219.658 66.457C219.658 66.0639 219.658 65.4742 219.658 64.7666C219.677 64.2392 219.634 63.7114 219.529 63.1941C219.481 63.0257 219.392 62.8711 219.272 62.743C219.152 62.6149 219.002 62.5169 218.836 62.457C218.24 62.2615 217.613 62.1782 216.986 62.2113H216.639C215.935 62.1858 215.23 62.2485 214.541 62.398C214.353 62.4371 214.177 62.5198 214.028 62.6394C213.878 62.759 213.759 62.912 213.68 63.086C213.507 63.6018 213.434 64.1451 213.463 64.688L213.443 65.5037ZM211.79 64.914C211.758 64.1943 211.872 63.4756 212.126 62.801C212.258 62.5317 212.444 62.2918 212.672 62.0958C212.9 61.8999 213.165 61.7519 213.453 61.6609C214.397 61.3704 215.385 61.244 216.372 61.2875C217.424 61.2528 218.476 61.3586 219.5 61.602C219.802 61.6689 220.086 61.7979 220.335 61.9807C220.584 62.1636 220.792 62.3961 220.944 62.6634C221.239 63.352 221.371 64.0982 221.33 64.8452C221.355 65.6243 221.282 66.4035 221.113 67.1646C221.018 67.4533 220.862 67.7185 220.656 67.9423C220.449 68.1661 220.197 68.3433 219.915 68.4619C218.942 68.8485 217.894 69.0163 216.847 68.9533C215.814 68.9818 214.782 68.8927 213.769 68.688C213.151 68.5709 212.604 68.2181 212.245 67.7052C211.903 67.0655 211.746 66.3445 211.79 65.6216V64.914ZM205.921 66.1228H207.534C207.576 66.7333 207.416 67.3406 207.079 67.8526C206.719 68.2794 206.217 68.565 205.664 68.6585C204.777 68.8256 203.875 68.8981 202.972 68.8747C202.082 68.8983 201.192 68.8225 200.32 68.6486C199.789 68.5535 199.297 68.3077 198.904 67.941C198.601 67.6202 198.401 67.2162 198.33 66.7813C198.245 66.1463 198.212 65.5053 198.231 64.8649C198.198 64.1555 198.333 63.4483 198.627 62.801C198.945 62.2619 199.458 61.8644 200.062 61.6904C201.026 61.4111 202.028 61.2883 203.031 61.3268C204.119 61.2794 205.206 61.4327 206.238 61.7789C206.599 61.9166 206.905 62.168 207.108 62.4945C207.312 62.821 207.403 63.2048 207.366 63.5872V63.8821H205.802C205.822 63.5358 205.732 63.1922 205.545 62.8993C205.345 62.6495 205.06 62.4816 204.744 62.4275C204.238 62.3307 203.724 62.2879 203.21 62.2998C202.491 62.2743 201.773 62.3404 201.072 62.4963C200.879 62.5383 200.698 62.624 200.543 62.7467C200.389 62.8695 200.265 63.0259 200.181 63.2039C200.007 63.7261 199.933 64.2762 199.963 64.8256V65.5627C199.946 66.0596 200.003 66.5564 200.132 67.0369C200.199 67.2132 200.305 67.3726 200.442 67.5034C200.579 67.6342 200.743 67.7334 200.923 67.7936C201.562 68.0006 202.232 68.0905 202.903 68.059C203.542 68.0739 204.181 68.0344 204.813 67.941C204.988 67.9201 205.158 67.8641 205.311 67.7762C205.464 67.6884 205.598 67.5706 205.704 67.43C205.913 67.0277 205.995 66.5723 205.941 66.1228H205.921ZM192.293 66.1228H193.907C193.948 66.7333 193.789 67.3406 193.451 67.8526C193.091 68.2794 192.589 68.565 192.036 68.6585C191.149 68.8256 190.247 68.8981 189.344 68.8747C188.454 68.8983 187.565 68.8225 186.692 68.6486C186.161 68.5535 185.67 68.3077 185.277 67.941C184.973 67.6202 184.773 67.2162 184.703 66.7813C184.611 66.1501 184.571 65.5124 184.584 64.8747C184.55 64.1654 184.686 63.4581 184.98 62.8108C185.297 62.2717 185.811 61.8742 186.415 61.7002C187.378 61.4209 188.381 61.2981 189.384 61.3366C190.472 61.2892 191.559 61.4425 192.59 61.7887C192.951 61.9265 193.257 62.1778 193.461 62.5043C193.665 62.8309 193.755 63.2146 193.719 63.5971V63.8821H192.155C192.174 63.5359 192.084 63.1924 191.898 62.8993C191.698 62.6495 191.412 62.4816 191.096 62.4275C190.591 62.3307 190.076 62.2879 189.562 62.2998C188.844 62.2743 188.125 62.3404 187.424 62.4963C187.231 62.5383 187.05 62.624 186.896 62.7467C186.741 62.8695 186.617 63.0259 186.534 63.2039C186.359 63.7261 186.285 64.2762 186.316 64.8256V65.5627C186.298 66.0596 186.355 66.5564 186.484 67.0369C186.552 67.2132 186.658 67.3726 186.794 67.5034C186.931 67.6342 187.096 67.7334 187.276 67.7936C187.914 68.0006 188.585 68.0905 189.255 68.059C189.894 68.0739 190.533 68.0344 191.165 67.941C191.341 67.9201 191.51 67.8641 191.663 67.7762C191.816 67.6884 191.95 67.5706 192.056 67.43C192.269 67.0288 192.355 66.5733 192.303 66.1228H192.293ZM178.745 64.4619C178.77 63.9666 178.706 63.4708 178.557 62.9975C178.479 62.8321 178.364 62.6872 178.219 62.5744C178.075 62.4617 177.906 62.3845 177.725 62.3489C177.053 62.2007 176.365 62.138 175.677 62.1622C175.04 62.1403 174.403 62.2098 173.787 62.3685C173.598 62.4159 173.422 62.5014 173.269 62.6199C173.115 62.7383 172.988 62.8869 172.896 63.0565C172.708 63.5006 172.624 63.9809 172.648 64.4619H178.745ZM178.745 66.5651H180.437C180.463 66.8484 180.427 67.1339 180.332 67.402C180.236 67.6701 180.083 67.9143 179.883 68.1179C179.463 68.4802 178.942 68.7065 178.389 68.7666C177.539 68.8782 176.682 68.9275 175.825 68.914C175 68.9285 174.175 68.866 173.361 68.7273C172.835 68.6468 172.335 68.4411 171.906 68.1278C171.559 67.8475 171.31 67.4658 171.194 67.0369C171.046 66.469 170.979 65.8835 170.996 65.2973C170.966 64.5307 171.06 63.7644 171.273 63.027C171.385 62.7416 171.557 62.4829 171.777 62.2679C171.997 62.0528 172.26 61.8862 172.549 61.7789C173.52 61.4345 174.549 61.2842 175.578 61.3366C176.605 61.3013 177.633 61.3971 178.636 61.6216C178.924 61.6818 179.196 61.8 179.436 61.9691C179.677 62.1381 179.879 62.3544 180.031 62.6044C180.324 63.2801 180.463 64.0118 180.437 64.7469V65.317H172.678C172.659 65.8243 172.699 66.3322 172.797 66.8305C172.854 67.0182 172.951 67.1913 173.083 67.3373C173.215 67.4834 173.377 67.5989 173.559 67.6757C174.188 67.9218 174.863 68.0291 175.538 67.9902H175.964C176.654 68.0134 177.344 67.9373 178.012 67.7641C178.221 67.6992 178.402 67.5677 178.527 67.3899C178.653 67.2121 178.715 66.9981 178.705 66.7813L178.745 66.5651ZM158.951 64.8747V65.4447C158.933 65.9243 159 66.4034 159.149 66.86C159.313 67.2407 159.623 67.5412 160.01 67.6953C160.641 67.9351 161.316 68.039 161.99 68C162.682 68.0368 163.375 67.9366 164.028 67.7052C164.213 67.6367 164.38 67.5292 164.519 67.39C164.657 67.2508 164.763 67.0834 164.83 66.8993C164.958 66.4052 165.015 65.8956 164.998 65.3857V64.9533C165.014 64.4218 164.964 63.8904 164.85 63.371C164.79 63.1843 164.688 63.0133 164.553 62.8704C164.418 62.7276 164.252 62.6166 164.068 62.5455C163.435 62.3167 162.762 62.2164 162.089 62.2506C161.418 62.2212 160.748 62.3111 160.109 62.516C159.918 62.5801 159.743 62.6857 159.597 62.825C159.452 62.9644 159.339 63.1341 159.268 63.3219C159.074 63.8152 158.961 64.3361 158.932 64.8649L158.951 64.8747ZM157.358 61.4349H158.922L158.872 62.4177C159.256 62.0159 159.747 61.7298 160.287 61.5921C160.935 61.4325 161.6 61.3565 162.267 61.3661C163.224 61.3196 164.18 61.4667 165.077 61.7985C165.356 61.905 165.61 62.0673 165.823 62.2752C166.035 62.4832 166.203 62.7324 166.315 63.0074C166.531 63.687 166.628 64.3984 166.602 65.1106C166.612 65.6605 166.569 66.2102 166.473 66.7518C166.393 67.1719 166.205 67.5644 165.929 67.8919C165.592 68.2616 165.156 68.5276 164.672 68.6585C163.948 68.862 163.197 68.9548 162.445 68.9337C161.737 68.9462 161.03 68.8803 160.337 68.7371C159.788 68.6264 159.285 68.3561 158.892 67.9607V72.0295H157.358V61.4349ZM143.958 61.4349H145.413V62.4177C145.829 61.9819 146.361 61.6718 146.947 61.5233C147.659 61.3477 148.39 61.2651 149.124 61.2776C149.907 61.2545 150.689 61.3371 151.45 61.5233C151.947 61.6444 152.384 61.9414 152.677 62.3587C152.957 62.8414 153.091 63.3943 153.063 63.9509V68.8649H151.42V64.0197C151.443 63.6296 151.375 63.2396 151.222 62.8796C151.14 62.7403 151.031 62.6195 150.899 62.5247C150.768 62.43 150.619 62.3634 150.46 62.3292C149.908 62.2048 149.343 62.1519 148.778 62.172C146.646 62.172 145.581 62.8796 145.581 64.2948V68.7961H143.968L143.958 61.4349ZM131.765 65.5332C131.765 66.6732 131.983 67.4005 132.418 67.7248C132.96 67.9817 133.562 68.0903 134.16 68.0393H134.942C135.492 68.0494 136.042 68.01 136.585 67.9214C136.954 67.8783 137.301 67.72 137.574 67.4693C137.818 67.1966 137.961 66.8502 137.98 66.4865C137.98 66.0934 137.98 65.5037 137.98 64.7961C138 64.2687 137.956 63.7409 137.852 63.2236C137.803 63.0552 137.715 62.9006 137.594 62.7725C137.474 62.6444 137.325 62.5464 137.159 62.4865C136.563 62.291 135.935 62.2077 135.308 62.2408H134.962C134.257 62.2152 133.552 62.2779 132.864 62.4275C132.676 62.4666 132.5 62.5493 132.35 62.6689C132.2 62.7884 132.081 62.9415 132.003 63.1155C131.83 63.6313 131.756 64.1746 131.785 64.7174L131.765 65.5332ZM130.132 64.914C130.1 64.1943 130.214 63.4756 130.469 62.801C130.6 62.5314 130.785 62.2912 131.013 62.0952C131.241 61.8991 131.507 61.7514 131.795 61.6609C132.739 61.3704 133.727 61.244 134.714 61.2875C135.766 61.2528 136.818 61.3586 137.842 61.602C138.144 61.6689 138.428 61.7979 138.677 61.9807C138.926 62.1636 139.134 62.3961 139.287 62.6634C139.581 63.352 139.713 64.0982 139.673 64.8452C139.698 65.6243 139.624 66.4035 139.455 67.1646C139.36 67.4533 139.204 67.7185 138.998 67.9423C138.791 68.1661 138.539 68.3433 138.257 68.4619C137.284 68.8485 136.236 69.0163 135.189 68.9533C134.157 68.9818 133.124 68.8927 132.111 68.688C131.494 68.5709 130.946 68.2181 130.587 67.7052C130.245 67.0655 130.088 66.3445 130.132 65.6216V64.914ZM118.137 64.914V65.484C118.119 65.9637 118.186 66.4428 118.335 66.8993C118.499 67.28 118.809 67.5805 119.196 67.7346C119.827 67.9745 120.501 68.0783 121.176 68.0393C121.868 68.0761 122.561 67.9759 123.214 67.7445C123.399 67.676 123.566 67.5685 123.705 67.4293C123.843 67.2901 123.949 67.1227 124.016 66.9386C124.144 66.4446 124.201 65.9349 124.184 65.4251V64.9926C124.2 64.4611 124.151 63.9297 124.036 63.4103C123.975 63.2236 123.874 63.0526 123.739 62.9098C123.604 62.7669 123.438 62.6559 123.254 62.5848C122.621 62.3563 121.948 62.256 121.275 62.2899C120.604 62.2606 119.934 62.3504 119.295 62.5553C119.103 62.6188 118.928 62.7241 118.783 62.8636C118.637 63.003 118.525 63.173 118.454 63.3612C118.264 63.842 118.15 64.3493 118.117 64.8649L118.137 64.914ZM116.554 61.4644H118.117L118.068 62.4472C118.452 62.0454 118.943 61.7593 119.483 61.6216C120.13 61.462 120.796 61.386 121.463 61.3956C122.419 61.3491 123.376 61.4962 124.273 61.828C124.552 61.9345 124.805 62.0968 125.018 62.3047C125.231 62.5127 125.399 62.7619 125.51 63.0369C125.726 63.7165 125.823 64.4279 125.797 65.14C125.812 65.673 125.775 66.2061 125.688 66.7322C125.608 67.1522 125.421 67.5448 125.144 67.8722C124.808 68.2419 124.371 68.508 123.887 68.6388C123.163 68.8425 122.413 68.9353 121.66 68.914C120.953 68.9264 120.246 68.8605 119.552 68.7174C119.004 68.6068 118.501 68.3365 118.108 67.941V72.0098H116.544L116.554 61.4644ZM104.312 65.5627C104.312 66.7027 104.529 67.43 104.965 67.7543C105.507 68.0112 106.108 68.1198 106.707 68.0688H107.488C108.038 68.0789 108.588 68.0394 109.131 67.9509C109.501 67.9084 109.848 67.7501 110.121 67.4988C110.364 67.2261 110.507 66.8797 110.527 66.516C110.527 66.1229 110.527 65.5332 110.527 64.8256C110.546 64.2982 110.503 63.7704 110.398 63.2531C110.349 63.0846 110.261 62.9301 110.141 62.8019C110.02 62.6738 109.871 62.5758 109.705 62.516C109.109 62.3205 108.481 62.2372 107.855 62.2703H107.508C106.804 62.2447 106.099 62.3074 105.41 62.457C105.222 62.4961 105.046 62.5788 104.896 62.6984C104.747 62.8179 104.628 62.971 104.549 63.145C104.376 63.6608 104.303 64.2041 104.331 64.7469L104.312 65.5627ZM102.679 61.6314C102.687 61.5761 102.687 61.5197 102.679 61.4644C102.674 61.4153 102.674 61.366 102.679 61.317C102.67 60.8835 102.825 60.4626 103.114 60.1376C103.486 59.753 103.959 59.4805 104.48 59.3513C105.247 59.1475 106.041 59.0548 106.835 59.0762H107.29H107.696H108.072C108.611 59.1039 109.15 59.0373 109.666 58.8796C109.803 58.8376 109.924 58.7528 110.009 58.6379C110.095 58.5229 110.141 58.3837 110.141 58.2408H111.883C111.883 58.4668 111.883 58.6437 111.883 58.7813C111.876 58.9201 111.835 59.0551 111.764 59.1744C111.66 59.3252 111.516 59.4443 111.348 59.5184C110.389 59.9305 109.341 60.0961 108.3 60H107.894H107.469C106.723 59.971 105.977 60.0639 105.262 60.2752C105.024 60.3478 104.819 60.4982 104.679 60.7016C104.539 60.9051 104.472 61.1497 104.49 61.3956V61.7592C105.405 61.4406 106.37 61.2875 107.34 61.3071C108.392 61.2726 109.444 61.3784 110.467 61.6216C110.753 61.696 111.022 61.8265 111.256 62.0054C111.491 62.1843 111.687 62.4081 111.833 62.6634C112.127 63.352 112.259 64.0982 112.219 64.8452C112.244 65.6243 112.171 66.4035 112.001 67.1646C111.907 67.4533 111.751 67.7185 111.544 67.9423C111.338 68.1661 111.085 68.3433 110.804 68.4619C109.83 68.8488 108.782 69.0166 107.736 68.9533C106.703 68.9817 105.67 68.8927 104.658 68.688C104.04 68.5719 103.492 68.2189 103.134 67.7052C102.79 67.0627 102.632 66.338 102.679 65.6118V61.6314ZM98.4725 61.4251V68.7961H96.988V67.8133C96.5753 68.2324 96.0551 68.5315 95.4837 68.6781C94.7552 68.8316 94.0113 68.9009 93.2668 68.8845C92.2825 68.9585 91.2981 68.7432 90.4363 68.2654C90.1277 68.0426 89.8819 67.7449 89.7225 67.4007C89.563 67.0565 89.4953 66.6774 89.5258 66.2998V61.3857H91.1885V66.2998C91.1741 66.6384 91.242 66.9755 91.3864 67.2826C91.5268 67.5367 91.7609 67.7269 92.0396 67.8133C92.5323 67.928 93.0381 67.9776 93.5439 67.9607C94.2102 67.9851 94.8766 67.9156 95.5232 67.7543C95.7251 67.7117 95.9165 67.6299 96.0863 67.5135C96.2562 67.3971 96.4012 67.2485 96.5129 67.0762C96.7142 66.6602 96.8062 66.2004 96.7801 65.7396V61.4349L98.4725 61.4251ZM77.9664 67.9607H80.8662H81.3313H81.8064C82.2876 67.9878 82.7687 67.9037 83.2117 67.715C83.5614 67.5643 83.7362 67.2072 83.7362 66.6437C83.7556 66.4422 83.7118 66.2396 83.6108 66.0637C83.5099 65.8877 83.3566 65.7471 83.1721 65.6609C82.6112 65.4926 82.0256 65.4195 81.4402 65.4447H77.9664V67.9607ZM83.2612 62.4963C82.7007 62.3101 82.1092 62.2334 81.5194 62.2703H79.8666H77.9565V64.5504H82.1429C82.4749 64.5552 82.8066 64.5255 83.1325 64.4619C83.2285 64.446 83.3201 64.4108 83.4018 64.3584C83.4835 64.306 83.5535 64.2375 83.6076 64.1572C83.7082 63.9424 83.7524 63.7057 83.7362 63.4693C83.7595 63.2803 83.727 63.0887 83.6427 62.9177C83.5583 62.7467 83.4258 62.6037 83.2612 62.5061V62.4963ZM76.4027 68.7961V61.4349H81.1532C81.8139 61.4283 82.4745 61.4545 83.1325 61.5135C83.6164 61.5567 84.0871 61.6936 84.5181 61.9165C84.7906 62.0791 85.009 62.3176 85.1463 62.6023C85.2835 62.8871 85.3335 63.2057 85.29 63.5184C85.3163 63.7082 85.3027 63.9013 85.25 64.0856C85.1973 64.2699 85.1068 64.4413 84.984 64.5891C84.8612 64.7369 84.709 64.8577 84.5368 64.9441C84.3646 65.0305 84.1763 65.0805 83.9837 65.0909C84.3646 65.1513 84.7135 65.3385 84.9733 65.6216C85.2 65.8995 85.3224 66.2469 85.3197 66.6044C85.3446 67.0366 85.2339 67.4658 85.003 67.8329C84.7772 68.1425 84.4585 68.373 84.0925 68.4914C83.6641 68.6357 83.218 68.7216 82.7663 68.7469C82.2715 68.7469 81.6183 68.7961 80.787 68.7961H76.4027ZM62.1218 61.4349V68.7961H60.6373V67.8133C60.2246 68.2324 59.7044 68.5315 59.133 68.6781C58.4045 68.8317 57.6606 68.901 56.9161 68.8845C55.9319 68.9585 54.9475 68.7432 54.0856 68.2654C53.777 68.0426 53.5312 67.7449 53.3718 67.4007C53.2123 67.0565 53.1446 66.6774 53.1751 66.2998V61.3857H54.8378V66.2998C54.8238 66.6383 54.8917 66.9753 55.0357 67.2826C55.115 67.4089 55.2188 67.5183 55.3412 67.6044C55.4635 67.6905 55.6019 67.7514 55.7483 67.7838C56.241 67.8986 56.7468 67.9481 57.2526 67.9312C57.9189 67.9558 58.5853 67.8863 59.2319 67.7248C59.4338 67.6822 59.6252 67.6004 59.795 67.484C59.9649 67.3676 60.1099 67.219 60.2216 67.0467C60.4229 66.6307 60.5149 66.1709 60.4888 65.7101V61.4349H62.1218ZM49.0185 61.4349V68.7961H47.5043V67.8133C47.0917 68.2324 46.5715 68.5315 46 68.6781C45.2716 68.8317 44.5276 68.901 43.7831 68.8845C42.7989 68.9585 41.8145 68.7432 40.9527 68.2654C40.6441 68.0426 40.3982 67.7449 40.2388 67.4007C40.0794 67.0565 40.0117 66.6774 40.0422 66.2998V61.3857H41.7048V66.2998C41.6909 66.6383 41.7587 66.9753 41.9028 67.2826C41.982 67.4089 42.0859 67.5183 42.2082 67.6044C42.3306 67.6905 42.469 67.7514 42.6153 67.7838C43.108 67.8986 43.6138 67.9481 44.1196 67.9312C44.7859 67.9558 45.4523 67.8863 46.099 67.7248C46.3008 67.6822 46.4922 67.6004 46.6621 67.484C46.8319 67.3676 46.9769 67.219 47.0886 67.0467C47.2896 66.6306 47.3815 66.1708 47.3559 65.7101V61.4349H49.0185ZM34.2823 64.3833V61.4349H35.8657V68.7961H34.2328V65.3268H28.3937V68.7961H26.7806V61.4349H28.3937V64.3833H34.2823ZM22.5645 61.4349V68.7961H21.08V67.8133C20.6674 68.2324 20.1472 68.5315 19.5757 68.6781C18.8473 68.8316 18.1034 68.9009 17.3589 68.8845C16.3746 68.9585 15.3902 68.7432 14.5284 68.2654C14.2205 68.042 13.9752 67.7441 13.8159 67.4001C13.6565 67.0561 13.5884 66.6773 13.6179 66.2998V61.3857H15.2806V66.2998C15.2666 66.6383 15.3345 66.9753 15.4785 67.2826C15.5578 67.4089 15.6616 67.5183 15.784 67.6044C15.9063 67.6905 16.0447 67.7514 16.191 67.7838C16.6837 67.8986 17.1896 67.9481 17.6954 67.9312C18.3616 67.9558 19.0281 67.8863 19.6747 67.7248C19.8766 67.6822 20.0679 67.6004 20.2378 67.484C20.4077 67.3676 20.5526 67.219 20.6644 67.0467C20.8653 66.6306 20.9572 66.1708 20.9316 65.7101V61.4349H22.5645ZM9.42169 68.7961H7.68976L4.72074 62.2506L1.61317 68.7961H0L3.55293 61.4152H5.81928L9.42169 68.7961Z" fill="#444850"/>
<path d="M292.696 4.68799H293.636C294.017 4.70644 294.399 4.68005 294.774 4.60937C294.92 4.56363 295.045 4.47006 295.13 4.34401C295.221 4.20352 295.266 4.03888 295.259 3.87227C295.268 3.68721 295.208 3.50537 295.091 3.36121C294.967 3.22564 294.799 3.13849 294.616 3.11551C294.51 3.11551 294.203 3.11551 293.695 3.11551H292.706L292.696 4.68799ZM291.429 8.28505V2.05409H294.101C294.595 2.03073 295.09 2.08715 295.566 2.22116C295.871 2.33273 296.13 2.54413 296.298 2.82067C296.484 3.11483 296.581 3.45617 296.575 3.80347C296.575 4.21294 296.424 4.60814 296.15 4.91404C295.82 5.24718 295.381 5.45275 294.913 5.49389C295.162 5.63349 295.389 5.80904 295.586 6.01477C295.855 6.32111 296.096 6.64993 296.308 6.99758L297.07 8.21625H295.556L294.646 6.87964C294.442 6.56065 294.217 6.25533 293.973 5.96564C293.866 5.8513 293.734 5.76371 293.587 5.71011C293.377 5.65505 293.16 5.63185 292.943 5.64131H292.686V8.28505H291.429Z" fill="#444850"/>
<path d="M297.08 1.90663C296.319 1.15421 295.32 0.686871 294.251 0.584218C293.182 0.481565 292.111 0.749943 291.219 1.34365C290.328 1.93735 289.671 2.81966 289.36 3.84031C289.05 4.86097 289.106 5.95685 289.518 6.94132C289.93 7.92579 290.673 8.73797 291.62 9.23953C292.568 9.7411 293.661 9.90103 294.714 9.6921C295.766 9.48316 296.714 8.91828 297.394 8.09366C298.075 7.26904 298.446 6.23566 298.446 5.16953C298.444 3.94513 297.953 2.77153 297.08 1.90663ZM293.784 7.86425e-07C294.991 -0.000659447 296.161 0.414417 297.094 1.17447C298.028 1.93452 298.667 2.99249 298.902 4.16803C299.138 5.34356 298.956 6.56388 298.387 7.62095C297.818 8.67802 296.897 9.5064 295.782 9.96486C294.667 10.4233 293.426 10.4835 292.271 10.1351C291.116 9.78673 290.119 9.05137 289.449 8.05438C288.779 7.05739 288.478 5.8605 288.597 4.66776C288.716 3.47501 289.248 2.36025 290.103 1.51351C290.586 1.03352 291.16 0.652802 291.792 0.393111C292.424 0.133421 293.101 -0.00015883 293.784 7.86425e-07Z" fill="#444850"/>
</svg>
