<svg width="258" height="93" viewBox="0 0 258 93" fill="none" xmlns="http://www.w3.org/2000/svg">
<path d="M38.2489 46.8407C38.1892 45.2831 38.1892 43.7255 38.3087 42.1679C38.8466 40.7301 39.6235 39.0527 40.6395 37.2554C40.8188 40.3707 41.4164 43.6057 42.4324 46.8407H45.8389C43.8667 43.0066 42.6117 38.9928 42.014 34.919C44.2851 31.5043 47.4525 27.7301 52.0543 24.1356C52.652 31.8038 56.955 40.3107 65.9195 46.8407H73.5692C73.4497 46.7808 73.3302 46.7209 73.2107 46.661C74.0474 44.4444 75.9 39.6518 78.7687 34.1402C81.1592 35.4582 83.7291 36.5365 86.538 37.3753C94.0682 39.6518 101.539 39.5919 107.336 37.6748C108.292 41.8684 108.651 45.2232 108.77 46.8407H113.91C113.193 42.8868 112.177 39.2923 111.041 36.0573C114.388 34.2001 116.838 31.4444 117.854 28.0895C118.272 26.7715 118.392 25.3937 118.332 24.0757C123.591 28.449 126.819 32.7623 127.894 34.26C129.209 38.3338 129.867 42.5872 129.926 46.9006H131.779C131.6 27.0112 118.033 8.3798 97.2357 2.14938C84.9841 -1.56492 72.0752 -0.426667 60.8994 5.26459C49.8431 10.8959 41.775 20.5411 38.1892 32.343C36.7548 37.0757 36.1572 41.9882 36.3365 46.8407H38.2489ZM68.6686 43.7255C60.481 37.8545 55.2218 30.0665 54.5644 22.2784C55.4011 21.6794 56.2378 21.1402 57.1342 20.5411C59.8236 18.8637 62.5727 17.4858 65.2621 16.4075C65.5012 21.919 69.326 27.6103 75.4219 31.9236C72.374 36.4766 70.103 40.7301 68.6686 43.7255ZM77.2148 29.2877C71.7763 25.3937 68.3698 20.3015 68.1308 15.389C71.8361 14.131 75.4219 13.4121 78.7089 12.9328C79.0077 15.6287 81.1592 18.5042 84.4462 20.7208C81.6971 23.4167 79.3066 26.3522 77.2148 29.2877ZM81.3385 11.2554C81.3385 11.0757 81.3983 10.9558 81.4581 10.7761C81.9959 9.03879 83.5498 7.78072 85.7013 7.12174C88.6895 8.43971 91.9167 10.3568 95.2635 12.9328C95.2635 12.9328 92.8132 9.57796 88.5102 6.58256C90.9007 6.34293 93.5901 6.64247 96.399 7.48118C97.2357 7.72082 98.0126 8.02036 98.7895 8.31989C96.1002 10.7162 95.2037 12.9328 95.2037 12.9328C96.9368 11.0757 98.8493 9.93741 100.642 9.21851C103.63 10.836 105.782 12.9328 106.678 15.0895C100.104 12.9328 95.1439 12.9328 95.1439 12.9328C99.5665 13.7116 103.511 15.0895 107.097 16.8268C107.156 17.4259 107.097 17.9651 106.917 18.5042C106.439 20.0019 105.244 21.1402 103.511 21.8591C99.0883 15.8084 95.1439 12.9328 95.1439 12.9328C97.8333 15.9282 99.9848 19.1632 101.718 22.4582C99.0286 23.0573 95.5623 22.9374 91.9765 21.8591C90.4824 21.3798 89.1078 20.8407 87.8528 20.1817C90.064 17.4858 92.5143 15.0296 95.1439 12.9927C91.9167 14.5503 88.8688 16.6471 86.1196 19.1632C83.3705 17.3061 81.5178 14.9697 81.219 12.7531C88.2711 12.0941 93.5901 12.8729 95.1439 12.9927C92.4546 11.9743 87.4344 11.1356 81.3385 11.2554ZM87.6735 34.3799C85.0439 33.6011 82.5936 32.5227 80.3823 31.3246C82.1155 28.2093 84.1474 25.0342 86.4184 21.9789C87.8528 22.7577 89.4664 23.4167 91.1398 23.9559C95.4428 25.2738 99.6262 25.3338 102.853 24.495C104.527 28.0296 105.782 31.5043 106.678 34.6794C101.419 36.4167 94.6061 36.4766 87.6735 34.3799ZM116.121 26.0527C115.225 29.108 113.013 31.5043 109.965 33.2416C108.411 29.5872 106.619 26.4121 104.885 23.7761C106.798 22.8775 108.172 21.4996 108.71 19.7623C108.89 19.1033 108.949 18.3844 108.89 17.6655C111.758 19.1632 114.268 20.8407 116.539 22.578C116.599 23.7162 116.48 24.9144 116.121 26.0527ZM124.189 25.5734C122.097 23.5365 119.946 21.8591 117.735 20.4213C116.778 17.4259 114.926 14.4904 112.296 11.8545C117.197 15.6886 121.261 20.3614 124.189 25.5734ZM108.651 9.27842C112.356 12.2139 114.926 15.7485 116.001 19.2831C113.372 17.7254 110.802 16.5273 108.411 15.6287C107.395 13.1125 105.005 10.6563 101.718 8.73925C103.69 8.14017 105.423 8.02036 106.619 8.02036C107.336 8.49962 108.053 8.85907 108.651 9.27842ZM84.2072 1.84984C88.4504 1.96965 92.6936 2.62864 96.8173 3.88671C98.67 4.42588 100.463 5.14477 102.196 5.86367C101.18 6.46275 100.284 7.06183 99.5067 7.72082C98.5505 7.30146 97.4747 6.8821 96.399 6.58256C93.0522 5.56413 89.7652 5.26459 86.9563 5.62404C84.8646 4.36597 82.4143 3.22772 79.6651 2.62864C81.0995 2.20928 82.5936 1.96965 84.2072 1.84984ZM79.1273 1.96965C78.7687 2.02956 78.3503 2.14938 77.9918 2.20928C77.7527 2.14938 77.5734 2.14938 77.3344 2.14938C77.932 2.08947 78.5296 2.02956 79.1273 1.96965ZM83.6693 6.28302C81.219 7.18164 79.4261 8.67934 78.8285 10.7162C78.7687 10.8959 78.7089 11.1356 78.7089 11.3153C75.4219 11.495 71.8959 11.9743 68.2503 12.8729C68.31 12.4535 68.4296 12.0342 68.5491 11.6148C69.5053 8.43971 71.8959 5.92358 75.1829 4.18625C77.6929 4.48579 80.5616 5.08487 83.6693 6.28302ZM61.9153 6.8821C63.6485 5.98348 65.3816 5.26459 67.1745 4.6056C68.7284 4.30606 70.7006 4.06643 73.0314 4.12634C69.4456 6.04339 66.816 8.79916 65.7402 12.3337C65.6207 12.7531 65.5012 13.2323 65.4414 13.6517C61.7958 14.73 58.1502 16.2277 54.6242 18.2646C54.7437 17.2462 54.923 16.2277 55.2816 15.2093C55.9987 12.7531 57.2538 10.5365 58.8674 8.61943C59.8236 8.02036 60.8396 7.42128 61.9153 6.8821ZM41.8347 27.9697C44.8229 21.1402 49.5443 15.2692 55.5804 10.7761C53.7277 13.2923 52.5922 16.3476 52.1739 19.7623C48.4685 22.2185 44.8827 25.2738 41.775 29.1679C41.775 28.7485 41.775 28.3292 41.8347 27.9697ZM40.9383 30.1863C40.9383 30.1863 40.9383 30.2462 40.9383 30.1863V30.1863Z" fill="#ADBBD7"/>
<path d="M72.2545 55.7071L63.1705 72.661C62.3935 74.0988 61.6764 74.9375 59.8237 74.9375H57.4332H56.1184L56.716 71.5827H58.0308C58.9272 71.5827 59.4054 71.343 59.7639 70.5043L60.003 69.9053L56.4769 57.2647C56.2976 56.6656 56.0586 55.7071 56.0586 55.7071H60.0628H61.1983L63.3498 63.9744L66.577 57.3246C66.6368 57.1449 67.3539 55.6472 67.3539 55.6472H70.6409L72.2545 55.7071Z" fill="#ADBBD7"/>
<path d="M148.513 55.7071L140.564 62.7762L142.596 70.8039L143.672 74.9375H140.266H139.13L136.799 65.4721L134.708 67.2693L133.393 72.9606L132.974 74.8776H129.209H128.134L132.138 57.5642L132.556 55.6472H136.321H137.397L135.963 61.7578L141.282 57.1449C141.461 56.9652 143.074 55.5873 143.074 55.5873H145.704H148.513V55.7071Z" fill="#ADBBD7"/>
<path d="M145.883 66.4306L146.601 63.3154H153.712L152.995 66.4306H145.883Z" fill="#ADBBD7"/>
<path d="M185.566 57.6241L185.268 58.8222H178.335L177.498 62.7762H183.953L183.236 65.9513H181.562H178.036H176.781L176.542 67.0296L175.586 71.343H182.817L181.981 74.9375H180.008H171.283H169.849L173.853 57.5642L174.271 55.707H186.045L185.566 57.6241Z" fill="#ADBBD7"/>
<path d="M242.402 57.6241L242.103 58.8222H235.17L234.334 62.7762H240.788L240.071 65.9513H238.398H234.872H233.616L233.377 67.0296L232.421 71.343H239.593L238.756 74.9375H236.784H228.058H226.624L230.628 57.5642L231.047 55.707H242.82L242.402 57.6241Z" fill="#ADBBD7"/>
<path d="M34.3046 57.4444L33.8863 59.002H30.2407C27.6111 59.002 26.5354 59.9006 25.2803 65.4721C24.862 67.2693 24.6229 68.6472 24.6229 69.426C24.6229 70.8638 25.3998 71.2831 27.2525 71.2831H32.452L31.675 74.8776H29.5235H24.8022C21.3359 74.8776 19.7223 73.5596 19.7223 69.6656C19.7223 68.4076 20.0211 66.79 20.4992 64.9329C22.7105 56.7255 24.9217 55.6472 28.6868 55.6472H34.6632L34.3046 57.4444Z" fill="#ADBBD7"/>
<path d="M257.641 57.4444L257.223 59.002H253.578C250.948 59.002 249.872 59.9006 248.617 65.4721C248.199 67.2693 247.96 68.6472 247.96 69.426C247.96 70.8638 248.737 71.2831 250.589 71.2831H255.789L255.012 74.8776H252.86H248.139C244.673 74.8776 243.059 73.5596 243.059 69.6656C243.059 68.4076 243.358 66.79 243.836 64.9329C246.047 56.7255 248.259 55.6472 252.024 55.6472H258L257.641 57.4444Z" fill="#ADBBD7"/>
<path d="M126.819 55.7071L122.815 73.0205L122.336 74.9375H118.571H117.496L117.854 73.4398L120.065 63.9145L111.878 74.8776H108.113H107.037L111.041 57.5642C111.041 57.4444 111.46 55.6472 111.46 55.6472H115.225H116.3L113.79 66.7301L121.978 55.6472H125.743H126.819V55.7071Z" fill="#ADBBD7"/>
<path d="M170.506 59.0619H163.155L159.808 73.0204L159.33 74.9375H155.565H154.489L158.494 57.5642L158.912 55.707H171.223L170.506 59.0619Z" fill="#ADBBD7"/>
<path d="M202.121 62.7163C201.225 66.4905 199.79 68.1679 195.846 68.1679H191.662L190.527 73.0204L190.049 74.9375H186.284H185.208L189.212 57.5642L189.63 55.707H197.878C200.926 55.707 202.539 56.9651 202.539 59.9006C202.48 60.4997 202.36 61.6379 202.121 62.7163ZM195.368 58.9421H193.694L192.32 64.9928H194.471C196.324 64.9928 196.742 64.2739 197.28 61.7577C197.4 61.2186 197.459 60.8591 197.459 60.3799C197.459 59.4213 196.922 58.9421 195.368 58.9421Z" fill="#ADBBD7"/>
<path d="M223.457 74.9375H219.632H218.915L218.676 63.1955L213.954 74.9375H210.488L209.293 63.3753L205.707 73.32L205.109 74.9375H202.539H201.105L207.619 57.3845L208.217 55.7669H211.384H212.46L213.715 66.4905L217.6 57.025L218.138 55.7669H222.082H223.337L223.457 73.1402V74.9375Z" fill="#ADBBD7"/>
<path d="M105.782 57.2047L102.136 73.0204L101.658 74.9375H97.9529H96.8772L98.9091 65.8914H93.2913L91.6777 72.7808L91.1996 74.9375H87.4943H86.4185L90.4227 57.6241C90.4227 57.5043 90.841 55.707 90.841 55.707H95.6819L95.3233 57.2047L94.0085 62.7163H99.6861L100.881 57.684C100.881 57.5642 101.3 55.7669 101.3 55.7669H106.081L105.782 57.2047Z" fill="#ADBBD7"/>
<path d="M87.3747 57.684L87.0162 59.1817H82.6534L79.4859 72.9606L79.0676 74.8776H75.3025H74.2267L74.5256 73.3799L77.7528 59.1218H75.0634C74.1072 59.1218 72.8522 59.1218 72.8522 59.1218L73.6889 55.6472H75.7208H85.5818C86.5381 55.6472 87.7333 55.6472 87.7333 55.6472L87.3747 57.684Z" fill="#ADBBD7"/>
<path d="M54.2059 55.707L50.2615 73.0204L49.8432 74.9375H46.078H45.0023L45.3609 73.4398L48.6479 59.3015H43.1496L39.8029 73.0204C39.7431 73.32 39.3247 74.9375 39.3247 74.9375H35.5596H34.4839L34.8425 73.4398L38.4881 57.5642C38.5478 57.3245 38.9064 55.707 38.9064 55.707H52.9509H54.2059Z" fill="#ADBBD7"/>
<path d="M58.3296 83.6242H62.0349V88.0574H62.513V90.1542H61.6166V88.956H58.2698V90.1542H57.3136V88.0574H57.7917C58.0308 87.5781 58.1503 87.039 58.2101 86.4399C58.2698 85.8408 58.3296 85.062 58.3296 84.1634V83.6242ZM59.3456 84.5228C59.3456 86.1403 59.226 87.3385 58.9272 88.0574H60.9592V84.5228H59.3456Z" fill="#ADBBD7"/>
<path d="M63.5887 86.3799C63.5887 85.8408 63.6485 85.3615 63.8278 85.0021C63.9473 84.7025 64.1266 84.4629 64.3059 84.2832C64.545 84.0435 64.7243 83.9237 65.0231 83.8039C65.3817 83.6841 65.7402 83.5643 66.1586 83.5643C66.9355 83.5643 67.5929 83.8039 68.071 84.2832C68.5491 84.7624 68.7882 85.4813 68.7882 86.32C68.7882 87.1587 68.5491 87.8776 68.071 88.3569C67.5929 88.8362 66.9953 89.0758 66.2183 89.0758C65.4414 89.0758 64.784 88.8362 64.3059 88.3569C63.8278 87.8776 63.5887 87.2187 63.5887 86.3799ZM64.7243 86.32C64.7243 86.9191 64.8438 87.3984 65.1426 87.6979C65.4414 87.9975 65.8 88.1772 66.2183 88.1772C66.6367 88.1772 66.9953 87.9975 67.2941 87.6979C67.5929 87.3984 67.7124 86.9191 67.7124 86.32C67.7124 85.721 67.5929 85.2417 67.2941 84.9421C66.9953 84.6426 66.6965 84.4629 66.2183 84.4629C65.8 84.4629 65.4414 84.6426 65.1426 84.9421C64.8438 85.2417 64.7243 85.721 64.7243 86.32Z" fill="#ADBBD7"/>
<path d="M70.2823 83.6242H72.4338C72.8521 83.6242 73.1509 83.6242 73.39 83.6841C73.6291 83.744 73.8083 83.8039 73.9279 83.9237C74.0474 84.0436 74.2267 84.1634 74.3462 84.3431C74.4657 84.5228 74.5255 84.7625 74.5255 84.9422C74.5255 85.1818 74.4657 85.4215 74.3462 85.6611C74.2267 85.8408 74.0474 86.0205 73.8083 86.1403C74.1072 86.2602 74.406 86.38 74.5853 86.6196C74.7646 86.8592 74.8243 87.0989 74.8243 87.3984C74.8243 87.638 74.7646 87.8777 74.645 88.1173C74.5255 88.3569 74.406 88.5367 74.1669 88.6565C73.9876 88.7763 73.7486 88.8961 73.4498 88.8961C73.2705 88.8961 72.8521 88.956 72.135 88.956H70.3421V83.6242H70.2823ZM71.358 84.5228V85.7809H72.0752C72.4935 85.7809 72.7326 85.7809 72.8521 85.7809C73.0314 85.7809 73.2107 85.721 73.2705 85.6012C73.39 85.4814 73.4498 85.3615 73.4498 85.1818C73.4498 85.0021 73.39 84.8823 73.3302 84.7625C73.2107 84.6426 73.0912 84.5827 72.9119 84.5827C72.7924 84.5827 72.4935 84.5827 72.0154 84.5827H71.358V84.5228ZM71.358 86.6795V88.1173H72.374C72.7924 88.1173 73.0314 88.1173 73.0912 88.0574C73.2705 88.0574 73.39 87.9376 73.5095 87.8178C73.6291 87.6979 73.6888 87.5781 73.6888 87.3385C73.6888 87.1588 73.6291 87.039 73.5693 86.9191C73.5095 86.7993 73.39 86.7394 73.2107 86.6795C73.0314 86.6196 72.7326 86.6196 72.2545 86.6196H71.358V86.6795Z" fill="#ADBBD7"/>
<path d="M76.3185 89.0159V83.6841H80.2629V84.5827H77.3942V85.7809H80.0836V86.6795H77.3942V88.1173H80.3824V89.0159H76.3185Z" fill="#ADBBD7"/>
<path d="M81.9363 89.0159V83.6841H83.6694C84.3268 83.6841 84.7452 83.6841 84.9245 83.744C85.2233 83.8039 85.4623 83.9836 85.7014 84.2832C85.8807 84.5228 86.0002 84.8822 86.0002 85.3016C86.0002 85.6011 85.9404 85.9007 85.8209 86.1403C85.7014 86.3799 85.5221 86.5597 85.3428 86.6795C85.1635 86.7993 84.9842 86.9191 84.8049 86.9191C84.5659 86.979 84.1475 86.979 83.6694 86.979H83.012V89.0159H81.9363ZM83.012 84.5827V86.0804H83.6097C84.028 86.0804 84.3268 86.0804 84.4464 86.0205C84.5659 85.9606 84.6854 85.9007 84.8049 85.7809C84.8647 85.661 84.9245 85.5412 84.9245 85.3615C84.9245 85.1818 84.8647 85.0021 84.7452 84.8822C84.6256 84.7624 84.5061 84.7025 84.3268 84.6426C84.2073 84.6426 83.9682 84.5827 83.5499 84.5827H83.012Z" fill="#ADBBD7"/>
<path d="M87.6138 83.6242H88.6895V85.7809H90.1238C90.7812 85.7809 91.3191 85.9606 91.6179 86.2602C91.9168 86.5597 92.096 86.9791 92.096 87.3984C92.096 87.7579 91.9765 88.0574 91.7972 88.3569C91.6179 88.5966 91.3789 88.7763 91.1398 88.8961C90.9008 89.0159 90.5422 89.0159 90.1238 89.0159H87.6138V83.6242ZM88.6895 88.1173H89.7653C90.1238 88.1173 90.3629 88.1173 90.4824 88.0574C90.602 87.9975 90.7215 87.9376 90.841 87.8178C90.9605 87.6979 91.0203 87.5781 91.0203 87.3984C91.0203 87.1588 90.9605 86.9791 90.7812 86.8592C90.602 86.7394 90.3031 86.6795 89.8848 86.6795H88.809V88.1173H88.6895Z" fill="#ADBBD7"/>
<path d="M94.0085 89.0159V84.5827H92.3949V83.6841H96.6381V84.5827H95.0843V89.0159H94.0085Z" fill="#ADBBD7"/>
<path d="M98.0127 89.0159V83.6841H101.957V84.5827H99.0884V85.7809H101.778V86.6795H99.0884V88.1173H102.077V89.0159H98.0127Z" fill="#ADBBD7"/>
<path d="M109.786 87.039L110.862 87.3984C110.683 87.9975 110.444 88.4168 110.085 88.7164C109.726 89.0159 109.248 89.1357 108.651 89.1357C107.933 89.1357 107.336 88.8961 106.917 88.4168C106.499 87.9376 106.26 87.2786 106.26 86.4399C106.26 85.5413 106.499 84.8823 106.977 84.3431C107.455 83.8638 108.053 83.6242 108.77 83.6242C109.428 83.6242 109.965 83.8039 110.384 84.2233C110.623 84.4629 110.802 84.7625 110.922 85.1818L109.846 85.4214C109.786 85.1219 109.667 84.9422 109.428 84.7625C109.248 84.5827 109.009 84.5228 108.71 84.5228C108.292 84.5228 107.993 84.6426 107.754 84.9422C107.515 85.2417 107.396 85.6611 107.396 86.3201C107.396 86.9791 107.515 87.4583 107.754 87.7579C107.993 88.0574 108.292 88.1772 108.71 88.1772C109.009 88.1772 109.248 88.0574 109.428 87.8777C109.607 87.698 109.726 87.4583 109.786 87.039Z" fill="#ADBBD7"/>
<path d="M112.416 83.6242H114.567C114.986 83.6242 115.284 83.6242 115.523 83.6841C115.762 83.744 115.942 83.8039 116.061 83.9237C116.181 84.0436 116.36 84.1634 116.48 84.3431C116.599 84.5228 116.659 84.7625 116.659 84.9422C116.659 85.1818 116.599 85.4215 116.48 85.6611C116.36 85.8408 116.181 86.0205 115.942 86.1403C116.241 86.2602 116.539 86.38 116.719 86.6196C116.898 86.8592 116.958 87.0989 116.958 87.3984C116.958 87.638 116.898 87.8777 116.778 88.1173C116.659 88.3569 116.539 88.5367 116.3 88.6565C116.121 88.7763 115.882 88.8961 115.583 88.8961C115.404 88.8961 114.986 88.956 114.268 88.956H112.475V83.6242H112.416ZM113.491 84.5228V85.7809H114.209C114.627 85.7809 114.866 85.7809 114.986 85.7809C115.165 85.7809 115.344 85.721 115.404 85.6012C115.523 85.4814 115.583 85.3615 115.583 85.1818C115.583 85.0021 115.523 84.8823 115.464 84.7625C115.344 84.6426 115.225 84.5827 115.045 84.5827C114.926 84.5827 114.627 84.5827 114.149 84.5827H113.491V84.5228ZM113.491 86.6795V88.1173H114.507C114.926 88.1173 115.165 88.1173 115.225 88.0574C115.404 88.0574 115.523 87.9376 115.643 87.8178C115.762 87.6979 115.822 87.5781 115.822 87.3385C115.822 87.1588 115.762 87.039 115.703 86.9191C115.643 86.7993 115.523 86.7394 115.344 86.6795C115.165 86.6196 114.866 86.6196 114.388 86.6196H113.491V86.6795Z" fill="#ADBBD7"/>
<path d="M118.034 86.3799C118.034 85.8408 118.093 85.3615 118.273 85.0021C118.392 84.7025 118.571 84.4629 118.751 84.2832C118.99 84.0435 119.169 83.9237 119.468 83.8039C119.826 83.6841 120.185 83.5643 120.603 83.5643C121.38 83.5643 122.038 83.8039 122.516 84.2832C122.994 84.7624 123.233 85.4813 123.233 86.32C123.233 87.1587 122.994 87.8776 122.516 88.3569C122.038 88.8362 121.44 89.0758 120.663 89.0758C119.886 89.0758 119.229 88.8362 118.751 88.3569C118.273 87.8776 118.034 87.2187 118.034 86.3799ZM119.169 86.32C119.169 86.9191 119.289 87.3984 119.587 87.6979C119.886 87.9975 120.245 88.1772 120.663 88.1772C121.081 88.1772 121.44 87.9975 121.739 87.6979C122.038 87.3984 122.157 86.9191 122.157 86.32C122.157 85.721 122.038 85.2417 121.739 84.9421C121.44 84.6426 121.141 84.4629 120.663 84.4629C120.245 84.4629 119.886 84.6426 119.587 84.9421C119.289 85.2417 119.169 85.721 119.169 86.32Z" fill="#ADBBD7"/>
<path d="M124.727 83.6242H125.743V87.2187L127.895 83.6242H128.97V88.956H127.954V85.4813L125.803 88.956H124.727V83.6242ZM127.476 82.3062H127.954C127.954 82.6657 127.835 82.9053 127.596 83.085C127.416 83.2647 127.118 83.3846 126.819 83.3846C126.52 83.3846 126.221 83.2647 126.042 83.085C125.863 82.9053 125.743 82.6657 125.683 82.3062H126.161C126.161 82.4859 126.221 82.6058 126.341 82.7256C126.46 82.7855 126.58 82.8454 126.819 82.8454C126.998 82.8454 127.177 82.7855 127.297 82.7256C127.416 82.6058 127.476 82.4859 127.476 82.3062Z" fill="#ADBBD7"/>
<path d="M133.213 86.3799C133.213 85.8408 133.273 85.3615 133.452 85.0021C133.572 84.7025 133.751 84.4629 133.931 84.2832C134.17 84.0435 134.349 83.9237 134.648 83.8039C135.006 83.6841 135.365 83.5643 135.783 83.5643C136.56 83.5643 137.218 83.8039 137.696 84.2832C138.174 84.7624 138.413 85.4813 138.413 86.32C138.413 87.1587 138.174 87.8776 137.696 88.3569C137.218 88.8362 136.62 89.0758 135.843 89.0758C135.066 89.0758 134.409 88.8362 133.931 88.3569C133.452 87.8776 133.213 87.2187 133.213 86.3799ZM134.349 86.32C134.349 86.9191 134.468 87.3984 134.767 87.6979C135.066 87.9975 135.425 88.1772 135.843 88.1772C136.261 88.1772 136.62 87.9975 136.919 87.6979C137.218 87.3984 137.337 86.9191 137.337 86.32C137.337 85.721 137.218 85.2417 136.919 84.9421C136.62 84.6426 136.321 84.4629 135.843 84.4629C135.425 84.4629 135.066 84.6426 134.767 84.9421C134.468 85.2417 134.349 85.721 134.349 86.32Z" fill="#ADBBD7"/>
<path d="M141.102 89.0159V84.5827H139.489V83.6841H143.732V84.5827H142.178V89.0159H141.102Z" fill="#ADBBD7"/>
<path d="M145.346 83.6242H149.051V88.0574H149.529V90.1542H148.633V88.956H145.286V90.1542H144.389V88.0574H144.867C145.106 87.5781 145.226 87.039 145.286 86.4399C145.346 85.8408 145.405 85.062 145.405 84.1634V83.6242H145.346ZM146.361 84.5228C146.361 86.1403 146.242 87.3385 145.943 88.0574H147.975V84.5228H146.361Z" fill="#ADBBD7"/>
<path d="M150.904 83.6242H151.979V85.7809H153.414C153.772 85.7809 154.131 85.8408 154.37 85.9606C154.669 86.0804 154.848 86.2602 155.027 86.4998C155.206 86.7394 155.326 87.0989 155.326 87.3984C155.326 87.7579 155.206 88.0574 155.027 88.3569C154.848 88.5966 154.609 88.7763 154.37 88.8961C154.131 88.956 153.772 89.0159 153.354 89.0159H150.844V83.6242H150.904ZM151.979 88.1173H153.055C153.414 88.1173 153.653 88.1173 153.772 88.0574C153.892 87.9975 154.011 87.9376 154.131 87.8178C154.25 87.6979 154.31 87.5781 154.31 87.3984C154.31 87.1588 154.25 86.9791 154.071 86.8592C153.892 86.7394 153.593 86.6795 153.175 86.6795H152.099V88.1173H151.979ZM155.983 83.6242H157.059V88.956H155.983V83.6242Z" fill="#ADBBD7"/>
<path d="M158.314 89.0159L160.167 86.2003L158.493 83.6242H159.749L160.824 85.3615L161.9 83.6242H163.155L161.482 86.2003L163.334 88.956H162.02L160.824 87.0989L159.629 88.956H158.314V89.0159Z" fill="#ADBBD7"/>
<path d="M167.159 83.6242H171.402V88.956H170.327V84.5228H168.235V88.956H167.159V83.6242Z" fill="#ADBBD7"/>
<path d="M173.195 89.0159V83.6841H174.929C175.586 83.6841 176.004 83.6841 176.184 83.744C176.482 83.8039 176.721 83.9836 176.96 84.2832C177.14 84.5228 177.259 84.8822 177.259 85.3016C177.259 85.6011 177.2 85.9007 177.08 86.1403C176.96 86.3799 176.781 86.5597 176.602 86.6795C176.423 86.7993 176.243 86.9191 176.064 86.9191C175.825 86.979 175.407 86.979 174.929 86.979H174.211V89.0159H173.195ZM174.271 84.5827V86.0804H174.869C175.287 86.0804 175.586 86.0804 175.705 86.0205C175.825 85.9606 175.945 85.9007 176.064 85.7809C176.124 85.661 176.184 85.5412 176.184 85.3615C176.184 85.1818 176.124 85.0021 176.004 84.8822C175.885 84.7624 175.765 84.7025 175.586 84.6426C175.466 84.6426 175.227 84.5827 174.809 84.5827H174.271Z" fill="#ADBBD7"/>
<path d="M178.514 86.3799C178.514 85.8408 178.574 85.3615 178.753 85.0021C178.873 84.7025 179.052 84.4629 179.232 84.2832C179.471 84.0435 179.65 83.9237 179.949 83.8039C180.307 83.6841 180.666 83.5643 181.084 83.5643C181.861 83.5643 182.519 83.8039 182.997 84.2832C183.475 84.7624 183.714 85.4813 183.714 86.32C183.714 87.1587 183.475 87.8776 182.997 88.3569C182.519 88.8362 181.921 89.0758 181.144 89.0758C180.367 89.0758 179.71 88.8362 179.232 88.3569C178.753 87.8776 178.514 87.2187 178.514 86.3799ZM179.59 86.32C179.59 86.9191 179.71 87.3984 180.008 87.6979C180.307 87.9975 180.666 88.1772 181.084 88.1772C181.503 88.1772 181.861 87.9975 182.16 87.6979C182.459 87.3984 182.578 86.9191 182.578 86.32C182.578 85.721 182.459 85.2417 182.16 84.9421C181.861 84.6426 181.562 84.4629 181.084 84.4629C180.666 84.4629 180.307 84.6426 180.008 84.9421C179.71 85.2417 179.59 85.721 179.59 86.32Z" fill="#ADBBD7"/>
<path d="M188.316 88.3569V88.956H187.24V88.3569C186.403 88.297 185.805 88.1173 185.447 87.6979C185.088 87.2786 184.909 86.7993 184.909 86.2002C184.909 85.6011 185.088 85.062 185.447 84.7025C185.805 84.3431 186.403 84.1034 187.24 84.1034V83.5643H188.316V84.1034C189.152 84.1633 189.75 84.3431 190.108 84.7025C190.467 85.062 190.646 85.6011 190.646 86.2002C190.646 86.7993 190.467 87.2786 190.108 87.6979C189.75 88.1173 189.212 88.3569 188.316 88.3569ZM187.3 87.4583V85.062C186.821 85.062 186.523 85.1818 186.343 85.3615C186.164 85.5412 186.045 85.9007 186.045 86.2601C185.985 87.0988 186.403 87.4583 187.3 87.4583ZM188.316 87.4583C188.614 87.4583 188.853 87.3984 189.033 87.3385C189.212 87.2186 189.391 87.0988 189.451 86.979C189.511 86.8592 189.571 86.5597 189.571 86.2601C189.571 85.4813 189.152 85.1219 188.256 85.1219V87.4583H188.316Z" fill="#ADBBD7"/>
<path d="M192.2 89.0159V83.6841H196.145V84.5827H193.276V85.7809H195.965V86.6795H193.276V88.1173H196.264V89.0159H192.2Z" fill="#ADBBD7"/>
<path d="M201.225 87.039L202.3 87.3984C202.121 87.9975 201.882 88.4168 201.523 88.7164C201.165 89.0159 200.687 89.1357 200.089 89.1357C199.372 89.1357 198.774 88.8961 198.356 88.4168C197.938 87.9376 197.698 87.2786 197.698 86.4399C197.698 85.5413 197.938 84.8823 198.416 84.3431C198.894 83.8638 199.491 83.6242 200.209 83.6242C200.866 83.6242 201.404 83.8039 201.822 84.2233C202.061 84.4629 202.241 84.7625 202.36 85.1818L201.284 85.4214C201.225 85.1219 201.105 84.9422 200.866 84.7625C200.687 84.5827 200.448 84.5228 200.149 84.5228C199.73 84.5228 199.432 84.6426 199.193 84.9422C198.954 85.2417 198.834 85.6611 198.834 86.3201C198.834 86.9791 198.954 87.4583 199.193 87.7579C199.432 88.0574 199.73 88.1772 200.149 88.1772C200.448 88.1772 200.687 88.0574 200.866 87.8777C201.045 87.698 201.165 87.4583 201.225 87.039Z" fill="#ADBBD7"/>
<path d="M207.261 87.039L208.336 87.3984C208.157 87.9975 207.918 88.4168 207.559 88.7164C207.201 89.0159 206.723 89.1357 206.125 89.1357C205.408 89.1357 204.81 88.8961 204.392 88.4168C203.974 87.9376 203.735 87.2786 203.735 86.4399C203.735 85.5413 203.974 84.8823 204.452 84.3431C204.93 83.8638 205.528 83.6242 206.245 83.6242C206.902 83.6242 207.44 83.8039 207.858 84.2233C208.097 84.4629 208.277 84.7625 208.396 85.1818L207.32 85.4214C207.261 85.1219 207.141 84.9422 206.902 84.7625C206.723 84.5827 206.484 84.5228 206.185 84.5228C205.767 84.5228 205.468 84.6426 205.229 84.9422C204.99 85.2417 204.87 85.6611 204.87 86.3201C204.87 86.9791 204.99 87.4583 205.229 87.7579C205.468 88.0574 205.767 88.1772 206.185 88.1772C206.484 88.1772 206.723 88.0574 206.902 87.8777C207.081 87.698 207.201 87.4583 207.261 87.039Z" fill="#ADBBD7"/>
<path d="M209.89 83.6242H210.906V87.2187L213.058 83.6242H214.133V88.956H213.118V85.4814L210.966 88.956H209.89V83.6242Z" fill="#ADBBD7"/>
<path d="M215.687 86.3799C215.687 85.8408 215.747 85.3615 215.926 85.0021C216.046 84.7025 216.225 84.4629 216.405 84.2832C216.644 84.0435 216.823 83.9237 217.122 83.8039C217.48 83.6841 217.839 83.5643 218.257 83.5643C219.034 83.5643 219.692 83.8039 220.17 84.2832C220.648 84.7624 220.887 85.4813 220.887 86.32C220.887 87.1587 220.648 87.8776 220.17 88.3569C219.692 88.8362 219.094 89.0758 218.317 89.0758C217.54 89.0758 216.883 88.8362 216.405 88.3569C215.926 87.8776 215.687 87.2187 215.687 86.3799ZM216.763 86.32C216.763 86.9191 216.883 87.3984 217.181 87.6979C217.48 87.9975 217.839 88.1772 218.257 88.1772C218.676 88.1772 219.034 87.9975 219.333 87.6979C219.632 87.3984 219.751 86.9191 219.751 86.32C219.751 85.721 219.632 85.2417 219.333 84.9421C219.034 84.6426 218.735 84.4629 218.257 84.4629C217.839 84.4629 217.48 84.6426 217.181 84.9421C216.883 85.2417 216.763 85.721 216.763 86.32Z" fill="#ADBBD7"/>
<path d="M222.321 89.0159V83.6841H223.397V85.7809H225.489V83.6841H226.564V89.0159H225.489V86.6795H223.397V89.0159H222.321Z" fill="#ADBBD7"/>
<path d="M233.198 89.0159H232.003L231.525 87.8177H229.433L229.015 89.0159H227.879L229.971 83.6841H231.106L233.198 89.0159ZM231.226 86.8592L230.509 84.8822L229.792 86.8592H231.226Z" fill="#ADBBD7"/>
<path d="M234.871 83.6242H238.637V88.956H237.561V84.5228H235.947V86.7993C235.947 87.4583 235.947 87.9376 235.887 88.1772C235.828 88.4168 235.708 88.6565 235.589 88.7763C235.409 88.8961 235.17 89.0159 234.812 89.0159C234.692 89.0159 234.453 89.0159 234.095 88.956V88.1173H234.334C234.573 88.1173 234.692 88.0574 234.812 87.9975C234.871 87.9376 234.931 87.7579 234.931 87.5182V86.6196V83.6242H234.871Z" fill="#ADBBD7"/>
<path d="M245.211 89.0159H244.015L243.537 87.8177H241.386L240.967 89.0159H239.832L241.924 83.6841H243.059L245.211 89.0159ZM243.238 86.8592L242.521 84.8822L241.804 86.8592H243.238Z" fill="#ADBBD7"/>
<path d="M246.406 89.0159V83.6841H248.02L248.976 87.3385L249.932 83.6841H251.546V89.0159H250.53V84.8223L249.454 89.0159H248.438L247.362 84.8223V89.0159H246.406Z" fill="#ADBBD7"/>
<path d="M253.697 87.638L253.458 84.9421V83.6841H254.594V84.9421L254.354 87.638H253.697ZM253.458 89.0159V87.9975H254.474V89.0159H253.458Z" fill="#ADBBD7"/>
<path d="M45.5999 84.6426C23.9057 85.4813 9.62217 79.191 10.4589 67.0896C11.0565 58.8223 18.527 49.2969 30.3602 40.3706C30.5395 38.9928 30.7188 37.6748 31.0176 36.3568C12.0725 49.5366 -0.0595439 64.0942 0.000219799 75.6564C0.119747 91.1127 22.1128 96.5643 52.8313 90.6933C50.2017 88.8961 47.8112 86.8592 45.5999 84.6426Z" fill="#ADBBD7"/>
<path d="M114.089 3.28765C116.48 4.96507 118.691 6.88213 120.783 8.919C140.684 8.79918 153.533 15.0296 152.756 26.5319C152.338 32.8223 147.856 39.8315 140.564 46.7808H143.074C153.174 37.1955 159.151 27.6103 159.151 19.5227C159.031 5.50424 140.684 -0.24692 114.089 3.28765Z" fill="#ADBBD7"/>
</svg>
