<svg width="285" height="67" viewBox="0 0 285 67" fill="none" xmlns="http://www.w3.org/2000/svg">
<path fill-rule="evenodd" clip-rule="evenodd" d="M15.0593 63.6723V48.8177H12.6006V61.3395H8.77606V48.8177H6.28325V61.3395H2.45866V48.8177H0V63.6723H15.0593ZM20.8986 48.8177H18.44V63.6723H20.8986V56.2279L26.6014 63.6723H29.743L23.5622 55.8848L29.2991 48.8177H26.3282L20.8986 55.679V48.8177ZM42.0363 53.6206C41.9929 52.9173 41.8116 52.2295 41.5029 51.5968C41.1943 50.964 40.7643 50.3987 40.2376 49.9334C39.7109 49.468 39.0979 49.1117 38.4338 48.8849C37.7697 48.6581 37.0676 48.5654 36.3677 48.6119C34.9599 48.5274 33.5761 49.0072 32.5199 49.9461C31.4637 50.8851 30.8212 52.2065 30.7333 53.6206C30.7333 55.3702 30.7333 57.0512 30.7333 58.9037C30.7766 59.6056 30.958 60.2919 31.2671 60.9229C31.5763 61.5539 32.0069 62.117 32.5341 62.5796C33.0613 63.0422 33.6746 63.3952 34.3385 63.6181C35.0024 63.841 35.7037 63.9294 36.4019 63.8781C37.8099 63.9723 39.1975 63.5014 40.2603 62.5688C41.323 61.6362 41.9741 60.3181 42.0704 58.9037C42.0704 57.1541 42.0704 55.4731 42.0704 53.6206H42.0363ZM39.5776 58.938C39.4914 59.7147 39.1087 60.4276 38.5101 60.9266C37.9114 61.4256 37.1435 61.672 36.3677 61.6139C35.592 61.672 34.824 61.4256 34.2254 60.9266C33.6267 60.4276 33.244 59.7147 33.1578 58.938C33.1578 57.1541 33.1578 55.3702 33.1578 53.5863C33.244 52.8096 33.6267 52.0968 34.2254 51.5977C34.824 51.0987 35.592 50.8523 36.3677 50.9104C37.1435 50.8523 37.9114 51.0987 38.5101 51.5977C39.1087 52.0968 39.4914 52.8096 39.5776 53.5863C39.5776 55.3702 39.5776 57.1541 39.5776 58.938ZM46.4073 48.8177V54.2038C46.3955 57.5403 45.4871 60.8116 43.7779 63.6723H46.4414C48.0185 60.8181 48.8415 57.6055 48.8318 54.341V51.1848H53.1344V63.6723H55.6273V48.8177H46.4073ZM62.3886 48.8177L57.7444 63.6723H60.3397L61.4666 59.83H66.3839L67.5449 63.6723H70.1743L65.496 48.8177H62.3886ZM65.8034 57.4972H62.3886L63.9935 51.4593L65.7009 57.3943L65.8034 57.4972ZM84.4824 48.6462H81.9554V49.9155C80.6333 49.8617 79.3391 50.3073 78.3277 51.1645C77.3164 52.0218 76.6614 53.2285 76.4917 54.5468C76.4234 55.5978 76.4234 56.6521 76.4917 57.703C76.6219 59.0409 77.2646 60.2756 78.2841 61.1462C79.3037 62.0168 80.6201 62.4552 81.9554 62.3687V63.8781H84.4141V62.3687C85.7437 62.4459 87.0515 62.0034 88.0636 61.1337C89.0757 60.264 89.7136 59.0346 89.8436 57.703C89.8436 56.8454 89.8436 55.4731 89.8436 54.5468C89.66 53.2409 89.0058 52.0481 88.0051 51.1944C87.0043 50.3408 85.7266 49.8857 84.4141 49.9155V48.6462H84.4824ZM79.0528 57.6687C79.0528 56.8454 79.0528 55.4731 79.0528 54.6155C79.1699 53.9248 79.5394 53.3028 80.0888 52.8714C80.6383 52.4399 81.3283 52.23 82.0237 52.2826V60.0015C81.3331 60.0318 80.6545 59.8134 80.1099 59.3858C79.5653 58.9581 79.1904 58.3493 79.0528 57.6687ZM87.4191 54.6155C87.4874 55.6321 87.4874 56.6521 87.4191 57.6687C87.2955 58.3497 86.9292 58.9622 86.3887 59.3916C85.8482 59.8209 85.1705 60.0378 84.4824 60.0015V52.2826C85.1755 52.2227 85.8653 52.4307 86.4111 52.8642C86.9568 53.2977 87.3173 53.9241 87.4191 54.6155ZM104.015 48.8177H101.249L97.8343 56.5709L94.4195 48.8177H91.5852L96.4684 59.384L94.4536 63.6723H97.2196L103.844 48.8177H104.015ZM104.732 51.1848H108.625V63.6723H111.118V51.1848H115.045V48.8177H104.801V51.1848H104.732ZM117.162 63.6723H122.933C123.421 63.7193 123.914 63.667 124.382 63.5186C124.849 63.3702 125.283 63.1288 125.655 62.8087C126.028 62.4885 126.333 62.0963 126.552 61.6552C126.771 61.2142 126.899 60.7335 126.928 60.2417C126.928 59.5556 126.928 58.8351 126.928 58.1147C126.899 57.6229 126.771 57.1421 126.552 56.7011C126.333 56.2601 126.028 55.8678 125.655 55.5477C125.283 55.2276 124.849 54.9861 124.382 54.8378C123.914 54.6894 123.421 54.6371 122.933 54.6841H119.518V51.2535H126.075V48.852H117.06V63.7066L117.162 63.6723ZM124.641 58.0118C124.641 58.7665 124.641 59.4183 124.641 60.1731C124.641 60.9278 124.231 61.3052 123.206 61.3052H119.518V56.8797H122.933C123.992 56.8797 124.333 57.3943 124.367 58.0118H124.641ZM141.032 53.6206C140.846 52.2376 140.168 50.9691 139.122 50.0505C138.077 49.1319 136.735 48.6256 135.346 48.6256C133.957 48.6256 132.615 49.1319 131.569 50.0505C130.524 50.9691 129.846 52.2376 129.66 53.6206C129.66 55.3702 129.66 57.0512 129.66 58.9037C129.704 59.6056 129.885 60.2919 130.194 60.9229C130.503 61.5539 130.934 62.117 131.461 62.5796C131.988 63.0422 132.602 63.3952 133.266 63.6181C133.929 63.841 134.631 63.9294 135.329 63.8781C136.029 63.9295 136.732 63.8414 137.398 63.6189C138.064 63.3964 138.679 63.0439 139.209 62.5817C139.739 62.1194 140.173 61.5565 140.486 60.9254C140.799 60.2942 140.984 59.6072 141.032 58.9037C141.032 57.1541 141.032 55.4731 141.032 53.6206ZM138.539 58.938C138.3 59.6003 137.863 60.1725 137.289 60.5769C136.715 60.9813 136.03 61.1982 135.329 61.1982C134.628 61.1982 133.943 60.9813 133.369 60.5769C132.795 60.1725 132.358 59.6003 132.119 58.938C132.119 57.1541 132.119 55.3702 132.119 53.5863C132.358 52.924 132.795 52.3518 133.369 51.9474C133.943 51.543 134.628 51.3261 135.329 51.3261C136.03 51.3261 136.715 51.543 137.289 51.9474C137.863 52.3518 138.3 52.924 138.539 53.5863C138.539 55.3702 138.539 57.1541 138.539 58.938ZM145.368 48.8177V54.2038C145.355 57.5447 144.434 60.8185 142.705 63.6723H145.368C146.966 60.8248 147.801 57.6097 147.793 54.341V51.1848H152.096V63.6723H154.554V48.8177H145.368ZM161.316 48.8177L156.671 63.6723H159.267L160.496 59.83H165.277L166.472 63.6723H169.067L164.423 48.8177H161.316ZM164.73 57.4972H161.316L162.852 51.4593L164.594 57.3943L164.73 57.4972ZM174.702 66.8628H177.126V63.6723H184.878V66.8628H187.234V61.3395H185.936V48.8177H177.058V54.6155C177.125 56.9769 176.658 59.3229 175.692 61.4767H174.497V67L174.702 66.8628ZM179.687 51.1848H183.648V61.4767H178.424C179.212 59.3729 179.595 57.1375 179.551 54.8899V51.1848H179.687ZM191.024 48.8177V54.2038C191.013 57.5403 190.104 60.8116 188.395 63.6723H191.024C192.622 60.8248 193.457 57.6097 193.449 54.341V51.1848H197.752V63.6723H200.21V48.8177H191.024ZM206.05 55.0614C206.05 54.1009 206.05 53.2775 206.05 52.3169C206.05 51.3564 206.459 51.1848 207.484 51.1848H211.069V56.1935H207.347C206.289 56.1935 205.947 55.679 205.913 55.0614H206.05ZM208.338 58.4921H211.069V63.6037H213.528V48.8177H207.381C206.895 48.7707 206.404 48.8232 205.938 48.9719C205.473 49.1207 205.042 49.3626 204.672 49.6832C204.301 50.0038 204 50.3963 203.785 50.8372C203.57 51.278 203.446 51.758 203.42 52.2483C203.42 53.2089 203.42 53.9636 203.42 54.9242C203.418 55.6252 203.629 56.31 204.026 56.8865C204.423 57.4631 204.986 57.9037 205.64 58.149L202.635 63.5694H205.537L208.303 58.5607L208.338 58.4921ZM220.289 66.7942H222.714V63.6037H230.465V66.7942H232.822V61.3395H231.524V48.8177H222.748V54.6155C222.817 56.9806 222.338 59.3295 221.348 61.4767H220.153V67L220.289 66.7942ZM225.275 51.1162H229.236V61.4081H224.011C224.792 59.3258 225.174 57.1145 225.138 54.8899V51.1848L225.275 51.1162ZM235.349 48.7491V63.6037H245.183V61.2709H237.671V57.1541H244.5V54.8899H237.671V51.1848H244.978V48.8177L235.349 48.7491ZM246.822 51.1162H250.715V63.6037H253.174V51.1848H257.101V48.8177H246.857V51.1848L246.822 51.1162ZM259.218 48.7491V63.6037H269.189V61.2709H261.677V57.1541H268.506V54.8899H261.677V51.1848H268.985V48.8177L259.218 48.7491ZM274.141 44.5981C274.365 45.2844 274.8 45.882 275.383 46.3057C275.965 46.7294 276.666 46.9575 277.385 46.9575C278.104 46.9575 278.805 46.7294 279.387 46.3057C279.97 45.882 280.404 45.2844 280.629 44.5981H278.751C278.751 45.4557 278.751 46.3134 277.385 46.3134C276.019 46.3134 275.985 45.4557 275.985 44.5981H274.141ZM282.883 63.638V48.8177H280.014L274.926 58.3205L274.107 60.2074V58.2519V48.8177H271.819V63.6723H274.585L279.775 54.2724L280.561 52.3856V54.4096V63.6723L282.883 63.638Z" fill="#ADBBD7"/>
<path fill-rule="evenodd" clip-rule="evenodd" d="M22.2987 5.90066V5.62621C22.3329 3.43062 22.0597 1.681 22.0597 0C21.4792 0.857655 21.8206 2.2299 21.7523 3.91091C21.3767 3.43062 21.0352 3.43062 20.8303 2.81311C20.6254 2.1956 20.8303 0.926267 20.8303 0.205837C20.8303 -0.514593 19.0888 0.926267 18.679 0.926267C17.3131 0.926267 16.3911 0.205837 15.0935 0.926267C15.0935 1.95545 15.0935 3.77368 15.0935 5.96928C4.74659 6.86124 0 12.4188 0 20.5837C0.00544187 21.286 0.0740166 21.9865 0.204889 22.6764C0.323687 24.1738 0.633558 25.6496 1.12689 27.0676C1.34641 27.7902 1.63221 28.4907 1.98059 29.1603V29.3318C2.38829 29.9081 2.8706 30.4273 3.41481 30.8756C3.89144 31.5421 4.45411 32.1419 5.08807 32.6595C5.73771 33.1346 6.42268 33.559 7.13695 33.9288C7.81991 34.3062 8.63947 34.5806 9.32243 34.8894L14.0349 35.4383C14.0349 37.1193 13.8641 38.8689 13.8641 40.5842C14.3081 40.3784 14.752 40.5842 15.1276 40.5842C15.5032 40.5842 16.1862 39.7952 16.8009 39.9324C17.4155 40.0696 17.3814 40.5499 17.6546 40.7558C18.0206 40.8762 18.4154 40.8762 18.7815 40.7558C18.7815 40.7558 20.5572 39.6923 21.3084 40.9616C21.3084 39.1434 21.3084 37.531 21.3084 35.7127L27.1136 35.0609C27.7965 34.7522 28.6161 34.4777 29.2991 34.1004C30.0133 33.7305 30.6983 33.3062 31.348 32.831C31.9937 32.2608 32.5569 31.6026 33.0212 30.8756C33.5267 30.3761 33.9631 29.8107 34.3188 29.1946C34.7592 28.4935 35.0929 27.7304 35.3091 26.9304C35.7751 25.5518 36.0844 24.1248 36.2311 22.6764C36.362 21.9865 36.4306 21.286 36.436 20.5837C36.436 12.4875 31.8943 6.86124 22.2987 5.76344V5.90066ZM8.36628 26.999C8.1614 26.6216 7.88821 26.3128 7.64917 25.8669C7.41014 25.4209 7.06866 24.0143 6.82962 23.0538V19.6231L7.1711 18.0451C7.64567 16.874 8.1814 15.7288 8.77606 14.6144C9.69806 12.9677 12.1909 12.4188 14.6837 12.1444L14.5812 18.491C14.5812 21.2012 14.5812 25.9698 14.3081 29.126C12.1445 29.1153 10.049 28.3652 8.36628 26.999ZM29.5381 19.6918V23.1224C29.3674 24.1859 28.9917 25.1121 28.7868 25.9355C28.582 26.7588 28.2746 26.6902 28.0697 27.0676C27.8366 27.336 27.5856 27.5881 27.3185 27.8223C25.5687 28.8672 23.5822 29.4459 21.5474 29.5033C21.5474 28.1997 21.5474 26.7245 21.7523 24.9063C21.7523 22.0246 22.1963 19.2458 22.2304 16.4327V12.4188C24.2453 12.5516 26.1467 13.4033 27.5917 14.8203C28.3237 15.8599 28.867 17.0213 29.1966 18.2509L29.5381 19.829V19.6918ZM66.6229 5.76344C66.3497 6.27803 65.9741 6.92985 65.5985 7.68459C65.4315 7.44817 65.3152 7.17948 65.257 6.89554C65.257 6.89554 65.257 6.62109 65.257 6.41526C65.3306 5.96439 65.4932 5.53283 65.7351 5.14593C65.9864 4.77143 66.1927 4.36839 66.3497 3.94521C66.3497 3.94521 66.3497 3.94521 66.3497 3.67076C66.3497 3.39631 66.3497 3.67076 66.3497 3.67076C66.3497 3.67076 65.9058 3.97952 65.6326 4.15105C65.3595 4.32258 65.6326 4.15105 65.3253 4.15105C65.018 4.15105 64.7106 3.8766 64.335 3.70507L63.0374 2.67588C62.6093 2.27043 62.0537 2.02778 61.4666 1.98976C60.4772 3.97903 59.5882 6.01712 58.803 8.09626C58.3932 9.22836 57.881 10.7378 56.3785 14.3743C55.9925 15.1223 55.6726 15.9029 55.4224 16.7071C55.0107 18.0373 54.4969 19.3334 53.8857 20.5837C53.8857 20.5837 53.8857 20.5837 53.8857 20.8582C52.4856 18.2509 47.9781 9.36559 47.3293 7.95904C46.969 7.03931 46.5469 6.14529 46.0658 5.28315C45.656 4.4255 45.2121 3.49923 44.8364 2.57296C44.9274 3.28419 45.123 3.97789 45.417 4.63134L46.0999 6.86124C45.7243 6.68971 45.3487 6.86124 44.973 6.03789C44.7288 5.66448 44.5337 5.26089 44.3925 4.83717C44.226 4.33444 43.9842 3.86015 43.6754 3.43062L43.4022 3.08756C43.4022 3.08756 43.4022 3.08756 43.4022 3.43062V4.08244C43.4022 4.73425 42.6851 4.66564 42.3095 4.83717C41.7665 5.00337 41.2037 5.09567 40.6362 5.11162C40.3611 5.12214 40.092 5.1956 39.8493 5.32638C39.6067 5.45717 39.397 5.64185 39.2362 5.86636C40.8827 10.2746 42.8339 14.5619 45.0755 18.6969L50.7441 27.6165V27.8223C50.1081 28.999 49.1721 29.9845 48.0319 30.6778C46.8917 31.3711 45.5885 31.7472 44.2559 31.7675H41.8656C41.9303 31.8007 41.986 31.8493 42.0277 31.9091C42.0693 31.9689 42.0958 32.0381 42.1046 32.1106V32.2821C42.1046 32.2821 42.1046 32.6595 42.2753 32.7967C42.593 33.04 42.9366 33.2471 43.2998 33.4142C43.573 33.4142 43.8462 33.7916 43.8462 33.9631L43.573 34.169C43.452 34.2854 43.2957 34.3578 43.129 34.3748L42.3778 34.7179C42.3524 34.7775 42.3393 34.8417 42.3393 34.9065C42.3393 34.9714 42.3524 35.0356 42.3778 35.0952C42.4042 35.2769 42.488 35.4453 42.6168 35.5755C42.6168 35.5755 42.6168 35.7814 43.0949 35.9529C43.573 36.1244 43.7437 36.5018 43.7779 36.6733C43.812 36.8448 42.7193 36.6733 42.7193 37.5653H45.417C47.238 37.5785 49.0337 37.1372 50.643 36.2809C52.2523 35.4247 53.6247 34.1803 54.637 32.6595C55.9422 30.9402 57.0854 29.1026 58.0518 27.1705C58.7006 25.6953 59.5543 24.1859 60.2714 22.6078C60.9885 21.0297 62.1495 18.594 62.7301 16.81C63.6521 14.2028 65.3253 9.9488 65.5985 9.05683C66.3497 7.37583 67.101 5.62621 67.7157 4.21966C67.2279 4.61952 66.871 5.15736 66.6912 5.76344H66.6229ZM87.4533 10.2919C96.0244 9.15975 96.0244 8.98822 96.0244 8.81669V8.40502C96.0244 8.23349 96.0244 8.13057 96.0244 8.09626C96.0244 8.06195 95.4098 7.2043 95.4098 6.79263V6.51818C95.4098 6.24373 95.8878 6.00358 95.9561 5.76344C96.0244 5.5233 95.9561 5.5233 95.9561 5.31746C96.0024 5.13744 96.0024 4.94858 95.9561 4.76856C95.9561 4.76856 95.6147 4.11674 95.6147 3.43062C95.5879 3.27165 95.5879 3.1093 95.6147 2.95033C95.6147 2.53866 95.9561 2.95033 96.2293 2.33282C94.761 2.33282 93.3609 2.33282 91.8925 2.60727C89.7753 2.81311 87.863 2.81311 85.8483 3.05325H79.2919C77.6186 3.05325 76.1502 3.05325 74.477 3.05325H71.0622C70.5841 3.05325 70.106 2.81311 69.628 3.05325C70.5067 3.25221 71.396 3.40111 72.2915 3.49923C72.0183 3.77368 71.95 4.08244 71.472 4.25397C71.3378 4.2904 71.1964 4.2904 71.0622 4.25397C70.883 4.30045 70.695 4.30045 70.5158 4.25397H69.5938C69.4231 4.25397 69.3206 4.4255 69.3206 4.49411C69.3206 4.56272 69.628 4.73425 69.867 4.90579C69.97 5.07094 70.0288 5.26 70.0377 5.45468C70.0532 5.70602 70.0532 5.95808 70.0377 6.20942C69.9743 6.77071 69.8483 7.32307 69.6621 7.85612V8.57655C69.6367 8.79307 69.6367 9.01185 69.6621 9.22836V9.64004H70.1402C73.1111 9.84588 75.9112 10.086 78.7114 10.086H80.7261C80.7261 13.1736 80.7261 16.2954 80.7261 19.5202C80.7261 22.745 80.7261 24.9749 80.7261 27.788C80.7261 30.6011 80.8968 34.1347 81.0334 37.3594C81.0334 37.3594 81.2725 37.3594 81.4091 37.3594H81.9554C82.0891 37.3995 82.2315 37.3995 82.3652 37.3594C82.8091 37.085 83.2531 36.639 83.7311 36.639C84.2092 36.639 84.4141 37.1536 84.6531 37.2908C84.8922 37.4281 84.858 37.2908 85.0288 37.2908C85.2445 37.3115 85.4618 37.3115 85.6776 37.2908C85.8483 37.2908 86.2581 36.639 86.8728 36.639C87.4874 36.639 87.385 37.1879 87.9313 37.2908C87.9313 35.6098 87.9313 34.1347 87.6582 32.6252V32.2135C87.5219 31.0062 87.4535 29.7921 87.4533 28.5771V17.3932C87.5358 17.0204 87.5358 16.6339 87.4533 16.2611V12.0415C87.4192 11.4473 87.4192 10.8517 87.4533 10.2576V10.2919ZM125.016 27.445V25.9698L124.675 24.5975V24.3917C123.172 19.8976 121.26 18.4224 113.952 15.9867L110.162 15.2319H107.635V11.8013H109.103C111.084 11.8013 114.225 12.0415 115.933 12.213C117.64 12.3845 118.904 12.213 120.133 12.213H122.353C122.353 11.7327 121.396 11.8356 120.748 11.6984C120.748 11.424 120.748 11.0466 121.26 10.978H122.079C122.079 10.978 122.353 10.978 122.421 10.978C122.489 10.978 122.421 10.978 122.421 10.8064C122.421 10.6349 122.216 10.532 122.182 10.3948C122.146 10.2483 122.146 10.0952 122.182 9.9488C122.182 9.67435 122.182 9.3999 122.182 9.02253C122.182 8.64516 122.387 8.06195 122.558 7.44444C122.61 7.01148 122.61 6.57377 122.558 6.14081V6.00358L119.518 5.35177C118.391 5.35177 116.479 5.14593 115.352 5.11162C114.225 5.07732 111.05 5.11162 109.581 5.11162H106.508C106.527 4.53216 106.41 3.9564 106.166 3.43062C106.166 3.22478 106.166 3.12186 105.962 3.12186C105.757 3.12186 105.791 3.67076 105.586 3.94521C105.524 4.03488 105.443 4.10926 105.348 4.16274C105.253 4.21623 105.148 4.24742 105.04 4.25397H104.459H104.22C103.81 4.25397 103.435 4.25397 102.922 4.25397L102.444 4.11674C102.114 4.10816 101.786 4.17872 101.488 4.32258C101.488 5.79775 101.488 7.10138 101.488 8.57655V11.5612C101.488 13.894 101.317 16.2611 101.283 18.6626L100.908 27.6508C100.908 29.2289 100.908 30.704 100.908 32.385C100.908 34.066 100.908 35.3011 100.908 36.7762C100.973 36.7495 101.047 36.7495 101.113 36.7762C101.352 36.7762 101.488 36.7762 101.659 36.7762C101.718 36.8017 101.782 36.8149 101.847 36.8149C101.911 36.8149 101.975 36.8017 102.035 36.7762C102.212 36.6905 102.374 36.5744 102.513 36.4332C102.544 36.6012 102.602 36.7632 102.683 36.9135C102.683 37.085 103.23 37.4967 103.366 37.9426C103.385 38.0677 103.385 38.1949 103.366 38.32C103.366 38.32 103.366 38.32 103.366 38.5945C103.366 38.8689 102.957 38.8003 102.581 38.8003H106.781C114.703 38.8003 123.616 36.0558 124.982 27.2734L125.016 27.445ZM118.187 28.3026C117.69 29.2461 117.031 30.0939 116.24 30.807C113.937 32.444 111.173 33.2975 108.352 33.2427H106.952L107.293 20.8925C108.323 20.9274 109.35 21.0305 110.367 21.2012C114.157 21.8187 117.196 22.4706 118.084 25.215C118.106 25.3283 118.106 25.4448 118.084 25.5581V25.8326C118.084 25.8326 118.084 26.0727 118.084 26.107V26.8617C118.105 27.2946 118.035 27.7271 117.879 28.1311L118.187 28.3026ZM136.353 6.86124H136.08C134.785 7.91405 133.636 9.13717 132.665 10.4977C131.825 11.8725 131.084 13.3055 130.446 14.786C129.901 16.2607 129.467 17.7744 129.148 19.3144C128.99 20.5206 128.899 21.7346 128.875 22.9508V24.0486C128.941 25.7063 129.24 27.3463 129.763 28.9201C130.001 29.7395 130.322 30.5325 130.719 31.2872C131.131 32.119 131.635 32.9015 132.221 33.6201C132.822 34.3728 133.497 35.0625 134.236 35.6784C135.03 36.2205 135.877 36.6802 136.763 37.0507C137.645 37.4312 138.576 37.6853 139.529 37.8054H140.007C140.502 37.9096 141.005 37.967 141.51 37.977C141.747 38.02 141.99 38.02 142.227 37.977C143.279 37.9478 144.322 37.7865 145.334 37.4967H146.12L146.7 37.2565C147.299 37.0787 147.882 36.8492 148.442 36.5704C149.435 36.0496 150.373 35.4289 151.242 34.7179C152.055 34.0101 152.778 33.2034 153.393 32.3164C154.659 30.6928 155.63 28.858 156.262 26.8961C156.882 25.0432 157.261 23.1175 157.389 21.1669V19.7604C157.422 19.0861 157.422 18.4106 157.389 17.7363C157.288 16.5738 157.07 15.4244 156.74 14.3057V13.8254C156.391 12.8345 155.968 11.8712 155.476 10.9437C154.891 9.81754 154.168 8.76888 153.325 7.82181C152.863 7.35413 152.36 6.9293 151.822 6.55248L151.071 5.86636L150.183 5.42038C149.559 4.96509 148.851 4.63861 148.1 4.4598C147.447 4.25421 146.77 4.1388 146.086 4.11674H143.832L142.056 4.56272C141.032 4.83717 140.212 4.94009 139.563 5.11162C139.609 5.125 139.649 5.15173 139.68 5.18839C139.71 5.22506 139.729 5.26999 139.734 5.31746V5.86636C139.704 5.9247 139.688 5.9894 139.688 6.05504C139.688 6.12069 139.704 6.18538 139.734 6.24373L140.929 6.82693C141.163 6.89714 141.359 7.0575 141.476 7.27291V7.65028C141.476 7.82181 141.134 7.92473 140.861 8.09626L140.11 8.61085C140.086 8.73549 140.086 8.86358 140.11 8.98822V9.22836C140.228 9.34505 140.321 9.48525 140.383 9.64004C140.383 9.64004 140.588 9.91449 141.032 10.086C141.358 10.2724 141.638 10.5304 141.851 10.8408C141.93 10.9486 141.998 11.0634 142.056 11.1838C142.056 11.3897 142.056 11.4926 142.056 11.5612C142.056 11.6298 141.476 11.9729 142.398 11.9386L143.695 11.5612C144.093 11.5204 144.493 11.5204 144.89 11.5612H145.642H146.154L146.871 11.9042L147.178 12.1787C147.178 12.1787 147.451 12.3502 147.622 12.4875L148.339 13.2079C148.969 14.0202 149.497 14.9074 149.91 15.8495V16.2268C150.169 17.1914 150.329 18.1799 150.388 19.1772V19.9662C150.408 22.0622 150.001 24.1401 149.193 26.0727C148.709 27.1088 148.076 28.0681 147.315 28.9201C146.947 29.3152 146.521 29.6507 146.051 29.915C145.701 30.2302 145.279 30.4541 144.822 30.5668H144.242C143.98 30.7195 143.689 30.8131 143.388 30.8413C142.866 30.7832 142.339 30.7832 141.817 30.8413C141.318 30.8156 140.824 30.7234 140.349 30.5668C139.97 30.4904 139.61 30.3388 139.29 30.1208C138.955 29.9487 138.654 29.7161 138.402 29.4347C138.069 29.1099 137.782 28.7405 137.549 28.3369C137.125 27.7672 136.802 27.1291 136.592 26.4501C136.438 26.0769 136.335 25.6846 136.285 25.2837C136.128 24.5514 136.059 23.8026 136.08 23.0538C136.08 22.6764 136.08 22.2304 136.08 21.853C136.169 20.6915 136.375 19.542 136.695 18.4224C137.165 16.9885 137.807 15.6176 138.607 14.34C139.344 13.1762 140.352 12.2105 141.544 11.5269C140.895 11.5269 139.905 12.3502 139.017 13.2765C138.71 13.7063 138.379 14.1186 138.027 14.5115C137.627 15.0091 137.283 15.5499 137.002 16.1239C136.971 15.8733 136.971 15.6198 137.002 15.3692V15.0261C137.003 14.6651 137.097 14.3106 137.275 13.9969C137.6 13.2643 138.092 12.6181 138.71 12.1101C139.049 11.848 139.358 11.5489 139.632 11.2181C139.948 11.0751 140.211 10.8348 140.383 10.532C140.793 10.2576 140.827 10.1889 140.827 10.0174H140.656C140.202 10.1125 139.765 10.2744 139.358 10.4977H138.949C138.858 10.5031 138.768 10.4873 138.685 10.4516C138.602 10.4158 138.529 10.3612 138.471 10.2919L138.197 9.64004C137.988 9.44057 137.855 9.17338 137.822 8.8853L137.549 7.95904V7.54736C137.538 7.45746 137.509 7.37091 137.461 7.29384C137.414 7.21677 137.351 7.15107 137.275 7.10138C137.163 6.97385 137.015 6.8829 136.851 6.84012C136.687 6.79735 136.513 6.8047 136.353 6.86124ZM188.019 32.488V32.2135C187.866 31.0077 187.798 29.7925 187.815 28.5771V17.3932C187.896 17.0203 187.896 16.6341 187.815 16.2611V13.2765C187.815 12.6933 187.815 11.6641 187.815 11.0466V10.2919C187.836 10.19 187.836 10.0849 187.815 9.9831C187.575 9.50282 188.019 9.12545 188.019 8.67947V8.50794C188.019 8.23349 187.849 8.23349 188.019 7.95904C188.046 7.82312 188.046 7.68328 188.019 7.54736C188.043 7.36516 188.043 7.18066 188.019 6.99846C188.019 6.27803 188.019 5.69483 188.019 5.24885V4.49411C186.551 4.49411 181.804 4.49411 179.687 4.49411C176.734 4.25412 173.77 4.18539 170.809 4.28827C168.487 4.56272 168.316 4.04813 167.701 4.28827V4.4598V5.0087V5.48899C167.703 5.73401 167.801 5.96839 167.974 6.14081C168.021 6.30915 168.021 6.48706 167.974 6.6554C167.994 6.91807 167.994 7.18178 167.974 7.44444C167.974 8.02765 167.974 8.61085 167.974 9.22836V9.4342V9.70865C167.974 9.9831 167.974 10.1889 167.974 10.3605V10.7378C167.974 11.9386 167.974 13.7225 167.667 14.9232C167.496 15.7375 167.382 16.5629 167.326 17.3932C167.233 18.8346 167.039 20.2676 166.745 21.6815C166.472 23.3282 166.028 24.8377 165.721 26.2442C164.969 29.3318 163.604 31.6303 161.657 31.7675H159.301C159.364 31.7997 159.416 31.8489 159.452 31.9095C159.489 31.9702 159.507 32.0399 159.506 32.1106V32.2821C159.455 32.4499 159.455 32.6289 159.506 32.7967C159.829 33.0322 160.171 33.2388 160.53 33.4142C160.803 33.4142 161.077 33.7916 161.077 33.9631L160.803 34.169C160.689 34.2753 160.547 34.3467 160.394 34.3748L159.608 34.7179C159.583 34.7775 159.57 34.8417 159.57 34.9065C159.57 34.9714 159.583 35.0356 159.608 35.0952C159.617 35.2747 159.69 35.445 159.813 35.5755C159.813 35.5755 159.984 35.7814 160.291 35.9529C160.598 36.1244 160.94 36.5018 161.008 36.6733C161.077 36.8448 159.916 36.6733 159.916 37.5653H162.613C163.939 37.568 165.247 37.2591 166.433 36.6635C167.619 36.0678 168.649 35.2018 169.443 34.1347C169.977 33.3756 170.445 32.5722 170.843 31.7332C171.572 30.2617 172.078 28.6892 172.345 27.0676C172.619 25.4552 173.063 23.637 173.336 22.0932C173.711 19.8633 174.087 17.702 174.258 15.7808C174.428 13.8597 174.565 12.1101 174.633 11.2181C176.204 11.2181 177.707 11.2181 178.902 11.2181H180.882C180.882 14.3057 180.882 16.1925 180.882 19.4173C180.882 22.6421 180.882 24.872 180.882 27.6851C180.882 30.4982 181.053 34.0317 181.224 37.2565C181.224 37.2565 181.429 37.2565 181.6 37.2565H181.907C182.052 37.2958 182.205 37.2958 182.351 37.2565C182.761 36.9821 183.205 36.5361 183.683 36.5361C184.161 36.5361 184.4 37.0507 184.605 37.1879C184.809 37.3251 184.809 37.1879 184.98 37.1879C185.196 37.2086 185.413 37.2086 185.629 37.1879C185.8 37.1879 186.244 36.5361 186.824 36.5361C187.405 36.5361 187.371 37.085 187.917 37.1879C187.917 35.5069 187.917 34.0317 187.644 32.5223L188.019 32.488ZM222.509 5.04301C222.509 5.04301 222.236 5.59191 222.167 6.72401C221.963 6.34665 221.621 6.34664 221.485 5.69483V2.7788C221.485 2.50435 221.485 2.40143 221.246 2.40143C221.006 2.40143 221.006 2.91603 220.767 3.19048C220.717 3.29285 220.639 3.37912 220.543 3.43969C220.446 3.50026 220.335 3.53275 220.221 3.53354H219.538C218.821 3.53354 217.967 3.15617 217.148 3.15617C216.888 3.10441 216.622 3.10441 216.362 3.15617L216.021 7.71889C213.118 11.1495 206.152 18.5253 202.362 23.0538V10.6006C202.362 9.12545 202.362 7.82181 202.362 6.48387C202.362 5.96928 202.362 5.5576 202.362 5.07732V1.23502C201.815 1.95545 201.986 3.63646 201.815 5.21454C201.61 4.94009 201.235 4.83717 201.064 4.11674V2.16129V1.78392V1.50947C201.064 1.23502 201.064 1.1321 201.064 1.1321C201.064 1.1321 200.791 1.681 200.62 1.95545C200.555 2.03879 200.472 2.1066 200.377 2.15405C200.283 2.20149 200.179 2.22739 200.074 2.2299L197 1.74962C196.729 1.70006 196.452 1.70006 196.181 1.74962C195.976 6.89554 195.703 12.0415 195.703 17.0159C195.703 20.2063 195.703 23.2939 195.703 26.3815C195.703 30.0522 195.703 33.6544 195.908 37.2908H196.249H196.932C197.301 36.875 197.791 36.5868 198.332 36.4675C198.776 36.4675 198.947 37.0507 199.186 37.2222H199.596C199.788 37.2548 199.984 37.2548 200.176 37.2222C200.691 36.921 201.259 36.7229 201.849 36.639C202.225 36.639 202.157 37.2222 202.498 37.2908L202.362 33.6201C203.488 31.8705 208.201 26.7588 215.27 17.9421L214.518 28.234C214.245 31.9734 214.074 35.7127 214.074 39.5893C214.197 39.55 214.328 39.55 214.45 39.5893H215.133C215.611 39.1777 216.055 38.6974 216.533 38.6974H216.704C216.977 38.6974 217.079 39.2806 217.455 39.5207H217.797H218.377C218.548 39.5207 219.026 39.1091 219.606 38.9032H219.982C220.494 38.9032 220.392 39.4864 220.699 39.6923V33.9974C220.699 31.1843 220.972 28.4055 221.246 25.5924C221.519 22.7793 221.928 19.6918 222.167 16.6042C222.407 13.5166 222.475 10.9437 222.714 7.95904C222.714 7.95904 222.714 7.27291 222.714 6.6554C222.714 6.03789 222.714 4.94009 222.509 4.94009V5.04301ZM253.003 34.3062C251.774 32.7967 250.715 31.3902 249.588 30.0179C248.465 28.6868 247.438 27.2766 246.515 25.7983C246.037 25.1807 245.661 24.5289 245.217 23.9457C244.83 23.355 244.488 22.7357 244.193 22.0932L243.647 20.8582V20.3093C244.224 19.5258 244.851 18.7809 245.525 18.0794C247.369 16.0896 254.608 9.64004 254.608 9.19406C254.608 8.74808 253.891 9.57143 253.686 9.57143C253.481 9.57143 253.345 9.57143 253.345 9.15975C253.345 8.74808 254.813 7.61597 254.813 7.30722C254.813 6.99846 254.813 7.30722 254.608 7.30722H253.994C253.345 7.30722 253.14 6.68971 252.764 6.41526L251.501 5.11162C250.923 4.64037 250.279 4.25876 249.588 3.97952C248.285 5.66283 246.871 7.25596 245.354 8.74808C243.745 10.2752 242.271 11.9395 240.949 13.7225L238.217 17.1531V14.2371V7.95904C238.012 6.24373 237.91 4.52842 237.739 2.91603C237.341 4.19056 237.225 5.53686 237.398 6.86124C236.954 6.48387 236.544 6.48387 236.305 5.86636C236.066 5.24885 236.305 5.31746 236.305 5.11162V3.8766C236.351 3.69658 236.351 3.50771 236.305 3.3277C236.305 3.12186 236.1 2.98464 236.032 2.98464C235.963 2.98464 235.724 3.49923 235.519 3.73937C235.282 3.91536 234.995 4.01142 234.7 4.01382H234.085C233.231 4.01382 232.275 3.67076 231.353 3.67076C230.963 3.65294 230.576 3.73561 230.226 3.91091V12.6933C230.226 14.5801 230.226 16.3641 230.226 18.2852V20.5837C230.226 22.7793 230.465 25.0092 230.5 27.2391V37.531H231.046H231.797C231.797 37.531 232.07 37.531 232.139 37.531C232.719 37.2565 233.095 36.7762 233.744 36.7762H233.949C234.324 36.9478 234.222 37.3251 234.597 37.531C234.754 37.5716 234.919 37.5716 235.075 37.531C235.313 37.5667 235.555 37.5667 235.793 37.531C236.441 37.2301 237.132 37.0333 237.841 36.9478C238.32 36.9478 238.32 37.4281 238.661 37.5996C238.661 35.6784 238.661 33.9631 238.422 32.1792C238.422 31.0128 238.422 30.4296 238.422 28.7486V26.3472C240.169 29.4362 242.12 32.4045 244.261 35.2325L246.139 37.7368C246.72 38.5945 247.266 39.4178 247.744 40.2412C248.13 40.0517 248.53 39.8911 248.94 39.7609C249.355 39.3149 249.87 38.974 250.442 38.766C250.783 38.746 251.125 38.746 251.467 38.766C251.879 38.7148 252.275 38.5744 252.628 38.3543L253.959 37.531C254.574 37.2565 254.881 37.7368 255.325 37.531C254.755 36.2853 254.007 35.1297 253.106 34.1004L253.003 34.3062ZM242.451 21.4757C242.677 21.1476 242.94 20.8481 243.237 20.5837C243.156 20.9451 243.156 21.3201 243.237 21.6815C242.964 21.6815 242.656 21.6815 242.383 21.6815L242.451 21.4757ZM281.893 29.6062C281.497 29.0672 281.132 28.506 280.8 27.9252V27.7537C280.8 27.5479 281.244 27.2391 281.244 26.9647C281.244 26.6902 281.244 26.7245 281.244 26.5187C281.244 26.3128 281.244 26.0727 281.244 25.9698C281.244 25.8669 280.868 25.3866 280.629 24.8377C280.528 24.6936 280.459 24.53 280.424 24.3574C280.424 23.98 280.766 24.3574 280.971 23.7056L278.956 24.0143L278.307 22.4019C277.917 21.4667 277.597 20.5035 277.351 19.5202L276.224 15.7808C275.447 13.335 274.797 10.8501 274.277 8.3364C273.902 6.62109 273.355 5.24885 272.98 3.56784C272.853 4.82337 273.017 6.09131 273.458 7.27291C273.082 7.10138 272.707 7.10138 272.434 6.51818L271.785 4.11674C271.785 3.91091 271.785 3.80799 271.512 3.80799C271.238 3.80799 271.512 4.39119 271.238 4.59703C270.965 4.80287 270.419 5.04301 270.009 5.21454H268.438C268.477 4.76941 268.477 4.32173 268.438 3.8766C268.438 3.63646 268.438 3.53354 268.233 3.53354C268.028 3.53354 268.028 4.18536 267.755 4.4255C267.592 4.59148 267.373 4.68949 267.141 4.69995H266.458C265.924 4.68373 265.395 4.59132 264.887 4.4255C264.614 4.39798 264.34 4.39798 264.067 4.4255C263.795 4.4163 263.525 4.47525 263.282 4.59703C263.217 7.0667 263 9.52999 262.633 11.9729C262.257 14.1685 261.813 16.3984 261.37 18.8341V19.4859C260.789 22.5735 260.072 25.661 259.491 28.9201C259.116 30.8413 258.877 32.6595 258.638 34.5806C258.328 36.5104 258.145 38.4587 258.091 40.4127C258.835 39.9815 259.661 39.7126 260.516 39.6236H260.789C261.062 39.6236 261.096 40.1726 261.472 40.447C261.619 40.4701 261.769 40.4701 261.916 40.447C262.095 40.4935 262.283 40.4935 262.462 40.447C262.462 40.447 263.145 40.1382 263.76 39.9667H264.135C264.511 39.9667 264.409 40.3784 264.716 40.6528C264.716 38.8689 264.989 37.2222 265.194 35.1982V33.8945L275.439 31.7675L276.668 33.6544C277.659 35.3447 278.916 36.8624 280.39 38.1485C280.466 38.0125 280.558 37.8859 280.663 37.7711C280.771 37.7241 280.866 37.6535 280.943 37.5644C281.02 37.4754 281.076 37.3702 281.107 37.2565C281.079 36.9484 281.079 36.6384 281.107 36.3303C281.155 36.0568 281.286 35.805 281.483 35.6098H282.336C282.951 35.6098 283.054 35.1295 283.19 34.958C283.192 34.7195 283.277 34.4891 283.429 34.3062C283.551 34.0185 283.7 33.7429 283.873 33.4828C284.078 33.2084 284.146 33.1055 284.351 33.0712C284.556 33.0369 284.351 33.0712 284.624 33.0712L285 33.2427C283.901 32.1892 282.895 31.0413 281.995 29.8121L281.893 29.6062ZM266.56 26.4501L267.243 23.2253C267.687 21.4757 267.687 19.2458 267.994 17.5648L268.916 12.6933C269.36 14.3743 269.736 18.2852 270.316 19.9662C270.59 20.9954 270.965 21.956 271.341 23.0538L272.365 25.4209L270.59 25.7983C269.189 26.0727 267.892 26.2442 266.56 26.4501Z" fill="#ADBBD7"/>
</svg>
