<svg width="306" height="58" viewBox="0 0 306 58" fill="none" xmlns="http://www.w3.org/2000/svg">
<g clip-path="url(#clip0_728_8585)">
<path d="M42.2916 0.988373V56.6244H29.5496V33.7106H12.2667V56.659H-0.47522V0.988373H12.2667V22.6511H29.5496V0.988373H42.2916Z" fill="#ADBBD7"/>
<path d="M91.6634 13.2144L80.6552 16.9194C79.1691 12.5232 76.0272 10.3229 71.2294 10.3183C66.0969 10.3183 63.5329 11.9887 63.5375 15.3296C63.5259 15.9641 63.648 16.5939 63.8958 17.1776C64.1437 17.7613 64.5116 18.2858 64.9754 18.7165C65.9295 19.6382 68.0967 20.44 71.4771 21.122C77.1188 22.2694 81.2469 23.4214 83.8613 24.578C86.5511 25.8025 88.8461 27.7587 90.4869 30.2253C92.2671 32.7696 93.208 35.8109 93.177 38.9208C93.177 43.9436 91.2529 48.2914 87.4046 51.9641C83.5563 55.6367 77.8481 57.48 70.28 57.4938C64.6062 57.4938 59.774 56.1966 55.7836 53.6022C51.7931 51.0079 49.1626 47.1417 47.8921 42.0036L59.8979 39.2388C61.2464 44.4321 64.9983 47.0265 71.1538 47.0219C74.126 47.0219 76.3391 46.4435 77.7931 45.2869C78.4608 44.8213 79.0078 44.2018 79.3885 43.4803C79.7691 42.7587 79.9723 41.9561 79.981 41.1396C80.0077 40.3878 79.8383 39.642 79.4895 38.9763C79.1407 38.3107 78.6246 37.7482 77.9926 37.3448C76.6716 36.4509 74.1214 35.6099 70.3419 34.8219C63.2921 33.3473 58.2673 31.3428 55.2676 28.8083C52.2678 26.2738 50.768 22.5574 50.768 17.659C50.7265 15.3096 51.1843 12.9784 52.1109 10.8209C53.0376 8.6635 54.4116 6.72946 56.1414 5.14794C59.719 1.75637 64.5764 0.0582885 70.7134 0.0536804C81.5703 0.10437 88.5536 4.4913 91.6634 13.2144Z" fill="#ADBBD7"/>
<path d="M141.2 11.5916H114.829V22.9967H135.565V33.4686H114.829V45.6202H141.2V56.6244H101.646V0.988373H141.2V11.5916Z" fill="#ADBBD7"/>
<path d="M173.771 20.7938V3.82441C174.713 3.82441 177.823 3.77603 178.305 3.77603C182.921 3.77603 184.318 6.07778 184.318 8.815C184.335 9.91386 183.983 10.9864 183.317 11.8585C182.651 12.7306 181.712 13.351 180.651 13.619L186.272 20.7938H183.788L178.6 14.006H175.848V20.7938H173.771ZM175.835 5.75982V12.0637H178.284C180.245 12.0637 182.123 10.8541 182.123 8.84265C182.123 7.09387 181.16 5.71143 178.167 5.71143C177.658 5.71143 176.619 5.73908 175.821 5.75982H175.835Z" fill="#ADBBD7"/>
<path d="M190.035 4.61942C190.19 4.61666 190.343 4.64484 190.487 4.70231C190.63 4.75978 190.761 4.84539 190.871 4.95414C190.981 5.06289 191.068 5.1926 191.128 5.33569C191.188 5.47879 191.219 5.6324 191.219 5.78756C191.228 5.94941 191.204 6.11147 191.149 6.26379C191.094 6.41611 191.008 6.55547 190.897 6.67329C190.786 6.79112 190.653 6.88493 190.505 6.94895C190.356 7.01297 190.197 7.04586 190.035 7.04558C189.868 7.0534 189.702 7.02626 189.546 6.96589C189.39 6.90553 189.249 6.81326 189.13 6.69494C189.012 6.57663 188.919 6.43486 188.858 6.27865C188.797 6.12244 188.769 5.9552 188.776 5.78756C188.78 5.62688 188.815 5.46854 188.881 5.322C188.947 5.17547 189.041 5.04374 189.159 4.9347C189.276 4.82566 189.414 4.74154 189.565 4.68737C189.716 4.6332 189.876 4.61009 190.035 4.61942ZM189.024 9.88649H190.95V20.7939H189.024V9.88649Z" fill="#ADBBD7"/>
<path d="M194.597 12.7204C194.597 10.8057 196.138 9.64444 198.285 9.64444C199.649 9.58483 200.985 10.0439 202.027 10.9301L201.112 12.4231C200.358 11.7375 199.378 11.3559 198.36 11.3517C197.28 11.3517 196.627 11.9808 196.627 12.7342C196.627 15.0359 202.488 13.9438 202.488 17.7732C202.488 20.0818 200.466 21.0702 198.292 21.0702C196.53 21.0702 194.79 20.1509 194.287 19.3768L195.368 17.9943C196.211 18.8274 197.33 19.3195 198.512 19.3768C199.523 19.3768 200.438 18.8653 200.438 17.8699C200.459 15.6304 194.597 16.7225 194.597 12.7204Z" fill="#ADBBD7"/>
<path d="M205.337 3.82443H207.263V20.7938H205.337V3.82443ZM210.015 14.953L215.203 20.7938H212.575L207.676 15.0982L212.162 9.88641H214.625L210.015 14.953Z" fill="#ADBBD7"/>
<path d="M173.771 32.9179H175.835L182.178 41.6203L188.26 32.9179H190.214V49.8873H188.15V36.1666L182.164 44.5994H181.855L175.793 36.2357V49.8873H173.729L173.771 32.9179Z" fill="#ADBBD7"/>
<path d="M194.569 39.7263C195.666 39.071 196.919 38.727 198.195 38.7309C201.284 38.7309 202.364 40.3553 202.364 43.1962V49.8872H200.534V48.5047C200.122 49.0265 199.592 49.4417 198.987 49.7158C198.383 49.9899 197.722 50.115 197.06 50.0807C196.612 50.1118 196.163 50.0457 195.743 49.8868C195.323 49.7279 194.942 49.48 194.626 49.1599C194.31 48.8398 194.067 48.4551 193.912 48.0319C193.757 47.6087 193.695 47.157 193.73 46.7075C193.73 44.4749 195.491 43.2515 197.858 43.2515C198.807 43.2129 199.747 43.4531 200.562 43.9427C200.562 41.9105 200.245 40.4866 198.099 40.4866C197.047 40.4732 196.012 40.7506 195.106 41.2884L194.569 39.7263ZM200.534 46.908V45.5256C199.819 45.03 198.967 44.7736 198.099 44.7929C196.936 44.7929 195.78 45.332 195.78 46.59C195.78 47.6338 196.468 48.3112 197.734 48.3112C198.277 48.3099 198.812 48.1825 199.298 47.9391C199.784 47.6957 200.207 47.3428 200.534 46.908Z" fill="#ADBBD7"/>
<path d="M205.598 38.9799H207.532V40.3071C208.465 39.3465 209.739 38.7971 211.075 38.7795C213.903 38.7795 215.588 40.1619 215.588 43.5834V49.8873H213.662V43.9498C213.662 41.6688 212.623 40.6043 210.593 40.6043C210.015 40.6086 209.445 40.7337 208.918 40.9717C208.39 41.2097 207.918 41.5554 207.532 41.9867V49.8666H205.598V38.9799Z" fill="#ADBBD7"/>
<path d="M218.918 39.7262C220.012 39.0719 221.263 38.7279 222.537 38.7309C225.626 38.7309 226.713 40.3552 226.713 43.1961V49.8871H224.883V48.5047C224.471 49.0264 223.94 49.4416 223.336 49.7158C222.731 49.9899 222.071 50.115 221.408 50.0807C220.961 50.1117 220.511 50.0455 220.091 49.8867C219.671 49.7278 219.289 49.48 218.973 49.1601C218.656 48.8401 218.412 48.4555 218.257 48.0324C218.101 47.6092 218.038 47.1574 218.072 46.7075C218.072 44.4749 219.84 43.2515 222.2 43.2515C223.149 43.2137 224.088 43.4538 224.904 43.9427C224.904 41.9105 224.587 40.4866 222.441 40.4866C221.389 40.4732 220.353 40.7505 219.448 41.2884L218.918 39.7262ZM224.883 46.908V45.5256C224.166 45.0286 223.311 44.7721 222.441 44.7929C221.285 44.7929 220.129 45.332 220.129 46.59C220.129 47.6338 220.817 48.3112 222.083 48.3112C222.626 48.3098 223.161 48.1825 223.646 47.9391C224.132 47.6957 224.555 47.3428 224.883 46.908Z" fill="#ADBBD7"/>
<path d="M231.949 48.1452C231.765 47.8828 231.671 47.5674 231.681 47.2466C231.661 46.9074 231.756 46.5716 231.949 46.2927C231.225 46.0186 230.603 45.5272 230.167 44.8853C229.732 44.2434 229.503 43.4822 229.513 42.7053C229.513 40.5279 231.227 38.7031 233.951 38.7031C234.928 38.6876 235.886 38.9669 236.703 39.5049L239.889 38.7308L239.937 40.3068L237.873 40.8183C238.212 41.3883 238.388 42.0412 238.382 42.7053C238.382 44.8895 236.621 46.6383 233.937 46.6383C233.708 46.6508 233.478 46.6508 233.249 46.6383C233.165 46.8296 233.125 47.0375 233.132 47.2466C233.126 47.505 233.2 47.7589 233.346 47.9724C233.566 47.9724 233.779 47.9724 234.034 47.9724C237.192 47.9724 239.538 49.1129 239.538 51.4906C239.538 53.8684 237.171 54.9467 234.034 54.9467C230.896 54.9467 228.53 53.8546 228.53 51.4906C228.454 49.6935 229.885 48.5806 231.949 48.1452ZM234.013 53.3569C236.256 53.3569 237.728 52.6657 237.728 51.463C237.728 50.2603 236.352 49.5207 234.013 49.5207C231.674 49.5207 230.298 50.2534 230.298 51.463C230.298 52.6726 231.736 53.3569 234.013 53.3569ZM234.013 45.0623C235.533 45.0623 236.648 44.1154 236.648 42.7053C236.59 42.0445 236.287 41.4296 235.8 40.9817C235.313 40.5338 234.677 40.2854 234.016 40.2854C233.356 40.2854 232.72 40.5338 232.233 40.9817C231.746 41.4296 231.443 42.0445 231.385 42.7053C231.323 44.0946 232.362 45.09 233.951 45.09L234.013 45.0623Z" fill="#ADBBD7"/>
<path d="M251.041 48.6983C249.897 49.652 248.448 50.1599 246.961 50.1291C243.439 50.1291 241.141 47.8758 241.141 44.4335C241.141 41.2539 243.171 38.7309 246.741 38.7309C247.406 38.699 248.07 38.8059 248.692 39.0449C249.314 39.2838 249.879 39.6496 250.353 40.1192C250.827 40.5888 251.199 41.152 251.445 41.7732C251.692 42.3944 251.807 43.0601 251.784 43.7285C251.788 44.169 251.749 44.6089 251.667 45.0418H243.315C243.487 47.1154 244.98 48.3112 247.106 48.3112C248.317 48.3481 249.5 47.9429 250.436 47.1707L251.041 48.6983ZM243.198 43.4589H249.782C249.786 43.0551 249.705 42.6551 249.546 42.2846C249.386 41.9141 249.15 41.5814 248.855 41.3079C248.559 41.0343 248.21 40.8261 247.829 40.6965C247.449 40.567 247.045 40.519 246.645 40.5558C245.809 40.4991 244.983 40.7696 244.34 41.3107C243.698 41.8518 243.288 42.6215 243.198 43.4589Z" fill="#ADBBD7"/>
<path d="M270.539 49.8871H268.606V43.2652C268.606 41.475 267.836 40.604 266.267 40.604C265.696 40.5899 265.131 40.7283 264.631 41.0052C264.13 41.2821 263.712 41.6875 263.419 42.18C263.419 42.3736 263.419 42.7123 263.419 42.9542V49.8664H261.533V42.8367C261.556 42.5283 261.512 42.2185 261.402 41.9294C261.293 41.6404 261.121 41.3791 260.9 41.164C260.679 40.949 260.413 40.7855 260.122 40.6851C259.83 40.5848 259.521 40.55 259.215 40.5833C258.657 40.5853 258.108 40.7205 257.613 40.9777C257.118 41.2349 256.69 41.6067 256.366 42.0625V49.8871H254.433V38.9797H256.366V40.3621C256.825 39.8631 257.381 39.4652 258.001 39.1939C258.62 38.9226 259.289 38.7837 259.965 38.7862C261.65 38.7862 262.834 39.5396 263.247 40.6801C263.685 40.081 264.26 39.5963 264.923 39.2668C265.586 38.9372 266.318 38.7724 267.058 38.7862C269.06 38.7862 270.56 39.7608 270.56 42.7399L270.539 49.8871Z" fill="#ADBBD7"/>
<path d="M282.965 48.6983C281.82 49.652 280.372 50.1599 278.885 50.1291C275.362 50.1291 273.071 47.8758 273.071 44.4335C273.071 41.2539 275.094 38.731 278.665 38.731C279.329 38.7043 279.991 38.8147 280.611 39.0555C281.23 39.2962 281.794 39.662 282.268 40.1304C282.741 40.5989 283.114 41.1599 283.363 41.7787C283.612 42.3976 283.731 43.0612 283.715 43.7285C283.72 44.1694 283.679 44.6097 283.591 45.0418H275.239C275.411 47.1155 276.904 48.3113 279.03 48.3113C280.24 48.3494 281.424 47.9441 282.36 47.1707L282.965 48.6983ZM275.122 43.4589H281.706C281.71 43.0552 281.629 42.6552 281.469 42.2847C281.309 41.9142 281.074 41.5814 280.778 41.3079C280.483 41.0344 280.134 40.8261 279.753 40.6966C279.372 40.567 278.969 40.5191 278.569 40.5558C277.732 40.4991 276.906 40.7697 276.264 41.3107C275.621 41.8518 275.212 42.6216 275.122 43.4589Z" fill="#ADBBD7"/>
<path d="M286.343 38.9799H288.269V40.3071C289.205 39.346 290.482 38.7968 291.82 38.7795C294.64 38.7795 296.333 40.1619 296.333 43.5834V49.8873H294.4V43.9498C294.4 41.6688 293.368 40.6043 291.338 40.6043C290.759 40.6084 290.187 40.7335 289.659 40.9715C289.131 41.2095 288.658 41.5552 288.269 41.9867V49.8666H286.343V38.9799Z" fill="#ADBBD7"/>
<path d="M299.374 35.9246H301.307V38.959H305.291V40.7769H301.307V45.5256C301.307 47.2467 301.858 48.242 303.234 48.242C303.856 48.2331 304.457 48.0194 304.947 47.6338L305.552 49.1406C304.764 49.7495 303.794 50.0734 302.8 50.0599C300.358 50.0599 299.395 48.5116 299.395 45.7191L299.374 35.9246Z" fill="#ADBBD7"/>
</g>
<defs>
<clipPath id="clip0_728_8585">
<rect width="306" height="58" fill="white"/>
</clipPath>
</defs>
</svg>
