<svg width="285" height="67" viewBox="0 0 285 67" fill="none" xmlns="http://www.w3.org/2000/svg">
<path fill-rule="evenodd" clip-rule="evenodd" d="M15.0647 63.803V48.9179H12.6052V61.4654H8.77922V48.9179H6.28551V61.4654H2.45955V48.9179H0V63.803H15.0647ZM20.9061 48.9179H18.4466V63.803H20.9061V56.3432L26.6109 63.803H29.7537L23.5707 55.9995L29.3096 48.9179H26.3376L20.9061 55.7932V48.9179ZM42.0514 53.7306C42.008 53.0259 41.8267 52.3367 41.5179 51.7027C41.2091 51.0686 40.7789 50.5022 40.252 50.0358C39.7252 49.5695 39.112 49.2125 38.4476 48.9852C37.7833 48.758 37.0809 48.665 36.3808 48.7116C34.9725 48.627 33.5882 49.1078 32.5316 50.0486C31.475 50.9895 30.8323 52.3136 30.7443 53.7306C30.7443 55.4838 30.7443 57.1683 30.7443 59.0246C30.7877 59.728 30.9692 60.4157 31.2784 61.0479C31.5876 61.6802 32.0184 62.2444 32.5458 62.708C33.0732 63.1716 33.6867 63.5253 34.3508 63.7487C35.015 63.972 35.7166 64.0606 36.415 64.0092C37.8235 64.1036 39.2116 63.6317 40.2748 62.6972C41.3379 61.7627 41.9892 60.4419 42.0856 59.0246C42.0856 57.2714 42.0856 55.587 42.0856 53.7306H42.0514ZM39.5919 59.059C39.5056 59.8373 39.1228 60.5516 38.5239 61.0516C37.9251 61.5517 37.1568 61.7986 36.3808 61.7404C35.6048 61.7986 34.8365 61.5517 34.2377 61.0516C33.6388 60.5516 33.256 59.8373 33.1697 59.059C33.1697 57.2714 33.1697 55.4838 33.1697 53.6962C33.256 52.918 33.6388 52.2037 34.2377 51.7036C34.8365 51.2035 35.6048 50.9567 36.3808 51.0149C37.1568 50.9567 37.9251 51.2035 38.5239 51.7036C39.1228 52.2037 39.5056 52.918 39.5919 53.6962C39.5919 55.4838 39.5919 57.2714 39.5919 59.059ZM46.4239 48.9179V54.315C46.4122 57.6583 45.5034 60.9364 43.7936 63.803H46.4581C48.0358 60.9429 48.859 57.7237 48.8493 54.4525V51.2899H53.1535V63.803H55.6473V48.9179H46.4239ZM62.411 48.9179L57.7652 63.803H60.3614L61.4887 59.9528H66.4078L67.5692 63.803H70.1996L65.5196 48.9179H62.411ZM65.827 57.6152H62.411L64.0165 51.5649L65.7246 57.512L65.827 57.6152ZM84.5128 48.746H81.9849V50.018C80.6623 49.964 79.3676 50.4105 78.3559 51.2695C77.3442 52.1285 76.6889 53.3377 76.5192 54.6588C76.4509 55.7119 76.4509 56.7683 76.5192 57.8214C76.6494 59.1621 77.2924 60.3993 78.3123 61.2717C79.3322 62.1441 80.6491 62.5833 81.9849 62.4967V64.0092H84.4444V62.4967C85.7745 62.5741 87.0828 62.1306 88.0952 61.2592C89.1077 60.3877 89.7458 59.1558 89.8759 57.8214C89.8759 56.962 89.8759 55.587 89.8759 54.6588C89.6922 53.3502 89.0378 52.1549 88.0367 51.2995C87.0356 50.4441 85.7574 49.9881 84.4444 50.018V48.746H84.5128ZM79.0813 57.7871C79.0813 56.962 79.0813 55.587 79.0813 54.7275C79.1984 54.0354 79.568 53.4122 80.1176 52.9799C80.6673 52.5475 81.3575 52.3372 82.0532 52.3899V60.1247C81.3624 60.155 80.6835 59.9362 80.1387 59.5076C79.5939 59.0791 79.2189 58.469 79.0813 57.7871ZM87.4506 54.7275C87.5189 55.7462 87.5189 56.7684 87.4506 57.7871C87.3269 58.4695 86.9605 59.0832 86.4198 59.5135C85.8791 59.9437 85.2011 60.161 84.5128 60.1247V52.3899C85.2062 52.3299 85.8962 52.5383 86.4421 52.9727C86.9881 53.4071 87.3487 54.0347 87.4506 54.7275ZM104.052 48.9179H101.286L97.8695 56.687L94.4534 48.9179H91.6181L96.5031 59.5059L94.4876 63.803H97.2546L103.882 48.9179H104.052ZM104.77 51.2899H108.664V63.803H111.158V51.2899H115.086V48.9179H104.838V51.2899H104.77ZM117.204 63.803H122.977C123.466 63.85 123.959 63.7977 124.426 63.649C124.894 63.5003 125.328 63.2584 125.701 62.9376C126.074 62.6168 126.378 62.2237 126.597 61.7818C126.816 61.3399 126.944 60.8581 126.974 60.3653C126.974 59.6778 126.974 58.9559 126.974 58.234C126.944 57.7411 126.816 57.2594 126.597 56.8175C126.378 56.3756 126.074 55.9825 125.701 55.6617C125.328 55.3409 124.894 55.099 124.426 54.9503C123.959 54.8016 123.466 54.7492 122.977 54.7963H119.561V51.3586H126.12V48.9523H117.102V63.8373L117.204 63.803ZM124.685 58.1308C124.685 58.8871 124.685 59.5403 124.685 60.2966C124.685 61.0528 124.275 61.431 123.251 61.431H119.561V56.9964H122.977C124.036 56.9964 124.378 57.512 124.412 58.1308H124.685ZM141.082 53.7306C140.897 52.3448 140.218 51.0737 139.172 50.1532C138.126 49.2327 136.784 48.7254 135.395 48.7254C134.005 48.7254 132.663 49.2327 131.617 50.1532C130.571 51.0737 129.892 52.3448 129.707 53.7306C129.707 55.4838 129.707 57.1683 129.707 59.0246C129.75 59.728 129.932 60.4157 130.241 61.0479C130.55 61.6802 130.981 62.2444 131.508 62.708C132.036 63.1716 132.649 63.5253 133.313 63.7487C133.978 63.972 134.679 64.0606 135.378 64.0092C136.078 64.0607 136.781 63.9724 137.447 63.7494C138.113 63.5265 138.729 63.1733 139.259 62.7101C139.79 62.2469 140.223 61.6829 140.536 61.0504C140.849 60.4179 141.035 59.7295 141.082 59.0246C141.082 57.2714 141.082 55.587 141.082 53.7306ZM138.589 59.059C138.349 59.7226 137.913 60.296 137.338 60.7012C136.764 61.1064 136.079 61.3238 135.378 61.3238C134.676 61.3238 133.991 61.1064 133.417 60.7012C132.842 60.296 132.406 59.7226 132.166 59.059C132.166 57.2714 132.166 55.4838 132.166 53.6962C132.406 53.0326 132.842 52.4592 133.417 52.054C133.991 51.6488 134.676 51.4314 135.378 51.4314C136.079 51.4314 136.764 51.6488 137.338 52.054C137.913 52.4592 138.349 53.0326 138.589 53.6962C138.589 55.4838 138.589 57.2714 138.589 59.059ZM145.421 48.9179V54.315C145.407 57.6628 144.486 60.9433 142.756 63.803H145.421C147.019 60.9496 147.855 57.728 147.846 54.4525V51.2899H152.15V63.803H154.61V48.9179H145.421ZM161.374 48.9179L156.728 63.803H159.324L160.554 59.9528H165.336L166.532 63.803H169.128L164.482 48.9179H161.374ZM164.79 57.6152H161.374L162.911 51.5649L164.653 57.512L164.79 57.6152ZM174.764 67H177.19V63.803H184.944V67H187.301V61.4654H186.003V48.9179H177.122V54.7275C177.189 57.0938 176.722 59.4447 175.755 61.6029H174.56V67.1375L174.764 67ZM179.752 51.2899H183.714V61.6029H178.488C179.277 59.4948 179.659 57.2547 179.615 55.0026V51.2899H179.752ZM191.093 48.9179V54.315C191.081 57.6583 190.173 60.9364 188.463 63.803H191.093C192.691 60.9496 193.527 57.728 193.519 54.4525V51.2899H197.823V63.803H200.282V48.9179H191.093ZM206.124 55.1744C206.124 54.2119 206.124 53.3869 206.124 52.4243C206.124 51.4618 206.534 51.2899 207.558 51.2899H211.145V56.3089H207.422C206.363 56.3089 206.021 55.7932 205.987 55.1744H206.124ZM208.412 58.6121H211.145V63.7342H213.605V48.9179H207.456C206.969 48.8708 206.478 48.9234 206.012 49.0724C205.546 49.2215 205.115 49.4639 204.745 49.7852C204.375 50.1064 204.073 50.4997 203.858 50.9415C203.643 51.3832 203.519 51.8643 203.493 52.3556C203.493 53.3181 203.493 54.0744 203.493 55.0369C203.491 55.7393 203.703 56.4256 204.1 57.0033C204.497 57.581 205.06 58.0225 205.714 58.2683L202.708 63.6998H205.611L208.378 58.6809L208.412 58.6121ZM220.369 66.9312H222.794V63.7342H230.548V66.9312H232.905V61.4654H231.607V48.9179H222.828V54.7275C222.897 57.0976 222.418 59.4513 221.428 61.6029H220.232V67.1375L220.369 66.9312ZM225.356 51.2211H229.319V61.5341H224.092C224.872 59.4476 225.255 57.2317 225.219 55.0026V51.2899L225.356 51.2211ZM235.433 48.8491V63.7342H245.271V61.3966H237.756V57.2714H244.588V55.0026H237.756V51.2899H245.067V48.9179L235.433 48.8491ZM246.911 51.2211H250.805V63.7342H253.265V51.2899H257.193V48.9179H246.945V51.2899L246.911 51.2211ZM259.311 48.8491V63.7342H269.286V61.3966H261.771V57.2714H268.603V55.0026H261.771V51.2899H269.081V48.9179L259.311 48.8491ZM274.239 44.6896C274.464 45.3773 274.899 45.9762 275.482 46.4007C276.064 46.8253 276.765 47.0538 277.485 47.0538C278.204 47.0538 278.905 46.8253 279.488 46.4007C280.071 45.9762 280.505 45.3773 280.73 44.6896H278.851C278.851 45.549 278.851 46.4084 277.485 46.4084C276.118 46.4084 276.084 45.549 276.084 44.6896H274.239ZM282.985 63.7686V48.9179H280.115L275.025 58.4402L274.205 60.3309V58.3715V48.9179H271.917V63.803H274.684L279.876 54.3838L280.662 52.4931V54.5213V63.803L282.985 63.7686Z" fill="#2D2D2D"/>
<path fill-rule="evenodd" clip-rule="evenodd" d="M22.3067 5.91278V5.63776C22.3409 3.43766 22.0676 1.68445 22.0676 0C21.4869 0.859415 21.8285 2.23448 21.7602 3.91893C21.3844 3.43766 21.0428 3.43766 20.8378 2.81888C20.6329 2.2001 20.8378 0.928168 20.8378 0.20626C20.8378 -0.515649 19.0956 0.928168 18.6857 0.928168C17.3193 0.928168 16.397 0.20626 15.0989 0.928168C15.0989 1.95947 15.0989 3.78143 15.0989 5.98153C4.74829 6.87532 0 12.4443 0 20.626C0.00544383 21.3297 0.0740432 22.0316 0.204962 22.7229C0.323803 24.2234 0.633786 25.7022 1.12729 27.1231C1.3469 27.8472 1.63279 28.5492 1.9813 29.2201V29.392C2.38915 29.9695 2.87164 30.4897 3.41604 30.9389C3.89284 31.6068 4.45572 32.2079 5.0899 32.7265C5.73977 33.2026 6.42499 33.6279 7.13952 33.9985C7.82272 34.3766 8.64257 34.6516 9.32578 34.961L14.0399 35.511C14.0399 37.1955 13.8691 38.9487 13.8691 40.6675C14.3132 40.4613 14.7573 40.6675 15.133 40.6675C15.5088 40.6675 16.192 39.8769 16.8069 40.0144C17.4218 40.1519 17.3876 40.6331 17.6609 40.8394C18.0271 40.9601 18.422 40.9601 18.7882 40.8394C18.7882 40.8394 20.5645 39.7737 21.3161 41.0457C21.3161 39.2237 21.3161 37.608 21.3161 35.786L27.1233 35.1329C27.8065 34.8235 28.6264 34.5485 29.3096 34.1703C30.0241 33.7997 30.7093 33.3745 31.3592 32.8984C32.0052 32.327 32.5686 31.6674 33.0331 30.9389C33.5387 30.4384 33.9753 29.8719 34.3312 29.2545C34.7717 28.552 35.1055 27.7873 35.3218 26.9856C35.7879 25.6043 36.0973 24.1743 36.2442 22.7229C36.3751 22.0316 36.4437 21.3297 36.4491 20.626C36.4491 12.5131 31.9058 6.87532 22.3067 5.77527V5.91278ZM8.36929 27.0544C8.16433 26.6762 7.89105 26.3669 7.65192 25.92C7.4128 25.4731 7.0712 24.0636 6.83207 23.1011V19.6634L7.17368 18.0821C7.64842 16.9086 8.18434 15.7611 8.77921 14.6444C9.70154 12.9944 12.1953 12.4443 14.689 12.1693L14.5865 18.529C14.5865 21.2447 14.5865 26.0231 14.3132 29.1857C12.1489 29.1751 10.0526 28.4234 8.36929 27.0544ZM29.5487 19.7322V23.1698C29.3779 24.2355 29.0022 25.1637 28.7972 25.9887C28.5922 26.8137 28.2848 26.745 28.0798 27.1231C27.8466 27.3921 27.5956 27.6448 27.3283 27.8794C25.5779 28.9265 23.5907 29.5063 21.5552 29.5639C21.5552 28.2576 21.5552 26.7794 21.7602 24.9574C21.7602 22.0698 22.2042 19.2853 22.2384 16.4664V12.4443C24.254 12.5774 26.1561 13.4308 27.6016 14.8507C28.3338 15.8924 28.8774 17.0562 29.2071 18.2884L29.5487 19.8697V19.7322ZM66.6469 5.77527C66.3736 6.29092 65.9978 6.94407 65.6221 7.70036C65.455 7.46346 65.3387 7.19422 65.2805 6.9097C65.2805 6.9097 65.2805 6.63468 65.2805 6.42842C65.3541 5.97663 65.5167 5.54419 65.7587 5.15649C66.0101 4.78122 66.2165 4.37736 66.3736 3.95331C66.3736 3.95331 66.3736 3.95331 66.3736 3.6783C66.3736 3.40328 66.3736 3.6783 66.3736 3.6783C66.3736 3.6783 65.9295 3.98769 65.6562 4.15957C65.3829 4.33145 65.6562 4.15957 65.3488 4.15957C65.0413 4.15957 64.7339 3.88456 64.3581 3.71267L63.06 2.68137C62.6318 2.27509 62.076 2.03194 61.4887 1.99384C60.499 3.9872 59.6096 6.02947 58.8242 8.11288C58.4142 9.24731 57.9018 10.7599 56.3988 14.4038C56.0126 15.1534 55.6926 15.9356 55.4423 16.7414C55.0305 18.0743 54.5165 19.3731 53.9051 20.626C53.9051 20.626 53.9051 20.626 53.9051 20.901C52.5045 18.2884 47.9953 9.38481 47.3463 7.97537C46.9859 7.05376 46.5636 6.1579 46.0823 5.294C45.6724 4.43458 45.2283 3.50641 44.8526 2.57825C44.9436 3.29093 45.1393 3.98605 45.4333 4.64084L46.1165 6.87532C45.7407 6.70344 45.365 6.87532 44.9892 6.05028C44.7449 5.6761 44.5497 5.27169 44.4085 4.8471C44.2419 4.34334 44 3.86807 43.6911 3.43766L43.4178 3.09389C43.4178 3.09389 43.4178 3.09389 43.4178 3.43766V4.09082C43.4178 4.74397 42.7005 4.67522 42.3247 4.8471C41.7815 5.01363 41.2185 5.10613 40.6508 5.12211C40.3756 5.13266 40.1064 5.20626 39.8637 5.33732C39.621 5.46837 39.4112 5.65343 39.2503 5.8784C40.8974 10.2957 42.8493 14.5918 45.0917 18.7352L50.7623 27.6732V27.8794C50.1262 29.0585 49.1898 30.0461 48.0492 30.7408C46.9086 31.4355 45.6049 31.8124 44.2718 31.8327H41.8806C41.9454 31.866 42.0011 31.9147 42.0428 31.9746C42.0845 32.0346 42.1109 32.1039 42.1197 32.1765V32.3484C42.1197 32.3484 42.1197 32.7265 42.2905 32.864C42.6083 33.1078 42.952 33.3154 43.3153 33.4828C43.5886 33.4828 43.8619 33.861 43.8619 34.0328L43.5886 34.2391C43.4676 34.3558 43.3113 34.4284 43.1446 34.4454L42.393 34.7891C42.3676 34.8489 42.3546 34.9132 42.3546 34.9782C42.3546 35.0432 42.3676 35.1075 42.393 35.1673C42.4195 35.3493 42.5033 35.518 42.6321 35.6485C42.6321 35.6485 42.6321 35.8548 43.1104 36.0267C43.5886 36.1986 43.7594 36.5767 43.7936 36.7486C43.8278 36.9205 42.7346 36.7486 42.7346 37.6424H45.4333C47.2549 37.6557 49.0514 37.2134 50.6612 36.3554C52.2711 35.4974 53.644 34.2504 54.6566 32.7265C55.9623 31.0037 57.106 29.1623 58.0726 27.2263C58.7217 25.7481 59.5757 24.2355 60.2931 22.6542C61.0104 21.0729 62.1719 18.6321 62.7526 16.8445C63.6749 14.2319 65.3488 9.96922 65.6221 9.07542C66.3736 7.39097 67.1251 5.63776 67.74 4.22832C67.2521 4.629 66.8951 5.16794 66.7152 5.77527H66.6469ZM87.4847 10.313C96.059 9.17855 96.059 9.00667 96.059 8.83479V8.42227C96.059 8.25038 96.059 8.14725 96.059 8.11288C96.059 8.0785 95.4441 7.21909 95.4441 6.80657V6.53155C95.4441 6.25654 95.9223 6.01591 95.9906 5.77527C96.059 5.53463 95.9906 5.53463 95.9906 5.32837C96.0369 5.14799 96.0369 4.95873 95.9906 4.77835C95.9906 4.77835 95.649 4.12519 95.649 3.43766C95.6223 3.27837 95.6223 3.11568 95.649 2.95639C95.649 2.54387 95.9906 2.95639 96.2639 2.33761C94.795 2.33761 93.3945 2.33761 91.9256 2.61262C89.8076 2.81888 87.8946 2.81888 85.8792 3.05952H79.3204C77.6465 3.05952 76.1776 3.05952 74.5038 3.05952H71.0877C70.6095 3.05952 70.1312 2.81888 69.653 3.05952C70.5321 3.25889 71.4217 3.40809 72.3175 3.50641C72.0442 3.78143 71.9759 4.09082 71.4977 4.2627C71.3634 4.2992 71.222 4.2992 71.0877 4.2627C70.9085 4.30927 70.7204 4.30927 70.5412 4.2627H69.6188C69.448 4.2627 69.3456 4.43458 69.3456 4.50333C69.3456 4.57209 69.653 4.74397 69.8921 4.91585C69.9951 5.08135 70.054 5.2708 70.0629 5.46588C70.0784 5.71773 70.0784 5.97031 70.0629 6.22216C69.9994 6.78461 69.8734 7.3381 69.6872 7.87224V8.59415C69.6617 8.81112 69.6617 9.03034 69.6872 9.24731V9.65983H70.1654C73.1374 9.86609 75.9385 10.1067 78.7397 10.1067H80.7551C80.7551 13.2006 80.7551 16.3289 80.7551 19.5603C80.7551 22.7917 80.7551 25.0262 80.7551 27.845C80.7551 30.6639 80.9259 34.2047 81.0626 37.4361C81.0626 37.4361 81.3017 37.4361 81.4383 37.4361H81.9849C82.1186 37.4762 82.2611 37.4762 82.3948 37.4361C82.8389 37.1611 83.283 36.7142 83.7612 36.7142C84.2395 36.7142 84.4444 37.2299 84.6836 37.3674C84.9227 37.5049 84.8885 37.3674 85.0593 37.3674C85.2752 37.3881 85.4925 37.3881 85.7084 37.3674C85.8792 37.3674 86.2891 36.7142 86.904 36.7142C87.5189 36.7142 87.4164 37.2642 87.963 37.3674C87.963 35.6829 87.963 34.2047 87.6897 32.6922V32.2796C87.5533 31.0698 87.4849 29.8533 87.4847 28.6357V17.4289C87.5673 17.0554 87.5673 16.6681 87.4847 16.2945V12.0662C87.4506 11.4708 87.4506 10.874 87.4847 10.2786V10.313ZM125.061 27.5013V26.0231L124.72 24.648V24.4418C123.216 19.9384 121.303 18.4602 113.993 16.0195L110.201 15.2632H107.673V11.8256H109.142C111.124 11.8256 114.266 12.0662 115.974 12.2381C117.682 12.41 118.946 12.2381 120.176 12.2381H122.397C122.397 11.7568 121.44 11.8599 120.791 11.7224C120.791 11.4474 120.791 11.0693 121.303 11.0005H122.123C122.123 11.0005 122.397 11.0005 122.465 11.0005C122.533 11.0005 122.465 11.0005 122.465 10.8286C122.465 10.6567 122.26 10.5536 122.226 10.4161C122.19 10.2694 122.19 10.116 122.226 9.96922C122.226 9.6942 122.226 9.41919 122.226 9.04105C122.226 8.6629 122.431 8.0785 122.602 7.45972C122.654 7.02587 122.654 6.58726 122.602 6.15341V6.01591L119.561 5.36275C118.434 5.36275 116.521 5.15649 115.394 5.12211C114.266 5.08774 111.09 5.12211 109.621 5.12211H106.546C106.565 4.54147 106.448 3.96452 106.205 3.43766C106.205 3.2314 106.205 3.12827 106 3.12827C105.795 3.12827 105.829 3.6783 105.624 3.95331C105.562 4.04316 105.481 4.11769 105.386 4.17129C105.291 4.22488 105.186 4.25614 105.077 4.2627H104.497H104.257C103.848 4.2627 103.472 4.2627 102.959 4.2627L102.481 4.12519C102.151 4.1166 101.823 4.1873 101.525 4.33145C101.525 5.80965 101.525 7.11596 101.525 8.59415V11.5849C101.525 13.9225 101.354 16.2945 101.32 18.7009L100.944 27.7075C100.944 29.2889 100.944 30.7671 100.944 32.4515C100.944 34.136 100.944 35.3735 100.944 36.8517C101.01 36.825 101.083 36.825 101.149 36.8517C101.388 36.8517 101.525 36.8517 101.695 36.8517C101.755 36.8773 101.819 36.8904 101.883 36.8904C101.948 36.8904 102.012 36.8773 102.071 36.8517C102.249 36.7658 102.411 36.6495 102.549 36.5079C102.581 36.6763 102.639 36.8387 102.72 36.9892C102.72 37.1611 103.267 37.5736 103.403 38.0205C103.422 38.1459 103.422 38.2733 103.403 38.3987C103.403 38.3987 103.403 38.3987 103.403 38.6737C103.403 38.9487 102.994 38.8799 102.618 38.8799H106.819C114.745 38.8799 123.661 36.1298 125.027 27.3294L125.061 27.5013ZM118.229 28.3607C117.732 29.3061 117.073 30.1557 116.282 30.8702C113.978 32.5106 111.213 33.3659 108.391 33.3109H106.99L107.332 20.9354C108.362 20.9703 109.389 21.0737 110.406 21.2447C114.198 21.8635 117.238 22.5167 118.127 25.2668C118.149 25.3803 118.149 25.4971 118.127 25.6106V25.8856C118.127 25.8856 118.127 26.1262 118.127 26.1606V26.9169C118.148 27.3506 118.078 27.784 117.922 28.1888L118.229 28.3607ZM136.402 6.87532H136.129C134.833 7.93029 133.684 9.15592 132.713 10.5192C131.873 11.8969 131.131 13.3329 130.493 14.8163C129.948 16.2941 129.514 17.8109 129.195 19.354C129.037 20.5627 128.946 21.7792 128.921 22.9979V24.098C128.988 25.7591 129.287 27.4025 129.809 28.9795C130.048 29.8005 130.369 30.5952 130.766 31.3515C131.178 32.1849 131.682 32.9691 132.269 33.6891C132.87 34.4434 133.545 35.1345 134.284 35.7517C135.079 36.2948 135.926 36.7555 136.812 37.1267C137.695 37.5081 138.626 37.7626 139.579 37.883H140.058C140.552 37.9874 141.055 38.0449 141.561 38.0549C141.798 38.0981 142.041 38.0981 142.278 38.0549C143.33 38.0257 144.374 37.864 145.387 37.5736H146.172L146.753 37.333C147.352 37.1548 147.935 36.9248 148.495 36.6455C149.489 36.1236 150.427 35.5017 151.296 34.7891C152.11 34.0799 152.833 33.2716 153.448 32.3828C154.714 30.7558 155.686 28.9172 156.318 26.9513C156.938 25.0946 157.317 23.1649 157.445 21.2104V19.8009C157.479 19.1253 157.479 18.4483 157.445 17.7727C157.344 16.6078 157.127 15.4561 156.796 14.335V13.8538C156.447 12.8608 156.024 11.8956 155.532 10.9661C154.946 9.83769 154.223 8.78688 153.38 7.83787C152.918 7.36923 152.415 6.94352 151.877 6.56593L151.125 5.8784L150.237 5.4315C149.613 4.97528 148.904 4.64813 148.154 4.46896C147.5 4.26294 146.822 4.1473 146.138 4.12519H143.883L142.107 4.57209C141.082 4.8471 140.262 4.95023 139.613 5.12211C139.659 5.13552 139.7 5.16231 139.73 5.19904C139.76 5.23578 139.779 5.28081 139.784 5.32837V5.8784C139.754 5.93686 139.739 6.00169 139.739 6.06747C139.739 6.13325 139.754 6.19808 139.784 6.25654L140.98 6.84094C141.214 6.9113 141.41 7.07199 141.526 7.28784V7.66598C141.526 7.83787 141.185 7.94099 140.912 8.11288L140.16 8.62853C140.136 8.75342 140.136 8.88178 140.16 9.00667V9.24731C140.279 9.36423 140.372 9.50472 140.433 9.65983C140.433 9.65983 140.638 9.93484 141.082 10.1067C141.409 10.2935 141.689 10.552 141.902 10.863C141.981 10.9711 142.049 11.0861 142.107 11.2068C142.107 11.413 142.107 11.5162 142.107 11.5849C142.107 11.6537 141.526 11.9974 142.449 11.9631L143.747 11.5849C144.144 11.544 144.545 11.544 144.942 11.5849H145.694H146.206L146.924 11.9287L147.231 12.2037C147.231 12.2037 147.504 12.3756 147.675 12.5131L148.393 13.235C149.023 14.049 149.55 14.938 149.964 15.882V16.2601C150.223 17.2267 150.383 18.2173 150.442 19.2165V20.0072C150.462 22.1075 150.055 24.1896 149.247 26.1262C148.762 27.1644 148.129 28.1257 147.368 28.9795C147 29.3753 146.574 29.7116 146.104 29.9764C145.753 30.2923 145.331 30.5166 144.874 30.6296H144.293C144.032 30.7825 143.741 30.8763 143.439 30.9046C142.917 30.8464 142.39 30.8464 141.868 30.9046C141.368 30.8789 140.874 30.7864 140.399 30.6296C140.02 30.553 139.66 30.4011 139.34 30.1827C139.005 30.0102 138.704 29.7771 138.452 29.4951C138.118 29.1697 137.831 28.7995 137.598 28.3951C137.174 27.8242 136.851 27.1848 136.641 26.5044C136.487 26.1304 136.384 25.7373 136.334 25.3356C136.176 24.6018 136.108 23.8515 136.129 23.1011C136.129 22.7229 136.129 22.276 136.129 21.8979C136.217 20.734 136.424 19.5821 136.744 18.4602C137.214 17.0234 137.856 15.6497 138.657 14.3694C139.394 13.2032 140.402 12.2356 141.595 11.5505C140.946 11.5505 139.955 12.3756 139.067 13.3037C138.76 13.7344 138.429 14.1476 138.076 14.5413C137.676 15.0399 137.332 15.5818 137.051 16.157C137.02 15.9059 137.02 15.6518 137.051 15.4007V15.057C137.053 14.6952 137.147 14.3399 137.325 14.0257C137.65 13.2915 138.141 12.644 138.759 12.1349C139.099 11.8723 139.408 11.5726 139.682 11.2411C139.998 11.0978 140.261 10.8571 140.433 10.5536C140.843 10.2786 140.877 10.2099 140.877 10.038H140.707C140.253 10.1333 139.815 10.2955 139.408 10.5192H138.999C138.908 10.5247 138.818 10.5088 138.735 10.473C138.652 10.4372 138.579 10.3824 138.52 10.313L138.247 9.65983C138.037 9.45994 137.904 9.19221 137.871 8.90354L137.598 7.97537V7.56285C137.588 7.47276 137.558 7.38604 137.511 7.30881C137.464 7.23158 137.4 7.16575 137.325 7.11596C137.212 6.98816 137.064 6.89702 136.9 6.85416C136.736 6.8113 136.562 6.81867 136.402 6.87532ZM188.087 32.5546V32.2796C187.934 31.0713 187.865 29.8537 187.882 28.6357V17.4289C187.964 17.0552 187.964 16.6682 187.882 16.2945V13.3037C187.882 12.7193 187.882 11.688 187.882 11.0693V10.313C187.903 10.211 187.903 10.1056 187.882 10.0036C187.643 9.52232 188.087 9.14418 188.087 8.69728V8.5254C188.087 8.25038 187.916 8.25038 188.087 7.97537C188.114 7.83918 188.114 7.69905 188.087 7.56285C188.111 7.38028 188.111 7.1954 188.087 7.01283C188.087 6.29092 188.087 5.70652 188.087 5.25962V4.50333C186.618 4.50333 181.87 4.50333 179.752 4.50333C176.798 4.26285 173.832 4.19398 170.87 4.29708C168.547 4.57209 168.376 4.05644 167.762 4.29708V4.46896V5.01898V5.50026C167.763 5.74578 167.862 5.98064 168.035 6.15341C168.081 6.3221 168.081 6.50038 168.035 6.66906C168.054 6.93226 168.054 7.19652 168.035 7.45972C168.035 8.04413 168.035 8.62853 168.035 9.24731V9.45357V9.72858C168.035 10.0036 168.035 10.2099 168.035 10.3817V10.7599C168.035 11.9631 168.035 13.7506 167.727 14.9538C167.556 15.7699 167.442 16.5969 167.386 17.4289C167.293 18.8733 167.099 20.3092 166.805 21.726C166.532 23.3761 166.088 24.8887 165.78 26.2981C165.029 29.392 163.662 31.6952 161.715 31.8327H159.358C159.421 31.8649 159.473 31.9143 159.51 31.975C159.546 32.0358 159.564 32.1056 159.563 32.1765V32.3484C159.513 32.5165 159.513 32.6959 159.563 32.864C159.886 33.1 160.229 33.3071 160.588 33.4828C160.861 33.4828 161.134 33.861 161.134 34.0328L160.861 34.2391C160.747 34.3457 160.605 34.4172 160.451 34.4454L159.666 34.7891C159.64 34.8489 159.627 34.9132 159.627 34.9782C159.627 35.0432 159.64 35.1075 159.666 35.1673C159.675 35.3471 159.747 35.5178 159.871 35.6485C159.871 35.6485 160.041 35.8548 160.349 36.0267C160.656 36.1986 160.998 36.5767 161.066 36.7486C161.134 36.9205 159.973 36.7486 159.973 37.6424H162.672C163.998 37.6451 165.306 37.3356 166.493 36.7387C167.679 36.1418 168.71 35.2741 169.504 34.2047C170.038 33.4441 170.506 32.639 170.904 31.7984C171.633 30.3238 172.14 28.7481 172.407 27.1231C172.681 25.5074 173.125 23.6855 173.398 22.1385C173.774 19.9041 174.15 17.7383 174.32 15.8132C174.491 13.8881 174.628 12.1349 174.696 11.2411C176.268 11.2411 177.771 11.2411 178.966 11.2411H180.947C180.947 14.335 180.947 16.2258 180.947 19.4572C180.947 22.6886 180.947 24.923 180.947 27.7419C180.947 30.5608 181.118 34.1016 181.289 37.333C181.289 37.333 181.494 37.333 181.665 37.333H181.972C182.118 37.3724 182.271 37.3724 182.416 37.333C182.826 37.058 183.27 36.6111 183.749 36.6111C184.227 36.6111 184.466 37.1267 184.671 37.2642C184.876 37.4017 184.876 37.2642 185.047 37.2642C185.263 37.285 185.48 37.285 185.696 37.2642C185.867 37.2642 186.311 36.6111 186.891 36.6111C187.472 36.6111 187.438 37.1611 187.985 37.2642C187.985 35.5798 187.985 34.1016 187.711 32.589L188.087 32.5546ZM222.589 5.05336C222.589 5.05336 222.316 5.60339 222.247 6.73781C222.042 6.35967 221.701 6.35967 221.564 5.70652V2.7845C221.564 2.50949 221.564 2.40636 221.325 2.40636C221.086 2.40636 221.086 2.92201 220.847 3.19702C220.796 3.29961 220.718 3.38606 220.622 3.44675C220.525 3.50744 220.414 3.54 220.3 3.54079H219.617C218.9 3.54079 218.046 3.16265 217.226 3.16265C216.966 3.11078 216.699 3.11078 216.44 3.16265L216.098 7.73474C213.195 11.1724 206.226 18.5634 202.434 23.1011V10.6224C202.434 9.14418 202.434 7.83787 202.434 6.49718C202.434 5.98153 202.434 5.56901 202.434 5.08774V1.23756C201.888 1.95947 202.059 3.64392 201.888 5.22524C201.683 4.95023 201.307 4.8471 201.136 4.12519V2.16573V1.78758V1.51257C201.136 1.23756 201.136 1.13443 201.136 1.13443C201.136 1.13443 200.863 1.68445 200.692 1.95947C200.627 2.04298 200.544 2.11093 200.449 2.15847C200.355 2.20601 200.251 2.23196 200.146 2.23448L197.071 1.75321C196.8 1.70355 196.522 1.70355 196.251 1.75321C196.046 6.9097 195.773 12.0662 195.773 17.0508C195.773 20.2478 195.773 23.3417 195.773 26.4356C195.773 30.1139 195.773 33.7234 195.978 37.3674H196.32H197.003C197.372 36.9507 197.862 36.6619 198.403 36.5423C198.848 36.5423 199.018 37.1267 199.257 37.2986H199.667C199.86 37.3313 200.056 37.3313 200.248 37.2986C200.763 36.9968 201.332 36.7983 201.922 36.7142C202.298 36.7142 202.229 37.2986 202.571 37.3674L202.434 33.6891C203.562 31.9359 208.276 26.8137 215.347 17.979L214.595 28.2919C214.322 32.039 214.151 35.786 214.151 39.6706C214.274 39.6311 214.405 39.6311 214.527 39.6706H215.21C215.689 39.2581 216.133 38.7768 216.611 38.7768H216.782C217.055 38.7768 217.157 39.3612 217.533 39.6018H217.875H218.456C218.626 39.6018 219.105 39.1893 219.685 38.9831H220.061C220.574 38.9831 220.471 39.5675 220.778 39.7737V34.0672C220.778 31.2483 221.052 28.4638 221.325 25.6449C221.598 22.8261 222.008 19.7322 222.247 16.6383C222.486 13.5444 222.555 10.9661 222.794 7.97537C222.794 7.97537 222.794 7.28784 222.794 6.66906C222.794 6.05028 222.794 4.95023 222.589 4.95023V5.05336ZM253.094 34.3766C251.864 32.864 250.805 31.4546 249.678 30.0795C248.554 28.7456 247.527 27.3326 246.604 25.8512C246.125 25.2324 245.75 24.5793 245.306 23.9949C244.918 23.4029 244.576 22.7824 244.281 22.1385L243.734 20.901V20.3509C244.312 19.5658 244.939 18.8194 245.613 18.1165C247.458 16.1226 254.7 9.65983 254.7 9.21293C254.7 8.76603 253.982 9.59107 253.777 9.59107C253.572 9.59107 253.436 9.59107 253.436 9.17855C253.436 8.76603 254.905 7.63161 254.905 7.32222C254.905 7.01283 254.905 7.32222 254.7 7.32222H254.085C253.436 7.32222 253.231 6.70344 252.855 6.42842L251.591 5.12211C251.013 4.64989 250.369 4.2675 249.678 3.98769C248.374 5.67446 246.959 7.27086 245.442 8.76603C243.833 10.2962 242.359 11.964 241.036 13.7506L238.303 17.1883V14.2663V7.97537C238.098 6.25654 237.995 4.53771 237.825 2.92201C237.427 4.19917 237.31 5.54822 237.483 6.87532C237.039 6.49718 236.629 6.49718 236.39 5.8784C236.151 5.25962 236.39 5.32837 236.39 5.12211V3.88456C236.436 3.70417 236.436 3.51491 236.39 3.33453C236.39 3.12827 236.185 2.99076 236.116 2.99076C236.048 2.99076 235.809 3.50641 235.604 3.74705C235.366 3.9234 235.079 4.01965 234.784 4.02206H234.169C233.315 4.02206 232.359 3.6783 231.437 3.6783C231.047 3.66044 230.658 3.74328 230.309 3.91893V12.7193C230.309 14.6101 230.309 16.3976 230.309 18.3227V20.626C230.309 22.8261 230.548 25.0605 230.583 27.295V37.608H231.129H231.881C231.881 37.608 232.154 37.608 232.222 37.608C232.803 37.333 233.179 36.8517 233.828 36.8517H234.033C234.408 37.0236 234.306 37.4017 234.682 37.608C234.839 37.6488 235.003 37.6488 235.16 37.608C235.398 37.6438 235.64 37.6438 235.877 37.608C236.526 37.3065 237.218 37.1094 237.927 37.0236C238.405 37.0236 238.405 37.5049 238.747 37.6768C238.747 35.7517 238.747 34.0328 238.508 32.2453C238.508 31.0764 238.508 30.492 238.508 28.8076V26.4012C240.256 29.4966 242.207 32.471 244.349 35.3048L246.228 37.8143C246.809 38.6737 247.355 39.4987 247.833 40.3238C248.22 40.1339 248.619 39.973 249.029 39.8425C249.445 39.3956 249.96 39.054 250.532 38.8456C250.873 38.8255 251.216 38.8255 251.557 38.8456C251.969 38.7943 252.366 38.6535 252.718 38.433L254.051 37.608C254.666 37.333 254.973 37.8143 255.417 37.608C254.847 36.3598 254.099 35.2018 253.197 34.1703L253.094 34.3766ZM242.539 21.5198C242.764 21.191 243.028 20.8909 243.324 20.626C243.243 20.9881 243.243 21.3638 243.324 21.726C243.051 21.726 242.744 21.726 242.47 21.726L242.539 21.5198ZM281.994 29.667C281.598 29.1269 281.233 28.5645 280.901 27.9826V27.8107C280.901 27.6044 281.345 27.295 281.345 27.02C281.345 26.745 281.345 26.7794 281.345 26.5731C281.345 26.3669 281.345 26.1262 281.345 26.0231C281.345 25.92 280.969 25.4387 280.73 24.8887C280.629 24.7443 280.559 24.5804 280.525 24.4074C280.525 24.0292 280.867 24.4074 281.072 23.7542L279.056 24.0636L278.407 22.4479C278.017 21.5108 277.697 20.5455 277.451 19.5603L276.323 15.8132C275.546 13.3624 274.896 10.8724 274.376 8.35351C274 6.63468 273.454 5.25962 273.078 3.57517C272.951 4.83327 273.115 6.10381 273.556 7.28784C273.18 7.11596 272.805 7.11596 272.531 6.53155L271.882 4.12519C271.882 3.91893 271.882 3.8158 271.609 3.8158C271.336 3.8158 271.609 4.40021 271.336 4.60646C271.063 4.81272 270.516 5.05336 270.106 5.22524H268.535C268.573 4.7792 268.573 4.3306 268.535 3.88456C268.535 3.64392 268.535 3.54079 268.33 3.54079C268.125 3.54079 268.125 4.19395 267.851 4.43458C267.688 4.6009 267.469 4.69912 267.237 4.70959H266.553C266.019 4.69334 265.49 4.60074 264.982 4.43458C264.709 4.40701 264.435 4.40701 264.162 4.43458C263.89 4.42537 263.62 4.48444 263.376 4.60646C263.311 7.08121 263.095 9.54955 262.727 11.9974C262.352 14.1975 261.908 16.432 261.463 18.8728V19.5259C260.883 22.6198 260.165 25.7137 259.585 28.9795C259.209 30.9046 258.97 32.7265 258.731 34.6516C258.421 36.5854 258.238 38.5376 258.184 40.4956C258.928 40.0635 259.755 39.7941 260.609 39.705H260.883C261.156 39.705 261.19 40.255 261.566 40.53C261.713 40.5532 261.863 40.5532 262.01 40.53C262.189 40.5766 262.377 40.5766 262.557 40.53C262.557 40.53 263.24 40.2206 263.855 40.0487H264.23C264.606 40.0487 264.504 40.4613 264.811 40.7363C264.811 38.9487 265.085 37.2986 265.289 35.2704V33.9641L275.538 31.8327L276.767 33.7234C277.758 35.4172 279.016 36.938 280.491 38.2268C280.567 38.0906 280.659 37.9637 280.764 37.8486C280.872 37.8015 280.967 37.7307 281.044 37.6415C281.121 37.5523 281.177 37.4469 281.208 37.333C281.18 37.0242 281.18 36.7136 281.208 36.4048C281.256 36.1308 281.387 35.8785 281.584 35.6829H282.438C283.053 35.6829 283.155 35.2016 283.292 35.0298C283.294 34.7907 283.379 34.5599 283.531 34.3766C283.653 34.0883 283.802 33.8121 283.975 33.5516C284.18 33.2766 284.248 33.1734 284.453 33.139C284.658 33.1047 284.453 33.139 284.727 33.139L285.102 33.3109C284.003 32.2553 282.997 31.105 282.096 29.8733L281.994 29.667ZM266.656 26.5044L267.339 23.273C267.783 21.5198 267.783 19.2853 268.091 17.6008L269.013 12.7193C269.457 14.4038 269.833 18.3227 270.414 20.0072C270.687 21.0385 271.063 22.001 271.438 23.1011L272.463 25.4731L270.687 25.8512C269.286 26.1262 267.988 26.2981 266.656 26.5044Z" fill="#1C802C"/>
</svg>
