<svg width="257" height="30" viewBox="0 0 257 30" fill="none" xmlns="http://www.w3.org/2000/svg">
<path fill-rule="evenodd" clip-rule="evenodd" d="M0 6.99923V13.9979L2.24267 13.6985C3.47606 13.5335 4.84378 13.6223 5.2827 13.8958C5.82354 14.2327 6.40838 13.98 7.10093 13.11C8.10443 11.8483 8.1357 11.8454 8.98286 12.9467C9.45652 13.5629 9.87054 14.6013 9.90297 15.2544C9.96551 16.5069 10.2435 15.6946 11.6233 10.2254C12.3437 7.37192 13.1463 6.29308 13.5713 7.60788C13.7062 8.02442 13.987 10.3788 14.1961 12.84C14.4051 15.3012 14.785 17.186 15.0403 17.0285C15.2957 16.8715 15.6912 13.4013 15.9193 9.31846C16.3154 2.22 16.8174 -0.167308 17.7248 0.736154C17.9536 0.964038 18.4295 5.49981 18.7822 10.8156L19.4243 20.4808L20.1348 12.3738C20.5263 7.91481 20.8459 3.30692 20.8459 2.13346V0H10.423H0V6.99923ZM22.8483 6.20192C23.0764 9.61327 23.4441 13.9615 23.6665 15.8654L24.0695 19.3269L24.4667 16.2196C24.9317 12.5775 25.2027 12.1702 26.3817 13.3448C26.9185 13.8796 27.9214 14.1202 28.9735 13.9662L30.6898 13.7152V6.85788V0H26.5618H22.4343L22.8483 6.20192ZM43.9907 1.875C39.0323 4.37077 37.3015 9.73442 40.1133 13.8917C41.4643 15.889 43.3647 16.8352 50.0881 18.8585C53.3279 19.8335 53.5624 20.0204 53.5624 21.6323C53.5624 23.1208 53.259 23.4594 51.3748 24.0744C48.611 24.9767 44.3399 24.1604 41.3913 22.1671C40.2546 21.3981 39.1932 20.7692 39.0328 20.7692C38.8724 20.7692 38.8192 22.3667 38.9136 24.319L39.0861 27.8694L41.4023 28.7054C42.6762 29.1658 45.9334 29.5708 48.6405 29.6065C52.8676 29.6619 53.9232 29.4704 56.1167 28.249C59.4856 26.3735 60.9054 24.3456 61.2227 20.9562C61.4329 18.7073 61.2204 17.7883 60.1144 16.1677C58.7085 14.1069 56.8555 13.1781 50.0881 11.1415C47.2676 10.2929 46.5779 9.84288 46.4227 8.75135C45.9693 5.56385 52.0801 4.68 57.0837 7.20923C58.65 8.00135 60.0102 8.65038 60.1058 8.65154C60.2013 8.65269 60.2013 7.16077 60.1058 5.33654C59.9372 2.11558 59.873 1.99904 57.9053 1.33038C56.7907 0.951923 53.7842 0.627115 51.2242 0.609231C47.5032 0.583269 46.0521 0.837115 43.9907 1.875ZM61.9587 3.46154V6.34615H66.3016H70.6445V17.8846V29.4231H74.1188H77.5932V17.8846V6.34615H81.6465H85.6999V3.46154V0.576923H73.8293H61.9587V3.46154ZM95.2456 1.27154C93.8576 4.94885 86.279 28.1204 86.279 28.6875C86.279 29.1992 87.3045 29.4231 89.6514 29.4231H93.0244L93.8785 26.6827L94.7326 23.9423H99.3169H103.901L104.678 26.6827L105.455 29.4231H109.225C112.867 29.4231 112.98 29.3798 112.587 28.125C112.363 27.4108 110.164 20.9856 107.7 13.8462L103.22 0.865385L99.3743 0.694615C96.6272 0.572885 95.4471 0.737885 95.2456 1.27154ZM115.811 14.9192V29.4231H119.285H122.759V24.2308C122.759 19.1348 122.785 19.0385 124.148 19.0385C125.225 19.0385 126.413 20.209 129.418 24.2308L133.299 29.4231H137.618C140.917 29.4231 141.835 29.2529 141.504 28.7019C141.267 28.3056 139.134 25.5433 136.764 22.5646C132.881 17.6844 132.559 17.0902 133.51 16.5594C135.454 15.4754 137.206 13.1469 137.583 11.1473C138.089 8.46058 137.504 5.29096 136.248 3.90808C134.082 1.52308 132.038 0.996923 123.784 0.700962L115.811 0.415385V14.9192ZM144.184 14.9746V29.4231H147.369H150.554V20.4467C150.554 15.51 150.773 11.6054 151.041 11.7704C151.309 11.9354 152.51 14.43 153.71 17.314L155.892 22.5583L158.483 22.3846L161.075 22.2115L163.226 17.1831C164.409 14.4173 165.559 11.9729 165.782 11.7502C166.006 11.5281 166.188 15.4137 166.188 20.3844V29.4231H169.663H173.137V15V0.576923H169.052H164.967L163.619 3.61269C162.878 5.28288 161.444 8.46288 160.434 10.68L158.596 14.7115L155.517 7.78846L152.438 0.865385L148.311 0.695769L144.184 0.526154V14.9746ZM185.566 1.18788C185.227 1.73365 176.032 28.8404 176.032 29.2927C176.032 29.3948 177.649 29.4006 179.625 29.3065L183.218 29.1346L184.07 26.3942L184.921 23.6538H189.418H193.916L194.691 26.3942L195.465 29.1346L199.067 29.3065C201.72 29.4329 202.669 29.2812 202.672 28.7296C202.673 28.3177 200.553 21.8152 197.96 14.2788L193.245 0.576923H189.595C187.587 0.576923 185.774 0.851538 185.566 1.18788ZM205.825 1.31019C205.669 1.71346 205.612 8.13865 205.698 15.589L205.854 29.1346H209.038H212.223L212.513 19.7688L212.802 10.4025L218.014 19.7688L223.225 29.1346H226.699H230.174V15V0.865385H226.989H223.804L223.515 8.59212L223.225 16.3194L218.882 8.45538L214.539 0.591346L210.323 0.584423C207.442 0.579231 206.017 0.808846 205.825 1.31019ZM239.711 1.875C235.133 4.17923 233.441 8.43231 235.319 12.9115C236.322 15.3029 238.941 16.9344 243.768 18.1742C248.961 19.5081 249.677 19.9662 249.462 21.8175C249.075 25.1556 241.835 25.3604 237.111 22.1671C235.975 21.3981 234.925 20.7692 234.781 20.7692C234.635 20.7692 234.517 22.3333 234.517 24.2452C234.517 27.5037 234.616 27.7592 236.109 28.3344C239.359 29.5875 244.751 30.0935 248.163 29.4646C254.197 28.3535 257.452 24.6283 256.949 19.41C256.597 15.7598 254.557 13.766 249.754 12.3796C243.531 10.5825 242.343 10.0587 242.142 9.02077C241.493 5.66481 247.672 4.61481 252.804 7.20923C254.37 8.00135 255.73 8.65038 255.826 8.65154C255.921 8.65269 255.921 7.16077 255.826 5.33654C255.657 2.11558 255.593 1.99904 253.625 1.33038C252.511 0.951923 249.504 0.627115 246.944 0.609231C243.223 0.583269 241.772 0.837115 239.711 1.875ZM129.167 6.94327C129.937 7.35346 130.287 8.15308 130.287 9.49788C130.287 12.0583 128.112 13.8462 124.997 13.8462H122.759V10.0962V6.34615H125.403C126.857 6.34615 128.551 6.615 129.167 6.94327ZM16.536 16.2254C16.0728 23.6648 15.5354 25.8381 14.5395 24.2983C14.2557 23.8598 13.8405 21.0687 13.617 18.0963C13.1903 12.4246 12.5516 11.2165 11.9042 14.8558C11.035 19.7435 10.3332 20.2737 9.23359 16.875C8.2573 13.8571 8.02105 13.5658 7.41883 14.6377C6.85136 15.6479 4.85305 15.9248 4.53573 15.0369C4.42107 14.7162 3.46158 14.7733 2.17145 15.1783L0 15.859V22.9298V30H9.23069C14.3078 30 18.5633 29.805 18.6878 29.5673C18.9901 28.9892 18.0097 14.8194 17.4405 11.5385C17.0578 9.33288 16.9217 10.0373 16.536 16.2254ZM21.2495 16.4423C21.0249 20.5673 20.6757 25.305 20.473 26.9712L20.1053 30H25.3979H30.6898V22.5C30.6898 15.5394 30.6117 15 29.5995 15C28.9614 15 28.3591 15.5388 28.1478 16.2981L27.787 17.5962L26.6938 16.1908L25.6005 14.7854L25.1877 19.7181C24.7904 24.469 24.19 26.6008 23.4546 25.8687C23.2629 25.6771 22.8506 22.1798 22.5391 18.0969C21.766 7.96212 21.7145 7.89577 21.2495 16.4423ZM100.731 13.7642C101.381 15.9404 101.913 17.8875 101.913 18.0912C101.913 18.2948 100.741 18.4615 99.3077 18.4615C97.5497 18.4615 96.7019 18.2163 96.7019 17.7081C96.7019 16.8029 99.0344 9.80769 99.336 9.80769C99.453 9.80769 100.08 11.5881 100.731 13.7642ZM191.828 18.0288C191.701 18.2671 190.572 18.4615 189.316 18.4615C187.471 18.4615 187.034 18.2544 187.034 17.3804C187.034 16.4383 188.049 13.0719 189.143 10.3846C189.355 9.86423 190.006 11.13 190.776 13.5577C191.48 15.7788 191.953 17.7906 191.828 18.0288Z" fill="#ADBBD7"/>
</svg>
