<svg width="289" height="71" viewBox="0 0 289 71" fill="none" xmlns="http://www.w3.org/2000/svg">
<g clip-path="url(#clip0_1015_3671)">
<path d="M176.108 26.9727H167.184L167.198 43.5828C167.198 48.4367 165.106 52.3635 160.227 52.3635C155.345 52.3635 153.233 48.4367 153.233 43.5828V26.9883H144.333L144.33 43.5828C144.33 53.1747 150.529 60.9486 160.172 60.9486C169.813 60.9486 176.105 53.1747 176.105 43.5828L176.108 26.9727Z" fill="#009CDE"/>
<path d="M265.458 16.8511H256.577V60.0917H265.458V16.8511Z" fill="#009CDE"/>
<path d="M272.014 18.4462V16.8926H278.935V18.4462H276.403V25.2932H274.547V18.4462H272.014Z" fill="#009CDE"/>
<path d="M282.517 16.8931L284.493 22.669H284.516L286.384 16.8931H289V25.2932H287.261V19.3398H287.237L285.167 25.2932H283.736L281.667 19.3988H281.642V25.2932H279.905V16.8931H282.517Z" fill="#009CDE"/>
<path d="M137.073 26.6116C129.419 24.854 124.59 32.4191 124.389 32.8247C124.291 33.0239 124.287 33.1398 123.948 33.1313C123.668 33.1253 123.636 32.8247 123.636 32.8247L122.686 27.0377H114.731V60.0636H123.649V42.1872C123.649 40.7266 127.602 33.7228 135.264 35.525C139.139 36.4376 140.783 38.0733 140.783 38.0733V28.0118C139.618 27.3753 138.37 26.9039 137.073 26.6116Z" fill="#009CDE"/>
<path d="M196.852 34.9796C198.612 34.9792 200.333 35.4981 201.796 36.4705C203.26 37.443 204.401 38.8254 205.074 40.4428C205.748 42.0602 205.924 43.8401 205.581 45.5572C205.238 47.2744 204.39 48.8517 203.146 50.0897C201.901 51.3277 200.316 52.1707 198.59 52.5122C196.863 52.8537 195.074 52.6782 193.448 52.0081C191.822 51.3379 190.433 50.2031 189.455 48.7473C188.477 47.2914 187.956 45.5798 187.956 43.829C187.957 41.4822 188.894 39.2317 190.563 37.5723C192.231 35.9128 194.493 34.9803 196.852 34.9796ZM188.209 70.9412V59.0582L188.211 59.0607L188.213 54.61C188.213 54.61 188.227 54.2539 188.55 54.2502C188.837 54.2466 188.901 54.4362 188.972 54.61C189.648 56.2842 193.366 62.6591 201.618 60.6601C204.766 59.7767 207.604 58.0371 209.812 55.6369C212.021 53.2366 213.512 50.271 214.119 47.0736C214.725 43.8762 214.423 40.5739 213.246 37.538C212.069 34.5022 210.063 31.8533 207.455 29.8894C204.847 27.9254 201.74 26.7243 198.484 26.4211C195.227 26.1179 191.95 26.7246 189.021 28.1731C186.092 29.6216 183.627 31.8543 181.904 34.6202C180.181 37.386 179.268 40.5752 179.268 43.8291V70.9412L188.209 70.9412Z" fill="#009CDE"/>
<path d="M244.286 43.8292C244.286 45.5799 243.764 47.2915 242.787 48.7473C241.809 50.2031 240.42 51.3379 238.794 52.0081C237.168 52.6783 235.379 52.8538 233.653 52.5125C231.926 52.1711 230.341 51.3282 229.096 50.0903C227.852 48.8524 227.004 47.2752 226.661 45.5582C226.317 43.8411 226.494 42.0613 227.167 40.4438C227.841 38.8264 228.981 37.4439 230.444 36.4713C231.908 35.4987 233.628 34.9796 235.388 34.9798C237.748 34.9802 240.01 35.9127 241.679 37.5722C243.347 39.2316 244.285 41.4822 244.286 43.8292ZM244.032 60.0784H252.973V43.8292C252.973 40.5755 252.06 37.3864 250.337 34.6206C248.614 31.8549 246.15 29.6221 243.221 28.1736C240.292 26.7251 237.015 26.1183 233.758 26.4214C230.502 26.7245 227.395 27.9254 224.787 29.8892C222.179 31.853 220.173 34.5017 218.996 37.5374C217.819 40.5731 217.516 43.8753 218.123 47.0726C218.729 50.2699 220.221 53.2354 222.429 55.6357C224.637 58.0359 227.475 59.7756 230.623 60.6591C238.875 62.6592 242.593 56.2832 243.269 54.6101C243.339 54.4363 243.402 54.2468 243.691 54.2492C244.014 54.254 244.027 54.6101 244.027 54.6101" fill="#009CDE"/>
<path d="M89.2183 24.318H85.6336V52.5178L89.3153 52.6119C96.8669 52.6119 101.731 51.9287 101.731 38.4209C101.731 25.4684 97.4372 24.318 89.2183 24.318ZM86.7974 60.0092H76.6538V16.8337H87.5376C100.716 16.8337 110.712 19.2396 110.712 38.4209C110.712 57.4187 100.124 60.0092 86.7974 60.0092Z" fill="#009CDE"/>
<path d="M38.5522 15.1226C33.53 10.129 28.7382 5.36873 27.3122 0C25.886 5.36873 21.0935 10.129 16.0721 15.1226C8.53992 22.6106 0 31.0971 0 43.8254C-5.34473e-08 47.3934 0.70647 50.9264 2.07908 54.2228C3.45168 57.5192 5.46354 60.5144 7.99978 63.0374C10.536 65.5603 13.547 67.5616 16.8607 68.9271C20.1745 70.2925 23.7262 70.9952 27.313 70.9952C30.8997 70.9952 34.4514 70.2925 37.7652 68.9271C41.0789 67.5616 44.0899 65.5603 46.6261 63.0374C49.1624 60.5144 51.1742 57.5192 52.5468 54.2228C53.9194 50.9264 54.6259 47.3934 54.6259 43.8254C54.6259 31.0979 46.0867 22.6106 38.5522 15.1226ZM11.6089 50.1564C9.93415 50.0998 3.75344 39.5023 15.2196 28.2187L22.8073 36.4635C22.8724 36.5275 22.9232 36.6044 22.9563 36.6894C22.9893 36.7743 23.004 36.8652 22.9992 36.9562C22.9944 37.0471 22.9703 37.136 22.9285 37.217C22.8867 37.298 22.8281 37.3694 22.7566 37.4262C20.946 39.2735 13.2288 46.9718 12.2696 49.6337C12.0716 50.1831 11.7825 50.1623 11.6089 50.1564ZM27.313 64.1236C26.0794 64.1236 24.8579 63.8819 23.7182 63.4123C22.5785 62.9427 21.5429 62.2544 20.6707 61.3867C19.7984 60.519 19.1064 59.4889 18.6344 58.3551C18.1623 57.2214 17.9193 56.0063 17.9194 54.7792C17.954 52.5134 18.782 50.3307 20.2607 48.6069C21.9545 46.5466 27.3117 40.7517 27.3117 40.7517C27.3117 40.7517 32.587 46.6317 34.3501 48.5873C35.8861 50.2857 36.7268 52.4947 36.7066 54.7792C36.7066 57.2575 35.7169 59.6342 33.9553 61.3867C32.1936 63.1391 29.8043 64.1236 27.313 64.1236ZM45.2924 48.9703C45.0899 49.4107 44.6306 50.146 44.0108 50.1685C42.9058 50.2085 42.7878 49.6453 41.9711 48.443C40.1781 45.8036 24.5308 29.536 21.6041 26.3898C19.0298 23.6227 21.2416 21.6718 22.2675 20.6494C23.5547 19.3667 27.312 15.6314 27.312 15.6314C27.312 15.6314 38.5153 26.2054 43.1822 33.4303C47.8491 40.6553 46.2407 46.9071 45.2924 48.9703Z" fill="#009CDE"/>
</g>
<defs>
<clipPath id="clip0_1015_3671">
<rect width="289" height="71" fill="white"/>
</clipPath>
</defs>
</svg>
