<svg width="140" height="140" viewBox="0 0 140 140" fill="none" xmlns="http://www.w3.org/2000/svg">
<path d="M29.6406 0H35.9297V6.23438H41.7266V0H48.0156V18.8672H41.7266V12.5781H35.9844V18.8672H29.6406M56.3281 6.28906H50.7773V0H68.1953V6.28906H62.6172V18.8672H56.3281M70.957 0H77.5469L81.5938 6.64453L85.6406 0H92.2305V18.8672H85.9414V9.51562L81.5391 16.2969L77.1367 9.51562V18.8672H70.957M95.3477 0H101.637V12.6328H110.551V18.8672H95.3477" fill="black"/>
<path d="M29.4219 128.789L20.3984 27.5078H119.602L110.578 128.734L69.918 140" fill="#E44D26"/>
<path d="M70 131.387V35.8203H110.551L102.812 122.227" fill="#F16529"/>
<path d="M38.8281 48.207H70V60.6211H52.4453L53.5938 73.3359H70V85.7227H42.2187M42.7656 91.957H55.2344L56.1094 101.883L70 105.602V118.562L44.5156 111.453" fill="#EBEBEB"/>
<path d="M101.062 48.207H69.9453V60.6211H99.9141M98.793 73.3359H69.9453V85.75H85.2578L83.8086 101.883L69.9453 105.602V118.508L95.375 111.453" fill="white"/>
</svg>
