<svg width="289" height="60" viewBox="0 0 289 60" fill="none" xmlns="http://www.w3.org/2000/svg">
<path d="M90.2652 13.1392V36.9113C90.2652 39.0379 90.4169 41.0126 88.5206 42.4556C86.7759 43.8987 83.8177 44.3544 80.6318 44.3544C75.7772 44.3544 70.6192 43.2151 70.6192 43.2151L69.4814 46.2531C69.4814 46.2531 76.6875 47.7721 81.9213 47.848C86.3208 47.924 90.1893 46.9366 92.3132 44.5063C94.0578 42.5316 94.5888 40.2531 94.5129 36.3797V13.1392H90.2652Z" fill="#3B3A40"/>
<path d="M125.688 26.2785C122.503 24.5316 118.634 23.6202 114.235 23.6202C109.911 23.6202 106.042 24.5316 102.781 26.2785C98.6848 28.481 96.6367 31.7468 96.6367 35.8481C96.6367 39.9494 98.6848 43.2152 102.781 45.4177C106.042 47.1645 109.835 48.0759 114.235 48.0759C118.558 48.0759 122.427 47.1645 125.613 45.4177C129.709 43.2152 131.757 39.9494 131.757 35.8481C131.757 31.6709 129.709 28.481 125.688 26.2785ZM123.185 42.9873C120.682 44.4304 117.724 45.1139 114.235 45.1139C110.67 45.1139 107.635 44.4304 105.208 43.0633C102.25 41.3924 100.809 39.038 100.809 35.8481C100.809 32.7342 102.326 30.3038 105.208 28.6329C107.635 27.2658 110.67 26.5823 114.235 26.5823C117.724 26.5823 120.758 27.2658 123.261 28.6329C126.144 30.3038 127.661 32.7342 127.661 35.8481C127.585 38.8861 126.144 41.3164 123.185 42.9873Z" fill="#3B3A40"/>
<path d="M163.008 26.2785C159.822 24.5316 155.954 23.6202 151.554 23.6202C147.231 23.6202 143.362 24.5316 140.101 26.2785C136.005 28.481 133.957 31.7468 133.957 35.8481C133.957 39.9494 136.005 43.2152 140.101 45.4177C143.362 47.1645 147.155 48.0759 151.554 48.0759C155.878 48.0759 159.747 47.1645 162.932 45.4177C167.028 43.2152 169.076 39.9494 169.076 35.8481C169.076 31.6709 167.028 28.481 163.008 26.2785ZM160.505 42.9873C158.002 44.4304 155.044 45.1139 151.554 45.1139C147.989 45.1139 144.955 44.4304 142.528 43.0633C139.57 41.3924 138.128 39.038 138.128 35.8481C138.128 32.7342 139.646 30.3038 142.528 28.6329C144.955 27.2658 147.989 26.5823 151.554 26.5823C155.044 26.5823 158.078 27.2658 160.581 28.6329C163.463 30.3038 164.98 32.7342 164.98 35.8481C164.905 38.8861 163.463 41.3164 160.505 42.9873Z" fill="#3B3A40"/>
<path d="M214.512 25.6709C212.237 24.3038 209.279 23.6202 205.789 23.6202C201.314 23.6202 197.749 24.9873 195.018 27.7215C192.439 24.9873 188.798 23.6202 184.323 23.6202C180.682 23.6202 177.724 24.3797 175.448 25.8228V23.924H171.428V47.5443H175.448V31.443C175.752 30.3038 176.51 29.2405 177.724 28.3291C179.393 27.1899 181.516 26.5823 184.171 26.5823C186.523 26.5823 188.495 27.038 190.164 28.0253C192.136 29.1645 193.046 30.6835 193.046 32.8101V47.6962H196.99V32.7342C196.99 30.6076 197.901 29.0886 199.873 27.9494C201.542 27.038 203.59 26.5063 205.941 26.5063C208.293 26.5063 210.341 26.962 212.009 27.9494C213.982 29.0886 214.892 30.6076 214.892 32.7342V47.6202H218.912V33.2658C218.836 29.924 217.319 27.3418 214.512 25.6709Z" fill="#3B3A40"/>
<path d="M222.022 13.1392V47.6202H226.042V13.1392H222.022Z" fill="#3B3A40"/>
<path d="M270.871 13.1392V39.7974H274.891V13.1392H270.871Z" fill="#3B3A40"/>
<path d="M260.328 23.9239V27.9493C256.914 25.0632 252.363 23.5442 246.75 23.5442C242.275 23.5442 238.406 24.3796 235.22 26.1265C231.276 28.329 229.228 31.5189 229.228 35.772C229.228 39.9493 231.276 43.2151 235.372 45.3417C238.558 47.0885 242.426 47.9239 246.902 47.9239C249.102 47.9239 251.301 47.6961 253.273 47.1644C256.08 46.4049 258.431 45.3417 260.252 43.8986V47.5442H264.272V23.9239H260.328ZM233.476 35.848C233.476 32.7341 234.993 30.3037 237.875 28.6328C240.303 27.2657 243.413 26.5822 246.978 26.5822C251.377 26.5822 254.79 27.6455 257.218 29.772C259.342 31.6708 260.404 34.1012 260.404 37.0632V39.8733C258.735 41.772 256.232 43.2151 253.046 44.2024C251.15 44.81 249.102 45.1138 246.978 45.1138C243.337 45.1138 240.303 44.4303 237.875 43.1391C234.917 41.3923 233.476 39.0379 233.476 35.848Z" fill="#3B3A40"/>
<path d="M272.919 43.1392C270.113 43.1392 269.733 44.5822 269.733 45.4936C269.733 46.405 270.189 47.848 272.919 47.848C275.726 47.848 276.105 46.329 276.105 45.4936C276.105 44.6581 275.65 43.1392 272.919 43.1392Z" fill="#3B3A40"/>
<path d="M287.331 17.3923C287.331 19.7468 285.814 21.7215 283.083 21.7215C280.353 21.7215 278.836 19.7468 278.836 17.3923C278.836 15.0379 280.353 13.0632 283.083 13.0632C285.814 13.0632 287.331 15.0379 287.331 17.3923ZM279.746 17.3923C279.746 19.367 280.96 20.886 283.083 20.886C285.207 20.886 286.421 19.367 286.421 17.3923C286.421 15.4177 285.207 13.8987 283.083 13.8987C280.96 13.8987 279.746 15.4177 279.746 17.3923ZM283.918 17.924C285.587 17.6202 285.435 15.1139 283.539 15.1139H281.491V19.5189H282.325V17.9999H283.083L284.297 19.5189H285.207V19.367L283.918 17.924ZM283.539 15.8734C284.525 15.8734 284.525 17.3164 283.539 17.3164H282.325V15.8734H283.539Z" fill="#3B3A40"/>
<path d="M12.1365 30.5316L11.0745 29.4683C7.66114 26.0506 6.67506 21.2658 7.88871 16.9367C4.47532 16.1772 1.97217 13.1392 1.97217 9.49362C1.97217 5.3164 5.38555 1.89868 9.55747 1.89868C13.3501 1.89868 16.4601 4.63286 17.0669 8.27843C21.163 7.29109 25.6383 8.43033 28.8241 11.6202L29.2793 12.0759L23.6661 17.6961L23.211 17.2405C21.3905 15.4177 18.4323 15.4177 16.6118 17.2405C14.7913 19.0632 14.7913 22.0253 16.6118 23.848L29.2034 36.4556L23.5903 42.0759L17.6737 36.1518L12.1365 30.5316Z" fill="#7AC143"/>
<path d="M18.4324 24.3037L31.024 11.6961C34.3615 8.35436 39.2161 7.29107 43.4639 8.50626C43.9948 4.78474 47.1807 1.97461 50.9733 1.97461C55.1452 1.97461 58.5586 5.39233 58.5586 9.56955C58.5586 13.443 55.6762 16.6328 51.9594 17.0885C53.1731 21.3417 52.1111 26.1265 48.7736 29.4683L48.3185 29.924L42.857 24.3037L43.3122 23.848C45.1326 22.0252 45.1326 19.0632 43.3122 17.2404C41.4917 15.4176 38.5334 15.4176 36.713 17.2404L24.1214 29.848L18.4324 24.3037Z" fill="#F9A541"/>
<path d="M43.6912 52.6329C39.3676 53.924 34.513 52.9366 31.0996 49.5189L30.6445 49.0632L36.2577 43.443L36.7128 43.8987C38.5332 45.7215 41.4915 45.7215 43.312 43.8987C45.1325 42.0759 45.1325 39.1139 43.312 37.2911L30.7204 24.6835L36.3335 19.0632L49.001 31.7468C52.1868 34.9367 53.3246 39.4936 52.3385 43.6708C56.0553 44.2025 58.8619 47.3923 58.8619 51.1898C58.8619 55.367 55.4485 58.7848 51.2766 58.7848C47.4839 58.7088 44.3739 56.0506 43.6912 52.6329Z" fill="#F44321"/>
<path d="M41.4916 36.8353L28.9 49.4429C25.6383 52.7088 21.0871 53.7721 16.9911 52.7847C16.2325 56.2024 13.1984 58.7088 9.55747 58.7088C5.38555 58.7088 1.97217 55.291 1.97217 51.1138C1.97217 47.5442 4.47532 44.5062 7.81285 43.7467C6.75091 39.4936 7.81285 34.9366 11.0745 31.6708L11.5296 31.2151L17.1428 36.8353L16.6877 37.291C14.8672 39.1138 14.8672 42.0759 16.6877 43.8986C18.5081 45.7214 21.4664 45.7214 23.2869 43.8986L35.8785 31.291L41.4916 36.8353Z" fill="#5091CD"/>
</svg>
