<svg width="136" height="136" viewBox="0 0 136 136" fill="none" xmlns="http://www.w3.org/2000/svg">
<g clip-path="url(#clip0_1204_3457)">
<path d="M136 0H0V136H136V0Z" fill="#F7DF1E"/>
<path d="M91.357 106.25C94.0965 110.723 97.6605 114.011 103.964 114.011C109.259 114.011 112.642 111.364 112.642 107.708C112.642 103.325 109.167 101.773 103.338 99.2238L100.143 97.853C90.921 93.9241 84.7945 89.0022 84.7945 78.5971C84.7945 69.0123 92.0975 61.7158 103.511 61.7158C111.636 61.7158 117.478 64.5438 121.687 71.9482L111.735 78.338C109.544 74.4092 107.181 72.8613 103.511 72.8613C99.7675 72.8613 97.395 75.2359 97.395 78.338C97.395 82.1719 99.7696 83.7241 105.253 86.0987L108.448 87.4673C119.306 92.1237 125.437 96.8707 125.437 107.543C125.437 119.05 116.398 125.353 104.26 125.353C92.3911 125.353 84.7233 119.697 80.9714 112.284L91.357 106.25ZM46.2115 107.358C48.2191 110.92 50.0454 113.931 54.4363 113.931C58.635 113.931 61.2838 112.288 61.2838 105.901V62.4455H74.0634V106.073C74.0634 119.306 66.305 125.329 54.9803 125.329C44.7479 125.329 38.8222 120.034 35.8086 113.656L46.2115 107.358Z" fill="black"/>
</g>
<defs>
<clipPath id="clip0_1204_3457">
<rect width="136" height="136" fill="white"/>
</clipPath>
</defs>
</svg>
