<svg width="287" height="77" viewBox="0 0 287 77" fill="none" xmlns="http://www.w3.org/2000/svg">
<g clip-path="url(#clip0_1015_3504)">
<path d="M74.2133 7.4082H36.993L31.8359 15.4898L58.7422 32.1021L74.2133 7.4082Z" fill="#00B5DE"/>
<path d="M31.8375 15.4898L6.94922 0V37.2653L15.6938 42.2041L58.7438 32.102L31.8375 15.4898Z" fill="#00DECC"/>
<path d="M66.8164 39.7347L58.7445 34.7959L42.1523 61.5102L66.8164 77V39.7347Z" fill="#FF5529"/>
<path d="M58.7453 34.7959L15.4711 45.1224L0 69.3673H37.2203L42.1531 61.5102L58.7453 34.7959Z" fill="#FF9640"/>
<path d="M134.53 59.9389V36.3675L122.87 55.8981H118.834L107.399 37.041V60.1634H98.8789V20.4287H106.502L121.077 44.8981L135.651 20.4287H143.05L143.274 59.7144H134.53V59.9389Z" fill="#102C53"/>
<path d="M152.242 40.1837C152.242 28.5102 161.435 19.7551 173.767 19.7551C186.099 19.7551 195.292 28.2857 195.292 40.1837C195.292 52.0817 186.099 60.6123 173.767 60.6123C161.435 60.6123 152.242 51.8572 152.242 40.1837ZM186.099 40.1837C186.099 32.7755 180.718 27.6123 173.767 27.6123C166.816 27.6123 161.435 32.7755 161.435 40.1837C161.435 47.5919 166.816 52.7551 173.767 52.7551C180.718 52.7551 186.099 47.5919 186.099 40.1837Z" fill="#102C53"/>
<path d="M204.484 20.4287H222.422C235.202 20.4287 244.171 28.2859 244.171 40.1838C244.171 52.0818 235.427 59.9389 222.422 59.9389H204.484V20.4287ZM221.973 52.3063C229.821 52.3063 234.978 47.592 234.978 40.1838C234.978 32.5512 229.821 28.0614 221.973 28.0614H213.677V52.5308H221.973V52.3063Z" fill="#102C53"/>
<path d="M276.459 59.9388L267.041 46.2449L257.624 59.9388H247.086L261.66 39.9592L247.759 20.6531H258.073L267.041 33.449L276.01 20.6531H285.876L272.198 39.7347L286.773 60.1633H276.459V59.9388Z" fill="#102C53"/>
</g>
<defs>
<clipPath id="clip0_1015_3504">
<rect width="287" height="77" fill="white"/>
</clipPath>
</defs>
</svg>
