<svg width="239" height="239" viewBox="0 0 239 239" fill="none" xmlns="http://www.w3.org/2000/svg">
<path d="M21.5098 166.769C19.7837 167.964 16.5971 171.283 14.4726 174.337C10.8876 179.25 10.6221 180.578 10.6221 190.802C10.6221 199.432 11.0204 202.088 12.6137 202.619C16.7298 204.212 18.5887 200.627 18.5887 191.067C18.5887 182.835 18.9871 181.64 22.7048 177.258C27.7504 171.549 31.4682 171.283 36.6465 176.727C40.0987 180.312 40.6298 181.906 41.161 191.598C41.8248 202.088 41.9576 202.486 45.1443 202.486C48.331 202.486 48.4637 202.221 48.8621 192.262C49.2604 180.312 46.7376 173.673 39.4348 168.097C34.1237 164.113 26.1571 163.449 21.5098 166.769Z" fill="#151515"/>
<path d="M63.0694 167.167C53.9078 172.611 51.1194 183.101 56.0322 192.395C62.6711 204.743 78.87 206.868 88.1644 196.644C93.3428 190.934 86.5711 187.349 80.065 192.528C73.6916 197.441 66.1233 195.316 62.9366 187.881C59.6172 179.781 65.0611 172.08 73.8244 172.877C76.48 173.142 79.0028 173.939 79.2683 174.603C79.5339 175.399 76.3472 177.657 72.3639 179.648C64.1316 183.632 62.0072 186.686 65.725 189.341C67.7166 190.802 69.7083 190.271 79.7994 185.092C86.3055 181.906 91.6166 178.453 91.6166 177.391C91.6166 174.736 86.5711 168.761 82.3222 166.636C77.0111 163.848 67.8494 164.113 63.0694 167.167Z" fill="#151515"/>
<path d="M96.9277 176.86C96.9277 190.802 99.0522 196.113 106.089 199.698C111.666 202.619 120.031 203.681 123.351 201.955C129.326 198.636 125.077 193.856 116.181 193.856C110.073 193.856 104.894 189.076 104.894 183.366C104.894 179.914 105.426 179.383 109.276 178.984C112.861 178.719 113.525 178.055 113.525 175.267C113.525 172.478 112.861 171.814 109.276 171.549C106.089 171.283 104.894 170.354 104.629 168.229C104.363 166.105 103.168 165.176 100.646 164.91L96.9277 164.512V176.86Z" fill="#151515"/>
<path d="M133.574 167.167C127.865 171.018 124.811 176.462 124.811 183.233C124.811 201.291 146.454 209.922 158.537 196.644C160.528 194.387 160.661 193.59 159.333 191.864C157.209 189.208 155.748 189.341 151.765 192.528C143.931 198.636 132.91 193.324 132.778 183.499C132.778 175.001 143.665 169.424 151.234 174.204C154.42 176.196 158.005 174.736 158.005 171.416C158.005 165.176 141.143 162.254 133.574 167.167Z" fill="#151515"/>
<path d="M170.354 167.167C161.458 172.744 158.935 187.349 165.441 195.183C171.018 201.689 175.134 203.15 186.818 202.752L197.175 202.486V183.897V165.308L185.889 164.91C176.594 164.644 173.806 165.043 170.354 167.167ZM187.349 173.939C189.474 175.134 189.872 176.86 189.872 183.764C189.872 191.466 189.607 192.262 186.553 193.59C174.603 199.034 164.644 186.287 172.744 176.063C175.665 172.346 182.437 171.416 187.349 173.939Z" fill="#151515"/>
<path d="M204.079 165.574C203.548 165.972 203.15 171.151 203.15 176.993C203.15 189.474 205.407 195.183 212.046 199.299C217.888 202.884 229.307 203.548 231.432 200.229C233.822 196.644 230.369 193.856 223.465 193.856C216.295 193.856 211.117 189.474 211.117 183.233C211.117 179.781 211.515 179.25 214.967 179.25C219.88 179.25 222.801 176.063 220.411 173.275C219.482 172.213 217.092 171.283 214.967 171.283C211.78 171.283 211.117 170.752 211.117 167.964C211.117 165.308 210.453 164.644 208.063 164.644C206.337 164.644 204.478 165.043 204.079 165.574Z" fill="#151515"/>
<path d="M84.314 33.7256C65.8579 46.0739 56.2979 65.8578 57.3602 89.625C58.024 104.629 61.8746 113.392 72.0985 123.218C92.2807 142.205 125.608 146.454 151.632 133.309C160.396 128.794 171.283 118.571 175.665 110.604C184.827 93.6084 182.437 67.9823 170.088 49.9245C163.184 39.9662 149.773 29.2112 144.197 29.2112C141.674 29.2112 136.761 37.1778 135.832 43.1528C135.168 47.2689 134.637 47.8 132.247 47.0034C128.795 45.8084 108.745 45.9412 105.293 47.0034C103.036 47.8 102.505 47.1362 101.841 42.6217C101.044 36.3812 96.3968 29.2112 93.2102 29.2112C91.8824 29.2112 87.899 31.2028 84.314 33.7256ZM85.9074 64.5301C85.509 69.9739 85.6418 74.3556 86.0402 74.09C105.824 63.7334 108.081 63.0695 119.5 63.0695C130.122 63.2023 131.45 63.4678 141.807 68.7789L152.827 74.4884L151.898 64.1317C150.968 53.775 150.968 53.775 153.624 56.165C158.271 60.2812 163.715 74.09 164.379 83.7828C165.176 95.2017 163.051 101.177 155.483 109.276C141.541 124.147 119.633 128.662 98.9196 120.695C88.1646 116.712 76.8785 105.558 74.4885 96.5295C71.3018 85.1106 74.4885 69.3101 82.3224 58.4223C83.9157 56.165 85.509 54.4389 85.9074 54.4389C86.3057 54.4389 86.3057 58.9534 85.9074 64.5301Z" fill="#156B96"/>
</svg>
