<svg width="267" height="52" viewBox="0 0 267 52" fill="none" xmlns="http://www.w3.org/2000/svg">
<g clip-path="url(#clip0_1015_3523)">
<path d="M26.5287 27.2236C26.5287 31.2005 25.3436 34.5503 22.9648 37.2621C20.4825 40.1034 17.2569 41.5297 13.3084 41.5297C9.34943 41.5297 6.13433 40.1034 3.65187 37.2621C1.27215 34.5503 0.078125 31.2005 0.078125 27.2236C0.078125 23.2356 1.27215 19.8869 3.65187 17.1849C6.16188 14.3702 9.38756 12.9635 13.3084 12.9635C17.2569 12.9635 20.4825 14.3702 22.9648 17.1849C25.3436 19.8869 26.5287 23.2356 26.5287 27.2236ZM18.6672 27.2236C18.6672 25.4222 18.2351 23.9017 17.37 22.6725C16.4021 21.2752 15.0475 20.5811 13.3084 20.5811C11.5686 20.5811 10.2146 21.2752 9.24573 22.6725C8.37168 23.9017 7.93914 25.4222 7.93914 27.2236C7.93914 29.0149 8.37168 30.5536 9.24573 31.8198C10.2146 33.2171 11.5686 33.9123 13.3084 33.9123C15.0475 33.9123 16.4021 33.2171 17.37 31.8198C18.2351 30.5536 18.6672 29.0149 18.6672 27.2236ZM54.9536 27.2236C54.9536 30.9384 53.8815 34.1842 51.728 36.9611C49.4243 40.0004 46.453 41.5297 42.8423 41.5297C40.2938 41.5297 38.1318 40.7887 36.364 39.3255C36.364 39.6624 36.4016 40.4789 36.4771 41.7841C36.5521 43.096 36.5892 44.1656 36.5892 45.0101C36.5892 49.674 35.1976 51.9999 32.415 51.9999C31.2768 51.9999 30.3464 51.5964 29.6032 50.7987C28.8699 49.9927 28.5029 49.0245 28.5029 47.8815V17.551C28.5029 16.4439 28.8793 15.4866 29.6314 14.6806C30.3834 13.8829 31.3148 13.4804 32.4243 13.4804C34.0973 13.4804 35.3201 14.3135 36.0914 15.9754C37.7368 13.9677 39.9842 12.9635 42.8329 12.9635C46.453 12.9635 49.4149 14.4637 51.728 17.4761C53.8721 20.2628 54.9536 23.5086 54.9536 27.2236ZM47.092 27.2236C47.092 25.4222 46.6512 23.9017 45.786 22.6725C44.8165 21.2752 43.4631 20.5811 41.7233 20.5811C39.9842 20.5811 38.6301 21.2752 37.6613 22.6725C36.7961 23.9017 36.364 25.4222 36.364 27.2236C36.364 29.0149 36.7961 30.5536 37.6613 31.8198C38.6301 33.2171 39.9842 33.9123 41.7233 33.9123C43.4631 33.9123 44.8165 33.2171 45.786 31.8198C46.6512 30.5536 47.092 29.0149 47.092 27.2236ZM83.5566 26.38C83.5566 27.6921 83.2461 28.5927 82.6253 29.1002C82.0052 29.5968 81.0368 29.8501 79.7297 29.8501H65.5404C65.5404 31.3513 66.2461 32.5046 67.6564 33.3106C68.7941 33.9404 70.1857 34.2602 71.8311 34.2602C73.1106 34.2602 74.6429 33.8364 76.4389 33.0028C78.2349 32.1578 79.3909 31.7444 79.8902 31.7444C80.8017 31.7444 81.5725 32.0731 82.212 32.7486C82.8416 33.4152 83.1621 34.2217 83.1621 35.1509C83.1621 37.298 81.5544 38.9698 78.3375 40.1699C75.8838 41.07 73.3921 41.5297 70.8445 41.5297C66.7448 41.5297 63.4348 40.1699 60.9055 37.4592C58.3757 34.7473 57.1071 31.3419 57.1071 27.2236C57.1071 23.3012 58.4231 19.9524 61.0556 17.1578C63.6787 14.3608 66.9424 12.9635 70.8346 12.9635C74.4547 12.9635 77.4823 14.2864 79.9089 16.9317C82.334 19.578 83.5566 22.7297 83.5566 26.38ZM75.6962 24.4087C75.6581 23.2075 75.1036 22.1197 74.0316 21.1338C72.9594 20.1494 71.8222 19.6622 70.6182 19.6622C69.3773 19.6622 68.2204 20.1494 67.1487 21.1338C66.0772 22.1197 65.5404 23.2075 65.5404 24.4087H75.6962ZM109.969 36.8945C109.969 38.0401 109.603 39.0057 108.87 39.8127C108.127 40.6109 107.195 41.0144 106.058 41.0144C103.312 41.0144 101.939 38.8377 101.939 34.4942C101.939 33.6591 101.996 32.3461 102.108 30.5354C102.231 28.7336 102.288 27.4112 102.288 26.5761C102.288 21.9689 100.792 19.6622 97.8116 19.6622C94.8305 19.6622 93.3451 21.9689 93.3451 26.5761C93.3451 27.4112 93.392 28.7336 93.4764 30.5354C93.5707 32.3461 93.6176 33.6591 93.6176 34.4942C93.6176 38.8377 92.2636 41.0144 89.556 41.0144C88.4178 41.0144 87.4874 40.6109 86.7536 39.8127C86.0109 39.0057 85.6441 38.0401 85.6441 36.8945V17.5427C85.6441 16.4054 86.0109 15.4409 86.7536 14.6618C87.4874 13.8735 88.4277 13.4804 89.5654 13.4804C91.4459 13.4804 92.7524 14.3135 93.4857 15.9754C94.7554 13.9677 97.0022 12.9635 100.218 12.9635C103.199 12.9635 105.569 13.7509 107.309 15.3176C109.086 16.9982 109.969 19.305 109.969 22.2419V36.8945ZM134.632 36.0609C134.632 37.8336 133.478 39.2402 131.163 40.2734C129.331 41.1072 127.339 41.5358 125.325 41.5297C121.364 41.5297 118.15 40.1034 115.668 37.2621C113.288 34.5503 112.094 31.2005 112.094 27.2236C112.094 23.2356 113.307 19.8686 115.743 17.1101C118.178 14.3431 121.364 12.9635 125.325 12.9635C127.609 12.9635 129.574 13.3011 131.211 13.9677C133.495 14.8683 134.632 16.2749 134.632 18.1891C134.632 19.1547 134.332 20.0086 133.73 20.7501C133.129 21.4817 132.356 21.8571 131.418 21.8571C130.777 21.8571 129.855 21.6413 128.653 21.2201C127.449 20.7875 126.491 20.5811 125.786 20.5811C123.914 20.5811 122.456 21.2472 121.413 22.5788C120.444 23.78 119.955 25.3187 119.955 27.2236C119.955 29.0149 120.387 30.5354 121.263 31.7642C122.23 33.1998 123.594 33.9123 125.333 33.9123C126.105 33.9123 127.157 33.6871 128.502 33.2263C129.848 32.7776 130.816 32.5431 131.418 32.5431C132.292 32.5431 133.043 32.9175 133.684 33.6497C134.314 34.3907 134.632 35.1873 134.632 36.0609ZM163.208 36.8945C163.208 38.0401 162.841 39.0057 162.108 39.8127C161.365 40.6109 160.426 41.0144 159.286 41.0144C157.575 41.0144 156.353 40.1788 155.62 38.5184C153.975 40.5267 151.727 41.5297 148.878 41.5297C145.231 41.5297 142.241 40.0004 139.926 36.9611C137.82 34.1842 136.76 30.9384 136.76 27.2236C136.76 23.5086 137.82 20.2628 139.926 17.4761C142.278 14.4637 145.258 12.9635 148.878 12.9635C151.727 12.9635 153.975 13.9677 155.62 15.9754C156.353 14.3135 157.575 13.4804 159.286 13.4804C160.397 13.4804 161.328 13.8829 162.081 14.6806C162.832 15.4866 163.208 16.4345 163.208 17.5427V36.8945ZM155.347 27.2236C155.347 25.4222 154.916 23.9017 154.05 22.6725C153.044 21.2752 151.689 20.5811 149.988 20.5811C148.248 20.5811 146.895 21.2752 145.925 22.6725C145.052 23.9017 144.62 25.4222 144.62 27.2236C144.62 29.0149 145.041 30.5536 145.877 31.8198C146.876 33.2171 148.248 33.9123 149.988 33.9123C151.727 33.9123 153.081 33.2171 154.05 31.8198C154.916 30.5536 155.347 29.0149 155.347 27.2236ZM183.265 17.0253C183.265 18.7044 182.447 19.8582 180.81 20.4864C179.297 20.9939 177.791 21.5108 176.287 22.0438C174.641 22.9829 173.824 24.7276 173.824 27.261V36.8945C173.824 38.0401 173.447 39.0057 172.715 39.8127C171.971 40.6109 171.031 41.0144 169.893 41.0144C168.747 41.0144 167.805 40.6109 167.074 39.8127C166.329 39.0057 165.963 38.0401 165.963 36.8945V17.5427C165.963 16.4054 166.329 15.4409 167.063 14.6618C167.805 13.8735 168.747 13.4804 169.885 13.4804C171.764 13.4804 173.071 14.3135 173.805 15.9754C175.489 13.9677 177.295 12.9635 179.24 12.9635C180.349 12.9635 181.3 13.3661 182.089 14.1637C182.868 14.9707 183.265 15.9275 183.265 17.0253ZM203.772 17.382C203.772 19.1266 203.086 20.2243 201.724 20.6944C201.054 20.9284 199.652 21.05 197.518 21.05V36.8945C197.518 38.0401 197.142 39.0057 196.411 39.8127C195.666 40.6109 194.726 41.0144 193.589 41.0144C192.48 41.0144 191.538 40.6109 190.786 39.8127C190.035 39.0057 189.659 38.0401 189.659 36.8945V21.05C188.041 21.05 186.866 20.8436 186.124 20.4412C185.109 19.878 184.607 18.8552 184.607 17.382C184.607 15.9098 185.125 14.9057 186.169 14.3702C186.875 13.976 188.041 13.7706 189.659 13.7706V10.4119C189.659 6.46256 190.964 4.49274 193.589 4.49274C196.202 4.49274 197.518 6.46256 197.518 10.4119V13.7706C199.652 13.7706 201.054 13.8923 201.724 14.1263C203.086 14.5953 203.772 15.6847 203.772 17.382ZM266.924 12.6183C266.903 10.2102 262.443 9.11712 250.898 9.11712C223.809 9.11712 216.937 7.96267 209.582 0.241211C212.676 4.87752 214.369 13.5736 243.001 13.1408C272.874 12.6817 254.65 20.826 249.347 30.0274C258.91 21.5119 266.896 15.899 266.924 12.6531V12.6183ZM228.859 37.3459C228.858 39.5842 227.012 41.4257 224.768 41.4263C222.502 41.4263 220.669 39.5979 220.669 37.3459C220.669 37.3448 220.669 37.3437 220.669 37.3427C220.669 35.1006 222.518 33.2556 224.766 33.2556C224.767 33.2556 224.767 33.2556 224.768 33.2556C227.027 33.2556 228.859 35.0844 228.859 37.3459ZM247.513 37.3459C247.512 39.5842 245.667 41.4257 243.423 41.4263C241.159 41.4263 239.325 39.5979 239.325 37.3459C239.325 37.3448 239.325 37.3437 239.325 37.3427C239.325 35.1006 241.174 33.2556 243.421 33.2556C243.422 33.2556 243.422 33.2556 243.423 33.2556C245.682 33.2556 247.513 35.0844 247.513 37.3459Z" fill="url(#paint0_linear_1015_3523)"/>
</g>
<defs>
<linearGradient id="paint0_linear_1015_3523" x1="133.501" y1="41.1845" x2="133.501" y2="0.241318" gradientUnits="userSpaceOnUse">
<stop stop-color="#04B6F0"/>
<stop offset="1" stop-color="#3ECAF0"/>
</linearGradient>
<clipPath id="clip0_1015_3523">
<rect width="267" height="52" fill="white"/>
</clipPath>
</defs>
</svg>
