<svg width="291" height="250" viewBox="0 0 291 250" fill="none" xmlns="http://www.w3.org/2000/svg">
<g clip-path="url(#clip0_1017_3848)">
<path d="M61.0126 220.345C60.9552 220.115 60.9552 219.77 60.9552 219.31C60.9552 216.379 61.931 214.08 63.8824 212.471C65.8339 210.805 67.9576 210 70.3108 210C73.4103 210 75.5913 211.149 76.7966 213.506L61.0126 220.345ZM83.6268 216.207C83.5694 212.759 82.3067 209.942 79.7239 207.759C77.141 205.575 73.9268 204.54 70.0239 204.54C67.5558 204.54 65.2026 205.057 63.0215 206.149C60.783 207.241 58.9463 208.908 57.454 211.264C55.9617 213.563 55.2156 216.207 55.2156 219.253C55.2156 223.621 56.6505 227.184 59.5203 229.828C62.3901 232.529 65.8913 233.851 69.9091 233.851C74.5008 233.851 78.5185 232.126 81.9049 228.621L78.4037 224.713C76.3375 227.184 73.6972 228.448 70.5404 228.448C67.3262 228.448 64.8008 227.299 62.9641 225L83.6842 216.264L83.6268 216.207Z" fill="#27245D"/>
<path d="M48.328 206.264C46.6635 207.414 45.3434 208.851 44.4251 210.632V204.885H38.3984V233.391H44.3677V221.207C44.3677 217.988 45.1138 215.345 46.6061 213.448C48.0984 211.494 50.3369 210.575 53.2641 210.575H53.6085L53.5511 204.54C51.7718 204.54 49.9925 205.115 48.328 206.264Z" fill="#27245D"/>
<path d="M105.036 218.908C104.06 218.276 103.199 217.759 102.338 217.414C101.477 217.069 100.616 216.724 99.7552 216.437C98.8369 216.149 97.8611 215.862 96.6558 215.575C95.5079 215.287 94.5896 215 93.9582 214.655C93.0398 214.253 92.5807 213.563 92.5807 212.644C92.5807 211.609 93.0399 210.805 93.9008 210.287C94.8191 209.77 95.9671 209.483 97.402 209.483C100.1 209.483 102.625 210.23 104.921 211.782L107.159 207.356C104.232 205.402 101.133 204.483 97.8611 204.483C94.5896 204.483 91.8919 205.287 89.883 206.839C87.8168 208.448 86.7836 210.517 86.7836 213.161C86.7836 216.897 89.7682 219.598 95.6801 221.207C95.7949 221.264 96.0245 221.322 96.3114 221.437C100.1 222.586 101.994 223.851 101.994 225.287C101.994 226.264 101.592 227.069 100.846 227.644C100.042 228.276 99.0091 228.563 97.6316 228.563C94.5322 228.563 91.318 227.299 87.989 224.828L85.1191 229.483C86.841 230.862 88.7925 231.897 91.031 232.644C93.2694 233.391 95.3931 233.793 97.4594 233.793C100.501 233.793 103.027 232.989 104.978 231.379C106.93 229.77 107.906 227.586 107.906 224.885C107.963 222.184 106.987 220.23 105.036 218.908Z" fill="#27245D"/>
<path d="M25.8285 214.713C24.5658 216.035 22.1552 216.724 18.7114 216.724H11.3646V201.724H17.793C21.2368 201.724 23.7049 202.241 25.312 203.333C26.9191 204.425 27.7226 206.207 27.7226 208.793C27.7226 211.437 27.0913 213.391 25.8285 214.713ZM30.3055 199.253C27.7226 197.069 23.5901 195.977 17.9078 195.977H5.05103V233.391H11.3646V222.414H18.0226C23.5327 222.414 27.6078 221.379 30.2481 219.253C32.8883 217.126 34.2084 213.851 34.2084 209.31C34.2084 204.828 32.8883 201.437 30.3055 199.253Z" fill="#27245D"/>
<path d="M121.967 228.678C120.705 228.678 119.672 228.276 118.983 227.471C118.294 226.667 117.892 225.575 117.892 224.253V209.77H125.354V204.943H117.892V195.977H111.923V224.023C111.923 227.012 112.841 229.425 114.621 231.149C116.4 232.931 118.581 233.793 121.164 233.793C123.689 233.793 126.043 232.874 128.166 230.977L125.698 226.724C124.493 228.046 123.23 228.678 121.967 228.678Z" fill="#27245D"/>
<path d="M149.346 225.977C147.681 227.701 145.73 228.563 143.376 228.563C141.023 228.563 138.957 227.701 137.235 225.977C135.513 224.253 134.595 222.069 134.595 219.31C134.595 216.552 135.456 214.31 137.178 212.471C138.899 210.632 140.908 209.713 143.319 209.713C145.73 209.713 147.739 210.632 149.346 212.471C151.01 214.31 151.814 216.552 151.814 219.253C151.814 222.011 151.01 224.253 149.346 225.977ZM151.699 209.885C149.288 206.322 146.189 204.54 142.458 204.54C138.727 204.54 135.456 205.862 132.701 208.506C129.946 211.149 128.568 214.655 128.568 219.08C128.568 223.506 129.888 227.069 132.586 229.77C135.283 232.471 138.383 233.851 141.999 233.851C143.778 233.851 145.557 233.391 147.337 232.529C149.116 231.667 150.551 230.402 151.699 228.736V233.391H157.668V204.885H151.699V209.885Z" fill="#27245D"/>
<path d="M246.46 225.919C244.738 227.644 242.615 228.506 240.032 228.506C237.449 228.506 235.268 227.644 233.604 225.919C231.882 224.195 231.078 221.954 231.078 219.195C231.078 216.437 231.939 214.195 233.604 212.471C235.268 210.747 237.449 209.885 240.032 209.885C242.615 209.885 244.796 210.747 246.46 212.471C248.125 214.195 248.986 216.437 248.986 219.195C248.986 221.954 248.182 224.195 246.46 225.919ZM240.032 204.54C235.727 204.54 232.169 205.977 229.356 208.793C226.486 211.609 225.052 215.115 225.052 219.195C225.052 223.276 226.486 226.782 229.356 229.598C232.226 232.414 235.785 233.851 240.032 233.851C244.279 233.851 247.895 232.414 250.708 229.598C253.578 226.782 255.012 223.276 255.012 219.195C255.012 215.115 253.578 211.609 250.708 208.793C247.838 205.919 244.279 204.54 240.032 204.54Z" fill="#E2066F"/>
<path d="M279.004 225.919C277.282 227.644 275.216 228.506 272.863 228.506C270.51 228.506 268.501 227.644 266.894 225.919C265.229 224.195 264.425 221.954 264.425 219.253C264.425 216.552 265.229 214.31 266.894 212.471C268.558 210.69 270.567 209.77 272.92 209.77C275.331 209.77 277.34 210.69 279.062 212.471C280.783 214.253 281.644 216.552 281.644 219.253C281.587 222.011 280.726 224.195 279.004 225.919ZM283.538 208.506C280.841 205.862 277.569 204.54 273.781 204.54C269.993 204.54 266.894 206.322 264.54 209.942V204.942H258.571V243.793H264.54V229.138C267.41 232.299 270.624 233.851 274.183 233.851C277.741 233.851 280.898 232.471 283.596 229.713C286.294 226.954 287.614 223.391 287.614 219.023C287.614 214.655 286.236 211.092 283.538 208.506Z" fill="#E2066F"/>
<path d="M211.104 204.54C209.095 204.54 207.259 205.057 205.537 206.034C203.815 207.011 202.495 208.391 201.634 210.172V193.793H195.665V233.448H201.634V218.046C201.634 215.402 202.38 213.391 203.93 212.011C205.479 210.632 207.259 209.943 209.325 209.943C213.687 209.943 215.868 212.586 215.868 217.816V233.448H221.837V215.977C221.837 212.241 220.862 209.425 218.853 207.471C216.901 205.517 214.318 204.54 211.104 204.54Z" fill="#E2066F"/>
<path d="M188.49 215.46C186.539 213.793 183.669 212.471 179.823 211.552C175.978 210.632 173.51 209.77 172.304 208.965C171.156 208.161 170.525 207.011 170.525 205.46C170.525 203.965 171.099 202.816 172.304 202.069C173.452 201.322 175.002 200.919 176.839 200.919C178.675 200.919 180.512 201.264 182.406 201.896C184.3 202.529 185.792 203.333 186.883 204.368L190.269 199.598C188.548 198.161 186.539 197.069 184.185 196.264C181.832 195.46 179.479 195.115 177.068 195.115C173.337 195.115 170.238 196.034 167.713 197.931C165.187 199.828 163.924 202.471 163.924 205.919C163.924 209.368 165.015 211.954 167.253 213.621C168.344 214.54 169.607 215.23 171.042 215.805C172.477 216.379 174.543 216.954 177.298 217.644C180.053 218.276 181.947 219.023 183.095 219.828C184.243 220.632 184.759 221.782 184.759 223.218C184.759 224.655 184.185 225.805 182.98 226.724C181.775 227.586 180.168 228.046 178.159 228.046C174.084 228.046 170.181 226.379 166.392 223.103L162.432 227.873C166.966 231.896 172.132 233.908 177.987 233.908C182.004 233.908 185.219 232.873 187.687 230.862C190.155 228.851 191.36 226.207 191.36 222.931C191.36 219.655 190.442 217.126 188.49 215.46Z" fill="#E2066F"/>
<path d="M115.998 138.908C117.376 138.276 118.753 137.759 120.188 137.184C121.795 136.609 123.402 136.034 125.01 135.517C127.018 134.885 129.085 134.368 131.151 133.908C133.963 133.333 136.776 132.874 139.588 132.586C137.981 137.586 136.259 142.586 134.308 147.529C134.365 148.506 134.423 149.425 134.48 150.402C138.326 149.655 142.286 149.253 146.361 149.253C150.436 149.253 154.397 149.655 158.242 150.402C158.242 149.425 158.3 148.448 158.414 147.529C156.52 142.586 154.741 137.586 153.134 132.586C155.946 132.874 158.816 133.276 161.571 133.908C163.637 134.368 165.646 134.885 167.713 135.517C169.32 136.034 170.927 136.552 172.534 137.184C173.969 137.701 175.346 138.276 176.724 138.908C186.481 143.276 195.378 149.713 202.667 158.103C220.976 142.299 232.571 118.908 232.571 92.7586C232.571 45.1149 194 6.43677 146.361 6.43677C98.7794 6.43677 60.1516 45.0575 60.1516 92.7586C60.1516 118.851 71.7457 142.241 90.0552 158.103C97.3445 149.713 106.241 143.276 115.998 138.908Z" fill="#A0DBE8"/>
<path d="M121.681 154.54C125.698 152.759 130.003 151.379 134.423 150.517C134.423 149.54 134.365 148.563 134.25 147.644C136.144 142.701 137.924 137.701 139.531 132.701C136.718 132.989 133.849 133.391 131.094 134.023C129.027 134.483 127.018 135 124.952 135.632C123.345 136.149 121.738 136.667 120.131 137.299L126.387 138.851L121.681 154.54Z" fill="#525353"/>
<path d="M106.872 163.793C107.044 162.184 107.102 160.575 107.102 158.908C107.102 157.931 107.905 157.126 108.881 157.126H110.431L115.941 138.851C106.183 143.218 97.2869 149.655 89.9976 158.046C94.0153 161.552 98.3774 164.655 102.969 167.356C104.289 166.149 105.552 164.943 106.872 163.793Z" fill="#525353"/>
<path d="M176.666 138.908L182.176 157.184H183.726C184.702 157.184 185.505 157.989 185.505 158.966C185.505 160.632 185.62 162.241 185.735 163.851C187.055 165 188.375 166.149 189.58 167.414C194.23 164.713 198.534 161.609 202.552 158.103C195.32 149.713 186.424 143.276 176.666 138.908Z" fill="#525353"/>
<path d="M166.163 138.736L172.419 137.184C170.812 136.609 169.205 136.034 167.598 135.517C165.589 134.885 163.523 134.368 161.456 133.908C158.644 133.333 155.831 132.874 153.019 132.586C154.626 137.586 156.348 142.586 158.3 147.529C158.242 148.506 158.185 149.425 158.127 150.402C162.604 151.264 166.852 152.644 170.869 154.425L166.163 138.736Z" fill="#525353"/>
<path d="M146.304 157.184H158.472C158.242 154.943 158.127 152.701 158.185 150.517C154.339 149.77 150.379 149.368 146.304 149.368C142.228 149.368 138.268 149.77 134.422 150.517C134.48 152.759 134.365 154.943 134.135 157.184H146.304Z" fill="black"/>
<path d="M103.027 167.356C104.002 167.931 105.035 168.506 106.069 169.08C106.413 167.356 106.7 165.575 106.872 163.793C105.552 164.943 104.289 166.149 103.027 167.356Z" fill="black"/>
<path d="M120.877 157.184H134.193C134.423 154.943 134.537 152.701 134.48 150.517C130.003 151.379 125.756 152.759 121.738 154.54L120.877 157.184Z" fill="black"/>
<path d="M185.792 163.793C185.965 165.575 186.252 167.356 186.596 169.08C187.629 168.563 188.605 167.989 189.638 167.356C188.375 166.149 187.113 164.943 185.792 163.793Z" fill="black"/>
<path d="M171.788 157.184L170.984 154.54C166.966 152.759 162.662 151.379 158.242 150.517C158.185 152.759 158.3 154.943 158.529 157.184H171.788Z" fill="black"/>
<path d="M120.877 157.184L121.681 154.54L126.444 138.736L120.188 137.184C118.753 137.701 117.376 138.276 115.998 138.908L110.488 157.184H116.4H120.877Z" fill="#AA9678"/>
<path d="M170.984 154.54L171.788 157.184H176.265H182.176L176.666 138.908C175.289 138.276 173.911 137.759 172.476 137.184L166.22 138.736L170.984 154.54Z" fill="#AA9678"/>
<path d="M110.66 160.862C110.718 160.805 110.775 160.805 110.833 160.747H110.66C110.66 160.747 110.66 160.805 110.66 160.862Z" fill="#C0B098"/>
<path d="M146.304 160.747H133.619H119.786H110.833C110.775 160.805 110.718 160.805 110.66 160.862C110.546 164.253 110.086 167.529 109.34 170.747C120.533 176.092 133.045 179.08 146.304 179.08V160.747Z" fill="#C0B098"/>
<path d="M182.004 160.747H181.832C181.889 160.805 181.947 160.805 182.004 160.862C182.004 160.805 182.004 160.747 182.004 160.747Z" fill="#AA9678"/>
<path d="M181.832 160.747H172.878H158.988H146.304V179.08C159.505 179.08 172.075 176.092 183.267 170.747C182.521 167.529 182.062 164.195 181.947 160.862C181.947 160.805 181.89 160.747 181.832 160.747Z" fill="#AA9678"/>
<path d="M185.792 163.793C185.62 162.184 185.563 160.575 185.563 158.908C185.563 157.931 184.759 157.126 183.783 157.126H182.234H176.207H171.73H158.414H146.246H134.078H120.762H116.285H110.373H108.824C107.848 157.126 107.044 157.931 107.044 158.908C107.044 160.575 106.93 162.184 106.815 163.793C106.643 165.575 106.356 167.356 106.011 169.08C107.102 169.655 108.192 170.23 109.283 170.747C110.029 167.529 110.488 164.195 110.603 160.862C110.603 160.805 110.603 160.805 110.603 160.747H110.775H119.729H133.562H146.246H158.988H172.821H181.775H181.947C181.947 160.805 181.947 160.805 181.947 160.862C182.062 164.253 182.521 167.529 183.267 170.747C184.357 170.23 185.448 169.655 186.538 169.08C186.194 167.356 185.964 165.575 185.792 163.793Z" fill="#8B7460"/>
<path d="M170.984 144.828C170.697 144.54 170.467 144.195 170.18 143.851C170.467 144.253 170.754 144.54 170.984 144.828Z" fill="#525353"/>
<path d="M203.7 73.5632C202.954 72.5287 202.208 71.6092 201.462 70.8046C201.117 70.4023 200.773 70.0575 200.428 69.7126C200.314 69.5977 200.141 69.4827 200.027 69.3678C199.797 69.1379 199.567 68.9655 199.338 68.7931V76.8391L202.38 90.9195C202.437 91.0345 202.437 91.1494 202.495 91.2644L204.618 93.6782H206.857C206.857 93.4483 206.857 93.2758 206.857 93.046C206.857 86.3793 205.766 80 203.815 74.023C203.757 73.7931 203.757 73.6782 203.7 73.5632Z" fill="#BBBCBD"/>
<path d="M202.724 92.2413V92.2988C202.724 92.2988 202.724 92.2988 202.724 92.3563C202.782 92.7011 202.782 93.0459 202.782 93.3908C202.782 93.4482 202.782 93.5057 202.782 93.5632C202.782 93.6207 202.782 93.6781 202.782 93.7356C202.782 94.0804 202.782 94.4253 202.724 94.7126V94.7701V94.8276C202.667 95.1724 202.61 95.5172 202.552 95.862L204.676 93.5057L202.552 91.0919C202.61 91.4942 202.667 91.839 202.724 92.2413Z" fill="#676A6A"/>
<path d="M202.667 94.9425C202.667 94.8851 202.667 94.8851 202.667 94.8276C202.724 94.4828 202.724 94.1379 202.724 93.8506C202.724 93.7931 202.724 93.6782 202.724 93.6207C202.724 93.5632 202.724 93.5057 202.724 93.3908C202.724 93.046 202.724 92.7011 202.667 92.3563C202.667 92.2988 202.667 92.2988 202.667 92.2414C202.609 91.8966 202.552 91.5517 202.495 91.2069C202.437 91.092 202.437 90.977 202.38 90.8621C202.15 90.1724 201.921 89.5977 201.576 89.0805C201.519 89.023 201.462 88.9655 201.462 88.908C201.347 88.7931 201.289 88.6782 201.175 88.5632C201.06 88.3908 200.888 88.2759 200.715 88.1609C200.658 88.1034 200.601 88.1034 200.543 88.046C200.428 87.931 200.256 87.8736 200.141 87.8161C200.084 87.8161 200.027 87.7586 199.969 87.7586C199.797 87.7011 199.567 87.6437 199.338 87.6437C199.108 87.6437 198.936 87.7011 198.706 87.7586C198.649 87.7586 198.592 87.8161 198.534 87.8161C198.419 87.8736 198.247 87.931 198.133 88.046C198.075 88.1034 198.018 88.1034 197.96 88.1609C197.788 88.2759 197.673 88.4483 197.501 88.5632C197.386 88.6782 197.329 88.7931 197.214 88.908C197.157 88.9655 197.099 89.023 197.099 89.0805C196.755 89.5977 196.468 90.1724 196.296 90.8621V90.9195C196.181 91.2069 196.124 91.5517 196.066 91.8965C196.066 92.0115 196.009 92.069 196.009 92.1839C195.951 92.5862 195.951 92.931 195.894 93.3333C195.894 93.3908 195.894 93.4483 195.894 93.5057C195.894 96.7816 197.444 99.4828 199.338 99.4828C199.682 99.4828 199.969 99.3678 200.314 99.2529C200.371 99.2529 200.428 99.1954 200.486 99.1954C200.601 99.1379 200.715 99.023 200.83 98.9655C200.888 98.908 200.945 98.8506 201.002 98.7931C201.175 98.6782 201.289 98.5057 201.462 98.3333C201.576 98.2184 201.634 98.1034 201.748 97.931C201.806 97.8161 201.863 97.7586 201.921 97.6437C202.035 97.4713 202.093 97.2988 202.208 97.069C202.265 97.0115 202.265 96.954 202.322 96.8391C202.437 96.5517 202.495 96.2644 202.609 95.977C202.609 95.6322 202.667 95.2874 202.667 94.9425ZM199.453 92.7586C198.706 92.7586 198.133 91.7816 198.133 90.5172C198.133 89.3103 198.706 88.2759 199.453 88.2759C200.199 88.2759 200.773 89.2529 200.773 90.5172C200.773 91.7816 200.141 92.7586 199.453 92.7586Z" fill="black"/>
<path d="M199.453 92.7586C200.182 92.7586 200.773 91.7551 200.773 90.5173C200.773 89.2794 200.182 88.2759 199.453 88.2759C198.724 88.2759 198.133 89.2794 198.133 90.5173C198.133 91.7551 198.724 92.7586 199.453 92.7586Z" fill="white"/>
<path d="M196.239 90.8621C196.468 90.1724 196.698 89.5977 197.042 89.0805C197.099 89.023 197.157 88.9655 197.157 88.908C197.272 88.7931 197.329 88.6782 197.444 88.5632C197.559 88.3908 197.731 88.2759 197.903 88.1609C197.96 88.1034 198.018 88.1034 198.075 88.046C198.19 87.931 198.362 87.8736 198.477 87.8161C198.534 87.8161 198.592 87.7586 198.649 87.7586C198.821 87.7012 199.051 87.6437 199.281 87.6437C199.51 87.6437 199.682 87.7012 199.912 87.7586C199.969 87.7586 200.027 87.8161 200.084 87.8161C200.199 87.8736 200.371 87.931 200.486 88.046C200.543 88.1034 200.601 88.1034 200.658 88.1609C200.83 88.2759 200.945 88.4483 201.117 88.5632C201.232 88.6782 201.289 88.7931 201.404 88.908C201.462 88.9655 201.519 89.023 201.519 89.0805C201.863 89.5977 202.15 90.1724 202.323 90.8621L199.281 76.7816L196.239 90.8621Z" fill="#909393"/>
<path d="M158.644 93.4482C158.644 93.1609 158.644 92.8735 158.586 92.5862C158.529 92.2988 158.529 92.0689 158.472 91.7816C158.414 91.4942 158.357 91.2643 158.242 91.0344C158.185 90.8045 158.07 90.5172 157.955 90.2873C157.84 90.0574 157.726 89.8275 157.611 89.5976C157.209 88.908 156.75 88.2758 156.176 87.7586C155.43 87.0689 154.569 86.4942 153.65 86.0919C153.191 85.9195 152.675 85.7471 152.215 85.6321C152.215 85.6321 152.215 85.6321 152.158 85.6321C151.641 85.5172 151.125 85.4597 150.608 85.4597C150.092 85.4597 149.575 85.5172 149.059 85.6321H149.001C148.485 85.7471 148.026 85.862 147.566 86.0344C147.566 86.0344 147.566 86.0344 147.509 86.0344C147.05 86.2068 146.591 86.4367 146.189 86.7241C145.787 87.0114 145.385 87.2988 145.041 87.6436H144.984C144.41 88.2183 143.893 88.8505 143.491 89.5402C143.376 89.7701 143.262 89.9999 143.147 90.2298C143.147 90.2298 143.147 90.2873 143.089 90.2873C142.975 90.5172 142.917 90.6896 142.86 90.9195C142.86 90.977 142.802 90.977 142.802 91.0344C142.745 91.2643 142.688 91.4367 142.63 91.6666C142.63 91.7241 142.573 91.7816 142.573 91.839C142.515 92.0689 142.515 92.2413 142.458 92.4712C142.458 92.5287 142.458 92.5862 142.401 92.6436C142.401 92.931 142.343 93.2183 142.343 93.5057C142.343 94.0229 142.401 94.5402 142.515 95.0574C142.515 95.0574 142.515 95.0574 142.515 95.1149C142.63 95.6321 142.745 96.0919 142.975 96.6091C143.376 97.5287 143.95 98.3908 144.639 99.1379C145.213 99.7126 145.844 100.23 146.533 100.632C146.763 100.747 146.992 100.862 147.222 100.977H147.279C147.509 101.092 147.739 101.149 147.911 101.207C147.968 101.207 147.968 101.207 148.026 101.264C148.255 101.322 148.427 101.379 148.657 101.437C148.714 101.437 148.772 101.494 148.829 101.494C149.059 101.552 149.231 101.552 149.46 101.609C149.518 101.609 149.575 101.609 149.633 101.667C149.92 101.667 150.207 101.724 150.494 101.724C151.641 101.724 152.675 101.494 153.65 101.092C154.11 100.862 154.569 100.632 155.028 100.345C155.889 99.7701 156.635 99.0229 157.209 98.1609C157.496 97.7011 157.726 97.2413 157.955 96.7816C158.357 95.8045 158.586 94.7126 158.586 93.6206V93.5632C158.644 93.4482 158.644 93.4482 158.644 93.4482ZM150.551 92.4712C148.886 92.4712 147.509 91.0919 147.509 89.4252C147.509 87.7586 148.886 86.3793 150.551 86.3793C152.215 86.3793 153.593 87.7586 153.593 89.4252C153.593 91.0919 152.215 92.4712 150.551 92.4712Z" fill="black"/>
<path d="M150.551 92.4712C152.231 92.4712 153.593 91.1075 153.593 89.4253C153.593 87.743 152.231 86.3793 150.551 86.3793C148.871 86.3793 147.509 87.743 147.509 89.4253C147.509 91.1075 148.871 92.4712 150.551 92.4712Z" fill="white"/>
<path d="M144.926 87.6436L150.551 70.4597C150.551 70.4597 150.551 69.4252 150.551 68.4482C150.551 68.1609 150.551 67.8735 150.551 67.6436C150.551 67.5287 150.551 67.4712 150.551 67.4137C150.551 67.2988 150.551 67.1839 150.551 67.0689C150.551 67.0114 150.551 66.8965 150.551 66.839C150.551 66.7816 150.551 66.6666 150.551 66.6091C150.551 66.5517 150.551 66.4942 150.551 66.4942C150.551 66.4367 150.551 66.4367 150.551 66.4367C147.451 65.8045 144.237 65.4597 140.966 65.4597C139.875 65.4597 138.785 65.5172 137.694 65.5747C137.522 65.5747 137.407 65.5747 137.235 65.6321C131.61 66.0344 126.1 67.5287 120.992 69.885C116.63 71.8965 112.497 74.5402 108.881 77.6436C107.905 78.5057 106.93 79.3678 106.011 80.2873C105.839 80.4597 105.667 80.6321 105.495 80.8045C104.634 81.6666 103.773 82.5862 102.969 83.5057C102.797 83.7356 102.625 83.908 102.453 84.1379C101.649 85.1149 100.845 86.0919 100.099 87.0689C100.042 87.1264 99.9846 87.2413 99.9272 87.2988C99.2384 88.2758 98.5496 89.2528 97.8609 90.2873C97.7461 90.4597 97.5739 90.6896 97.4591 90.862C96.9425 91.7241 96.426 92.5862 95.9668 93.4482H121.393H121.451L144.926 87.6436Z" fill="#BBBCBD"/>
<path d="M166.45 85.7471C166.507 85.0574 166.565 84.4252 166.565 83.7356C166.622 82.8161 166.622 81.954 166.679 81.0344C166.679 80.3448 166.679 79.6551 166.679 78.908C166.679 78.6781 166.679 78.5057 166.679 78.2758C166.679 76.4367 166.565 74.6551 166.507 72.8161C166.507 72.8161 166.45 72.8161 166.45 72.7586C166.45 72.7586 166.392 72.7586 166.392 72.7011C166.048 72.5287 165.244 72.0689 164.498 71.6092H164.441C164.269 71.4942 164.097 71.3793 163.924 71.3218C163.81 71.2643 163.695 71.1494 163.58 71.0919L163.523 71.0344C163.408 70.977 163.293 70.9195 163.236 70.862C162.088 70.2298 160.882 69.7126 159.677 69.1954C156.807 67.9885 152.904 66.8965 150.666 66.3793V67.931V68.2758V68.3908C150.666 69.4252 150.666 70.4023 150.666 70.4023L156.233 87.5287C156.807 88.0459 157.324 88.6781 157.668 89.3678C157.783 89.5977 157.898 89.8275 158.013 90.0574C158.127 90.2873 158.242 90.5172 158.299 90.8046C158.357 91.0344 158.472 91.3218 158.529 91.5517C158.586 91.839 158.644 92.0689 158.644 92.3563C158.701 92.6436 158.701 92.931 158.701 93.2184V93.2758H165.474C165.933 90.8046 166.278 88.2758 166.45 85.7471C166.45 85.862 166.45 85.8046 166.45 85.7471Z" fill="#E2DDDB"/>
<path d="M158.701 117.931C160.251 116.379 161.686 114.942 163.063 113.506C163.867 112.644 164.67 111.782 165.474 110.977C171.156 104.828 175.289 99.023 177.814 91.6092C177.872 91.4367 177.929 91.2069 177.986 90.9195C177.986 90.862 177.986 90.862 177.986 90.8046C178.044 90.5172 178.101 90.2299 178.159 89.885C178.159 89.6551 178.216 89.4253 178.216 89.1954C177.585 85.977 176.379 82.8161 175.289 79.7126C175.289 79.7126 175.289 79.7126 175.289 79.7701C175.289 79.7701 175.289 79.7701 175.231 79.7126C175.002 79.5402 174.83 79.3103 174.6 79.1379C173.969 78.5632 173.337 77.9885 172.648 77.4138C170.64 75.7471 168.573 74.1954 166.392 72.8735C166.507 74.7126 166.564 76.4942 166.564 78.3333C166.564 78.5632 166.564 78.7356 166.564 78.9655C166.564 79.6551 166.564 80.3448 166.564 81.0919C166.564 82.0115 166.507 82.931 166.45 83.7931C166.392 84.4827 166.392 85.1149 166.335 85.8046C166.335 85.862 166.335 85.9195 166.335 86.0345C166.105 88.5632 165.818 91.0919 165.359 93.5632L164.556 97.3563C162.891 104.138 159.505 110.23 156.75 116.552C156.004 118.218 155.315 119.942 154.683 121.667C154.626 121.839 154.569 122.011 154.511 122.184C155.372 121.264 156.176 120.46 156.75 119.885C157.496 119.138 158.07 118.506 158.701 117.931Z" fill="#FBB040"/>
<path d="M144.983 87.6437C145.328 87.2989 145.73 87.0115 146.131 86.7242C146.533 86.4368 146.992 86.2069 147.451 86.0345C147.451 86.0345 147.451 86.0345 147.509 86.0345C147.968 85.8621 148.427 85.6897 148.944 85.6322H149.001C149.518 85.5173 150.034 85.4598 150.551 85.4598C151.067 85.4598 151.584 85.5173 152.101 85.6322C152.101 85.6322 152.101 85.6322 152.158 85.6322C152.675 85.7471 153.134 85.8621 153.593 86.092C154.511 86.4943 155.372 87.0115 156.118 87.7586L150.551 70.6322L144.983 87.6437Z" fill="#909393"/>
<path d="M143.032 96.6092C142.86 96.1494 142.688 95.6322 142.573 95.1149C142.573 95.1149 142.573 95.1149 142.573 95.0575C142.458 94.5402 142.401 94.023 142.401 93.5057C142.401 93.2184 142.401 92.931 142.458 92.6437C142.458 92.5862 142.458 92.5287 142.515 92.4713C142.515 92.2414 142.573 92.069 142.63 91.8391C142.63 91.7816 142.688 91.7241 142.688 91.6667C142.745 91.4368 142.802 91.2644 142.86 91.0345C142.86 90.977 142.917 90.977 142.917 90.9195C142.975 90.6897 143.089 90.4598 143.147 90.2874C143.147 90.2874 143.147 90.2299 143.204 90.2299C143.319 90 143.434 89.7701 143.549 89.5402C143.95 88.8506 144.467 88.2184 145.041 87.6437L121.508 93.4483H121.451L144.754 99.1379C144.008 98.4483 143.434 97.5862 143.032 96.6092Z" fill="#676A6A"/>
<path d="M195.952 92.1838C195.952 92.0689 196.009 91.954 196.009 91.8965C196.066 91.5517 196.124 91.2068 196.239 90.9195C196.239 90.862 196.239 90.862 196.239 90.8045L199.281 76.7241V68.6781C196.755 66.6091 194.115 65.4597 191.302 65.4597C187.744 65.4597 184.472 67.4137 182.004 69.8275C179.307 72.4712 177.24 75.8045 175.518 79.1379C175.461 79.3103 175.346 79.4252 175.289 79.5976C175.805 80.0574 176.322 80.5172 176.839 80.977C177.986 82.0114 179.134 83.1034 180.225 84.1953C180.741 84.7126 181.258 85.2298 181.775 85.7471C182.291 86.3218 182.865 86.839 183.382 87.4137C184.07 88.1609 184.759 88.8505 185.391 89.5976C185.678 89.885 185.965 90.2298 186.252 90.5172C187.055 91.4367 187.859 92.2988 188.662 93.2183C188.777 93.3333 188.892 93.4482 188.949 93.5057H195.894C195.894 93.4482 195.894 93.3907 195.894 93.3333C195.894 92.9884 195.894 92.5861 195.952 92.1838Z" fill="#E2DDDB"/>
<path d="M91.777 102.356C91.777 102.299 91.8344 102.241 91.8344 102.184C92.2936 101.034 92.7528 99.8851 93.2693 98.7356C93.3841 98.3908 93.5563 98.1034 93.7285 97.8161C94.1303 96.8965 94.5894 96.0345 95.0486 95.1724C95.2208 94.8276 95.393 94.4828 95.6226 94.0805C95.7374 93.908 95.8522 93.6782 95.967 93.5057C96.4835 92.6437 96.9427 91.7816 97.4593 90.9195C97.5741 90.7471 97.7463 90.5172 97.861 90.3448C98.4924 89.3103 99.1812 88.3333 99.9273 87.3563C99.9847 87.2989 100.042 87.1839 100.1 87.1264C100.846 86.092 101.649 85.1149 102.453 84.1954C102.625 83.9655 102.797 83.7931 102.969 83.5632C103.773 82.6437 104.634 81.7241 105.495 80.8621C105.667 80.6897 105.839 80.5172 106.011 80.3448C106.93 79.4253 107.848 78.5632 108.881 77.7011C112.727 64.7126 124.608 55.2299 138.613 55.2299C144.237 55.2299 149.862 56.8391 154.684 59.8276C159.62 62.8736 163.637 67.2989 166.22 72.4138C166.22 72.4138 166.22 72.4713 166.278 72.4713C166.335 72.5862 166.392 72.7011 166.507 72.8736C168.688 74.1954 170.755 75.7471 172.763 77.4138C173.452 77.9885 174.084 78.5632 174.715 79.1379C174.944 79.3103 175.117 79.5402 175.346 79.7126C175.404 79.5402 175.461 79.4253 175.576 79.2529C177.527 66.7816 183.037 57.7586 189.523 57.7586C194.402 57.7586 198.764 62.8736 201.404 70.7471V70.8046C202.15 71.6092 202.897 72.5287 203.643 73.5058C203.643 73.5058 203.643 73.5632 203.7 73.5632C203.757 73.6782 203.758 73.7931 203.815 73.908L203.7 73.5058C195.607 49.5977 173.05 32.3563 146.418 32.3563C113.014 32.3563 85.98 59.4253 85.98 92.8736C85.98 99.4828 87.0131 105.805 88.9646 111.724C88.9646 111.724 88.9646 111.724 88.9646 111.667C89.3664 109.885 89.8255 108.103 90.3421 106.379C90.8013 105 91.2604 103.678 91.777 102.356Z" fill="#525353"/>
<path d="M204.618 93.5632L202.495 95.9195C202.437 96.2068 202.323 96.4942 202.208 96.7815C202.208 96.839 202.15 96.8965 202.093 97.0114C202.036 97.1839 201.921 97.4137 201.806 97.5862C201.749 97.7011 201.691 97.7586 201.634 97.8735C201.519 97.9885 201.462 98.1609 201.347 98.2758C201.232 98.4482 201.06 98.6206 200.888 98.7356C200.83 98.793 200.773 98.8505 200.716 98.908C200.601 99.0229 200.486 99.0804 200.371 99.1379C200.314 99.1379 200.256 99.1953 200.199 99.1953C199.912 99.3678 199.568 99.4252 199.223 99.4252C197.329 99.4252 195.779 96.7816 195.779 93.4482H188.834C190.155 94.9425 191.417 96.4367 192.623 97.9884L192.68 98.0459C193.885 99.5402 195.091 101.034 196.296 102.529C196.353 102.586 196.411 102.701 196.468 102.759C197.616 104.195 198.707 105.632 199.797 107.069C199.912 107.184 200.027 107.356 200.142 107.471C201.29 109.023 202.437 110.575 203.585 112.069C203.585 112.069 203.585 112.069 203.585 112.126C205.594 106.207 206.685 99.9425 206.742 93.3907L204.618 93.5632Z" fill="white"/>
<path d="M137.235 65.5747C137.407 65.5747 137.522 65.5747 137.694 65.5172C138.785 65.4597 139.875 65.4023 140.966 65.4023C144.237 65.4023 147.452 65.7471 150.551 66.3793C150.551 66.3793 150.551 66.3793 150.551 66.4367C150.551 66.4367 150.551 66.4942 150.551 66.5517C150.551 66.6091 150.551 66.6666 150.551 66.7816C150.551 66.839 150.551 66.8965 150.551 67.0114C150.551 67.1264 150.551 67.2413 150.551 67.3563C150.551 67.4137 150.551 67.5287 150.551 67.5862C150.551 67.7011 150.551 67.816 150.551 67.931V66.3793C152.732 66.8965 156.635 67.9885 159.562 69.1954C160.768 69.7126 161.973 70.2873 163.121 70.862C163.178 70.862 163.293 70.9195 163.408 71.0344C163.408 71.0344 163.465 71.0344 163.465 71.0919C163.58 71.1494 163.695 71.2068 163.81 71.3218C163.982 71.4367 164.154 71.4942 164.326 71.6091H164.384C165.13 72.0114 165.933 72.5287 166.278 72.7011C166.335 72.7011 166.335 72.7586 166.335 72.7586L166.392 72.816C166.335 72.7011 166.278 72.5862 166.163 72.4137C166.163 72.4137 166.163 72.3563 166.105 72.3563C163.523 67.1839 159.447 62.7586 154.569 59.7701C149.747 56.839 144.123 55.1724 138.498 55.1724C124.493 55.1724 112.612 64.6551 108.766 77.6436C112.44 74.4827 116.515 71.839 120.877 69.885C126.1 67.4712 131.668 66.0344 137.235 65.5747Z" fill="black"/>
<path d="M182.062 69.8851C184.53 67.4713 187.801 65.5173 191.36 65.5173C194.172 65.5173 196.87 66.6667 199.338 68.7357C199.568 68.9081 199.797 69.138 200.027 69.3104C200.142 69.4253 200.314 69.5402 200.429 69.6552C200.773 70 201.117 70.3448 201.462 70.7471V70.6897C198.764 62.8161 194.459 57.7012 189.581 57.7012C183.095 57.7012 177.585 66.6667 175.633 79.1954C177.24 75.8621 179.364 72.5288 182.062 69.8851Z" fill="black"/>
<path d="M124.78 149.368C125.354 149.598 125.87 149.77 126.444 149.942C132.701 152.126 139.416 153.333 146.418 153.333C154.397 153.333 162.03 151.782 168.975 148.965C169.32 148.793 169.721 148.678 170.066 148.506C170.64 148.276 171.271 147.988 171.845 147.701C172.362 147.471 172.878 147.241 173.395 146.954C173.28 146.954 173.165 147.011 173.05 147.011C170.869 147.241 168.746 147.299 166.622 146.954C154.167 145.172 151.412 139.138 151.814 132.931C150.895 132.414 150.034 131.839 149.059 131.149C139.473 124.195 133.791 116.782 133.791 116.782C133.791 116.782 141.195 122.471 152.215 126.782C152.445 126.896 152.675 126.954 152.904 127.069C153.421 125.287 154.052 123.563 154.569 122.069C154.626 121.896 154.684 121.724 154.741 121.552C155.372 119.828 156.061 118.103 156.807 116.437C159.562 110.115 162.949 103.965 164.613 97.2413L165.417 93.4482H158.644V93.5057C158.644 94.6551 158.414 95.6896 158.012 96.6666C157.783 97.1264 157.553 97.6436 157.266 98.0459C156.692 98.908 155.946 99.6551 155.085 100.23C154.626 100.517 154.167 100.747 153.708 100.977C152.732 101.379 151.641 101.609 150.551 101.609C150.264 101.609 149.977 101.609 149.69 101.552C149.633 101.552 149.575 101.552 149.518 101.494C149.288 101.494 149.116 101.437 148.886 101.379C148.829 101.379 148.772 101.322 148.714 101.322C148.485 101.264 148.312 101.207 148.083 101.149C148.026 101.149 148.026 101.149 147.968 101.092C147.739 101.034 147.509 100.919 147.337 100.862H147.279C147.05 100.747 146.82 100.632 146.591 100.517C145.902 100.115 145.27 99.6551 144.697 99.0229L121.394 93.3333H95.9669C95.8521 93.5057 95.7374 93.7356 95.6226 93.908C95.4504 94.2528 95.2208 94.5976 95.0486 94.9999C94.5894 95.862 94.1303 96.7815 93.7285 97.6436C93.5563 97.931 93.4415 98.2758 93.2693 98.5631C92.7527 99.7126 92.2936 100.862 91.8344 102.011C91.8344 102.069 91.777 102.126 91.777 102.184C91.2604 103.506 90.8013 104.885 90.3995 106.264C89.8829 107.988 89.4237 109.77 89.022 111.552C93.0397 123.793 100.788 134.31 111.005 141.667C111.292 141.896 111.636 142.069 111.923 142.299C113.645 143.506 115.424 144.655 117.261 145.632C119.672 147.126 122.197 148.333 124.78 149.368Z" fill="white"/>
<path d="M166.507 130.517C166.392 131.149 166.335 131.782 166.335 132.414C166.278 133.506 166.392 134.598 166.565 135.575C166.679 136.264 166.794 136.897 166.966 137.529C167.253 138.448 167.54 139.31 167.942 140.115C168.344 140.92 168.746 141.667 169.147 142.299C169.262 142.529 169.434 142.759 169.549 142.931C169.779 143.218 169.951 143.506 170.181 143.793C170.468 144.138 170.755 144.483 170.984 144.77C172.075 146.034 172.993 146.724 172.993 146.724C172.993 146.724 172.993 146.724 172.993 146.782C172.993 146.839 172.993 146.897 173.05 146.954C173.165 146.954 173.28 146.897 173.395 146.897C176.092 146.552 178.79 145.805 181.488 144.885C182.865 144.368 184.243 143.851 185.563 143.276C185.965 143.103 186.366 142.874 186.768 142.701C200.601 135.977 212.195 124.138 212.195 124.138C194.861 132.701 177.814 132.356 166.507 130.517Z" fill="#9F2255"/>
<path d="M199.912 107.184C198.821 105.747 197.673 104.31 196.583 102.874C196.525 102.816 196.468 102.701 196.411 102.644C195.205 101.149 194 99.6551 192.795 98.1609L192.737 98.1034C191.475 96.5517 190.212 95.0574 188.949 93.5632C188.892 93.4483 188.777 93.3908 188.719 93.2758C187.916 92.3563 187.112 91.4942 186.309 90.5747C186.022 90.2873 185.735 89.9425 185.448 89.6551C184.759 88.908 184.128 88.2184 183.439 87.4712C182.922 86.8965 182.348 86.3793 181.832 85.8046C181.315 85.2873 180.799 84.7701 180.282 84.2529C179.192 83.1609 178.044 82.0689 176.896 81.0345C176.379 80.5747 175.863 80.1149 175.346 79.6552C176.437 82.8161 177.699 85.977 178.331 89.2529C178.503 90.1149 178.618 90.9195 178.732 91.7241C180.282 103.046 176.609 110.46 170.869 120.23C170.467 120.92 170.008 121.667 169.606 122.356C168.286 124.54 167.425 126.667 166.966 128.621C166.794 129.253 166.679 129.885 166.564 130.517C177.872 132.356 194.861 132.701 212.252 124.138C212.252 124.138 208.866 119.138 203.7 112.241C202.552 110.69 201.404 109.138 200.256 107.644C200.141 107.471 200.027 107.299 199.912 107.184Z" fill="#E2066F"/>
<path d="M172.993 146.839C172.993 146.839 172.132 146.149 170.984 144.885C170.697 144.598 170.468 144.253 170.181 143.908C169.951 143.621 169.779 143.333 169.549 143.046C169.434 142.816 169.262 142.644 169.147 142.414C168.746 141.724 168.344 141.034 167.942 140.23C167.598 139.425 167.253 138.563 166.966 137.644C166.794 137.011 166.622 136.379 166.565 135.69C166.392 134.713 166.335 133.621 166.335 132.529C166.335 131.897 166.392 131.264 166.507 130.632C166.622 130 166.737 129.368 166.909 128.736C167.426 126.782 168.229 124.713 169.549 122.471C169.951 121.724 170.41 121.034 170.812 120.345C176.552 110.575 180.225 103.218 178.675 91.8391C178.56 91.0345 178.446 90.1724 178.274 89.3678C178.216 89.9425 178.101 90.4598 177.987 90.8621C177.987 90.9195 177.987 90.9195 177.987 90.977C177.929 91.2644 177.872 91.4942 177.814 91.6666C175.289 99.0804 171.156 104.885 165.474 111.034C164.728 111.897 163.924 112.701 163.063 113.563C161.686 115 160.194 116.494 158.701 117.988C158.07 118.621 157.439 119.195 156.807 119.828C156.233 120.402 155.43 121.207 154.569 122.126C154.052 123.621 153.421 125.345 152.904 127.126C152.675 127.011 152.445 126.954 152.216 126.839C141.195 122.586 133.791 116.839 133.791 116.839C133.791 116.839 139.474 124.253 149.059 131.207C149.977 131.897 150.895 132.471 151.814 132.988C151.412 139.253 154.167 145.23 166.622 147.011C168.746 147.299 170.869 147.299 173.05 147.069C173.05 146.954 172.993 146.897 172.993 146.839Z" fill="black"/>
</g>
<defs>
<clipPath id="clip0_1017_3848">
<rect width="291" height="250" fill="white"/>
</clipPath>
</defs>
</svg>
