<svg width="326" height="74" viewBox="0 0 326 74" fill="none" xmlns="http://www.w3.org/2000/svg">
<g clip-path="url(#clip0_1015_3385)">
<path d="M189.075 29.1277H176.242V30.4896C180.256 30.4896 180.901 31.3503 180.901 36.4429V45.6239C180.901 50.7159 180.257 51.6485 176.242 51.6485C173.16 51.2184 171.08 49.5684 168.213 46.4127L164.915 42.8269C169.36 42.0369 171.725 39.2405 171.725 36.0842C171.725 32.1403 168.356 29.1277 162.047 29.1277H149.43V30.4896C153.444 30.4896 154.089 31.3503 154.089 36.4429V45.6239C154.089 50.7159 153.444 51.6485 149.43 51.6485V53.011H163.696V51.6485C159.682 51.6485 159.036 50.7159 159.036 45.6239V43.0425H160.255L168.213 53.011H189.075C199.326 53.011 203.771 47.5608 203.771 41.0331C203.771 34.5066 199.327 29.1277 189.075 29.1277ZM159.037 40.8175V31.2796H161.976C165.201 31.2796 166.636 33.5028 166.636 36.0848C166.636 38.5955 165.201 40.8181 161.976 40.8181L159.037 40.8175ZM189.29 50.7878H188.788C186.208 50.7878 185.849 50.1428 185.849 46.8433V31.2796C185.849 31.2796 189.004 31.2796 189.29 31.2796C196.746 31.2796 198.108 36.7298 198.108 40.9618C198.108 45.3364 196.746 50.7878 189.29 50.7878Z" fill="#00749A"/>
<path d="M109.497 43.4724L114.443 28.8401C115.878 24.6087 115.232 23.3899 110.644 23.3899V21.9548H124.122V23.3899C119.606 23.3899 118.531 24.4655 116.738 29.7013L108.565 54.2303H107.633L100.32 31.7808L92.8647 54.2303H91.9325L83.9751 29.7013C82.2546 24.4655 81.1075 23.3899 76.9492 23.3899V21.9548H92.8647V23.3899C88.6345 23.3899 87.4869 24.3937 88.9931 28.8401L93.7962 43.4724L101.037 21.9548H102.4L109.497 43.4724Z" fill="#00749A"/>
<path d="M133.873 53.9428C125.988 53.9428 119.535 48.1339 119.535 41.0324C119.535 34.004 125.988 28.1938 133.873 28.1938C141.759 28.1938 148.211 34.004 148.211 41.0324C148.211 48.1339 141.759 53.9428 133.873 53.9428ZM133.873 30.4189C127.278 30.4189 124.984 36.371 124.984 41.033C124.984 45.7675 127.278 51.6483 133.873 51.6483C140.541 51.6483 142.835 45.7675 142.835 41.033C142.835 36.371 140.541 30.4189 133.873 30.4189Z" fill="#00749A"/>
<path d="M221.476 51.5766V53.011H205.059V51.5766C209.862 51.5766 210.723 50.3578 210.723 43.1844V31.7096C210.723 24.5363 209.862 23.3894 205.059 23.3894V21.9543H219.898C227.282 21.9543 231.37 25.7557 231.37 30.849C231.37 35.7979 227.282 39.6705 219.898 39.6705H215.812V43.1838C215.812 50.3578 216.672 51.5766 221.476 51.5766ZM219.898 24.5363H215.812V37.0167H219.898C223.913 37.0167 225.777 34.2197 225.777 30.849C225.777 27.4064 223.913 24.5363 219.898 24.5363Z" fill="#464342"/>
<path d="M280.621 46.2695L280.262 47.5602C279.618 49.9271 278.828 50.7878 273.738 50.7878H272.734C269.007 50.7878 268.362 49.9271 268.362 44.8351V41.5362C273.954 41.5362 274.384 42.0375 274.384 45.7676H275.746V35.0804H274.384C274.384 38.8099 273.954 39.3118 268.362 39.3118V31.2796H272.304C277.395 31.2796 278.183 32.1403 278.828 34.5072L279.187 35.8692H280.334L279.833 29.1277H258.755V30.4896C262.769 30.4896 263.415 31.3503 263.415 36.4429V45.6239C263.415 50.2823 262.867 51.4558 259.701 51.6231C256.693 51.1635 254.628 49.5219 251.802 46.4127L248.504 42.8269C252.949 42.0369 255.315 39.2405 255.315 36.0842C255.315 32.1403 251.946 29.1277 245.637 29.1277H233.02V30.4896C237.034 30.4896 237.679 31.3503 237.679 36.4429V45.6239C237.679 50.7159 237.034 51.6485 233.02 51.6485V53.011H247.286V51.6485C243.272 51.6485 242.626 50.7159 242.626 45.6239V43.0425H243.845L251.803 53.011H281.267L281.697 46.2701L280.621 46.2695ZM242.626 40.8175V31.2796H245.564C248.791 31.2796 250.225 33.5028 250.225 36.0848C250.225 38.5955 248.791 40.8181 245.564 40.8181L242.626 40.8175Z" fill="#464342"/>
<path d="M295.176 53.9427C292.309 53.9427 289.799 52.437 288.724 51.5039C288.365 51.8632 287.72 52.9389 287.577 53.9427H286.215V44.0461H287.649C288.223 48.7794 291.52 51.5764 295.75 51.5764C298.044 51.5764 299.908 50.2857 299.908 48.1343C299.908 46.2699 298.259 44.8349 295.32 43.4723L291.233 41.536C288.365 40.1722 286.215 37.8053 286.215 34.6502C286.215 31.2075 289.441 28.2674 293.886 28.2674C296.252 28.2674 298.259 29.1281 299.478 30.1319C299.836 29.845 300.195 29.0556 300.41 28.1943H301.772V36.6583H300.267C299.764 33.287 297.901 30.49 294.102 30.49C292.094 30.49 290.229 31.6376 290.229 33.4313C290.229 35.2958 291.735 36.2996 295.177 37.8778L299.119 39.8141C302.561 41.4635 303.922 44.1186 303.922 46.2699C303.922 50.7876 299.979 53.9427 295.176 53.9427Z" fill="#464342"/>
<path d="M317.255 53.9427C314.387 53.9427 311.877 52.437 310.803 51.5039C310.444 51.8632 309.799 52.9389 309.656 53.9427H308.294V44.0461H309.727C310.301 48.7794 313.598 51.5764 317.828 51.5764C320.123 51.5764 321.987 50.2857 321.987 48.1343C321.987 46.2699 320.338 44.8349 317.398 43.4723L313.312 41.536C310.444 40.1722 308.293 37.8053 308.293 34.6502C308.293 31.2075 311.519 28.2674 315.964 28.2674C318.33 28.2674 320.337 29.1281 321.556 30.1319C321.914 29.845 322.273 29.0556 322.487 28.1943H323.85V36.6583H322.345C321.842 33.287 319.979 30.49 316.18 30.49C314.172 30.49 312.308 31.6376 312.308 33.4313C312.308 35.2958 313.813 36.2996 317.255 37.8778L321.197 39.8141C324.639 41.4635 326 44.1186 326 46.2699C326 50.7876 322.057 53.9427 317.255 53.9427Z" fill="#464342"/>
<path d="M5.25781 36.9992C5.25781 49.563 12.556 60.4205 23.1389 65.5657L8.00466 24.0815C6.24426 28.0291 5.25781 32.3976 5.25781 36.9992Z" fill="#464342"/>
<path d="M58.4034 35.3973C58.4034 31.4745 56.9949 28.7579 55.7869 26.6434C54.1787 24.0288 52.6712 21.8146 52.6712 19.2001C52.6712 16.2823 54.8832 13.5663 57.9989 13.5663C58.1396 13.5663 58.273 13.5838 58.41 13.5916C52.7654 8.41803 45.2451 5.25928 36.9852 5.25928C25.9012 5.25928 16.1496 10.9487 10.4766 19.5661C11.2209 19.5884 11.9224 19.6041 12.5183 19.6041C15.8368 19.6041 20.9738 19.2013 20.9738 19.2013C22.6841 19.1004 22.8857 21.6135 21.1772 21.8159C21.1772 21.8159 19.4585 22.0182 17.5459 22.1184L29.0996 56.4993L36.0428 35.6667L31.0997 22.1172C29.3912 22.017 27.7727 21.8146 27.7727 21.8146C26.063 21.7144 26.2634 19.0992 27.9731 19.2001C27.9731 19.2001 33.2126 19.6029 36.3302 19.6029C39.6481 19.6029 44.7856 19.2001 44.7856 19.2001C46.4971 19.0992 46.6982 21.6123 44.9891 21.8146C44.9891 21.8146 43.2667 22.017 41.3578 22.1172L52.8234 56.2378L55.988 45.6581C57.3596 41.2679 58.4034 38.1145 58.4034 35.3973Z" fill="#464342"/>
<path d="M37.5426 39.7756L28.0234 67.4489C30.8657 68.2847 33.8715 68.742 36.986 68.742C40.6807 68.742 44.2238 68.103 47.5219 66.9427C47.4367 66.8068 47.3595 66.6625 47.2961 66.5055L37.5426 39.7756Z" fill="#464342"/>
<path d="M64.8235 21.7708C64.96 22.7818 65.0373 23.8671 65.0373 25.0346C65.0373 28.2556 64.436 31.8763 62.6249 36.4037L52.9336 64.4357C62.3659 58.9329 68.7102 48.7095 68.7102 36.9998C68.7108 31.4814 67.3017 26.2921 64.8235 21.7708Z" fill="#464342"/>
<path d="M36.9841 0C16.5916 0 0 16.5977 0 36.9991C0 57.403 16.5916 74 36.9841 74C57.376 74 73.97 57.403 73.97 36.9991C73.9694 16.5977 57.376 0 36.9841 0ZM36.9841 72.3041C17.5267 72.3041 1.6958 56.4662 1.6958 36.9991C1.6958 17.5332 17.5261 1.69655 36.9841 1.69655C56.4409 1.69655 72.2706 17.5332 72.2706 36.9991C72.2706 56.4662 56.4409 72.3041 36.9841 72.3041Z" fill="#464342"/>
</g>
<defs>
<clipPath id="clip0_1015_3385">
<rect width="326" height="74" fill="white"/>
</clipPath>
</defs>
</svg>
