<svg width="564" height="564" viewBox="0 0 564 564" fill="none" xmlns="http://www.w3.org/2000/svg">
<path d="M535.132 379.86C500.67 334.597 457.894 296.299 409.087 267.01C317.318 212.379 155.231 162.153 62.7974 236.361C34.519 259.076 0.86285 302.982 12.147 338.005C29.4585 391.881 139.475 420.448 220.368 389.588C238.91 382.443 256.122 372.246 271.29 359.422" stroke="url(#paint0_linear_817_3973)" stroke-width="2" stroke-miterlimit="10"/>
<path d="M520.931 410.01C492.306 360.863 454.569 317.609 409.736 282.56C325.384 217.07 170.699 147.326 69.8513 209.649C38.9898 228.714 0.212672 268.156 7.07079 304.294C17.645 359.905 123.281 401.745 207.361 381.036C226.648 376.224 244.99 368.215 261.622 357.341" stroke="url(#paint1_linear_817_3973)" stroke-width="2" stroke-miterlimit="10"/>
<path d="M503.12 438.17C480.763 385.875 448.634 338.311 408.451 298.02C332.8 222.696 187.903 134.491 80.1069 183.963C47.1305 199.046 3.79145 233.48 6.08756 270.192C9.83384 326.708 109.533 381.202 195.486 370.961C215.219 368.544 234.408 362.844 252.255 354.098" stroke="url(#paint2_linear_817_3973)" stroke-width="2" stroke-miterlimit="10"/>
<path d="M481.972 463.977C466.221 409.34 440.193 358.198 405.279 313.284C339.462 229.242 206.499 123.918 93.4606 159.8C58.8679 170.765 11.6164 199.574 9.45621 236.301C6.10268 292.801 98.355 359.106 184.958 359.498C204.834 359.533 224.575 356.234 243.357 349.739" stroke="url(#paint3_linear_817_3973)" stroke-width="2" stroke-miterlimit="10"/>
<path d="M457.817 486.964C448.904 430.829 429.366 376.902 400.248 328.065C345.278 236.512 226.288 115.683 109.685 137.417C74.0042 144.054 23.5804 166.859 16.9036 203.043C6.63152 258.699 90.0166 335.773 175.909 346.843C195.636 349.307 215.636 348.45 235.079 344.309" stroke="url(#paint4_linear_817_3973)" stroke-width="2" stroke-miterlimit="10"/>
<path d="M431.02 506.813C429.116 449.997 416.392 394.063 393.527 342.002C350.233 244.461 246.999 109.951 128.628 117.267C92.3741 119.484 39.5031 135.924 28.4606 171.007C11.3455 224.913 84.5945 311.7 168.448 333.163C187.721 338.032 207.676 339.638 227.482 337.914" stroke="url(#paint5_linear_817_3973)" stroke-width="2" stroke-miterlimit="10"/>
<path d="M401.985 523.238C407.056 466.605 401.284 409.525 384.975 355.048C354.023 252.937 268.145 106.784 149.745 99.4533C113.49 97.2211 59.1087 106.995 43.7308 140.494C20.1806 191.972 82.2058 287.085 162.811 318.683C181.337 325.876 200.939 329.919 220.803 330.644" stroke="url(#paint6_linear_817_3973)" stroke-width="2" stroke-miterlimit="10"/>
<path d="M371.139 535.953C383.144 480.397 384.441 423.065 374.96 367.024C356.818 261.836 289.566 106.241 172.978 84.4463C137.298 77.7796 82.0251 80.8415 62.7045 112.169C32.991 160.434 82.8257 262.364 158.945 303.616C176.446 313.03 195.406 319.444 215.033 322.59" stroke="url(#paint7_linear_817_3973)" stroke-width="2" stroke-miterlimit="10"/>
<path d="M338.965 544.807C357.728 491.126 366.079 434.368 363.572 377.567C358.482 270.992 310.898 108.338 197.875 72.3951C163.297 61.3997 108.024 57.6591 85.033 86.377C49.6245 130.555 86.5436 237.9 156.998 288.186C173.209 299.673 191.233 308.365 210.322 313.903" stroke="url(#paint8_linear_817_3973)" stroke-width="2" stroke-miterlimit="10"/>
<path d="M305.912 549.633C331.121 498.675 346.388 443.394 350.898 386.737C358.979 280.358 331.773 113.088 224.007 63.5562C191.046 48.3978 136.695 37.9152 110.304 63.5562C69.775 103.028 93.2044 214.084 156.937 272.635C171.612 286.025 188.431 296.864 206.696 304.702" stroke="url(#paint9_linear_817_3973)" stroke-width="2" stroke-miterlimit="10"/>
<path d="M272.587 550.372C303.898 502.882 325.861 449.871 337.301 394.173C358.45 289.588 351.999 120.253 251.197 57.8247C220.336 38.7298 167.691 21.6258 138.34 43.9032C93.1734 78.1715 102.751 191.278 158.794 257.175C171.708 272.269 187.067 285.092 204.233 295.109" stroke="url(#paint10_linear_817_3973)" stroke-width="2" stroke-miterlimit="10"/>
<path d="M239.444 547.024C276.363 503.737 304.684 453.822 322.889 399.95C356.712 298.744 371.229 129.966 278.795 55.6379C250.471 32.908 200.319 9.48423 168.446 27.9155C119.427 56.3468 115.016 169.695 162.524 242.093C173.481 258.655 187.145 273.262 202.948 285.305" stroke="url(#paint11_linear_817_3973)" stroke-width="2" stroke-miterlimit="10"/>
<path d="M206.847 539.618C248.821 501.183 283.073 455.112 307.77 403.872C353.783 307.598 388.935 141.807 306.381 56.7691C281.123 30.7511 234.234 1.36962 200.352 15.8492C148.206 38.0512 129.867 150.087 168.115 227.628C176.94 245.406 188.683 261.582 202.859 275.486" stroke="url(#paint12_linear_817_3973)" stroke-width="2" stroke-miterlimit="10"/>
<path d="M175.471 528.275C221.845 495.285 261.5 453.776 292.316 405.968C349.84 315.999 405.128 155.848 333.676 61.3088C311.803 32.4401 268.902 -2.53712 233.493 7.62875C179.021 23.2546 147.027 132.153 175.441 213.842C182.04 232.574 191.742 250.067 204.143 265.592" stroke="url(#paint13_linear_817_3973)" stroke-width="2" stroke-miterlimit="10"/>
<path d="M145.789 513.178C195.877 486.116 240.342 449.771 276.803 406.089C344.962 323.932 419.555 171.716 360.264 69.122C342.137 37.7345 303.843 -2.18997 267.438 3.55662C211.455 12.3801 166.318 116.543 184.46 201.143C188.687 220.541 196.142 239.094 206.515 256.029" stroke="url(#paint14_linear_817_3973)" stroke-width="2" stroke-miterlimit="10"/>
<path d="M118.066 494.535C171.1 473.826 219.7 443.226 261.271 404.369C339.007 331.187 431.773 189.302 385.563 80.1925C371.424 46.8141 338.342 2.50052 301.514 3.78257C244.866 5.66793 187.252 103.496 194.85 189.634C196.645 209.399 201.751 228.722 209.956 246.798" stroke="url(#paint15_linear_817_3973)" stroke-width="2" stroke-miterlimit="10"/>
<path d="M92.918 472.635C148.096 458.599 200.091 434.198 246.123 400.735C332.288 337.643 441.866 208.186 409.373 94.2802C399.449 59.4236 372.077 11.3243 335.354 8.08145C278.903 3.01359 209.672 93.0283 206.606 179.438C205.972 199.279 208.673 219.086 214.597 238.035" stroke="url(#paint16_linear_817_3973)" stroke-width="2" stroke-miterlimit="10"/>
<path d="M70.6367 447.823C127.13 440.665 181.74 422.826 231.546 395.259C324.825 343.223 449.419 228.186 431.292 111.158C425.733 75.3358 404.479 24.3104 368.466 16.5276C313.073 4.56684 233.283 85.4112 219.612 170.795C216.534 190.405 216.774 210.391 220.322 229.92" stroke="url(#paint17_linear_817_3973)" stroke-width="2" stroke-miterlimit="10"/>
<path d="M51.5859 420.463C108.534 420.298 164.929 409.297 217.752 388.05C316.711 347.854 454.553 248.97 450.928 130.6C449.825 94.4006 435.006 41.1128 400.217 28.9861C346.697 10.3135 257.571 80.7054 233.507 163.812C228.04 182.915 225.819 202.799 226.936 222.635" stroke="url(#paint18_linear_817_3973)" stroke-width="2" stroke-miterlimit="10"/>
<path d="M36.0586 390.976C92.5919 397.797 149.909 393.8 204.944 379.197C308.102 351.444 457.063 270.238 468.045 152.305C471.398 116.226 463.256 61.5508 430.28 45.216C379.478 20.1331 282.347 79.0922 248.237 158.579C240.464 176.847 235.812 196.287 234.476 216.09" stroke="url(#paint19_linear_817_3973)" stroke-width="2" stroke-miterlimit="10"/>
<path d="M24.2617 359.815C79.5307 373.52 136.908 376.592 193.328 368.864C299.07 353.978 456.958 291.67 482.351 175.984C490.206 140.555 488.771 85.2305 458 65.0495C410.673 33.9486 307.031 80.5246 263.39 155.2C253.429 172.381 246.424 191.106 242.664 210.6" stroke="url(#paint20_linear_817_3973)" stroke-width="2" stroke-miterlimit="10"/>
<path d="M16.4062 327.432C69.569 347.806 126.131 357.885 183.071 357.13C289.9 355.335 454.193 312.862 493.65 201.173C505.735 166.995 511.173 111.988 483.076 88.1265C439.933 51.4148 331.336 84.9441 278.843 153.722C266.867 169.55 257.635 187.272 251.531 206.15" stroke="url(#paint21_linear_817_3973)" stroke-width="2" stroke-miterlimit="10"/>
<path d="M12.582 294.325C62.8295 321.074 117.722 338.017 174.322 344.249C280.562 355.591 448.843 333.585 501.744 227.583C517.938 195.139 530.113 141.233 505.219 114.099C466.94 72.3798 355.035 92.3344 294.46 154.144C280.601 168.397 269.234 184.869 260.834 202.877" stroke="url(#paint22_linear_817_3973)" stroke-width="2" stroke-miterlimit="10"/>
<path d="M12.8555 261.007C59.4312 293.713 111.821 317.26 167.224 330.388C271.274 354.672 440.974 353.495 506.519 254.778C526.58 224.612 545.311 172.561 523.936 142.591C491.081 96.4825 377.575 102.561 309.854 156.452C294.352 168.878 281.046 183.811 270.488 200.63" stroke="url(#paint23_linear_817_3973)" stroke-width="2" stroke-miterlimit="10"/>
<path d="M17.25 227.975C59.4503 266.146 108.542 295.948 161.905 315.788C262.179 352.65 430.792 372.303 507.953 282.379C531.564 254.868 556.549 205.547 539.041 173.179C512.092 123.405 398.706 115.487 324.868 160.675C307.954 171.106 292.907 184.289 280.351 199.68" stroke="url(#paint24_linear_817_3973)" stroke-width="2" stroke-miterlimit="10"/>
<path d="M25.6641 195.743C62.8476 238.8 107.9 274.395 158.416 300.63C253.387 349.513 418.239 389.709 505.944 309.936C532.772 285.532 563.634 239.649 550.235 205.381C529.63 152.651 418.072 130.902 339.234 166.678C321.17 174.933 304.616 186.149 290.261 199.861" stroke="url(#paint25_linear_817_3973)" stroke-width="2" stroke-miterlimit="10"/>
<path d="M37.9764 164.762C69.579 212.064 109.916 252.923 156.83 285.154C245.049 345.335 403.738 405.44 500.567 337.039C530.205 316.104 566.475 274.355 557.396 238.699C543.438 183.857 435.4 148.578 352.74 174.415C333.792 180.398 315.982 189.509 300.05 201.369" stroke="url(#paint26_linear_817_3973)" stroke-width="2" stroke-miterlimit="10"/>
<path d="M54.0195 135.547C79.5549 186.368 114.555 231.865 157.148 269.604C237.301 340.146 387.379 419.271 491.897 363.268C523.876 346.134 565.025 309.151 560.403 272.65C553.288 216.452 450.416 168.186 365.218 183.752C345.671 187.374 326.871 194.241 309.598 204.068" stroke="url(#paint27_linear_817_3973)" stroke-width="2" stroke-miterlimit="10"/>
<path d="M73.5352 108.519C92.6249 162.07 121.76 211.498 159.383 254.159C230.245 334.098 369.446 430.991 480.068 388.246C513.92 375.154 559.299 343.51 559.193 306.723C559.057 250.132 462.892 189.604 376.41 194.536C356.567 195.729 337.066 200.241 318.721 207.885" stroke="url(#paint28_linear_817_3973)" stroke-width="2" stroke-miterlimit="10"/>
<path d="M96.2266 84.084C108.57 139.592 131.4 192.241 163.494 239.212C223.993 327.145 350.204 440.432 465.251 411.579C500.448 402.74 549.376 376.888 553.817 340.373C560.63 284.189 472.653 212.334 386.246 206.617C366.401 205.368 346.487 207.453 327.333 212.786" stroke="url(#paint29_linear_817_3973)" stroke-width="2" stroke-miterlimit="10"/>
<path d="M121.738 62.606C127.167 119.206 143.347 174.255 169.413 224.807C218.628 319.498 329.944 447.416 447.665 432.952C483.693 428.502 535.431 408.819 544.344 373.163C558.03 318.246 479.554 236.135 394.507 219.86C374.969 216.194 354.954 215.817 335.292 218.744" stroke="url(#paint30_linear_817_3973)" stroke-width="2" stroke-miterlimit="10"/>
<path d="M149.714 44.5068C148.141 101.341 157.42 157.955 177.056 211.324C214.247 311.293 308.931 451.896 427.589 451.926C463.843 451.926 517.666 438.789 530.884 404.445C551.216 351.655 483.451 260.509 401.048 233.918C382.113 227.868 362.297 225.023 342.421 225.502" stroke="url(#paint31_linear_817_3973)" stroke-width="2" stroke-miterlimit="10"/>
<path d="M179.716 29.8611C171.147 86.0779 173.387 143.41 186.317 198.79C210.925 302.605 287.633 453.691 405.354 468.351C441.382 472.876 496.352 466.36 513.694 433.902C540.386 383.977 484.343 285.23 405.837 248.744C387.792 240.42 368.475 235.178 348.691 233.239" stroke="url(#paint32_linear_817_3973)" stroke-width="2" stroke-miterlimit="10"/>
<path d="M211.287 19.0469C195.867 73.7826 191.033 130.95 197.042 187.493C208.689 293.541 266.197 452.952 381.229 481.881C416.426 490.734 471.79 491.081 493.014 461.006C525.643 414.732 482.168 309.86 408.753 264.008C391.866 253.538 373.341 245.967 353.948 241.61" stroke="url(#paint33_linear_817_3973)" stroke-width="2" stroke-miterlimit="10"/>
<path d="M243.978 12.1992C221.929 64.6238 210.086 120.763 209.083 177.613C207.572 284.295 245.035 449.573 355.611 492.378C389.448 505.485 444.343 512.62 469.102 485.365C507.169 443.45 476.942 334.038 409.72 279.529C394.252 267.062 376.799 257.273 358.088 250.569" stroke="url(#paint34_linear_817_3973)" stroke-width="2" stroke-miterlimit="10"/>
<path d="M277.212 9.40869C248.891 58.7334 230.24 112.993 222.256 169.287C207.633 274.973 224.477 443.6 328.965 499.603C360.929 516.767 414.54 530.583 442.456 506.571C485.402 469.648 468.861 357.356 408.86 295.003C395.039 280.735 378.919 268.881 361.171 259.936" stroke="url(#paint35_linear_817_3973)" stroke-width="2" stroke-miterlimit="10"/>
<path d="M310.534 10.7209C276.356 56.1983 251.168 107.761 236.318 162.651C208.81 265.728 204.701 435.154 301.561 503.6C331.184 524.55 382.68 544.837 413.345 524.429C460.521 493.057 457.923 379.634 406.049 310.343C394.09 294.488 379.553 280.748 363.042 269.694" stroke="url(#paint36_linear_817_3973)" stroke-width="2" stroke-miterlimit="10"/>
<path d="M343.464 16.1055C303.95 57.045 272.61 105.127 251.121 157.779C211.12 256.708 186.256 424.339 273.901 504.143C300.714 528.577 349.325 555.017 382.256 538.547C432.937 513.193 444.327 400.267 401.365 325.184C391.449 307.98 378.714 292.558 363.691 279.558" stroke="url(#paint37_linear_817_3973)" stroke-width="2" stroke-miterlimit="10"/>
<path d="M375.49 25.5024C331.235 61.2813 294.21 105.15 266.395 154.763C214.536 248.036 169.218 411.353 246.38 501.308C269.99 528.834 314.976 561.051 349.72 548.728C403.119 529.784 428.271 419.121 394.932 339.332C387.224 321.048 376.502 304.183 363.209 289.438" stroke="url(#paint38_linear_817_3973)" stroke-width="2" stroke-miterlimit="10"/>
<path d="M406.11 38.7451C357.789 68.8264 315.648 107.822 281.939 153.647C218.977 239.845 153.916 396.361 219.416 495.108C239.461 525.274 280.126 562.816 316.094 554.852C371.427 542.604 410.068 435.863 386.745 352.59C381.327 333.489 372.739 315.43 361.336 299.166" stroke="url(#paint39_linear_817_3973)" stroke-width="2" stroke-miterlimit="10"/>
<path d="M434.855 55.6528C383.202 79.5764 336.585 113.105 297.497 154.446C224.338 232.274 140.576 379.603 193.416 485.636C209.58 518.095 245.351 560.281 282.013 556.797C338.449 551.428 389.93 450.237 377.03 364.747C374 345.128 367.705 326.153 358.404 308.608" stroke="url(#paint40_linear_817_3973)" stroke-width="2" stroke-miterlimit="10"/>
<path d="M461.321 75.9546C407.11 93.3598 356.715 120.914 312.83 157.146C230.728 225.411 129.398 361.353 168.779 473.057C180.864 507.25 211.076 553.509 247.964 554.505C304.612 556.104 368.163 462.001 365.882 375.561C365.266 355.733 361.335 336.147 354.25 317.613" stroke="url(#paint41_linear_817_3973)" stroke-width="2" stroke-miterlimit="10"/>
<path d="M485.085 99.3481C429.144 109.973 375.74 131.134 327.726 161.701C237.83 219.378 120.547 341.851 145.88 457.552C153.644 492.967 178.01 542.589 214.431 548.14C270.459 556.677 345.113 471.081 353.496 385.018C355.352 365.255 353.876 345.32 349.131 326.044" stroke="url(#paint42_linear_817_3973)" stroke-width="2" stroke-miterlimit="10"/>
<path d="M505.779 125.487C448.953 129.163 393.349 143.614 341.939 168.066C245.639 214.265 114.156 321.429 125.063 439.362C128.416 475.44 146.483 527.687 181.952 537.672C236.5 553.012 321.123 477.22 340.021 392.876C344.305 373.491 345.301 353.526 342.967 333.812" stroke="url(#paint43_linear_817_3973)" stroke-width="2" stroke-miterlimit="10"/>
<path d="M523.105 153.963C466.256 150.639 409.293 158.158 355.262 176.12C254.052 210.147 110.334 300.358 106.648 418.743C105.53 454.942 117.025 509.03 150.999 523.283C203.19 545.259 296.545 480.402 325.7 398.955C332.332 380.243 335.774 360.553 335.881 340.704" stroke="url(#paint44_linear_817_3973)" stroke-width="2" stroke-miterlimit="10"/>
<path d="M536.793 184.355C480.786 174.077 423.331 174.548 367.5 185.743C262.816 207.1 109.188 279 90.9097 396.028C85.3356 431.835 90.1091 486.903 122.058 505.214C171.213 533.388 271.789 480.493 310.732 403.268C319.623 385.513 325.465 366.394 328.013 346.707" stroke="url(#paint45_linear_817_3973)" stroke-width="2" stroke-miterlimit="10"/>
<path d="M546.642 216.195C492.311 199.128 435.218 192.56 378.422 196.844C271.94 205.139 110.578 257.643 78.0848 371.549C68.145 406.406 66.0906 461.639 95.5473 483.736C140.865 517.717 247.196 477.567 295.354 405.712C306.372 389.18 314.541 370.924 319.524 351.7" stroke="url(#paint46_linear_817_3973)" stroke-width="2" stroke-miterlimit="10"/>
<path d="M552.487 249C500.689 225.386 444.858 211.846 387.983 209.106C281.244 204.325 114.564 236.617 68.3702 345.682C54.2159 379.045 45.3789 433.615 71.8899 459.15C112.676 498.366 223.146 471.654 279.779 406.24C292.734 391.182 303.069 374.062 310.353 355.591" stroke="url(#paint47_linear_817_3973)" stroke-width="2" stroke-miterlimit="10"/>
<path d="M554.268 282.258C505.757 252.476 452.009 232.19 395.897 222.485C290.563 204.642 121.24 216.24 61.9033 318.804C43.7761 350.176 28.2774 403.268 51.4499 431.85C87.085 475.847 200.002 462.8 264.263 404.837C278.977 391.492 291.339 375.773 300.835 358.336" stroke="url(#paint48_linear_817_3973)" stroke-width="2" stroke-miterlimit="10"/>
<path d="M551.929 315.501C507.454 279.992 456.613 253.267 402.123 236.753C299.78 206.12 130.306 196.844 58.809 291.368C36.9205 320.282 15.0017 371.051 34.5035 402.273C64.4738 450.312 178.131 451.217 249.009 401.579C265.251 390.136 279.456 376.054 291.033 359.92" stroke="url(#paint49_linear_817_3973)" stroke-width="2" stroke-miterlimit="10"/>
<path d="M545.524 348.201C505.754 307.509 458.589 274.749 406.549 251.67C308.738 208.714 141.696 178.729 59.1111 263.736C33.8237 289.754 5.84738 337.446 21.3461 370.825C45.1532 422.107 157.859 437.024 234.341 396.466C251.866 387.096 267.694 374.86 281.169 360.267" stroke="url(#paint50_linear_817_3973)" stroke-width="2" stroke-miterlimit="10"/>
<defs>
<linearGradient id="paint0_linear_817_3973" x1="272.521" y1="198.996" x2="272.521" y2="402.283" gradientUnits="userSpaceOnUse">
<stop stop-color="#FF2F2F"/>
<stop offset="1" stop-color="#4A3AFF"/>
</linearGradient>
<linearGradient id="paint1_linear_817_3973" x1="263.602" y1="185.36" x2="263.602" y2="410.01" gradientUnits="userSpaceOnUse">
<stop stop-color="#FF2F2F"/>
<stop offset="1" stop-color="#4A3AFF"/>
</linearGradient>
<linearGradient id="paint2_linear_817_3973" x1="254.56" y1="169.595" x2="254.56" y2="438.17" gradientUnits="userSpaceOnUse">
<stop stop-color="#FF2F2F"/>
<stop offset="1" stop-color="#4A3AFF"/>
</linearGradient>
<linearGradient id="paint3_linear_817_3973" x1="245.67" y1="152.585" x2="245.67" y2="463.977" gradientUnits="userSpaceOnUse">
<stop stop-color="#FF2F2F"/>
<stop offset="1" stop-color="#4A3AFF"/>
</linearGradient>
<linearGradient id="paint4_linear_817_3973" x1="236.93" y1="134.85" x2="236.93" y2="486.964" gradientUnits="userSpaceOnUse">
<stop stop-color="#FF2F2F"/>
<stop offset="1" stop-color="#4A3AFF"/>
</linearGradient>
<linearGradient id="paint5_linear_817_3973" x1="228.489" y1="116.98" x2="228.489" y2="506.813" gradientUnits="userSpaceOnUse">
<stop stop-color="#FF2F2F"/>
<stop offset="1" stop-color="#4A3AFF"/>
</linearGradient>
<linearGradient id="paint6_linear_817_3973" x1="221.224" y1="99.1509" x2="221.224" y2="523.238" gradientUnits="userSpaceOnUse">
<stop stop-color="#FF2F2F"/>
<stop offset="1" stop-color="#4A3AFF"/>
</linearGradient>
<linearGradient id="paint7_linear_817_3973" x1="217.609" y1="81.5386" x2="217.609" y2="535.953" gradientUnits="userSpaceOnUse">
<stop stop-color="#FF2F2F"/>
<stop offset="1" stop-color="#4A3AFF"/>
</linearGradient>
<linearGradient id="paint8_linear_817_3973" x1="217.703" y1="64.2388" x2="217.703" y2="544.807" gradientUnits="userSpaceOnUse">
<stop stop-color="#FF2F2F"/>
<stop offset="1" stop-color="#4A3AFF"/>
</linearGradient>
<linearGradient id="paint9_linear_817_3973" x1="221.22" y1="48.0117" x2="221.22" y2="549.633" gradientUnits="userSpaceOnUse">
<stop stop-color="#FF2F2F"/>
<stop offset="1" stop-color="#4A3AFF"/>
</linearGradient>
<linearGradient id="paint10_linear_817_3973" x1="228.447" y1="33.3672" x2="228.447" y2="550.372" gradientUnits="userSpaceOnUse">
<stop stop-color="#FF2F2F"/>
<stop offset="1" stop-color="#4A3AFF"/>
</linearGradient>
<linearGradient id="paint11_linear_817_3973" x1="239.02" y1="21.2744" x2="239.02" y2="547.024" gradientUnits="userSpaceOnUse">
<stop stop-color="#FF2F2F"/>
<stop offset="1" stop-color="#4A3AFF"/>
</linearGradient>
<linearGradient id="paint12_linear_817_3973" x1="251.917" y1="12.0171" x2="251.917" y2="539.618" gradientUnits="userSpaceOnUse">
<stop stop-color="#FF2F2F"/>
<stop offset="1" stop-color="#4A3AFF"/>
</linearGradient>
<linearGradient id="paint13_linear_817_3973" x1="266.179" y1="5.83057" x2="266.179" y2="528.275" gradientUnits="userSpaceOnUse">
<stop stop-color="#FF2F2F"/>
<stop offset="1" stop-color="#4A3AFF"/>
</linearGradient>
<linearGradient id="paint14_linear_817_3973" x1="263.81" y1="3" x2="263.81" y2="513.178" gradientUnits="userSpaceOnUse">
<stop stop-color="#FF2F2F"/>
<stop offset="1" stop-color="#4A3AFF"/>
</linearGradient>
<linearGradient id="paint15_linear_817_3973" x1="257.991" y1="3.75537" x2="257.991" y2="494.535" gradientUnits="userSpaceOnUse">
<stop stop-color="#FF2F2F"/>
<stop offset="1" stop-color="#4A3AFF"/>
</linearGradient>
<linearGradient id="paint16_linear_817_3973" x1="254.071" y1="7.87695" x2="254.071" y2="472.635" gradientUnits="userSpaceOnUse">
<stop stop-color="#FF2F2F"/>
<stop offset="1" stop-color="#4A3AFF"/>
</linearGradient>
<linearGradient id="paint17_linear_817_3973" x1="251.852" y1="15.3467" x2="251.852" y2="447.823" gradientUnits="userSpaceOnUse">
<stop stop-color="#FF2F2F"/>
<stop offset="1" stop-color="#4A3AFF"/>
</linearGradient>
<linearGradient id="paint18_linear_817_3973" x1="251.292" y1="25.9556" x2="251.292" y2="420.463" gradientUnits="userSpaceOnUse">
<stop stop-color="#FF2F2F"/>
<stop offset="1" stop-color="#4A3AFF"/>
</linearGradient>
<linearGradient id="paint19_linear_817_3973" x1="252.4" y1="39.3701" x2="252.4" y2="394.208" gradientUnits="userSpaceOnUse">
<stop stop-color="#FF2F2F"/>
<stop offset="1" stop-color="#4A3AFF"/>
</linearGradient>
<linearGradient id="paint20_linear_817_3973" x1="255.322" y1="55.2686" x2="255.322" y2="373.019" gradientUnits="userSpaceOnUse">
<stop stop-color="#FF2F2F"/>
<stop offset="1" stop-color="#4A3AFF"/>
</linearGradient>
<linearGradient id="paint21_linear_817_3973" x1="259.95" y1="73.041" x2="259.95" y2="357.17" gradientUnits="userSpaceOnUse">
<stop stop-color="#FF2F2F"/>
<stop offset="1" stop-color="#4A3AFF"/>
</linearGradient>
<linearGradient id="paint22_linear_817_3973" x1="266.002" y1="92.0962" x2="266.002" y2="346.932" gradientUnits="userSpaceOnUse">
<stop stop-color="#FF2F2F"/>
<stop offset="1" stop-color="#4A3AFF"/>
</linearGradient>
<linearGradient id="paint23_linear_817_3973" x1="273.132" y1="111.649" x2="273.132" y2="343.523" gradientUnits="userSpaceOnUse">
<stop stop-color="#FF2F2F"/>
<stop offset="1" stop-color="#4A3AFF"/>
</linearGradient>
<linearGradient id="paint24_linear_817_3973" x1="281.082" y1="130.906" x2="281.082" y2="346.77" gradientUnits="userSpaceOnUse">
<stop stop-color="#FF2F2F"/>
<stop offset="1" stop-color="#4A3AFF"/>
</linearGradient>
<linearGradient id="paint25_linear_817_3973" x1="289.567" y1="149.092" x2="289.567" y2="355.226" gradientUnits="userSpaceOnUse">
<stop stop-color="#FF2F2F"/>
<stop offset="1" stop-color="#4A3AFF"/>
</linearGradient>
<linearGradient id="paint26_linear_817_3973" x1="298.396" y1="164.762" x2="298.396" y2="367.44" gradientUnits="userSpaceOnUse">
<stop stop-color="#FF2F2F"/>
<stop offset="1" stop-color="#4A3AFF"/>
</linearGradient>
<linearGradient id="paint27_linear_817_3973" x1="307.39" y1="135.547" x2="307.39" y2="382.23" gradientUnits="userSpaceOnUse">
<stop stop-color="#FF2F2F"/>
<stop offset="1" stop-color="#4A3AFF"/>
</linearGradient>
<linearGradient id="paint28_linear_817_3973" x1="316.364" y1="108.519" x2="316.364" y2="398.709" gradientUnits="userSpaceOnUse">
<stop stop-color="#FF2F2F"/>
<stop offset="1" stop-color="#4A3AFF"/>
</linearGradient>
<linearGradient id="paint29_linear_817_3973" x1="325.208" y1="84.084" x2="325.208" y2="416.165" gradientUnits="userSpaceOnUse">
<stop stop-color="#FF2F2F"/>
<stop offset="1" stop-color="#4A3AFF"/>
</linearGradient>
<linearGradient id="paint30_linear_817_3973" x1="333.822" y1="62.606" x2="333.822" y2="434.078" gradientUnits="userSpaceOnUse">
<stop stop-color="#FF2F2F"/>
<stop offset="1" stop-color="#4A3AFF"/>
</linearGradient>
<linearGradient id="paint31_linear_817_3973" x1="342.034" y1="44.5068" x2="342.034" y2="451.926" gradientUnits="userSpaceOnUse">
<stop stop-color="#FF2F2F"/>
<stop offset="1" stop-color="#4A3AFF"/>
</linearGradient>
<linearGradient id="paint32_linear_817_3973" x1="347.522" y1="29.8611" x2="347.522" y2="469.635" gradientUnits="userSpaceOnUse">
<stop stop-color="#FF2F2F"/>
<stop offset="1" stop-color="#4A3AFF"/>
</linearGradient>
<linearGradient id="paint33_linear_817_3973" x1="349.275" y1="19.0469" x2="349.275" y2="487.113" gradientUnits="userSpaceOnUse">
<stop stop-color="#FF2F2F"/>
<stop offset="1" stop-color="#4A3AFF"/>
</linearGradient>
<linearGradient id="paint34_linear_817_3973" x1="347.404" y1="12.1992" x2="347.404" y2="504.007" gradientUnits="userSpaceOnUse">
<stop stop-color="#FF2F2F"/>
<stop offset="1" stop-color="#4A3AFF"/>
</linearGradient>
<linearGradient id="paint35_linear_817_3973" x1="342.116" y1="9.40869" x2="342.116" y2="519.452" gradientUnits="userSpaceOnUse">
<stop stop-color="#FF2F2F"/>
<stop offset="1" stop-color="#4A3AFF"/>
</linearGradient>
<linearGradient id="paint36_linear_817_3973" x1="333.127" y1="10.7209" x2="333.127" y2="532.894" gradientUnits="userSpaceOnUse">
<stop stop-color="#FF2F2F"/>
<stop offset="1" stop-color="#4A3AFF"/>
</linearGradient>
<linearGradient id="paint37_linear_817_3973" x1="321.245" y1="16.1055" x2="321.245" y2="543.666" gradientUnits="userSpaceOnUse">
<stop stop-color="#FF2F2F"/>
<stop offset="1" stop-color="#4A3AFF"/>
</linearGradient>
<linearGradient id="paint38_linear_817_3973" x1="307.54" y1="25.5024" x2="307.54" y2="551.433" gradientUnits="userSpaceOnUse">
<stop stop-color="#FF2F2F"/>
<stop offset="1" stop-color="#4A3AFF"/>
</linearGradient>
<linearGradient id="paint39_linear_817_3973" x1="299.12" y1="38.7451" x2="299.12" y2="555.935" gradientUnits="userSpaceOnUse">
<stop stop-color="#FF2F2F"/>
<stop offset="1" stop-color="#4A3AFF"/>
</linearGradient>
<linearGradient id="paint40_linear_817_3973" x1="305.832" y1="55.6528" x2="305.832" y2="557" gradientUnits="userSpaceOnUse">
<stop stop-color="#FF2F2F"/>
<stop offset="1" stop-color="#4A3AFF"/>
</linearGradient>
<linearGradient id="paint41_linear_817_3973" x1="310.667" y1="75.9546" x2="310.667" y2="554.525" gradientUnits="userSpaceOnUse">
<stop stop-color="#FF2F2F"/>
<stop offset="1" stop-color="#4A3AFF"/>
</linearGradient>
<linearGradient id="paint42_linear_817_3973" x1="313.73" y1="99.3481" x2="313.73" y2="548.729" gradientUnits="userSpaceOnUse">
<stop stop-color="#FF2F2F"/>
<stop offset="1" stop-color="#4A3AFF"/>
</linearGradient>
<linearGradient id="paint43_linear_817_3973" x1="315.102" y1="125.487" x2="315.102" y2="539.661" gradientUnits="userSpaceOnUse">
<stop stop-color="#FF2F2F"/>
<stop offset="1" stop-color="#4A3AFF"/>
</linearGradient>
<linearGradient id="paint44_linear_817_3973" x1="314.839" y1="153.197" x2="314.839" y2="527.609" gradientUnits="userSpaceOnUse">
<stop stop-color="#FF2F2F"/>
<stop offset="1" stop-color="#4A3AFF"/>
</linearGradient>
<linearGradient id="paint45_linear_817_3973" x1="312.852" y1="176.981" x2="312.852" y2="512.886" gradientUnits="userSpaceOnUse">
<stop stop-color="#FF2F2F"/>
<stop offset="1" stop-color="#4A3AFF"/>
</linearGradient>
<linearGradient id="paint46_linear_817_3973" x1="309.048" y1="195.573" x2="309.048" y2="495.987" gradientUnits="userSpaceOnUse">
<stop stop-color="#FF2F2F"/>
<stop offset="1" stop-color="#4A3AFF"/>
</linearGradient>
<linearGradient id="paint47_linear_817_3973" x1="303.652" y1="208.654" x2="303.652" y2="477.437" gradientUnits="userSpaceOnUse">
<stop stop-color="#FF2F2F"/>
<stop offset="1" stop-color="#4A3AFF"/>
</linearGradient>
<linearGradient id="paint48_linear_817_3973" x1="297.023" y1="215.575" x2="297.023" y2="458.043" gradientUnits="userSpaceOnUse">
<stop stop-color="#FF2F2F"/>
<stop offset="1" stop-color="#4A3AFF"/>
</linearGradient>
<linearGradient id="paint49_linear_817_3973" x1="289.439" y1="215.519" x2="289.439" y2="438.555" gradientUnits="userSpaceOnUse">
<stop stop-color="#FF2F2F"/>
<stop offset="1" stop-color="#4A3AFF"/>
</linearGradient>
<linearGradient id="paint50_linear_817_3973" x1="281.209" y1="209.486" x2="281.209" y2="419.74" gradientUnits="userSpaceOnUse">
<stop stop-color="#FF2F2F"/>
<stop offset="1" stop-color="#4A3AFF"/>
</linearGradient>
</defs>
</svg>
