<svg width="790" height="532" viewBox="0 0 790 532" fill="none" xmlns="http://www.w3.org/2000/svg">
<g clip-path="url(#clip0_817_3848)">
<path d="M1100 90.699C948.076 151.981 866.184 232.805 818.954 298.925C779.583 354.05 780.281 376.599 738.475 417.726C647.751 506.971 473.96 568.513 389.731 491.82C348.24 454.04 363.588 406.164 343.742 315.531C325.888 234 279.726 121.866 150.847 0" stroke="url(#paint0_linear_817_3848)" stroke-width="2" stroke-miterlimit="10"/>
<path d="M1099.7 110.471C951.925 163.138 870.851 239.174 823.646 301.053C783.927 353.135 780.698 373.961 736.292 414.381C643.138 499.175 479.926 558.208 395.579 486.648C352.132 449.792 362.015 402.734 338.762 312.367C318.289 232.808 271.185 122.592 144.528 1.81873" stroke="url(#paint1_linear_817_3848)" stroke-width="2" stroke-miterlimit="10"/>
<path d="M1099.39 130.24C955.776 174.295 875.459 245.562 828.33 303.182C788.181 352.269 781.185 371.326 734.101 411.037C638.723 491.477 485.632 548.04 401.414 481.479C355.918 445.518 360.506 399.351 333.771 309.206C310.762 231.639 262.633 123.326 138.19 3.65149" stroke="url(#paint2_linear_817_3848)" stroke-width="2" stroke-miterlimit="10"/>
<path d="M1099.09 150.012C959.628 185.455 879.987 251.969 833.015 305.327C792.383 351.456 781.752 368.71 731.898 407.689C634.485 483.89 491.092 538.025 407.243 476.307C359.603 441.245 359.066 396.007 328.772 306.042C303.333 230.485 254.073 124.06 131.862 5.47571" stroke="url(#paint3_linear_817_3848)" stroke-width="2" stroke-miterlimit="10"/>
<path d="M1098.78 169.781C963.465 196.607 884.421 258.376 837.698 307.442C796.513 350.686 782.365 366.119 729.722 404.345C630.444 476.415 496.353 528.175 413.096 471.136C363.215 436.964 357.728 392.684 323.797 302.878C296.01 229.338 245.534 124.792 125.55 7.31396" stroke="url(#paint4_linear_817_3848)" stroke-width="2" stroke-miterlimit="10"/>
<path d="M1098.48 189.55C967.327 207.763 888.755 264.786 842.382 309.57C800.557 349.963 783.078 363.566 727.531 400.998C626.538 469.062 501.399 518.492 418.936 465.967C366.724 432.707 356.482 389.378 318.809 299.714C288.768 228.187 236.985 125.526 119.222 9.12451" stroke="url(#paint5_linear_817_3848)" stroke-width="2" stroke-miterlimit="10"/>
<path d="M1098.18 209.319C971.179 218.907 892.968 271.169 847.067 311.698C804.507 349.278 783.837 361.057 725.343 397.653C622.758 461.831 506.264 508.984 424.777 460.795C370.148 428.489 355.293 386.072 313.821 296.553C281.61 227.026 228.425 126.26 112.898 10.9517" stroke="url(#paint6_linear_817_3848)" stroke-width="2" stroke-miterlimit="10"/>
<path d="M1097.86 229.091C975.02 230.074 897.039 277.521 851.74 313.827C808.337 348.615 784.629 358.602 723.144 394.308C619.08 454.722 510.954 499.649 430.606 455.624C373.477 424.322 354.201 382.76 308.822 293.389C274.541 225.85 219.887 127.002 106.57 12.7758" stroke="url(#paint7_linear_817_3848)" stroke-width="2" stroke-miterlimit="10"/>
<path d="M1097.57 248.86C978.882 241.231 900.989 283.813 856.435 315.958C812.059 347.963 785.51 356.225 720.963 390.961C615.502 447.735 515.52 490.489 436.457 450.455C376.742 420.224 353.22 379.421 303.845 290.225C267.545 224.651 211.338 127.725 100.229 14.6002" stroke="url(#paint8_linear_817_3848)" stroke-width="2" stroke-miterlimit="10"/>
<path d="M1097.26 268.621C982.731 252.38 904.783 290.014 861.119 318.078C815.667 347.289 786.415 353.874 718.775 387.608C612.005 440.854 519.972 481.487 442.298 445.275C379.939 416.203 352.316 376.04 298.857 287.053C260.623 223.413 202.787 128.451 93.9181 16.4163" stroke="url(#paint9_linear_817_3848)" stroke-width="2" stroke-miterlimit="10"/>
<path d="M1096.96 288.401C986.567 263.545 908.428 296.128 865.8 320.215C819.128 346.588 787.351 351.625 716.582 384.269C608.552 434.101 524.318 472.67 448.137 440.114C383.06 412.302 351.502 372.63 293.868 283.898C253.768 222.158 194.236 129.194 87.5894 18.2543" stroke="url(#paint10_linear_817_3848)" stroke-width="2" stroke-miterlimit="10"/>
<path d="M1096.66 308.17C990.433 274.699 911.934 302.103 870.484 322.343C822.46 345.796 788.307 349.445 714.394 380.924C605.142 427.448 528.586 464 453.977 434.942C386.123 408.517 350.77 369.156 288.88 280.737C246.97 220.857 185.687 129.925 81.2647 20.0758" stroke="url(#paint11_linear_817_3848)" stroke-width="2" stroke-miterlimit="10"/>
<path d="M1096.35 327.942C994.284 285.856 915.32 307.924 875.168 324.474C825.665 344.879 789.309 347.338 712.203 377.58C601.759 420.895 532.799 455.484 459.814 429.77C389.142 404.871 350.119 365.62 283.892 277.573C240.223 219.515 177.138 130.659 74.9371 21.9001" stroke="url(#paint12_linear_817_3848)" stroke-width="2" stroke-miterlimit="10"/>
<path d="M1096.05 347.711C998.133 297.013 918.605 313.575 879.852 326.603C828.757 343.78 790.318 345.312 710.019 374.232C598.401 414.434 536.979 447.096 465.66 424.602C392.103 401.387 349.549 362.007 278.909 274.409C233.517 218.126 168.589 131.385 68.6124 23.7328" stroke="url(#paint13_linear_817_3848)" stroke-width="2" stroke-miterlimit="10"/>
<path d="M1095.74 367.48C1001.98 308.167 921.823 319.042 884.548 328.731C831.779 342.444 791.348 343.361 707.834 370.888C595.046 408.062 541.143 438.87 471.506 419.43C395.04 398.083 349.045 358.315 273.927 271.237C226.862 216.682 160.049 132.116 62.2961 25.5406" stroke="url(#paint14_linear_817_3848)" stroke-width="2" stroke-miterlimit="10"/>
<path d="M1095.44 387.252C1005.82 319.324 925.015 324.323 889.221 330.859C834.738 340.808 792.364 341.49 705.634 367.54C591.682 401.781 545.29 430.759 477.335 414.261C397.938 394.979 348.591 354.545 268.928 268.084C220.208 215.206 151.489 132.859 55.9603 27.376" stroke="url(#paint15_linear_817_3848)" stroke-width="2" stroke-miterlimit="10"/>
<path d="M1095.12 407.021C1009.67 330.481 927.836 339.329 893.891 332.99C838.37 322.62 793.378 339.699 703.429 364.196C588.299 395.557 549.465 422.769 483.175 409.089C400.836 392.106 348.199 350.664 263.94 264.92C213.59 213.68 142.939 133.593 49.6326 29.2113" stroke="url(#paint16_linear_817_3848)" stroke-width="2" stroke-miterlimit="10"/>
<path d="M1094.83 426.79C1013.54 341.638 930.723 342.534 898.589 335.119C842.267 322.124 794.418 337.981 701.254 360.851C584.904 389.422 553.688 414.897 489.014 403.918C403.742 389.46 347.853 346.7 258.951 261.751C206.982 212.097 134.389 134.319 43.3069 31.0193" stroke="url(#paint17_linear_817_3848)" stroke-width="2" stroke-miterlimit="10"/>
<path d="M1094.53 446.562C1017.39 352.792 933.988 345.424 903.273 337.247C845.938 321.987 795.44 336.34 699.062 357.517C581.491 383.338 557.964 407.114 494.855 398.762C406.67 387.09 347.546 342.652 253.963 258.606C200.386 210.491 125.838 135.066 36.9795 32.8625" stroke="url(#paint18_linear_817_3848)" stroke-width="2" stroke-miterlimit="10"/>
<path d="M1094.22 466.331C1021.24 363.949 938.62 343.887 907.955 339.376C847.551 330.509 796.445 334.768 696.871 354.167C578.043 377.306 562.314 399.411 500.692 393.585C409.645 384.967 347.273 338.472 248.97 255.429C193.785 208.807 117.284 135.792 30.6523 34.6732" stroke="url(#paint19_linear_817_3848)" stroke-width="2" stroke-miterlimit="10"/>
<path d="M1093.92 486.1C1025.09 375.106 942.439 348.538 912.641 341.507C851.378 327.052 797.445 333.267 694.685 350.82C574.572 371.329 566.763 391.794 506.535 388.413C412.686 383.148 347.021 334.231 243.987 252.273C187.192 207.095 108.74 136.532 24.3273 36.5057" stroke="url(#paint20_linear_817_3848)" stroke-width="2" stroke-miterlimit="10"/>
<path d="M1093.62 505.872C1028.94 386.263 946.518 353.195 917.326 343.635C855.556 323.397 798.426 331.832 692.494 347.47C571.061 365.395 571.316 384.236 512.373 383.239C415.815 381.595 346.789 329.876 238.997 249.106C180.588 205.344 100.191 137.258 18.0002 38.3246" stroke="url(#paint21_linear_817_3848)" stroke-width="2" stroke-miterlimit="10"/>
</g>
<defs>
<linearGradient id="paint0_linear_817_3848" x1="625.424" y1="0" x2="625.424" y2="526.603" gradientUnits="userSpaceOnUse">
<stop stop-color="#EE7015"/>
<stop offset="1" stop-color="#C6FF68"/>
</linearGradient>
<linearGradient id="paint1_linear_817_3848" x1="622.112" y1="1.81873" x2="622.112" y2="518.675" gradientUnits="userSpaceOnUse">
<stop stop-color="#EE7015"/>
<stop offset="1" stop-color="#C6FF68"/>
</linearGradient>
<linearGradient id="paint2_linear_817_3848" x1="618.791" y1="3.65149" x2="618.791" y2="510.841" gradientUnits="userSpaceOnUse">
<stop stop-color="#EE7015"/>
<stop offset="1" stop-color="#C6FF68"/>
</linearGradient>
<linearGradient id="paint3_linear_817_3848" x1="615.475" y1="5.47571" x2="615.475" y2="503.109" gradientUnits="userSpaceOnUse">
<stop stop-color="#EE7015"/>
<stop offset="1" stop-color="#C6FF68"/>
</linearGradient>
<linearGradient id="paint4_linear_817_3848" x1="612.167" y1="7.31396" x2="612.167" y2="495.485" gradientUnits="userSpaceOnUse">
<stop stop-color="#EE7015"/>
<stop offset="1" stop-color="#C6FF68"/>
</linearGradient>
<linearGradient id="paint5_linear_817_3848" x1="608.851" y1="9.12451" x2="608.851" y2="487.974" gradientUnits="userSpaceOnUse">
<stop stop-color="#EE7015"/>
<stop offset="1" stop-color="#C6FF68"/>
</linearGradient>
<linearGradient id="paint6_linear_817_3848" x1="605.537" y1="10.9517" x2="605.537" y2="480.578" gradientUnits="userSpaceOnUse">
<stop stop-color="#EE7015"/>
<stop offset="1" stop-color="#C6FF68"/>
</linearGradient>
<linearGradient id="paint7_linear_817_3848" x1="602.216" y1="12.7758" x2="602.216" y2="473.296" gradientUnits="userSpaceOnUse">
<stop stop-color="#EE7015"/>
<stop offset="1" stop-color="#C6FF68"/>
</linearGradient>
<linearGradient id="paint8_linear_817_3848" x1="598.898" y1="14.6002" x2="598.898" y2="466.131" gradientUnits="userSpaceOnUse">
<stop stop-color="#EE7015"/>
<stop offset="1" stop-color="#C6FF68"/>
</linearGradient>
<linearGradient id="paint9_linear_817_3848" x1="595.591" y1="16.4163" x2="595.591" y2="459.07" gradientUnits="userSpaceOnUse">
<stop stop-color="#EE7015"/>
<stop offset="1" stop-color="#C6FF68"/>
</linearGradient>
<linearGradient id="paint10_linear_817_3848" x1="592.274" y1="18.2543" x2="592.274" y2="452.138" gradientUnits="userSpaceOnUse">
<stop stop-color="#EE7015"/>
<stop offset="1" stop-color="#C6FF68"/>
</linearGradient>
<linearGradient id="paint11_linear_817_3848" x1="588.96" y1="20.0758" x2="588.96" y2="445.304" gradientUnits="userSpaceOnUse">
<stop stop-color="#EE7015"/>
<stop offset="1" stop-color="#C6FF68"/>
</linearGradient>
<linearGradient id="paint12_linear_817_3848" x1="585.644" y1="21.9001" x2="585.644" y2="438.578" gradientUnits="userSpaceOnUse">
<stop stop-color="#EE7015"/>
<stop offset="1" stop-color="#C6FF68"/>
</linearGradient>
<linearGradient id="paint13_linear_817_3848" x1="582.33" y1="23.7328" x2="582.33" y2="431.951" gradientUnits="userSpaceOnUse">
<stop stop-color="#EE7015"/>
<stop offset="1" stop-color="#C6FF68"/>
</linearGradient>
<linearGradient id="paint14_linear_817_3848" x1="579.02" y1="25.5406" x2="579.02" y2="425.437" gradientUnits="userSpaceOnUse">
<stop stop-color="#EE7015"/>
<stop offset="1" stop-color="#C6FF68"/>
</linearGradient>
<linearGradient id="paint15_linear_817_3848" x1="575.7" y1="27.376" x2="575.7" y2="419.025" gradientUnits="userSpaceOnUse">
<stop stop-color="#EE7015"/>
<stop offset="1" stop-color="#C6FF68"/>
</linearGradient>
<linearGradient id="paint16_linear_817_3848" x1="572.377" y1="29.2113" x2="572.377" y2="412.717" gradientUnits="userSpaceOnUse">
<stop stop-color="#EE7015"/>
<stop offset="1" stop-color="#C6FF68"/>
</linearGradient>
<linearGradient id="paint17_linear_817_3848" x1="569.069" y1="31.0193" x2="569.069" y2="426.79" gradientUnits="userSpaceOnUse">
<stop stop-color="#EE7015"/>
<stop offset="1" stop-color="#C6FF68"/>
</linearGradient>
<linearGradient id="paint18_linear_817_3848" x1="565.753" y1="32.8625" x2="565.753" y2="446.562" gradientUnits="userSpaceOnUse">
<stop stop-color="#EE7015"/>
<stop offset="1" stop-color="#C6FF68"/>
</linearGradient>
<linearGradient id="paint19_linear_817_3848" x1="562.438" y1="34.6732" x2="562.438" y2="466.331" gradientUnits="userSpaceOnUse">
<stop stop-color="#EE7015"/>
<stop offset="1" stop-color="#C6FF68"/>
</linearGradient>
<linearGradient id="paint20_linear_817_3848" x1="559.123" y1="36.5057" x2="559.123" y2="486.1" gradientUnits="userSpaceOnUse">
<stop stop-color="#EE7015"/>
<stop offset="1" stop-color="#C6FF68"/>
</linearGradient>
<linearGradient id="paint21_linear_817_3848" x1="555.808" y1="38.3246" x2="555.808" y2="505.872" gradientUnits="userSpaceOnUse">
<stop stop-color="#EE7015"/>
<stop offset="1" stop-color="#C6FF68"/>
</linearGradient>
<clipPath id="clip0_817_3848">
<rect width="790" height="532" fill="white"/>
</clipPath>
</defs>
</svg>
