<svg width="790" height="532" viewBox="0 0 790 532" fill="none" xmlns="http://www.w3.org/2000/svg">
<path d="M0.175293 0C178.104 27.3509 424.839 338.219 402.07 446.317C387.138 517.181 212.209 515.589 164.417 528.37C99.2428 545.775 222.648 480.618 247.782 405.291C277.644 315.779 232.316 80.4614 376.114 121.836C501.61 157.964 528.784 274.976 618.744 272.266C700.106 269.779 763.488 171.565 804.138 89.5121" stroke="url(#paint0_linear_817_3384)" stroke-width="2" stroke-miterlimit="10"/>
<path d="M0.16272 7.17285C170.626 37.6691 407.992 338.728 389.017 442.301C376.575 510.156 210.902 507.893 166.681 519.381C105.377 535.282 223.519 472.66 248.441 400.392C278.303 313.739 237.094 88.5418 375.915 128.437C499.756 163.931 524.753 283.666 615.521 283.84C697.033 283.691 762.916 187.602 805.357 107.302" stroke="url(#paint1_linear_817_3384)" stroke-width="2" stroke-miterlimit="10"/>
<path d="M0.148071 14.3093C163.145 47.9509 391.143 339.176 375.975 438.248C366.021 503.095 209.593 500.161 168.944 510.355C111.496 524.702 224.388 464.667 249.099 395.444C278.961 311.651 241.882 96.5983 375.714 135.001C497.9 169.874 520.719 292.642 612.309 295.377C693.957 297.864 762.341 203.615 806.587 125.056" stroke="url(#paint2_linear_817_3384)" stroke-width="2" stroke-miterlimit="10"/>
<path d="M0.147949 21.4961C155.68 58.2955 374.308 339.637 362.935 434.246C355.47 496.047 208.287 492.479 171.208 501.38C117.593 514.086 225.271 456.674 249.758 390.51C279.707 309.563 246.672 104.655 375.527 141.554C496.046 175.817 516.663 301.495 609.074 306.903C690.859 311.739 761.756 219.641 807.806 142.797" stroke="url(#paint3_linear_817_3384)" stroke-width="2" stroke-miterlimit="10"/>
<path d="M0.136353 28.6562C148.277 68.601 357.461 340.034 349.896 430.217C344.919 488.96 206.994 484.758 173.486 492.304C123.716 503.493 226.168 448.692 250.418 385.573C280.417 307.486 251.463 112.723 375.329 148.118C494.193 181.759 512.62 310.209 605.877 318.439C687.774 325.662 761.21 235.653 809.039 160.55" stroke="url(#paint4_linear_817_3384)" stroke-width="2" stroke-miterlimit="10"/>
<path d="M0.124023 35.8174C140.824 78.9199 340.614 340.407 336.844 426.189C334.356 481.836 205.7 477.037 175.751 483.291C129.862 492.864 227.089 440.698 251.078 380.638C281.139 305.398 256.254 120.804 375.142 154.694C492.326 187.727 508.564 318.986 602.654 329.989C684.688 339.587 760.675 251.666 810.271 178.316" stroke="url(#paint5_linear_817_3384)" stroke-width="2" stroke-miterlimit="10"/>
<path d="M0.123901 42.9905C133.371 89.2384 323.755 340.593 323.804 422.173C323.804 474.675 204.356 469.292 178.015 474.265C135.984 482.184 228.009 432.716 251.737 375.714C281.873 303.309 261.032 128.847 374.918 161.271C490.447 193.669 504.47 327.738 599.419 341.538C681.54 353.473 760.04 267.728 811.478 196.081" stroke="url(#paint6_linear_817_3384)" stroke-width="2" stroke-miterlimit="10"/>
<path d="M0.111572 50.1514C125.906 99.5446 306.87 340.78 310.765 418.145C313.253 467.476 203.137 461.534 180.292 465.251C142.106 471.467 228.967 424.734 252.459 370.766C282.694 301.146 265.822 137.14 374.806 167.822C488.606 199.86 500.476 336.453 596.284 353.063C678.566 367.335 759.555 283.741 812.784 213.822" stroke="url(#paint7_linear_817_3384)" stroke-width="2" stroke-miterlimit="10"/>
<path d="M0.0999756 57.3127C118.453 109.864 289.937 340.892 297.713 414.118C302.616 460.229 201.906 453.764 182.557 456.226C148.253 460.602 229.926 416.753 253.069 365.856C283.392 299.12 270.489 145.246 374.558 174.4C486.691 205.841 496.383 345.156 593.012 364.613C675.407 381.197 758.934 299.779 813.954 231.588" stroke="url(#paint8_linear_817_3384)" stroke-width="2" stroke-miterlimit="10"/>
<path d="M0.0999756 64.4734C111 120.17 272.953 340.904 284.673 410.089C291.94 452.943 200.686 445.956 184.822 447.212C154.412 449.611 230.859 408.772 253.729 360.92C284.188 297.031 275.329 153.302 374.422 180.988C484.887 211.833 492.389 353.858 589.852 376.174C672.371 395.059 758.424 315.816 815.249 249.366" stroke="url(#paint9_linear_817_3384)" stroke-width="2" stroke-miterlimit="10"/>
<path d="M0.0874023 71.6348C103.547 130.489 255.869 340.842 271.634 406.062C281.189 445.621 199.566 438.124 187.024 438.199C160.596 438.348 231.817 400.803 254.326 355.985C284.935 294.93 280.045 161.395 374.11 187.553C482.896 217.813 488.209 362.524 586.517 387.712C669.161 408.847 757.727 331.841 816.343 267.119" stroke="url(#paint10_linear_817_3384)" stroke-width="2" stroke-miterlimit="10"/>
<path d="M0.0753174 78.8076C96.0945 140.795 238.674 340.705 258.594 402.046C270.352 438.261 198.173 432.293 189.364 429.173C167.117 431.659 232.913 392.833 255.048 351.061C285.831 292.841 284.91 169.463 373.974 194.129C481.104 223.78 484.227 371.176 583.357 399.261C666.137 422.695 757.217 347.878 817.638 284.884" stroke="url(#paint11_linear_817_3384)" stroke-width="2" stroke-miterlimit="10"/>
<path d="M0.0751953 85.9688C88.6288 151.114 221.304 340.519 245.542 398.018C259.403 430.889 196.904 424.722 191.628 420.16C173.288 421.303 234.02 384.877 255.707 346.126C286.702 290.752 289.688 177.532 373.775 200.669C479.238 229.723 480.183 379.792 580.147 410.773C663.064 436.471 756.644 363.879 818.87 302.613" stroke="url(#paint12_linear_817_3384)" stroke-width="2" stroke-miterlimit="10"/>
<path d="M0.0634766 93.1299C81.1764 161.42 203.748 340.345 232.503 393.99C248.33 423.529 195.623 417.151 193.931 411.134C179.485 410.923 235.153 376.92 256.405 341.203C287.648 288.664 294.516 185.588 373.626 207.27C477.422 235.715 476.19 388.445 576.975 422.348C660.029 450.283 756.147 379.941 820.127 320.403" stroke="url(#paint13_linear_817_3384)" stroke-width="2" stroke-miterlimit="10"/>
<path d="M0.0488281 100.29C73.7212 171.738 185.978 340.232 219.461 389.961C237.129 416.205 194.352 409.579 196.156 402.119C185.617 400.541 236.246 368.988 257.025 336.229C288.567 286.5 299.267 193.606 373.387 213.796C475.528 241.632 472.119 397.01 573.713 433.846C656.916 464.032 755.511 395.928 821.319 338.118" stroke="url(#paint14_linear_817_3384)" stroke-width="2" stroke-miterlimit="10"/>
<path d="M0.0488281 107.452C66.2681 182.046 168.023 340.295 206.408 385.934C225.806 408.971 193.07 402.009 198.433 393.108C191.788 390.174 237.415 361.07 257.684 331.344C289.574 284.574 304.058 201.688 373.188 220.411C473.674 247.613 468.1 405.652 570.502 445.435C653.867 477.833 754.938 411.992 822.551 355.923" stroke="url(#paint15_linear_817_3384)" stroke-width="2" stroke-miterlimit="10"/>
<path d="M0.036499 114.612C58.8151 192.363 149.795 340.605 193.369 381.905C214.409 401.859 191.801 394.437 200.697 384.081C197.96 379.792 238.622 353.187 258.344 326.408C290.632 282.572 308.848 209.731 373.002 226.95C471.821 253.518 464.094 414.179 567.28 456.946C650.807 491.557 754.366 427.992 823.77 373.65" stroke="url(#paint16_linear_817_3384)" stroke-width="2" stroke-miterlimit="10"/>
<path d="M0.0239258 121.785C51.3494 202.669 131.504 341.251 180.329 377.889C202.987 394.884 190.519 386.865 202.962 375.067C204.132 369.423 239.879 345.329 258.953 321.472C291.727 280.632 313.601 217.774 372.753 233.551C469.917 259.472 460.05 422.794 564.02 468.52C647.708 505.332 753.756 444.053 824.953 391.44" stroke="url(#paint17_linear_817_3384)" stroke-width="2" stroke-miterlimit="10"/>
<path d="M0.0239258 128.948C43.8963 212.989 113.189 342.235 167.289 373.862C191.577 388.06 191.042 381.197 205.226 366.055C211.137 359.739 241.173 337.461 259.675 316.55C292.996 278.781 318.454 225.795 372.616 240.129C468.125 265.391 456.106 431.349 560.847 480.071C644.722 519.083 753.234 460.08 826.234 409.207" stroke="url(#paint18_linear_817_3384)" stroke-width="2" stroke-miterlimit="10"/>
<path d="M0.0124512 136.145C36.4442 223.332 94.974 343.589 154.3 369.87C180.317 381.408 188.841 372.767 207.567 357.065C216.961 349.183 242.567 329.801 260.398 311.65C294.378 277.076 323.307 233.862 372.48 246.729C466.347 271.308 452.187 439.939 557.7 491.644C641.762 532.845 752.724 476.154 827.516 426.997" stroke="url(#paint19_linear_817_3384)" stroke-width="2" stroke-miterlimit="10"/>
<path d="M0 143.269C28.9911 233.614 76.9323 345.118 141.198 365.805C169.032 374.769 186.999 364.562 209.769 348.015C222.809 338.529 243.861 322.081 260.995 306.69C295.734 275.473 328.073 241.769 372.219 253.232C464.493 276.977 448.23 448.268 554.415 503.119C638.726 546.396 752.09 492.104 828.686 444.688" stroke="url(#paint20_linear_817_3384)" stroke-width="2" stroke-miterlimit="10"/>
<path d="M0 150.43C21.5381 243.92 59.1145 346.859 128.158 361.778C217.334 381.11 286.092 237.903 372.032 259.833C462.639 282.97 444.199 456.971 551.205 514.694C635.652 560.271 751.53 508.18 829.918 462.479" stroke="url(#paint21_linear_817_3384)" stroke-width="2" stroke-miterlimit="10"/>
<defs>
<linearGradient id="paint0_linear_817_3384" x1="402.157" y1="0" x2="402.157" y2="531.213" gradientUnits="userSpaceOnUse">
<stop stop-color="#68DBFF"/>
<stop offset="1" stop-color="#DA1135"/>
</linearGradient>
<linearGradient id="paint1_linear_817_3384" x1="402.76" y1="7.17285" x2="402.76" y2="521.872" gradientUnits="userSpaceOnUse">
<stop stop-color="#68DBFF"/>
<stop offset="1" stop-color="#DA1135"/>
</linearGradient>
<linearGradient id="paint2_linear_817_3384" x1="403.367" y1="14.3093" x2="403.367" y2="512.493" gradientUnits="userSpaceOnUse">
<stop stop-color="#68DBFF"/>
<stop offset="1" stop-color="#DA1135"/>
</linearGradient>
<linearGradient id="paint3_linear_817_3384" x1="403.977" y1="21.4961" x2="403.977" y2="503.156" gradientUnits="userSpaceOnUse">
<stop stop-color="#68DBFF"/>
<stop offset="1" stop-color="#DA1135"/>
</linearGradient>
<linearGradient id="paint4_linear_817_3384" x1="404.588" y1="28.6562" x2="404.588" y2="493.764" gradientUnits="userSpaceOnUse">
<stop stop-color="#68DBFF"/>
<stop offset="1" stop-color="#DA1135"/>
</linearGradient>
<linearGradient id="paint5_linear_817_3384" x1="405.197" y1="35.8174" x2="405.197" y2="484.43" gradientUnits="userSpaceOnUse">
<stop stop-color="#68DBFF"/>
<stop offset="1" stop-color="#DA1135"/>
</linearGradient>
<linearGradient id="paint6_linear_817_3384" x1="405.801" y1="42.9905" x2="405.801" y2="475.101" gradientUnits="userSpaceOnUse">
<stop stop-color="#68DBFF"/>
<stop offset="1" stop-color="#DA1135"/>
</linearGradient>
<linearGradient id="paint7_linear_817_3384" x1="406.448" y1="50.1514" x2="406.448" y2="465.808" gradientUnits="userSpaceOnUse">
<stop stop-color="#68DBFF"/>
<stop offset="1" stop-color="#DA1135"/>
</linearGradient>
<linearGradient id="paint8_linear_817_3384" x1="407.027" y1="57.3127" x2="407.027" y2="456.527" gradientUnits="userSpaceOnUse">
<stop stop-color="#68DBFF"/>
<stop offset="1" stop-color="#DA1135"/>
</linearGradient>
<linearGradient id="paint9_linear_817_3384" x1="407.674" y1="64.4734" x2="407.674" y2="447.313" gradientUnits="userSpaceOnUse">
<stop stop-color="#68DBFF"/>
<stop offset="1" stop-color="#DA1135"/>
</linearGradient>
<linearGradient id="paint10_linear_817_3384" x1="408.215" y1="71.6348" x2="408.215" y2="438.719" gradientUnits="userSpaceOnUse">
<stop stop-color="#68DBFF"/>
<stop offset="1" stop-color="#DA1135"/>
</linearGradient>
<linearGradient id="paint11_linear_817_3384" x1="408.857" y1="78.8076" x2="408.857" y2="431.574" gradientUnits="userSpaceOnUse">
<stop stop-color="#68DBFF"/>
<stop offset="1" stop-color="#DA1135"/>
</linearGradient>
<linearGradient id="paint12_linear_817_3384" x1="409.472" y1="85.9688" x2="409.472" y2="423.826" gradientUnits="userSpaceOnUse">
<stop stop-color="#68DBFF"/>
<stop offset="1" stop-color="#DA1135"/>
</linearGradient>
<linearGradient id="paint13_linear_817_3384" x1="410.095" y1="93.1299" x2="410.095" y2="428.661" gradientUnits="userSpaceOnUse">
<stop stop-color="#68DBFF"/>
<stop offset="1" stop-color="#DA1135"/>
</linearGradient>
<linearGradient id="paint14_linear_817_3384" x1="410.684" y1="100.29" x2="410.684" y2="441.253" gradientUnits="userSpaceOnUse">
<stop stop-color="#68DBFF"/>
<stop offset="1" stop-color="#DA1135"/>
</linearGradient>
<linearGradient id="paint15_linear_817_3384" x1="411.3" y1="107.452" x2="411.3" y2="454.014" gradientUnits="userSpaceOnUse">
<stop stop-color="#68DBFF"/>
<stop offset="1" stop-color="#DA1135"/>
</linearGradient>
<linearGradient id="paint16_linear_817_3384" x1="411.903" y1="114.612" x2="411.903" y2="466.792" gradientUnits="userSpaceOnUse">
<stop stop-color="#68DBFF"/>
<stop offset="1" stop-color="#DA1135"/>
</linearGradient>
<linearGradient id="paint17_linear_817_3384" x1="412.488" y1="121.785" x2="412.488" y2="479.724" gradientUnits="userSpaceOnUse">
<stop stop-color="#68DBFF"/>
<stop offset="1" stop-color="#DA1135"/>
</linearGradient>
<linearGradient id="paint18_linear_817_3384" x1="413.129" y1="128.948" x2="413.129" y2="492.728" gradientUnits="userSpaceOnUse">
<stop stop-color="#68DBFF"/>
<stop offset="1" stop-color="#DA1135"/>
</linearGradient>
<linearGradient id="paint19_linear_817_3384" x1="413.764" y1="136.145" x2="413.764" y2="505.851" gradientUnits="userSpaceOnUse">
<stop stop-color="#68DBFF"/>
<stop offset="1" stop-color="#DA1135"/>
</linearGradient>
<linearGradient id="paint20_linear_817_3384" x1="414.343" y1="143.269" x2="414.343" y2="518.926" gradientUnits="userSpaceOnUse">
<stop stop-color="#68DBFF"/>
<stop offset="1" stop-color="#DA1135"/>
</linearGradient>
<linearGradient id="paint21_linear_817_3384" x1="414.959" y1="150.43" x2="414.959" y2="532.301" gradientUnits="userSpaceOnUse">
<stop stop-color="#68DBFF"/>
<stop offset="1" stop-color="#DA1135"/>
</linearGradient>
</defs>
</svg>
