<svg width="660" height="30" viewBox="0 0 660 30" fill="none" xmlns="http://www.w3.org/2000/svg">
<g clip-path="url(#clip0_167_2592)">
<line y1="-1" x2="318" y2="-1" transform="matrix(0.329454 -0.944171 0.799293 0.600942 45 165)" stroke="#68DBFF" stroke-width="2"/>
<line y1="-1" x2="318" y2="-1" transform="matrix(0.329519 -0.944149 0.799356 0.600857 55 166)" stroke="#68DBFF" stroke-width="2"/>
<line y1="-1" x2="318" y2="-1" transform="matrix(0.329519 -0.944149 0.799356 0.600857 65 166)" stroke="#68DBFF" stroke-width="2"/>
<line y1="-1" x2="318" y2="-1" transform="matrix(0.329519 -0.944149 0.799356 0.600857 75 166)" stroke="#68DBFF" stroke-width="2"/>
<line y1="-1" x2="318" y2="-1" transform="matrix(0.329519 -0.944149 0.799356 0.600857 84 166)" stroke="#68DBFF" stroke-width="2"/>
<line y1="-1" x2="318" y2="-1" transform="matrix(0.329519 -0.944149 0.799356 0.600857 94 166)" stroke="#68DBFF" stroke-width="2"/>
<line y1="-1" x2="318" y2="-1" transform="matrix(0.329519 -0.944149 0.799356 0.600857 104 166)" stroke="#68DBFF" stroke-width="2"/>
<line y1="-1" x2="318" y2="-1" transform="matrix(0.329519 -0.944149 0.799356 0.600857 114 167)" stroke="#68DBFF" stroke-width="2"/>
<line y1="-1" x2="318" y2="-1" transform="matrix(0.329519 -0.944149 0.799356 0.600857 124 167)" stroke="#68DBFF" stroke-width="2"/>
<line y1="-1" x2="318" y2="-1" transform="matrix(0.329519 -0.944149 0.799356 0.600857 134 167)" stroke="#68DBFF" stroke-width="2"/>
<line y1="-1" x2="318" y2="-1" transform="matrix(0.329519 -0.944149 0.799356 0.600857 144 167)" stroke="#68DBFF" stroke-width="2"/>
<line y1="-1" x2="318" y2="-1" transform="matrix(0.329519 -0.944149 0.799356 0.600857 153 167)" stroke="#68DBFF" stroke-width="2"/>
<line y1="-1" x2="318" y2="-1" transform="matrix(0.329519 -0.944149 0.799356 0.600857 163 166)" stroke="#68DBFF" stroke-width="2"/>
<line y1="-1" x2="318" y2="-1" transform="matrix(0.329519 -0.944149 0.799356 0.600857 173 166)" stroke="#68DBFF" stroke-width="2"/>
<line y1="-1" x2="318" y2="-1" transform="matrix(0.329519 -0.944149 0.799356 0.600857 183 166)" stroke="#68DBFF" stroke-width="2"/>
<line y1="-1" x2="318" y2="-1" transform="matrix(0.329519 -0.944149 0.799356 0.600857 -98 163)" stroke="#68DBFF" stroke-width="2"/>
<line y1="-1" x2="318" y2="-1" transform="matrix(0.329519 -0.944149 0.799356 0.600857 -88 163)" stroke="#68DBFF" stroke-width="2"/>
<line y1="-1" x2="318" y2="-1" transform="matrix(0.329519 -0.944149 0.799356 0.600857 -78 163)" stroke="#68DBFF" stroke-width="2"/>
<line y1="-1" x2="318" y2="-1" transform="matrix(0.329519 -0.944149 0.799356 0.600857 -63 163)" stroke="#68DBFF" stroke-width="2"/>
<line y1="-1" x2="318" y2="-1" transform="matrix(0.329519 -0.944149 0.799356 0.600857 -43 163)" stroke="#68DBFF" stroke-width="2"/>
<line y1="-1" x2="318" y2="-1" transform="matrix(0.329519 -0.944149 0.799356 0.600857 -33 164)" stroke="#68DBFF" stroke-width="2"/>
<line y1="-1" x2="318" y2="-1" transform="matrix(0.329519 -0.944149 0.799356 0.600857 -23 164)" stroke="#68DBFF" stroke-width="2"/>
<line y1="-1" x2="318" y2="-1" transform="matrix(0.329519 -0.944149 0.799356 0.600857 -13 164)" stroke="#68DBFF" stroke-width="2"/>
<line y1="-1" x2="318" y2="-1" transform="matrix(0.329519 -0.944149 0.799356 0.600857 -3 164)" stroke="#68DBFF" stroke-width="2"/>
<line y1="-1" x2="318" y2="-1" transform="matrix(0.329519 -0.944149 0.799356 0.600857 6 164)" stroke="#68DBFF" stroke-width="2"/>
<line y1="-1" x2="318" y2="-1" transform="matrix(0.329519 -0.944149 0.799356 0.600857 16 163)" stroke="#68DBFF" stroke-width="2"/>
<line y1="-1" x2="318" y2="-1" transform="matrix(0.329519 -0.944149 0.799356 0.600857 26 162)" stroke="#68DBFF" stroke-width="2"/>
<line y1="-1" x2="318" y2="-1" transform="matrix(0.329519 -0.944149 0.799356 0.600857 36 162)" stroke="#68DBFF" stroke-width="2"/>
<line y1="-1" x2="318" y2="-1" transform="matrix(0.329519 -0.944149 0.799356 0.600857 193 166)" stroke="#68DBFF" stroke-width="2"/>
<line y1="-1" x2="318" y2="-1" transform="matrix(0.329519 -0.944149 0.799356 0.600857 203 166)" stroke="#68DBFF" stroke-width="2"/>
<line y1="-1" x2="318" y2="-1" transform="matrix(0.329519 -0.944149 0.799356 0.600857 213 166)" stroke="#68DBFF" stroke-width="2"/>
<line y1="-1" x2="318" y2="-1" transform="matrix(0.329519 -0.944149 0.799356 0.600857 222 166)" stroke="#68DBFF" stroke-width="2"/>
<line y1="-1" x2="318" y2="-1" transform="matrix(0.329519 -0.944149 0.799356 0.600857 232 167)" stroke="#68DBFF" stroke-width="2"/>
<line y1="-1" x2="318" y2="-1" transform="matrix(0.329519 -0.944149 0.799356 0.600857 242 167)" stroke="#68DBFF" stroke-width="2"/>
<line y1="-1" x2="318" y2="-1" transform="matrix(0.329519 -0.944149 0.799356 0.600857 252 167)" stroke="#68DBFF" stroke-width="2"/>
<line y1="-1" x2="318" y2="-1" transform="matrix(0.329519 -0.944149 0.799356 0.600857 262 167)" stroke="#68DBFF" stroke-width="2"/>
<line y1="-1" x2="318" y2="-1" transform="matrix(0.329519 -0.944149 0.799356 0.600857 272 167)" stroke="#68DBFF" stroke-width="2"/>
<line y1="-1" x2="318" y2="-1" transform="matrix(0.329519 -0.944149 0.799356 0.600857 281 164)" stroke="#68DBFF" stroke-width="2"/>
<line y1="-1" x2="318" y2="-1" transform="matrix(0.329519 -0.944149 0.799356 0.600857 291 166)" stroke="#68DBFF" stroke-width="2"/>
<line y1="-1" x2="318" y2="-1" transform="matrix(0.329519 -0.944149 0.799356 0.600857 301 166)" stroke="#68DBFF" stroke-width="2"/>
<line y1="-1" x2="318" y2="-1" transform="matrix(0.329519 -0.944149 0.799356 0.600857 311 166)" stroke="#68DBFF" stroke-width="2"/>
<line y1="-1" x2="318" y2="-1" transform="matrix(0.329519 -0.944149 0.799356 0.600857 321 166)" stroke="#68DBFF" stroke-width="2"/>
<line y1="-1" x2="318" y2="-1" transform="matrix(0.329519 -0.944149 0.799356 0.600857 331 166)" stroke="#68DBFF" stroke-width="2"/>
<line y1="-1" x2="318" y2="-1" transform="matrix(0.329519 -0.944149 0.799356 0.600857 341 166)" stroke="#68DBFF" stroke-width="2"/>
<line y1="-1" x2="318" y2="-1" transform="matrix(0.329519 -0.944149 0.799356 0.600857 350 167)" stroke="#68DBFF" stroke-width="2"/>
<line y1="-1" x2="318" y2="-1" transform="matrix(0.329519 -0.944149 0.799356 0.600857 360 167)" stroke="#68DBFF" stroke-width="2"/>
<line y1="-1" x2="318" y2="-1" transform="matrix(0.329519 -0.944149 0.799356 0.600857 370 167)" stroke="#68DBFF" stroke-width="2"/>
<line y1="-1" x2="318" y2="-1" transform="matrix(0.329519 -0.944149 0.799356 0.600857 380 167)" stroke="#68DBFF" stroke-width="2"/>
<line y1="-1" x2="318" y2="-1" transform="matrix(0.329519 -0.944149 0.799356 0.600857 390 167)" stroke="#68DBFF" stroke-width="2"/>
<line y1="-1" x2="318" y2="-1" transform="matrix(0.329519 -0.944149 0.799356 0.600857 400 166)" stroke="#68DBFF" stroke-width="2"/>
<line y1="-1" x2="318" y2="-1" transform="matrix(0.329519 -0.944149 0.799356 0.600857 410 165)" stroke="#68DBFF" stroke-width="2"/>
<line y1="-1" x2="318" y2="-1" transform="matrix(0.329519 -0.944149 0.799356 0.600857 419 165)" stroke="#68DBFF" stroke-width="2"/>
<line y1="-1" x2="318" y2="-1" transform="matrix(0.329519 -0.944149 0.799356 0.600857 429 165)" stroke="#68DBFF" stroke-width="2"/>
<line y1="-1" x2="318" y2="-1" transform="matrix(0.329519 -0.944149 0.799356 0.600857 439 165)" stroke="#68DBFF" stroke-width="2"/>
<line y1="-1" x2="318" y2="-1" transform="matrix(0.329519 -0.944149 0.799356 0.600857 449 165)" stroke="#68DBFF" stroke-width="2"/>
<line y1="-1" x2="318" y2="-1" transform="matrix(0.329519 -0.944149 0.799356 0.600857 459 165)" stroke="#68DBFF" stroke-width="2"/>
<line y1="-1" x2="318" y2="-1" transform="matrix(0.329519 -0.944149 0.799356 0.600857 469 166)" stroke="#68DBFF" stroke-width="2"/>
<line y1="-1" x2="318" y2="-1" transform="matrix(0.329519 -0.944149 0.799356 0.600857 479 166)" stroke="#68DBFF" stroke-width="2"/>
<line y1="-1" x2="318" y2="-1" transform="matrix(0.329519 -0.944149 0.799356 0.600857 488 166)" stroke="#68DBFF" stroke-width="2"/>
<line y1="-1" x2="318" y2="-1" transform="matrix(0.329519 -0.944149 0.799356 0.600857 498 166)" stroke="#68DBFF" stroke-width="2"/>
<line y1="-1" x2="318" y2="-1" transform="matrix(0.329519 -0.944149 0.799356 0.600857 508 166)" stroke="#68DBFF" stroke-width="2"/>
</g>
<defs>
<clipPath id="clip0_167_2592">
<rect width="660" height="30" fill="white"/>
</clipPath>
</defs>
</svg>
