<?xml version="1.0" encoding="utf-8"?><svg viewBox="0 0 887 726" xmlns="http://www.w3.org/2000/svg" xmlns:xlink="http://www.w3.org/1999/xlink"><style>:root>svg{display:none}:root>svg:target{display:block}</style><svg fill="none" viewBox="0 0 446 296" id="about-wave" xmlns="http://www.w3.org/2000/svg"><path d="M193.909 103.508c-1.768-16.014-.178-29.532 4.732-40.199a39.805 39.805 0 0 1 22.614-21.371c10.287-3.899 22.688-4.3 36.904-1.197 14.72 3.263 30.731 10.078 47.593 20.371a286.063 286.063 0 0 1 49.698 38.984 354.786 354.786 0 0 1 42.506 49.651 306.756 306.756 0 0 1 30.928 54.045c8.127 18.604 13.093 36.151 14.908 52.166 1.814 16.014.168 29.532-4.733 40.199-4.741 10.283-12.345 17.482-22.623 21.371-10.278 3.889-22.688 4.3-36.904 1.197-14.711-3.207-30.731-10.06-47.593-20.343a286.873 286.873 0 0 1-49.652-38.993 354.92 354.92 0 0 1-42.506-49.651 306.496 306.496 0 0 1-30.928-54.045c-8.117-18.595-13.093-36.152-14.898-52.166l-.046-.019Zm-.552-.336c7.257 65.824 69.328 153.477 138.647 195.771 69.319 42.293 119.587 23.203 112.293-42.621-7.295-65.824-69.282-153.477-138.601-195.78S186.062 37.32 193.31 103.153l.047.019Z" stroke="currentColor" stroke-width="2"/><path d="M191.103 99.05c-.683-16.099 1.983-29.477 7.912-39.751a41.478 41.478 0 0 1 25.317-19.745c11.073-3.169 24.147-2.701 38.849 1.384 15.216 4.226 31.526 12.153 48.482 23.615a296.563 296.563 0 0 1 49.268 42.359 356.4 356.4 0 0 1 40.991 52.493 300.51 300.51 0 0 1 28.505 56.092c7.164 19.118 11.139 36.983 11.812 53.082.674 16.098-1.982 29.467-7.912 39.75a41.498 41.498 0 0 1-25.326 19.745c-11.063 3.169-24.138 2.701-38.84-1.384-15.216-4.226-31.526-12.153-48.482-23.615a296.558 296.558 0 0 1-49.268-42.359 356.326 356.326 0 0 1-40.99-52.493 300.514 300.514 0 0 1-28.506-56.092c-7.164-19.118-11.139-36.983-11.812-53.082Zm-.599-.403c2.806 66.17 61.52 157.937 131.203 204.971 69.684 47.033 123.918 31.505 121.131-34.665-2.787-66.17-61.519-157.947-131.203-204.97-69.684-47.024-123.918-31.506-121.131 34.664Z" stroke="currentColor" stroke-width="2"/><path d="M188.475 94.403c.477-16.098 4.255-29.261 11.222-39.105 6.743-9.508 16.17-15.538 28.057-17.931 11.887-2.393 25.551-1.01 40.692 4.095 15.665 5.272 32.209 14.34 49.174 26.933a304.815 304.815 0 0 1 48.632 45.697 355.513 355.513 0 0 1 39.167 55.185 291.819 291.819 0 0 1 25.784 57.962c6.126 19.576 8.988 37.666 8.511 53.773-.477 16.108-4.246 29.262-11.223 39.106-6.743 9.508-16.179 15.538-28.057 17.931-11.877 2.393-25.55 1.009-40.682-4.086-15.674-5.282-32.219-14.35-49.174-26.943a305.614 305.614 0 0 1-48.632-45.687 356.557 356.557 0 0 1-39.186-55.232 292.413 292.413 0 0 1-25.812-57.915c-6.117-19.576-8.978-37.666-8.511-53.774l.038-.009Zm-.636-.43c-1.936 66.208 52.999 161.845 122.72 213.618 69.721 51.773 127.845 40.059 129.781-26.13 1.936-66.189-52.999-161.863-122.711-213.636C247.918 16.052 189.821 27.756 187.876 94l-.037-.028Z" stroke="currentColor" stroke-width="2"/><path d="M186.062 89.588c1.683-16.033 6.621-28.897 14.674-38.227 7.781-9.012 18.124-14.378 30.759-15.893 12.635-1.514 26.897.767 42.422 6.918 16.067 6.357 32.733 16.557 49.661 30.3a312.54 312.54 0 0 1 47.696 48.968 353.552 353.552 0 0 1 37.091 57.821c10.353 20.222 18.041 40.284 22.838 59.542 4.985 19.95 6.669 38.199 4.985 54.223-1.683 16.023-6.612 28.896-14.674 38.226-7.771 9.022-18.124 14.379-30.75 15.893-12.625 1.515-26.906-.766-42.422-6.908-16.067-6.367-32.779-16.557-49.66-30.309a311.692 311.692 0 0 1-47.697-48.968 353.059 353.059 0 0 1-37.091-57.822c-10.343-20.259-18.031-40.302-22.847-59.579-4.994-19.95-6.668-38.199-4.994-54.223l.009.038Zm-.599-.524c-6.902 65.908 43.76 165.145 113.163 221.658 69.403 56.513 131.277 48.921 138.189-16.987 6.911-65.908-43.778-165.145-113.163-221.685-69.384-56.541-131.277-48.857-138.179 17.052l-.01-.038Z" stroke="currentColor" stroke-width="2"/><path d="M183.883 84.615c2.946-15.893 9.072-28.364 18.218-37.114 8.829-8.414 20.089-13.088 33.462-13.743 13.374-.654 28.235 2.646 44.04 9.854 16.404 7.478 33.201 18.8 49.923 33.655a316.959 316.959 0 0 1 46.499 52.212 348.575 348.575 0 0 1 34.697 60.271c9.352 20.932 15.974 41.462 19.64 61.029 3.741 20.249 4.189 38.563 1.253 54.446-2.937 15.884-9.072 28.364-18.218 37.115-8.829 8.414-20.089 13.088-33.463 13.742-13.373.655-28.225-2.636-44.058-9.853-16.404-7.479-33.201-18.8-49.923-33.656a317.44 317.44 0 0 1-46.471-52.212 348.514 348.514 0 0 1-34.725-60.234c-9.352-20.931-15.974-41.461-19.64-61.019-3.741-20.258-4.189-38.572-1.253-54.456l.019-.037Zm-.608-.486c-12.083 65.263 33.827 167.8 102.557 229.043 68.73 61.243 134.242 57.962 146.335-7.348 12.092-65.31-33.809-167.865-102.539-229.1-68.729-61.233-134.242-57.896-146.334 7.367l-.019.038Z" stroke="currentColor" stroke-width="2"/><path d="M181.966 79.53c4.256-15.632 11.606-27.663 21.847-35.75 9.895-7.816 22.062-11.64 36.156-11.377 14.094.261 29.413 4.6 45.517 12.9 16.657 8.564 33.491 21.045 49.951 37.03a319.353 319.353 0 0 1 44.984 55.298 340.262 340.262 0 0 1 32.013 62.543c8.305 21.502 13.729 42.471 16.123 62.244 2.469 20.464 1.562 38.769-2.684 54.4s-11.615 27.663-21.856 35.749c-9.895 7.816-22.062 11.649-36.156 11.387-14.094-.262-29.403-4.609-45.517-12.901-16.675-8.592-33.481-21.072-49.941-37.096a319.664 319.664 0 0 1-44.994-55.288 341.358 341.358 0 0 1-32.013-62.543c-8.305-21.502-13.729-42.48-16.114-62.243-2.459-20.437-1.524-38.741 2.684-54.354Zm-.58-.562c-17.488 64.263 23.194 169.745 90.867 235.587 67.673 65.843 136.711 67.143 154.2 2.87 17.489-64.272-23.193-169.744-90.866-235.587-67.673-65.842-136.712-67.16-154.201-2.898v.028Z" stroke="currentColor" stroke-width="2"/><path d="M180.319 74.275c5.612-15.304 14.225-26.793 25.569-34.15 10.971-7.096 24.026-10.07 38.803-8.826 14.776 1.243 30.544 6.638 46.855 16.042 16.881 9.732 33.602 23.372 49.716 40.48a320.548 320.548 0 0 1 43.18 58.299 332.22 332.22 0 0 1 28.992 64.618c7.145 22.063 11.297 43.331 12.354 63.216 1.094 20.567-1.197 38.787-6.818 54.091-5.62 15.304-14.215 26.784-25.569 34.142-10.961 7.105-24.016 10.068-38.793 8.825-14.777-1.244-30.545-6.638-46.855-16.043-16.834-9.732-33.612-23.371-49.716-40.479a320.131 320.131 0 0 1-43.161-58.271 332.805 332.805 0 0 1-28.992-64.618c-7.136-22.063-11.288-43.331-12.345-63.216-1.094-20.567 1.197-38.788 6.808-54.082l-.028-.028Zm-.533-.58c-23.119 62.861 11.849 170.922 78.073 241.327 66.223 70.405 138.628 76.51 161.71 13.621 23.081-62.888-11.887-170.95-78.148-241.355-66.26-70.405-138.582-76.51-161.663-13.62l.028.027Z" stroke="currentColor" stroke-width="2"/><path d="M178.984 68.937c7.024-14.874 16.9-25.728 29.357-32.281 12.037-6.32 25.962-8.414 41.393-6.105 15.432 2.31 31.583 8.778 48.015 19.277 17.012 10.882 33.574 25.644 49.286 43.855a318.57 318.57 0 0 1 41.066 61.159 322.122 322.122 0 0 1 25.719 66.488c5.882 22.502 8.679 44.013 8.333 63.926-.365 20.614-4.115 38.601-11.13 53.475-7.014 14.873-16.946 25.727-29.384 32.271-12.027 6.329-25.962 8.414-41.384 6.105-15.422-2.309-31.62-8.704-48.052-19.268-17.012-10.891-33.575-25.643-49.23-43.854a318.105 318.105 0 0 1-41.066-61.16 322.108 322.108 0 0 1-25.728-66.487c-5.873-22.512-8.679-44.014-8.324-63.927.365-20.614 4.106-38.61 11.129-53.474Zm-.551-.645c-28.861 61.121-.075 171.361 64.287 246.216 64.362 74.855 139.947 85.989 168.846 24.914 28.898-61.075.075-171.361-64.297-246.225C282.897 18.332 207.294 7.17 178.433 68.31v-.018Z" stroke="currentColor" stroke-width="2"/><path d="M177.963 63.515c8.463-14.34 19.639-24.484 33.2-30.15 13.093-5.468 27.879-6.544 43.956-3.197 16.076 3.347 32.518 10.938 48.996 22.568 17.068 12.05 33.379 27.925 48.482 47.183a314.18 314.18 0 0 1 38.625 63.879 309.471 309.471 0 0 1 22.1 68.115c4.517 22.858 5.873 44.509 4.049 64.347-1.87 20.567-7.154 38.227-15.618 52.577-8.464 14.35-19.64 24.484-33.201 30.15-13.093 5.459-27.879 6.544-43.908 3.197-16.03-3.347-32.528-10.938-49.006-22.568-17.068-12.05-33.379-27.924-48.482-47.183a314.647 314.647 0 0 1-38.625-63.879 309.915 309.915 0 0 1-22.128-68.115c-4.517-22.857-5.882-44.509-4.049-64.347 1.87-20.567 7.145-38.227 15.609-52.577Zm-.533-.673c-34.791 58.962-12.663 170.941 49.426 250.096 62.09 79.156 140.63 95.534 175.43 36.572 34.8-58.962 12.663-170.884-49.427-250.096C290.77 20.203 212.229 3.88 177.43 62.842Z" stroke="currentColor" stroke-width="2"/><path d="M177.3 58.027c9.942-13.724 22.446-23.063 37.072-27.766 14.16-4.534 29.759-4.58 46.35-.13s33.341 13.2 49.838 25.951c17.031 13.21 32.995 30.178 47.445 50.483a309.645 309.645 0 0 1 35.865 66.376 297.107 297.107 0 0 1 18.228 69.498c3.068 23.119 2.909 44.808-.468 64.506-3.507 20.352-10.287 37.629-20.257 51.352-9.969 13.724-22.445 23.064-37.081 27.757-14.16 4.543-29.75 4.59-46.341.14s-33.35-13.182-49.801-25.943c-17.077-13.228-33.041-30.177-47.481-50.464a309.548 309.548 0 0 1-35.875-66.422 297.405 297.405 0 0 1-18.228-69.489c-3.067-23.12-2.908-44.818.477-64.506 3.498-20.352 10.288-37.638 20.257-51.353v.01Zm-.514-.73c-40.87 56.401-25.859 169.642 33.528 252.939 59.386 83.297 140.658 105.117 181.527 48.716S417.7 189.32 358.313 106.014C298.926 22.708 217.655.934 176.823 57.326l-.037-.028Z" stroke="currentColor" stroke-width="2"/><path d="M177.002 52.54c11.447-12.995 25.251-21.446 40.972-25.111 15.197-3.543 31.573-2.496 48.632 3.094 17.058 5.59 34.089 15.473 50.427 29.374 16.909 14.34 32.434 32.384 46.116 53.605a302.399 302.399 0 0 1 32.789 68.751 284.757 284.757 0 0 1 14.029 70.601c1.515 23.278-.244 44.874-5.238 64.282-5.171 20.062-13.598 36.824-25.045 49.819-11.447 12.994-25.251 21.436-40.972 25.11-15.198 3.544-31.574 2.496-48.632-3.103-17.059-5.6-34.052-15.472-50.39-29.346-16.918-14.36-32.434-32.403-46.116-53.624a302.275 302.275 0 0 1-32.789-68.76 284.64 284.64 0 0 1-14.028-70.592c-1.516-23.278.243-44.873 5.237-64.291 5.134-20.015 13.607-36.843 25.008-49.81Zm-.487-.748c-47.06 53.399-39.616 167.416 16.629 254.658 56.244 87.242 139.975 114.662 187.045 61.253 47.07-53.409 39.616-167.426-16.628-254.659C307.316 25.812 223.585-1.617 176.515 51.792Z" stroke="currentColor" stroke-width="2"/><path d="M177.083 47.023c12.981-12.153 28.056-19.632 44.891-22.194 16.226-2.468 33.34-.29 50.885 6.488 17.545 6.778 34.604 17.763 50.755 32.786 16.703 15.51 31.676 34.59 44.479 56.719a292.56 292.56 0 0 1 29.357 70.891 270.188 270.188 0 0 1 9.558 71.405c-.112 23.325-3.554 44.771-10.213 63.758-6.902 19.632-16.983 35.787-29.927 47.95-12.943 12.162-28.057 19.632-44.891 22.193-16.226 2.468-33.35.29-50.885-6.488-17.536-6.777-34.604-17.762-50.755-32.785-16.713-15.51-31.676-34.591-44.489-56.719a293.473 293.473 0 0 1-29.375-70.872 270.993 270.993 0 0 1-9.558-71.406c.121-23.325 3.554-44.78 10.222-63.758 6.902-19.632 16.983-35.786 29.927-47.95l.019-.018Zm-.468-.767c-53.308 49.997-53.897 164.257-1.253 255.22S313.934 425.617 367.27 375.62c53.336-49.997 53.916-164.275 1.272-255.228C315.898 29.438 229.97-3.758 176.634 46.238l-.019.019Z" stroke="currentColor" stroke-width="2"/><path d="M177.589 41.527a89.888 89.888 0 0 1 48.744-19.025c17.218-1.337 35.034 2.029 52.953 10.012 17.919 7.984 35.015 20.203 50.913 36.273 16.414 16.632 30.723 36.713 42.544 59.673a283.069 283.069 0 0 1 25.644 72.752 257.512 257.512 0 0 1 4.788 71.891c-1.87 23.269-7.014 44.425-15.412 62.898-8.689 19.127-20.463 34.515-34.978 45.743a89.885 89.885 0 0 1-48.772 19.006c-17.217 1.337-35.034-2.029-52.952-10.012-17.919-7.984-35.043-20.184-50.858-36.255-16.404-16.631-30.713-36.712-42.544-59.672a283.095 283.095 0 0 1-25.634-72.752 257.48 257.48 0 0 1-4.798-71.891c1.871-23.269 7.024-44.425 15.413-62.898 8.697-19.128 20.463-34.516 34.987-45.743h-.038Zm-.383-.814c-59.714 46.155-68.655 160.097-20.098 254.49 48.557 94.394 136.384 133.509 196.07 87.355 59.686-46.155 68.674-160.097 20.042-254.491C324.588 33.674 236.845-5.441 177.168 40.713h.038Z" stroke="currentColor" stroke-width="2"/><path d="M178.516 36.076a98.073 98.073 0 0 1 52.55-15.556c18.181-.14 36.642 4.469 54.87 13.686 18.227 9.218 35.342 22.568 50.811 39.714 16.011 17.762 29.562 38.769 40.289 62.496a272.047 272.047 0 0 1 21.585 74.359 244.608 244.608 0 0 1-.252 72.06c-3.629 23.072-10.634 43.827-20.8 61.701-10.54 18.473-24.026 33.001-40.093 43.191a98.225 98.225 0 0 1-52.588 15.566c-18.171.131-36.632-4.469-54.869-13.687-18.237-9.218-35.314-22.577-50.774-39.704-16.001-17.762-29.562-38.769-40.289-62.505a272.155 272.155 0 0 1-21.576-74.359 244.887 244.887 0 0 1 .243-72.051c3.638-23.082 10.634-43.826 20.809-61.701 10.531-18.464 24.017-33.001 40.093-43.191l-.009-.019Zm-.374-.813c-66.055 41.882-83.853 154.917-39.747 252.471 44.105 97.553 133.391 142.67 199.446 100.788 66.055-41.882 83.862-154.917 39.756-252.471C333.492 38.498 244.159-6.638 178.132 35.244l.01.019Z" stroke="currentColor" stroke-width="2"/><path d="M179.891 30.71a107.831 107.831 0 0 1 56.357-11.854c19.097 1.131 38.148 7.011 56.609 17.472 18.462 10.462 35.474 24.98 50.437 43.2a237.855 237.855 0 0 1 37.718 65.152 260.76 260.76 0 0 1 17.199 75.724 232.977 232.977 0 0 1-5.556 71.864c-5.508 22.764-14.383 43.004-26.373 60.065-12.42 17.697-27.655 31.253-45.274 40.293a107.835 107.835 0 0 1-56.357 11.854c-19.097-1.131-38.148-7.012-56.609-17.473-18.462-10.461-35.427-24.979-50.4-43.153a237.751 237.751 0 0 1-37.755-65.198 260.323 260.323 0 0 1-17.198-75.724 232.698 232.698 0 0 1 5.555-71.864c5.508-22.773 14.384-43.004 26.373-60.065 12.42-17.697 27.645-31.253 45.274-40.293Zm-.336-.86c-72.443 37.17-99.434 148.691-60.294 249.086C158.4 379.332 248.836 430.572 321.307 393.402c72.471-37.171 99.433-148.691 60.331-249.087C342.537 43.92 251.997-7.321 179.555 29.85Z" stroke="currentColor" stroke-width="2"/><path d="M181.723 25.447c19-7.769 39.687-10.49 60.051-7.9 19.976 2.468 39.541 9.666 58.162 21.39 18.62 11.723 35.37 27.392 49.754 46.556a233.19 233.19 0 0 1 34.818 67.629 248.573 248.573 0 0 1 12.504 76.659 222.304 222.304 0 0 1-11.11 71.312c-7.482 22.324-18.265 41.873-32.116 58.083-14.337 16.781-31.321 29.243-50.502 37.03a118.894 118.894 0 0 1-60.06 7.928c-19.968-2.459-39.542-9.657-58.162-21.38-18.621-11.724-35.37-27.392-49.754-46.557a233.192 233.192 0 0 1-34.819-67.628 248.703 248.703 0 0 1-12.504-76.66 222.302 222.302 0 0 1 11.11-71.293c7.483-22.334 18.266-41.873 32.117-58.083 14.337-16.781 31.32-29.243 50.502-37.04l.009-.046Zm-.299-.832C102.64 56.597 66.101 165.967 99.825 268.84c33.725 102.873 124.956 160.33 203.758 128.283 78.802-32.048 115.332-141.399 81.608-244.272C351.467 49.978 260.235-7.414 181.433 24.568l-.009.047Z" stroke="currentColor" stroke-width="2"/><path d="M184.041 20.333a131.39 131.39 0 0 1 63.595-3.693c20.837 3.851 40.851 12.405 59.546 25.382a191.45 191.45 0 0 1 48.819 49.922 227.266 227.266 0 0 1 31.601 69.853 236.841 236.841 0 0 1 7.482 77.379 212.874 212.874 0 0 1-16.909 70.349c-9.474 21.754-22.249 40.499-37.979 55.7a139.367 139.367 0 0 1-55.749 33.43 131.623 131.623 0 0 1-63.596 3.74c-20.79-3.852-40.813-12.396-59.508-25.391a191.443 191.443 0 0 1-48.828-49.913 227.336 227.336 0 0 1-31.62-69.937 236.69 236.69 0 0 1-7.482-77.389 212.984 212.984 0 0 1 16.9-70.321c9.464-21.754 22.249-40.489 37.979-55.7a139.22 139.22 0 0 1 55.749-33.42v.009Zm-.243-.945C98.701 45.873 52.305 152.448 80.165 257.415 108.026 362.383 199.594 426.047 284.7 399.59c85.106-26.456 131.54-133.004 103.633-237.989C360.424 56.615 268.894-7.031 183.798 19.426v-.038Z" stroke="currentColor" stroke-width="2"/><path d="M186.849 15.388a145.434 145.434 0 0 1 67.093.748 164.12 164.12 0 0 1 60.622 29.476 194.538 194.538 0 0 1 47.603 53.203 220.182 220.182 0 0 1 28.056 71.92 225.029 225.029 0 0 1 2.189 77.716 205.496 205.496 0 0 1-22.932 69.002 174.283 174.283 0 0 1-43.956 52.914 149.527 149.527 0 0 1-60.995 29.458 145.583 145.583 0 0 1-67.093-.748 164.111 164.111 0 0 1-60.621-29.477 194.523 194.523 0 0 1-47.603-53.203 220.188 220.188 0 0 1-28.057-71.919 225.035 225.035 0 0 1-2.17-77.716 205.493 205.493 0 0 1 22.894-69.003 174.297 174.297 0 0 1 43.956-52.913 149.53 149.53 0 0 1 60.995-29.458h.019Zm-.206-.935C95.365 34.927 38.813 137.987 60.36 244.655c21.547 106.669 113.022 176.55 204.375 156.086S412.5 277.226 390.99 170.557C369.48 63.889 277.968-5.993 186.662 14.472l-.019-.02Z" stroke="currentColor" stroke-width="2"/><path d="M190.159 10.648a160.816 160.816 0 0 1 70.404 5.431 175.085 175.085 0 0 1 61.482 33.656 196.08 196.08 0 0 1 46.078 56.391 216.441 216.441 0 0 1 20.753 151.384 199.828 199.828 0 0 1-29.142 67.235 178.544 178.544 0 0 1-50.062 49.717 162.157 162.157 0 0 1-136.59 19.679 175.206 175.206 0 0 1-61.491-33.656 196.192 196.192 0 0 1-46.06-56.363 216.528 216.528 0 0 1-20.78-151.393 199.956 199.956 0 0 1 29.132-67.226 178.727 178.727 0 0 1 50.072-49.726 162.242 162.242 0 0 1 66.204-25.13Zm-.121-.935C92.653 23.764 25.709 122.627 40.495 230.54c14.786 107.911 105.681 184 203.094 169.949 97.413-14.051 164.328-112.904 149.533-220.806C378.327 71.779 287.413-4.319 190.038 9.722v-.009Z" stroke="currentColor" stroke-width="2"/><path d="M193.982 6.15a177.468 177.468 0 0 1 73.528 10.284 185.833 185.833 0 0 1 62.099 37.853 196.478 196.478 0 0 1 44.236 59.458 206.535 206.535 0 0 1 10.671 152.468 196.428 196.428 0 0 1-35.539 65.039 185.689 185.689 0 0 1-56.188 46.135 178.594 178.594 0 0 1-71.403 20.47 178.6 178.6 0 0 1-73.557-10.345 185.84 185.84 0 0 1-62.071-37.806 196.549 196.549 0 0 1-44.236-59.467A206.535 206.535 0 0 1 30.85 137.752a196.586 196.586 0 0 1 35.538-65.039 185.705 185.705 0 0 1 56.189-46.107A177.46 177.46 0 0 1 193.982 6.15Zm-.065-.934C90.64 12.443 13.072 106.388 20.638 215.085c7.566 108.697 97.525 190.909 200.812 183.692 103.286-7.217 180.844-101.171 173.279-209.869C387.163 80.211 297.203-2.002 193.917 5.216Z" stroke="currentColor" stroke-width="2"/><path d="M198.333 1.935a196.385 196.385 0 0 1 109.166 33.033 196.274 196.274 0 0 1 72.375 88.12 196.193 196.193 0 0 1 11.157 113.468 196.235 196.235 0 0 1-53.827 100.52 196.409 196.409 0 0 1-72.549 45.898 196.476 196.476 0 0 1-166.78-16.196A196.37 196.37 0 0 1 35.52 307.78a196.251 196.251 0 0 1-25.335-165.575 196.3 196.3 0 0 1 41.862-74.933 196.398 196.398 0 0 1 69.84-49.921 195.23 195.23 0 0 1 76.446-15.416Zm0-.935C89.351 1 1 89.317 1 198.257c0 108.941 88.35 197.258 197.333 197.258 108.982 0 197.332-88.317 197.332-197.258C395.665 89.317 307.315 1 198.333 1Z" stroke="currentColor" stroke-width="2"/></svg><svg fill="none" viewBox="0 0 22 23" id="arrow-down" xmlns="http://www.w3.org/2000/svg"><path fill-rule="evenodd" clip-rule="evenodd" d="M5.753 9.541a.894.894 0 0 1 1.222 0l4.575 4.367 4.575-4.367a.894.894 0 0 1 1.222 0 .799.799 0 0 1 0 1.167l-5.186 4.95a.894.894 0 0 1-1.222 0l-5.186-4.95a.799.799 0 0 1 0-1.167Z" fill="currentColor"/></svg><svg fill="none" viewBox="0 0 31 8" id="arrow-right" xmlns="http://www.w3.org/2000/svg"><path d="M30.354 4.354a.5.5 0 0 0 0-.708L27.172.464a.5.5 0 1 0-.707.708L29.293 4l-2.828 2.828a.5.5 0 1 0 .707.708l3.182-3.182ZM0 4.5h30v-1H0v1Z" fill="currentColor"/></svg><svg fill="none" viewBox="0 0 24 24" id="attachment" xmlns="http://www.w3.org/2000/svg"><path d="M13 9V3.5L18.5 9M6 2c-1.11 0-2 .89-2 2v16a2 2 0 0 0 2 2h12a2 2 0 0 0 2-2V8l-6-6H6Z" fill="currentColor"/></svg><svg fill="none" viewBox="0 0 60 60" id="award" xmlns="http://www.w3.org/2000/svg"><path d="M45.88 11.563c.033-1.564-.026-2.551-.026-2.551L30.578 9h-.156l-15.277.012s-.058.987-.025 2.55H5v1.67c0 .38.064 9.366 5.61 14.288 2.313 2.053 5.2 3.085 8.601 3.087.515 0 1.044-.035 1.58-.081 1.932 2.647 4.165 4.5 6.677 5.424v7.33h-7.373v4.59h-2.436v2.574h25.682v-2.572h-2.438V43.28h-7.372v-7.33c2.51-.923 4.744-2.777 6.677-5.423.539.046 1.068.079 1.583.079 3.4-.004 6.286-1.034 8.6-3.089C55.935 22.596 56 13.611 56 13.23v-1.668H45.88ZM12.836 25.032C9.668 22.228 8.732 17.43 8.455 14.9h6.856c.29 3.151.973 7.078 2.548 10.529.288.633.592 1.233.902 1.82-2.363-.09-4.352-.827-5.925-2.217Zm35.328 0c-1.572 1.391-3.562 2.127-5.923 2.217.31-.585.613-1.187.902-1.82 1.575-3.451 2.257-7.378 2.546-10.529h6.856c-.277 2.528-1.212 7.327-4.381 10.132Z" fill="#F90"/></svg><svg fill="none" viewBox="0 0 291 196" id="career-form-wave" xmlns="http://www.w3.org/2000/svg"><g clip-path="url(#afa)" stroke="#861429" stroke-miterlimit="10"><path d="M412.547 124.309c-72.397-8.853-116.93-34.18-144.861-57.178-23.285-19.174-25.583-28.953-48.302-41.826C170.084-2.627 88.253-9.07 60.87 33.622c-13.49 21.03-1.371 39.855.54 81.125 1.718 37.126-5.21 90.676-46.588 157.944"/><path d="M410.138 115.829c-69.618-5.626-113.247-28.989-140.679-50.165-23.083-17.824-26.872-26.41-50.627-38.679C168.999 1.248 92.007-5.337 63.982 35.162c-14.437 20.86-4.764 39.96-4.349 81.509.365 36.579-7.19 89.414-47.738 155.956"/><path d="M407.731 107.379c-66.839-2.4-109.592-23.798-136.501-43.151-22.923-16.487-28.128-23.878-52.953-35.533C167.989 5.086 95.635-1.602 67.088 36.732c-15.42 20.71-8.127 40.039-9.235 81.893-.955 36.015-9.17 88.148-48.893 153.963"/><path d="M405.319 98.91c-64.059.825-105.974-18.607-132.324-36.145-22.79-15.16-29.35-21.356-55.282-32.377-50.674-21.55-118.58-28.312-147.525 7.896-16.447 20.57-11.464 40.09-14.123 82.278-2.232 35.43-11.15 86.882-50.04 151.97"/><path d="M402.908 90.432c-61.284 4.054-102.396-13.406-128.144-29.126-22.695-13.855-30.558-18.863-57.602-29.239-51-19.559-114.631-26.37-143.862 7.757-17.512 20.446-14.769 40.124-19.01 82.662-3.474 34.833-13.132 85.617-51.191 149.972"/><path d="M400.503 81.973c-58.501 7.279-98.862-8.194-123.966-22.113-22.642-12.554-31.727-16.391-59.928-26.091C165.333 16.13 105.82 9.289 76.411 41.384c-18.62 20.322-18.031 40.14-23.898 83.047-4.676 34.227-15.113 84.35-52.34 147.987"/><path d="M398.091 73.506c-55.719 10.51-95.377-2.957-119.788-15.1-22.633-11.26-32.88-13.945-62.253-22.945-51.512-15.784-107.044-22.642-136.534 7.475-19.77 20.19-21.269 40.147-28.787 83.43-5.838 33.617-17.097 83.087-53.49 145.996"/><path d="M395.679 65.036c-52.941 13.732-91.944 2.31-115.609-8.086-22.675-9.962-34.022-11.526-64.578-19.799-51.715-13.994-103.392-20.859-132.87 7.336C61.66 64.534 58.16 84.632 48.945 128.301c-6.959 33-19.07 81.815-54.636 144.004"/><path d="M393.271 56.552C343.11 73.51 304.705 64.17 281.84 55.477c-22.772-8.652-35.142-9.147-66.903-16.65-51.897-12.267-99.821-19.135-129.208 7.195-22.196 19.883-27.608 40.144-38.562 84.199-8.053 32.388-21.054 80.554-55.798 142.015"/><path d="M390.867 48.1c-47.383 20.182-85.241 12.977-107.253 5.938-22.913-7.327-36.252-6.79-69.228-13.505-52.053-10.599-96.314-17.471-125.544 7.055-23.466 19.69-30.717 40.148-43.45 84.584-9.108 31.779-23.036 79.288-56.942 140.022"/><path d="M388.455 39.624c-44.609 23.412-81.967 18.401-103.075 12.953-23.111-5.966-37.357-4.47-71.553-10.357-52.201-8.986-92.871-15.868-121.88 6.913-24.78 19.461-33.78 40.162-48.338 84.969-10.13 31.176-25.016 78.022-58.093 138.029"/><path d="M386.043 31.147c-41.823 26.636-78.739 23.895-98.897 19.965-23.356-4.554-38.464-2.188-73.878-7.21-52.345-7.422-89.48-14.323-118.216 6.773C68.917 69.86 58.25 90.863 41.825 136.027c-11.122 30.585-26.996 76.758-59.243 136.039"/><path d="M383.635 22.685c-39.043 29.863-75.545 29.47-94.719 26.979-23.641-3.073-39.559.059-76.203-4.064-52.488-5.904-86.131-12.835-114.554 6.634-27.522 18.854-39.78 40.233-58.113 85.736-12.089 30.004-28.977 75.492-60.394 134.048"/><path d="M381.228 14.212c-36.265 33.089-72.375 35.13-90.541 33.992-23.953-1.501-40.66 2.27-78.525-.917-52.635-4.43-82.813-11.401-110.891 6.492C72.314 72.241 58.552 94.082 38.27 139.9c-13.034 29.439-30.96 74.23-61.547 132.054"/><path d="M378.818 5.752c-33.485 36.316-69.211 40.875-86.358 41.003-24.273.183-41.766 4.447-80.854 2.23-52.788-2.992-79.519-10.033-107.226 6.353-30.423 17.993-45.62 40.399-67.888 86.509-13.953 28.888-32.94 72.961-62.694 130.066"/><path d="M376.407-2.713c-30.711 39.544-66.038 46.705-82.184 48.019-24.577 1.998-42.878 6.588-83.178 5.377-52.951-1.597-76.242-8.715-103.564 6.211-31.922 17.443-48.483 40.52-72.777 86.889-14.858 28.358-34.92 71.696-63.844 128.075"/><path d="M373.992-11.192c-27.925 42.768-64.139 48.392-78.006 55.03-22.681 10.858-43.998 8.697-85.504 8.525-53.125-.223-72.962-7.453-99.893 6.07-33.452 16.793-51.312 40.684-77.665 87.273-15.747 27.841-36.9 70.43-64.996 126.079"/><path d="M371.59-19.652c-25.147 45.993-60.863 55.15-73.828 62.043-22.723 12.08-45.128 10.772-87.828 11.67-53.328 1.119-69.689-6.241-96.236 5.933-35.005 16.045-54.111 40.877-82.553 87.66C14.52 175-7.735 216.819-34.999 271.746"/><path d="M369.18-28.13c-22.366 49.222-57.383 62.002-69.649 69.058-22.898 13.17-46.269 12.816-90.156 14.813-53.537 2.441-66.395-5.074-92.572 5.79-36.578 15.182-56.882 41.109-87.441 88.042-17.495 26.869-40.862 67.902-67.296 122.101"/><path d="M366.77-36.588c-19.586 52.447-52.804 70.596-65.472 76.07-24.954 10.775-47.422 14.831-92.48 17.961-53.768 3.74-63.08-3.955-88.908 5.652-38.161 14.198-59.626 41.384-92.33 88.43-18.358 26.412-42.843 66.633-68.444 120.109"/><path d="M364.36-45.068c-16.808 55.672-49.29 76.623-61.293 83.081-24.68 13.277-48.59 16.819-94.805 21.11-54.017 5.019-59.734-2.884-85.245 5.51-39.753 13.08-62.354 41.686-97.218 88.811-19.217 25.977-44.823 65.367-69.596 118.118"/><path d="M361.951-53.525c-14.029 58.9-45.663 82.62-57.115 90.096-24.231 15.822-49.772 18.778-97.129 24.258-54.288 6.283-56.35-1.85-81.583 5.37-41.335 11.834-65.059 42.033-102.105 89.195-20.075 25.554-46.803 64.103-70.746 116.128"/></g><defs><clipPath id="afa"><path fill="#fff" transform="matrix(1 0 0 -1 0 196)" d="M0 0h291v196H0z"/></clipPath></defs></svg><svg fill="none" viewBox="0 0 50 50" id="false" xmlns="http://www.w3.org/2000/svg"><path fill-rule="evenodd" clip-rule="evenodd" d="M41.289 8.711a2.429 2.429 0 0 1 0 3.435L12.146 41.289a2.429 2.429 0 0 1-3.435-3.435L37.854 8.711a2.429 2.429 0 0 1 3.435 0Z" fill="currentColor"/><path fill-rule="evenodd" clip-rule="evenodd" d="M8.711 8.711a2.429 2.429 0 0 1 3.435 0l29.143 29.143a2.429 2.429 0 0 1-3.435 3.435L8.711 12.146a2.429 2.429 0 0 1 0-3.435Z" fill="currentColor"/></svg><svg fill="none" viewBox="0 0 887 678" id="footer-wave" xmlns="http://www.w3.org/2000/svg"><path d="M174.878 676.532c113.263-168.451 117.937-284.793 100.137-360.726-19.867-84.744-76.632-157.126-55.938-175.606 13.249-11.834 48.782 6.916 120.599 51.525 217.781 135.27 250.164 185.889 302.592 173.606 73.451-17.193 60.63-128.443 157.857-182.029 71.412-39.354 157.141-22.794 221.065-.984M166.603 670.952C276.38 506.732 285.525 390.987 271.618 318.22c-15.544-81.319-69.841-149.693-48.607-166.671 13.65-10.917 48.543 7.53 117.907 50.606C551.7 333.034 585.231 383.853 636.93 371.103c73.261-18.361 55.043-135.078 151.432-192.47a180.432 180.432 0 0 1 6.307-3.604c70.028-37.88 156.585-21.766 221.181-.703M158.339 665.365c106.285-159.976 119.938-274.956 109.893-344.732-11.197-77.775-63.039-142.26-41.275-157.737 14.057-10.001 48.315 8.145 115.214 49.691 203.756 126.491 238.514 177.692 289.438 164.278 73.146-19.267 49.449-141.77 145.006-202.912 2.096-1.342 4.185-2.681 6.338-3.908 70.283-40.07 160.443-24.672 227.567-3.72M150.066 659.783c102.802-155.765 120.98-269.733 114.775-336.734-6.863-74.086-56.226-134.825-33.945-148.799 14.475-9.08 48.07 8.764 112.521 48.771 196.754 122.118 232.69 173.576 282.865 159.609 72.988-20.318 43.842-148.508 138.58-213.354 2.102-1.44 4.206-2.872 6.356-4.207 69.883-43.385 164.301-27.577 233.942-6.739M141.795 654.2c99.321-151.527 122.02-264.268 119.653-328.734-2.577-70.234-49.394-127.388-26.609-139.864 14.897-8.159 47.833 9.381 109.829 47.853 189.743 117.734 226.861 169.451 276.287 154.937 72.844-21.389 38.224-155.29 132.15-223.803 2.111-1.533 4.225-3.068 6.397-4.517 69.822-46.098 168.155-30.477 240.333-9.747M133.524 648.617c95.842-147.292 123.036-258.528 124.54-320.735 1.598-66.197-42.566-119.942-19.279-130.933 15.329-7.232 47.594 10 107.136 46.938C528.658 357.235 566.954 409.2 615.634 394.154c72.687-22.469 32.584-162.114 125.727-234.238 2.116-1.64 4.23-3.284 6.428-4.823 69.77-48.793 172.02-33.387 246.716-12.762M125.256 643.032C217.609 499.97 249.239 390.542 254.67 330.3c5.586-61.978-35.708-112.495-11.946-121.996 15.766-6.305 47.36 10.624 104.44 46.019C522.892 363.285 562.371 415.49 610.303 399.919c72.541-23.565 26.929-168.969 119.302-244.678 2.13-1.745 4.241-3.491 6.455-5.124 69.721-51.47 175.88-36.288 253.097-15.779M116.985 637.449C205.853 498.618 230.84 388.434 251.28 332.716c-1.794-58.298-28.85-105.033-4.615-113.062 16.21-5.368 47.12 11.234 101.757 45.115C517.139 369.347 557.794 421.78 604.984 405.696c72.384-24.673 21.252-175.859 112.873-255.12 2.131-1.842 4.257-3.697 6.49-5.432 69.689-54.129 179.747-39.205 259.486-18.796M108.714 631.866C194.1 497.265 221.987 387.957 247.889 335.132c.79-54.52-21.984-97.559 2.719-104.125 16.658-4.429 46.876 11.844 99.055 44.185 161.697 100.2 203.541 152.844 249.991 136.256 72.223-25.795 15.552-182.776 106.444-265.561 2.135-1.945 4.267-3.904 6.521-5.739 69.667-56.77 183.596-42.102 265.869-21.81M100.443 626.283c81.901-130.37 112.691-238.796 144.054-288.734 3.37-50.745-15.111-90.076 10.052-95.192 17.109-3.481 46.641 12.463 96.361 43.268 154.705 95.818 197.706 148.666 243.415 131.583 72.064-26.93 9.834-189.714 100.018-276.003 2.14-2.045 4.281-4.107 6.553-6.043 69.651-59.4 187.453-45.008 272.252-24.825M92.173 620.699c78.419-126.141 112.108-233.686 148.934-280.731 5.952-46.967-8.236-82.58 17.381-86.257 17.564-2.523 46.408 13.082 93.668 42.342 147.69 91.427 191.867 144.481 236.84 126.915 71.895-28.081 4.094-196.677 93.592-286.445 2.143-2.151 4.295-4.31 6.58-6.348 69.651-62.02 191.315-47.912 278.637-27.84M83.901 615.114c74.932-121.903 111.533-228.578 153.823-272.722 8.536-43.189-1.36-75.073 24.71-77.318 18.019-1.555 46.17 13.696 90.978 41.432 140.681 87.042 186.023 140.283 230.269 122.24 71.725-29.245-1.662-203.649 87.164-296.884 2.15-2.255 4.3-4.51 6.616-6.644 69.656-64.632 195.171-50.82 285.02-30.858M75.629 609.531C147.08 491.858 186.572 386.067 234.326 344.8c11.118-39.412 5.514-67.551 32.047-68.387 18.472-.58 45.932 14.317 88.284 40.517 133.682 82.652 180.178 136.077 223.69 117.572 71.545-30.427-7.447-210.648 80.741-307.327 2.149-2.358 4.321-4.717 6.649-6.962 69.678-67.224 199.025-53.732 291.404-33.87M67.366 603.945C135.324 490.506 177.72 385.596 230.939 347.22c13.698-35.632 12.381-60.025 39.377-59.455 18.925.401 45.694 14.932 85.591 39.596 126.665 78.275 174.331 131.872 217.115 112.906 71.362-31.624-13.255-217.667 74.312-317.768 2.154-2.465 4.336-4.924 6.675-7.266 69.7-69.822 202.888-56.628 297.801-36.892M59.09 598.364c64.478-109.21 109.778-213.242 168.458-248.73 16.279-31.855 19.249-52.486 46.713-50.511 19.373 1.387 45.456 15.546 82.887 38.684 119.657 73.889 168.473 127.641 210.54 108.233 71.169-32.834-19.066-224.667 67.886-328.211 2.157-2.567 4.352-5.124 6.704-7.568 69.739-72.412 206.749-59.533 304.175-39.9M50.819 592.78c60.993-104.979 109.194-208.132 173.336-240.73 18.864-28.078 26.111-44.941 54.045-41.583 19.818 2.382 45.217 16.167 80.206 37.763 112.644 69.503 162.61 123.41 203.965 103.562 70.966-34.06-24.91-231.699 61.464-338.64 2.16-2.672 4.367-5.327 6.747-7.878 69.765-75 210.587-62.446 310.533-42.933M42.548 587.198c57.512-100.747 108.616-203.013 178.217-232.732 21.429-24.299 32.967-37.385 61.378-32.646 20.257 3.382 44.979 16.781 77.506 36.837 105.635 65.118 156.746 119.17 197.39 98.889 70.754-35.303-30.767-238.729 55.032-349.091 2.161-2.78 4.382-5.531 6.766-8.179 69.842-77.561 214.477-65.338 316.946-45.922M34.271 581.605c54.028-96.516 108.03-197.909 183.097-224.728 24.026-20.524 39.816-29.833 68.706-23.714 20.69 4.371 44.745 17.397 74.82 35.928 98.625 60.73 150.877 114.924 190.817 94.221 70.54-36.553-36.633-245.761 48.616-359.521 2.159-2.885 4.396-5.733 6.794-8.483 69.902-80.147 218.324-68.25 323.33-48.94M26.003 576.023c50.55-92.268 123.615-162.724 187.982-216.723 24.086-20.207 46.659-22.27 76.039-14.777 21.123 5.377 44.507 18.014 72.127 35.009 91.617 56.352 144.999 110.671 184.24 89.552 70.3-37.835-42.53-252.814 42.179-369.978 2.16-2.986 4.417-5.937 6.825-8.787 69.973-82.717 222.177-71.15 329.712-51.964M17.733 570.443c47.063-88.057 109.069-180.123 192.859-208.731 30.227-10.318 53.494-14.706 83.372-5.84 21.551 6.384 44.267 18.63 69.433 34.092 84.611 51.965 139.115 106.408 177.665 84.879 70.052-39.121-48.435-259.858 35.75-380.417a150.463 150.463 0 0 1 6.86-9.092C653.891.19 809.715 11.278 919.776 30.354M9.463 564.863c43.574-83.824 107.142-178.684 197.74-200.733 32.137-7.818 60.325-7.14 90.703 3.094 21.975 7.395 44.032 19.249 66.739 33.175 77.603 47.583 133.324 102.306 171.092 80.211 69.618-40.728-54.533-267.025 29.325-390.859a146.406 146.406 0 0 1 6.887-9.397C642.175-7.43 801.851 3.388 914.429 22.358M1.193 559.282c40.09-79.59 105.701-177.463 202.62-192.73 146.111-23.007 264.037 157.393 326.601 119.822 71.32-42.829-67.167-286.138 29.815-411.001 70.229-90.42 233.768-79.877 348.864-61.009" stroke="#861429" stroke-width="2" stroke-miterlimit="10"/></svg><svg fill="none" viewBox="0 0 297 382" id="home-pluses-bg" xmlns="http://www.w3.org/2000/svg"><path d="M305.974 25.996c-36.09-30.13-100.729-3.056-133.791 34.446-38.097 43.221-25.051 89.854-62.789 113.061-34.43 21.189-62.9-6.841-86.83 10.267-21.989 15.724-34.363 65.431-1.067 206.792m5.816 1.458c-32.706-139.438-20.943-189.859.582-206.665 15.972-12.436 34.273-3.78 55.123-4.261 10.566-.063 20.952-3.031 30.226-8.636 30.394-18.341 29.085-50.781 47.61-85.83 4.702-8.955 10.339-17.267 16.795-24.764 32.691-38.216 94.157-67.702 129.782-39.61M33.124 393.46c-32.11-137.51-20.97-188.619.057-206.46 15.46-13.112 33.449-5.491 53.802-6.571 10.504-.413 20.784-3.476 30.056-8.956 30.17-17.839 30.374-48.592 49.293-83.4 4.794-8.86 10.404-17.147 16.74-24.727 32.429-38.82 90.607-70.835 125.768-44.78M38.918 394.893c-31.51-135.55-20.97-187.362-.434-206.278 14.967-13.79 32.613-7.191 52.49-8.881 10.429-.754 20.6-3.905 29.866-9.253 29.968-17.362 31.63-46.379 50.975-80.968a170.092 170.092 0 0 1 16.686-24.728c32.1-39.486 87.051-73.961 121.747-49.945M44.74 396.358c-30.93-133.639-21.003-186.116-.942-206.127 14.465-14.443 31.793-8.896 51.174-11.209 10.358-1.096 20.436-4.344 29.707-9.574 29.766-16.883 32.908-44.177 52.684-78.567a199.939 199.939 0 0 1 16.61-24.655c31.778-40.157 83.506-77.088 117.744-55.116M50.529 397.834C20.204 266.1 29.012 212.347 49.106 191.84c14.328-14.655 30.941-10.638 49.858-13.513 10.277-1.444 20.262-4.788 29.538-9.894 29.564-16.406 34.175-41.964 54.35-76.106a238.274 238.274 0 0 1 16.538-24.625c31.434-40.852 79.957-80.22 113.735-60.28M56.367 399.256C26.61 269.48 35.353 215.704 54.382 193.425c13.509-15.659 30.165-12.331 48.585-15.793 10.188-1.787 20.082-5.226 29.363-10.208 29.362-15.929 35.453-39.775 56.032-73.675a298.405 298.405 0 0 1 16.478-24.583c31.113-41.523 76.39-83.371 109.721-65.45M62.178 400.708C32.995 272.874 41.126 218.407 59.723 195.07c12.973-16.323 29.286-14.15 47.236-18.145 10.089-2.129 19.894-5.668 29.177-10.534 29.16-15.439 36.743-37.562 57.714-71.245 4.887-7.83 10.222-16.058 16.413-24.546C241.042 28.38 283.131-15.874 315.986-.003M67.988 402.16c-28.576-125.918-21.03-180.982-2.973-205.487 12.493-16.94 28.466-15.928 45.941-20.473a135.68 135.68 0 0 0 29.013-10.849c28.958-14.961 38.005-35.367 59.403-68.807 4.979-7.787 10.308-15.986 16.353-24.516 30.402-42.854 69.3-89.576 101.686-75.75M73.799 403.6c-27.986-123.983-21.019-179.664-3.46-205.299 12.013-17.546 27.653-17.749 44.604-22.777a169.805 169.805 0 0 0 28.838-11.152c28.762-14.489 39.288-33.172 61.068-66.406 5.045-7.715 10.38-15.92 16.282-24.487 30.08-43.609 65.756-92.738 97.683-80.943M79.61 405.052c-27.402-122.054-20.997-178.346-3.978-205.124 11.536-18.144 26.811-19.551 43.303-25.087a228.663 228.663 0 0 0 28.658-11.472c28.554-14.006 40.555-30.971 62.778-63.945 5.148-7.66 10.461-15.853 16.221-24.444 29.72-44.323 62.201-95.865 93.674-86.12M85.42 406.504c-26.806-120.125-20.964-177.04-4.47-204.979 11.073-18.743 25.976-21.371 41.987-27.391 9.202-3.463 18.578-7.059 28.489-11.792 28.347-13.534 41.834-28.77 64.46-61.515 5.237-7.6 10.533-15.786 16.168-24.42 29.358-45.036 58.65-98.997 89.659-91.277M91.231 407.956c-26.194-118.178-20.958-175.68-4.972-204.81 10.603-19.347 25.14-23.227 40.676-29.713 9.169-3.826 18.474-7.537 28.314-12.107 28.161-13.038 43.101-26.568 66.142-59.083 5.329-7.533 10.615-15.72 16.091-24.372 28.982-45.756 55.101-102.13 85.65-96.442M97.031 409.42c-25.615-116.279-20.877-174.392-5.464-204.652 10.15-19.934 24.299-25.09 39.371-32.029 9.13-4.207 18.364-8.021 28.117-12.398 27.948-12.585 44.373-24.361 67.852-56.67 5.417-7.485 10.68-15.66 16.025-24.335 28.6-46.494 51.54-105.275 81.631-101.619m-221.71 433.131c-25.036-114.332-20.844-173.013-5.977-204.471 9.696-20.533 23.446-26.965 38.048-34.339 9.087-4.594 18.272-8.511 27.97-12.742 27.735-12.096 45.646-22.167 69.513-54.216a294.569 294.569 0 0 0 15.948-24.323c28.234-47.19 48.034-108.383 77.633-106.759M108.663 412.3c-24.44-112.403-20.772-171.725-6.501-204.29 9.249-21.125 22.595-28.851 36.765-36.679 9.037-4.987 18.162-8.995 27.79-13.051 27.538-11.623 46.924-19.965 71.184-51.772A233.939 233.939 0 0 0 253.8 82.239c27.813-47.981 44.462-111.528 73.602-111.983M114.474 413.752c-23.856-110.474-20.663-170.395-6.987-204.151 8.801-21.694 21.726-30.744 35.426-38.971 8.983-5.386 18.064-9.466 27.621-13.359 27.331-11.14 48.197-17.77 72.882-49.359a194.13 194.13 0 0 0 15.834-24.233c27.42-48.683 40.906-114.642 69.604-117.111M120.29 415.198c-23.244-108.515-20.619-169.029-7.495-203.976 8.37-22.304 20.847-32.66 34.111-41.287 8.939-5.821 17.96-9.956 27.451-13.679 27.118-10.674 49.469-15.563 74.57-46.923a167.002 167.002 0 0 0 15.768-24.196c27.01-49.426 37.351-117.781 65.589-122.282M126.101 416.65c-22.703-106.586-20.526-167.692-7.976-203.794 7.938-22.892 19.956-34.566 32.811-43.585 8.873-6.197 17.867-10.446 27.276-13.994 26.927-10.185 50.748-13.362 76.241-44.504 5.966-7.438 11.228-15.534 15.704-24.16 26.594-50.176 33.844-120.926 61.579-127.446M131.912 418.102c-22.086-104.681-20.428-166.362-8.5-203.649 7.511-23.496 19.055-36.495 31.488-45.919 8.775-6.644 17.758-10.918 27.113-14.297 26.719-9.7 52.015-11.16 77.934-42.06 6.034-7.348 11.281-15.443 15.638-24.124 26.158-50.938 30.245-124.052 57.56-132.622M137.722 419.542c-21.496-102.747-20.301-164.99-9.024-203.456 7.091-24.083 18.143-38.411 30.172-48.223 8.683-7.085 17.655-11.407 26.922-14.629 26.528-9.223 53.304-8.959 79.628-39.63 6.097-7.264 11.332-15.36 15.577-24.093 25.65-51.718 26.706-127.161 53.562-137.787M143.527 421c-33.937-163.619-10.976-227.285 19.362-253.862 33.118-29.012 71.97-11.061 108.063-52.136C313.285 66.812 305.141-37.208 336-52" stroke="#861429" stroke-width="2" stroke-miterlimit="10"/></svg><svg fill="none" viewBox="0 0 160 20" id="logo" xmlns="http://www.w3.org/2000/svg"><path d="m50.337 15.566-3.528-5.125-3.418 5.125h-3.474l5.017-7.28-4.769-7.088h3.639l3.17 5.071 3.088-5.07h3.584L48.849 8.34l5.1 7.225h-3.611ZM22.84 9.431c.038.527.148 1.018.332 1.473.183.454.432.854.744 1.2.313.326.698.59 1.158.79.478.2 1.03.3 1.654.3.662 0 1.268-.119 1.82-.355.57-.236.983-.645 1.24-1.227h3.225c-.183.727-.487 1.354-.91 1.881a5.263 5.263 0 0 1-1.46 1.31 6.635 6.635 0 0 1-1.848.735 9.876 9.876 0 0 1-2.122.218c-1.158 0-2.178-.172-3.06-.518a5.748 5.748 0 0 1-2.178-1.5 6.44 6.44 0 0 1-1.323-2.316c-.276-.91-.414-1.927-.414-3.054 0-1.09.157-2.081.469-2.972.312-.909.763-1.69 1.35-2.345a6.353 6.353 0 0 1 2.178-1.526c.846-.382 1.81-.573 2.895-.573 1.14 0 2.123.191 2.95.573a5.755 5.755 0 0 1 2.067 1.5c.57.635.993 1.38 1.269 2.235.275.854.413 1.781.413 2.78 0 .473-.028.937-.083 1.391H22.841Zm7.389-2.344c-.055-1.127-.413-1.982-1.075-2.563-.643-.582-1.489-.873-2.536-.873-.588 0-1.103.091-1.544.273a3.462 3.462 0 0 0-1.13.736 3.762 3.762 0 0 0-.717 1.09 4.632 4.632 0 0 0-.358 1.337h7.36ZM12.93 1.198v2.7H8.021v11.668H4.907V3.897H0V1.198h12.93ZM148.14 8.723a61.9 61.9 0 0 0 .165-3.68c.037-1.237.074-2.518.111-3.845h10.861v14.368h-3.17V3.897h-4.769l-.111 2.672a61.887 61.887 0 0 1-.11 2.618 18.4 18.4 0 0 1-.11 1.172c-.037.436-.092.881-.166 1.336a6.95 6.95 0 0 1-.33 1.254 5.286 5.286 0 0 1-.552 1.063 3.36 3.36 0 0 1-1.543 1.2c-.625.236-1.351.354-2.178.354h-.772v-2.672c.551 0 .992-.127 1.323-.381.349-.273.607-.61.772-1.009.184-.418.312-.863.386-1.336.092-.49.156-.972.193-1.445ZM128.118 9.431c.037.527.147 1.018.331 1.473.184.454.432.854.744 1.2.313.326.699.59 1.158.79.478.2 1.029.3 1.654.3.662 0 1.268-.119 1.82-.355a2.268 2.268 0 0 0 1.24-1.227h3.226c-.184.727-.487 1.354-.91 1.881a5.255 5.255 0 0 1-1.461 1.31 6.632 6.632 0 0 1-1.847.735 9.878 9.878 0 0 1-2.123.218c-1.158 0-2.178-.172-3.06-.518a5.746 5.746 0 0 1-2.178-1.5 6.44 6.44 0 0 1-1.323-2.316c-.276-.91-.413-1.927-.413-3.054 0-1.09.156-2.081.468-2.972.313-.909.763-1.69 1.351-2.345a6.353 6.353 0 0 1 2.178-1.526c.845-.382 1.81-.573 2.894-.573 1.14 0 2.123.191 2.95.573a5.761 5.761 0 0 1 2.068 1.5 6.142 6.142 0 0 1 1.268 2.235c.276.854.413 1.781.413 2.78 0 .473-.027.937-.082 1.391h-10.366Zm7.388-2.344c-.055-1.127-.413-1.982-1.075-2.563-.643-.582-1.488-.873-2.536-.873-.588 0-1.103.091-1.544.273a3.456 3.456 0 0 0-1.13.736 3.767 3.767 0 0 0-.717 1.09 4.622 4.622 0 0 0-.358 1.337h7.36ZM104.597 6.324c.055-.873.092-1.718.11-2.536.019-.836.028-1.7.028-2.59h11.192v11.724h1.902v6.843h-3.06v-4.199h-9.924v4.199h-3.06v-6.843c.533 0 .974-.164 1.323-.491.368-.345.616-.727.745-1.145.128-.29.239-.682.331-1.172.091-.51.165-1.01.22-1.5.055-.49.101-.945.138-1.363.037-.418.055-.727.055-.927Zm8.188-2.427h-5.183a67.792 67.792 0 0 0-.083 2.127c-.018.763-.046 1.5-.083 2.208-.036.346-.073.718-.11 1.118-.018.4-.064.809-.138 1.227-.073.4-.174.8-.303 1.2-.129.4-.303.781-.524 1.145h6.424V3.897ZM96.244 1.198v2.7h-4.907v11.668h-3.115V3.897h-4.907V1.198h12.929Z" fill="currentColor"/><path fill-rule="evenodd" clip-rule="evenodd" d="m63.64 8.295 2.584 4.425h5.169l2.584-4.425-2.584-4.425h-5.169L63.64 8.295Zm-2.91-.711c-.256.44-.256.982 0 1.423l3.416 5.847c.257.44.733.711 1.247.711h6.83c.515 0 .99-.27 1.247-.711l3.416-5.847c.257-.44.257-.983 0-1.423L73.47 1.736a1.443 1.443 0 0 0-1.246-.711h-6.831c-.514 0-.99.27-1.247.711l-3.415 5.848Z" fill="#DA1135"/></svg><svg fill="none" viewBox="0 0 834 726" id="order-wave" xmlns="http://www.w3.org/2000/svg"><path d="M.25 330.48c160.784 19.666 259.682 75.948 321.712 127.052 51.71 42.607 56.814 64.34 107.267 92.944 109.488 62.068 291.223 76.382 352.042-18.498 29.96-46.738 3.049-88.57-1.191-180.285-3.813-82.504 11.579-201.51 103.482-351.005M5.601 349.301c154.612 12.495 251.503 64.41 312.424 111.467 51.263 39.609 59.678 58.689 112.433 85.951 110.67 57.192 281.659 71.817 343.904-18.186 32.064-46.357 10.582-88.806 9.664-181.14-.806-81.289 15.976-198.704 106.037-346.585M10.95 368.12c148.44 5.328 243.388 52.878 303.146 95.883 50.908 36.637 62.467 53.061 117.599 78.959 111.68 52.461 272.37 67.317 335.772-17.875 34.249-46.025 18.052-88.979 20.517-181.993C790.11 263.058 808.358 147.2 896.586.937M16.3 386.94c142.267-1.841 235.353 41.34 293.871 80.311 50.611 33.686 65.18 47.456 122.771 71.946 112.538 47.886 263.346 62.906 327.634-17.562 36.528-45.716 25.463-89.095 31.373-182.847 4.96-78.736 24.772-193.079 111.147-337.729M21.651 405.759c136.106-9.017 227.407 29.781 284.588 64.714 50.402 30.787 67.864 41.915 127.925 64.97 113.263 43.461 254.578 58.593 319.498-17.252 38.896-45.439 32.805-89.169 42.229-183.7 7.719-77.411 29.173-190.269 113.704-333.29M27 424.576c129.923-16.181 219.559 18.2 275.31 49.13 50.284 27.897 70.459 36.423 133.09 57.976 113.876 39.193 246.045 54.39 311.361-16.936 41.356-45.165 40.05-89.204 53.084-184.558 10.387-76.063 33.572-187.455 116.256-328.879M32.35 443.396c123.746-23.362 211.819 6.561 266.031 33.545 50.265 25.02 73.021 30.985 138.253 50.984 114.402 35.071 237.731 50.306 303.226-16.626 43.907-44.872 47.24-89.221 63.94-185.409 12.971-74.708 37.98-184.647 118.81-324.453M37.71 462.214c117.576-30.522 204.196-5.142 256.752 17.959 50.356 22.136 75.556 25.61 143.417 43.992 114.851 31.094 229.618 46.344 295.09-16.316 46.553-44.552 54.327-89.216 74.796-186.263 15.457-73.338 42.359-181.82 121.355-320.026M43.05 481.035c111.402-37.689 196.694-16.938 247.473 2.377 50.573 19.227 78.044 20.324 148.582 36.995 115.253 27.256 221.686 42.516 286.953-16.001 49.297-44.19 61.32-89.216 85.651-187.119C829.597 245.31 858.475 138.268 935.643 1.68M48.396 499.846c105.233-44.858 189.311-28.849 238.196-13.207 50.886 16.28 80.51 15.082 153.745 30.003 115.601 23.549 213.899 38.817 278.817-15.691 52.118-43.759 68.222-89.224 96.507-187.974 20.23-70.624 51.167-176.205 126.475-311.178M53.75 518.675c99.072-52.032 182.041-40.9 228.918-28.795 51.325 13.255 82.964 9.931 158.908 23.009 115.931 19.963 206.253 35.255 270.68-15.375 55.036-43.251 75.025-89.255 107.362-188.831 22.499-69.284 55.566-173.392 129.032-306.748M59.1 537.493c92.885-59.198 174.871-53.11 219.639-44.379 51.87 10.118 85.422 4.858 164.071 16.017 116.251 16.488 198.724 31.819 262.545-15.065 58.044-42.637 81.736-89.314 118.218-189.682 24.704-67.97 59.963-170.583 131.584-302.327M64.449 556.315c86.713-66.37 167.778-65.501 210.362-59.965 52.502 6.825 87.853-.135 169.236 9.023 116.569 13.116 191.283 28.516 254.409-14.755 61.126-41.901 88.352-89.413 129.072-190.536 26.849-66.679 64.361-167.769 134.139-297.902M69.799 575.133c80.542-73.537 160.737-78.076 201.082-75.548 53.197 3.333 90.302-5.049 174.395 2.029 116.893 9.839 183.915 25.328 246.274-14.44 64.312-41.029 94.877-89.569 139.927-191.392 28.949-65.424 68.763-164.965 136.7-293.47M75.148 593.95c74.369-80.707 153.713-90.843 191.794-91.129 53.908-.408 92.758-9.886 179.565-4.965 117.236 6.646 176.602 22.289 238.137-14.129 67.568-39.989 101.32-89.781 150.78-192.254 30.99-64.201 73.161-162.145 139.248-289.052M80.498 612.772c68.209-87.881 146.666-103.799 182.525-106.719 54.582-4.445 95.227-14.645 184.728-11.959 117.597 3.544 169.322 19.361 230.002-13.814 70.897-38.765 107.68-90.053 161.638-193.1 33-63.022 77.559-159.334 141.802-284.627M85.861 631.587c62.023-95.045 142.449-107.548 173.247-122.301 50.374-24.133 97.716-19.331 189.894-18.953 117.985.49 162.039 16.554 221.85-13.5 74.295-37.322 113.962-90.416 172.494-193.955 34.975-61.874 81.957-156.52 144.36-280.191M91.198 650.409c55.852-102.214 135.175-122.567 163.968-137.885 50.467-26.847 100.225-23.944 195.057-25.945 118.436-2.491 154.769 13.864 213.728-13.194 77.743-35.659 120.179-90.845 183.348-194.814 36.928-60.772 86.356-153.709 146.911-275.776M96.548 669.231c49.678-109.387 127.446-137.791 154.689-153.473 50.855-29.271 102.758-28.485 200.226-32.927 118.898-5.432 147.454 11.269 205.591-12.878 81.237-33.742 126.333-91.362 194.205-195.665 38.857-59.713 90.755-150.901 149.471-271.351M101.898 688.049c43.505-116.555 117.278-156.891 145.412-169.058 55.421-23.946 105.322-32.963 205.389-39.923 119.412-8.318 140.092 8.784 197.455-12.568 84.752-31.556 132.424-91.974 205.061-196.528C895.99 211.274 950.37 121.89 1007.23 3.047M107.247 706.868C144.58 583.145 216.72 536.582 243.379 522.229c54.813-29.508 107.914-37.38 210.55-46.921 119.967-11.16 132.663 6.401 189.321-12.255 88.287-29.069 138.484-92.645 215.916-197.374 42.682-57.73 99.553-145.271 154.574-262.5M112.597 725.688c31.162-130.893 101.419-183.611 126.853-200.225 53.817-35.165 110.539-41.735 215.715-53.918 120.567-13.968 125.145 4.106 181.185-11.943 91.801-26.302 144.491-93.417 226.772-198.228 44.586-56.79 103.947-142.461 157.128-258.078" stroke="currentColor" stroke-width="2" stroke-miterlimit="10"/></svg><svg fill="none" viewBox="0 0 755 274" id="price-block-wave" xmlns="http://www.w3.org/2000/svg"><path d="M99.95 481.72c198.483-97.122 266.214-204.23 290.761-285.484C418.104 105.552 403.977 6.439 433.547.284c18.935-3.942 42.233 33.068 85.669 114.198C650.937 360.498 653.92 425.831 710.039 442.788c78.616 23.771 127.08-88.06 247.922-85.65 88.759 1.775 160.579 64.041 208.979 119.388" stroke="currentColor" stroke-width="2" stroke-miterlimit="10"/><path d="M95.184 471.956C288.078 376.925 359.7 272.814 386.193 196.661c29.606-85.102 15.624-179.095 44.887-183.54 18.813-2.86 41.673 33.516 83.63 111.866 127.512 238.069 131.467 304.216 187.155 320.335 79.071 22.568 125.422-97.353 247.546-98.986a196.35 196.35 0 0 1 7.908.036c86.651 2.41 159.491 64.706 208.931 119.713" stroke="currentColor" stroke-width="2" stroke-miterlimit="10"/><path d="M90.433 462.193c187.291-92.931 262.747-193.869 291.255-265.099 31.774-79.397 17.991-168.389 46.937-171.13 18.697-1.775 41.123 33.972 81.589 109.538 123.275 230.11 128.18 297.283 183.498 312.355 79.456 21.651 123.789-106.705 247.17-112.325 2.707-.124 5.405-.248 8.104-.233 88.084.485 164.714 64.067 216.594 120.343" stroke="currentColor" stroke-width="2" stroke-miterlimit="10"/><path d="M85.671 452.43c181.714-90.858 260.887-188.38 291.504-254.905 33.854-73.561 20.369-157.672 48.984-158.716 18.591-.68 40.555 34.421 79.551 107.205 119.053 222.177 124.928 290.234 179.841 304.378 79.879 20.574 122.171-116.108 246.795-125.664 2.766-.213 5.529-.417 8.283-.506 89.511-2.857 169.931 63.428 224.251 120.97" stroke="currentColor" stroke-width="2" stroke-miterlimit="10"/><path d="M80.912 442.667c176.125-88.758 258.892-182.663 291.749-244.709 35.797-67.599 22.762-146.946 51.037-146.304 18.487.417 39.996 34.875 77.512 104.875 114.828 214.23 121.677 283.174 176.182 296.395 80.326 19.486 120.564-125.558 246.419-139.012 2.825-.296 5.653-.592 8.491-.775 90.928-5.448 175.138 62.792 231.918 121.612" stroke="currentColor" stroke-width="2" stroke-miterlimit="10"/><path d="M76.151 432.903c170.54-86.661 256.727-176.7 292.004-234.511 37.537-61.521 25.147-136.212 53.087-133.896 18.39 1.526 39.434 35.327 75.471 102.547 110.61 206.283 118.435 276.102 172.525 288.415C750.005 473.84 788.199 320.4 915.281 303.115c2.888-.393 5.776-.792 8.687-1.047 92.342-8.015 180.372 62.154 239.572 122.246" stroke="currentColor" stroke-width="2" stroke-miterlimit="10"/><path d="M71.395 423.139c164.948-84.573 254.333-170.494 292.243-224.316 39.002-55.374 27.561-125.46 55.137-121.482 18.299 2.638 38.875 35.788 73.43 100.213C598.593 375.89 607.403 446.579 661.073 457.99c81.226 17.27 117.361-144.597 245.668-165.679 2.958-.486 5.899-.982 8.875-1.317 93.754-10.565 185.594 61.521 247.234 122.876" stroke="currentColor" stroke-width="2" stroke-miterlimit="10"/><path d="M66.635 413.377c159.359-82.482 242.892-172.731 292.491-214.121 30.041-55.921 29.967-114.694 57.188-109.072 18.206 3.763 38.315 36.233 71.391 97.901 102.163 190.388 111.959 261.932 165.209 272.456 81.681 16.14 115.757-154.18 245.289-179.019 3.011-.577 6.026-1.168 9.076-1.588 95.171-13.088 190.821 60.875 254.901 123.508" stroke="currentColor" stroke-width="2" stroke-miterlimit="10"/><path d="M61.874 403.613c153.774-80.391 239.565-168.235 292.741-203.926 30.419-50.955 32.371-103.913 59.238-96.658 18.117 4.892 37.753 36.676 69.35 95.555C581.129 381.025 591.93 453.415 644.757 463.06c82.14 14.996 114.148-163.801 244.91-192.358 3.071-.671 6.148-1.357 9.272-1.86 96.589-15.59 196.031 60.239 262.561 124.141" stroke="currentColor" stroke-width="2" stroke-miterlimit="10"/><path d="M57.114 393.85C205.3 315.55 293.347 230.116 350.1 200.119c30.798-45.992 34.78-93.12 61.291-84.247 18.026 6.031 37.194 37.131 67.309 93.224 93.719 174.505 105.5 247.717 157.898 256.493 82.607 13.839 112.532-173.452 244.534-205.697 3.13-.763 6.272-1.541 9.468-2.13 98.006-18.077 201.25 59.601 270.22 124.774" stroke="currentColor" stroke-width="2" stroke-miterlimit="10"/><path d="M52.356 384.086c142.599-76.208 232.902-159.234 293.231-183.532 31.177-41.026 37.183-82.313 63.339-71.837 17.934 7.181 36.638 37.587 65.273 90.885 89.494 166.548 102.272 240.595 154.238 248.516 83.075 12.662 110.911-183.139 244.159-219.037 3.192-.861 6.396-1.724 9.659-2.401 99.432-20.548 206.475 58.965 277.885 125.407" stroke="currentColor" stroke-width="2" stroke-miterlimit="10"/><path d="M47.596 374.32C184.6 300.209 277.175 219.587 341.079 200.998c31.555-36.06 39.578-71.497 65.382-59.423 17.837 8.34 36.079 38.036 63.232 88.562 85.273 158.602 99.048 233.459 150.588 240.534 83.548 11.472 109.278-192.843 243.78-232.373 3.254-.956 6.509-1.911 9.855-2.662 100.858-23.005 211.684 58.323 285.544 126.037" stroke="currentColor" stroke-width="2" stroke-miterlimit="10"/><path d="M42.836 364.556c131.419-72.021 226.239-150.234 293.728-163.139 31.934-31.094 41.966-60.666 67.439-47.013 17.733 9.506 35.517 38.492 61.191 86.235 81.062 150.654 95.825 226.313 146.924 232.553 84.022 10.261 107.633-202.588 243.408-245.712 3.31-1.052 6.642-2.094 10.059-2.942 102.29-25.437 216.905 57.675 293.205 126.672" stroke="currentColor" stroke-width="2" stroke-miterlimit="10"/><path d="M38.085 354.794c125.822-69.93 222.899-145.733 293.968-152.938 32.31-26.128 44.345-49.834 69.489-34.605 17.627 10.677 34.958 38.941 59.152 83.901 76.83 142.71 92.601 219.167 143.266 224.577 84.5 9.032 105.976-212.364 243.028-259.052 3.373-1.15 6.769-2.28 10.248-3.215 103.725-27.873 222.124 57.049 300.884 127.306" stroke="currentColor" stroke-width="2" stroke-miterlimit="10"/><path d="M33.319 345.029c120.239-67.838 219.576-141.234 294.222-142.746 32.689-21.162 46.718-38.991 71.54-22.182 17.511 11.851 34.398 39.39 57.099 81.57 72.607 134.763 89.379 211.992 139.608 216.594 84.977 7.787 104.308-222.125 242.653-272.391 3.432-1.245 6.893-2.461 10.441-3.484 105.171-30.293 227.348 56.412 308.528 127.939" stroke="currentColor" stroke-width="2" stroke-miterlimit="10"/><path d="M28.559 335.265c114.65-65.747 216.245-136.735 294.468-132.55 33.07-16.196 49.081-28.145 73.592-9.778 17.39 13.032 33.837 39.846 55.073 79.243 68.382 126.812 86.154 204.813 135.952 208.614 85.453 6.521 102.624-231.932 242.274-285.715 3.491-1.343 7.017-2.645 10.65-3.754 106.604-32.718 232.552 55.756 316.172 128.542" stroke="currentColor" stroke-width="2" stroke-miterlimit="10"/><path d="M23.799 325.503c109.065-63.653 212.914-132.225 294.716-122.355 33.431-11.239 51.434-17.294 75.643 2.635 17.26 14.212 33.277 40.296 53.031 76.901 64.161 118.864 82.933 197.625 132.295 200.63 85.93 5.236 100.929-241.745 241.899-299.066 3.55-1.443 7.141-2.827 10.831-4.025 108.07-35.091 237.796 55.146 323.846 129.213" stroke="currentColor" stroke-width="2" stroke-miterlimit="10"/><path d="M19.039 315.728C122.515 254.166 228.62 187.993 314 203.572c33.824-6.268 53.779-6.448 77.69 15.043 17.129 15.38 32.721 40.748 50.992 74.581 59.939 110.915 79.711 190.43 128.639 192.654 86.409 3.94 99.225-251.565 241.525-312.388 3.607-1.544 7.266-3.011 11.024-4.297 109.535-37.495 243.009 54.495 331.509 129.843" stroke="currentColor" stroke-width="2" stroke-miterlimit="10"/><path d="M14.28 305.967c97.885-59.45 205.127-86.09 295.211-101.952 33.709-5.937 56.116 4.404 79.74 27.456 16.991 16.563 32.162 41.201 48.954 72.251 55.715 102.973 76.483 183.221 124.979 184.674 86.879 2.6 97.503-261.424 241.147-325.748 3.663-1.639 7.396-3.191 11.219-4.567 110.999-39.879 248.22 53.86 339.17 130.468" stroke="currentColor" stroke-width="2" stroke-miterlimit="10"/><path d="M9.52 296.207c92.305-57.379 200.882-110.405 295.459-91.766 34.117 6.726 58.445 15.253 81.791 39.87 16.845 17.747 31.599 41.651 46.913 69.921 51.495 95.025 73.255 176.001 121.322 176.69 87.346 1.255 95.769-271.275 240.768-339.084a163.452 163.452 0 0 1 11.417-4.835c112.553-42.033 253.45 53.224 346.84 131.103" stroke="currentColor" stroke-width="2" stroke-miterlimit="10"/><path d="M4.76 286.446c86.71-55.289 198.281-110.098 295.708-81.571 34.558 10.121 60.767 26.102 83.84 52.28 16.695 18.93 31.041 42.106 44.872 67.59 47.274 87.081 70.027 168.983 117.665 168.714 87.811-.497 93.921-281.35 240.393-352.423a158.887 158.887 0 0 1 11.609-5.108c113.997-44.517 258.663 52.582 354.493 131.73" stroke="currentColor" stroke-width="2" stroke-miterlimit="10"/><path d="M0 276.684c81.122-53.194 196.258-109.731 295.953-71.372 150.292 57.835 163.294 292.042 242.736 290.681 90.559-1.55 92.411-306.239 251.818-371.14 115.435-46.998 263.903 51.944 362.153 132.367" stroke="currentColor" stroke-width="2" stroke-miterlimit="10"/></svg><svg fill="none" viewBox="0 0 60 60" id="price-param-1" xmlns="http://www.w3.org/2000/svg"><rect width="60" height="60" rx="10" fill="currentColor"/><path d="M19.5 43.5a2.893 2.893 0 0 1-2.12-.88 2.893 2.893 0 0 1-.88-2.12V30c0-1.875.356-3.631 1.068-5.27a13.738 13.738 0 0 1 2.889-4.274 13.728 13.728 0 0 1 4.275-2.888C26.369 16.856 28.125 16.5 30 16.5s3.632.356 5.27 1.068a13.75 13.75 0 0 1 4.274 2.887 13.75 13.75 0 0 1 2.888 4.276C43.144 26.367 43.5 28.124 43.5 30v10.5c0 .825-.294 1.532-.88 2.12a2.893 2.893 0 0 1-2.12.88h-3a2.888 2.888 0 0 1-2.118-.88 2.89 2.89 0 0 1-.882-2.12v-6c0-.825.294-1.532.882-2.12a2.888 2.888 0 0 1 2.118-.88h3V30c0-2.925-1.019-5.407-3.057-7.445C35.406 20.518 32.925 19.5 30 19.5s-5.406 1.018-7.443 3.055C20.519 24.593 19.5 27.075 19.5 30v1.5h3c.825 0 1.531.294 2.118.88a2.89 2.89 0 0 1 .882 2.12v6a2.89 2.89 0 0 1-.882 2.12 2.888 2.888 0 0 1-2.118.88h-3Z" fill="#1A1833"/></svg><svg fill="none" viewBox="0 0 60 60" id="price-param-2" xmlns="http://www.w3.org/2000/svg"><rect width="60" height="60" rx="10" fill="currentColor"/><path d="M25.58 17.922c-2.482.262-4.438 1.17-6.101 2.853-1.87 1.892-2.879 4.26-2.97 6.964-.058 1.642.183 2.973.796 4.453l.23.549-.35 1.402c-.2.806-.35 1.522-.35 1.695 0 .161.052.484.12.704.104.352.173.46.505.8.47.49.837.657 1.457.657.321 0 .688-.078 1.674-.352l1.262-.353.379.168c.562.256 1.324.513 1.972.656.883.203 2.736.233 3.67.072 2.07-.37 3.757-1.248 5.242-2.728 1.858-1.856 2.89-4.279 2.971-6.994.034-1.08-.029-1.809-.24-2.746-.913-4.016-4.147-7.096-8.099-7.71-.458-.072-1.806-.126-2.167-.09Z" fill="#1A1833"/><path d="M37.913 24.073c.47 1.277.722 3.724.55 5.335-.367 3.349-1.967 6.392-4.479 8.529-1.032.877-2.512 1.719-3.848 2.172-.895.31-2.128.573-2.66.573-.207 0-.374.024-.374.048 0 .078.74.686 1.262 1.044 2.099 1.415 4.502 1.922 7.008 1.48a10.44 10.44 0 0 0 2.294-.734l.419-.203 1.118.317c1.422.4 1.686.447 2.127.37a2.09 2.09 0 0 0 1.68-1.54c.144-.507.115-.758-.234-2.28l-.327-1.414.206-.472c.723-1.647.998-3.634.763-5.467-.413-3.246-2.26-6.051-5.03-7.639-.424-.244-.539-.274-.475-.119Z" fill="#1A1833"/></svg><svg fill="none" viewBox="0 0 60 60" id="price-param-3" xmlns="http://www.w3.org/2000/svg"><rect width="60" height="60" rx="10" fill="currentColor"/><path d="M29.025 12.124c-3.377.72-5.873 3.206-6.615 6.58-.169.785-.176 2.545 0 3.315.176.822.382 1.41.749 2.123.448.887.903 1.505 1.689 2.269l.668.661-.91 1.556c-1.021 1.76-.882 1.643-1.748 1.389-4.588-1.381-9.39 1.302-10.667 5.948-.176.64-.191.814-.191 2.115 0 1.316.015 1.469.198 2.13 1.219 4.348 5.543 7.017 9.926 6.115 3.083-.632 5.587-2.908 6.453-5.853.095-.341.198-.77.227-.96l.052-.341h3.788l.052.342c.029.189.132.618.227.96.866 2.944 3.37 5.22 6.453 5.852a8.496 8.496 0 0 0 7.68-2.29 8.596 8.596 0 0 0 2.246-3.824c.183-.662.198-.815.198-2.13 0-1.302-.015-1.477-.19-2.117-.904-3.286-3.613-5.714-6.939-6.209a8.597 8.597 0 0 0-3.729.262c-.866.255-.727.37-1.747-1.389l-.91-1.556.668-.661c1.299-1.273 2.048-2.618 2.437-4.392.176-.77.169-2.53 0-3.315-.588-2.661-2.195-4.712-4.625-5.89-1.234-.603-2.004-.777-3.532-.806-1.027-.022-1.365 0-1.908.116Zm3.634 2.392c2.474.829 4.133 2.96 4.31 5.533.073 1.156-.302 2.581-.94 3.57-.17.254-.316.48-.324.487-.014.014-.264-.225-.557-.53a7.426 7.426 0 0 0-.984-.852l-.455-.29.242-.473a3.41 3.41 0 0 0 .279-2.414c-.162-.654-.39-1.076-.837-1.556-.712-.77-1.586-1.156-2.643-1.156-1.057 0-1.93.386-2.643 1.156-.448.48-.675.902-.837 1.556a3.41 3.41 0 0 0 .28 2.414l.241.473-.455.29c-.25.168-.69.546-.983.851-.294.306-.544.546-.559.531-.183-.204-.668-1.076-.844-1.512-1.086-2.807.008-5.94 2.636-7.518 1.028-.618 1.96-.85 3.348-.815.925.015 1.093.044 1.725.255Zm-4.655 13.821c1.689.582 3.803.575 5.492 0 .242-.08.47-.116.499-.087.088.087 1.82 3.069 1.82 3.134 0 .029-.227.254-.506.502-1.24 1.098-2.305 2.973-2.584 4.558l-.08.473H28.855l-.08-.473c-.28-1.585-1.344-3.46-2.585-4.558-.279-.248-.507-.473-.507-.502 0-.087 1.814-3.192 1.865-3.192.008 0 .213.066.455.145Zm-5.88 3.818c1.666.48 2.98 1.548 3.81 3.104.455.836.631 1.52.683 2.538.066 1.338-.25 2.508-.977 3.62l-.279.43-.47-.51c-.381-.4-.829-.763-1.468-1.192-.014-.007.066-.189.177-.407.543-1.062.535-2.269-.023-3.366-.242-.466-.99-1.2-1.46-1.44-2.049-1.025-4.5 0-5.132 2.16-.25.857-.103 2.072.345 2.791.08.131.14.248.125.262a5.493 5.493 0 0 1-.36.225c-.184.11-.617.488-.97.83l-.63.625-.22-.328c-.676-.996-.97-1.912-1.021-3.133-.074-1.745.433-3.156 1.593-4.45.851-.945 2.246-1.694 3.649-1.941.638-.116 1.901-.03 2.628.182Zm20.63 0c2.26.654 3.949 2.457 4.411 4.704.17.814.11 2.217-.117 2.93a7.43 7.43 0 0 1-.822 1.716l-.228.327-.631-.625c-.345-.35-.778-.727-.962-.837a5.493 5.493 0 0 1-.36-.225c-.014-.014.044-.13.125-.262.448-.72.595-1.934.345-2.799-.528-1.818-2.481-2.923-4.317-2.45-.668.167-1.138.436-1.637.93-.712.706-1.057 1.527-1.057 2.509 0 .64.118 1.12.397 1.665.11.218.19.4.176.407-.639.43-1.087.793-1.468 1.192l-.47.51-.28-.43c-.726-1.112-1.042-2.282-.976-3.62.052-1.018.228-1.702.683-2.538.947-1.774 2.547-2.923 4.559-3.286.639-.116 1.901-.03 2.628.182Z" fill="#1A1833"/></svg><svg fill="none" viewBox="0 0 60 60" id="price-param-4" xmlns="http://www.w3.org/2000/svg"><rect width="60" height="60" rx="10" fill="currentColor"/><path d="M20.587 15.7a3.263 3.263 0 0 0-2.495 2.55c-.08.375-.092 2.084-.092 12.318 0 7.684.025 12.025.062 12.287.197 1.266 1.275 2.42 2.513 2.676.227.05 3.301.069 10.194.069 10.852 0 10.267.018 11.013-.387.813-.437 1.515-1.435 1.656-2.358.037-.262.062-3.835.062-9.93v-9.523l-3.123-.019-3.129-.018-.35-.175c-.426-.212-.796-.574-.986-.967-.142-.293-.142-.293-.16-3.461l-.019-3.162-7.373.006c-6.091 0-7.44.019-7.773.093Zm16.587 14.014c.548.362.53 1.148-.03 1.46-.191.105-.555.112-6.486.112-5.932 0-6.295-.007-6.486-.113-.647-.355-.548-1.322.148-1.54.098-.031 2.993-.05 6.43-.044 5.92.013 6.264.019 6.424.125ZM35.1 33.388c.388.43.264 1.041-.253 1.297-.246.118-.4.124-5.334.124-4.712 0-5.094-.006-5.291-.112-.597-.3-.653-1.11-.105-1.447.191-.124.327-.124 5.482-.112l5.291.019.21.23Zm1.102 3.417c.474.45.425 1.042-.105 1.373-.197.124-.326.124-5.95.124-4.816 0-5.771-.012-5.913-.087-.622-.33-.665-1.16-.067-1.485.197-.105.48-.112 6.042-.1l5.827.02.166.155Z" fill="#1A1833"/><path d="M37.402 18.836v2.751l.16.062c.197.081 5.383.081 5.383.007 0-.032-1.244-1.298-2.771-2.813l-2.772-2.757v2.75Z" fill="#1A1833"/></svg><svg fill="none" viewBox="0 0 60 60" id="red-star" xmlns="http://www.w3.org/2000/svg"><path d="m40.642 24.085-12.59-1.825-5.629-11.38a1.576 1.576 0 0 0-.719-.717 1.595 1.595 0 0 0-2.127.717l-5.629 11.38-12.59 1.825a1.583 1.583 0 0 0-.878 2.7l9.11 8.858-2.153 12.508a1.576 1.576 0 0 0 .63 1.547 1.587 1.587 0 0 0 1.671.12L21 43.911l11.262 5.905c.307.163.664.218 1.007.158a1.58 1.58 0 0 0 1.294-1.825L32.41 35.644l9.11-8.858c.247-.242.41-.558.46-.905a1.578 1.578 0 0 0-1.339-1.795Z" fill="#DA1135"/></svg><svg fill="none" viewBox="0 0 60 60" id="seo-pluses-1" xmlns="http://www.w3.org/2000/svg"><path d="M.003 29.677H0V7c11.154 0 20.427 8.053 22.323 18.662V7H45c0 11.154-8.053 20.427-18.662 22.323H45V52c-11.154 0-20.427-8.053-22.323-18.662V52C10.271 52 .192 42.038.003 29.677Z" fill="currentColor"/></svg><svg fill="none" viewBox="0 0 60 60" id="seo-pluses-2" xmlns="http://www.w3.org/2000/svg"><path d="M0 8.334c0 7.832 6.5 14.182 14.516 14.182C14.516 4.542 0 8.334 0 8.334ZM30.484 8C38.5 8 45 14.5 45 22.516H15.968C15.968 14.5 22.467 8 30.484 8ZM14.516 53C6.5 53 0 46.5 0 38.484c0-8.017 6.5-14.516 14.516-14.516V53ZM30.484 38.484C38.5 38.484 45 31.984 45 23.968H15.968c0 8.017 6.499 14.516 14.516 14.516Z" fill="currentColor"/></svg><svg fill="none" viewBox="0 0 60 60" id="seo-pluses-3" xmlns="http://www.w3.org/2000/svg"><path d="M35 25.438C35 15.806 27.165 8 17.5 8v8.438H0c0 9.63 7.835 17.437 17.5 17.437v1.688H0C0 45.193 7.835 53 17.5 53v-8.438H35c0-9.63-7.835-17.437-17.5-17.437v-1.688H35Z" fill="currentColor"/></svg><svg fill="none" viewBox="0 0 60 60" id="seo-pluses-4" xmlns="http://www.w3.org/2000/svg"><path d="M0 30.5C0 18.074 10.074 8 22.5 8v11.25C22.5 13.037 27.537 8 33.75 8S45 13.037 45 19.25 39.963 30.5 33.75 30.5H22.5v11.25C22.5 47.963 17.463 53 11.25 53S0 47.963 0 41.75V30.5Z" fill="currentColor"/><path d="M45 53c0-12.426-10.074-22.5-22.5-22.5C22.5 42.926 32.574 53 45 53Z" fill="currentColor"/></svg><svg fill="none" viewBox="0 0 60 60" id="seo-pluses-5" xmlns="http://www.w3.org/2000/svg"><path d="M0 38.438V52.5h35l-17.5-8.438L35 35.626v-11.25l-17.5-8.438L35 7.5H0v14.063L17.5 30 0 38.438Z" fill="currentColor"/></svg><svg fill="none" viewBox="0 0 60 60" id="service-1" xmlns="http://www.w3.org/2000/svg"><path d="m29.65 11 7.578 20.625L51.301 48.5l-21.65-3.75L8 48.5l14.073-16.875L29.65 11Z" fill="#DA1135"/></svg><svg fill="none" viewBox="0 0 60 60" id="service-2" xmlns="http://www.w3.org/2000/svg"><path d="m30 5 6.187 18.813L55 30l-18.813 6.187L30 55l-6.187-18.813L5 30l18.813-6.187L30 5Z" fill="#DA1135"/></svg><svg fill="none" viewBox="0 0 60 60" id="service-3" xmlns="http://www.w3.org/2000/svg"><path d="m30 5 5.143 17.921 18.633-.646-15.454 10.429 6.373 17.521L30 38.75 15.305 50.225l6.373-17.521-15.454-10.43 18.633.647L30 5Z" fill="#DA1135"/></svg><svg fill="none" viewBox="0 0 60 60" id="service-4" xmlns="http://www.w3.org/2000/svg"><path d="m30 5 4.375 17.422L51.651 17.5 38.75 30l12.9 12.5-17.275-4.922L30 55l-4.375-17.422L8.349 42.5 21.25 30 8.35 17.5l17.275 4.922L30 5Z" fill="#DA1135"/></svg><svg fill="none" viewBox="0 0 60 60" id="service-5" xmlns="http://www.w3.org/2000/svg"><path d="m30 5 3.797 17.116 15.749-7.703-11.015 13.64 15.842 7.51-17.532-.108 4.006 17.07L30 38.75 19.153 52.524l4.006-17.069-17.532.108 15.842-7.51-11.015-13.64 15.75 7.703L30 5Z" fill="#DA1135"/></svg><svg fill="none" viewBox="0 0 60 60" id="service-6" xmlns="http://www.w3.org/2000/svg"><path d="m30 5 2.265 16.548L42.5 8.35l-6.313 15.464L51.651 17.5l-13.2 10.235L55 30l-16.548 2.265L51.65 42.5l-15.464-6.313L42.5 51.651l-10.235-13.2L30 55l-2.265-16.548L17.5 51.65l6.313-15.464L8.349 42.5l13.2-10.235L5 30l16.548-2.265L8.35 17.5l15.464 6.313L17.5 8.349l10.235 13.2L30 5Z" fill="#DA1135"/></svg><svg fill="none" viewBox="0 0 60 60" id="service-7" xmlns="http://www.w3.org/2000/svg"><path d="m30 5 2.28 12.074 6.27-10.566-1.987 12.125 9.507-7.784-6.016 10.714L51.651 17.5l-9.318 8.011 12.287.148L43.125 30l11.495 4.341-12.286.148L51.65 42.5l-11.597-4.063L46.07 49.15l-9.508-7.784 1.989 12.125-6.272-10.566L30 55l-2.28-12.074-6.27 10.566 1.988-12.125-9.508 7.784 6.016-10.714L8.349 42.5l9.317-8.011-12.286-.148L16.875 30 5.38 25.659l12.287-.148L8.348 17.5l11.597 4.063L13.93 10.85l9.508 7.784L21.45 6.508l6.27 10.566L30 5Z" fill="#DA1135"/></svg><svg fill="none" viewBox="0 0 60 60" id="service-8" xmlns="http://www.w3.org/2000/svg"><path d="m30 5 3.133 5.222 4.592-3.998 1.366 5.934 5.604-2.383-.535 6.065 6.065-.535-2.383 5.604 5.934 1.366-3.998 4.592L55 30l-5.221 3.133 3.997 4.592-5.934 1.366 2.383 5.604-6.065-.535.535 6.065-5.604-2.383-1.366 5.934-4.592-3.998L30 55l-3.133-5.221-4.592 3.997-1.366-5.934-5.604 2.383.535-6.065-6.065.535 2.383-5.604-5.934-1.366 3.998-4.592L5 30l5.222-3.133-3.998-4.592 5.934-1.366-2.383-5.604 6.065.535-.535-6.065 5.604 2.383 1.366-5.934 4.592 3.998L30 5Z" fill="#DA1135"/></svg><svg fill="none" viewBox="0 0 196 282" id="service-banner-wave" xmlns="http://www.w3.org/2000/svg"><path d="M94.514 361.841c60.631-89.948 63.203-152.025 53.74-192.528-10.563-45.202-40.85-83.785-29.78-93.658 7.087-6.322 26.063 3.659 64.412 27.414 116.29 72.034 133.562 99.021 161.586 92.435 39.261-9.221 32.481-68.57 84.47-97.222 38.186-21.043 83.986-12.261 118.134-.665M90.096 358.869c58.766-87.689 63.726-149.45 56.341-188.266-8.255-43.377-37.226-79.823-25.869-88.896 7.302-5.833 25.936 3.987 62.975 26.926 112.552 69.696 130.438 96.79 158.073 89.954 39.16-9.843 29.499-72.106 81.043-102.788a95.901 95.901 0 0 1 3.373-1.927c37.445-20.256 83.688-11.713 118.193-.516M85.683 355.894c56.898-85.422 64.267-146.778 58.944-184.001-5.934-41.489-33.597-75.862-21.956-84.134 7.518-5.344 25.813 4.316 61.535 26.44 108.802 67.359 127.343 94.655 154.564 87.465 39.099-10.326 26.514-75.672 77.616-108.355 1.121-.717 2.238-1.433 3.389-2.089 37.583-21.424 85.752-13.266 121.606-2.13M81.266 352.92c55.034-83.172 64.82-143.991 61.547-179.736-3.62-39.524-29.96-71.899-18.045-79.37 7.741-4.853 25.682 4.646 60.097 25.951 105.063 65.03 124.233 92.463 151.054 84.979 39.016-10.887 23.522-79.264 74.189-113.923a92.038 92.038 0 0 1 3.399-2.249c37.371-23.192 87.816-14.818 125.017-3.744M76.85 349.947c53.171-80.909 65.372-141.076 64.148-175.471-1.333-37.471-26.314-67.936-14.13-74.607 7.965-4.363 25.554 4.975 58.659 25.462 101.319 62.696 121.12 90.266 147.542 82.491 38.939-11.459 20.524-82.879 70.759-119.494 1.129-.82 2.26-1.64 3.422-2.414 37.34-24.64 89.876-16.368 128.433-5.354M72.434 346.973c51.309-78.648 65.911-138.014 66.755-171.206.896-35.32-22.671-63.967-10.219-69.846 8.196-3.869 25.426 5.305 57.22 24.975 97.578 60.36 118.009 88.062 144.032 80.003 38.856-12.035 17.515-86.516 67.334-125.057 1.132-.876 2.262-1.755 3.438-2.577 37.314-26.078 91.944-17.923 131.846-6.966m-464.821 267.7c49.442-76.389 66.413-134.794 69.354-166.939 3.024-33.072-19.01-59.999-6.306-65.083 8.429-3.374 25.301 5.638 55.78 24.487 93.835 58.024 114.899 85.853 140.522 77.515 38.779-12.62 14.498-90.17 63.907-130.624 1.14-.932 2.269-1.865 3.453-2.738 37.289-27.506 94.008-19.473 135.258-8.58M63.603 341.026c47.577-74.13 60.999-132.934 71.957-162.675-.921-31.103-15.35-56.022-2.394-60.321 8.665-2.874 25.172 5.964 54.347 24.006 90.091 55.69 111.783 83.64 137.01 75.028 38.696-13.21 11.469-93.842 60.479-136.19 1.14-.984 2.277-1.975 3.472-2.903 37.274-28.924 96.076-21.032 138.673-10.193M59.186 338.052c45.713-71.871 60.685-130.209 74.56-158.41.456-29.09-11.686-52.038 1.519-55.558 8.904-2.373 25.042 6.29 52.904 23.512 86.343 53.359 108.67 81.42 133.502 72.54 38.61-13.809 8.426-97.529 57.049-141.757 1.142-1.039 2.283-2.085 3.488-3.066 37.265-30.334 98.136-22.58 142.087-11.806M54.77 335.078c43.848-69.61 60.371-127.48 77.162-154.144 1.833-27.077-8.018-48.051 5.432-50.796 9.144-1.868 24.916 6.62 51.465 23.024 82.609 51.025 105.554 79.195 129.991 70.051 38.526-14.414 5.375-101.228 53.622-147.324 1.145-1.093 2.29-2.194 3.505-3.229 37.258-31.737 100.199-24.133 145.5-13.418M50.355 332.105c41.985-67.352 60.056-124.754 79.765-149.878 3.211-25.063-4.348-44.055 9.343-46.033 9.388-1.358 24.791 6.95 50.027 22.531 78.863 48.687 102.436 76.966 126.479 67.565 38.437-15.028 2.314-104.939 50.196-152.891 1.147-1.15 2.298-2.303 3.52-3.391 37.259-33.136 102.264-25.685 148.914-15.032M45.937 329.13c40.12-65.088 59.746-122.028 82.373-145.608 4.588-23.048-.679-40.054 13.254-41.268 9.629-.841 24.663 7.278 48.589 22.048 75.121 46.351 99.317 74.729 122.972 65.074 38.346-15.649-.759-108.655 46.767-158.457 1.15-1.204 2.3-2.409 3.539-3.549 37.264-34.528 104.327-27.239 152.327-16.645M41.522 326.157c38.256-62.83 59.427-119.299 84.972-141.348 5.965-21.035 2.989-36.045 17.168-36.508 9.871-.321 24.535 7.61 47.151 21.562 71.383 44.013 96.195 72.488 119.459 62.588 38.25-16.28-3.846-112.386 43.341-164.025 1.15-1.26 2.312-2.52 3.557-3.719 37.277-35.911 106.388-28.795 155.74-18.256M37.109 323.18c36.387-60.568 59.109-116.569 87.572-137.079 7.343-19.02 6.655-32.033 21.08-31.747 10.113.202 24.408 7.938 45.712 21.072 67.637 41.683 93.074 70.249 115.949 60.102 38.154-16.918-6.945-116.126 39.912-169.59 1.153-1.317 2.321-2.63 3.571-3.882 37.291-37.298 108.454-30.343 159.161-19.873M32.691 320.21c34.524-58.31 58.797-113.845 90.177-132.817 8.72-17.006 10.319-28.015 24.995-26.979 10.351.728 24.28 8.265 44.268 20.587 63.894 39.347 89.945 67.995 112.437 57.613 38.052-17.563-10.045-119.858 36.485-175.159 1.155-1.37 2.329-2.736 3.587-4.042 37.314-38.68 110.519-31.895 162.569-21.482M28.274 317.235c32.66-56.05 58.483-111.117 92.779-128.551 10.099-14.993 13.982-23.994 28.907-22.221 10.589 1.259 24.152 8.597 42.836 20.098 60.149 37.011 86.815 65.741 108.927 55.125 37.944-18.218-13.164-123.606 33.06-180.719 1.156-1.427 2.337-2.845 3.611-4.208 37.328-40.06 112.571-33.452 165.967-23.104M23.857 314.261c30.797-53.79 58.171-108.386 95.383-124.286 11.466-12.978 17.64-19.968 32.819-17.458 10.823 1.792 24.025 8.925 41.394 19.605 56.407 34.676 83.685 63.484 105.416 52.637 37.832-18.881-16.288-127.354 29.63-186.292 1.157-1.484 2.345-2.953 3.621-4.368 37.371-41.427 114.652-34.997 169.396-24.703M19.438 311.283c28.932-51.53 57.854-105.663 97.985-120.02 12.851-10.965 21.295-15.942 36.729-12.696 11.054 2.319 23.9 9.254 39.959 19.122 52.664 32.339 80.552 61.221 101.907 50.15 37.718-19.548-19.419-131.102 26.208-191.852 1.156-1.541 2.353-3.062 3.636-4.53 37.405-42.808 116.71-36.555 172.81-26.319M15.022 308.311c27.072-49.262 66.16-86.9 100.591-115.752 12.884-10.796 24.948-11.912 40.642-7.932 11.285 2.855 23.773 9.583 38.521 18.633 48.922 30.008 77.413 58.956 98.396 47.663 37.59-20.232-22.566-134.862 22.774-197.428a79.336 79.336 0 0 1 3.653-4.692C357.043 4.625 438.37 10.7 495.821 20.868M10.608 305.339c25.206-47.013 58.398-96.174 103.192-111.491 16.159-5.524 28.595-7.881 44.555-3.169 11.512 3.393 23.643 9.912 37.081 18.146 45.181 27.671 74.272 56.685 94.886 45.173 37.459-20.917-25.718-138.615 19.346-202.993a80.234 80.234 0 0 1 3.671-4.855C350.916.677 434.177 6.494 492.979 16.602M6.191 302.365c23.338-44.751 57.367-95.404 105.795-107.226 17.178-4.192 32.24-3.848 48.467 1.593 11.738 3.932 23.517 10.242 35.642 17.658 41.439 25.338 71.18 54.5 91.376 42.688 37.228-21.775-28.971-142.436 15.919-208.56a78.367 78.367 0 0 1 3.686-5.019C344.659-3.382 429.978 2.29 490.125 12.338M1.775 299.393c21.474-42.491 56.597-94.752 108.397-102.96 78.093-12.368 140.994 83.808 174.451 63.723 38.138-22.897-35.71-152.626 16.193-219.308C338.403-7.438 425.786-1.917 487.278 8.077" stroke="currentColor" stroke-width="2" stroke-miterlimit="10"/></svg><svg fill="none" viewBox="0 0 111 16" id="swiper-arrow-left" xmlns="http://www.w3.org/2000/svg"><path d="M.293 7.293a1 1 0 0 0 0 1.414l6.364 6.364a1 1 0 0 0 1.414-1.414L2.414 8l5.657-5.657A1 1 0 0 0 6.657.93L.293 7.293ZM111 7H1v2h110V7Z" fill="currentColor"/></svg><svg fill="none" viewBox="0 0 50 50" id="true" xmlns="http://www.w3.org/2000/svg"><path d="m18.113 32.836-7.456-7.457a2.142 2.142 0 1 0-3.03 3.03l8.982 8.982a2.14 2.14 0 0 0 3.03 0l22.734-22.734a2.142 2.142 0 1 0-3.03-3.03l-21.23 21.209Z" fill="currentColor"/></svg></svg>