<svg width="319" height="69" viewBox="0 0 319 69" fill="none" xmlns="http://www.w3.org/2000/svg">
<path d="M162.519 1.42926L165.538 8.82717L171.158 1.42926H172.459L170.183 14.623H168.789L170.136 6.89523L170.694 4.16225L165.724 10.6177H164.841L162.101 4.11513L161.729 6.84811L160.382 14.5759H158.989L161.265 1.38214L162.519 1.42926Z" fill="#ADBBD7"/>
<path d="M181.469 14.623H173.341L175.617 1.42929H183.745L183.513 2.70154H176.778L176.035 7.08374H180.587L180.401 8.30887H175.849L174.967 13.3036H181.748L181.469 14.623Z" fill="#ADBBD7"/>
<path d="M184.164 14.623H182.445L188.158 7.55495L185.278 1.42929H186.811L189.412 7.08374H190.62L191.595 1.42929H192.988L192.013 7.08374H193.081L197.68 1.42929H199.352L194.335 7.55495L197.587 14.623H196.008L193.081 8.30887H191.781L190.713 14.623H189.319L190.387 8.30887H189.226L184.164 14.623Z" fill="#ADBBD7"/>
<path d="M210.499 13.3507L209.849 17.2617H208.595L209.059 14.623H199.584L199.12 17.2617H197.865L198.516 13.3507H199.677C200.002 12.9738 200.374 12.5026 200.699 11.8429C201.07 11.1832 201.395 10.4293 201.721 9.53397C202.046 8.59156 202.371 7.64916 202.65 6.61251C202.928 5.52874 203.16 4.39785 203.393 3.31408L203.764 1.38214H211.103L209.013 13.3036L210.499 13.3507ZM204.786 2.70151L204.6 3.78528C204.507 4.44497 204.275 5.38738 203.95 6.65963C203.671 7.69628 203.393 8.59156 203.16 9.29837C202.882 10.0994 202.557 10.8533 202.232 11.5601C201.86 12.3141 201.535 12.8795 201.256 13.3507H207.573L209.431 2.70151H204.786Z" fill="#ADBBD7"/>
<path d="M222.993 1.47638L217.002 12.267C216.909 12.4554 216.723 12.7853 216.444 13.1622C216.212 13.4921 215.98 13.7277 215.748 13.9162C215.515 14.1518 215.283 14.2931 214.911 14.4816C214.633 14.623 214.308 14.6701 213.89 14.6701H212.868L213.054 13.3979H213.797C214.029 13.3979 214.261 13.3507 214.493 13.2565C214.679 13.1622 214.865 13.068 215.051 12.8795C215.19 12.7382 215.376 12.5497 215.515 12.3612C215.655 12.1727 215.748 11.9842 215.84 11.7958L215.887 11.7015L213.332 1.47638H214.819L216.212 7.60204L216.723 10.2408L218.023 7.60204L221.321 1.47638H222.993Z" fill="#ADBBD7"/>
<path d="M223.969 14.6701H222.575L224.851 1.47638H226.245L225.269 7.13083H231.818L232.794 1.47638H234.187L231.911 14.6701H230.518L231.633 8.40308H225.083L223.969 14.6701Z" fill="#ADBBD7"/>
<path d="M244.777 14.6701H243.291L242.641 11.1832H237.16L235.302 14.6701H233.723L240.829 1.47638H242.13L244.777 14.6701ZM239.9 6.09418L237.856 9.95806H242.455L241.758 6.09418L241.294 3.31408L239.9 6.09418Z" fill="#ADBBD7"/>
<path d="M248.075 14.6701H246.682L248.957 1.47638H254.02C254.624 1.47638 255.135 1.57062 255.553 1.7591C256.017 1.94758 256.343 2.23031 256.621 2.56015C256.9 2.93711 257.086 3.3612 257.225 3.78528C257.318 4.20936 257.318 4.72769 257.225 5.38738L257.132 5.9057C257.039 6.51827 256.854 7.03659 256.575 7.5078C256.296 7.979 255.971 8.40308 255.646 8.73293C255.274 9.06277 254.856 9.34549 254.345 9.53397C253.881 9.72246 253.324 9.8167 252.72 9.8167H248.911L248.075 14.6701ZM253.834 2.74863H250.119L249.143 8.40308H252.766C253.509 8.40308 254.113 8.16748 254.67 7.7434C255.181 7.27219 255.553 6.65963 255.692 5.9057L255.785 5.34025C255.925 4.53921 255.832 3.92664 255.46 3.50256C255.181 2.98423 254.624 2.74863 253.834 2.74863Z" fill="#ADBBD7"/>
<path d="M268.605 5.24601L267.629 10.9476C267.536 11.5601 267.351 12.0785 267.072 12.5497C266.793 13.0209 266.468 13.3978 266.096 13.7748C265.725 14.1047 265.307 14.3874 264.796 14.5759C264.331 14.7643 263.774 14.8586 263.17 14.8586H261.405C260.801 14.8586 260.291 14.7643 259.873 14.5759C259.408 14.3874 259.083 14.1047 258.804 13.7748C258.526 13.3978 258.293 12.9738 258.2 12.5497C258.108 12.0785 258.108 11.5601 258.2 10.9476L259.176 5.29314C259.269 4.72769 259.454 4.16225 259.687 3.69104C259.965 3.21984 260.291 2.84287 260.662 2.46591C261.034 2.13607 261.498 1.85335 261.963 1.66486C262.427 1.47638 262.938 1.38214 263.588 1.38214H265.353C265.957 1.38214 266.468 1.47638 266.886 1.66486C267.351 1.85335 267.676 2.13607 267.954 2.46591C268.233 2.84287 268.419 3.26696 268.558 3.69104C268.698 4.068 268.698 4.58633 268.605 5.24601ZM266.189 10.9947L267.211 5.19889C267.351 4.39785 267.258 3.78528 266.886 3.3612C266.561 2.88999 266.004 2.65439 265.214 2.65439H263.588C262.845 2.65439 262.195 2.88999 261.638 3.3612C261.127 3.8324 260.755 4.44497 260.616 5.19889L259.594 10.9947C259.454 11.7958 259.547 12.4083 259.919 12.8324C260.244 13.3036 260.801 13.4921 261.591 13.4921H263.217C263.96 13.4921 264.564 13.2565 265.121 12.8324C265.725 12.3612 266.05 11.7486 266.189 10.9947Z" fill="#ADBBD7"/>
<path d="M281.006 13.3979L280.356 17.3089H279.102L279.566 14.6701H270.091L269.626 17.3089H268.372L269.023 13.3979H270.184C270.509 13.0209 270.88 12.5497 271.206 11.89C271.577 11.2303 271.902 10.4764 272.227 9.58113C272.553 8.63872 272.878 7.69631 273.156 6.65966C273.435 5.57589 273.667 4.445 273.9 3.36123L274.271 1.42929H281.61L279.52 13.3508L281.006 13.3979ZM275.339 2.74866L275.154 3.83243C275.061 4.49212 274.828 5.43453 274.503 6.70678C274.225 7.74343 273.946 8.63872 273.714 9.34552C273.435 10.1466 273.11 10.9005 272.785 11.6073C272.413 12.3612 272.088 12.9267 271.809 13.3979H278.126L279.984 2.74866H275.339Z" fill="#ADBBD7"/>
<path d="M284.35 14.7172H282.957L285.233 1.5235H286.626L285.651 7.17795H292.2L293.175 1.5235H294.569L292.293 14.7172H290.899L292.014 8.4502H285.465L284.35 14.7172Z" fill="#ADBBD7"/>
<path d="M305.159 14.7172H303.672L303.022 11.2303H297.541L295.683 14.7172H294.104L301.211 1.5235H302.511L305.159 14.7172ZM300.282 6.1413L298.238 10.0052H302.836L302.14 6.1413L301.675 3.36119L300.282 6.1413Z" fill="#ADBBD7"/>
<path d="M307.853 14.7172H306.32L309.618 9.20413C308.921 8.96853 308.456 8.54444 308.178 7.979C307.853 7.36643 307.806 6.65962 307.945 5.81146L308.038 5.15177C308.271 4.068 308.735 3.17271 309.432 2.51303C310.129 1.85334 311.057 1.5235 312.219 1.5235H317.56L315.284 14.7172H313.891L314.82 9.39261H311.011L307.853 14.7172ZM309.478 5.10465L309.339 5.81146C309.2 6.51826 309.339 7.08371 309.664 7.50779C310.036 7.93188 310.547 8.12036 311.197 8.12036H315.005L315.934 2.79575H312.219C311.522 2.79575 310.918 2.98423 310.407 3.40832C309.896 3.8324 309.618 4.39784 309.478 5.10465Z" fill="#ADBBD7"/>
<path d="M169.393 43.0837H167.907L167.257 39.5968H161.776L159.918 43.0837H158.339L165.445 29.89H166.746L169.393 43.0837ZM164.47 34.5078L162.426 38.3717H167.025L166.328 34.5078L165.863 31.7277L164.47 34.5078Z" fill="#ADBBD7"/>
<path d="M172.552 43.0837H171.158L173.434 29.89H174.828L173.852 35.5445H175.617L180.587 29.89H182.259L176.825 36.1099L180.541 43.0837H178.961L175.571 36.7696H173.62L172.552 43.0837Z" fill="#ADBBD7"/>
<path d="M191.967 43.1309H190.48L189.83 39.6439H184.349L182.491 43.1309H180.912L188.019 29.9371H189.319L191.967 43.1309ZM187.043 34.5549L184.999 38.4188H189.598L188.901 34.5549L188.437 31.7748L187.043 34.5549Z" fill="#ADBBD7"/>
<path d="M204.74 41.8586L204.089 45.7696H202.835L203.3 43.1308H193.825L193.36 45.7696H192.106L192.756 41.8586H193.918C194.243 41.4816 194.614 41.0104 194.939 40.3507C195.311 39.6911 195.636 38.9371 195.961 38.0418C196.286 37.0994 196.611 36.157 196.89 35.1204C197.169 34.0366 197.401 32.9057 197.633 31.822L198.005 29.89H205.344L203.253 41.8115L204.74 41.8586ZM199.073 31.2094L198.887 32.2932C198.794 32.9528 198.562 33.8952 198.237 35.1675C197.958 36.2041 197.68 37.0994 197.448 37.8062C197.169 38.6073 196.844 39.3612 196.519 40.068C196.147 40.8219 195.822 41.3874 195.543 41.8586H201.86L203.718 31.2094H199.073Z" fill="#ADBBD7"/>
<path d="M214.679 43.1309H206.551L208.827 29.9371H216.955L216.723 31.2094H209.988L209.245 35.5916H213.797L213.611 36.8167H209.059L208.177 41.8115H214.958L214.679 43.1309Z" fill="#ADBBD7"/>
<path d="M220.392 29.9371L223.412 37.335L229.032 29.9371H230.332L228.056 43.1309H226.663L228.01 35.4031L228.567 32.6701L223.597 39.1727H222.715L220.021 32.6701L219.649 35.4031L218.302 43.1309H216.909L219.185 29.9371H220.392Z" fill="#ADBBD7"/>
<path d="M241.619 29.9843H243.012L240.736 43.178H239.343L241.201 32.5288L232.515 43.1309H231.122L233.398 29.9371H234.791L232.933 40.5864L241.619 29.9843Z" fill="#ADBBD7"/>
<path d="M244.545 43.178H243.012L246.31 37.6649C245.613 37.4293 245.149 37.0052 244.87 36.4398C244.545 35.8272 244.499 35.1204 244.638 34.2722L244.731 33.6125C244.963 32.5288 245.427 31.6335 246.124 30.9738C246.821 30.3141 247.75 29.9843 248.911 29.9843H254.252L251.977 43.178H250.583L251.512 37.8534H247.703L244.545 43.178ZM246.171 33.5654L246.031 34.2722C245.892 34.979 246.031 35.5445 246.356 35.9686C246.728 36.3926 247.239 36.5811 247.889 36.5811H251.698L252.627 31.2565H248.911C248.214 31.2565 247.61 31.445 247.1 31.8691C246.635 32.2932 246.31 32.8586 246.171 33.5654Z" fill="#ADBBD7"/>
<path d="M169.579 55.8062L169.347 57.0785H162.473L161.776 61.178H165.631C166.281 61.178 166.792 61.2722 167.21 61.4136C167.675 61.6021 168.046 61.8377 168.325 62.0733C168.929 62.6858 169.115 63.4869 168.975 64.5235L168.79 65.5602C168.604 66.5968 168.139 67.3979 167.35 68.0104C166.607 68.623 165.631 68.9528 164.47 68.9528H159.036L161.312 55.7591L169.579 55.8062ZM167.35 65.4659L167.489 64.712C167.628 64.0523 167.489 63.534 167.117 63.1099C166.792 62.6858 166.235 62.4973 165.445 62.4973H161.544L160.615 67.7748H164.47C165.26 67.7748 165.863 67.5864 166.374 67.1623C166.932 66.6911 167.257 66.1256 167.35 65.4659Z" fill="#ADBBD7"/>
<path d="M180.912 55.8062H182.306L180.03 69H178.636L180.494 58.3508L171.855 69H170.462L172.737 55.8062H174.131L172.273 66.4555L180.912 55.8062Z" fill="#ADBBD7"/>
<path d="M186.718 62.6858L186.858 61.8377L186.904 61.5078H188.158C188.901 61.5078 189.552 61.3193 190.062 60.9424C190.573 60.5654 190.899 60.0942 190.991 59.4345L191.084 59.0104C191.177 58.3979 191.084 57.8796 190.713 57.5026C190.295 57.1256 189.737 56.9371 189.041 56.9371H187.972C187.229 56.9371 186.579 57.1727 186.022 57.5968C185.511 58.0209 185.139 58.6335 185.046 59.3874L185 59.5759H183.606V59.3874C183.839 58.2094 184.303 57.3141 185.093 56.6073C185.882 55.9476 186.858 55.5706 188.019 55.5706H189.134C189.737 55.5706 190.248 55.6649 190.713 55.8063C191.177 55.9476 191.549 56.1361 191.827 56.4188C192.106 56.6544 192.292 56.9843 192.431 57.3612C192.571 57.7382 192.571 58.1623 192.478 58.6335L192.385 59.1047C192.246 59.8115 191.967 60.3769 191.549 60.8481C191.131 61.3193 190.573 61.6492 189.877 61.8848C190.62 62.0733 191.177 62.4502 191.502 62.9686C191.827 63.4869 191.967 64.1466 191.827 64.9476V65.7487C191.642 66.7853 191.177 67.5864 190.388 68.1989C189.644 68.8115 188.669 69.1413 187.508 69.1413H185.882C185.325 69.1413 184.814 69.0471 184.349 68.8586C183.885 68.6701 183.56 68.4345 183.235 68.1047C182.956 67.7748 182.77 67.3979 182.677 66.9267C182.584 66.4555 182.584 65.9372 182.677 65.3246L182.724 64.9476H184.117L184.024 65.3717C183.885 66.1727 184.024 66.7382 184.349 67.1623C184.721 67.5864 185.278 67.822 186.068 67.822H187.601C188.344 67.822 188.948 67.6335 189.505 67.2094C190.016 66.8324 190.295 66.267 190.434 65.5602L190.527 64.9005C190.666 64.2408 190.527 63.6754 190.155 63.2513C189.784 62.8272 189.226 62.6387 188.483 62.6387L186.718 62.6858Z" fill="#ADBBD7"/>
<path d="M194.754 69H193.36L195.636 55.8062H197.03L196.054 61.4607H202.603L203.579 55.8062H204.972L202.696 69H201.303L202.417 62.733H195.868L194.754 69Z" fill="#ADBBD7"/>
<path d="M213.518 69.0471H205.39L207.666 55.8534H215.794L215.562 57.1256H208.827L208.084 61.5078H212.636L212.45 62.733H207.898L207.016 67.7277H213.797L213.518 69.0471Z" fill="#ADBBD7"/>
<path d="M223.83 64.9947H225.223L225.177 65.3717C224.944 66.5497 224.48 67.445 223.69 68.1518C222.901 68.8115 221.925 69.1885 220.764 69.1885H219.046C218.442 69.1885 217.931 69.0942 217.513 68.9057C217.048 68.7172 216.723 68.4345 216.445 68.1047C215.841 67.3508 215.655 66.4083 215.887 65.2775L216.863 59.5759C216.955 59.0104 217.141 58.445 217.373 57.9738C217.652 57.5026 217.977 57.1256 218.349 56.7487C218.72 56.4188 219.185 56.1361 219.649 55.9476C220.114 55.7591 220.625 55.6649 221.275 55.6649H222.994C223.551 55.6649 224.062 55.7591 224.526 55.9476C224.991 56.1361 225.316 56.3717 225.641 56.7015C225.92 57.0314 226.106 57.4083 226.245 57.8795C226.338 58.3036 226.338 58.8691 226.245 59.4816L226.199 59.6701H224.805L224.852 59.4816C224.991 58.7277 224.852 58.1151 224.526 57.6911C224.155 57.267 223.597 57.0314 222.854 57.0314H221.182C220.439 57.0314 219.789 57.267 219.231 57.6911C218.72 58.1623 218.349 58.7748 218.21 59.5288L217.188 65.3246C217.048 66.1256 217.141 66.7382 217.513 67.1623C217.838 67.6335 218.395 67.822 219.185 67.822H220.857C221.647 67.822 222.25 67.5864 222.761 67.1623C223.319 66.6911 223.644 66.1256 223.783 65.3717L223.83 64.9947Z" fill="#ADBBD7"/>
<path d="M226.895 63.911L227.081 62.9686H231.818L231.633 63.911H226.895Z" fill="#ADBBD7"/>
<path d="M234.373 69.0471H232.98L235.256 55.8534H236.649L235.674 61.5078H237.439L242.409 55.8534H244.081L238.646 62.0733L242.362 69.0471H240.783L237.392 62.733H235.441L234.373 69.0471Z" fill="#ADBBD7"/>
<path d="M254.531 59.623L253.556 65.3246C253.463 65.9371 253.277 66.4555 252.998 66.9267C252.72 67.3979 252.395 67.7748 252.023 68.1518C251.652 68.4816 251.233 68.7644 250.723 68.9528C250.258 69.1413 249.701 69.2356 249.097 69.2356H247.332C246.728 69.2356 246.217 69.1413 245.799 68.9528C245.335 68.7644 245.01 68.4816 244.731 68.1518C244.452 67.7748 244.22 67.3507 244.127 66.9267C244.034 66.4555 244.034 65.9371 244.127 65.3246L245.102 59.6701C245.195 59.1047 245.381 58.5392 245.613 58.068C245.892 57.5968 246.217 57.2199 246.589 56.8429C246.96 56.5131 247.425 56.2303 247.889 56.0418C248.354 55.8534 248.865 55.7591 249.515 55.7591H251.28C251.884 55.7591 252.395 55.8534 252.813 56.0418C253.277 56.2303 253.602 56.5131 253.881 56.8429C254.16 57.2199 254.345 57.6439 254.485 58.068C254.624 58.445 254.624 58.9633 254.531 59.623ZM252.116 65.3717L253.138 59.5759C253.277 58.7748 253.184 58.1623 252.813 57.7382C252.488 57.267 251.93 57.0314 251.141 57.0314H249.515C248.772 57.0314 248.122 57.267 247.564 57.7382C247.053 58.2094 246.682 58.8219 246.542 59.5759L245.52 65.3717C245.381 66.1727 245.474 66.7853 245.846 67.2094C246.171 67.6806 246.728 67.8691 247.518 67.8691H249.143C249.887 67.8691 250.49 67.6335 251.048 67.2094C251.652 66.7382 251.977 66.1256 252.116 65.3717Z" fill="#ADBBD7"/>
<path d="M265.957 55.8534L259.966 66.644C259.873 66.8324 259.687 67.1623 259.408 67.5393C259.176 67.8691 258.944 68.1047 258.712 68.2932C258.479 68.5288 258.247 68.6701 257.875 68.8586C257.597 69 257.272 69.0471 256.854 69.0471H255.832L256.018 67.7749H256.761C256.993 67.7749 257.225 67.7277 257.457 67.6335C257.643 67.5393 257.829 67.445 258.015 67.2565C258.154 67.1152 258.34 66.9267 258.479 66.7382C258.619 66.5497 258.712 66.3612 258.804 66.1728L258.851 66.0785L256.296 55.8534H257.783L259.176 61.979L259.687 64.6178L260.987 61.979L264.285 55.8534H265.957Z" fill="#ADBBD7"/>
<path d="M274.086 55.9005H275.479L273.203 69.0942H271.81L272.646 64.2879H269.209C268.651 64.2879 268.14 64.1936 267.629 64.0052C267.119 63.7696 266.747 63.534 266.468 63.2512C265.818 62.4973 265.586 61.5549 265.818 60.424L266.608 55.9005H268.001L267.211 60.4711C267.165 60.8952 267.165 61.2251 267.211 61.5078C267.258 61.7905 267.397 62.0261 267.629 62.3088C267.815 62.5444 268.048 62.7329 268.373 62.8272C268.651 62.9214 269.023 63.0156 269.394 63.0156H272.878L274.086 55.9005Z" fill="#ADBBD7"/>
<path d="M286.394 55.9005H287.787L285.512 69.0942H284.118L285.976 58.445L277.29 69.0942H275.897L278.173 55.9005H279.566L277.708 66.5497L286.394 55.9005Z" fill="#ADBBD7"/>
<path d="M289.599 69.0942H288.206L290.481 55.9005H291.875L290.899 61.5549H297.449L298.424 55.9005H299.817L297.541 69.0942H296.148L297.263 62.8272H290.714L289.599 69.0942Z" fill="#ADBBD7"/>
<path d="M301.629 69.0942H300.235L302.511 55.9005H310.175L309.943 57.1727H303.719L301.629 69.0942Z" fill="#ADBBD7"/>
<path d="M319 69.0942H317.514L316.863 65.6073H311.383L309.525 69.0942H307.946L315.052 55.9005H316.353L319 69.0942ZM314.077 60.5182L312.033 64.3821H316.631L315.935 60.5182L315.47 57.7381L314.077 60.5182Z" fill="#ADBBD7"/>
<path d="M1.20763 62.2146C2.09013 56.9371 4.36604 55.2879 10.4506 53.6387L16.4423 52.0366C21.0871 50.8115 21.3658 50.5759 22.016 46.9005C22.1554 46.0994 22.2018 45.3926 22.2018 44.8272C22.2018 42.7068 21.0406 42 16.7675 42C10.7758 42 10.0326 42.6597 9.38235 46.5707L9.10367 48.0785H3.80868L4.04091 46.4293C5.1092 39.4083 8.03538 37.3822 17.5106 37.3822C25.0815 37.3822 27.8684 39.0314 27.8684 43.5078C27.8684 44.4031 27.729 45.3455 27.5897 46.3822C26.4285 52.9319 25.3138 54.3926 18.9969 56.1361L12.8195 57.8324C7.38512 59.3403 7.24578 59.4817 6.64196 62.733L6.36328 64.2879H24.3384L23.5488 69.0942H0L1.20763 62.2146Z" fill="#ADBBD7"/>
<path d="M39.2479 37.7592L39.8982 63.911L50.5346 37.7592H57.4553L58.8022 63.9581L68.8813 37.7592H74.6872L62.3787 69.1413H53.9717L53.5072 59.4817C53.3215 54.8167 53.0892 48.5026 52.857 44.0262C50.9526 48.8796 48.7232 54.6283 46.7724 59.3874L42.8244 69.1413H34.789L33.5349 37.7592H39.2479Z" fill="#ADBBD7"/>
<path d="M84.8593 37.7592L79.4249 69.1413H73.619L79.0533 37.7592H84.8593Z" fill="#ADBBD7"/>
<path d="M91.7335 37.7592H100.373L104.135 48.7382C106.504 55.5235 107.944 59.2932 109.476 64.2408C110.127 60.4241 111.148 53.8272 112.031 48.5497L113.935 37.7592H119.602L114.168 69.1413H105.621L101.998 59.0576C99.676 52.6963 97.6787 47.089 96.3317 42.7068C95.635 46.8063 94.5203 54.0157 93.8236 58.1623L91.9193 69.0942H86.2527L91.7335 37.7592Z" fill="#ADBBD7"/>
<path d="M146.263 7.36646C146.263 11.3246 143.104 14.4816 139.249 14.4816C135.394 14.4816 132.235 11.2775 132.235 7.36646C132.235 3.45547 135.347 0.251282 139.203 0.251282C143.104 0.251282 146.263 3.45547 146.263 7.36646Z" fill="#ADBBD7"/>
<path d="M137.995 62.0733H121.367V69.1413H144.869V21.8795L137.995 28.712V62.0733Z" fill="#ADBBD7"/>
<path d="M85.4631 8.54447V30.7853H78.496V1.52353H125.315L118.719 8.54447H85.4631Z" fill="#ADBBD7"/>
</svg>
