<svg width="335" height="63" viewBox="0 0 335 63" fill="none" xmlns="http://www.w3.org/2000/svg">
<path d="M299.832 58.4663L300.603 52.3119L304.457 50.7734L311.394 48.4655L317.56 44.619L321.414 40.7725L323.726 39.2339L326.039 40.7725L326.809 43.0804L324.497 46.1576L321.414 50.0041L310.623 54.6198L299.832 58.4663Z" fill="#F9AE3C"/>
<path d="M299.832 52.3119L298.291 26.156L302.144 23.8481L309.852 30.0024L322.185 36.9261L322.955 40.0033L315.248 46.1576L305.998 50.7734L299.832 52.3119Z" fill="#F6EC2B"/>
<path d="M309.852 39.234L310.623 36.9261H313.706L316.018 39.234L314.477 40.7726L315.248 42.3111L313.706 43.8497H312.165L310.623 41.5418L309.852 39.234Z" fill="white"/>
<path d="M40.2684 2.6946C36.58 3.26387 33.576 5.50303 31.8649 8.99459C29.5454 13.7386 30.458 18.9759 34.2605 22.6952C35.7054 24.0994 36.8462 24.7066 40.6107 25.997C40.9529 26.1109 41.067 26.6801 40.9909 27.591L40.8768 29.0331L38.139 29.147C35.6674 29.2609 35.3632 29.3368 35.3632 29.9819C35.3632 30.6271 35.6294 30.741 37.0743 30.741H38.8235L38.5953 31.9554C38.4813 32.6386 38.139 38.9006 37.8348 45.8837C37.2264 60.3054 37.1884 60.2295 40.0403 61.5199C42.0556 62.3928 43.1203 62.3928 45.1356 61.5199C48.2157 60.1157 48.1396 60.609 47.227 45.3904C46.7707 37.9898 46.2764 31.6898 46.1623 31.3482C45.9722 30.8548 46.2003 30.741 47.4932 30.741C48.5959 30.741 49.1663 30.5512 49.3184 30.1338C49.6606 29.185 48.71 28.8054 46.2003 28.9193L43.9188 29.0331L43.8048 27.5151C43.6907 25.997 43.7287 25.959 45.3258 25.5416C50.7633 24.0615 54.4137 18.8241 53.8814 13.2072C53.273 6.33797 47.151 1.59399 40.2684 2.6946ZM44.6793 11.5374C46.5045 13.3591 46.2003 16.1675 44.0709 17.2681C42.5119 18.103 41.2571 17.9512 39.9642 16.8506C38.9756 16.0536 38.7855 15.5982 38.7855 14.2319C38.7855 12.8657 38.9756 12.4103 39.9642 11.6133C41.4852 10.3229 43.4245 10.285 44.6793 11.5374Z" fill="#151515"/>
<path d="M295.264 16.1675C294.732 16.6988 294.655 17.4199 294.846 20.8356C294.96 23.0368 295.15 32.7904 295.264 42.506C295.454 57.2693 295.568 60.2295 296.062 60.7229C296.633 61.2922 301.234 61.406 304.846 60.9127C309.98 60.2295 316.254 57.7627 321.235 54.4988C325.532 51.6524 330.741 46.1115 333.137 41.8229L334.049 40.191L332.338 38.6729C331.388 37.8759 330.513 37.1928 330.361 37.1928C330.209 37.1928 326.178 34.5741 321.425 31.3862C316.672 28.2362 312.565 25.5416 312.375 25.4277C312.147 25.3139 308.687 23.0747 304.694 20.3801C300.701 17.7235 297.089 15.5603 296.671 15.5603C296.253 15.5603 295.606 15.8259 295.264 16.1675ZM307.774 29.3368C311.348 31.7277 316.026 34.8018 318.193 36.206C320.436 37.6862 322.071 38.9765 322.071 39.356C322.071 40.3428 317.052 44.8591 313.972 46.6048C309.599 49.1097 302.299 51.4247 301.5 50.5898C301.12 50.1723 300.587 25.0482 300.968 25.0482C301.12 25.0482 304.2 26.9838 307.774 29.3368ZM324.885 40.6464C325.418 41.0639 325.874 41.747 325.874 42.1265C325.874 43.1512 320.931 47.9711 317.699 50.0585C313.25 52.9428 307.394 55.106 303.059 55.4097C301.272 55.5615 301.158 55.4476 301.158 53.8916C301.158 52.1838 301.614 51.8042 304.048 51.5006C309.827 50.7036 317.699 46.2253 322.262 41.1398C322.908 40.4187 323.516 39.8494 323.631 39.8494C323.783 39.8494 324.315 40.191 324.885 40.6464Z" fill="#151515"/>
<path d="M303.781 32.6765C302.717 33.7392 302.945 35.2952 304.314 36.0542C305.226 36.5476 305.455 36.5476 306.405 36.0542C307.66 35.3331 307.964 33.6633 307.014 32.6006C306.177 31.6518 304.77 31.6898 303.781 32.6765ZM306.291 33.7771C306.557 34.5741 306.291 35.2952 305.721 35.2952C305.112 35.2952 304.238 34.1187 304.428 33.5874C304.77 32.7524 306.025 32.9042 306.291 33.7771Z" fill="#151515"/>
<path d="M310.246 37.5344C308.991 38.8247 308.877 39.7356 309.827 41.0259C310.208 41.5193 310.702 42.3922 310.968 42.9615C311.805 44.935 315.227 43.9862 315.227 41.747C315.227 41.1777 315.379 40.6085 315.569 40.5326C315.721 40.4567 316.026 40.0392 316.14 39.5458C316.368 38.9006 316.14 38.4452 315.265 37.5723C313.706 36.0163 311.805 36.0163 310.246 37.5344ZM314.543 37.838C315.379 38.597 315.455 40.153 314.657 40.4567C314.276 40.6085 314.162 40.988 314.352 41.6711C314.505 42.3542 314.39 42.7717 313.934 43.0753C312.946 43.7964 311.805 43.303 311.539 42.0886C311.425 41.4814 311.158 40.988 311.006 40.988C310.816 40.988 310.474 40.5705 310.208 40.0392C309.561 38.597 310.664 37.1928 312.451 37.1928C313.212 37.1928 314.162 37.4585 314.543 37.838Z" fill="#151515"/>
<path d="M305.607 42.3542C305.074 42.8855 305.341 43.6825 306.025 43.5687C306.367 43.4928 306.671 43.1892 306.671 42.9235C306.671 42.3163 305.987 41.9747 305.607 42.3542Z" fill="#151515"/>
<path d="M219.404 24.9343C219.404 26.1868 219.29 28.5018 219.176 30.0958L218.91 33.0181H222.408H225.868V31.7277C225.868 29.147 225.716 29.2229 232.371 29.2229C236.097 29.2229 238.417 29.3747 238.417 29.6024C238.417 29.7922 233.968 35.5609 228.53 42.3542L218.644 54.7645V57.5729V60.3434H234.386H250.09L250.318 57.7627C250.47 56.3584 250.585 54.1572 250.585 52.9048C250.585 50.2103 250.432 50.0964 246.706 50.0964C244.348 50.0964 244.425 50.0584 243.93 52.8289L243.702 54.2711H236.896C233.131 54.2711 230.051 54.1193 230.051 53.9295C230.051 53.7398 234.5 48.009 239.938 41.1777L249.824 28.7295V25.959V23.1506H239.823C234.31 23.1506 227.465 23.0368 224.614 22.8849L219.404 22.6572V24.9343Z" fill="#151515"/>
<path d="M256.555 25.2759C256.402 26.7181 256.288 29.0331 256.288 30.4374V33.0181H259.52C263.019 33.0181 262.905 33.094 263.209 30.3615L263.323 29.4127L269.521 29.2988C272.905 29.2609 275.681 29.3368 275.681 29.4886C275.681 29.6783 271.156 35.4849 265.604 42.4301L255.528 55.0681V57.6868V60.3434H271.46H287.355L287.583 55.5235C287.697 52.8289 287.697 50.5898 287.621 50.5139C287.545 50.438 286.138 50.2862 284.503 50.1723L281.537 50.0205L281.195 52.0319L280.814 54.0813L273.894 54.1952C270.053 54.2331 266.935 54.1952 266.935 54.0813C266.935 53.9675 271.46 48.1609 277.012 41.1777L287.089 28.5398V25.8452V23.1506H276.746C271.042 23.1506 264.198 23.0368 261.574 22.8849L256.783 22.6572L256.555 25.2759Z" fill="#151515"/>
<path d="M160.694 23.7578C160.579 24.0994 160.465 25.2759 160.465 26.4145V28.4639H161.72C162.367 28.4639 163.317 28.5777 163.812 28.6916L164.648 28.9193V41.5572V54.1572L163.469 54.4229C162.823 54.5368 161.872 54.6506 161.378 54.6506C160.503 54.6506 160.465 54.8024 160.465 56.8898C160.465 60.609 159.781 60.3434 169.439 60.3434H177.957V58.7115C177.957 57.8386 178.071 56.738 178.185 56.2446C178.413 55.4476 178.299 55.4096 176.398 55.4096C172.671 55.4096 172.633 55.3717 172.633 51.956V48.9578H174.839C183.47 48.8819 189.022 46.1494 191.57 40.6464C192.444 38.8627 192.596 37.9898 192.596 35.1054C192.558 29.944 190.885 26.794 187.083 24.8584C184.155 23.3783 181.911 23.1506 171.15 23.1506C162.177 23.1506 160.884 23.2265 160.694 23.7578ZM180.543 29.8681C182.824 31.0066 183.47 32.259 183.47 35.5988C183.47 37.9898 183.318 38.7868 182.596 39.9253C181.303 41.9747 179.136 42.8856 175.561 42.8856H172.633V36.1301C172.633 32.4109 172.747 29.2229 172.938 29.0711C173.394 28.5398 179.098 29.1849 180.543 29.8681Z" fill="#151515"/>
<path d="M196.589 24.3651C196.589 25.0482 196.475 26.2627 196.361 27.0217C196.133 28.4259 196.133 28.4639 197.236 28.4639C197.882 28.4639 198.947 28.5777 199.593 28.6916L200.772 28.9193V41.5573V54.1952L199.593 54.4229C198.947 54.5368 197.882 54.6506 197.274 54.6506C196.399 54.6506 196.171 54.8024 196.361 55.2579C196.475 55.5994 196.589 56.8518 196.589 58.1042V60.3434H204.917C214.347 60.3434 213.7 60.5711 213.7 57.0795V55.0302H211.609H209.518V42.1265V29.2609L211.419 28.9952L213.32 28.7295V25.9591V23.1506H204.955H196.589V24.3651Z" fill="#151515"/>
<path d="M112.516 23.7958L99.3593 23.9096L99.0931 25.3518C98.979 26.1108 98.8649 27.2874 98.8649 27.9325C98.8649 28.9572 99.017 29.147 100.044 29.3747C100.69 29.4886 101.641 29.6024 102.135 29.6024H103.048V42.506V55.4096H100.956C98.5988 55.4096 98.7128 55.2199 99.0931 59.1669L99.3593 61.4819H114.645H129.931L130.198 57.9904C130.312 56.0928 130.426 53.8157 130.426 52.9428V51.3108L127.574 51.0452C126.015 50.9313 124.57 50.8934 124.342 51.0452C124.152 51.159 123.961 51.7283 123.961 52.2976C123.961 52.8669 123.847 53.7018 123.733 54.1572C123.505 55.0301 123.391 55.0301 117.649 55.0301H111.793V50.2861V45.5422H119.398H127.003V42.506V39.4699H119.398H111.793V34.9157V30.3615H117.079C122.212 30.3615 122.364 30.3994 122.593 31.1964C122.707 31.6898 122.821 32.4488 122.821 32.9042C122.821 33.7392 122.973 33.7771 126.053 33.7771H129.285V28.6536V23.5301L127.498 23.606C126.471 23.6819 119.741 23.7578 112.516 23.7958Z" fill="#151515"/>
<path d="M0.988648 24.5169C0.874573 24.8584 0.760498 25.997 0.760498 27.1355C0.760498 29.0711 0.798523 29.147 1.93927 29.3747C2.5857 29.4886 3.53632 29.6024 4.03065 29.6024H4.94324V42.506V55.4096H2.85187H0.760498V57.5729C0.760498 58.7874 0.874573 60.1536 0.988648 60.647L1.2168 61.4819H16.1986H31.1425L31.2565 56.2446C31.3326 53.3982 31.3706 51.0072 31.3326 50.9313C31.2946 50.8934 29.9257 50.7416 28.2526 50.5898L25.2106 50.3621L24.8683 52.6012L24.5261 54.8404L19.1266 54.9542L13.689 55.0681V42.506V29.9819H14.9438C17.7196 29.9819 17.8717 29.7922 17.8717 26.7181V23.9096H9.54427C2.31952 23.9096 1.17877 23.9855 0.988648 24.5169Z" fill="#151515"/>
<path d="M55.7446 25.3139C55.6305 26.1108 55.5165 27.2874 55.5165 27.9325C55.5165 28.9572 55.6686 29.147 56.6952 29.3747C57.3417 29.4886 58.2923 29.6024 58.7866 29.6024H59.6992V42.506V55.4096H57.6078H55.5165V56.7C55.5165 57.3831 55.6305 58.7494 55.7446 59.7362L56.0108 61.4819H64.3002H72.6277V59.85C72.6277 58.9771 72.7418 57.6108 72.8559 56.8139L73.122 55.4096H70.7645H68.445V51.8801V48.3886L70.2702 47.3639L72.1334 46.3392L76.6583 52.4874C79.13 55.8651 81.8678 59.2807 82.7043 60.0398L84.2253 61.4819H90.1572H96.0891L96.3553 60.0777C96.4694 59.2807 96.5834 57.9145 96.5834 57.0036V55.4096H93.3893H90.1952L84.6436 48.3886C81.6016 44.5175 79.0919 41.2157 79.0919 41.0259C79.0919 40.8361 81.1453 38.2554 83.6549 35.3331C88.0658 30.1717 88.294 29.9819 89.7009 29.9819C90.4994 29.9819 91.9444 29.8681 92.933 29.7542L94.6822 29.4886V26.7181V23.9096H86.8871H79.0919V26.3765C79.0919 28.3121 79.206 28.8434 79.6623 28.8434C79.9665 28.8434 80.2327 28.9572 80.2327 29.0711C80.2327 29.1849 78.5216 31.3862 76.3922 33.9289C73.4262 37.4584 72.1714 38.7108 70.8025 39.356C69.8139 39.8115 68.9013 40.191 68.7492 40.191C68.559 40.2289 68.445 37.7621 68.445 34.7639V29.2988L70.1561 29.0711L71.8672 28.8054V26.3386V23.9096H63.92H56.0108L55.7446 25.3139Z" fill="#151515"/>
<path d="M249.938 25.2379C249.938 26.6801 250.014 27.2494 250.09 26.4524C250.166 25.6933 250.166 24.4789 250.09 23.7958C250.014 23.1506 249.938 23.7578 249.938 25.2379Z" fill="#969696"/>
<path d="M5.24744 23.7958C7.56696 23.8717 11.4455 23.8717 13.8031 23.7958C16.1226 23.7578 14.2213 23.6819 9.50624 23.6819C4.79114 23.6819 2.88989 23.7578 5.24744 23.7958Z" fill="#969696"/>
<path d="M59.8133 23.7958C62.0568 23.8717 65.7072 23.8717 67.9887 23.7958C70.2321 23.7578 68.3689 23.6819 63.882 23.6819C59.395 23.6819 57.5318 23.7578 59.8133 23.7958Z" fill="#969696"/>
<path d="M83.1986 23.7958C85.328 23.8717 88.8263 23.8717 90.9938 23.7958C93.1232 23.7578 91.374 23.6819 87.0772 23.6819C82.7804 23.6819 81.0312 23.7578 83.1986 23.7958Z" fill="#969696"/>
<path d="M99.1311 23.7958C99.017 23.9856 102.553 24.0615 106.964 23.9856C121.984 23.8338 123.429 23.6819 111.337 23.606C104.721 23.5681 99.2072 23.644 99.1311 23.7958Z" fill="#969696"/>
<path d="M13.8791 30.4753C13.765 30.7409 13.727 36.3199 13.765 42.8855L13.8791 54.8403H19.1266L24.336 54.8783L19.2026 54.7644L14.0312 54.6126L14.1453 42.3162C14.2213 35.5229 14.2213 29.9819 14.1453 29.9819C14.1073 29.9819 13.9552 30.2096 13.8791 30.4753Z" fill="#969696"/>
<path d="M68.597 34.9157C68.597 37.7241 68.6351 38.9006 68.7111 37.4585C68.7872 36.0542 68.7872 33.7771 68.7111 32.335C68.6351 30.9308 68.597 32.1073 68.597 34.9157Z" fill="#969696"/>
<path d="M36.4279 31.0066C36.8842 31.0825 37.6447 31.0825 38.139 31.0066C38.5953 30.9307 38.2151 30.8548 37.2645 30.8548C36.3138 30.8548 35.9336 30.9307 36.4279 31.0066Z" fill="#969696"/>
<path d="M220.659 33.2837C221.648 33.3596 223.245 33.3596 224.271 33.2837C225.26 33.2078 224.423 33.1699 222.446 33.1699C220.469 33.1699 219.632 33.2078 220.659 33.2837Z" fill="#969696"/>
<path d="M257.923 33.2837C258.912 33.3596 260.471 33.3596 261.346 33.2837C262.22 33.2078 261.422 33.1699 259.52 33.1699C257.657 33.1699 256.935 33.2078 257.923 33.2837Z" fill="#969696"/>
<path d="M115.71 39.356C117.725 39.4319 121.072 39.4319 123.125 39.356C125.14 39.3181 123.467 39.2422 119.398 39.2422C115.33 39.2422 113.657 39.3181 115.71 39.356Z" fill="#969696"/>
<path d="M68.597 51.8042C68.597 53.7018 68.6351 54.4988 68.7111 53.6259C68.7872 52.753 68.7872 51.197 68.7111 50.2102C68.6351 49.2235 68.597 49.9066 68.597 51.8042Z" fill="#969696"/>
<path d="M114.95 54.9163C116.547 54.9922 119.208 54.9922 120.843 54.9163C122.44 54.8783 121.11 54.8024 117.877 54.8024C114.645 54.8024 113.314 54.8783 114.95 54.9163Z" fill="#969696"/>
</svg>
