<svg width="298" height="89" viewBox="0 0 298 89" fill="none" xmlns="http://www.w3.org/2000/svg">
<path d="M111.043 56.0039C111.354 56.3212 111.727 56.5727 112.138 56.7434C112.549 56.9141 112.99 57.0006 113.435 56.9976C114.399 57.0022 115.327 56.6332 116.023 55.9684L116.699 56.7225C116.278 57.1559 115.769 57.4949 115.206 57.7167C114.643 57.9385 114.04 58.0382 113.435 58.0091C112.262 58.0325 111.127 57.5924 110.278 56.7846C109.863 56.3808 109.535 55.8957 109.317 55.3598C109.098 54.824 108.992 54.2488 109.006 53.6704C108.998 53.0953 109.106 52.5245 109.325 51.9923C109.543 51.4601 109.868 50.9776 110.278 50.5739C111.158 49.7658 112.31 49.3172 113.506 49.3172C114.702 49.3172 115.855 49.7658 116.735 50.5739L116.032 51.328C115.693 50.9996 115.292 50.7418 114.853 50.5697C114.413 50.3975 113.943 50.3145 113.471 50.3254C113.038 50.3159 112.608 50.3935 112.206 50.5536C111.804 50.7137 111.439 50.9529 111.132 51.257C110.524 51.8953 110.18 52.7395 110.171 53.62C110.161 54.5005 110.485 55.3521 111.079 56.0039H111.043Z" fill="#ADBBD7"/>
<path d="M118.167 49.4645H125.922V50.4583H122.604V57.8491H121.484V50.4583H118.167V49.4645Z" fill="#ADBBD7"/>
<path d="M134.45 50.5736C134.854 50.9827 135.172 51.468 135.386 52.0012C135.6 52.5344 135.705 53.1048 135.695 53.6789C135.708 54.239 135.608 54.7959 135.402 55.317C135.196 55.8381 134.887 56.3128 134.495 56.7134C134.078 57.1423 133.577 57.4805 133.023 57.7065C132.469 57.9325 131.874 58.0415 131.275 58.0265C130.694 58.0432 130.116 57.9429 129.575 57.7314C129.034 57.52 128.541 57.2018 128.125 56.796C127.71 56.3901 127.382 55.9049 127.159 55.3693C126.936 54.8337 126.824 54.2588 126.829 53.6789C126.821 53.0984 126.932 52.5224 127.154 51.9856C127.376 51.4489 127.704 50.9627 128.12 50.5563C128.536 50.1499 129.03 49.8319 129.572 49.6213C130.114 49.4108 130.694 49.3122 131.275 49.3314C131.86 49.3198 132.442 49.4236 132.987 49.6368C133.532 49.8499 134.029 50.1683 134.45 50.5736ZM128.847 55.9947C129.156 56.326 129.53 56.5888 129.947 56.7662C130.364 56.9435 130.813 57.0313 131.266 57.0239C131.715 57.0315 132.16 56.9445 132.572 56.7687C132.984 56.5928 133.355 56.3321 133.659 56.0036C134.227 55.3565 134.54 54.5257 134.54 53.6656C134.54 52.8056 134.227 51.9748 133.659 51.3277C133.351 51.0074 132.981 50.7532 132.571 50.5808C132.161 50.4084 131.72 50.3214 131.275 50.3251C130.824 50.3235 130.377 50.4131 129.961 50.5885C129.546 50.7638 129.17 51.0213 128.856 51.3455C128.273 51.9821 127.955 52.8166 127.967 53.6789C127.958 54.5286 128.273 55.3499 128.847 55.9769V55.9947Z" fill="#ADBBD7"/>
<path d="M138.906 49.4645L142.125 53.9629L145.292 49.4645H146.652V57.8491H145.514V50.9817H145.434L142.241 55.4979H141.894L138.684 50.9817H138.604V57.8491H137.536V49.4645H138.906Z" fill="#ADBBD7"/>
<path d="M153.536 49.4645L157.271 57.8491H156.035L155.306 56.2432H150.299L149.587 57.8491H148.387L152.113 49.4645H153.536ZM150.734 55.2228H154.896L152.967 50.5736H152.718L150.734 55.2228Z" fill="#ADBBD7"/>
<path d="M157.484 49.4645H165.239V50.4583H161.922V57.8491H160.802V50.4583H157.484V49.4645Z" fill="#ADBBD7"/>
<path d="M173.768 50.5736C174.172 50.9827 174.49 51.468 174.704 52.0012C174.918 52.5344 175.023 53.1048 175.013 53.6789C175.026 54.239 174.926 54.7959 174.72 55.317C174.514 55.8381 174.205 56.3128 173.812 56.7134C173.396 57.1423 172.895 57.4805 172.341 57.7065C171.787 57.9325 171.192 58.0415 170.593 58.0265C170.012 58.0432 169.434 57.9429 168.892 57.7314C168.351 57.52 167.858 57.2018 167.443 56.796C167.028 56.3901 166.699 55.9049 166.476 55.3693C166.254 54.8337 166.141 54.2588 166.146 53.6789C166.139 53.0984 166.249 52.5224 166.471 51.9856C166.693 51.4489 167.022 50.9627 167.438 50.5563C167.853 50.1499 168.347 49.8319 168.89 49.6213C169.432 49.4108 170.011 49.3122 170.593 49.3314C171.178 49.3198 171.76 49.4236 172.305 49.6368C172.849 49.8499 173.347 50.1683 173.768 50.5736ZM168.165 55.9947C168.473 56.326 168.848 56.5888 169.265 56.7662C169.682 56.9435 170.131 57.0313 170.584 57.0239C171.032 57.0315 171.477 56.9445 171.89 56.7687C172.302 56.5928 172.672 56.3321 172.977 56.0036C173.544 55.3565 173.857 54.5257 173.857 53.6656C173.857 52.8056 173.544 51.9748 172.977 51.3277C172.669 51.0074 172.298 50.7532 171.889 50.5808C171.479 50.4084 171.038 50.3214 170.593 50.3251C170.142 50.3235 169.695 50.4131 169.279 50.5885C168.863 50.7638 168.487 51.0213 168.174 51.3455C167.591 51.9821 167.273 52.8166 167.285 53.6789C167.276 54.5286 167.591 55.3499 168.165 55.9769V55.9947Z" fill="#ADBBD7"/>
<path d="M184.556 49.4645V57.8491H183.435V50.4583H179.727L178.944 56.1012C178.891 56.5931 178.668 57.0511 178.313 57.3966C178.129 57.5667 177.913 57.699 177.678 57.7857C177.443 57.8725 177.193 57.9122 176.943 57.9023C176.557 57.9126 176.171 57.8555 175.805 57.7338L176.018 56.8465C176.234 56.8947 176.455 56.9185 176.676 56.9175C176.827 56.9267 176.978 56.9055 177.12 56.8552C177.262 56.8049 177.392 56.7265 177.503 56.6247C177.73 56.383 177.863 56.0682 177.877 55.7374L178.766 49.4645H184.556Z" fill="#ADBBD7"/>
<path d="M194.001 50.5736C194.405 50.9827 194.723 51.468 194.936 52.0012C195.15 52.5344 195.255 53.1048 195.246 53.6789C195.258 54.239 195.158 54.7959 194.952 55.317C194.746 55.8381 194.438 56.3128 194.045 56.7134C193.629 57.1423 193.127 57.4805 192.573 57.7065C192.019 57.9325 191.424 58.0415 190.826 58.0265C190.245 58.0432 189.666 57.9429 189.125 57.7314C188.584 57.52 188.091 57.2018 187.676 56.796C187.261 56.3901 186.932 55.9049 186.709 55.3693C186.486 54.8337 186.374 54.2588 186.379 53.6789C186.371 53.0984 186.482 52.5224 186.704 51.9856C186.926 51.4489 187.255 50.9627 187.67 50.5563C188.086 50.1499 188.58 49.8319 189.122 49.6213C189.664 49.4108 190.244 49.3122 190.826 49.3314C191.411 49.3198 191.992 49.4236 192.537 49.6368C193.082 49.8499 193.579 50.1683 194.001 50.5736ZM188.398 55.9947C188.706 56.326 189.081 56.5888 189.497 56.7662C189.914 56.9435 190.364 57.0313 190.817 57.0239C191.265 57.0315 191.71 56.9445 192.122 56.7687C192.534 56.5928 192.905 56.3321 193.209 56.0036C193.777 55.3565 194.09 54.5257 194.09 53.6656C194.09 52.8056 193.777 51.9748 193.209 51.3277C192.901 51.0074 192.531 50.7532 192.121 50.5808C191.711 50.4084 191.27 50.3214 190.826 50.3251C190.374 50.3235 189.927 50.4131 189.512 50.5885C189.096 50.7638 188.72 51.0213 188.407 51.3455C187.823 51.9821 187.505 52.8166 187.517 53.6789C187.508 54.5286 187.823 55.3499 188.398 55.9769V55.9947Z" fill="#ADBBD7"/>
<path d="M198.216 57.8491H197.078V49.4645H203.436V50.4583H198.216V57.8491Z" fill="#ADBBD7"/>
<path d="M206.283 56.2698L211.619 49.4645H212.739V57.8491H211.663V51.0439L206.327 57.8491H205.224V49.4645H206.318L206.283 56.2698Z" fill="#ADBBD7"/>
<path d="M221.152 57.8491V55.0099C220.371 55.5097 219.465 55.7803 218.537 55.7907C218.026 55.8251 217.514 55.7538 217.032 55.5813C216.55 55.4087 216.109 55.1387 215.736 54.7881C215.388 54.3825 215.126 53.9109 214.965 53.4016C214.805 52.8923 214.749 52.3559 214.802 51.8246V49.4645H215.923V51.7803C215.871 52.1966 215.906 52.6191 216.027 53.0209C216.148 53.4227 216.352 53.7949 216.625 54.1138C216.894 54.3566 217.209 54.5423 217.551 54.6598C217.893 54.7773 218.256 54.8239 218.618 54.7969C219.522 54.8053 220.409 54.5493 221.17 54.0605V49.4645H222.308V57.8491H221.152Z" fill="#ADBBD7"/>
<path d="M224.39 49.4645H230.802V50.4938H225.537V52.9071H230.241V53.9274H225.537V56.7844H231.015V57.8491H224.39V49.4645Z" fill="#ADBBD7"/>
<path d="M234.315 56.0038C234.626 56.3211 234.998 56.5726 235.409 56.7434C235.82 56.9141 236.262 57.0005 236.707 56.9975C237.671 57.0021 238.599 56.6331 239.295 55.9683L239.971 56.7225C239.55 57.1559 239.041 57.4948 238.478 57.7166C237.915 57.9384 237.311 58.0381 236.707 58.009C235.531 58.0347 234.392 57.5945 233.541 56.7846C233.126 56.3807 232.798 55.8956 232.579 55.3598C232.361 54.8239 232.255 54.2488 232.269 53.6703C232.262 53.1031 232.368 52.5401 232.582 52.0145C232.796 51.4888 233.113 51.0111 233.514 50.6093C234.394 49.8012 235.546 49.3527 236.742 49.3527C237.938 49.3527 239.091 49.8012 239.971 50.6093L239.268 51.3635C238.929 51.0351 238.528 50.7773 238.089 50.6051C237.649 50.433 237.179 50.35 236.707 50.3609C236.274 50.3514 235.844 50.429 235.442 50.589C235.04 50.7491 234.675 50.9884 234.368 51.2925C233.76 51.9308 233.416 52.7749 233.407 53.6554C233.397 54.5359 233.721 55.3875 234.315 56.0393V56.0038Z" fill="#ADBBD7"/>
<path d="M242.905 49.4645V52.8716H244.364C244.615 52.8879 244.866 52.839 245.093 52.7296C245.284 52.5945 245.442 52.4187 245.556 52.215L246.561 50.4405C246.734 50.1156 246.988 49.8406 247.299 49.642C247.651 49.4253 248.059 49.3173 248.473 49.3314C248.709 49.3297 248.944 49.3535 249.175 49.4024L249.06 50.3518H248.819C248.545 50.3396 248.272 50.3881 248.019 50.4937C247.806 50.6072 247.628 50.7758 247.503 50.9817L246.507 52.6853C246.388 52.9057 246.232 53.1038 246.045 53.2709L249.157 57.8137H247.841L245.129 53.7589C244.891 53.8221 244.645 53.849 244.399 53.8387H242.896V57.8491H241.776V49.4645H242.905Z" fill="#ADBBD7"/>
<path d="M255.792 49.4645L259.527 57.8491H258.291L257.562 56.2432H252.573L251.861 57.8491H250.661L254.351 49.4645H255.792ZM252.991 55.2228H257.153L255.187 50.5736H254.938L252.991 55.2228Z" fill="#ADBBD7"/>
<path d="M261.831 50.423C262.159 50.1022 262.548 49.8511 262.976 49.6849C263.404 49.5187 263.862 49.4407 264.321 49.4559H268.225V57.8493H267.104V55.4714H263.983L262.418 57.8493H261.128L262.907 55.2496C262.36 55.0245 261.886 54.653 261.537 54.176C261.187 53.681 261.006 53.0869 261.021 52.4814C261.014 51.7166 261.304 50.9787 261.831 50.423ZM262.542 53.6792C262.746 53.9526 263.016 54.1695 263.327 54.3093C263.639 54.4491 263.981 54.507 264.321 54.4777H267.104V50.4584H264.321C263.983 50.4328 263.644 50.4907 263.333 50.6269C263.023 50.763 262.751 50.9734 262.542 51.2392C262.267 51.5941 262.122 52.0327 262.133 52.4814C262.14 52.9135 262.284 53.3324 262.542 53.6792Z" fill="#ADBBD7"/>
<path d="M110.394 63.7405V67.1476H111.852C112.104 67.1639 112.355 67.115 112.582 67.0057C112.772 66.8705 112.93 66.6947 113.044 66.491L114.049 64.7165C114.223 64.3919 114.477 64.117 114.787 63.918C115.139 63.7013 115.548 63.5933 115.961 63.6075C116.197 63.6056 116.433 63.6294 116.664 63.6784L116.548 64.6278H116.308C116.034 64.6147 115.76 64.6632 115.507 64.7698C115.294 64.8829 115.116 65.0515 114.992 65.2578L113.996 66.9613C113.876 67.1815 113.72 67.3796 113.533 67.5469L116.646 72.0896H115.33L112.617 68.0349C112.379 68.0981 112.134 68.125 111.888 68.1147H110.385V72.0808H109.264V63.7405H110.394Z" fill="#ADBBD7"/>
<path d="M126.749 63.7404V72.125H125.628V64.7697H121.92L121.137 70.4126C121.084 70.9045 120.861 71.3625 120.506 71.708C120.322 71.8781 120.107 72.0104 119.872 72.0972C119.636 72.184 119.387 72.2236 119.136 72.2138C118.75 72.2242 118.365 72.1671 117.998 72.0452L118.211 71.1579C118.427 71.2061 118.648 71.2299 118.869 71.2289C119.02 71.2381 119.171 71.217 119.313 71.1666C119.455 71.1163 119.585 71.0379 119.696 70.9361C119.923 70.6944 120.056 70.3797 120.07 70.0488L120.959 63.7759L126.749 63.7404Z" fill="#ADBBD7"/>
<path d="M129.959 70.5457L135.295 63.7404H136.416V72.125H135.34V65.3198L129.95 72.125H128.865V63.7404H129.959V70.5457Z" fill="#ADBBD7"/>
<path d="M145.852 63.7404V72.1251H144.731V68.1058H139.644V72.134H138.506V63.7404H139.644V67.1032H144.731V63.7404H145.852Z" fill="#ADBBD7"/>
<path d="M149.071 70.5457L154.407 63.7404H155.528V72.125H154.479V65.3198L149.089 72.125H147.986V63.7404H149.08L149.071 70.5457Z" fill="#ADBBD7"/>
<path d="M158.774 63.7407V67.1478H160.232C160.484 67.1641 160.735 67.1152 160.962 67.0058C161.152 66.8709 161.31 66.6951 161.424 66.4912L162.429 64.7167C162.603 64.3923 162.857 64.1174 163.167 63.9182C163.52 63.702 163.928 63.594 164.341 63.6076C164.577 63.6058 164.813 63.6296 165.044 63.6786L164.928 64.628H164.688C164.414 64.6149 164.14 64.6634 163.888 64.7699C163.675 64.8831 163.496 65.0517 163.372 65.2579L162.376 66.9615C162.256 67.1815 162.1 67.3795 161.913 67.5471L165.026 72.0899H163.71L160.971 68.0794C160.733 68.1426 160.487 68.1695 160.241 68.1593H158.738V72.1254H157.618V63.7407H158.774Z" fill="#ADBBD7"/>
<path d="M171.643 63.7404L175.378 72.125H174.142L173.421 70.5191H168.423L167.712 72.125H166.511L170.237 63.7404H171.643ZM168.841 69.4987H173.003L171.047 64.8318H170.798L168.841 69.4987Z" fill="#ADBBD7"/>
<path d="M102.052 78.1318C93.852 71.1935 91.8065 61.8506 81.668 59.1445C72.3655 56.6602 64.6905 61.8063 60.8841 70.9362C64.2103 68.931 74.0375 67.1476 84.5228 71.3975C81.2945 67.0855 71.0671 64.2995 64.9573 66.003C68.0433 62.454 74.0375 59.6414 80.0761 61.3449C89.1029 63.8825 89.4053 70.9805 96.5734 77.076C90.348 80.7315 83.9003 81.1929 77.7905 77.076C73.8952 74.4142 68.737 72.3203 64.5304 72.3558L65.0018 72.4179C64.6372 72.4179 64.2992 72.4179 63.9879 72.4179C67.2182 73.3777 70.0449 75.3658 72.0365 78.0786C77.0079 84.8129 80.6809 85.3807 80.6809 85.3807C75.0691 87.7497 68.6926 87.794 63.8545 83.6062C61.4889 81.5389 60.9197 79.5337 60.9197 76.3307C65.233 82.3552 70.4268 81.7607 70.4268 81.7607C65.9623 78.8416 62.6095 75.4168 60.8841 70.9805C57.6114 77.7947 59.6924 82.8165 63.5522 85.8598C68.4524 89.7194 77.3636 90.1009 85.4922 86.5608C85.4922 86.5608 80.6987 84.7862 75.6027 78.4956C76.1452 78.886 76.7055 79.2764 77.2747 79.6668C84.256 84.2894 94.9192 82.3019 102.052 78.1318Z" fill="#ADBBD7"/>
<path d="M31.6605 81.734C31.6605 81.734 36.8543 82.3285 41.1676 76.304C41.1676 79.5159 40.5984 81.5122 38.2327 83.5795C33.3947 87.8029 27.0271 87.7585 21.4064 85.354C21.4064 85.354 25.0794 84.7862 30.0508 78.0519C32.0226 75.3271 34.8335 73.3205 38.0549 72.338C37.7436 72.338 37.4057 72.338 37.041 72.338L37.5124 72.2759C33.3058 72.2759 28.1476 74.3698 24.2523 76.9961C18.1426 81.1129 11.7126 80.6516 5.46947 76.9961C12.6464 70.9805 12.9488 63.8824 21.94 61.3538C27.9787 59.6502 33.9728 62.454 37.0588 66.0118C30.9846 64.2994 20.7572 67.0943 17.4933 71.4064C28.0142 67.1564 37.8325 68.9398 41.1676 70.9805C37.3523 61.8506 29.6862 56.6602 20.3837 59.1445C10.2452 61.8595 8.19974 71.1934 3.05176e-05 78.1318C7.11475 82.3019 17.7868 84.3426 24.7681 79.6224C25.3373 79.2408 25.8887 78.8504 26.4401 78.4512C21.3442 84.7329 16.5506 86.5252 16.5506 86.5252C24.6792 90.0742 33.5904 89.675 38.4818 85.8243C42.3415 82.781 44.4314 77.7591 41.1498 70.945C39.4333 75.4168 36.0894 78.8416 31.6605 81.734Z" fill="#ADBBD7"/>
<path d="M69.7688 9.15527e-05H32.2831L19.6278 24.932L51.0215 82.6037L82.4152 24.932L69.7688 9.15527e-05ZM56.66 3.44265H66.7895L59.6748 14.4979H55.2281L56.66 3.44265ZM34.0263 5.32364L40.554 15.5892L35.0134 26.467L24.7149 23.6455L34.0263 5.32364ZM24.3058 26.467L34.3464 29.3506L51.1016 78.0787L24.3058 26.467ZM51.1016 71.4066L38.3129 28.6851L43.6489 17.763H58.3764L63.7124 28.6851L51.1016 71.4066ZM64.9219 23.956L73.5663 16.2724L74.6335 18.4817L65.5 25.1006L64.9219 23.956ZM66.1047 26.3871L75.3895 20.1763L77.933 25.1893L66.7006 27.5583L66.1047 26.3871Z" fill="#ADBBD7"/>
<path d="M122.08 22.6607C123.356 22.5994 124.631 22.8134 125.818 23.288C127.004 23.7627 128.074 24.4868 128.954 25.4112C130.471 27.028 131.3 29.1685 131.267 31.3825C131.278 32.5336 131.059 33.6755 130.624 34.7417C130.189 35.808 129.546 36.7772 128.732 37.5933C127.861 38.4696 126.816 39.155 125.665 39.6057C124.513 40.0563 123.28 40.2624 122.044 40.2107H108.98V14.0277H128.465V17.1243H112.519V22.6607H122.08ZM126.357 27.5407C125.785 26.9249 125.083 26.4432 124.302 26.1303C123.521 25.8173 122.68 25.6809 121.84 25.7307H112.519V37.0875H122.089C122.9 37.1265 123.711 36.9825 124.459 36.666C125.207 36.3496 125.874 35.8689 126.411 35.2598C127.356 34.1933 127.856 32.8056 127.807 31.3825C127.836 30.6733 127.723 29.9654 127.476 29.2999C127.229 28.6343 126.851 28.0243 126.366 27.5052L126.357 27.5407Z" fill="#ADBBD7"/>
<path d="M138.426 35.2597L155.154 14.0366H158.649V40.184H155.288V18.9609L138.461 40.184H135.011V14.0277H138.417L138.426 35.2597Z" fill="#ADBBD7"/>
<path d="M185.872 17.4346C187.131 18.71 188.124 20.2228 188.791 21.8847C189.458 23.5467 189.787 25.3245 189.758 27.1146C189.795 28.861 189.482 30.5971 188.838 32.2213C188.193 33.8454 187.23 35.3248 186.005 36.5728C184.706 37.9124 183.141 38.9683 181.412 39.6739C179.682 40.3794 177.824 40.7193 175.956 40.6719C174.047 40.6978 172.152 40.3297 170.392 39.5907C168.632 38.8518 167.045 37.7578 165.728 36.3776C163.433 33.8471 162.165 30.5542 162.171 27.1412C162.149 25.3328 162.493 23.5385 163.185 21.8666C163.876 20.1946 164.899 18.6796 166.193 17.4129C167.487 16.1461 169.024 15.1538 170.713 14.4957C172.402 13.8377 174.206 13.5275 176.018 13.5839C177.834 13.5461 179.639 13.8668 181.33 14.5276C183.022 15.1885 184.565 16.1764 185.872 17.4346ZM168.432 34.3369C169.394 35.3752 170.564 36.1996 171.866 36.7561C173.169 37.3126 174.575 37.5887 175.991 37.5665C177.391 37.5913 178.781 37.3204 180.068 36.7714C181.356 36.2224 182.512 35.4079 183.462 34.3813C185.271 32.3926 186.254 29.7912 186.21 27.1057C186.263 24.3972 185.262 21.7735 183.417 19.7859C182.459 18.7854 181.306 17.9907 180.029 17.4506C178.752 16.9105 177.378 16.6364 175.991 16.645C174.581 16.639 173.184 16.9182 171.885 17.4656C170.586 18.0131 169.411 18.8175 168.432 19.8302C166.623 21.8189 165.64 24.4203 165.684 27.1057C165.641 29.7778 166.624 32.3652 168.432 34.3369Z" fill="#ADBBD7"/>
<path d="M215.505 14.0277V37.0964H218.253V40.193H189.999V37.0876C190.823 37.1147 191.643 36.9711 192.409 36.6656C193.174 36.3602 193.868 35.8996 194.445 35.313C195.335 34.0152 195.89 32.5191 196.064 30.9566L198.465 14.0455L215.505 14.0277ZM201.462 17.1243L199.319 31.7729C199.147 33.7505 198.336 35.6189 197.007 37.0964H212.01V17.1243H201.462Z" fill="#ADBBD7"/>
<path d="M222.042 14.0277H242.052V17.2573H225.626V24.799H240.3V27.9843H225.626V36.9988H242.701V40.184H222.042V14.0277Z" fill="#ADBBD7"/>
<path d="M270.03 14.0277V40.184H266.535V27.6294H250.678V40.184H247.121V14.0277H250.678V24.5328H266.535V14.0277H270.03Z" fill="#ADBBD7"/>
<path d="M273.801 14.0277H298V17.1243H287.657V40.193H284.162V17.1243H273.801V14.0277Z" fill="#ADBBD7"/>
</svg>
