<svg width="299" height="72" viewBox="0 0 299 72" fill="none" xmlns="http://www.w3.org/2000/svg">
<path d="M279.164 34.6491H287.082C287.082 35.0126 287.082 35.5824 287.141 36.3683C287.201 37.1543 287.201 37.7241 287.201 38.0875C287.266 40.1284 286.899 42.1601 286.122 44.0507C285.479 45.5445 284.409 46.8184 283.044 47.715C281.623 48.6066 280.039 49.2108 278.383 49.4932C276.323 49.8429 274.237 50.0073 272.148 49.9844H266.457C262.65 49.9844 259.681 49.3295 257.55 48.0196C255.43 46.7609 253.852 44.7708 253.117 42.4297C252.22 39.3711 251.81 36.1926 251.899 33.0085C251.899 32.0261 251.899 30.4543 251.84 28.4109C251.78 26.3675 251.78 24.8252 251.78 23.8035C251.693 20.9528 252.085 18.1075 252.938 15.3843C253.573 13.4241 254.782 11.6965 256.412 10.4232C258.108 9.21747 260.063 8.42032 262.122 8.09491C264.992 7.63896 267.896 7.43187 270.802 7.476H273.513C275.85 7.42414 278.182 7.69863 280.441 8.29139C282.305 8.81759 283.906 10.0112 284.934 11.6414C285.392 12.3476 285.755 13.1106 286.013 13.9107C286.271 14.6113 286.46 15.3352 286.577 16.072C286.646 16.7007 286.735 17.6733 286.795 19.0192C286.854 20.3651 286.933 21.2984 286.973 21.8681H278.947C278.795 20.9381 278.699 19.9999 278.66 19.0585C278.689 17.8607 278.343 16.6835 277.67 15.6889C277.086 15.0012 275.918 14.5984 274.167 14.4903C273.342 14.4052 272.151 14.3626 270.594 14.3626H269.119C267.674 14.348 266.23 14.4598 264.804 14.6966C263.733 14.8448 262.737 15.3304 261.964 16.0818C260.77 17.2738 260.173 19.3336 260.173 22.2611C260.173 22.8604 260.173 23.4007 260.222 23.8919C260.272 24.3831 260.222 24.9823 260.222 25.67C260.222 29.2853 260.265 31.9901 260.351 33.7846C260.236 35.8874 260.531 37.9924 261.222 39.9836C261.488 40.6059 261.893 41.1597 262.408 41.6024C262.923 42.0451 263.532 42.3651 264.191 42.5378C266.296 43.0139 268.456 43.2153 270.614 43.1371C272.21 43.166 273.805 43.0642 275.384 42.8325C276.46 42.634 277.436 42.08 278.155 41.2607C279.009 40.1349 279.415 38.7354 279.293 37.3311C279.293 37.0036 279.273 36.5419 279.234 35.9459C279.194 35.3499 279.174 34.9111 279.174 34.6295" fill="#ADBBD7"/>
<path d="M236.411 41.6242H218.092L215.499 49.729H207.087L221.2 7.75113H233.076L247.416 49.7388H239.123L236.411 41.6242ZM234.55 35.6611L227.247 13.8911L219.953 35.6611H234.55Z" fill="#ADBBD7"/>
<path d="M202.723 7.75113V49.7388H194.825L195.063 14.3823L181.831 49.7388H174.547L161.068 14.5002L161.434 49.7388H153.527V7.75113H166.63L178.001 38.8146H178.248L189.491 7.75113H202.723Z" fill="#ADBBD7"/>
<path d="M18.4476 27.4286H36.984V28.4896L37.1126 35.2386C37.1537 37.6362 36.9314 40.031 36.4495 42.3807C36.0583 44.2608 35.078 45.9698 33.6488 47.2632C31.8622 48.7134 29.6667 49.5783 27.3644 49.7388C25.4643 49.9059 22.6734 49.9943 18.9523 49.9943C15.3123 50.1093 11.6756 49.6788 8.16498 48.7172C5.62135 47.9569 3.48568 46.2255 2.227 43.9034C0.907452 41.5456 0.247677 38.0909 0.247677 33.5391C0.247677 32.9398 0.247677 32.1736 0.247677 31.2206C0.247677 30.2677 0.148711 29.1281 0.109124 27.8215C0.0695378 26.5149 0.000261406 25.5424 0.000261406 24.8449C-0.00890865 22.4895 0.223206 20.1393 0.693025 17.8305C1.06501 15.8494 1.83948 13.9642 2.96925 12.2898C3.97608 10.8752 5.34178 9.75001 6.9279 9.02824C8.46053 8.31895 10.0977 7.85793 11.7772 7.6627C13.7161 7.45153 15.6658 7.35313 17.6163 7.36798H21.4462C24.4975 7.27532 27.548 7.57582 30.5215 8.26197C31.5319 8.52224 32.4798 8.98051 33.3092 9.60981C34.1386 10.2391 34.8328 11.0267 35.351 11.9263C36.4495 13.783 36.9939 16.6025 37.0136 20.3749H28.9479C29.0622 18.8576 28.5678 17.3568 27.5723 16.1997C26.6607 15.2682 25.4698 14.6548 24.1777 14.4511C22.5416 14.1923 20.886 14.074 19.2294 14.0974C17.0928 14.0316 14.9561 14.2229 12.8659 14.6672C11.6149 14.9214 10.5138 15.6512 9.79792 16.7008C9.17159 17.7392 8.80508 18.9115 8.72908 20.1195C8.61033 21.4294 8.51136 24.1113 8.43219 28.1654L8.56084 33.7061C8.51436 35.4476 8.67379 37.1885 9.03588 38.8932C9.26536 39.9693 9.82143 40.9499 10.6292 41.7028C11.5059 42.4016 12.5615 42.8438 13.6774 42.9799C15.4207 43.2288 17.1815 43.3372 18.9424 43.3041C21.0523 43.3701 23.1624 43.182 25.2268 42.7442C25.8664 42.5967 26.4649 42.3094 26.9785 41.9032C27.4921 41.497 27.908 40.9822 28.1957 40.3962C28.9075 38.5736 29.2147 36.6201 29.0963 34.6688V33.4016H18.4476V27.4286ZM49.4834 7.75112V42.6361H68.9797V49.7388H41.2692V7.75112H49.4834ZM72.8889 29.2362C72.847 25.8904 72.9957 22.5449 73.3343 19.2157C73.5639 16.9941 74.2368 14.8401 75.3136 12.8792C76.4697 10.9945 78.2348 9.55393 80.3213 8.79246C83.3234 7.73568 86.5006 7.25559 89.6835 7.37781C92.1997 7.35553 94.7149 7.48676 97.2148 7.77077C99.1974 8.00824 101.127 8.56921 102.925 9.43102C104.649 10.2882 106.084 11.6267 107.052 13.282C108.198 15.3968 108.806 17.7575 108.824 20.1588C108.913 21.3966 108.952 23.273 108.952 25.8174V28.6369C108.998 32.1657 108.853 35.6943 108.517 39.2075C108.317 41.3914 107.572 43.4915 106.349 45.3181C104.969 47.108 103.025 48.3877 100.827 48.9529C97.3947 49.8383 93.8512 50.2254 90.307 50.1023C87.566 50.1532 84.8278 49.9028 82.1423 49.3557C80.1579 48.9615 78.3061 48.0762 76.7585 46.7818C75.2888 45.4203 74.2387 43.6727 73.7301 41.7421C73.0158 39.0638 72.6827 36.2993 72.7405 33.5293C72.7405 32.9791 72.7405 32.2227 72.7998 31.2599C72.8592 30.2972 72.8889 29.6291 72.8889 29.2362ZM81.0536 29.1085C81.0536 32.3831 81.0965 34.8457 81.1823 36.4961C81.1881 38.0748 81.6149 39.6238 82.4194 40.9857C83.0719 41.936 84.0676 42.6008 85.2003 42.8424C86.829 43.1637 88.4885 43.3054 90.1486 43.2648C92.2272 43.3282 94.3055 43.1302 96.334 42.6754C97.004 42.5179 97.6334 42.2234 98.1821 41.8106C98.7309 41.3978 99.1868 40.876 99.5207 40.2783C100.339 38.4845 100.735 36.5292 100.679 34.5608C100.764 32.2685 100.807 28.8629 100.807 24.3438C100.879 22.2358 100.687 20.127 100.233 18.0663C100.078 17.4302 99.7822 16.8361 99.3681 16.3266C98.9541 15.8171 98.4317 15.4047 97.8383 15.1191C95.9917 14.4135 94.0142 14.1086 92.0389 14.2251C89.7105 14.14 87.3811 14.3614 85.1112 14.8833C84.4776 15.0279 83.8808 15.3005 83.3581 15.6842C82.8353 16.0678 82.3979 16.5544 82.073 17.1134C81.4106 18.6926 81.0968 20.3943 81.1526 22.104C81.1064 24.3962 81.0734 26.7311 81.0536 29.1085ZM113.465 49.7388V7.75112H135.109C139.107 7.75112 142.043 8.51412 143.917 10.0401C145.787 11.5628 146.728 14.3234 146.728 18.3119C146.753 19.8608 146.617 21.4081 146.322 22.9292C146.068 24.1211 145.47 25.2137 144.6 26.0729C143.53 27.0399 142.199 27.6751 140.77 27.9001V28.1457C143.409 28.5518 145.25 29.5113 146.292 31.0241C147.449 33.016 147.989 35.3017 147.846 37.5964C147.932 39.9667 147.545 42.3304 146.708 44.5518C145.986 46.2844 144.638 47.6862 142.927 48.4814C140.648 49.42 138.188 49.8493 135.723 49.7388H113.465ZM121.501 31.201V43.1371H131.744C133.294 43.181 134.845 43.0525 136.366 42.754C136.865 42.6493 137.339 42.4469 137.759 42.1584C138.178 41.87 138.536 41.5013 138.81 41.0741C139.445 39.8645 139.732 38.5052 139.642 37.1445C139.642 34.7278 139.167 33.1363 138.217 32.3799C137.266 31.6234 135.564 31.2403 133.1 31.2403L121.501 31.201ZM138.662 19.4122C138.662 17.4474 138.296 16.1212 137.563 15.4138C136.831 14.7065 135.475 14.343 133.476 14.343H121.501V25.3557H131.744C133.136 25.398 134.527 25.2559 135.881 24.9333C136.339 24.8204 136.766 24.61 137.134 24.3164C137.501 24.0229 137.8 23.6535 138.009 23.2337C138.507 22.0266 138.73 20.7249 138.662 19.422V19.4122Z" fill="#ADBBD7"/>
<path d="M286.013 62.2546H282.381C281.835 62.2193 281.287 62.2894 280.768 62.4609C280.451 62.6279 280.292 63.0307 280.292 63.6594C280.296 63.6789 280.296 63.6989 280.292 63.7184C280.288 63.7378 280.288 63.7579 280.292 63.7773C280.292 64.7073 281.031 65.1723 282.509 65.1723H282.925H283.39H286.013V62.2546ZM287.626 61.4097V68.7679H286.013V66.0958H281.797C281.496 66.0874 281.199 66.1696 280.946 66.3316C280.708 66.4887 280.589 66.6361 280.589 66.7835L280.57 68.7679H278.937L279.016 66.9112V66.8424C279.026 66.5153 279.153 66.2024 279.372 65.9583C279.471 65.8259 279.6 65.7175 279.747 65.6409C279.894 65.5644 280.057 65.5218 280.223 65.5162C279.816 65.3405 279.433 65.1126 279.085 64.8383C278.968 64.7335 278.875 64.6044 278.814 64.4601C278.752 64.3158 278.723 64.1599 278.729 64.0033C278.705 63.4656 278.8 62.9293 279.006 62.4314C279.109 62.2398 279.249 62.0705 279.419 61.9338C279.589 61.7972 279.785 61.6958 279.996 61.6357C280.695 61.4481 281.419 61.3653 282.143 61.3901L287.626 61.4097ZM274.572 61.4097V68.7679H273.147V67.7855C272.735 68.2049 272.215 68.5039 271.643 68.65C270.914 68.8036 270.17 68.8728 269.426 68.8563C268.442 68.9303 267.457 68.7151 266.596 68.2374C266.287 68.0148 266.041 67.7172 265.882 67.3731C265.722 67.0291 265.655 66.6501 265.685 66.2726V61.3606H267.348V66.2726C267.334 66.6111 267.402 66.9479 267.546 67.255C267.686 67.5091 267.92 67.6992 268.199 67.7855C268.691 67.9002 269.197 67.9498 269.703 67.9329C270.369 67.9574 271.036 67.888 271.682 67.7266C271.884 67.684 272.076 67.6022 272.245 67.4858C272.415 67.3695 272.56 67.2209 272.672 67.0487C272.873 66.6328 272.965 66.1732 272.939 65.7127V61.4097H274.572ZM259.836 64.3569V61.4097H261.42V68.7679H259.787V65.3H253.938V68.7679H252.364V61.4097H253.977V64.3569H259.836ZM240.488 66.4593C240.457 66.6966 240.491 66.9379 240.587 67.1576C240.683 67.3773 240.837 67.5671 241.033 67.7069C241.641 67.9652 242.303 68.0731 242.962 68.0213C243.668 68.0213 244.265 67.9984 244.754 67.9525C245.198 67.9182 245.629 67.791 246.02 67.5792C246.199 67.4887 246.346 67.3462 246.442 67.1707C246.537 66.9952 246.577 66.7951 246.555 66.5968C246.584 66.3484 246.526 66.0977 246.391 65.8866C246.256 65.6756 246.052 65.517 245.813 65.4376C245.081 65.2384 244.324 65.1523 243.566 65.1822H243.16C242.383 65.1134 241.601 65.2244 240.874 65.5064C240.597 65.6832 240.488 65.9877 240.488 66.4593ZM240.845 63.5121H239.182C239.129 63.1505 239.198 62.7817 239.376 62.4623C239.555 62.1429 239.834 61.8905 240.172 61.7438C241.222 61.4394 242.315 61.3099 243.408 61.3606C244.295 61.3426 245.183 61.4017 246.06 61.5375C246.631 61.6149 247.16 61.8774 247.564 62.2841C247.946 62.7548 248.133 63.3516 248.089 63.9542V68.7679H246.555L246.654 67.9918C246.235 68.3614 245.721 68.6095 245.169 68.709C244.454 68.8383 243.729 68.8975 243.002 68.8858C242.213 68.8999 241.424 68.8407 240.647 68.709C240.124 68.6296 239.639 68.389 239.261 68.0213C238.912 67.6078 238.738 67.076 238.776 66.5379C238.758 66.2795 238.795 66.0204 238.884 65.7768C238.972 65.5333 239.111 65.3107 239.291 65.1232C239.687 64.7718 240.18 64.546 240.706 64.4748C241.459 64.3578 242.22 64.3052 242.982 64.3176C243.687 64.3092 244.392 64.3519 245.09 64.4454C245.594 64.5044 246.065 64.7212 246.436 65.0643V64.2096C246.466 63.7454 246.384 63.2808 246.199 62.8539C246.105 62.7038 245.979 62.5758 245.831 62.4791C245.682 62.3824 245.514 62.3191 245.338 62.2939C244.684 62.1855 244.021 62.1394 243.358 62.1564C242.655 62.103 241.949 62.2036 241.29 62.4511C241.137 62.5209 241.01 62.6357 240.925 62.7797C240.84 62.9238 240.801 63.0903 240.815 63.2567C240.808 63.299 240.808 63.342 240.815 63.3844C240.831 63.4385 240.835 63.4957 240.825 63.5514L240.845 63.5121ZM227.158 67.9034H230.057H230.522H230.997C231.479 67.9305 231.96 67.8464 232.403 67.6578C232.752 67.5072 232.927 67.1502 232.927 66.587C232.947 66.3866 232.905 66.1849 232.806 66.0092C232.707 65.8334 232.556 65.6922 232.373 65.6046C231.812 65.4363 231.227 65.3632 230.641 65.3885H227.158V67.9034ZM232.452 62.4413C231.892 62.2549 231.3 62.1782 230.71 62.2153H229.058H227.148V64.4945H231.274C231.607 64.4993 231.938 64.4697 232.264 64.4061C232.36 64.3896 232.451 64.3542 232.533 64.3018C232.615 64.2495 232.685 64.1814 232.739 64.1015C232.84 63.8867 232.884 63.6502 232.868 63.4138C232.89 63.2345 232.862 63.0524 232.787 62.8878C232.712 62.7231 232.593 62.5822 232.442 62.4806L232.452 62.4413ZM225.584 68.7679V61.4097H230.324C230.985 61.4031 231.646 61.4294 232.304 61.4883C232.788 61.5318 233.258 61.6686 233.689 61.8911C233.962 62.0537 234.18 62.292 234.317 62.5767C234.455 62.8614 234.505 63.1798 234.461 63.4924C234.487 63.6821 234.474 63.8752 234.421 64.0594C234.369 64.2436 234.278 64.415 234.155 64.5627C234.032 64.7104 233.88 64.8312 233.708 64.9175C233.536 65.0039 233.347 65.0538 233.155 65.0643C233.536 65.1239 233.885 65.3111 234.145 65.5948C234.371 65.8725 234.494 66.2197 234.491 66.5772C234.516 67.0092 234.405 67.4382 234.174 67.8052C233.949 68.115 233.63 68.3456 233.264 68.4634C232.835 68.6076 232.389 68.6935 231.938 68.7188C231.443 68.7188 230.79 68.7679 229.958 68.7679H225.584ZM213.441 65.4769C213.441 66.6165 213.659 67.3434 214.094 67.6676C214.636 67.9244 215.237 68.0329 215.836 67.982H216.618C217.168 67.9921 217.718 67.9526 218.26 67.8641C218.63 67.8217 218.977 67.6634 219.25 67.4122C219.493 67.1397 219.636 66.7934 219.656 66.4298C219.656 66.0368 219.656 65.4474 219.656 64.7401C219.675 64.2129 219.632 63.6854 219.527 63.1682C219.478 62.9999 219.39 62.8454 219.27 62.7173C219.149 62.5892 219 62.4913 218.834 62.4314C218.238 62.236 217.611 62.1527 216.984 62.1858H216.637C215.933 62.1603 215.228 62.2231 214.539 62.3725C214.351 62.4116 214.175 62.4942 214.026 62.6138C213.876 62.7333 213.757 62.8863 213.678 63.0602C213.505 63.5757 213.432 64.1189 213.461 64.6615L213.441 65.4769ZM211.788 64.8874C211.756 64.1681 211.87 63.4496 212.125 62.7753C212.256 62.5061 212.442 62.2663 212.67 62.0704C212.898 61.8745 213.163 61.7266 213.451 61.6357C214.395 61.3453 215.383 61.219 216.37 61.2624C217.422 61.2278 218.474 61.3335 219.497 61.5768C219.8 61.6437 220.084 61.7726 220.333 61.9554C220.582 62.1381 220.79 62.3706 220.942 62.6377C221.237 63.3261 221.369 64.072 221.328 64.8187C221.353 65.5975 221.28 66.3763 221.111 67.1371C221.016 67.4257 220.86 67.6908 220.654 67.9145C220.447 68.1382 220.195 68.3153 219.913 68.4339C218.94 68.8203 217.892 68.9881 216.845 68.9251C215.812 68.9536 214.78 68.8646 213.767 68.6598C213.149 68.5429 212.602 68.1902 212.243 67.6775C211.901 67.0381 211.744 66.3174 211.788 65.5948V64.8874ZM205.919 66.0958H207.532C207.574 66.706 207.415 67.313 207.077 67.8248C206.717 68.2514 206.215 68.537 205.662 68.6304C204.775 68.7974 203.873 68.8699 202.97 68.8465C202.08 68.8701 201.191 68.7943 200.318 68.6206C199.787 68.5254 199.296 68.2798 198.903 67.9132C198.599 67.5925 198.399 67.1887 198.329 66.754C198.243 66.1192 198.21 65.4785 198.23 64.8383C198.196 64.1293 198.331 63.4223 198.626 62.7753C198.943 62.2364 199.457 61.8391 200.061 61.6652C201.024 61.386 202.027 61.2632 203.03 61.3017C204.117 61.2543 205.205 61.4075 206.236 61.7536C206.597 61.8913 206.903 62.1425 207.107 62.4689C207.31 62.7953 207.401 63.1789 207.364 63.5612V63.8559H205.801C205.82 63.5098 205.73 63.1663 205.543 62.8735C205.344 62.6239 205.058 62.456 204.742 62.402C204.236 62.3052 203.722 62.2624 203.208 62.2743C202.49 62.2489 201.771 62.3149 201.07 62.4707C200.877 62.5127 200.696 62.5984 200.541 62.7211C200.387 62.8437 200.263 63.0001 200.179 63.1781C200.005 63.7 199.931 64.2499 199.962 64.799V65.5358C199.944 66.0326 200.001 66.5291 200.13 67.0094C200.197 67.1857 200.303 67.345 200.44 67.4758C200.577 67.6066 200.742 67.7056 200.922 67.7659C201.56 67.9728 202.23 68.0626 202.901 68.0311C203.54 68.046 204.179 68.0066 204.811 67.9132C204.986 67.8923 205.156 67.8363 205.309 67.7485C205.462 67.6607 205.596 67.5429 205.702 67.4024C205.911 67.0003 205.994 66.5451 205.939 66.0958H205.919ZM192.292 66.0958H193.905C193.947 66.706 193.787 67.313 193.45 67.8248C193.089 68.2514 192.587 68.537 192.034 68.6304C191.147 68.7974 190.245 68.8699 189.342 68.8465C188.453 68.8701 187.563 68.7943 186.69 68.6206C186.16 68.5254 185.668 68.2798 185.275 67.9132C184.971 67.5925 184.771 67.1887 184.701 66.754C184.609 66.123 184.569 65.4856 184.582 64.8481C184.548 64.1391 184.684 63.4322 184.978 62.7851C185.296 62.2462 185.809 61.8489 186.413 61.675C187.377 61.3958 188.379 61.2731 189.382 61.3115C190.47 61.2641 191.557 61.4173 192.589 61.7634C192.95 61.9011 193.255 62.1524 193.459 62.4788C193.663 62.8052 193.753 63.1888 193.717 63.571V63.8559H192.153C192.172 63.5099 192.082 63.1666 191.896 62.8735C191.696 62.6239 191.411 62.456 191.094 62.402C190.589 62.3052 190.075 62.2624 189.56 62.2743C188.842 62.2489 188.124 62.3149 187.423 62.4707C187.229 62.5127 187.048 62.5984 186.894 62.7211C186.739 62.8437 186.616 63.0001 186.532 63.1781C186.357 63.7 186.283 64.2499 186.314 64.799V65.5358C186.297 66.0326 186.353 66.5291 186.482 67.0094C186.55 67.1857 186.656 67.345 186.793 67.4758C186.93 67.6066 187.094 67.7056 187.274 67.7659C187.912 67.9728 188.583 68.0626 189.253 68.0311C189.892 68.046 190.531 68.0066 191.163 67.9132C191.339 67.8923 191.509 67.8363 191.662 67.7485C191.815 67.6607 191.948 67.5429 192.054 67.4024C192.267 67.0013 192.353 66.5461 192.302 66.0958H192.292ZM178.743 64.4355C178.768 63.9404 178.705 63.4448 178.555 62.9718C178.478 62.8064 178.362 62.6615 178.218 62.5488C178.073 62.4362 177.904 62.3589 177.724 62.3234C177.052 62.1752 176.363 62.1125 175.675 62.1367C175.038 62.1148 174.402 62.1843 173.785 62.343C173.597 62.3903 173.42 62.4759 173.267 62.5942C173.114 62.7126 172.987 62.8612 172.894 63.0307C172.706 63.4746 172.622 63.9547 172.647 64.4355H178.743ZM178.743 66.5379H180.436C180.462 66.821 180.426 67.1064 180.33 67.3744C180.234 67.6424 180.081 67.8865 179.881 68.0901C179.461 68.4522 178.94 68.6784 178.387 68.7384C177.537 68.8501 176.681 68.8993 175.824 68.8858C174.998 68.9003 174.173 68.8378 173.359 68.6991C172.833 68.6187 172.334 68.4131 171.905 68.0999C171.558 67.8198 171.308 67.4382 171.192 67.0094C171.045 66.4418 170.978 65.8565 170.994 65.2706C170.965 64.5043 171.058 63.7383 171.271 63.0012C171.384 62.7159 171.556 62.4573 171.776 62.2424C171.996 62.0274 172.259 61.8609 172.548 61.7536C173.518 61.4093 174.547 61.2591 175.576 61.3115C176.604 61.2762 177.631 61.372 178.634 61.5964C178.922 61.6565 179.195 61.7747 179.435 61.9437C179.675 62.1127 179.877 62.3289 180.03 62.5788C180.323 63.2542 180.461 63.9856 180.436 64.7204V65.2902H172.677C172.657 65.7974 172.697 66.3051 172.795 66.8031C172.852 66.9908 172.95 67.1638 173.082 67.3098C173.213 67.4558 173.376 67.5713 173.557 67.648C174.186 67.894 174.862 68.0013 175.537 67.9623H175.962C176.653 67.9856 177.343 67.9095 178.011 67.7364C178.219 67.6715 178.4 67.54 178.526 67.3623C178.651 67.1846 178.714 66.9707 178.704 66.754L178.743 66.5379ZM158.95 64.8481V65.4179C158.932 65.8974 158.999 66.3762 159.148 66.8326C159.312 67.2132 159.622 67.5136 160.009 67.6676C160.639 67.9073 161.314 68.0112 161.988 67.9722C162.681 68.0089 163.374 67.9088 164.027 67.6775C164.211 67.609 164.379 67.5015 164.517 67.3624C164.656 67.2233 164.762 67.0559 164.829 66.8719C164.957 66.3781 165.013 65.8687 164.997 65.359V64.9267C165.013 64.3955 164.963 63.8643 164.848 63.3451C164.788 63.1584 164.687 62.9875 164.551 62.8447C164.416 62.7019 164.25 62.591 164.067 62.5199C163.433 62.2912 162.76 62.191 162.087 62.2251C161.417 62.1958 160.746 62.2856 160.108 62.4904C159.916 62.5545 159.742 62.66 159.596 62.7993C159.451 62.9386 159.338 63.1083 159.267 63.296C159.073 63.7891 158.959 64.3097 158.93 64.8383L158.95 64.8481ZM157.357 61.4097H158.92L158.871 62.3921C159.255 61.9905 159.746 61.7045 160.286 61.5669C160.933 61.4074 161.599 61.3314 162.265 61.341C163.222 61.2945 164.178 61.4415 165.076 61.7732C165.355 61.8797 165.608 62.0419 165.821 62.2498C166.034 62.4576 166.201 62.7067 166.313 62.9816C166.529 63.6609 166.626 64.372 166.6 65.0839C166.611 65.6336 166.568 66.1831 166.471 66.7245C166.391 67.1444 166.204 67.5368 165.927 67.8641C165.591 68.2336 165.154 68.4996 164.67 68.6304C163.946 68.8339 163.195 68.9266 162.443 68.9054C161.736 68.918 161.029 68.8521 160.335 68.709C159.787 68.5983 159.284 68.3282 158.891 67.9329V72H157.357V61.4097ZM143.957 61.4097H145.411V62.3921C145.828 61.9565 146.359 61.6466 146.945 61.4982C147.657 61.3226 148.389 61.2401 149.123 61.2526C149.905 61.2294 150.688 61.312 151.448 61.4982C151.946 61.6192 152.382 61.916 152.675 62.3332C152.956 62.8156 153.09 63.3683 153.061 63.9247V68.8367H151.419V63.9935C151.441 63.6036 151.374 63.2137 151.221 62.8539C151.139 62.7147 151.029 62.5938 150.898 62.4991C150.767 62.4044 150.617 62.3379 150.459 62.3037C149.907 62.1793 149.342 62.1265 148.776 62.1465C146.645 62.1465 145.58 62.8539 145.58 64.2685V68.7679H143.966L143.957 61.4097ZM131.764 65.5064C131.764 66.6459 131.982 67.3729 132.417 67.6971C132.959 67.9539 133.56 68.0624 134.159 68.0115H134.941C135.491 68.0216 136.041 67.9821 136.584 67.8936C136.953 67.8505 137.3 67.6923 137.573 67.4417C137.816 67.1691 137.959 66.8228 137.979 66.4593C137.979 66.0663 137.979 65.4769 137.979 64.7696C137.998 64.2424 137.955 63.7148 137.85 63.1977C137.802 63.0294 137.713 62.8748 137.593 62.7468C137.473 62.6187 137.323 62.5208 137.158 62.4609C136.561 62.2655 135.934 62.1822 135.307 62.2153H134.961C134.256 62.1897 133.551 62.2524 132.862 62.402C132.674 62.441 132.498 62.5237 132.349 62.6432C132.199 62.7627 132.08 62.9157 132.001 63.0897C131.829 63.6052 131.755 64.1484 131.784 64.691L131.764 65.5064ZM130.131 64.8874C130.099 64.1681 130.213 63.4496 130.467 62.7753C130.599 62.5058 130.784 62.2657 131.012 62.0698C131.24 61.8738 131.506 61.7261 131.794 61.6357C132.738 61.3453 133.726 61.219 134.713 61.2624C135.765 61.2278 136.817 61.3335 137.84 61.5768C138.143 61.6437 138.427 61.7726 138.676 61.9554C138.925 62.1381 139.132 62.3706 139.285 62.6377C139.58 63.3261 139.712 64.072 139.671 64.8187C139.696 65.5975 139.623 66.3763 139.454 67.1371C139.359 67.4257 139.203 67.6908 138.997 67.9145C138.79 68.1382 138.538 68.3153 138.256 68.4339C137.282 68.8203 136.235 68.9881 135.188 68.9251C134.155 68.9536 133.123 68.8646 132.11 68.6598C131.492 68.5429 130.945 68.1902 130.586 67.6775C130.244 67.0381 130.087 66.3174 130.131 65.5948V64.8874ZM118.136 64.8874V65.4572C118.118 65.9367 118.185 66.4156 118.334 66.8719C118.498 67.2525 118.808 67.5529 119.195 67.7069C119.826 67.9466 120.5 68.0505 121.175 68.0115C121.867 68.0482 122.56 67.9481 123.213 67.7167C123.398 67.6483 123.565 67.5408 123.704 67.4017C123.842 67.2626 123.948 67.0952 124.015 66.9112C124.143 66.4174 124.2 65.908 124.183 65.3983V64.966C124.199 64.4348 124.15 63.9035 124.035 63.3844C123.974 63.1977 123.873 63.0268 123.738 62.884C123.602 62.7412 123.437 62.6303 123.253 62.5592C122.619 62.3307 121.946 62.2305 121.273 62.2644C120.603 62.2351 119.933 62.3249 119.294 62.5297C119.102 62.5932 118.927 62.6985 118.782 62.8379C118.636 62.9772 118.524 63.1472 118.453 63.3352C118.263 63.8159 118.149 64.323 118.116 64.8383L118.136 64.8874ZM116.553 61.4392H118.116L118.067 62.4216C118.451 62.02 118.942 61.734 119.482 61.5964C120.129 61.4369 120.795 61.3609 121.462 61.3705C122.418 61.3239 123.374 61.471 124.272 61.8027C124.551 61.9092 124.804 62.0714 125.017 62.2792C125.23 62.4871 125.398 62.7362 125.509 63.0111C125.725 63.6904 125.822 64.4015 125.796 65.1134C125.811 65.6461 125.774 66.179 125.687 66.7049C125.607 67.1247 125.42 67.5171 125.143 67.8445C124.807 68.214 124.37 68.4799 123.886 68.6107C123.162 68.8144 122.411 68.9071 121.659 68.8858C120.952 68.8982 120.245 68.8323 119.551 68.6893C119.003 68.5787 118.5 68.3085 118.107 67.9132V71.9804H116.543L116.553 61.4392ZM104.311 65.5358C104.311 66.6754 104.528 67.4024 104.964 67.7266C105.506 67.9834 106.107 68.0919 106.706 68.0409H107.487C108.038 68.051 108.587 68.0115 109.13 67.923C109.5 67.8807 109.847 67.7224 110.12 67.4711C110.363 67.1986 110.506 66.8523 110.526 66.4887C110.526 66.0958 110.526 65.5063 110.526 64.799C110.545 64.2719 110.502 63.7443 110.397 63.2272C110.348 63.0588 110.26 62.9043 110.14 62.7762C110.019 62.6482 109.87 62.5502 109.704 62.4904C109.108 62.295 108.481 62.2117 107.854 62.2448H107.507C106.803 62.2192 106.098 62.2819 105.409 62.4314C105.221 62.4705 105.045 62.5532 104.896 62.6727C104.746 62.7922 104.627 62.9452 104.548 63.1191C104.376 63.6347 104.302 64.1778 104.33 64.7204L104.311 65.5358ZM102.678 61.6062C102.686 61.5509 102.686 61.4946 102.678 61.4392C102.673 61.3902 102.673 61.3409 102.678 61.2919C102.669 60.8586 102.824 60.4379 103.113 60.113C103.485 59.7286 103.958 59.4562 104.479 59.3271C105.247 59.1233 106.04 59.0306 106.834 59.052H107.29H107.695H108.071C108.61 59.0797 109.149 59.0132 109.665 58.8555C109.802 58.8135 109.923 58.7288 110.008 58.6139C110.094 58.4989 110.14 58.3598 110.14 58.2169H111.882C111.882 58.4429 111.882 58.6197 111.882 58.7573C111.875 58.896 111.834 59.0309 111.763 59.1502C111.659 59.3009 111.515 59.42 111.347 59.4941C110.388 59.906 109.34 60.0715 108.299 59.9754H107.893H107.468C106.722 59.9464 105.976 60.0394 105.261 60.2505C105.024 60.3231 104.818 60.4734 104.678 60.6768C104.538 60.8801 104.471 61.1247 104.489 61.3705V61.7339C105.404 61.4154 106.369 61.2624 107.339 61.282C108.391 61.2475 109.443 61.3533 110.466 61.5964C110.753 61.6708 111.021 61.8012 111.255 61.98C111.49 62.1589 111.686 62.3825 111.832 62.6377C112.126 63.3261 112.258 64.072 112.218 64.8187C112.243 65.5975 112.17 66.3763 112 67.1371C111.906 67.4257 111.75 67.6908 111.543 67.9145C111.337 68.1382 111.084 68.3153 110.803 68.4339C109.829 68.8206 108.782 68.9884 107.735 68.9251C106.702 68.9535 105.669 68.8645 104.657 68.6598C104.039 68.5438 103.491 68.1909 103.133 67.6775C102.789 67.0352 102.631 66.3108 102.678 65.5849V61.6062ZM98.4717 61.3999V68.7679H96.9872V67.7855C96.5746 68.2045 96.0544 68.5034 95.4829 68.65C94.7544 68.8035 94.0105 68.8727 93.266 68.8563C92.2818 68.9303 91.2974 68.7151 90.4356 68.2374C90.127 68.0148 89.8812 67.7172 89.7218 67.3731C89.5623 67.0291 89.4946 66.6501 89.5251 66.2726V61.3606H91.1878V66.2726C91.1734 66.6111 91.2413 66.948 91.3857 67.255C91.5261 67.5091 91.7602 67.6992 92.0389 67.7855C92.5316 67.9002 93.0374 67.9498 93.5432 67.9329C94.2094 67.9573 94.8758 67.8878 95.5225 67.7266C95.7243 67.684 95.9157 67.6022 96.0856 67.4858C96.2554 67.3695 96.4004 67.2209 96.5121 67.0487C96.7135 66.6329 96.8054 66.1733 96.7794 65.7127V61.4097L98.4717 61.3999ZM77.9659 67.9329H80.8656H81.3307H81.8058C82.287 67.96 82.7681 67.8759 83.2111 67.6873C83.5608 67.5366 83.7356 67.1797 83.7356 66.6165C83.755 66.415 83.7112 66.2125 83.6102 66.0366C83.5092 65.8608 83.356 65.7202 83.1715 65.6341C82.6106 65.4658 82.025 65.3927 81.4396 65.4179H77.9659V67.9329ZM83.2606 62.4707C82.7001 62.2846 82.1086 62.2079 81.5188 62.2448H79.866H77.956V64.524H82.1422C82.4743 64.5288 82.806 64.4991 83.1319 64.4355C83.2278 64.4196 83.3195 64.3844 83.4012 64.332C83.4829 64.2797 83.5529 64.2112 83.6069 64.131C83.7076 63.9162 83.7518 63.6796 83.7356 63.4433C83.7589 63.2544 83.7264 63.0629 83.642 62.8919C83.5577 62.721 83.4252 62.5781 83.2606 62.4806V62.4707ZM76.4022 68.7679V61.4097H81.1526C81.8133 61.4031 82.4739 61.4294 83.1319 61.4883C83.6158 61.5315 84.0865 61.6684 84.5174 61.8911C84.7899 62.0537 85.0084 62.292 85.1456 62.5767C85.2828 62.8614 85.3328 63.1798 85.2894 63.4924C85.3156 63.6821 85.302 63.8752 85.2494 64.0594C85.1967 64.2436 85.1061 64.415 84.9833 64.5627C84.8606 64.7104 84.7083 64.8312 84.5361 64.9175C84.364 65.0039 84.1756 65.0538 83.983 65.0643C84.3639 65.1247 84.7129 65.3117 84.9727 65.5948C85.1993 65.8725 85.3218 66.2197 85.3191 66.5772C85.3439 67.0092 85.2333 67.4382 85.0024 67.8052C84.7766 68.1146 84.4578 68.345 84.0919 68.4634C83.6635 68.6076 83.2174 68.6935 82.7657 68.7188C82.2709 68.7188 81.6177 68.7679 80.7864 68.7679H76.4022ZM62.1214 61.4097V68.7679H60.6369V67.7855C60.2242 68.2045 59.7041 68.5034 59.1326 68.65C58.4041 68.8036 57.6602 68.8728 56.9157 68.8563C55.9315 68.9303 54.9471 68.7151 54.0853 68.2374C53.7767 68.0148 53.5309 67.7172 53.3715 67.3731C53.212 67.0291 53.1443 66.6501 53.1748 66.2726V61.3606H54.8374V66.2726C54.8235 66.6111 54.8914 66.9479 55.0354 67.255C55.1147 67.3813 55.2185 67.4907 55.3409 67.5767C55.4632 67.6628 55.6016 67.7237 55.7479 67.756C56.2406 67.8708 56.7464 67.9203 57.2522 67.9034C57.9185 67.9279 58.5849 67.8585 59.2315 67.6971C59.4334 67.6545 59.6248 67.5727 59.7946 67.4564C59.9645 67.34 60.1095 67.1915 60.2212 67.0192C60.4225 66.6034 60.5145 66.1438 60.4884 65.6832V61.4097H62.1214ZM49.0182 61.4097V68.7679H47.504V67.7855C47.0914 68.2045 46.5712 68.5034 45.9998 68.65C45.2713 68.8036 44.5274 68.8728 43.7829 68.8563C42.7987 68.9303 41.8143 68.7151 40.9525 68.2374C40.6439 68.0148 40.3981 67.7172 40.2386 67.3731C40.0792 67.0291 40.0115 66.6501 40.042 66.2726V61.3606H41.7046V66.2726C41.6907 66.6111 41.7585 66.9479 41.9026 67.255C41.9818 67.3813 42.0857 67.4907 42.208 67.5767C42.3304 67.6628 42.4688 67.7237 42.6151 67.756C43.1078 67.8708 43.6136 67.9203 44.1194 67.9034C44.7857 67.9279 45.4521 67.8585 46.0987 67.6971C46.3006 67.6545 46.492 67.5727 46.6618 67.4564C46.8317 67.34 46.9767 67.1915 47.0884 67.0192C47.2893 66.6033 47.3812 66.1438 47.3556 65.6832V61.4097H49.0182ZM34.2822 64.3569V61.4097H35.8656V68.7679H34.2327V65.3H28.3937V68.7679H26.7805V61.4097H28.3937V64.3569H34.2822ZM22.5646 61.4097V68.7679H21.0801V67.7855C20.6674 68.2045 20.1472 68.5034 19.5758 68.65C18.8473 68.8035 18.1034 68.8727 17.3589 68.8563C16.3747 68.9303 15.3903 68.7151 14.5285 68.2374C14.2206 68.0141 13.9753 67.7164 13.816 67.3725C13.6566 67.0286 13.5885 66.65 13.618 66.2726V61.3606H15.2806V66.2726C15.2667 66.6111 15.3345 66.9479 15.4786 67.255C15.5578 67.3813 15.6617 67.4907 15.784 67.5767C15.9064 67.6628 16.0448 67.7237 16.1911 67.756C16.6838 67.8708 17.1896 67.9203 17.6954 67.9034C18.3617 67.9279 19.0281 67.8585 19.6747 67.6971C19.8766 67.6545 20.068 67.5727 20.2378 67.4564C20.4077 67.34 20.5527 67.1915 20.6644 67.0192C20.8653 66.6033 20.9572 66.1438 20.9316 65.6832V61.4097H22.5646ZM9.42183 68.7679H7.68992L4.72093 62.2251L1.61339 68.7679H0.000244141L3.55313 61.3901H5.81946L9.42183 68.7679Z" fill="#ADBBD7"/>
<path d="M292.693 4.68609H293.633C294.014 4.70453 294.396 4.67815 294.771 4.6075C294.917 4.56178 295.043 4.46824 295.128 4.34225C295.218 4.20181 295.263 4.03724 295.256 3.8707C295.265 3.68571 295.205 3.50395 295.088 3.35985C294.964 3.22433 294.796 3.13722 294.613 3.11425C294.507 3.11425 294.201 3.11425 293.693 3.11425H292.703L292.693 4.68609ZM291.426 8.28167V2.05326H294.098C294.592 2.02991 295.087 2.08631 295.563 2.22027C295.869 2.33179 296.127 2.5431 296.295 2.81953C296.481 3.11357 296.578 3.45477 296.573 3.80193C296.572 4.21123 296.421 4.60627 296.147 4.91204C295.817 5.24505 295.379 5.45054 294.91 5.49166C295.159 5.6312 295.386 5.80667 295.583 6.01233C295.852 6.31853 296.093 6.64722 296.305 6.99473L297.067 8.2129H295.553L294.643 6.87684C294.439 6.55798 294.214 6.25278 293.97 5.96321C293.863 5.84892 293.731 5.76137 293.584 5.70778C293.374 5.65275 293.157 5.62956 292.94 5.63902H292.683V8.28167H291.426Z" fill="#ADBBD7"/>
<path d="M297.077 1.90585C296.317 1.15373 295.317 0.68659 294.248 0.583979C293.18 0.481368 292.108 0.749636 291.217 1.3431C290.325 1.93655 289.668 2.8185 289.358 3.83874C289.048 4.85898 289.103 5.95441 289.515 6.93848C289.927 7.92254 290.67 8.73439 291.618 9.23575C292.565 9.73711 293.658 9.89698 294.711 9.68813C295.764 9.47928 296.711 8.91463 297.391 8.09035C298.072 7.26606 298.443 6.23311 298.443 5.16742C298.441 3.94352 297.95 2.7704 297.077 1.90585ZM293.782 7.86103e-07C294.989 -0.000659177 296.158 0.414247 297.092 1.17399C298.025 1.93373 298.664 2.99127 298.9 4.16632C299.135 5.34138 298.953 6.5612 298.384 7.61784C297.815 8.67447 296.895 9.50251 295.779 9.96079C294.664 10.4191 293.423 10.4792 292.268 10.131C291.114 9.78273 290.116 9.04766 289.446 8.05108C288.776 7.0545 288.475 5.8581 288.594 4.66585C288.714 3.47359 289.246 2.35928 290.1 1.51289C290.583 1.03309 291.157 0.652534 291.789 0.39295C292.421 0.133366 293.098 -0.000158765 293.782 7.86103e-07Z" fill="#ADBBD7"/>
</svg>
