<svg width="307" height="74" viewBox="0 0 307 74" fill="none" xmlns="http://www.w3.org/2000/svg">
<g clip-path="url(#clip0_1017_4199)">
<path d="M289.262 36.3743C289.262 57.5677 289.289 57.9757 290.654 60.3971C291.009 61.05 291.827 62.0022 292.482 62.4919C294.393 63.9338 295.866 64.2331 301.761 64.3963L307 64.5596V60.9684V57.4044H302.934C300.696 57.4044 298.54 57.2956 298.131 57.1324C296.685 56.5882 296.63 55.9897 296.63 43.6655V32.375H301.815H307V28.9743V25.5735H301.815H296.63V21.0846V16.5956H292.946H289.262V36.3743Z" fill="#151540"/>
<path d="M109.647 25.3015C101.978 26.689 96.4661 32.1301 94.8288 39.9382C94.283 42.3868 94.3103 47.3926 94.8561 50.0044C95.4292 52.7522 96.2751 54.8198 97.8033 57.1051C99.9318 60.2882 103.043 62.6279 106.809 63.825C109.81 64.8044 114.668 65.0221 117.779 64.3419C122.036 63.4169 125.665 61.0772 127.848 57.8125C128.94 56.1801 130.441 52.3713 130.441 51.2831V50.6029H126.811H123.182L122.827 51.8272C122.09 54.3029 120.044 56.3162 117.097 57.4316C114.859 58.275 110.766 58.0846 108.582 57.0507C106.836 56.2073 104.353 53.7588 103.452 52.0176C102.033 49.2698 101.542 44.3184 102.306 41.0809C103.206 37.4625 105.553 34.3338 108.501 32.8919C110.738 31.8037 113.931 31.5316 116.414 32.2118C119.471 33.0823 122.036 35.4493 122.854 38.1426L123.155 39.1765H126.811C130.959 39.1765 130.768 39.3125 130.004 36.7007C128.421 31.314 124.192 27.1787 118.843 25.7096C116.933 25.1926 111.502 24.9478 109.647 25.3015Z" fill="#151540"/>
<path d="M145.832 25.5736C140.319 27.0155 136.745 30.4163 135.899 35.0413C135.244 38.7685 136.444 42.4413 138.982 44.3185C139.774 44.8898 140.783 45.57 141.247 45.7876C142.612 46.495 146.132 47.3111 150.225 47.8825C155.765 48.6714 156.911 48.9435 158.221 49.7052C159.558 50.467 160.186 51.6097 160.186 53.242C160.186 54.6295 159.367 55.881 157.839 56.8604C156.147 57.9214 154.046 58.3295 150.989 58.1663C148.861 58.0575 148.179 57.8942 146.705 57.1597C143.976 55.8266 142.966 54.4663 142.311 51.3376L142.175 50.603H138.464H134.752L134.943 52.2898C135.598 58.4927 139.064 62.3016 145.723 64.1244C147.087 64.5052 148.479 64.6141 151.863 64.5869C155.847 64.5869 156.42 64.5325 158.412 63.8523C164.661 61.7847 167.854 57.5677 167.499 51.8273C167.308 48.9435 166.544 47.2023 164.716 45.4611C162.069 42.9854 159.613 42.142 151.317 40.945C146.023 40.1832 144.413 39.6663 143.621 38.4692C142.857 37.2994 142.994 35.3677 143.894 34.1979C146.214 31.178 153.036 30.6339 156.584 33.1913C158.221 34.3611 159.176 35.9119 159.312 37.7075L159.422 39.1766H163.078H166.735V37.5714C166.735 33.028 163.979 28.8655 159.558 26.7707C155.874 25.0295 149.898 24.5126 145.832 25.5736Z" fill="#151540"/>
<path d="M197.844 25.4376C190.967 26.8251 185.892 31.5317 183.927 38.3604C183.108 41.1626 182.89 46.4133 183.463 49.4332C184.827 56.5611 189.085 61.6214 195.525 63.8251C198.363 64.7773 203.439 65.0222 206.577 64.3692C209.387 63.7707 212.253 62.3016 214.299 60.3972C216.837 58.0575 218.011 55.8538 219.321 51.0655C219.43 50.6303 219.184 50.603 215.719 50.6575L211.98 50.7391L211.434 52.1538C210.752 54.031 208.896 56.017 206.931 56.9964C205.458 57.7582 205.158 57.8126 202.211 57.8126C199.372 57.8126 198.909 57.731 197.517 57.078C194.46 55.6633 192.114 52.6979 191.159 49.1067C190.64 47.0391 190.64 42.7405 191.159 40.7273C192.086 37.1633 194.542 34.0891 197.49 32.7016C198.909 32.0758 199.4 31.9942 202.074 31.967C204.612 31.967 205.294 32.0758 206.386 32.5655C209.005 33.7898 211.27 36.2111 211.652 38.2516L211.816 39.1766H215.609H219.403L219.239 38.4148C217.192 29.7089 210.888 24.9479 201.61 25.0567C200.519 25.0567 198.827 25.2472 197.844 25.4376Z" fill="#151540"/>
<path d="M236.458 25.4374C229.499 26.7433 224.615 31.858 224.587 37.8705V39.1764H228.244H231.874L232.01 37.8161C232.365 34.0889 236.376 31.6131 241.643 31.8852C246.855 32.1572 249.42 34.497 249.42 39.0131V41.0264L241.998 41.1624C237.713 41.244 233.975 41.4617 233.183 41.6249C226.58 43.2028 222.705 48.4808 223.496 54.7925C224.096 59.608 227.726 63.172 233.265 64.3418C235.639 64.8587 240.088 64.8587 242.271 64.3418C244.563 63.7977 247.019 62.519 248.629 61.0499L249.912 59.8256L250.457 61.0227C251.03 62.3286 252.258 63.3896 253.787 63.9065C254.305 64.097 256.243 64.3146 258.098 64.3962L261.427 64.5595V60.9683V57.4043H259.736C258.78 57.4043 257.825 57.2683 257.607 57.1322C257.252 56.9146 257.17 55.3095 257.034 46.4675C256.87 35.2587 256.816 34.8234 255.26 31.7764C253.896 29.083 250.648 26.6889 246.964 25.6823C244.727 25.0837 239.105 24.9477 236.458 25.4374ZM249.42 49.1065C249.42 51.3918 248.52 53.4595 246.719 55.255C244.481 57.4859 242.844 58.0572 238.641 58.0845C235.667 58.0845 235.23 58.03 234.029 57.4043C233.293 57.0234 232.31 56.2617 231.846 55.6903C231.082 54.7381 231 54.4389 231 52.7793C231 51.3102 231.11 50.7389 231.573 50.1675C233.183 47.9911 234.712 47.6646 243.089 47.6374L249.42 47.6102V49.1065Z" fill="#151540"/>
<path d="M264.702 45.0258V64.478H268.359H272.043L272.125 52.5619L272.207 40.6729L272.943 38.8229C274.717 34.2251 276.573 32.9736 282.112 32.7288L285.169 32.5655V29.0832V25.5736H282.576C278.183 25.5736 275.672 26.3626 273.435 28.4574L272.07 29.7361V27.6413V25.5736H268.386H264.702V45.0258Z" fill="#151540"/>
<rect x="16.1003" y="16.5957" width="57.5796" height="57.4044" rx="10" fill="url(#paint0_linear_1017_4199)"/>
<ellipse cx="8.73244" cy="8.70588" rx="8.73244" ry="8.70588" fill="#D9D9D9"/>
<ellipse cx="8.73244" cy="8.70588" rx="8.73244" ry="8.70588" fill="url(#paint1_linear_1017_4199)"/>
</g>
<defs>
<linearGradient id="paint0_linear_1017_4199" x1="73.6799" y1="16.5957" x2="16.2758" y2="74.175" gradientUnits="userSpaceOnUse">
<stop stop-color="#76C3FF"/>
<stop offset="1" stop-color="#7387FD"/>
</linearGradient>
<linearGradient id="paint1_linear_1017_4199" x1="17.4649" y1="0" x2="0.0532062" y2="17.4648" gradientUnits="userSpaceOnUse">
<stop stop-color="#76C3FF"/>
<stop offset="1" stop-color="#7387FD"/>
</linearGradient>
<clipPath id="clip0_1017_4199">
<rect width="307" height="74" fill="white"/>
</clipPath>
</defs>
</svg>
