<svg width="80" height="120" viewBox="0 0 80 120" fill="none" xmlns="http://www.w3.org/2000/svg">
<g clip-path="url(#clip0_1204_3729)">
<path d="M20.0038 120C31.0416 120 39.9998 111.04 39.9998 100V80H20.0038C8.96602 80 0.0078125 88.96 0.0078125 100C0.0078125 111.04 8.96602 120 20.0038 120Z" fill="#0ACF83"/>
<path d="M0.0078125 60C0.0078125 48.96 8.96602 40 20.0038 40H39.9998V80H20.0038C8.96602 80 0.0078125 71.04 0.0078125 60Z" fill="#A259FF"/>
<path d="M0.0078125 20C0.0078125 8.96 8.96602 0 20.0038 0H39.9998V40H20.0038C8.96602 40 0.0078125 31.04 0.0078125 20Z" fill="#F24E1E"/>
<path d="M40 0H59.996C71.0338 0 79.992 8.96 79.992 20C79.992 31.04 71.0338 40 59.996 40H40V0Z" fill="#FF7262"/>
<path d="M79.992 60C79.992 71.04 71.0338 80 59.996 80C48.9582 80 40 71.04 40 60C40 48.96 48.9582 40 59.996 40C71.0338 40 79.992 48.96 79.992 60Z" fill="#1ABCFE"/>
</g>
<defs>
<clipPath id="clip0_1204_3729">
<rect width="80" height="120" fill="white"/>
</clipPath>
</defs>
</svg>
