<svg width="215" height="116" viewBox="0 0 215 116" fill="none" xmlns="http://www.w3.org/2000/svg">
<g clip-path="url(#clip0_1204_3420)">
<mask id="mask0_1204_3420" style="mask-type:luminance" maskUnits="userSpaceOnUse" x="3" y="3" width="209" height="110">
<path d="M3.02344 58.0001C3.02344 88.3622 49.8003 112.976 107.5 112.976C165.2 112.976 211.977 88.3622 211.977 58.0001C211.977 27.6383 165.2 3.02409 107.5 3.02409C49.8003 3.02409 3.02344 27.6383 3.02344 58.0001Z" fill="white"/>
</mask>
<g mask="url(#mask0_1204_3420)">
<path d="M3.02344 58.0001C3.02344 88.3622 49.8003 112.976 107.5 112.976C165.2 112.976 211.977 88.3622 211.977 58.0001C211.977 27.6383 165.2 3.02409 107.5 3.02409C49.8003 3.02409 3.02344 27.6383 3.02344 58.0001Z" fill="url(#paint0_radial_1204_3420)"/>
</g>
<mask id="mask1_1204_3420" style="mask-type:luminance" maskUnits="userSpaceOnUse" x="-2" y="-4" width="219" height="124">
<path d="M-1.33008 -3.23604H216.33V119.236H-1.33008V-3.23604Z" fill="white"/>
</mask>
<g mask="url(#mask1_1204_3420)">
<path d="M107.499 108.894C162.945 108.894 207.895 86.108 207.895 57.9999C207.895 29.8922 162.945 7.10559 107.499 7.10559C52.0529 7.10559 7.10352 29.8922 7.10352 57.9999C7.10352 86.108 52.0529 108.894 107.499 108.894Z" fill="#777BB3"/>
</g>
<mask id="mask2_1204_3420" style="mask-type:luminance" maskUnits="userSpaceOnUse" x="-2" y="-4" width="219" height="124">
<path d="M-1.33008 -3.23604H216.33V119.236H-1.33008V-3.23604Z" fill="white"/>
</mask>
<g mask="url(#mask2_1204_3420)">
<path d="M59.786 64.3102C64.3451 64.3102 67.7487 63.4691 69.9022 61.8112C72.0327 60.1703 73.5042 57.3274 74.2755 53.3617C74.9946 49.6551 74.7206 47.0669 73.4615 45.6702C72.1741 44.2436 69.3906 43.5201 65.1885 43.5201H57.9026L53.8634 64.3102H59.786ZM35.9556 89.9197C35.6174 89.9197 35.2962 89.7685 35.0812 89.5069C34.8658 89.2457 34.7785 88.9017 34.8431 88.5695L45.5478 33.4755C45.6513 32.9429 46.118 32.5581 46.6606 32.5581H69.7318C76.9826 32.5581 82.3795 34.5275 85.7718 38.4122C89.1821 42.3173 90.2353 47.776 88.9018 54.6364C88.3591 57.4313 87.4257 60.027 86.1277 62.351C84.8282 64.6776 83.1107 66.8303 81.0222 68.7505C78.5221 71.0911 75.6925 72.7883 72.6196 73.787C69.5954 74.7724 65.7115 75.2722 61.076 75.2722H51.7341L49.0662 89.0019C48.9627 89.5349 48.4964 89.9197 47.9537 89.9197H35.9556Z" fill="black"/>
<path d="M58.838 44.6539H65.1894C70.261 44.6539 72.0227 45.7671 72.6212 46.4305C73.6143 47.532 73.8017 49.8544 73.1635 53.1465C72.4463 56.832 71.1169 59.4451 69.2116 60.9125C67.261 62.4146 64.0898 63.1759 59.7869 63.1759H55.2394L58.838 44.6539ZM69.7327 31.4239H46.6611C45.5759 31.4239 44.6429 32.1935 44.4358 33.2591L33.7312 88.353C33.6019 89.0179 33.7765 89.7055 34.2069 90.2283C34.6377 90.7511 35.2793 91.0535 35.9565 91.0535H47.9543C49.0399 91.0535 49.9729 90.2839 50.18 89.2183L52.6695 76.406H61.077C65.8315 76.406 69.834 75.8873 72.9723 74.8648C76.1998 73.8159 79.1692 72.0374 81.7973 69.5789C83.9709 67.5785 85.7613 65.3332 87.1179 62.9045C88.4749 60.4751 89.4498 57.766 90.0155 54.8524C91.4193 47.6311 90.2789 41.8484 86.6263 37.6662C83.0092 33.5241 77.3251 31.4239 69.7327 31.4239ZM52.4888 65.4439H59.7869C64.6241 65.4439 68.2272 64.5326 70.5947 62.7095C72.9625 60.886 74.5594 57.8427 75.3892 53.5781C76.1832 49.4836 75.8215 46.5942 74.3043 44.911C72.7852 43.2277 69.7475 42.3859 65.1894 42.3859H56.969L52.4888 65.4439ZM69.7327 33.6919C76.6733 33.6919 81.7365 35.5139 84.919 39.1582C88.1012 42.8025 89.0595 47.8892 87.7898 54.4199C87.2672 57.1102 86.3833 59.5698 85.139 61.7981C83.8931 64.028 82.2663 66.0669 80.256 67.9157C77.8602 70.1584 75.1988 71.7565 72.2702 72.7084C69.3416 73.6628 65.6115 74.1379 61.077 74.1379H50.8001L47.9543 88.7855H35.9565L46.6611 33.6919H69.7327Z" fill="white"/>
<path d="M116.412 75.2722C116.074 75.2722 115.753 75.121 115.538 74.8594C115.322 74.5982 115.235 74.2546 115.3 73.922L120.035 49.5451C120.485 47.2269 120.374 45.5629 119.722 44.8598C119.323 44.43 118.125 43.7092 114.58 43.7092H106.002L100.048 74.3544C99.9447 74.8874 99.4781 75.2722 98.9354 75.2722H87.0321C86.6936 75.2722 86.3727 75.121 86.1574 74.8594C85.942 74.5982 85.8547 74.2543 85.9193 73.922L96.6239 18.8281C96.7275 18.2955 97.1941 17.9107 97.7368 17.9107H109.64C109.979 17.9107 110.299 18.0619 110.515 18.3231C110.73 18.5846 110.818 18.9282 110.753 19.2609L108.17 32.5582H117.398C124.429 32.5582 129.196 33.798 131.973 36.3488C134.803 38.9509 135.686 43.1116 134.598 48.7166L129.618 74.3544C129.514 74.8874 129.048 75.2722 128.505 75.2722H116.412Z" fill="black"/>
<path d="M109.639 16.7764H97.7357C96.6501 16.7764 95.7171 17.5461 95.51 18.6116L84.8054 73.7056C84.6761 74.3705 84.8507 75.0581 85.2815 75.5808C85.7123 76.1036 86.3539 76.406 87.0311 76.406H98.9344C100.02 76.406 100.953 75.6364 101.16 74.5708L106.935 44.843H114.579C118.118 44.843 118.86 45.599 118.89 45.6315C119.105 45.8624 119.387 46.9322 118.921 49.3287L114.186 73.7056C114.056 74.3705 114.231 75.0581 114.662 75.5808C115.093 76.1036 115.734 76.406 116.411 76.406H128.504C129.589 76.406 130.522 75.6364 130.729 74.5708L135.709 48.9329C136.878 42.9148 135.878 38.4003 132.739 35.5139C129.743 32.7617 124.725 31.424 117.397 31.424H109.543L111.865 19.4773C111.994 18.8124 111.819 18.1244 111.389 17.602C110.958 17.0792 110.316 16.7764 109.639 16.7764ZM109.639 19.0444L106.793 33.692H117.397C124.07 33.692 128.672 34.857 131.205 37.1839C133.738 39.5124 134.496 43.2852 133.484 48.5005L128.504 74.138H116.411L121.147 49.7615C121.686 46.9885 121.487 45.097 120.552 44.0885C119.616 43.08 117.625 42.575 114.579 42.575H105.066L98.9344 74.138H87.0311L97.7357 19.0444H109.639Z" fill="white"/>
<path d="M153.432 64.3102C157.992 64.3102 161.395 63.4691 163.549 61.8112C165.679 60.1707 167.151 57.3277 167.922 53.3617C168.641 49.6551 168.367 47.0669 167.108 45.6702C165.82 44.2436 163.037 43.5201 158.835 43.5201H151.549L147.51 64.3102H153.432ZM129.602 89.9197C129.264 89.9197 128.943 89.7685 128.728 89.5069C128.513 89.2457 128.425 88.9017 128.49 88.5695L139.194 33.4755C139.298 32.9429 139.764 32.5581 140.307 32.5581H163.378C170.629 32.5581 176.026 34.5275 179.419 38.4122C182.829 42.317 183.882 47.7757 182.549 54.6364C182.005 57.4313 181.072 60.027 179.774 62.351C178.475 64.6776 176.757 66.8303 174.669 68.7505C172.169 71.0911 169.339 72.7883 166.266 73.787C163.242 74.7724 159.358 75.2722 154.722 75.2722H145.38L142.713 89.0019C142.609 89.5349 142.143 89.9197 141.6 89.9197H129.602Z" fill="black"/>
<path d="M152.482 44.6539H158.834C163.905 44.6539 165.667 45.7671 166.265 46.4305C167.259 47.532 167.446 49.8545 166.808 53.1461C166.09 56.832 164.761 59.4451 162.856 60.9125C160.905 62.4146 157.734 63.1759 153.431 63.1759H148.884L152.482 44.6539ZM163.377 31.4239H140.306C139.22 31.4239 138.287 32.1935 138.08 33.2591L127.376 88.353C127.246 89.0179 127.421 89.7055 127.851 90.2283C128.282 90.7511 128.924 91.0535 129.601 91.0535H141.599C142.684 91.0535 143.617 90.2839 143.825 89.2183L146.314 76.406H154.721C159.476 76.406 163.478 75.8873 166.616 74.8648C169.844 73.8159 172.814 72.037 175.442 69.5781C177.616 67.5781 179.405 65.3332 180.762 62.9045C182.119 60.4751 183.094 57.766 183.66 54.8524C185.063 47.6307 183.923 41.848 180.27 37.6658C176.653 33.5241 170.97 31.4239 163.377 31.4239ZM146.133 65.4439H153.431C158.268 65.4439 161.871 64.5326 164.239 62.7095C166.607 60.886 168.204 57.8427 169.033 53.5781C169.828 49.4836 169.466 46.5942 167.948 44.911C166.429 43.2277 163.392 42.3859 158.834 42.3859H150.613L146.133 65.4439ZM163.377 33.6919C170.317 33.6919 175.381 35.5139 178.563 39.1582C181.746 42.8025 182.704 47.8892 181.434 54.4199C180.911 57.1102 180.027 59.5698 178.783 61.7981C177.537 64.028 175.91 66.0669 173.9 67.9157C171.504 70.1584 168.843 71.7565 165.914 72.7084C162.986 73.6628 159.256 74.1379 154.721 74.1379H144.444L141.599 88.7855H129.601L140.306 33.6919H163.377Z" fill="white"/>
</g>
</g>
<defs>
<radialGradient id="paint0_radial_1204_3420" cx="0" cy="0" r="1" gradientUnits="userSpaceOnUse" gradientTransform="translate(65.7518 22.3519) scale(137.193 137.236)">
<stop stop-color="#AEB2D5"/>
<stop offset="0.3" stop-color="#AEB2D5"/>
<stop offset="0.75" stop-color="#484C89"/>
<stop offset="1" stop-color="#484C89"/>
</radialGradient>
<clipPath id="clip0_1204_3420">
<rect width="215" height="116" fill="white"/>
</clipPath>
</defs>
</svg>
