<svg width="40" height="40" viewBox="0 0 40 40" fill="none" xmlns="http://www.w3.org/2000/svg">
<g clip-path="url(#clip0_167_2729)">
<path d="M18 0C13.2261 0 8.64773 1.89642 5.27208 5.27208C1.89642 8.64773 0 13.2261 0 18C0 22.7739 1.89642 27.3523 5.27208 30.7279C8.64773 34.1036 13.2261 36 18 36C22.7739 36 27.3523 34.1036 30.7279 30.7279C34.1036 27.3523 36 22.7739 36 18C36 13.2261 34.1036 8.64773 30.7279 5.27208C27.3523 1.89642 22.7739 0 18 0V0ZM33 12.96C32.729 13.8469 32.2785 14.6686 31.6764 15.374C31.0742 16.0793 30.3334 16.6532 29.5 17.06C29.056 15.393 28.2355 13.8501 27.1017 12.5498C25.9679 11.2496 24.551 10.2268 22.96 9.56C23.2189 8.67259 23.7773 7.90226 24.54 7.38C23.68 6.82 22.54 6.54 21.86 7.52C20.8 8.9 21.86 10.74 22.28 11.52V11.8C21.1695 11.1265 20.3013 10.1181 19.8 8.92C17.8675 8.85793 15.9559 9.33582 14.28 10.3C14.106 9.1708 14.216 8.01606 14.6 6.94C15.3222 7.00894 16.0503 6.89904 16.72 6.62C17.3897 6.34096 17.9804 5.90136 18.44 5.34C19.36 4.3 18.18 2.98 17.26 2.18H17.98C20.7028 2.16163 23.3836 2.8508 25.76 4.18C27.1032 5.1727 28.2078 6.45275 28.9932 7.92674C29.7787 9.40073 30.2251 11.0315 30.3 12.7C30.78 12.7 31.7 11.6 32.12 10.86C32.464 11.538 32.758 12.24 33 12.96ZM18 33.68C13.9 29.52 18.5 26.18 16 23.2C14.16 21.5 11.42 22.68 9.78 20.74C9.50316 19.2937 9.62283 17.7995 10.1263 16.4157C10.6299 15.0319 11.4984 13.8102 12.64 12.88C13.68 12 20.64 10.88 23.48 13.32C25.1411 14.7507 26.3096 16.668 26.82 18.8C27.7378 18.8693 28.6558 18.6677 29.46 18.22C30.28 24.18 23.16 31.7 18 33.68ZM10.3 4.18C11.0644 3.88858 11.904 3.86014 12.6864 4.09919C13.4687 4.33823 14.1491 4.83112 14.62 5.5C13.78 6.26 12.74 6.76 11.62 6.94C11.6614 6.35109 11.7894 5.77152 12 5.22L10.3 4.18Z" fill="#DA1135"/>
</g>
<defs>
<clipPath id="clip0_167_2729">
<rect width="40" height="40" fill="white"/>
</clipPath>
</defs>
</svg>
