<svg width="230" height="123" viewBox="0 0 230 123" fill="none" xmlns="http://www.w3.org/2000/svg">
<g clip-path="url(#clip0_1204_3474)">
<path d="M42.6146 0.322205C37.3608 0.585777 30.3557 1.46435 30.3557 1.84506C30.3557 1.99149 30.1514 2.02077 29.8887 1.93291C29.2466 1.66935 23.2923 3.04578 19.1476 4.4222C15.6742 5.56435 10.1578 8.02435 9.98262 8.5222C9.92425 8.66863 9.74912 8.78577 9.60318 8.78577C9.13618 8.78577 6.04227 10.9822 5.34176 11.8315C4.96232 12.2415 4.55369 12.5929 4.43694 12.5929C4.11587 12.5929 2.01435 15.5801 1.25547 17.1322C0.934401 17.7765 0.496583 19.1822 0.321457 20.2365C-0.0871729 22.7551 -0.116361 97.2872 0.292269 100.274C0.730086 103.203 2.16029 105.751 4.78719 108.24C7.85191 111.139 8.20217 111.374 12.4052 113.453C16.5791 115.503 19.06 116.411 19.5854 116.089C19.8189 115.971 19.8481 116.001 19.7314 116.206C19.6146 116.411 19.7314 116.586 20.0524 116.616C20.7529 116.674 21.074 116.733 21.5994 116.938C23.7301 117.758 29.8595 119.046 34.442 119.603C47.4598 121.243 61.6742 120.569 73.1159 117.729C77.4065 116.645 82.6603 114.829 82.4268 114.478C82.3392 114.331 82.456 114.302 82.6895 114.39C82.923 114.478 83.9446 114.126 84.9369 113.629C90.3367 110.905 94.3354 107.332 96.1159 103.671L97.0499 101.768V60.3286V18.8893L96.3494 17.3665C95.9699 16.4879 95.5321 15.9022 95.357 16.0193C95.2111 16.1072 95.1527 16.0486 95.2402 15.9022C95.357 15.7265 95.0651 15.0822 94.5981 14.4672C93.6641 13.2079 90.7745 10.3086 90.7745 10.6308C90.7745 10.7479 90.5118 10.5722 90.1908 10.2501C89.8405 9.89863 89.4319 9.72292 89.2275 9.84006C89.0232 9.95721 88.9649 9.95721 89.0816 9.81078C89.3735 9.51792 87.3012 8.14149 86.9217 8.37578C86.7466 8.49292 86.6882 8.46363 86.7758 8.28792C87.0968 7.76077 77.9611 3.86578 77.3189 4.27577C77.173 4.36363 77.0562 4.30506 77.0562 4.15863C77.0562 3.69006 66.1108 1.20078 65.7314 1.58149C65.6438 1.66935 65.4395 1.64006 65.2644 1.49363C64.7973 1.11292 60.0981 0.615059 54.1438 0.292915C48.423 6.10352e-05 48.744 6.10352e-05 42.6146 0.322205ZM63.0461 9.60577C67.8621 10.3672 70.2847 10.8651 73.6996 11.8608C82.7479 14.5258 88.7314 18.5379 88.7314 21.9643C88.7314 22.7843 88.4395 23.4579 87.5055 24.6879C86.805 25.5958 86.1336 26.3572 86.0169 26.3572C85.6083 26.3572 84.3532 27.4408 84.4991 27.6458C84.5867 27.7336 84.5575 27.7629 84.4699 27.6751C84.1197 27.4408 83.1565 28.1436 83.3608 28.4658C83.4775 28.6708 83.4484 28.7001 83.2149 28.5829C82.7187 28.2608 81.6679 28.7001 81.843 29.1393C81.9306 29.3736 81.7847 29.4615 81.4344 29.3736C81.1717 29.2858 80.4128 29.4908 79.7707 29.8129C76.9687 31.2772 69.3215 33.2979 63.7758 34.0886C53.5017 35.5822 39.7542 35.3772 31.0854 33.6786C30.2973 33.5029 29.2466 33.3272 28.7504 33.2686C28.2834 33.2101 27.6704 33.0929 27.4369 33.0051C27.2034 32.8879 26.1527 32.6243 25.1019 32.3608C17.6298 30.5451 11.0334 26.9136 9.13618 23.6043C8.52323 22.5793 8.66917 20.7051 9.42805 19.7093C11.0334 17.5129 16.258 14.2036 19.7605 13.1786C20.4611 12.9736 20.9281 12.6808 20.8113 12.5051C20.7237 12.3293 20.7821 12.3001 20.9864 12.4172C21.1616 12.5343 22.1248 12.3879 23.1463 12.0658C27.2618 10.7479 30.7352 10.0743 37.3608 9.22506C42.5854 8.58077 57.8506 8.81506 63.0461 9.60577ZM12.4052 36.6951C19.2935 40.1215 29.2466 42.5229 40.0461 43.3722C45.5334 43.7822 57.442 43.5479 62.1704 42.9036C69.8468 41.8786 77.2897 40.0922 81.843 38.1886C84.324 37.1343 87.6222 35.4651 88.2352 34.9086C88.7022 34.4986 88.7314 34.8501 88.7314 41.7615C88.7314 49.7272 88.7314 49.6393 86.8925 51.6015C85.3456 53.2708 80.3836 55.9943 76.6476 57.2536C68.5334 59.9772 59.777 61.2072 48.744 61.2072C36.0182 61.2072 25.5397 59.4793 17.8341 56.0529C16.9877 55.6722 16.1704 55.4379 16.0245 55.5258C15.8786 55.6136 15.7618 55.5258 15.7618 55.3793C15.7618 54.9693 12.989 53.5636 12.6971 53.8272C12.5512 53.9443 12.5512 53.8858 12.6387 53.7101C12.7555 53.5051 12.3176 53.0072 11.6755 52.5679C11.0042 52.0993 10.0994 51.2208 9.63237 50.5472L8.75673 49.3758V41.9079C8.75673 34.8501 8.78592 34.4986 9.28212 34.9379C9.54481 35.1722 10.975 35.9922 12.4052 36.6951ZM19.7022 65.7465C33.7123 70.1686 51.838 71.1058 67.8621 68.2065C71.1895 67.5915 76.9687 66.1565 78.3989 65.5708C78.8659 65.3658 79.4204 65.1901 79.6539 65.1315C81.055 64.8386 87.6806 61.7636 88.0017 61.2072C88.5854 60.2408 88.7314 61.4708 88.7314 68.0015C88.7314 75.0301 88.7314 75.0593 88.0017 76.3186C87.593 77.0215 86.6298 78.0465 85.8709 78.6322C85.1121 79.1886 84.3532 79.7743 84.1489 79.9501C83.9446 80.0965 83.7402 80.2429 83.6527 80.2429C83.5651 80.2429 82.6019 80.7408 81.522 81.3265C80.442 81.9415 79.4204 82.4393 79.2453 82.4686C78.2821 82.6443 72.8824 84.6358 72.4737 84.9579C72.0651 85.3093 72.0067 85.3093 72.2402 84.9579C72.4154 84.6358 72.357 84.5772 71.9192 84.7529C70.81 85.1922 64.272 86.3636 60.1273 86.8908C54.9902 87.5058 43.2859 87.5643 38.2364 87.0079C34.1501 86.5686 27.8456 85.4265 24.8392 84.6065C23.6133 84.2551 22.4166 83.9622 22.1831 83.9329C21.9496 83.9329 21.6869 83.8158 21.5994 83.7279C21.5118 83.6401 20.7237 83.3179 19.8481 83.0251C15.7618 81.7072 11.2085 78.8665 9.63237 76.6701L8.75673 75.4693V68.2358V61.0022L12.2009 62.7301C14.0689 63.6965 17.4547 65.0436 19.7022 65.7465ZM9.71993 87.3593C9.83668 87.2715 9.92425 87.3008 9.92425 87.4765C9.92425 88.1793 19.1768 92.1622 20.0524 91.8401C20.2859 91.7522 20.4027 91.7815 20.3151 91.9279C20.1108 92.2208 24.9852 93.4801 29.4801 94.3293C37.244 95.7643 47.7225 96.3501 55.7491 95.7936C61.2364 95.4129 67.9788 94.5051 70.343 93.8315C71.2187 93.5972 72.2986 93.3336 72.7364 93.2751C74.4001 93.0408 78.4572 91.7522 81.7263 90.4929C82.6019 90.1415 83.5651 89.7901 83.8278 89.7022C84.1197 89.6143 84.2656 89.4093 84.1489 89.2336C84.0613 89.0872 84.1197 89.0286 84.2948 89.1458C84.4699 89.2336 85.4331 88.8822 86.4839 88.2965C87.5055 87.7401 88.4395 87.2715 88.527 87.2715C88.6438 87.2715 88.7314 90.0829 88.7314 93.5093V99.7765L87.8265 101.153C87.3303 101.885 86.659 102.646 86.3671 102.822C86.0461 102.969 85.8709 103.232 85.9585 103.379C86.0461 103.554 85.9585 103.613 85.7542 103.525C85.5499 103.437 85.0245 103.701 84.5867 104.111C84.1197 104.521 83.7694 104.784 83.7694 104.696C83.7694 104.579 83.4192 104.755 82.9814 105.048C79.6539 107.332 70.4014 110.026 62.1704 111.139C54.494 112.194 40.2796 112.018 33.2161 110.817C31.8151 110.583 30.5892 110.407 30.4433 110.436C30.3265 110.466 30.1514 110.466 30.0638 110.436C29.3925 110.202 21.9496 108.299 21.5994 108.269C21.3659 108.24 21.1032 108.152 21.0156 108.064C20.9281 107.976 19.7605 107.479 18.3887 106.922C14.8278 105.487 12.1425 103.789 10.3329 101.826L8.75673 100.128L8.72755 93.9193C8.72755 90.4929 8.66917 87.4765 8.6108 87.1836C8.52323 86.6858 8.55242 86.6858 9.01943 87.0958C9.3113 87.3593 9.63237 87.4765 9.71993 87.3593Z" fill="#EC6B15"/>
<path d="M174.398 36.6071C169.553 37.1343 165.145 39.0671 161.322 42.2886C160.563 42.9035 160.037 43.5478 160.154 43.7236C160.242 43.8993 160.213 43.9286 160.037 43.8407C159.658 43.6064 158.053 45.5686 156.214 48.5557C153.645 52.7728 152.449 57.7221 152.711 63.0814C152.886 66.0978 153.937 70.725 154.404 70.4321C154.55 70.3443 154.579 70.52 154.521 70.7836C154.433 71.0764 154.842 72.0721 155.426 73.0386C155.98 73.9757 156.447 74.825 156.447 74.9128C156.447 75.1178 158.578 77.695 159.921 79.1593C161.38 80.7114 163.686 82.3807 164.036 82.1464C164.211 82.0293 164.299 82.1171 164.27 82.3514C164.182 82.7614 169.348 85.5143 170.253 85.5143C170.72 85.5143 170.749 85.075 170.749 80.3014V75.0886L169.903 74.5907C169.465 74.3271 168.969 74.21 168.852 74.3271C168.706 74.4443 168.706 74.3564 168.823 74.1514C168.94 73.9757 168.911 73.8 168.735 73.8C168.239 73.8 165.379 70.6371 164.708 69.3486C163.131 66.215 162.985 65.7464 162.898 63.0521C162.81 59.8014 163.219 57.5757 164.357 55.145C164.853 54.12 165.233 53.2121 165.262 53.095C165.291 52.9486 165.671 52.4507 166.138 51.9821C166.576 51.4843 166.955 50.9571 166.955 50.7814C166.955 50.5764 167.159 50.3421 167.422 50.2543C167.655 50.1664 167.772 49.9321 167.655 49.7564C167.539 49.5514 167.568 49.4928 167.743 49.5807C168.122 49.815 168.794 49.0828 168.502 48.79C168.385 48.6728 168.502 48.6728 168.765 48.7607C169.056 48.8778 169.378 48.7314 169.611 48.38C169.845 48.0578 170.078 47.8236 170.166 47.8236C170.253 47.8236 170.866 47.5307 171.537 47.1793C175.624 45.1 180.848 45.2464 184.293 47.5307C191.093 52.07 193.808 61.1486 190.539 68.5871C188.875 72.4236 186.744 74.7957 184.176 75.7036C183.475 75.9378 182.833 76.1428 182.687 76.1428C182.541 76.1428 182.425 74.6786 182.425 72.9214V69.7H178.192H173.96V81.2678V92.8357H178.484H182.979L183.067 89.8778L183.154 86.9493L185.343 86.2171C190.218 84.5478 194.012 81.7071 197.252 77.285C198.74 75.235 200.579 71.3107 201.221 68.8214C201.922 66.1564 202.126 61.1778 201.688 57.8978C201.28 54.7936 199.733 49.6978 199.266 49.9907C199.091 50.0786 199.062 50.02 199.178 49.8443C199.383 49.4928 197.982 47.0036 196.756 45.51C196.347 45.0121 195.617 44.1336 195.15 43.5478C194.713 42.9328 194.012 42.3764 193.633 42.2886C193.253 42.2007 192.99 41.9957 193.078 41.8493C193.282 41.5564 190.305 39.5357 188.262 38.5986C184.701 36.9585 178.834 36.1093 174.398 36.6071Z" fill="#EC6B15"/>
<path d="M126.414 37.6615C123.232 38.5107 119.672 40.6779 119.672 41.7615C119.672 41.9957 119.555 42.1715 119.409 42.1715C119.263 42.1715 118.913 42.7572 118.621 43.4893C117.949 45.305 118.183 49.5222 119.088 51.9822C119.467 52.9486 119.905 53.8272 120.08 53.9443C120.255 54.0615 120.285 54.1786 120.168 54.1786C120.022 54.1786 120.168 54.53 120.489 54.9693C120.781 55.4379 121.131 56.0236 121.219 56.3165C121.335 56.6093 121.54 56.7557 121.715 56.6679C121.89 56.58 121.919 56.6679 121.831 56.9315C121.598 57.5757 127.903 64.0186 128.457 63.6965C128.691 63.55 128.778 63.55 128.661 63.6672C128.37 64.0186 129.654 65.3365 130.121 65.1607C130.325 65.1022 130.442 65.1315 130.354 65.2779C130.121 65.6293 133.944 68.88 134.324 68.6457C134.499 68.5286 134.587 68.5579 134.47 68.7043C134.382 68.8507 134.937 69.6122 135.725 70.4029C138.556 73.2729 138.76 74.8543 136.367 75.9379C135.054 76.5529 134.645 76.5822 126.735 76.5529L118.475 76.5236L118.562 81.0922L118.65 85.6607L126.939 85.7486C131.639 85.7779 135.929 85.69 136.834 85.5143C139.14 85.1043 142.38 83.435 144.277 81.6779C145.182 80.8579 145.882 80.0672 145.795 79.95C145.736 79.8329 145.911 79.5107 146.232 79.2179C146.933 78.5736 147.984 75.3229 147.984 73.7707C147.984 71.2815 146.174 66.1857 145.298 66.1857C145.123 66.1857 145.065 66.0979 145.153 66.01C145.357 65.805 144.073 64.0186 142.701 62.5543C142.205 62.0565 141.767 61.8222 141.533 61.9393C141.3 62.0857 141.241 62.0565 141.387 61.8222C141.621 61.4707 140.191 60.1236 139.724 60.27C139.578 60.2993 139.548 60.2115 139.665 60.065C139.84 59.7722 138.673 58.9815 138.264 59.0986C138.118 59.1279 138.089 59.0693 138.147 58.9522C138.235 58.8057 137.126 57.7807 135.696 56.6679C134.236 55.5257 132.543 54.1786 131.901 53.6515C131.23 53.1243 130.559 52.5972 130.354 52.48C130.179 52.3629 129.566 51.7186 129.041 51.0157C127.786 49.405 127.757 48.175 128.895 47.2379C130.413 46.0372 131.93 45.8322 139.169 45.8615L145.941 45.92V41.5857V37.2222H136.98C130.004 37.2222 127.64 37.31 126.414 37.6615Z" fill="#EC6B15"/>
<path d="M206.941 56.58C206.941 73.3021 207.029 76.2014 207.408 77.8121C207.671 78.8078 207.963 79.6571 208.08 79.6571C208.196 79.6571 208.459 80.0964 208.634 80.5943C208.839 81.1214 209.393 82 209.86 82.5564C210.619 83.4643 210.765 83.5228 211.232 83.1421C211.699 82.7614 211.728 82.7907 211.378 83.23C211.057 83.64 211.115 83.7864 211.874 84.3136C213.742 85.6607 214.764 85.8071 222.294 85.8071C228.891 85.8071 229.416 85.7778 229.416 85.28C229.474 80.8871 229.445 75.7914 229.387 75.7036C229.328 75.645 227.577 75.5864 225.476 75.5278C221.36 75.44 220.076 75.0886 218.646 73.5657C217.011 71.8086 217.011 71.8671 217.011 53.7978V37.1636L211.962 37.1928L206.941 37.2514V56.58Z" fill="#EC6B15"/>
<path d="M56.5656 0.204851C56.9158 0.263422 57.4412 0.263422 57.7331 0.204851C57.9958 0.116994 57.7039 0.0584221 57.0618 0.0877079C56.4196 0.0877079 56.1861 0.146279 56.5656 0.204851Z" fill="#ECECEC"/>
<path d="M86.3945 7.43846C86.3945 7.52631 86.8032 7.78989 87.2702 8.05346C87.7664 8.31703 88.1458 8.43417 88.1458 8.3756C88.1458 8.28774 87.7664 8.02417 87.2702 7.7606C86.8032 7.49703 86.3945 7.37989 86.3945 7.43846Z" fill="#ECECEC"/>
<path d="M47.8094 8.99074C48.4807 9.04931 49.5898 9.04931 50.2903 8.99074C50.9617 8.93217 50.4071 8.8736 49.0353 8.8736C47.6634 8.8736 47.1089 8.93217 47.8094 8.99074Z" fill="#ECECEC"/>
<path d="M40.2199 9.28346C40.5701 9.34204 41.0955 9.34204 41.3874 9.28346C41.6501 9.19561 41.3582 9.13704 40.7161 9.16632C40.0739 9.16632 39.8404 9.22489 40.2199 9.28346Z" fill="#ECECEC"/>
<path d="M55.8354 9.28346C56.0981 9.34204 56.5651 9.34204 56.857 9.28346C57.1196 9.19561 56.8861 9.13704 56.3316 9.13704C55.777 9.13704 55.5435 9.19561 55.8354 9.28346Z" fill="#ECECEC"/>
<path d="M6.24575 10.4257L5.10742 11.4507L6.3625 10.5135C7.47164 9.63497 7.76351 9.3714 7.50082 9.3714C7.44245 9.3714 6.88788 9.83997 6.24575 10.4257Z" fill="#ECECEC"/>
<path d="M59.3373 9.57643C59.6 9.635 60.067 9.635 60.3589 9.57643C60.6216 9.48858 60.3881 9.43 59.8335 9.43C59.279 9.43 59.0455 9.48858 59.3373 9.57643Z" fill="#ECECEC"/>
<path d="M92.9924 12.2999C94.1015 13.5006 95.2398 14.8185 95.5317 15.2285C96.0279 15.9313 96.0279 15.9313 95.5317 15.0235C95.269 14.4963 94.1015 13.1785 92.9924 12.0949L90.9492 10.1035L92.9924 12.2999Z" fill="#ECECEC"/>
<path d="M3.32696 13.0907C2.88914 13.6764 2.65564 14.0571 2.85995 13.94C3.23939 13.7057 4.49447 12.0071 4.29015 12.0071C4.20259 12.0071 3.79396 12.505 3.32696 13.0907Z" fill="#ECECEC"/>
<path d="M1.02155 16.4291C0.758859 16.927 0.583732 17.3956 0.642108 17.4541C0.729671 17.5127 0.992362 17.1027 1.25505 16.5463C1.868 15.287 1.63449 15.1699 1.02155 16.4291Z" fill="#ECECEC"/>
<path d="M11.2949 18.2157L9.71875 19.7678L11.2073 18.4793C12.0246 17.7764 12.8127 17.0735 12.9878 16.9271C13.1337 16.81 13.1629 16.6928 13.0462 16.6928C12.9586 16.6928 12.1705 17.3957 11.2949 18.2157Z" fill="#ECECEC"/>
<path d="M84.4684 16.9271C84.7019 17.3078 86.3948 18.5671 86.3948 18.3621C86.3948 18.2743 85.8986 17.8643 85.3148 17.3957C84.7311 16.9564 84.3516 16.7221 84.4684 16.9271Z" fill="#ECECEC"/>
<path d="M87.2715 19.5336C87.6509 20.0607 88.0012 20.5 88.0595 20.5C88.293 20.5 87.5633 19.3871 87.0963 19.0064C86.7753 18.7429 86.8336 18.9479 87.2715 19.5336Z" fill="#ECECEC"/>
<path d="M87.6212 23.7507C87.2417 24.395 86.1326 25.5079 85.1402 26.24C83.0679 27.7629 82.6301 28.1729 83.9143 27.4114C85.5488 26.3864 87.2126 24.8929 87.8547 23.8386C88.2049 23.2821 88.4676 22.755 88.3801 22.6964C88.3217 22.6379 87.9714 23.1064 87.6212 23.7507Z" fill="#ECECEC"/>
<path d="M10.6534 25.1855C11.2663 25.8298 11.8501 26.3569 11.9376 26.3569C12.0252 26.3569 11.5582 25.8298 10.9452 25.1855C10.3323 24.5412 9.74853 24.0141 9.66097 24.0141C9.57341 24.0141 10.0404 24.5412 10.6534 25.1855Z" fill="#ECECEC"/>
<path d="M81.4337 28.5535C80.704 28.9342 80.237 29.2564 80.3538 29.2856C80.6749 29.2856 82.8931 28.1435 82.8931 27.9678C82.8931 27.7628 82.8931 27.7628 81.4337 28.5535Z" fill="#ECECEC"/>
<path d="M97.5449 28.7C97.5449 29.2565 97.6033 29.4907 97.6909 29.1979C97.7492 28.9343 97.7492 28.4657 97.6909 28.1729C97.6033 27.9093 97.5449 28.1436 97.5449 28.7Z" fill="#ECECEC"/>
<path d="M41.6802 34.762C42.0305 34.8206 42.6142 34.8206 42.9937 34.762C43.3439 34.7034 43.0521 34.6448 42.3224 34.6448C41.5927 34.6448 41.3008 34.7034 41.6802 34.762Z" fill="#ECECEC"/>
<path d="M54.231 34.762C54.5813 34.8206 55.165 34.8206 55.5445 34.762C55.8947 34.7034 55.6028 34.6448 54.8731 34.6448C54.1434 34.6448 53.8516 34.7034 54.231 34.762Z" fill="#ECECEC"/>
<path d="M8.81394 41.9372L8.9015 48.7607L8.95988 42.1422L9.04744 35.5236L11.2365 36.6657C12.4332 37.31 13.4256 37.7493 13.4256 37.6615C13.4256 37.5443 10.2733 35.7872 8.98906 35.2015C8.84313 35.1429 8.78475 38.1593 8.81394 41.9372Z" fill="#ECECEC"/>
<path d="M85.7537 36.6364C85.1407 36.9585 84.6445 37.2806 84.6445 37.3392C84.6445 37.4271 85.1699 37.2221 85.812 36.8999C86.4542 36.5778 86.9796 36.2264 86.9796 36.1678C86.9796 35.9628 86.9796 35.9628 85.7537 36.6364Z" fill="#ECECEC"/>
<path d="M176.09 36.2263C176.849 36.2849 178.075 36.2849 178.863 36.2263C179.622 36.1678 178.98 36.1385 177.462 36.1385C175.944 36.1385 175.302 36.1678 176.09 36.2263Z" fill="#ECECEC"/>
<path d="M217.303 53.3C217.303 62.4079 217.332 66.1272 217.361 61.5879C217.419 57.0193 217.419 49.5807 217.361 45.0415C217.332 40.4729 217.303 44.1922 217.303 53.3Z" fill="#ECECEC"/>
<path d="M146.288 41.6442C146.229 46.1542 146.229 46.2421 145.587 46.3592L144.916 46.4763L145.587 46.5349C145.938 46.5349 146.317 46.3885 146.405 46.1835C146.463 45.9785 146.492 43.8406 146.434 41.4392L146.346 37.0463L146.288 41.6442Z" fill="#ECECEC"/>
<path d="M187.998 38.1886C188.29 38.4521 190.596 39.5357 190.596 39.3893C190.596 39.2429 188.407 38.0714 188.086 38.0714C187.969 38.0714 187.94 38.13 187.998 38.1886Z" fill="#ECECEC"/>
<path d="M120.604 40.0044C119.932 40.5901 119.232 41.3222 119.057 41.6736C118.852 42.0544 119.086 41.9079 119.553 41.3515C120.02 40.8244 120.808 40.0629 121.275 39.6822C121.771 39.3015 122.063 38.9794 121.976 38.9501C121.888 38.9501 121.275 39.4186 120.604 40.0044Z" fill="#ECECEC"/>
<path d="M97.5449 40.4144C97.5449 40.9708 97.6033 41.2051 97.6909 40.9122C97.7492 40.6487 97.7492 40.1801 97.6909 39.8872C97.6033 39.6237 97.5449 39.858 97.5449 40.4144Z" fill="#ECECEC"/>
<path d="M76.9101 40.1212C76.5306 40.2676 76.5014 40.3848 76.7641 40.3848C76.9976 40.3848 77.4646 40.2676 77.7857 40.1212C78.1651 39.9748 78.1943 39.8576 77.9316 39.8576C77.6981 39.8576 77.2311 39.9748 76.9101 40.1212Z" fill="#ECECEC"/>
<path d="M161.38 41.6735C160.358 42.552 158.986 43.8992 158.373 44.6899C156.972 46.4178 156.534 47.1499 157.76 45.6856C158.986 44.2213 161.059 42.1713 162.43 41.0585C163.072 40.5606 163.54 40.1506 163.423 40.1213C163.335 40.1213 162.43 40.8242 161.38 41.6735Z" fill="#ECECEC"/>
<path d="M193.719 41.7908C194.391 42.4058 195.471 43.4894 196.142 44.2215C197.28 45.4515 197.251 45.4222 195.996 43.8701C195.266 42.9622 194.157 41.8787 193.573 41.4394C192.523 40.6779 192.523 40.7072 193.719 41.7908Z" fill="#ECECEC"/>
<path d="M88.5547 43.9284C88.5547 45.627 88.5839 46.3006 88.6423 45.4513C88.7006 44.6313 88.7006 43.2256 88.6423 42.3763C88.5839 41.5563 88.5547 42.2298 88.5547 43.9284Z" fill="#ECECEC"/>
<path d="M41.3878 43.8406C41.7381 43.8992 42.2635 43.8992 42.5553 43.8406C42.818 43.7527 42.5262 43.6942 41.884 43.7235C41.2419 43.7235 41.0084 43.782 41.3878 43.8406Z" fill="#ECECEC"/>
<path d="M55.3976 43.8406C55.7478 43.8992 56.2732 43.8992 56.5651 43.8406C56.8278 43.7527 56.5359 43.6942 55.8938 43.7235C55.2517 43.7235 55.0182 43.782 55.3976 43.8406Z" fill="#ECECEC"/>
<path d="M140.919 46.1836C141.269 46.2422 141.853 46.2422 142.232 46.1836C142.582 46.125 142.29 46.0665 141.561 46.0665C140.831 46.0665 140.539 46.125 140.919 46.1836Z" fill="#ECECEC"/>
<path d="M129.068 47.4428C128.134 48.3214 128.28 48.5557 129.244 47.7064C129.681 47.3257 130.09 46.9742 130.148 46.9157C130.207 46.8864 130.148 46.8571 130.002 46.8571C129.827 46.8571 129.419 47.1207 129.068 47.4428Z" fill="#ECECEC"/>
<path d="M169.873 48.6434L168.852 49.522L169.961 48.7605C170.924 48.0577 171.216 47.7355 170.953 47.7355C170.924 47.7355 170.428 48.1455 169.873 48.6434Z" fill="#ECECEC"/>
<path d="M184.962 48.4677C185.488 48.8777 186.509 49.9027 187.268 50.752C188.027 51.6013 188.377 51.8648 188.027 51.3963C187.356 50.4005 184.612 47.7355 184.262 47.7355C184.145 47.7355 184.437 48.087 184.962 48.4677Z" fill="#ECECEC"/>
<path d="M128.135 48.907C128.135 49.4634 129.507 51.5427 129.915 51.5427C130.061 51.5427 129.915 51.2499 129.565 50.8692C129.215 50.5177 128.777 49.8149 128.543 49.3463C128.339 48.8484 128.164 48.6727 128.135 48.907Z" fill="#ECECEC"/>
<path d="M9.16423 49.3171C9.39774 50.0199 10.4193 51.2499 11.5284 52.0992C12.0538 52.5385 11.8787 52.2456 11.0614 51.3671C10.3026 50.5763 9.54367 49.6685 9.36855 49.3463C9.04748 48.8485 9.01829 48.8485 9.16423 49.3171Z" fill="#ECECEC"/>
<path d="M199.381 49.0536C199.381 49.2 199.556 49.6686 199.789 50.0786C200.023 50.4886 200.198 50.6643 200.198 50.5178C200.198 50.3421 200.023 49.9028 199.789 49.4928C199.556 49.0828 199.381 48.8778 199.381 49.0536Z" fill="#ECECEC"/>
<path d="M87.2715 50.4299C86.8336 51.0449 86.7753 51.2499 87.0963 50.9863C87.5633 50.6056 88.293 49.4928 88.0595 49.4928C88.0012 49.4928 87.6509 49.9321 87.2715 50.4299Z" fill="#ECECEC"/>
<path d="M167.129 51.1912L166.574 51.9819L167.333 51.2791C168.15 50.5176 168.267 50.3712 167.917 50.3712C167.771 50.3712 167.421 50.7519 167.129 51.1912Z" fill="#ECECEC"/>
<path d="M97.5449 52.1285C97.5449 52.6849 97.6033 52.9192 97.6909 52.6264C97.7492 52.3628 97.7492 51.8942 97.6909 51.6014C97.6033 51.3378 97.5449 51.5721 97.5449 52.1285Z" fill="#ECECEC"/>
<path d="M84.7316 52.7435C84.0311 53.2414 83.4766 53.6806 83.4766 53.7685C83.4766 53.8564 84.0603 53.5049 84.79 53.0071C85.5197 52.5092 86.1035 52.0406 86.1035 51.9821C86.1035 51.7771 86.0451 51.8064 84.7316 52.7435Z" fill="#ECECEC"/>
<path d="M130.469 51.9235C130.469 51.9821 130.907 52.3921 131.432 52.89L132.366 53.7393L131.52 52.7728C130.702 51.8943 130.469 51.6893 130.469 51.9235Z" fill="#ECECEC"/>
<path d="M189.166 53.4171C189.516 54.0029 189.837 54.4714 189.895 54.4714C190.1 54.4714 189.166 52.7729 188.845 52.5679C188.699 52.48 188.815 52.8607 189.166 53.4171Z" fill="#ECECEC"/>
<path d="M12.6673 52.9193C12.8716 53.3 16.1114 55.1743 17.0746 55.4964C17.3957 55.6136 16.666 55.145 15.4693 54.4714C14.2726 53.7979 13.1051 53.095 12.8716 52.9193C12.5213 52.6557 12.4921 52.6557 12.6673 52.9193Z" fill="#ECECEC"/>
<path d="M133.242 54.3836C133.417 54.53 134.526 55.4378 135.723 56.375C136.92 57.3121 138.7 58.7471 139.663 59.5671C140.627 60.3871 141.21 60.7971 140.977 60.5043C140.539 59.9186 134.205 54.7936 133.388 54.325C133.096 54.1786 133.038 54.1786 133.242 54.3836Z" fill="#ECECEC"/>
<path d="M120.107 55.3499C120.37 55.8185 120.633 56.2285 120.72 56.2285C120.779 56.2285 120.662 55.8185 120.399 55.3499C120.136 54.8521 119.874 54.4714 119.786 54.4714C119.728 54.4714 119.845 54.8521 120.107 55.3499Z" fill="#ECECEC"/>
<path d="M121.975 58.2199C122.296 58.6885 122.792 59.2449 123.084 59.4792C123.347 59.7135 123.142 59.3328 122.588 58.6299C121.478 57.2242 121.07 56.9607 121.975 58.2199Z" fill="#ECECEC"/>
<path d="M124.399 60.8556C124.749 61.2949 125.654 62.1735 126.383 62.8177C127.259 63.5792 127.084 63.3156 125.8 61.9977C123.844 59.9477 123.202 59.4499 124.399 60.8556Z" fill="#ECECEC"/>
<path d="M191.529 60.9144C191.529 61.4708 191.588 61.7051 191.675 61.4122C191.734 61.1487 191.734 60.6801 191.675 60.3872C191.588 60.1237 191.529 60.358 191.529 60.9144Z" fill="#ECECEC"/>
<path d="M40.2199 60.8264C40.5701 60.885 41.0955 60.885 41.3874 60.8264C41.6501 60.7386 41.3582 60.68 40.7161 60.7093C40.0739 60.7093 39.8404 60.7679 40.2199 60.8264Z" fill="#ECECEC"/>
<path d="M56.2726 60.8264C56.6228 60.885 57.1482 60.885 57.4401 60.8264C57.7028 60.7386 57.4109 60.68 56.7688 60.7093C56.1267 60.7093 55.8932 60.7679 56.2726 60.8264Z" fill="#ECECEC"/>
<path d="M46.2039 61.1192C47.2838 61.1777 49.0351 61.1777 50.1442 61.1192C51.2242 61.0606 50.3193 61.0313 48.1594 61.0313C45.9995 61.0313 45.0947 61.0606 46.2039 61.1192Z" fill="#ECECEC"/>
<path d="M142.583 62.0857C143.196 62.7299 143.78 63.2571 143.867 63.2571C143.955 63.2571 143.488 62.7299 142.875 62.0857C142.262 61.4414 141.678 60.9142 141.591 60.9142C141.503 60.9142 141.97 61.4414 142.583 62.0857Z" fill="#ECECEC"/>
<path d="M8.81374 68.1477L8.90131 75.1177L8.95968 68.4405C9.04725 62.6712 9.10562 61.7634 9.48506 61.9098C10.1272 62.1441 10.0104 61.8512 9.33912 61.4998C8.75537 61.1777 8.75537 61.2655 8.81374 68.1477Z" fill="#ECECEC"/>
<path d="M191.529 63.2572C191.529 63.8136 191.588 64.0479 191.675 63.755C191.734 63.4914 191.734 63.0229 191.675 62.73C191.588 62.4664 191.529 62.7007 191.529 63.2572Z" fill="#ECECEC"/>
<path d="M97.5449 63.8429C97.5449 64.3993 97.6033 64.6336 97.6909 64.3407C97.7492 64.0771 97.7492 63.6086 97.6909 63.3157C97.6033 63.0521 97.5449 63.2864 97.5449 63.8429Z" fill="#ECECEC"/>
<path d="M128.018 64.37C128.164 64.4872 128.689 64.8972 129.156 65.3072L130.032 66.0393L129.186 65.0729C128.689 64.575 128.193 64.1357 128.018 64.1357C127.843 64.1357 127.843 64.2236 128.018 64.37Z" fill="#ECECEC"/>
<path d="M88.5547 67.3571C88.5547 69.0557 88.5839 69.7293 88.6423 68.88C88.7006 68.06 88.7006 66.6543 88.6423 65.805C88.5839 64.985 88.5547 65.6586 88.5547 67.3571Z" fill="#ECECEC"/>
<path d="M132.19 67.738C132.657 68.3237 134.846 70.1101 134.846 69.9051C134.846 69.8172 134.146 69.173 133.329 68.4994C132.482 67.7965 131.957 67.4451 132.19 67.738Z" fill="#ECECEC"/>
<path d="M189.778 69.2607C189.282 70.3442 189.369 70.5785 189.894 69.6121C190.157 69.1435 190.303 68.7042 190.216 68.6457C190.157 68.5871 189.953 68.8507 189.778 69.2607Z" fill="#ECECEC"/>
<path d="M175.068 69.3191C175.565 69.3777 176.44 69.3777 176.966 69.3191C177.462 69.2605 177.053 69.202 176.002 69.202C174.952 69.202 174.543 69.2605 175.068 69.3191Z" fill="#ECECEC"/>
<path d="M173.812 81.2678C173.812 87.8571 173.842 90.6099 173.871 87.3592C173.929 84.1085 173.929 78.7199 173.871 75.3521C173.842 72.0135 173.812 74.6492 173.812 81.2678Z" fill="#ECECEC"/>
<path d="M39.4897 69.905C39.7524 69.9636 40.2194 69.9636 40.5112 69.905C40.7739 69.8172 40.5404 69.7586 39.9859 69.7586C39.4313 69.7586 39.1978 69.8172 39.4897 69.905Z" fill="#ECECEC"/>
<path d="M46.3499 70.1978C47.6926 70.2563 49.7941 70.2563 51.02 70.1978C52.2459 70.1685 51.1659 70.1099 48.5974 70.1099C46.0289 70.1099 45.0073 70.1685 46.3499 70.1978Z" fill="#ECECEC"/>
<path d="M136.073 71.3399C136.657 72.0134 137.211 72.8627 137.328 73.2141C137.445 73.5656 137.591 73.7706 137.678 73.712C137.912 73.4484 136.948 71.8963 135.985 71.0177C135.022 70.1391 135.022 70.1391 136.073 71.3399Z" fill="#ECECEC"/>
<path d="M166.078 70.9592C166.078 71.0178 166.516 71.4278 167.041 71.9256L167.975 72.7749L167.129 71.8085C166.312 70.9299 166.078 70.7249 166.078 70.9592Z" fill="#ECECEC"/>
<path d="M217.74 71.662C217.74 71.867 218.09 72.3942 218.557 72.8628C218.995 73.302 219.141 73.4192 218.879 73.0678C218.616 72.7456 218.266 72.2185 218.09 71.8963C217.915 71.5742 217.74 71.4863 217.74 71.662Z" fill="#ECECEC"/>
<path d="M187.356 72.9798C186.801 73.6827 186.597 74.0634 186.889 73.8291C187.472 73.3605 188.669 71.7498 188.465 71.7498C188.377 71.7498 187.881 72.3062 187.356 72.9798Z" fill="#ECECEC"/>
<path d="M199.266 74.5321C199.003 75.0886 198.828 75.5571 198.915 75.5571C199.12 75.5571 199.995 73.7707 199.879 73.6243C199.791 73.5657 199.528 73.9757 199.266 74.5321Z" fill="#ECECEC"/>
<path d="M155.746 74.5319C156.563 75.9962 157.759 77.6069 157.964 77.6069C158.11 77.6069 157.759 77.0505 157.234 76.3476C156.738 75.6741 156.067 74.7662 155.775 74.3855C155.249 73.6534 155.249 73.6534 155.746 74.5319Z" fill="#ECECEC"/>
<path d="M170.748 80.1841L170.894 85.9534L170.982 80.4184C171.011 77.3727 170.953 74.7662 170.836 74.6491C170.69 74.5027 170.661 77.0212 170.748 80.1841Z" fill="#ECECEC"/>
<path d="M97.5449 75.5572C97.5449 76.1136 97.6033 76.3479 97.6909 76.0551C97.7492 75.7915 97.7492 75.3229 97.6909 75.0301C97.6033 74.7665 97.5449 75.0008 97.5449 75.5572Z" fill="#ECECEC"/>
<path d="M229.182 75.4399C229.649 75.5863 229.708 76.172 229.795 80.8577L229.883 86.0999L229.854 80.7699C229.854 75.6449 229.824 75.4106 229.27 75.352C228.832 75.3227 228.803 75.3227 229.182 75.4399Z" fill="#ECECEC"/>
<path d="M197.63 77.2264C197.076 78.0171 196.9 78.3979 197.192 78.1343C197.718 77.6657 198.914 75.85 198.681 75.85C198.623 75.85 198.156 76.465 197.63 77.2264Z" fill="#ECECEC"/>
<path d="M118.326 81.1214C118.326 83.9328 118.385 85.1043 118.414 83.6693C118.472 82.2636 118.472 79.9793 118.414 78.5443C118.385 77.1386 118.326 78.31 118.326 81.1214Z" fill="#ECECEC"/>
<path d="M122.53 76.3477C122.881 76.4062 123.406 76.4062 123.698 76.3477C123.961 76.2598 123.669 76.2012 123.027 76.2305C122.384 76.2305 122.151 76.2891 122.53 76.3477Z" fill="#ECECEC"/>
<path d="M128.046 76.6406C128.571 76.6992 129.505 76.6992 130.089 76.6406C130.702 76.5821 130.293 76.5235 129.155 76.5235C128.046 76.5235 127.55 76.5821 128.046 76.6406Z" fill="#ECECEC"/>
<path d="M10.7988 77.5485C10.7988 77.6949 11.2075 78.0756 11.6745 78.4271C12.1707 78.8078 12.5501 79.0421 12.5501 78.9835C12.5501 78.9249 12.1707 78.5149 11.6745 78.1049C11.2075 77.6656 10.7988 77.4314 10.7988 77.5485Z" fill="#ECECEC"/>
<path d="M85.5193 78.2806C85.1106 78.632 84.4393 79.1592 84.0599 79.452C83.3594 79.9499 83.3594 79.9499 84.2934 79.452C84.8188 79.1592 85.5485 78.632 85.8695 78.2513C86.6576 77.4313 86.4825 77.4313 85.5193 78.2806Z" fill="#ECECEC"/>
<path d="M159.511 79.3348C160.154 80.0084 161.204 81.0041 161.846 81.5019C163.218 82.5562 162.868 82.1755 160.241 79.8034C158.899 78.5441 158.665 78.4269 159.511 79.3348Z" fill="#ECECEC"/>
<path d="M195.265 80.1256C194.536 80.8871 194.098 81.4435 194.273 81.3849C194.594 81.2678 196.9 78.7785 196.666 78.7785C196.608 78.7785 195.966 79.3935 195.265 80.1256Z" fill="#ECECEC"/>
<path d="M144.945 81.3556C143.515 82.9956 143.515 82.9956 144.741 81.8535C145.763 80.887 146.784 79.5985 146.463 79.6863C146.405 79.6863 145.733 80.4478 144.945 81.3556Z" fill="#ECECEC"/>
<path d="M81.433 80.8285C80.5573 81.297 79.9444 81.6777 80.0611 81.707C80.353 81.707 83.1842 80.272 83.1842 80.0963C83.1842 79.8913 83.2134 79.8913 81.433 80.8285Z" fill="#ECECEC"/>
<path d="M192.493 82.7613C191.617 83.552 191.559 83.6691 192.23 83.2298C193.048 82.6734 194.04 81.6777 193.777 81.707C193.719 81.7363 193.135 82.2048 192.493 82.7613Z" fill="#ECECEC"/>
<path d="M209.452 82.6735C209.89 83.2885 210.649 84.0499 211.145 84.3721L212.05 84.9871L211.145 84.1378C210.649 83.6985 209.861 82.9078 209.423 82.4392L208.635 81.5606L209.452 82.6735Z" fill="#ECECEC"/>
<path d="M163.597 82.7321C163.918 82.9957 164.444 83.3471 164.765 83.4935L165.349 83.7864L164.765 83.3178C164.444 83.0542 163.918 82.7028 163.597 82.5564L163.014 82.2635L163.597 82.7321Z" fill="#ECECEC"/>
<path d="M97.5449 87.2713C97.5449 87.8277 97.6033 88.062 97.6909 87.7692C97.7492 87.5056 97.7492 87.037 97.6909 86.7442C97.6033 86.4806 97.5449 86.7149 97.5449 87.2713Z" fill="#ECECEC"/>
<path d="M44.0157 87.1836C44.5119 87.2422 45.3875 87.2422 45.9129 87.1836C46.4091 87.125 46.0005 87.0665 44.9497 87.0665C43.899 87.0665 43.4903 87.125 44.0157 87.1836Z" fill="#ECECEC"/>
<path d="M51.8964 87.1836C52.4218 87.2422 53.2098 87.2422 53.6477 87.1836C54.0855 87.125 53.6477 87.0665 52.6845 87.0665C51.7213 87.0665 51.371 87.125 51.8964 87.1836Z" fill="#ECECEC"/>
<path d="M8.81394 93.4801C8.87231 99.4251 8.98906 98.7222 9.10582 91.4301C9.16419 89.3215 9.10582 87.5644 8.98906 87.5644C8.84313 87.5644 8.78475 90.2294 8.81394 93.4801Z" fill="#ECECEC"/>
<path d="M88.3798 89.6728C88.5257 93.5386 88.6425 93.9193 88.6717 90.6978C88.7009 88.97 88.6425 87.5643 88.5257 87.5643C88.3798 87.5643 88.3214 88.5307 88.3798 89.6728Z" fill="#ECECEC"/>
<path d="M84.6447 89.4678C83.915 89.8485 83.448 90.1707 83.5647 90.2C83.8858 90.2 86.1041 89.0578 86.1041 88.8821C86.1041 88.6771 86.1041 88.6771 84.6447 89.4678Z" fill="#ECECEC"/>
<path d="M43.4315 96.262C43.9569 96.3206 44.745 96.3206 45.1828 96.262C45.6206 96.2034 45.1828 96.1448 44.2196 96.1448C43.2564 96.1448 42.9062 96.2034 43.4315 96.262Z" fill="#ECECEC"/>
<path d="M52.7701 96.262C53.1203 96.3206 53.7041 96.3206 54.0835 96.262C54.4338 96.2034 54.1419 96.1448 53.4122 96.1448C52.6825 96.1448 52.3906 96.2034 52.7701 96.262Z" fill="#ECECEC"/>
<path d="M9.33984 100.333C9.33984 100.509 9.95279 101.211 10.7409 101.914L12.1127 103.232L10.7992 101.768C10.0695 100.977 9.4566 100.245 9.42741 100.186C9.36903 100.128 9.33984 100.186 9.33984 100.333Z" fill="#ECECEC"/>
<path d="M86.5406 101.973L85.373 103.232L86.6281 102.061C87.2994 101.446 87.854 100.889 87.854 100.831C87.854 100.596 87.5913 100.831 86.5406 101.973Z" fill="#ECECEC"/>
<path d="M0.583984 103.203C0.583984 103.525 1.45962 105.136 1.63475 105.136C1.69312 105.136 1.54718 104.696 1.28449 104.169C0.729923 103.115 0.583984 102.881 0.583984 103.203Z" fill="#ECECEC"/>
<path d="M83.7983 103.964C82.0762 105.106 81.9011 105.37 83.4189 104.521C84.1194 104.14 84.8199 103.671 84.995 103.466C85.4036 102.939 85.2577 102.998 83.7983 103.964Z" fill="#ECECEC"/>
<path d="M12.9881 103.818C13.3091 104.081 13.8345 104.433 14.1556 104.579L14.7393 104.872L14.1556 104.403C13.8345 104.14 13.3091 103.788 12.9881 103.642L12.4043 103.349L12.9881 103.818Z" fill="#ECECEC"/>
<path d="M2.62667 106.746C3.79418 108.152 3.88174 108.24 3.56068 107.625C3.38555 107.303 2.94773 106.776 2.56829 106.453C1.92616 105.897 1.92616 105.897 2.62667 106.746Z" fill="#ECECEC"/>
<path d="M93.4012 107.947C92.6715 108.708 91.3289 109.88 90.3657 110.583C89.4317 111.286 88.7895 111.871 88.9063 111.871C89.4317 111.842 92.9342 108.884 94.3936 107.244C95.4152 106.073 94.7146 106.571 93.4012 107.947Z" fill="#ECECEC"/>
<path d="M4.52306 108.826C4.69819 108.972 5.19438 109.411 5.69057 109.821C6.53702 110.524 6.53702 110.524 5.98245 109.88C5.66138 109.499 5.136 109.06 4.81494 108.884C4.49387 108.708 4.37712 108.708 4.52306 108.826Z" fill="#ECECEC"/>
<path d="M7.44313 111.139C7.7642 111.403 8.28958 111.754 8.61064 111.901L9.1944 112.194L8.61064 111.725C8.28958 111.461 7.7642 111.11 7.44313 110.964L6.85938 110.671L7.44313 111.139Z" fill="#ECECEC"/>
<path d="M40.5123 111.491C40.8625 111.549 41.4463 111.549 41.8257 111.491C42.176 111.432 41.8841 111.374 41.1544 111.374C40.4247 111.374 40.1328 111.432 40.5123 111.491Z" fill="#ECECEC"/>
<path d="M55.5444 111.491C55.8071 111.549 56.2741 111.549 56.5659 111.491C56.8286 111.403 56.5951 111.344 56.0406 111.344C55.486 111.344 55.2525 111.403 55.5444 111.491Z" fill="#ECECEC"/>
<path d="M47.8094 111.783C48.4807 111.842 49.5898 111.842 50.2903 111.783C50.9617 111.725 50.4071 111.666 49.0353 111.666C47.6634 111.666 47.1089 111.725 47.8094 111.783Z" fill="#ECECEC"/>
<path d="M83.7679 114.361C83.3593 114.595 83.1842 114.771 83.3301 114.771C83.5053 114.771 83.9431 114.595 84.3517 114.361C84.7603 114.126 84.9646 113.951 84.7895 113.951C84.6436 113.951 84.1766 114.126 83.7679 114.361Z" fill="#ECECEC"/>
<path d="M56.1283 120.569C56.391 120.628 56.858 120.628 57.1499 120.569C57.4126 120.481 57.1791 120.423 56.6245 120.423C56.07 120.423 55.8365 120.481 56.1283 120.569Z" fill="#ECECEC"/>
<path d="M46.7871 120.862C47.692 120.921 49.2097 120.921 50.1437 120.862C51.0486 120.804 50.2897 120.774 48.4509 120.774C46.612 120.774 45.8531 120.804 46.7871 120.862Z" fill="#ECECEC"/>
</g>
<defs>
<clipPath id="clip0_1204_3474">
<rect width="230" height="123" fill="white"/>
</clipPath>
</defs>
</svg>
