<svg width="254" height="254" viewBox="0 0 254 254" fill="none" xmlns="http://www.w3.org/2000/svg">
<path d="M107.944 47.9329L107.823 47.9837C107.764 48.0069 107.751 48.0461 107.785 48.1011C107.8 48.1265 107.813 48.153 107.826 48.1805C107.83 48.1894 107.832 48.1992 107.831 48.2089C107.83 48.2187 107.826 48.2279 107.82 48.2358C107.814 48.2436 107.807 48.2497 107.798 48.2534C107.788 48.257 107.779 48.2582 107.769 48.2567C107.451 48.2017 107.136 48.1911 106.823 48.225C106.376 48.2736 106.068 48.2969 105.899 48.2948C100.778 48.2567 95.5071 48.2186 90.5064 48.5329C87.795 48.7012 85.455 48.6345 82.9436 48.8917C82.4261 48.9457 82.0324 48.7393 81.4958 48.7774C79.9559 48.8854 78.4224 48.6726 76.873 48.7139C75.7586 48.7457 74.3806 48.7742 73.3075 48.5806C72.3994 48.4176 71.4353 48.3308 70.415 48.3202C66.4971 48.2821 63.23 48.2779 60.6138 48.3075C60.508 48.3096 60.4159 48.2736 60.3376 48.1996C60.0667 47.9456 59.8899 47.9106 59.8074 48.0948" stroke="#0079B5" stroke-width="2"/>
<path d="M187.462 98.1677C187.394 98.2249 187.339 98.299 187.296 98.39C187.26 98.4704 187.279 98.5339 187.354 98.5805C187.47 98.6524 187.474 98.7604 187.366 98.9043C187.112 99.2504 186.579 99.3584 186.112 99.352C181.515 99.3033 176.918 99.3435 172.323 99.4726C170.579 99.5213 168.833 99.5235 167.084 99.479C166.674 99.4705 166.337 99.5901 166.075 99.8378C165.971 99.9351 165.895 99.9171 165.846 99.7838L165.811 99.6886C165.782 99.606 165.725 99.5785 165.643 99.606L165.151 99.7711C165.056 99.8028 164.96 99.8039 164.865 99.7743C164.62 99.7002 164.397 99.7489 164.198 99.9203C164.063 100.036 163.894 100.104 163.716 100.114C163.538 100.124 163.362 100.075 163.214 99.9743C162.941 99.788 162.725 99.7626 162.566 99.8981C162.492 99.9595 162.411 99.9732 162.322 99.9394C162.034 99.8251 161.802 99.879 161.627 100.101C161.596 100.14 161.556 100.168 161.51 100.185C161.464 100.201 161.414 100.204 161.366 100.193C160.896 100.092 160.547 99.879 160.074 99.914C159.693 99.9415 159.329 100.025 158.982 100.165C158.878 100.207 158.773 100.211 158.667 100.177L157.874 99.9267C157.778 99.897 157.691 99.9087 157.61 99.9616C157.464 100.059 157.317 100.066 157.169 99.9838C157.124 99.9589 157.073 99.9469 157.021 99.9492C156.97 99.9514 156.92 99.9678 156.877 99.9965C156.302 100.384 155.902 100.108 155.315 99.9425C155.222 99.915 155.134 99.9267 155.051 99.9775C154.924 100.052 154.79 100.06 154.648 100.003C154.542 99.9627 154.438 99.9679 154.337 100.019C153.854 100.269 153.362 100.239 152.86 99.9298C152.75 99.8621 152.642 99.8685 152.537 99.9489C152.407 100.048 152.273 100.068 152.133 100.009C152.025 99.9605 151.918 99.9627 151.813 100.016C151.322 100.267 150.824 100.24 150.32 99.933C150.208 99.8653 150.1 99.8706 149.997 99.9489C149.865 100.048 149.731 100.068 149.593 100.009C149.485 99.9605 149.378 99.9627 149.273 100.016C148.782 100.267 148.284 100.24 147.78 99.933C147.668 99.8653 147.56 99.8706 147.457 99.9489C147.325 100.048 147.191 100.068 147.053 100.009C146.945 99.9605 146.838 99.9627 146.733 100.016C146.242 100.267 145.744 100.24 145.24 99.933C145.128 99.8653 145.02 99.8706 144.917 99.9489C144.785 100.048 144.651 100.068 144.513 100.009C144.405 99.9605 144.298 99.9627 144.193 100.016C143.702 100.267 143.204 100.24 142.7 99.933C142.588 99.8653 142.48 99.8706 142.377 99.9489C142.245 100.048 142.111 100.068 141.973 100.009C141.865 99.9605 141.758 99.9627 141.653 100.016C141.162 100.267 140.664 100.24 140.16 99.933C140.048 99.8653 139.94 99.8706 139.837 99.9489C139.705 100.048 139.571 100.068 139.433 100.009C139.325 99.9605 139.218 99.9627 139.113 100.016C138.622 100.267 138.124 100.24 137.62 99.933C137.508 99.8653 137.4 99.8706 137.297 99.9489C137.165 100.048 137.031 100.068 136.893 100.009C136.785 99.9605 136.678 99.9627 136.573 100.016C136.082 100.267 135.584 100.24 135.08 99.933C134.968 99.8653 134.86 99.8706 134.757 99.9489C134.632 100.044 134.504 100.066 134.372 100.016C134.247 99.9669 134.124 99.9722 134.001 100.031C133.52 100.264 133.034 100.231 132.54 99.933C132.493 99.9047 132.439 99.8906 132.383 99.8923C132.328 99.894 132.275 99.9114 132.229 99.9425C132.06 100.061 131.882 100.071 131.696 99.9711C131.654 99.9495 131.608 99.9407 131.561 99.9458C131.515 99.9509 131.471 99.9696 131.435 99.9997C130.924 100.431 130.426 100.076 129.902 99.9394C129.805 99.9119 129.714 99.9267 129.629 99.9838C129.512 100.062 129.39 100.066 129.261 99.9965C129.163 99.9415 129.065 99.9394 128.965 99.9902L128.572 100.187C128.466 100.24 128.357 100.248 128.245 100.212L127.403 99.9425C127.295 99.9087 127.193 99.9214 127.095 99.9806C126.939 100.076 126.781 100.074 126.622 99.9743C126.584 99.9503 126.538 99.9393 126.493 99.9427C126.447 99.9461 126.404 99.9638 126.368 99.9933C125.838 100.435 125.355 100.079 124.822 99.9394C124.725 99.9119 124.634 99.9267 124.549 99.9838C124.432 100.062 124.31 100.066 124.181 99.9965C124.083 99.9415 123.985 99.9394 123.885 99.9902L123.492 100.187C123.386 100.24 123.277 100.248 123.165 100.212L122.323 99.9425C122.215 99.9087 122.113 99.9214 122.015 99.9806C121.859 100.076 121.701 100.074 121.542 99.9743C121.503 99.9503 121.458 99.9392 121.412 99.9426C121.366 99.9461 121.321 99.9638 121.285 99.9933C120.752 100.441 120.279 100.073 119.739 99.9394C119.652 99.9182 119.569 99.9309 119.491 99.9775C119.368 100.049 119.238 100.06 119.101 100.009C119.048 99.9892 118.991 99.9806 118.934 99.9839C118.877 99.9872 118.821 100.002 118.77 100.028C118.279 100.274 117.795 100.238 117.316 99.9203C117.221 99.8568 117.128 99.8579 117.037 99.9235C116.857 100.053 116.666 100.072 116.465 99.9806C116.357 99.932 116.259 99.9447 116.17 100.019C115.707 100.4 115.164 100.079 114.678 99.9425C114.583 99.9171 114.493 99.9288 114.408 99.9775C114.283 100.052 114.15 100.06 114.008 100.003C113.902 99.9627 113.798 99.9679 113.697 100.019C113.214 100.269 112.722 100.239 112.22 99.9298C112.11 99.8621 112.002 99.8685 111.897 99.9489C111.767 100.048 111.633 100.068 111.493 100.009C111.385 99.9605 111.278 99.9627 111.173 100.016C110.682 100.267 110.184 100.24 109.68 99.933C109.568 99.8653 109.46 99.8706 109.357 99.9489C109.225 100.048 109.091 100.068 108.953 100.009C108.845 99.9605 108.738 99.9627 108.633 100.016C108.142 100.267 107.644 100.24 107.14 99.933C107.028 99.8653 106.92 99.8706 106.817 99.9489C106.685 100.048 106.551 100.068 106.413 100.009C106.305 99.9605 106.198 99.9627 106.093 100.016C105.602 100.267 105.104 100.24 104.6 99.933C104.488 99.8653 104.38 99.8706 104.277 99.9489C104.145 100.048 104.011 100.068 103.873 100.009C103.765 99.9605 103.658 99.9627 103.553 100.016C103.062 100.267 102.564 100.24 102.06 99.933C101.948 99.8653 101.84 99.8706 101.737 99.9489C101.605 100.048 101.471 100.068 101.333 100.009C101.225 99.9605 101.118 99.9627 101.013 100.016C100.522 100.267 100.024 100.24 99.5204 99.933C99.4082 99.8653 99.3002 99.8706 99.1965 99.9489C99.0653 100.048 98.9309 100.068 98.7933 100.009C98.6853 99.9605 98.5784 99.9627 98.4726 100.016C97.9773 100.27 97.4746 100.239 96.9645 99.9235C96.8587 99.8579 96.7581 99.8653 96.6629 99.9457C96.5401 100.049 96.4025 100.07 96.2501 100.006C96.189 99.9815 96.123 99.9716 96.0574 99.9771C95.9918 99.9826 95.9284 100.003 95.8723 100.038C95.5061 100.256 95.1251 100.257 94.7293 100.041C94.6362 99.9902 94.5367 99.9605 94.4308 99.9521C93.9017 99.9034 93.4117 99.9817 92.9608 100.187C92.8571 100.234 92.7534 100.234 92.6497 100.187C92.1141 99.9478 91.5553 99.879 90.9733 99.9806C90.7542 100.019 90.5605 100.162 90.3383 100.2C90.0462 100.247 89.6652 100.035 89.3254 99.9965C89.2196 99.9859 89.1169 99.9997 89.0175 100.038C88.9159 100.076 88.8153 100.077 88.7158 100.041C88.6121 100.003 88.5105 100.007 88.411 100.054C88.0681 100.208 87.6236 100.209 87.0775 100.057C86.1854 99.806 85.3853 100.536 84.2962 99.9457C84.2025 99.8967 84.0924 99.8853 83.9883 99.914C83.7279 99.9881 83.4602 99.9785 83.185 99.8854C83.0559 99.8431 82.9585 99.8801 82.8929 99.9965C82.8717 100.033 82.8357 100.053 82.7849 100.057C82.6474 100.07 82.568 100.073 82.5468 100.066C82.3267 99.9923 82.1425 99.8695 81.9944 99.6981C81.9266 99.6198 81.8409 99.5764 81.7372 99.5679C80.7402 99.4896 79.7412 99.4705 78.74 99.5108C78.6574 99.5129 78.5812 99.5012 78.5114 99.4758C78.4331 99.4462 78.3516 99.4303 78.2669 99.4282C73.7415 99.3435 69.216 99.3128 64.6906 99.3361C64.2038 99.3404 63.8672 99.4028 63.681 99.5234C63.6619 99.5361 63.6482 99.552 63.6397 99.5711C63.627 99.6007 63.6196 99.6303 63.6175 99.66C63.6153 99.6896 63.5995 99.7076 63.5698 99.7139C63.4238 99.7457 63.3328 99.8293 63.2968 99.9648C63.2693 100.056 63.2111 100.086 63.1222 100.057L62.8713 99.9775" stroke="#0079B5" stroke-width="2"/>
<path d="M107.944 47.9329L107.823 47.9837C107.764 48.007 107.751 48.0461 107.785 48.1012C107.8 48.1266 107.813 48.153 107.826 48.1805C107.83 48.1894 107.832 48.1992 107.831 48.2089C107.83 48.2187 107.826 48.228 107.82 48.2358C107.815 48.2436 107.807 48.2497 107.798 48.2534C107.789 48.2571 107.779 48.2582 107.769 48.2567C107.451 48.2017 107.136 48.1911 106.823 48.225C106.376 48.2737 106.068 48.297 105.899 48.2948C100.778 48.2567 95.5071 48.2186 90.5065 48.533C87.7951 48.7012 85.4551 48.6346 82.9437 48.8917C82.4261 48.9457 82.0324 48.7393 81.4959 48.7774C79.956 48.8854 78.4225 48.6727 76.8731 48.7139C75.7586 48.7457 74.3807 48.7743 73.3075 48.5806C72.3995 48.4176 71.4354 48.3308 70.4151 48.3202C66.4972 48.2821 63.2301 48.2779 60.6139 48.3075C60.5081 48.3097 60.416 48.2737 60.3377 48.1996C60.0667 47.9456 59.89 47.9107 59.8074 48.0948C59.4243 46.7063 59.1005 45.7802 58.8359 45.3167C57.277 42.5735 55.1339 38.1856 55.172 35.163C55.1847 34.1915 55.1656 33.293 54.8799 32.3309C54.4004 30.7307 53.8257 29.0829 53.6575 27.4986C53.3463 24.53 53.8258 21.7137 54.6608 18.8626C55.4101 16.3099 55.8577 14.4557 56.4261 12.23C56.4515 12.1263 56.5171 12.0734 56.6229 12.0713C62.7348 11.9665 69.215 13.9953 74.549 16.8814C78.3971 18.9663 81.8959 21.5306 85.0455 24.5744C89.9816 29.3454 94.8647 34.1703 99.695 39.0492C102.544 41.9279 105.294 44.8891 107.944 47.9329Z" fill="#0079B5"/>
<path d="M187.461 98.1678C187.394 98.225 187.339 98.2991 187.296 98.3901C187.26 98.4705 187.279 98.534 187.353 98.5806C187.47 98.6526 187.474 98.7605 187.366 98.9044C187.112 99.2505 186.579 99.3585 186.112 99.3521C181.515 99.3034 176.918 99.3436 172.323 99.4728C170.579 99.5214 168.833 99.5236 167.084 99.4791C166.674 99.4707 166.337 99.5902 166.075 99.8379C165.971 99.9353 165.895 99.9173 165.846 99.7839L165.811 99.6887C165.781 99.6061 165.725 99.5786 165.643 99.6061L165.151 99.7712C165.055 99.803 164.96 99.804 164.865 99.7744C164.619 99.7003 164.397 99.749 164.198 99.9204C164.063 100.036 163.894 100.104 163.716 100.114C163.538 100.124 163.362 100.075 163.214 99.9744C162.941 99.7882 162.725 99.7628 162.566 99.8982C162.492 99.9596 162.411 99.9734 162.322 99.9395C162.034 99.8252 161.802 99.8792 161.626 100.101C161.596 100.14 161.556 100.169 161.509 100.185C161.463 100.201 161.414 100.204 161.366 100.193C160.896 100.092 160.547 99.8792 160.074 99.9141C159.693 99.9416 159.329 100.025 158.982 100.165C158.878 100.207 158.773 100.211 158.667 100.178L157.874 99.9268C157.778 99.8972 157.69 99.9088 157.61 99.9617C157.464 100.059 157.317 100.066 157.169 99.9839C157.124 99.959 157.073 99.947 157.021 99.9493C156.97 99.9515 156.92 99.9679 156.877 99.9966C156.302 100.384 155.902 100.108 155.315 99.9427C155.221 99.9151 155.134 99.9268 155.051 99.9776C154.924 100.052 154.79 100.06 154.648 100.003C154.542 99.9628 154.438 99.9681 154.337 100.019C153.854 100.269 153.362 100.239 152.86 99.93C152.75 99.8622 152.642 99.8686 152.536 99.949C152.407 100.048 152.273 100.069 152.133 100.009C152.025 99.9607 151.918 99.9628 151.813 100.016C151.321 100.268 150.824 100.24 150.32 99.9331C150.208 99.8654 150.1 99.8707 149.996 99.949C149.865 100.048 149.731 100.069 149.593 100.009C149.485 99.9607 149.378 99.9628 149.273 100.016C148.781 100.268 148.284 100.24 147.78 99.9331C147.668 99.8654 147.56 99.8707 147.456 99.949C147.325 100.048 147.191 100.069 147.053 100.009C146.945 99.9607 146.838 99.9628 146.733 100.016C146.241 100.268 145.744 100.24 145.24 99.9331C145.128 99.8654 145.02 99.8707 144.916 99.949C144.785 100.048 144.651 100.069 144.513 100.009C144.405 99.9607 144.298 99.9628 144.193 100.016C143.701 100.268 143.204 100.24 142.7 99.9331C142.588 99.8654 142.48 99.8707 142.376 99.949C142.245 100.048 142.111 100.069 141.973 100.009C141.865 99.9607 141.758 99.9628 141.653 100.016C141.161 100.268 140.664 100.24 140.16 99.9331C140.048 99.8654 139.94 99.8707 139.836 99.949C139.705 100.048 139.571 100.069 139.433 100.009C139.325 99.9607 139.218 99.9628 139.113 100.016C138.621 100.268 138.124 100.24 137.62 99.9331C137.508 99.8654 137.4 99.8707 137.296 99.949C137.165 100.048 137.031 100.069 136.893 100.009C136.785 99.9607 136.678 99.9628 136.573 100.016C136.081 100.268 135.584 100.24 135.08 99.9331C134.968 99.8654 134.86 99.8707 134.756 99.949C134.632 100.044 134.503 100.066 134.372 100.016C134.247 99.967 134.124 99.9723 134.001 100.032C133.52 100.264 133.033 100.232 132.54 99.9331C132.493 99.9049 132.438 99.8907 132.383 99.8924C132.328 99.8941 132.275 99.9115 132.229 99.9427C132.06 100.061 131.882 100.071 131.696 99.9712C131.654 99.9496 131.608 99.9408 131.561 99.9459C131.515 99.951 131.471 99.9697 131.435 99.9998C130.924 100.432 130.426 100.076 129.902 99.9395C129.804 99.912 129.713 99.9268 129.629 99.9839C129.512 100.062 129.39 100.066 129.26 99.9966C129.163 99.9416 129.065 99.9395 128.965 99.9903L128.572 100.187C128.466 100.24 128.357 100.249 128.244 100.213L127.403 99.9427C127.295 99.9088 127.193 99.9215 127.095 99.9808C126.939 100.076 126.781 100.074 126.622 99.9744C126.583 99.9505 126.538 99.9394 126.493 99.9428C126.447 99.9462 126.403 99.964 126.368 99.9935C125.838 100.435 125.355 100.079 124.822 99.9395C124.724 99.912 124.633 99.9268 124.549 99.9839C124.432 100.062 124.31 100.066 124.18 99.9966C124.083 99.9416 123.985 99.9395 123.885 99.9903L123.492 100.187C123.386 100.24 123.277 100.249 123.164 100.213L122.323 99.9427C122.215 99.9088 122.113 99.9215 122.015 99.9808C121.859 100.076 121.701 100.074 121.542 99.9744C121.503 99.9504 121.458 99.9393 121.412 99.9428C121.366 99.9462 121.321 99.9639 121.285 99.9935C120.751 100.441 120.278 100.073 119.739 99.9395C119.652 99.9183 119.569 99.931 119.491 99.9776C119.368 100.05 119.238 100.06 119.1 100.009C119.048 99.9894 118.991 99.9808 118.934 99.984C118.877 99.9873 118.821 100.002 118.77 100.028C118.279 100.274 117.795 100.238 117.316 99.9204C117.221 99.8569 117.128 99.858 117.037 99.9236C116.857 100.053 116.666 100.072 116.465 99.9808C116.357 99.9321 116.259 99.9448 116.17 100.019C115.706 100.4 115.163 100.079 114.678 99.9427C114.582 99.9173 114.493 99.9289 114.408 99.9776C114.283 100.052 114.15 100.06 114.008 100.003C113.902 99.9628 113.798 99.9681 113.697 100.019C113.214 100.269 112.722 100.239 112.22 99.93C112.11 99.8622 112.002 99.8686 111.896 99.949C111.767 100.048 111.633 100.069 111.493 100.009C111.385 99.9607 111.278 99.9628 111.173 100.016C110.681 100.268 110.184 100.24 109.68 99.9331C109.568 99.8654 109.46 99.8707 109.356 99.949C109.225 100.048 109.091 100.069 108.953 100.009C108.845 99.9607 108.738 99.9628 108.633 100.016C108.141 100.268 107.644 100.24 107.14 99.9331C107.028 99.8654 106.92 99.8707 106.816 99.949C106.685 100.048 106.551 100.069 106.413 100.009C106.305 99.9607 106.198 99.9628 106.093 100.016C105.601 100.268 105.104 100.24 104.6 99.9331C104.488 99.8654 104.38 99.8707 104.276 99.949C104.145 100.048 104.011 100.069 103.873 100.009C103.765 99.9607 103.658 99.9628 103.553 100.016C103.061 100.268 102.564 100.24 102.06 99.9331C101.948 99.8654 101.84 99.8707 101.736 99.949C101.605 100.048 101.471 100.069 101.333 100.009C101.225 99.9607 101.118 99.9628 101.013 100.016C100.521 100.268 100.024 100.24 99.5203 99.9331C99.4081 99.8654 99.3001 99.8707 99.1964 99.949C99.0652 100.048 98.9308 100.069 98.7932 100.009C98.6852 99.9607 98.5784 99.9628 98.4725 100.016C97.9772 100.27 97.4745 100.239 96.9644 99.9236C96.8586 99.858 96.758 99.8654 96.6628 99.9458C96.54 100.05 96.4024 100.07 96.25 100.006C96.1889 99.9816 96.1229 99.9717 96.0573 99.9772C95.9917 99.9828 95.9283 100.004 95.8722 100.038C95.506 100.256 95.125 100.257 94.7292 100.041C94.6361 99.9903 94.5366 99.9607 94.4308 99.9522C93.9016 99.9035 93.4116 99.9818 92.9607 100.187C92.857 100.234 92.7533 100.234 92.6496 100.187C92.1141 99.948 91.5553 99.8792 90.9732 99.9808C90.7541 100.019 90.5604 100.162 90.3382 100.2C90.0461 100.247 89.6651 100.035 89.3253 99.9966C89.2195 99.9861 89.1169 99.9998 89.0174 100.038C88.9158 100.076 88.8152 100.077 88.7158 100.041C88.612 100.003 88.5104 100.007 88.4109 100.054C88.068 100.208 87.6236 100.209 87.0774 100.057C86.1853 99.8061 85.3852 100.536 84.2961 99.9458C84.2024 99.8968 84.0923 99.8854 83.9882 99.9141C83.7278 99.9882 83.4601 99.9787 83.1849 99.8855C83.0558 99.8432 82.9584 99.8802 82.8928 99.9966C82.8716 100.033 82.8356 100.053 82.7848 100.057C82.6473 100.07 82.5679 100.073 82.5467 100.066C82.3266 99.9924 82.1424 99.8696 81.9943 99.6982C81.9265 99.6199 81.8408 99.5765 81.7371 99.568C80.7401 99.4897 79.7411 99.4707 78.7399 99.5109C78.6573 99.513 78.5811 99.5013 78.5113 99.4759C78.433 99.4463 78.3515 99.4304 78.2668 99.4283C73.7414 99.3437 69.216 99.313 64.6905 99.3362C64.2037 99.3405 63.8671 99.4029 63.6809 99.5236C63.6618 99.5363 63.6481 99.5521 63.6396 99.5712C63.6269 99.6008 63.6195 99.6305 63.6174 99.6601C63.6153 99.6897 63.5994 99.7077 63.5697 99.7141C63.4237 99.7458 63.3327 99.8294 63.2967 99.9649C63.2692 100.056 63.211 100.087 63.1221 100.057L62.8713 99.9776L64.1667 98.552C64.2534 98.4568 64.2968 98.3456 64.2968 98.2186L64.2936 93.8943C64.2935 93.6817 64.3466 93.4722 64.448 93.2849C64.5494 93.0975 64.6961 92.9381 64.8747 92.8211C67.0591 91.3924 69.8404 89.9541 71.5517 88.1317C71.5797 88.1018 71.6014 88.0666 71.6154 88.0281C71.6295 87.9897 71.6357 87.9488 71.6336 87.9079C71.6316 87.867 71.6213 87.8269 71.6034 87.7901C71.5855 87.7533 71.5603 87.7204 71.5295 87.6935C67.3861 84.0677 64.2587 79.3242 63.5824 73.733C63.1739 70.3485 62.7802 66.9639 62.4013 63.5794C61.8267 58.4232 61.1409 53.1114 59.8074 48.0949C59.8899 47.9108 60.0667 47.9457 60.3376 48.1997C60.4159 48.2738 60.508 48.3098 60.6138 48.3076C63.23 48.278 66.4971 48.2822 70.415 48.3203C71.4353 48.3309 72.3994 48.4177 73.3075 48.5807C74.3806 48.7744 75.7586 48.7458 76.873 48.714C78.4224 48.6728 79.9559 48.8855 81.4958 48.7775C82.0324 48.7394 82.4261 48.9458 82.9436 48.8918C85.455 48.6347 87.795 48.7013 90.5064 48.5331C95.5071 48.2187 100.778 48.2568 105.899 48.2949C106.068 48.2971 106.376 48.2738 106.823 48.2251C107.136 48.1912 107.451 48.2018 107.769 48.2568C107.779 48.2583 107.788 48.2572 107.798 48.2535C107.807 48.2498 107.814 48.2437 107.82 48.2359C107.826 48.2281 107.83 48.2188 107.831 48.2091C107.832 48.1993 107.83 48.1895 107.826 48.1806C107.813 48.1531 107.8 48.1267 107.785 48.1013C107.751 48.0462 107.764 48.0071 107.823 47.9838L107.944 47.933C112.157 52.7177 116.233 58.274 118.119 64.4271C118.821 66.7195 119.402 68.1768 120.444 69.9834C120.451 69.9973 120.462 70.0088 120.476 70.0169C120.49 70.025 120.505 70.0292 120.521 70.0292C120.537 70.0292 120.553 70.025 120.566 70.0169C120.58 70.0088 120.591 69.9973 120.599 69.9834C121.491 68.3736 122.155 67.2497 123.984 66.675C124.926 66.3808 125.986 66.3787 127.165 66.6687C129.902 67.3439 131.321 69.2849 131.423 72.4916C131.424 72.5122 131.43 72.5322 131.442 72.5493C131.453 72.5665 131.469 72.5801 131.488 72.5887C131.506 72.5972 131.526 72.6004 131.546 72.5979C131.566 72.5953 131.585 72.5871 131.6 72.5742C135.618 69.3568 139.596 66.1289 143.535 62.8904C151.514 56.3245 160.141 51.2953 170.193 48.641C175.66 47.1953 181.71 46.2153 188.344 45.701C194.317 45.2374 198.704 45.0924 201.504 45.266C203.295 45.3771 206.07 46.9487 205.918 49.1173C205.56 54.2375 204.588 59.2307 203.003 64.0969C202.095 66.8814 200.647 69.796 198.571 71.8852C194.072 76.4127 190.671 82.9786 188.665 88.9826C187.677 91.9353 187.017 95.0532 187.461 98.1678Z" fill="#0079B5"/>
<path d="M187.462 98.1677C188.376 103.775 182.426 110.122 177.632 112.242C177.257 112.408 176.809 112.42 176.374 112.503C176.351 112.507 176.328 112.518 176.31 112.534C176.292 112.55 176.278 112.57 176.27 112.593C176.263 112.616 176.261 112.641 176.266 112.665C176.271 112.688 176.282 112.71 176.298 112.728C177.435 113.994 178.196 114.918 178.581 115.5C182.391 121.279 181.639 128.448 179.508 134.674C176.873 142.367 170.767 155.296 161.528 156.439C160.482 156.568 159.038 156.492 157.194 156.213C152.117 155.438 146.831 153.968 142.497 151.425C137.938 148.745 135.217 144.726 132.864 140.125C129.835 134.192 127.338 128.092 125.371 121.825C125.282 121.539 125.222 121.545 125.19 121.844L124.612 127.552C124.602 127.667 124.547 127.753 124.447 127.813C119.656 130.638 118.869 135.912 118.891 140.983C118.893 141.618 118.762 141.646 118.497 141.068C118.48 141.028 118.444 140.834 118.389 140.487C117.517 135.067 116.809 129.645 116.265 124.222C116.263 124.2 116.254 124.179 116.24 124.162C116.227 124.144 116.208 124.131 116.187 124.124C116.166 124.117 116.144 124.115 116.122 124.12C116.101 124.125 116.081 124.136 116.065 124.152C112.922 127.346 109.801 130.502 106.267 133.251C105.054 134.198 103.492 134.696 102.464 135.611C99.422 138.316 97.4439 142.027 94.3197 144.739C91.1384 147.498 88.3888 146.425 84.7693 144.602C77.8986 141.148 71.1454 136.271 65.9924 130.305C63.9731 127.968 62.0363 124.987 61.1537 121.952C60.8468 120.898 60.6213 119.379 60.4774 117.396C60.1631 113.109 59.8265 108.753 60.0139 104.457C60.071 103.222 60.1059 102.537 61.0743 101.651C61.6818 101.1 62.2808 100.543 62.8714 99.9775L63.1222 100.057C63.2111 100.086 63.2693 100.056 63.2968 99.9648C63.3328 99.8293 63.4238 99.7457 63.5699 99.7139C63.5995 99.7076 63.6154 99.6896 63.6175 99.66C63.6196 99.6303 63.627 99.6007 63.6397 99.5711C63.6482 99.552 63.6619 99.5361 63.681 99.5234C63.8673 99.4028 64.2038 99.3404 64.6906 99.3361C69.2161 99.3128 73.7415 99.3435 78.2669 99.4282C78.3516 99.4303 78.4331 99.4462 78.5114 99.4758C78.5813 99.5012 78.6575 99.5129 78.74 99.5108C79.7412 99.4705 80.7403 99.4896 81.7372 99.5679C81.8409 99.5764 81.9267 99.6198 81.9944 99.6981C82.1425 99.8695 82.3267 99.9923 82.5468 100.066C82.568 100.073 82.6474 100.07 82.785 100.057C82.8358 100.053 82.8717 100.033 82.8929 99.9965C82.9585 99.8801 83.0559 99.8431 83.185 99.8854C83.4602 99.9785 83.7279 99.9881 83.9883 99.914C84.0924 99.8853 84.2025 99.8967 84.2963 99.9457C85.3853 100.536 86.1854 99.806 87.0776 100.057C87.6237 100.209 88.0682 100.208 88.4111 100.054C88.5105 100.007 88.6121 100.003 88.7159 100.041C88.8153 100.077 88.9159 100.076 89.0175 100.038C89.117 99.9997 89.2196 99.9859 89.3255 99.9965C89.6652 100.035 90.0462 100.247 90.3383 100.2C90.5605 100.162 90.7542 100.019 90.9733 99.9806C91.5554 99.879 92.1142 99.9478 92.6497 100.187C92.7534 100.234 92.8571 100.234 92.9608 100.187C93.4117 99.9817 93.9017 99.9034 94.4309 99.9521C94.5367 99.9605 94.6362 99.9902 94.7293 100.041C95.1251 100.257 95.5061 100.256 95.8723 100.038C95.9284 100.003 95.9919 99.9826 96.0575 99.9771C96.1231 99.9716 96.189 99.9815 96.2501 100.006C96.4025 100.07 96.5401 100.049 96.6629 99.9457C96.7581 99.8653 96.8587 99.8579 96.9645 99.9235C97.4746 100.239 97.9773 100.27 98.4726 100.016C98.5785 99.9627 98.6854 99.9605 98.7933 100.009C98.9309 100.068 99.0653 100.048 99.1965 99.9489C99.3002 99.8706 99.4082 99.8653 99.5204 99.933C100.024 100.24 100.522 100.267 101.013 100.016C101.118 99.9627 101.225 99.9605 101.333 100.009C101.471 100.068 101.605 100.048 101.737 99.9489C101.84 99.8706 101.948 99.8653 102.06 99.933C102.564 100.24 103.062 100.267 103.553 100.016C103.658 99.9627 103.765 99.9605 103.873 100.009C104.011 100.068 104.145 100.048 104.277 99.9489C104.38 99.8706 104.488 99.8653 104.6 99.933C105.104 100.24 105.602 100.267 106.093 100.016C106.198 99.9627 106.305 99.9605 106.413 100.009C106.551 100.068 106.685 100.048 106.817 99.9489C106.92 99.8706 107.028 99.8653 107.14 99.933C107.644 100.24 108.142 100.267 108.633 100.016C108.738 99.9627 108.845 99.9605 108.953 100.009C109.091 100.068 109.225 100.048 109.357 99.9489C109.46 99.8706 109.568 99.8653 109.68 99.933C110.184 100.24 110.682 100.267 111.173 100.016C111.278 99.9627 111.385 99.9605 111.493 100.009C111.633 100.068 111.767 100.048 111.897 99.9489C112.002 99.8685 112.11 99.8621 112.22 99.9298C112.722 100.239 113.214 100.269 113.697 100.019C113.798 99.9679 113.902 99.9627 114.008 100.003C114.15 100.06 114.283 100.052 114.408 99.9775C114.493 99.9288 114.583 99.9171 114.678 99.9425C115.164 100.079 115.707 100.4 116.17 100.019C116.259 99.9447 116.357 99.932 116.465 99.9806C116.666 100.072 116.857 100.053 117.037 99.9235C117.128 99.8579 117.221 99.8568 117.316 99.9203C117.795 100.238 118.279 100.274 118.77 100.028C118.821 100.002 118.877 99.9872 118.934 99.9839C118.991 99.9806 119.048 99.9892 119.101 100.009C119.238 100.06 119.368 100.049 119.491 99.9775C119.569 99.9309 119.652 99.9182 119.739 99.9394C120.279 100.073 120.752 100.441 121.285 99.9933C121.321 99.9638 121.366 99.9461 121.412 99.9426C121.458 99.9392 121.503 99.9503 121.542 99.9743C121.701 100.074 121.859 100.076 122.015 99.9806C122.113 99.9214 122.215 99.9087 122.323 99.9425L123.165 100.212C123.277 100.248 123.386 100.24 123.492 100.187L123.885 99.9902C123.985 99.9394 124.083 99.9415 124.181 99.9965C124.31 100.066 124.432 100.062 124.549 99.9838C124.634 99.9267 124.725 99.9119 124.822 99.9394C125.355 100.079 125.838 100.435 126.368 99.9933C126.404 99.9638 126.447 99.9461 126.493 99.9427C126.538 99.9393 126.584 99.9503 126.622 99.9743C126.781 100.074 126.939 100.076 127.095 99.9806C127.193 99.9214 127.295 99.9087 127.403 99.9425L128.245 100.212C128.357 100.248 128.466 100.24 128.572 100.187L128.965 99.9902C129.065 99.9394 129.163 99.9415 129.261 99.9965C129.39 100.066 129.512 100.062 129.629 99.9838C129.714 99.9267 129.805 99.9119 129.902 99.9394C130.426 100.076 130.924 100.431 131.435 99.9997C131.471 99.9696 131.515 99.9509 131.561 99.9458C131.608 99.9407 131.655 99.9495 131.696 99.9711C131.882 100.071 132.06 100.061 132.229 99.9425C132.275 99.9114 132.328 99.894 132.383 99.8923C132.439 99.8906 132.493 99.9047 132.54 99.933C133.034 100.231 133.52 100.264 134.001 100.031C134.124 99.9722 134.247 99.9669 134.372 100.016C134.504 100.066 134.632 100.044 134.757 99.9489C134.86 99.8706 134.968 99.8653 135.08 99.933C135.584 100.24 136.082 100.267 136.573 100.016C136.678 99.9627 136.785 99.9605 136.893 100.009C137.031 100.068 137.165 100.048 137.297 99.9489C137.4 99.8706 137.508 99.8653 137.62 99.933C138.124 100.24 138.622 100.267 139.113 100.016C139.218 99.9627 139.325 99.9605 139.433 100.009C139.571 100.068 139.705 100.048 139.837 99.9489C139.94 99.8706 140.048 99.8653 140.16 99.933C140.664 100.24 141.162 100.267 141.653 100.016C141.758 99.9627 141.865 99.9605 141.973 100.009C142.111 100.068 142.245 100.048 142.377 99.9489C142.48 99.8706 142.588 99.8653 142.7 99.933C143.204 100.24 143.702 100.267 144.193 100.016C144.298 99.9627 144.405 99.9605 144.513 100.009C144.651 100.068 144.785 100.048 144.917 99.9489C145.02 99.8706 145.128 99.8653 145.24 99.933C145.744 100.24 146.242 100.267 146.733 100.016C146.838 99.9627 146.945 99.9605 147.053 100.009C147.191 100.068 147.325 100.048 147.457 99.9489C147.56 99.8706 147.668 99.8653 147.78 99.933C148.284 100.24 148.782 100.267 149.273 100.016C149.378 99.9627 149.485 99.9605 149.593 100.009C149.731 100.068 149.865 100.048 149.997 99.9489C150.1 99.8706 150.208 99.8653 150.32 99.933C150.824 100.24 151.322 100.267 151.813 100.016C151.918 99.9627 152.025 99.9605 152.133 100.009C152.273 100.068 152.407 100.048 152.537 99.9489C152.642 99.8685 152.75 99.8621 152.86 99.9298C153.362 100.239 153.854 100.269 154.337 100.019C154.438 99.9679 154.542 99.9627 154.648 100.003C154.79 100.06 154.924 100.052 155.051 99.9775C155.134 99.9267 155.222 99.915 155.315 99.9425C155.902 100.108 156.302 100.384 156.877 99.9965C156.92 99.9678 156.97 99.9514 157.021 99.9492C157.073 99.9469 157.124 99.9589 157.169 99.9838C157.317 100.066 157.464 100.059 157.61 99.9616C157.691 99.9087 157.778 99.897 157.874 99.9267L158.667 100.177C158.773 100.211 158.878 100.207 158.982 100.165C159.329 100.025 159.693 99.9415 160.074 99.914C160.547 99.879 160.896 100.092 161.366 100.193C161.414 100.204 161.464 100.201 161.51 100.185C161.556 100.168 161.596 100.14 161.627 100.101C161.802 99.879 162.034 99.8251 162.322 99.9394C162.411 99.9732 162.492 99.9595 162.566 99.8981C162.725 99.7626 162.941 99.788 163.214 99.9743C163.362 100.075 163.538 100.124 163.716 100.114C163.894 100.104 164.063 100.036 164.198 99.9203C164.397 99.7489 164.62 99.7002 164.865 99.7743C164.96 99.8039 165.056 99.8028 165.151 99.7711L165.643 99.606C165.725 99.5785 165.782 99.606 165.811 99.6886L165.846 99.7838C165.895 99.9171 165.971 99.9351 166.075 99.8378C166.337 99.5901 166.674 99.4705 167.084 99.479C168.833 99.5235 170.579 99.5213 172.323 99.4726C176.918 99.3435 181.515 99.3033 186.112 99.352C186.579 99.3584 187.112 99.2504 187.366 98.9043C187.474 98.7604 187.47 98.6524 187.354 98.5805C187.28 98.5339 187.26 98.4704 187.296 98.39C187.339 98.299 187.394 98.2249 187.462 98.1677Z" fill="#0079B5"/>
<path d="M148.298 208.302C146.842 211.966 144.105 214.097 140.087 214.694C134.21 215.567 127.914 214.214 125.749 208.026C125.146 206.305 124.833 204.287 124.812 201.971C124.768 197.116 124.762 192.26 124.793 187.404C124.831 181.346 126.124 175.333 132.705 173.507C135.256 172.8 137.994 172.746 140.919 173.345C147.71 174.736 149.873 180.407 149.32 186.684C149.312 186.794 149.252 186.849 149.142 186.849H141.846C141.736 186.849 141.682 186.794 141.684 186.684C141.76 182.991 141.595 178.511 136.357 179.207C133.464 179.591 132.737 182.22 132.731 184.706C132.716 191.003 132.713 197.3 132.721 203.597C132.721 204.164 132.894 205.008 133.239 206.127C133.699 207.616 134.731 208.432 136.284 208.645C142.243 209.455 141.621 203.394 141.697 199.695C141.699 199.597 141.75 199.549 141.849 199.549L149.136 199.552C149.223 199.554 149.271 199.598 149.282 199.685C149.623 202.926 149.295 205.798 148.298 208.302Z" fill="#0079B5"/>
<path d="M210.026 186.287C210.128 182.652 208.931 178.267 204.153 179.242C201.016 179.883 200.435 183.302 202.136 185.579C202.498 186.064 203.261 186.689 204.426 187.455C208.308 190.014 211.023 191.815 212.573 192.856C215.659 194.932 217.83 197.482 218.291 201.371C219.078 207.975 216.424 213.449 209.385 214.624C199.095 216.341 192.453 210.865 193.18 200.273C193.188 200.161 193.249 200.104 193.361 200.104H200.339C200.441 200.104 200.493 200.156 200.495 200.26C200.558 203.429 200.476 207.401 204.321 208.458C209.864 209.982 212.474 204.013 209.013 200.336C208.311 199.589 207.384 198.847 206.232 198.111C203.832 196.574 201.446 195.014 199.076 193.431C195.985 191.367 194.187 188.64 193.681 185.249C192.818 179.467 195.812 174.701 201.695 173.365C206.153 172.352 212.065 173.009 214.989 176.797C216.967 179.359 217.595 183.093 217.367 186.325C217.363 186.41 217.318 186.452 217.234 186.452H210.188C210.076 186.452 210.022 186.397 210.026 186.287Z" fill="#0079B5"/>
<path d="M41.51 203.118C41.5069 206.156 43.2372 208.521 46.4122 208.506C51.0414 208.483 51.5272 205.492 51.543 201.692C51.5748 192.372 51.5949 183.058 51.6034 173.749C51.6034 173.729 51.6117 173.709 51.6266 173.695C51.6415 173.681 51.6617 173.673 51.6827 173.673H59.2075C59.2302 173.673 59.252 173.682 59.2681 173.698C59.2842 173.714 59.2932 173.736 59.2932 173.758C59.2911 183.592 59.2911 193.433 59.2932 203.279C59.2964 213.259 51.2319 215.722 42.8975 214.424C36.1951 213.379 33.817 208.975 33.8138 202.638C33.8117 193.003 33.8117 183.375 33.8138 173.755C33.8138 173.733 33.8225 173.712 33.838 173.697C33.8535 173.681 33.8745 173.673 33.8964 173.673H41.3513C41.4571 173.673 41.51 173.726 41.51 173.831C41.5164 183.598 41.5164 193.36 41.51 203.118Z" fill="#0079B5"/>
<path d="M71.2788 178.829V213.916C71.2788 213.937 71.2704 213.957 71.2555 213.972C71.2407 213.987 71.2205 213.995 71.1994 213.995H64.2144C64.1086 213.995 64.0557 213.942 64.0557 213.836V173.831C64.0557 173.726 64.1086 173.673 64.2144 173.673H76.1397C76.2625 173.673 76.3355 173.732 76.3588 173.85L81.5086 199.152C81.5721 199.467 81.6367 199.467 81.7023 199.152L86.8871 173.828C86.9083 173.724 86.9718 173.673 87.0776 173.673H99.1394C99.1923 173.673 99.2188 173.699 99.2188 173.752V213.916C99.2188 213.937 99.2104 213.957 99.1955 213.972C99.1807 213.987 99.1605 213.995 99.1394 213.995H92.075C92.0221 213.995 91.9957 213.969 91.9957 213.916L91.9988 178.365C91.9988 177.868 91.948 177.863 91.8464 178.349L84.3852 213.846C84.364 213.945 84.3037 213.995 84.2042 213.995H79.0321C78.9792 213.995 78.9279 213.977 78.8869 213.944C78.8459 213.911 78.8176 213.865 78.8067 213.814L71.4852 178.807C71.3476 178.148 71.2788 178.156 71.2788 178.829Z" fill="#0079B5"/>
<path d="M111.563 173.673H104.102C104.037 173.673 103.984 173.725 103.984 173.79V213.878C103.984 213.943 104.037 213.995 104.102 213.995H111.563C111.628 213.995 111.681 213.943 111.681 213.878V173.79C111.681 173.725 111.628 173.673 111.563 173.673Z" fill="#0079B5"/>
<path d="M181.851 178.521C181.851 177.992 181.797 177.986 181.689 178.505L174.285 213.9C174.28 213.927 174.266 213.951 174.244 213.968C174.223 213.985 174.196 213.995 174.168 213.995H168.916C168.813 213.995 168.75 213.944 168.729 213.843L161.265 178.191C161.22 177.979 161.145 177.965 161.039 178.149C161.02 178.181 161.034 178.247 161.08 178.346C161.112 178.412 161.128 178.474 161.128 178.534C161.132 190.334 161.133 202.126 161.131 213.909C161.131 213.932 161.122 213.954 161.106 213.97C161.09 213.986 161.068 213.995 161.046 213.995H154.146C154.04 213.995 153.988 213.942 153.988 213.836V173.831C153.988 173.789 154.004 173.749 154.034 173.719C154.064 173.689 154.104 173.673 154.146 173.673H166.122C166.171 173.673 166.2 173.696 166.208 173.742L171.396 199.054C171.474 199.432 171.553 199.432 171.631 199.054L176.794 173.841C176.817 173.729 176.886 173.673 177 173.673H188.992C189.045 173.673 189.071 173.699 189.071 173.752V213.916C189.071 213.937 189.063 213.957 189.048 213.972C189.033 213.987 189.013 213.995 188.992 213.995H182.007C181.901 213.995 181.848 213.942 181.848 213.836L181.851 178.521Z" fill="#0079B5"/>
<path d="M121.888 206.772H115.049C114.988 206.772 114.938 206.822 114.938 206.883V213.881C114.938 213.942 114.988 213.992 115.049 213.992H121.888C121.95 213.992 121.999 213.942 121.999 213.881V206.883C121.999 206.822 121.95 206.772 121.888 206.772Z" fill="#0079B5"/>
<path d="M193.256 217.488C193.38 219.755 196.402 219.193 196.053 217.624C196.021 217.48 196.079 217.408 196.225 217.408H197.339C197.477 217.408 197.549 217.477 197.555 217.615C197.704 221.59 191.478 221.536 191.868 217.478C191.873 217.434 191.897 217.411 191.941 217.411L193.173 217.408C193.226 217.408 193.254 217.435 193.256 217.488Z" fill="#0079B5"/>
<path d="M220.98 218.808L220.977 221.729C220.977 221.747 220.973 221.765 220.966 221.781C220.959 221.798 220.949 221.812 220.937 221.825C220.924 221.837 220.909 221.847 220.892 221.854C220.876 221.86 220.858 221.863 220.84 221.863L220.316 221.844C220.282 221.843 220.248 221.828 220.224 221.804C220.2 221.779 220.186 221.745 220.186 221.71V218.808C220.186 218.773 220.172 218.739 220.147 218.714C220.122 218.689 220.088 218.675 220.053 218.675L219.364 218.678C219.346 218.678 219.328 218.675 219.312 218.668C219.296 218.661 219.281 218.651 219.268 218.638C219.256 218.625 219.246 218.61 219.24 218.594C219.233 218.577 219.23 218.559 219.231 218.542L219.24 218.173C219.241 218.139 219.255 218.105 219.28 218.081C219.305 218.057 219.339 218.043 219.373 218.043H221.64C221.676 218.043 221.71 218.057 221.735 218.082C221.76 218.107 221.774 218.141 221.774 218.177L221.777 218.545C221.777 218.563 221.774 218.581 221.767 218.598C221.761 218.614 221.751 218.63 221.738 218.642C221.725 218.655 221.71 218.665 221.693 218.672C221.676 218.679 221.658 218.682 221.64 218.681L221.113 218.675C221.078 218.675 221.044 218.689 221.019 218.714C220.994 218.739 220.98 218.773 220.98 218.808Z" fill="#0079B5"/>
<path d="M224.511 219.383C224.288 220.115 224.137 220.87 224.057 221.647C224.051 221.702 224.025 221.753 223.984 221.79C223.943 221.827 223.89 221.849 223.834 221.85L223.549 221.856C223.51 221.857 223.472 221.845 223.441 221.821C223.411 221.797 223.389 221.764 223.38 221.726L222.936 219.672C222.796 219.022 222.726 219.029 222.726 219.694V221.688C222.726 221.792 222.676 221.845 222.574 221.847L222.174 221.856C222.066 221.858 222.012 221.805 222.012 221.697V218.202C222.012 218.096 222.065 218.043 222.171 218.043H223.025C223.065 218.043 223.104 218.057 223.136 218.082C223.168 218.107 223.19 218.143 223.199 218.183L223.561 219.827C223.646 220.217 223.724 220.216 223.796 219.824L224.082 218.256C224.107 218.112 224.193 218.041 224.339 218.043L225.19 218.046C225.294 218.046 225.346 218.099 225.346 218.205V221.767C225.346 221.787 225.338 221.805 225.324 221.819C225.311 221.833 225.292 221.84 225.273 221.84L224.628 221.853C224.573 221.853 224.547 221.825 224.549 221.77L224.565 219.392C224.567 219.261 224.549 219.258 224.511 219.383Z" fill="#0079B5"/>
<path d="M38.8016 225.857C39.227 222.796 35.6901 222.447 35.6583 225.266C35.6308 227.516 35.6499 229.764 35.7155 232.01C35.7441 232.946 35.9155 233.889 36.9918 234.016C38.7317 234.223 39.0207 232.296 38.7921 231.08C38.7391 230.802 38.8534 230.664 39.135 230.664H41.2844C41.5681 230.664 41.7067 230.805 41.7004 231.089C41.6337 234.49 40.3288 236.62 36.5823 236.255C33.1469 235.921 32.8167 233.658 32.7913 230.565C32.7754 228.543 32.5881 226.26 32.9755 224.269C33.5216 221.456 36.2679 220.656 38.7698 221.282C41.1447 221.872 41.5956 223.71 41.7004 225.866C41.7131 226.101 41.6019 226.219 41.367 226.219H39.1191C38.8736 226.219 38.7677 226.098 38.8016 225.857Z" fill="#0079B5"/>
<path d="M163.49 232.175C163.49 233.268 163.056 234.316 162.283 235.089C161.51 235.862 160.462 236.296 159.369 236.296H158.22C157.127 236.296 156.079 235.862 155.306 235.089C154.533 234.316 154.099 233.268 154.099 232.175V225.222C154.099 224.129 154.533 223.081 155.306 222.308C156.079 221.535 157.127 221.101 158.22 221.101H159.369C160.462 221.101 161.51 221.535 162.283 222.308C163.056 223.081 163.49 224.129 163.49 225.222V232.175ZM160.563 225.101C160.563 224.647 160.383 224.212 160.062 223.891C159.741 223.57 159.305 223.39 158.852 223.39H158.725C158.5 223.39 158.277 223.434 158.07 223.52C157.862 223.606 157.673 223.732 157.515 223.891C157.356 224.05 157.23 224.239 157.144 224.446C157.058 224.654 157.013 224.876 157.013 225.101V232.289C157.013 232.514 157.058 232.737 157.144 232.944C157.23 233.152 157.356 233.34 157.515 233.499C157.673 233.658 157.862 233.784 158.07 233.87C158.277 233.956 158.5 234.001 158.725 234.001H158.852C159.305 234.001 159.741 233.82 160.062 233.499C160.383 233.178 160.563 232.743 160.563 232.289V225.101Z" fill="#0079B5"/>
<path d="M175.327 225.857C175.749 222.815 172.212 222.412 172.177 225.266C172.154 227.224 172.134 229.182 172.117 231.14C172.107 232.143 172.193 233.848 173.447 233.997C175.254 234.216 175.536 232.429 175.317 231.07C175.273 230.799 175.388 230.664 175.663 230.664H177.813C178.092 230.664 178.229 230.802 178.222 231.08C178.168 234.483 176.854 236.62 173.107 236.255C169.666 235.921 169.354 233.667 169.31 230.568C169.28 228.492 169.285 226.751 169.323 225.346C169.377 223.46 170.326 221.777 172.247 221.285C174.654 220.669 177.378 221.348 178.019 224.076C178.114 224.484 178.183 225.081 178.225 225.866C178.238 226.101 178.127 226.219 177.892 226.219H175.644C175.399 226.219 175.293 226.098 175.327 225.857Z" fill="#0079B5"/>
<path d="M45.9581 223.777L45.9549 226.835C45.9549 226.861 45.9653 226.886 45.9837 226.904C46.0022 226.923 46.0272 226.933 46.0533 226.933H50.384C50.4101 226.933 50.4351 226.944 50.4536 226.962C50.4721 226.98 50.4824 227.006 50.4824 227.032V229.137C50.4824 229.163 50.4721 229.188 50.4536 229.206C50.4351 229.225 50.4101 229.235 50.384 229.235H46.0565C46.0304 229.235 46.0053 229.245 45.9869 229.264C45.9684 229.282 45.9581 229.307 45.9581 229.334V233.582C45.9581 233.608 45.9684 233.633 45.9869 233.651C46.0053 233.67 46.0304 233.68 46.0565 233.68H50.8603C50.8864 233.68 50.9114 233.69 50.9299 233.709C50.9483 233.727 50.9587 233.752 50.9587 233.779L50.9555 235.884C50.9555 235.91 50.9451 235.935 50.9267 235.953C50.9082 235.972 50.8832 235.982 50.8571 235.982H43.2784C43.2523 235.982 43.2272 235.972 43.2088 235.953C43.1903 235.935 43.1799 235.91 43.1799 235.884V221.475C43.1799 221.449 43.1903 221.424 43.2088 221.406C43.2272 221.387 43.2523 221.377 43.2784 221.377H50.8603C50.8864 221.377 50.9114 221.387 50.9299 221.406C50.9483 221.424 50.9587 221.449 50.9587 221.475V223.58C50.9587 223.607 50.9483 223.632 50.9299 223.65C50.9114 223.668 50.8864 223.679 50.8603 223.679H46.0565C46.0304 223.679 46.0053 223.689 45.9869 223.708C45.9684 223.726 45.9581 223.751 45.9581 223.777Z" fill="#0079B5"/>
<path d="M55.1656 230.191V235.903C55.1656 235.955 55.1391 235.982 55.0862 235.982H52.3875C52.3664 235.982 52.3462 235.974 52.3314 235.959C52.3165 235.944 52.3081 235.924 52.3081 235.903V221.539C52.3081 221.448 52.3547 221.401 52.4478 221.399C54.0544 221.369 55.6471 221.34 57.2262 221.31C62.0554 221.218 62.7761 228.286 58.8359 229.794C57.8612 230.168 56.4737 230.022 55.3244 230.032C55.2185 230.032 55.1656 230.085 55.1656 230.191ZM55.172 223.669L55.1593 227.74C55.1593 227.76 55.1673 227.779 55.1816 227.793C55.1959 227.808 55.2152 227.816 55.2355 227.816L56.6356 227.822C56.8704 227.823 57.103 227.779 57.3202 227.692C57.5374 227.606 57.7349 227.478 57.9015 227.317C58.0681 227.156 58.2005 226.965 58.2911 226.754C58.3817 226.543 58.4287 226.317 58.4295 226.089V225.346C58.4311 224.884 58.2444 224.441 57.9104 224.114C57.5764 223.786 57.1224 223.601 56.6483 223.599L55.2482 223.593C55.2279 223.593 55.2086 223.601 55.1943 223.615C55.18 223.63 55.172 223.649 55.172 223.669Z" fill="#0079B5"/>
<path d="M65.2464 236.141V238.839C65.2464 238.892 65.2199 238.919 65.167 238.919H62.627C62.6059 238.919 62.5857 238.91 62.5709 238.896C62.556 238.881 62.5476 238.861 62.5476 238.839V233.839C62.5476 233.733 62.6005 233.68 62.7064 233.68H63.2525C63.3519 233.68 63.4228 233.634 63.4652 233.54C64.1256 232.071 64.4928 230.528 64.5669 228.911C64.6791 226.456 64.7193 224.001 64.6876 221.545C64.6876 221.433 64.7426 221.377 64.8527 221.377H72.787C72.8928 221.377 72.9457 221.43 72.9457 221.536V233.521C72.9457 233.625 72.9986 233.678 73.1045 233.68L73.6633 233.683C73.767 233.683 73.8189 233.736 73.8189 233.842V238.839C73.8189 238.861 73.8105 238.881 73.7956 238.896C73.7807 238.91 73.7605 238.919 73.7395 238.919H71.1201C71.0672 238.919 71.0407 238.892 71.0407 238.839V236.141C71.0407 236.033 70.9878 235.979 70.882 235.979L65.4051 235.982C65.2993 235.982 65.2464 236.035 65.2464 236.141ZM66.2179 233.648C66.2168 233.65 66.2162 233.652 66.2162 233.654C66.2161 233.656 66.2166 233.659 66.2175 233.66C66.2184 233.662 66.2198 233.664 66.2216 233.665C66.2233 233.666 66.2253 233.667 66.2274 233.667C67.4466 233.693 68.6849 233.694 69.9422 233.671C70.0395 233.668 70.0882 233.618 70.0882 233.518V223.758C70.0882 223.737 70.0799 223.717 70.065 223.702C70.0501 223.687 70.0299 223.679 70.0089 223.679H67.5514C67.527 223.679 67.5036 223.688 67.4863 223.705C67.469 223.722 67.4593 223.744 67.4593 223.768C67.5038 227.235 67.6562 230.292 66.2179 233.648Z" fill="#0079B5"/>
<path d="M81.4389 233.578V221.479C81.4389 221.452 81.4496 221.426 81.4686 221.407C81.4877 221.388 81.5135 221.377 81.5405 221.377H84.1154C84.1423 221.377 84.1682 221.388 84.1872 221.407C84.2063 221.426 84.217 221.452 84.217 221.479V233.575C84.217 233.602 84.2272 233.627 84.2456 233.646C84.264 233.665 84.289 233.676 84.3154 233.677L84.9123 233.69C84.9387 233.69 84.9637 233.701 84.9821 233.72C85.0005 233.739 85.0108 233.765 85.0107 233.791V238.814C85.0107 238.841 85 238.867 84.981 238.886C84.9619 238.905 84.9361 238.916 84.9091 238.916L82.5723 238.919C82.5454 238.919 82.5196 238.908 82.5005 238.889C82.4814 238.87 82.4707 238.844 82.4707 238.817V236.084C82.4707 236.057 82.46 236.031 82.441 236.012C82.4219 235.993 82.3961 235.982 82.3691 235.982H75.1905C75.1635 235.982 75.1377 235.971 75.1186 235.952C75.0996 235.933 75.0889 235.907 75.0889 235.88V221.479C75.0889 221.452 75.0996 221.426 75.1186 221.407C75.1377 221.388 75.1635 221.377 75.1905 221.377H77.7654C77.7923 221.377 77.8182 221.388 77.8372 221.407C77.8563 221.426 77.867 221.452 77.867 221.479V233.578C77.867 233.605 77.8777 233.631 77.8967 233.65C77.9158 233.669 77.9416 233.68 77.9686 233.68H81.3373C81.3642 233.68 81.3901 233.669 81.4091 233.65C81.4282 233.631 81.4389 233.605 81.4389 233.578Z" fill="#0079B5"/>
<path d="M89.0586 223.777V226.835C89.0586 226.861 89.069 226.886 89.0875 226.904C89.1059 226.923 89.131 226.933 89.1571 226.933H93.4846C93.5107 226.933 93.5357 226.944 93.5542 226.962C93.5726 226.98 93.583 227.006 93.583 227.032V229.137C93.583 229.163 93.5726 229.188 93.5542 229.206C93.5357 229.225 93.5107 229.235 93.4846 229.235H89.1571C89.131 229.235 89.1059 229.245 89.0875 229.264C89.069 229.282 89.0586 229.307 89.0586 229.334V233.582C89.0586 233.608 89.069 233.633 89.0875 233.651C89.1059 233.67 89.131 233.68 89.1571 233.68H93.9608C93.9869 233.68 94.012 233.69 94.0304 233.709C94.0489 233.727 94.0593 233.752 94.0593 233.779V235.884C94.0593 235.91 94.0489 235.935 94.0304 235.953C94.012 235.972 93.9869 235.982 93.9608 235.982H86.3789C86.3528 235.982 86.3278 235.972 86.3093 235.953C86.2909 235.935 86.2805 235.91 86.2805 235.884V221.475C86.2805 221.449 86.2909 221.424 86.3093 221.406C86.3278 221.387 86.3528 221.377 86.3789 221.377H93.9608C93.9869 221.377 94.012 221.387 94.0304 221.406C94.0489 221.424 94.0593 221.449 94.0593 221.475V223.58C94.0593 223.607 94.0489 223.632 94.0304 223.65C94.012 223.668 93.9869 223.679 93.9608 223.679H89.1571C89.131 223.679 89.1059 223.689 89.0875 223.708C89.069 223.726 89.0586 223.751 89.0586 223.777Z" fill="#0079B5"/>
<path d="M106.944 228.254C107.735 228.694 108.222 229.188 108.404 229.737C109.023 231.6 108.849 234.674 106.823 235.639C106.368 235.855 105.569 235.967 104.426 235.975C102.925 235.988 101.426 235.988 99.93 235.975C99.9097 235.975 99.8904 235.967 99.8761 235.953C99.8618 235.939 99.8538 235.92 99.8538 235.899V221.539C99.8538 221.441 99.9024 221.392 99.9998 221.39C101.738 221.362 103.46 221.36 105.166 221.383C106.04 221.394 106.771 221.649 107.359 222.148C109.004 223.539 108.89 226.936 106.94 228.051C106.822 228.118 106.823 228.186 106.944 228.254ZM102.632 223.587L102.626 227.155C102.626 227.178 102.635 227.2 102.651 227.216C102.667 227.232 102.689 227.241 102.711 227.241L104.197 227.244C104.595 227.245 104.978 227.079 105.26 226.781C105.542 226.484 105.701 226.081 105.702 225.66V225.095C105.703 224.886 105.664 224.68 105.589 224.487C105.514 224.294 105.404 224.119 105.265 223.971C105.125 223.824 104.96 223.706 104.778 223.626C104.596 223.546 104.401 223.504 104.204 223.504L102.718 223.501C102.695 223.501 102.673 223.51 102.657 223.526C102.641 223.542 102.632 223.564 102.632 223.587ZM102.629 229.508L102.61 233.718C102.609 233.736 102.612 233.753 102.619 233.769C102.625 233.786 102.634 233.801 102.646 233.813C102.659 233.826 102.673 233.836 102.689 233.843C102.705 233.85 102.722 233.854 102.74 233.855L104.299 233.861C104.697 233.863 105.08 233.691 105.363 233.383C105.647 233.075 105.807 232.655 105.81 232.216L105.816 231.048C105.818 230.831 105.78 230.615 105.706 230.414C105.632 230.213 105.522 230.03 105.384 229.875C105.245 229.721 105.08 229.598 104.898 229.514C104.717 229.429 104.521 229.385 104.324 229.384L102.765 229.378C102.748 229.377 102.73 229.38 102.714 229.387C102.698 229.393 102.683 229.403 102.67 229.415C102.657 229.427 102.647 229.441 102.64 229.457C102.633 229.473 102.629 229.491 102.629 229.508Z" fill="#0079B5"/>
<path d="M116.015 232.169L113.154 232.172C113.131 232.171 113.109 232.179 113.091 232.193C113.073 232.206 113.061 232.226 113.056 232.248L112.195 235.906C112.19 235.928 112.177 235.948 112.159 235.961C112.142 235.975 112.119 235.983 112.097 235.982H109.334C109.319 235.982 109.304 235.979 109.291 235.972C109.277 235.965 109.265 235.956 109.256 235.944C109.247 235.932 109.241 235.918 109.238 235.903C109.235 235.888 109.235 235.873 109.239 235.858L112.84 221.45C112.845 221.429 112.858 221.41 112.875 221.397C112.892 221.384 112.913 221.377 112.935 221.377H116.456C116.478 221.377 116.5 221.385 116.517 221.399C116.534 221.412 116.546 221.432 116.551 221.453L119.783 235.858C119.787 235.873 119.787 235.888 119.783 235.903C119.78 235.917 119.773 235.931 119.764 235.943C119.754 235.954 119.742 235.964 119.729 235.97C119.715 235.976 119.7 235.979 119.685 235.979L116.853 235.982C116.829 235.982 116.806 235.974 116.788 235.959C116.77 235.944 116.758 235.923 116.754 235.899L116.113 232.251C116.109 232.228 116.097 232.207 116.079 232.192C116.061 232.177 116.038 232.168 116.015 232.169ZM115.691 229.794L114.738 223.92C114.7 223.681 114.657 223.68 114.608 223.917L113.408 229.807C113.389 229.902 113.427 229.949 113.522 229.949H115.557C115.663 229.949 115.708 229.898 115.691 229.794Z" fill="#0079B5"/>
<path d="M123.536 233.68H126.098C126.127 233.68 126.154 233.669 126.175 233.648C126.195 233.628 126.206 233.601 126.206 233.572V221.485C126.206 221.456 126.218 221.429 126.238 221.409C126.258 221.388 126.286 221.377 126.314 221.377H128.876C128.905 221.377 128.932 221.388 128.953 221.409C128.973 221.429 128.984 221.456 128.984 221.485V233.572C128.984 233.601 128.996 233.628 129.016 233.648C129.036 233.669 129.064 233.68 129.092 233.68H131.813C131.842 233.68 131.869 233.669 131.89 233.648C131.91 233.628 131.921 233.601 131.921 233.572V221.485C131.921 221.456 131.933 221.429 131.953 221.409C131.973 221.388 132 221.377 132.029 221.377H134.591C134.62 221.377 134.647 221.388 134.668 221.409C134.688 221.429 134.699 221.456 134.699 221.485V235.874C134.699 235.903 134.688 235.93 134.668 235.95C134.647 235.971 134.62 235.982 134.591 235.982H120.679C120.65 235.982 120.622 235.971 120.602 235.95C120.582 235.93 120.571 235.903 120.571 235.874V221.485C120.571 221.456 120.582 221.429 120.602 221.409C120.622 221.388 120.65 221.377 120.679 221.377H123.32C123.349 221.377 123.376 221.388 123.396 221.409C123.417 221.429 123.428 221.456 123.428 221.485V233.572C123.428 233.601 123.439 233.628 123.46 233.648C123.48 233.669 123.507 233.68 123.536 233.68Z" fill="#0079B5"/>
<path d="M139.224 223.78V226.832C139.224 226.859 139.234 226.884 139.253 226.903C139.273 226.922 139.298 226.933 139.325 226.933H143.567C143.594 226.933 143.62 226.944 143.639 226.963C143.658 226.982 143.669 227.008 143.669 227.035V229.133C143.669 229.16 143.658 229.186 143.639 229.205C143.62 229.224 143.594 229.235 143.567 229.235H139.325C139.298 229.235 139.273 229.246 139.253 229.265C139.234 229.284 139.224 229.31 139.224 229.337V233.578C139.224 233.605 139.234 233.631 139.253 233.65C139.273 233.669 139.298 233.68 139.325 233.68H144.043C144.07 233.68 144.096 233.691 144.115 233.71C144.134 233.729 144.145 233.755 144.145 233.782V235.88C144.145 235.907 144.134 235.933 144.115 235.952C144.096 235.971 144.07 235.982 144.043 235.982H136.468C136.441 235.982 136.415 235.971 136.396 235.952C136.377 235.933 136.366 235.907 136.366 235.88V221.479C136.366 221.452 136.377 221.426 136.396 221.407C136.415 221.388 136.441 221.377 136.468 221.377H144.043C144.07 221.377 144.096 221.388 144.115 221.407C144.134 221.426 144.145 221.452 144.145 221.479V223.577C144.145 223.604 144.134 223.63 144.115 223.649C144.096 223.668 144.07 223.679 144.043 223.679H139.325C139.298 223.679 139.273 223.69 139.253 223.709C139.234 223.728 139.224 223.753 139.224 223.78Z" fill="#0079B5"/>
<path d="M148.272 223.78V235.88C148.272 235.907 148.262 235.933 148.243 235.952C148.224 235.971 148.198 235.982 148.171 235.982H145.675C145.648 235.982 145.623 235.971 145.603 235.952C145.584 235.933 145.574 235.907 145.574 235.88V221.479C145.574 221.452 145.584 221.426 145.603 221.407C145.623 221.388 145.648 221.377 145.675 221.377H153.013C153.04 221.377 153.066 221.388 153.085 221.407C153.104 221.426 153.114 221.452 153.114 221.479V223.577C153.114 223.604 153.104 223.63 153.085 223.649C153.066 223.668 153.04 223.679 153.013 223.679H148.374C148.347 223.679 148.321 223.69 148.302 223.709C148.283 223.728 148.272 223.753 148.272 223.78Z" fill="#0079B5"/>
<path d="M182.648 232.255L181.861 235.899C181.856 235.923 181.842 235.944 181.823 235.96C181.804 235.975 181.781 235.983 181.756 235.982H178.934C178.918 235.982 178.902 235.978 178.888 235.971C178.873 235.964 178.861 235.954 178.851 235.942C178.841 235.929 178.834 235.915 178.831 235.899C178.828 235.883 178.828 235.867 178.832 235.852L182.432 221.456C182.438 221.434 182.451 221.414 182.47 221.399C182.488 221.385 182.511 221.377 182.534 221.377H186.115C186.14 221.376 186.164 221.384 186.183 221.399C186.202 221.414 186.215 221.436 186.22 221.46L189.37 235.852C189.373 235.867 189.373 235.883 189.369 235.898C189.366 235.913 189.359 235.927 189.349 235.939C189.339 235.952 189.327 235.961 189.313 235.968C189.299 235.975 189.284 235.979 189.268 235.979L186.449 235.982C186.424 235.982 186.4 235.974 186.381 235.958C186.362 235.943 186.349 235.921 186.344 235.896L185.712 232.255C185.708 232.23 185.695 232.208 185.676 232.192C185.656 232.177 185.632 232.168 185.607 232.169L182.753 232.172C182.729 232.171 182.705 232.179 182.686 232.194C182.667 232.209 182.653 232.231 182.648 232.255ZM184.207 223.914L183.071 229.797C183.052 229.901 183.094 229.953 183.198 229.953L185.08 229.949C185.229 229.949 185.291 229.876 185.268 229.73L184.341 223.917C184.3 223.659 184.256 223.658 184.207 223.914Z" fill="#0079B5"/>
<path d="M196.828 226.543C196.828 226.426 196.808 226.422 196.768 226.53L193.237 235.887C193.227 235.914 193.208 235.937 193.185 235.953C193.161 235.97 193.133 235.979 193.104 235.979L190.341 235.982C190.236 235.982 190.183 235.929 190.183 235.823V221.456C190.183 221.435 190.191 221.415 190.206 221.4C190.221 221.385 190.241 221.377 190.262 221.377H192.707C192.751 221.377 192.773 221.398 192.773 221.44C192.869 224.709 192.815 227.972 192.611 231.232C192.601 231.387 192.623 231.392 192.678 231.248L196.352 221.51C196.383 221.421 196.447 221.377 196.542 221.377H199.231C199.337 221.377 199.39 221.43 199.39 221.536V235.903C199.39 235.924 199.382 235.944 199.367 235.959C199.352 235.974 199.332 235.982 199.311 235.982H196.837C196.813 235.982 196.79 235.972 196.772 235.955C196.755 235.938 196.745 235.914 196.745 235.89L196.828 226.543Z" fill="#0079B5"/>
<path d="M206.613 223.777V235.884C206.613 235.91 206.603 235.935 206.584 235.953C206.566 235.972 206.541 235.982 206.515 235.982H203.933C203.907 235.982 203.882 235.972 203.864 235.953C203.845 235.935 203.835 235.91 203.835 235.884V223.777C203.835 223.751 203.825 223.726 203.806 223.708C203.788 223.689 203.763 223.679 203.737 223.679H200.52C200.494 223.679 200.469 223.668 200.451 223.65C200.432 223.632 200.422 223.607 200.422 223.58V221.475C200.422 221.449 200.432 221.424 200.451 221.406C200.469 221.387 200.494 221.377 200.52 221.377H209.848C209.875 221.377 209.9 221.387 209.918 221.406C209.936 221.424 209.947 221.449 209.947 221.475V223.58C209.947 223.607 209.936 223.632 209.918 223.65C209.9 223.668 209.875 223.679 209.848 223.679H206.712C206.685 223.679 206.66 223.689 206.642 223.708C206.624 223.726 206.613 223.751 206.613 223.777Z" fill="#0079B5"/>
<path d="M213.938 232.261L213.15 235.893C213.145 235.918 213.132 235.94 213.112 235.957C213.092 235.973 213.068 235.982 213.042 235.982H210.239C210.222 235.982 210.205 235.978 210.19 235.971C210.174 235.963 210.161 235.952 210.15 235.939C210.14 235.925 210.133 235.91 210.129 235.893C210.126 235.876 210.127 235.859 210.131 235.842L213.792 221.46C213.798 221.436 213.812 221.415 213.832 221.4C213.851 221.385 213.875 221.377 213.9 221.377H217.402C217.427 221.377 217.452 221.386 217.471 221.402C217.491 221.418 217.505 221.441 217.51 221.466L220.65 235.849C220.653 235.865 220.653 235.881 220.649 235.897C220.645 235.913 220.638 235.928 220.627 235.941C220.617 235.954 220.604 235.964 220.589 235.971C220.574 235.978 220.558 235.982 220.542 235.982H217.751C217.725 235.982 217.7 235.972 217.68 235.955C217.661 235.939 217.647 235.915 217.643 235.89L216.998 232.264C216.994 232.238 216.981 232.215 216.961 232.199C216.941 232.182 216.916 232.172 216.891 232.172H214.046C214.02 232.172 213.996 232.181 213.976 232.197C213.956 232.213 213.943 232.236 213.938 232.261ZM216.659 229.88L215.671 223.761C215.623 223.467 215.571 223.466 215.516 223.758L214.373 229.765C214.347 229.89 214.398 229.953 214.525 229.953L216.598 229.949C216.607 229.95 216.616 229.948 216.624 229.944C216.632 229.941 216.639 229.935 216.645 229.929C216.651 229.922 216.655 229.914 216.657 229.906C216.66 229.897 216.66 229.888 216.659 229.88Z" fill="#0079B5"/>
</svg>
