<svg width="40" height="40" viewBox="0 0 40 40" fill="none" xmlns="http://www.w3.org/2000/svg">
<path d="M12.7119 20.3099H3.09375C2.49219 20.3099 2 20.8021 2 21.4036V23.5911C2 24.1927 2.49219 24.6849 3.09375 24.6849H12.8145C13.9014 24.6849 14.9199 25.43 15.0977 26.5033C15.3232 27.8704 14.2705 29.0599 12.9375 29.0599C11.9736 29.0599 11.1533 28.431 10.8594 27.5628C10.7158 27.1322 10.2715 26.8724 9.82031 26.8724H7.57812C6.9082 26.8724 6.36816 27.474 6.49121 28.1302C7.0791 31.1449 9.74512 33.4349 12.9307 33.4349C16.834 33.4349 19.9512 30.0101 19.4385 26.0111C19.0215 22.7025 16.041 20.3099 12.7119 20.3099ZM3.09375 18.1224H26.0625C30.1436 18.1224 33.3633 14.3763 32.4746 10.1449C31.9551 7.67025 29.9521 5.66732 27.4775 5.14779C23.6904 4.35482 20.293 6.84994 19.623 10.3089C19.4932 10.9652 20.04 11.5599 20.7031 11.5599H22.9453C23.4033 11.5599 23.8408 11.3001 23.9844 10.8695C24.2783 10.0013 25.0986 9.3724 26.0625 9.3724C27.3887 9.3724 28.4482 10.5618 28.2227 11.929C28.0449 13.0023 27.0332 13.7474 25.9395 13.7474H3.09375C2.49219 13.7474 2 14.2396 2 14.8411V17.0286C2 17.6302 2.49219 18.1224 3.09375 18.1224ZM29.3438 20.3099H18.6592C19.9785 21.4447 20.9287 22.9622 21.3799 24.6849H29.3438C31.1553 24.6849 32.625 26.1546 32.625 27.9661C32.625 29.7777 31.1553 31.2474 29.3438 31.2474C28.1201 31.2474 27.0674 30.5706 26.5 29.5794C26.3018 29.2376 25.9053 29.0599 25.5088 29.0599H23.1982C22.4531 29.0599 21.8994 29.7982 22.1523 30.5023C23.3691 33.9613 26.9717 36.2992 30.998 35.4447C33.8145 34.8499 36.1318 32.6009 36.7881 29.7913C37.957 24.7874 34.1631 20.3099 29.3438 20.3099Z" fill="#0085FF"/>
</svg>
